<svg width="290" height="112" viewBox="0 0 290 112" fill="none" xmlns="http://www.w3.org/2000/svg">
<g filter="url(#filter0_d_244_2233)">
<path d="M60.8719 80.3785L61.1776 80.576L61.5387 80.5308C80.0108 78.2185 124.51 77.5847 153.989 78.386C178.813 79.0608 216.007 84.7543 238.24 88.1576C241.874 88.7139 245.109 89.209 247.824 89.611L249.097 89.7994L248.965 88.5197L246.292 62.4701L246.215 61.7182L245.471 61.5873C243.926 61.3157 241.918 60.9659 239.729 60.5893C240.87 60.6531 241.951 60.7144 242.928 60.7705L243.73 60.8165L243.948 60.0436L244.571 57.8333L244.861 56.8068L243.818 56.5839C243.617 56.541 243.397 56.4945 243.162 56.4455C243.451 56.4344 243.736 56.4256 244.014 56.4192C245.435 56.3867 246.623 56.4216 247.343 56.5466L247.843 56.6335L248.209 56.2808L271.165 34.1213L272.64 32.6973L270.61 32.4116C240.237 28.1375 174.289 20.8507 153.599 20.4223C126.663 19.8646 85.1821 19.6227 51.4139 21.2029L51.0193 21.2214L50.7438 21.5046L34.4662 38.2379L17.7427 53.1764L16.6872 54.1193L17.9285 54.7992L39.9097 66.839L60.8719 80.3785Z" fill="#BED4DE" stroke="#254E1E" stroke-width="2"/>
<path d="M222.942 58.7269C226.451 59.1444 239.303 61.3543 245.29 62.4071L245.884 68.1959C234.101 67.2931 208.78 65.2789 201.761 64.4441C192.987 63.4006 172.625 56.7469 167.567 56.2286C152.956 54.7311 129.825 57.6313 126.214 58.1637C122.604 58.6962 93.8285 57.498 82.5834 58.0243C73.5874 58.4452 47.9861 61.8944 36.31 63.5663L18.4012 53.7571L35.1508 38.7953L43.3018 30.416C75.3763 28.3092 142.164 24.5537 152.72 26.3863C165.914 28.6772 183.513 31.8526 190.768 31.5131C198.022 31.1736 215.672 35.4371 220.767 35.5622C225.863 35.6873 261.225 37.8113 263.854 39.616L247.506 55.3963C244.208 54.8235 233.722 56.0413 235.173 55.9734C236.334 55.9191 241.276 56.8996 243.601 57.3967L242.978 59.607C234.837 59.1397 219.432 58.3095 222.942 58.7269Z" fill="#97BACA"/>
</g>
<path d="M52.4045 53.2543C53.7199 54.4688 55.5384 55.1964 57.3878 55.2862C61.1505 55.4689 65.0596 53.2935 65.0557 49.4259C65.0319 43.9911 65.4608 38.4505 66.3237 33.1867L59.9462 32.877C60.2951 38.1997 60.0012 42.2766 59.738 47.6974C59.6699 49.1004 58.3937 49.7097 57.182 49.6508C55.9703 49.592 54.7911 48.8635 54.8562 47.5243L52.4045 53.2543ZM74.6926 56.1265C80.3047 56.399 82.6697 52.4546 82.8997 48.3746C83.1298 44.2946 81.1597 40.1078 75.5476 39.8353C69.9035 39.5612 67.5689 43.539 67.3707 47.6206C67.1725 51.7021 69.1123 55.8555 74.6926 56.1265ZM72.951 47.8915C73.0392 46.074 74.0274 44.8115 75.3029 44.8734C76.5784 44.9354 77.4078 46.2861 77.3195 48.1037C77.2312 49.9212 76.243 51.1837 74.9994 51.1233C73.7239 51.0614 72.8627 49.7091 72.951 47.8915ZM84.4206 56.4391L90.4792 56.7332C90.0032 49.4227 90.0713 48.0197 91.2534 40.7897L85.1948 40.4955C85.6709 47.806 85.6027 49.209 84.4206 56.4391ZM85.7596 34.1305L85.5506 38.4352L91.1308 38.7062L91.3399 34.4014L85.7596 34.1305ZM93.5004 40.8988C93.939 47.6641 93.7538 50.8194 92.79 56.8455L98.7529 57.135C98.6077 54.8586 97.4968 46.1429 101.355 46.3303C102.471 46.3844 103.492 47.7445 103.339 50.9013C103.233 53.0696 102.981 53.6646 102.388 57.3115L108.447 57.6057C108.231 54.1433 108.127 51.6772 108.228 49.6045C108.406 45.9375 108.144 41.4501 103.457 41.2225C101.894 41.1466 98.8887 41.8317 98.723 45.2436L98.4042 45.2281C98.5005 44.5616 98.8048 42.2431 98.985 41.1651L93.5004 40.8988ZM120.386 35.8119C120.862 43.1224 120.484 50.9028 119.302 58.1328L129.123 58.6097C136.266 58.9566 139.973 53.703 140.239 48.2184C140.514 42.5744 137.095 36.6232 129.92 36.2748L120.386 35.8119ZM126.224 39.9947L127.882 40.0752C132.155 40.2827 133.955 44.0139 133.779 47.649C133.602 51.2841 131.449 54.8233 127.814 54.6467L125.518 54.5353C125.401 49.7033 125.639 44.7927 126.224 39.9947ZM141.621 59.2166L147.679 59.5108C147.203 52.2003 147.271 50.7972 148.453 43.5672L142.395 43.273C142.871 50.5835 142.803 51.9866 141.621 59.2166ZM142.96 36.908L142.751 41.2128L148.331 41.4837L148.54 37.179L142.96 36.908ZM149.785 55.9374C150.189 58.1624 153.075 59.9326 155.977 60.0735C159.07 60.2237 162.221 58.5229 162.373 55.398C162.463 53.5485 161.431 52.4117 160.292 51.5254C158.782 50.3653 157.197 49.4254 157.251 48.3093C157.27 47.9267 157.503 47.7462 157.758 47.7586C158.395 47.7896 159.304 48.8245 159.09 49.9328L162.894 46.6337C161.637 44.8786 159.766 43.9247 157.406 43.8102C154.313 43.66 151.237 45.1407 151.102 47.9148C150.98 50.4339 153.132 51.5293 154.541 52.7803C155.245 53.4218 155.787 54.1193 155.742 55.044C155.714 55.618 155.348 55.9198 154.933 55.8997C154.232 55.8656 153.385 54.8657 153.878 52.6203L149.785 55.9374ZM171.347 60.8199C174.504 60.9732 177.697 59.7219 179.057 56.7195L175.016 53.0713C174.933 54.7614 173.478 55.7774 172.107 55.7108C170.831 55.6489 169.666 54.6334 169.774 52.4013C169.859 50.6475 170.878 49.4185 172.185 49.482C173.333 49.5377 174.5 50.5213 174.336 51.9197L179.242 48.9617C177.754 46.0448 175.613 44.7262 172.137 44.5574C167.067 44.3112 164.415 48.2417 164.217 52.3232C164.02 56.3729 166.277 60.5737 171.347 60.8199ZM188.096 61.6332C193.708 61.9057 196.073 57.9613 196.303 53.8813C196.533 49.8013 194.563 45.6145 188.951 45.3419C183.307 45.0679 180.972 49.0457 180.774 53.1272C180.576 57.2088 182.516 61.3622 188.096 61.6332ZM186.355 53.3982C186.443 51.5806 187.431 50.3182 188.706 50.3801C189.982 50.442 190.811 51.7928 190.723 53.6103C190.635 55.4279 189.647 56.6904 188.403 56.63C187.127 56.568 186.266 55.2158 186.355 53.3982ZM203.883 62.2399C203.573 57.4305 203.588 57.1117 203.687 55.0709C203.852 51.6909 205.245 50.6398 206.234 50.6878C206.68 50.7095 206.92 51.0408 206.898 51.4872C206.868 52.093 206.35 52.8989 205.054 53.2515L210.129 55.3837C211.376 54.7091 212.16 53.0531 212.242 51.3631C212.39 48.302 210.442 46.2896 208.402 46.1905C206.488 46.0976 204.525 47.6963 204.106 50.3928L203.756 50.3757L203.955 46.2623L198.598 46.0022C199.074 53.3127 199.006 54.7157 197.824 61.9457L203.883 62.2399ZM213.491 54.5881C213.252 59.4987 215.384 62.9902 218.796 63.1559C220.231 63.2255 221.647 62.3674 222.61 60.3047L223.939 63.2138L228.244 63.4229C227.768 56.1123 228.146 48.3319 229.328 41.1019L223.269 40.8077C223.506 44.4948 223.641 45.6521 223.457 49.4466L223.683 51.3753L223.364 51.3599C223.496 48.6495 221.566 46.9257 219.366 46.8188C216.751 46.6919 213.767 48.9121 213.491 54.5881ZM219.073 54.8271C219.149 53.2647 219.926 51.7363 221.329 51.8044C222.7 51.871 223.326 53.4675 223.25 55.03C223.174 56.5924 222.397 58.1208 221.025 58.0543C219.622 57.9861 218.997 56.3896 219.073 54.8271Z" fill="#152F11"/>
<defs>
<filter id="filter0_d_244_2233" x="13.4653" y="18.9978" width="261.345" height="74.9792" filterUnits="userSpaceOnUse" color-interpolation-filters="sRGB">
<feFlood flood-opacity="0" result="BackgroundImageFix"/>
<feColorMatrix in="SourceAlpha" type="matrix" values="0 0 0 0 0 0 0 0 0 0 0 0 0 0 0 0 0 0 127 0" result="hardAlpha"/>
<feOffset dx="-1.5" dy="3"/>
<feComposite in2="hardAlpha" operator="out"/>
<feColorMatrix type="matrix" values="0 0 0 0 0.145098 0 0 0 0 0.305882 0 0 0 0 0.117647 0 0 0 1 0"/>
<feBlend mode="normal" in2="BackgroundImageFix" result="effect1_dropShadow_244_2233"/>
<feBlend mode="normal" in="SourceGraphic" in2="effect1_dropShadow_244_2233" result="shape"/>
</filter>
</defs>
</svg>
