<svg width="280" height="110" viewBox="0 0 280 110" fill="none" xmlns="http://www.w3.org/2000/svg">
<g filter="url(#filter0_d_244_2232)">
<path d="M224.128 79.3785L223.822 79.576L223.461 79.5308C204.989 77.2185 160.49 76.5847 131.011 77.386C106.187 78.0608 68.9926 83.7543 46.7598 87.1576C43.1255 87.7139 39.891 88.209 37.1757 88.611L35.9032 88.7994L36.0345 87.5197L38.7077 61.4701L38.7848 60.7182L39.5292 60.5873C41.074 60.3157 43.0819 59.9659 45.2711 59.5893C44.1304 59.6531 43.0489 59.7144 42.072 59.7705L41.2703 59.8165L41.0523 59.0436L40.4286 56.8333L40.139 55.8068L41.1821 55.5839C41.3827 55.541 41.6027 55.4945 41.838 55.4455C41.5492 55.4344 41.2643 55.4256 40.9856 55.4192C39.5647 55.3867 38.3767 55.4216 37.6568 55.5466L37.1565 55.6335L36.7912 55.2808L13.8347 33.1213L12.3595 31.6973L14.3899 31.4116C44.7634 27.1375 110.711 19.8507 131.401 19.4223C158.337 18.8646 199.818 18.6227 233.586 20.2029L233.981 20.2214L234.256 20.5046L250.534 37.2379L267.257 52.1764L268.313 53.1193L267.071 53.7992L245.09 65.839L224.128 79.3785Z" fill="#BED4DE" stroke="#254E1E" stroke-width="2"/>
<path d="M62.0582 57.7269C58.5487 58.1444 45.6973 60.3543 39.7102 61.4071L39.1162 67.1959C50.8993 66.2931 76.2204 64.2789 83.2394 63.4441C92.0131 62.4006 112.375 55.7469 117.433 55.2286C132.044 53.7311 155.175 56.6313 158.786 57.1637C162.396 57.6962 191.172 56.498 202.417 57.0243C211.413 57.4452 237.014 60.8944 248.69 62.5663L266.599 52.7571L249.849 37.7953L241.698 29.416C209.624 27.3092 142.836 23.5537 132.28 25.3863C119.086 27.6772 101.487 30.8526 94.2324 30.5131C86.9775 30.1736 69.3282 34.4371 64.2328 34.5622C59.1374 34.6873 23.7749 36.8113 21.1457 38.616L37.4935 54.3963C40.7922 53.8235 51.2778 55.0413 49.8268 54.9734C48.666 54.9191 43.7245 55.8996 41.3988 56.3967L42.0225 58.607C50.1633 58.1397 65.5677 57.3095 62.0582 57.7269Z" fill="#97BACA"/>
</g>
<path d="M76.2484 38.7617C77.4305 45.9917 77.8082 53.7721 77.3321 61.0827L83.7095 60.773C83.3049 58.3636 82.9736 54.8318 82.7572 52.3493L84.798 52.2502C90.5695 51.97 86.8769 58.8614 89.9275 60.4712L96.3049 60.1616C93.3134 58.453 98.2899 49.0382 87.8947 49.5429L87.8761 49.1602C92.723 48.9249 95.0117 46.0331 94.8786 43.2908C94.747 40.5804 92.2877 37.983 87.6003 38.2106L76.2484 38.7617ZM82.4318 43.6713L85.9713 43.4995C87.6613 43.4175 88.564 44.2366 88.6043 45.0657C88.6476 45.9585 87.7981 46.8947 85.979 46.951L82.4395 47.1229C82.3987 45.6226 82.4089 45.1747 82.4318 43.6713ZM97.4952 51.7616C97.6996 55.9707 100.496 60.2458 105.407 60.0074C107.511 59.9052 110.489 58.7058 111.843 56.3069L108.423 52.3498C108.55 53.6541 107.19 54.615 105.883 54.6785C104.863 54.728 103.773 54.0138 103.487 52.7173L111.462 51.7548C111.289 46.8729 108.565 43.4254 104.037 43.6452C99.3815 43.8713 97.3033 47.8076 97.4952 51.7616ZM104.454 48.2915C105.156 48.2574 105.882 48.7335 105.933 49.7858L103.082 50.3078C102.861 49.04 103.657 48.3302 104.454 48.2915ZM112.896 63.2235C114.831 64.8875 118.399 65.3216 120.6 65.2148C126.18 64.9438 130.795 59.9255 130.49 54.3149C130.266 50.3624 130.296 46.3657 130.525 42.5191L125.072 42.7838L123.951 45.3633C123.331 43.7953 121.429 42.8009 119.484 42.8953C116.742 43.0284 113.91 45.2754 114.192 51.0789C114.478 56.978 117.372 59.2986 120.019 59.1701C122.442 59.0525 124.639 56.9002 124.481 53.6478L124.832 53.6307L124.639 55.5898C124.566 58.6937 122.236 60.0853 119.717 60.2075C117.198 60.3298 114.522 59.1813 113.82 57.2337L112.896 63.2235ZM119.783 51.0312C119.695 49.2136 120.556 47.8613 121.832 47.7994C123.107 47.7375 124.063 49.0015 124.152 50.8191C124.24 52.6367 123.411 53.9874 122.135 54.0493C120.86 54.1112 119.903 52.8472 119.783 51.0312ZM133.202 58.3703L139.26 58.0762C138.078 50.8461 138.01 49.4431 138.486 42.1326L132.428 42.4267C133.61 49.6567 133.678 51.0598 133.202 58.3703ZM132.373 36.0369L132.582 40.3417L138.163 40.0708L137.954 35.766L132.373 36.0369ZM141.011 54.3155C141.628 56.491 144.672 57.9733 147.574 57.8324C150.667 57.6822 153.638 55.6842 153.486 52.5592C153.397 50.7098 152.26 49.6782 151.04 48.9064C149.425 47.8981 147.757 47.1161 147.702 46.0001C147.684 45.6174 147.898 45.4153 148.153 45.4029C148.791 45.3719 149.795 46.314 149.69 47.4378L153.156 43.7856C151.735 42.1606 149.78 41.3925 147.42 41.5071C144.327 41.6573 141.409 43.429 141.544 46.2032C141.666 48.7223 143.914 49.604 145.438 50.7126C146.201 51.2828 146.807 51.9246 146.852 52.8493C146.88 53.4233 146.545 53.7592 146.13 53.7793C145.429 53.8134 144.49 52.9001 144.762 50.6175L141.011 54.3155ZM156.837 41.2417C157.034 43.9809 157.173 46.8508 157.312 49.7206C157.614 55.9386 161.178 57.5874 166.581 56.9416L166.282 50.7874C165.463 51.6901 164.749 52.1403 164.143 52.1697C162.964 52.227 162.227 50.8883 162.167 49.6447C162.054 47.317 161.912 43.0729 161.971 40.9925L165.159 40.8377L165.062 38.8288C164.733 39.2922 163.535 39.638 162.076 39.8687C162.102 38.4291 162.121 36.1908 162.235 34.5872L156.177 34.8813C156.377 36.3738 156.549 38.6028 156.749 40.0953C155.307 40.0056 154.177 39.7728 153.901 39.3706L153.999 41.3795L156.837 41.2417ZM168.077 48.335C168.281 52.5441 171.077 56.8192 175.988 56.5808C178.093 56.4786 181.071 55.2793 182.425 52.8803L179.004 48.9232C179.132 50.2275 177.772 51.1884 176.465 51.2519C175.444 51.3014 174.355 50.5872 174.068 49.2907L182.044 48.3282C181.871 43.4463 179.146 39.9988 174.618 40.2186C169.963 40.4447 167.885 44.381 168.077 48.335ZM175.036 44.8649C175.737 44.8308 176.464 45.307 176.515 46.3592L173.663 46.8812C173.442 45.6135 174.239 44.9036 175.036 44.8649ZM190.482 55.5895C189.707 50.8327 189.692 50.5139 189.593 48.4731C189.429 45.093 190.714 43.912 191.702 43.864C192.149 43.8423 192.419 44.1488 192.441 44.5952C192.47 45.2011 192.032 46.0534 190.777 46.5298L196.034 48.1604C197.21 47.3681 197.83 45.6441 197.747 43.954C197.599 40.8929 195.465 39.0787 193.424 39.1778C191.511 39.2707 189.712 41.052 189.556 43.7764L189.206 43.7934L189.006 39.68L183.649 39.94C184.831 47.1701 184.899 48.5731 184.423 55.8836L190.482 55.5895Z" fill="#152F11"/>
<defs>
<filter id="filter0_d_244_2232" x="8.6897" y="17.9978" width="261.345" height="74.9792" filterUnits="userSpaceOnUse" color-interpolation-filters="sRGB">
<feFlood flood-opacity="0" result="BackgroundImageFix"/>
<feColorMatrix in="SourceAlpha" type="matrix" values="0 0 0 0 0 0 0 0 0 0 0 0 0 0 0 0 0 0 127 0" result="hardAlpha"/>
<feOffset dx="-1.5" dy="3"/>
<feComposite in2="hardAlpha" operator="out"/>
<feColorMatrix type="matrix" values="0 0 0 0 0.145098 0 0 0 0 0.305882 0 0 0 0 0.117647 0 0 0 1 0"/>
<feBlend mode="normal" in2="BackgroundImageFix" result="effect1_dropShadow_244_2232"/>
<feBlend mode="normal" in="SourceGraphic" in2="effect1_dropShadow_244_2232" result="shape"/>
</filter>
</defs>
</svg>
