<svg width="52" height="41" viewBox="0 0 52 41" fill="none" xmlns="http://www.w3.org/2000/svg">
<g filter="url(#filter0_d_507_508)">
<path d="M26.924 11.2914C26.924 7.7084 26.9282 4.12455 26.9173 0.541535C26.9165 0.216719 27.0002 0.111238 27.3375 0.108727C30.8787 0.0811006 34.419 0.0283599 37.9594 0.00157102C39.4378 -0.0101491 40.9137 0.0250113 42.3134 0.611856C45.0316 1.75206 46.4941 3.83155 46.8608 6.71387C47.1195 8.74648 46.7436 10.6485 45.5699 12.3571C44.9496 13.2596 44.1359 13.9494 43.1531 14.4266C42.9228 14.5387 42.9203 14.6199 43.03 14.8326C44.2573 17.2042 45.4728 19.5826 46.6909 21.9584C46.9035 22.3728 46.9027 22.377 46.4514 22.377C44.1643 22.3787 41.8772 22.3711 39.591 22.3854C39.2854 22.3871 39.1531 22.2766 39.0393 22.0087C38.1418 19.8965 37.2243 17.7936 36.3277 15.6806C36.2264 15.442 36.121 15.3382 35.8522 15.3474C35.2394 15.3684 34.625 15.3675 34.0122 15.3483C33.7518 15.3407 33.689 15.4169 33.6899 15.6748C33.7008 17.766 33.6874 19.858 33.7016 21.9501C33.7041 22.2832 33.6338 22.3979 33.273 22.3946C31.2931 22.3753 29.3124 22.3778 27.3325 22.3937C26.991 22.3963 26.8897 22.3084 26.8905 21.9584C26.9031 18.403 26.898 14.8468 26.898 11.2906C26.9073 11.2906 26.9165 11.2906 26.9257 11.2906L26.924 11.2914ZM36.0967 5.80723C36.0967 5.80723 36.0967 5.81309 36.0967 5.81644C35.4136 5.81644 34.7304 5.83234 34.0482 5.8089C33.7443 5.79802 33.6807 5.90267 33.6848 6.18562C33.7008 7.20276 33.7033 8.22074 33.6848 9.23788C33.6798 9.5267 33.7836 9.58195 34.0415 9.57944C35.2821 9.56856 36.5228 9.57777 37.7626 9.56772C37.997 9.56605 38.2365 9.53173 38.4633 9.47312C39.4662 9.21361 40.0807 8.36557 39.9744 7.40787C39.8789 6.5456 39.0435 5.83653 38.0615 5.81058C37.4068 5.793 36.7513 5.80723 36.0967 5.80723Z" fill="#1E4718"/>
<path d="M4.5069 9.41646H4.50262C4.50241 9.99554 4.50188 10.5744 4.50136 11.153C4.49977 12.8904 4.49819 14.6262 4.50522 16.3624L4.5069 9.41646ZM4.5069 9.41646V8.91646M4.5069 9.41646V8.91646M4.5069 8.91646C4.5069 8.38987 4.50703 7.86316 4.50717 7.33634C4.50769 5.28365 4.50821 3.22942 4.50081 1.17531M4.5069 8.91646L4.50081 1.17531M4.50081 1.17531C6.36373 1.18231 8.22775 1.18601 10.0922 1.17766C10.0797 1.45857 10.0827 1.74291 10.0855 2.01023C10.0865 2.10936 10.0876 2.20616 10.0878 2.29957L4.50081 1.17531ZM16.4131 19.0978L16.413 19.0978C14.997 19.6839 13.5516 19.6558 12.1364 19.1465L16.4131 19.0978ZM16.4131 19.0978C17.0224 18.8455 17.4804 18.4562 17.7864 17.9539C18.089 17.4572 18.2256 16.8791 18.2452 16.2693L18.2452 16.2691M16.4131 19.0978L18.2452 16.2691M18.2452 16.2691C18.2622 15.7305 18.2638 15.1936 18.2638 14.6635L18.2638 14.663M18.2452 16.2691L18.2638 14.663M18.2638 14.663C18.2601 11.3168 18.2549 7.9707 18.2497 4.62469M18.2638 14.663L18.2497 4.62469M16.2866 22.8964L16.2866 22.8964C18.2514 22.7094 20.0661 22.2637 21.5854 21.0645C22.355 20.4569 22.9535 19.7521 23.3151 18.867C23.6344 18.0836 23.7711 17.265 23.7727 16.4064C23.7761 14.5316 23.7787 12.6566 23.7813 10.7816C23.7857 7.58393 23.7901 4.38603 23.7985 1.18818C22.468 1.19541 21.1372 1.19426 19.8081 1.19311C19.3164 1.19268 18.825 1.19226 18.3339 1.19226C18.2944 1.19226 18.2673 1.19563 18.2502 1.19903C18.2473 1.21478 18.2445 1.23915 18.2446 1.27417L16.2866 22.8964ZM16.2866 22.8964C14.5509 23.0618 12.8197 23.0613 11.1147 22.7915C9.47947 22.5323 7.96576 22.0719 6.69299 21.078L6.69295 21.078M16.2866 22.8964L6.69295 21.078M6.69295 21.078C5.1713 19.89 4.5139 18.2971 4.50522 16.3626L6.69295 21.078ZM10.0969 6.0478C10.0933 4.79891 10.0898 3.54965 10.0878 2.29979L10.0969 6.0478ZM10.0969 6.0478C10.1065 9.44276 10.1161 12.8349 10.0953 16.2284M10.0969 6.0478L10.0953 16.2284M10.0953 16.2284C10.0873 17.5134 10.8737 18.6923 12.1363 19.1464L10.0953 16.2284ZM18.2497 4.62469C18.248 3.50784 18.2463 2.39101 18.2446 1.2742L18.2497 4.62469Z" stroke="#1E4718"/>
<path d="M38.239 30.6631C38.2633 29.4041 38.5814 28.592 39.4219 28.0973C40.2222 27.6259 41.0661 27.6335 41.8823 28.1006C42.9262 28.6983 43.3549 30.2312 42.8417 31.4995C42.3821 32.6355 41.2277 33.2282 40.0163 32.9034C39.0276 32.638 38.2005 31.6661 38.2382 30.664L38.239 30.6631ZM40.6483 29.137C39.9954 29.1429 39.5693 29.6326 39.5776 30.366C39.586 31.0608 40.0272 31.6602 40.5311 31.6602C41.2561 31.6602 41.714 31.1612 41.7216 30.3618C41.7291 29.6276 41.2938 29.1312 40.6483 29.137Z" fill="#1E4718"/>
<path d="M23.2571 30.3911C23.2554 32.3752 21.4932 33.5623 19.7838 32.7318C18.8143 32.2605 18.2635 30.9805 18.5146 29.8043C18.7608 28.6507 19.5176 27.9324 20.4208 27.8152C21.9595 27.616 23.2161 28.5661 23.2563 30.1827C23.258 30.2522 23.2563 30.3216 23.2563 30.3911H23.2571ZM21.9269 30.356C21.9244 29.6653 21.5761 29.194 21.0311 29.1446C20.1471 29.0642 19.5921 29.8403 19.8583 30.7871C19.9705 31.1839 20.1705 31.4928 20.6117 31.5908C21.3861 31.7624 21.9294 31.2567 21.926 30.356H21.9269Z" fill="#1E4718"/>
<path d="M9.02897 28.4364C9.47852 27.9391 9.93309 27.7089 10.535 27.7742C11.2064 27.847 11.5865 28.2262 11.7715 28.8424C11.877 29.1931 11.8937 29.5573 11.8971 29.919C11.9046 30.7837 11.8878 31.6485 11.9063 32.5133C11.9121 32.7996 11.8133 32.8548 11.5496 32.854C10.5492 32.854 10.5517 32.8632 10.5484 31.8595C10.5467 31.1906 10.561 30.52 10.5233 29.8528C10.4931 29.3237 10.2428 29.117 9.79161 29.1396C9.4894 29.1546 9.29937 29.3145 9.19305 29.5833C9.09426 29.8344 9.08757 30.1006 9.08757 30.366C9.08589 31.091 9.07668 31.8168 9.0884 32.5418C9.09175 32.7753 9.02059 32.849 8.78284 32.8557C7.73473 32.8867 7.73556 32.8942 7.73556 31.8411C7.73556 30.6414 7.74226 29.4418 7.73054 28.243C7.72803 27.9776 7.78998 27.8503 8.07629 27.8914C8.21274 27.9106 8.35506 27.8956 8.49402 27.8939C8.818 27.8897 9.20393 27.8085 9.02813 28.4372L9.02897 28.4364Z" fill="#1E4718"/>
<path d="M14.5157 28.418C14.9351 27.9374 15.4039 27.7064 15.9916 27.7742C16.7467 27.8612 17.187 28.3066 17.3017 29.1094C17.4683 30.2731 17.3612 31.4459 17.3921 32.6146C17.3972 32.8021 17.3143 32.8649 17.1418 32.8473C17.1284 32.8457 17.1142 32.8473 17.1 32.8473C16.0427 32.8967 16.0535 32.8967 16.0393 31.8436C16.0301 31.1487 16.1021 30.4514 15.9857 29.7591C15.9271 29.4083 15.7831 29.1605 15.3838 29.1362C14.9619 29.1111 14.7325 29.3263 14.6287 29.7063C14.4864 30.2262 14.5734 30.7595 14.555 31.2869C14.5441 31.6209 14.5525 31.9558 14.5525 32.2898C14.5525 32.6637 14.3583 32.8498 13.9699 32.8482C13.4609 32.8459 13.2064 32.592 13.2064 32.0864C13.2064 30.8047 13.2122 29.523 13.2005 28.2422C13.198 27.9793 13.2558 27.8512 13.5421 27.8914C13.6785 27.9106 13.8217 27.9081 13.959 27.8914C14.3265 27.847 14.6019 27.8972 14.5157 28.4188V28.418Z" fill="#1E4718"/>
<path d="M32.0197 32.3667C31.3801 32.9854 30.6417 33.1512 29.9787 32.8381C29.422 32.5752 29.1759 32.0871 29.1374 31.512C29.098 30.9218 29.3115 30.4095 29.8456 30.0956C30.1914 29.8921 30.5563 29.7657 30.9841 29.8059C31.2763 29.8335 31.5802 29.7339 31.8799 29.6954C32.1101 29.6653 32.0431 29.5037 32.0088 29.3806C31.8799 28.9135 31.2897 28.6933 30.7615 28.9093C30.6978 28.9353 30.6392 28.9763 30.5756 29.0022C30.3839 29.0801 30.2508 29.4216 30.1034 29.3329C29.854 29.1831 29.6907 28.8917 29.4898 28.6598C29.3935 28.5493 29.4806 28.4958 29.5509 28.4238C30.1687 27.79 31.5785 27.5607 32.3629 27.9734C32.8912 28.2513 33.1256 28.7251 33.2093 29.2877C33.3742 30.3969 33.2553 31.5145 33.2897 32.6271C33.2913 32.6807 33.2922 32.7744 33.2679 32.7837C32.9213 32.9168 32.5588 32.8414 32.203 32.8406C31.9494 32.8406 32.0934 32.6087 32.0482 32.4856C32.0389 32.4597 32.0339 32.432 32.018 32.3676L32.0197 32.3667ZM31.6781 30.6724C31.309 30.6941 30.9925 30.7243 30.7087 30.8925C30.4735 31.0315 30.4199 31.2458 30.4467 31.4986C30.4743 31.754 30.6669 31.8444 30.8694 31.8988C31.4278 32.0495 31.9879 31.6518 32.0532 31.0968C32.0942 30.7502 31.9971 30.5878 31.679 30.6715L31.6781 30.6724Z" fill="#1E4718"/>
<path d="M36.2515 27.1354C36.2515 27.1497 36.2515 27.1631 36.2515 27.1773C36.2574 28.0312 36.1887 27.9023 36.9589 27.878C37.3658 27.8654 37.4369 28.0094 37.4252 28.3702C37.4009 29.1379 37.4185 29.1446 36.6525 29.1371C36.3302 29.1337 36.105 29.1086 36.2239 29.5916C36.3244 29.9993 36.2365 30.4506 36.2473 30.8825C36.2641 31.5648 36.4993 31.7808 37.1607 31.6435C37.4411 31.5849 37.4311 31.6887 37.4185 31.8779C37.4126 31.975 37.4168 32.073 37.4168 32.1709C37.4168 32.6805 37.1587 32.9514 36.6425 32.9838C35.4998 33.0541 34.9087 32.5075 34.902 31.3689C34.8987 30.7553 34.8861 30.1417 34.9079 29.5297C34.9188 29.23 34.8501 29.076 34.5245 29.1396C34.1042 29.2225 33.977 29.0257 34.0431 28.639C34.0523 28.5846 34.0448 28.5276 34.0448 28.4715C34.0448 27.9199 34.0448 27.9065 34.5998 27.8947C34.8401 27.8897 34.9154 27.8052 34.9045 27.5758C34.8903 27.2836 34.9121 26.9898 34.8978 26.6976C34.887 26.4758 34.9774 26.3937 35.1908 26.4121C35.3013 26.4222 35.4135 26.4155 35.5249 26.4155C36.0099 26.4166 36.2518 26.656 36.2507 27.1338L36.2515 27.1354Z" fill="#1E4718"/>
<path d="M23.7334 27.8905C24.1796 27.8905 24.5932 27.893 25.0067 27.8897C25.1993 27.888 25.2135 28.0261 25.257 28.1626C25.5718 29.1412 25.8924 30.1174 26.2164 31.1102C26.3964 31.0483 26.3755 30.8834 26.4115 30.7695C26.6752 29.9206 26.9322 29.0692 27.1766 28.2153C27.2427 27.9851 27.3348 27.8863 27.5994 27.8872C28.6508 27.8905 28.6475 27.8771 28.3043 28.8625C27.884 30.0696 27.4638 31.276 27.0594 32.4882C26.9732 32.7477 26.8669 32.8632 26.5672 32.859C25.5057 32.844 25.5073 32.8565 25.1448 31.8528C24.712 30.6506 24.275 29.4501 23.8414 28.248C23.8046 28.1459 23.7778 28.0412 23.7334 27.893V27.8905Z" fill="#1E4718"/>
<path d="M45.5498 28.6005C45.8169 28.0873 46.1543 27.8001 46.6624 27.7692C46.7855 27.7616 46.9454 27.7399 47.0282 27.8035C47.4502 28.1266 47.1438 28.5829 47.2041 28.9755C47.2484 29.2643 47.004 29.1555 46.8566 29.1463C45.9282 29.0868 45.5515 29.4175 45.5214 30.3669C45.4988 31.0768 45.5013 31.7875 45.5155 32.4982C45.5205 32.7653 45.4511 32.8549 45.1698 32.8557C44.1627 32.8591 44.1635 32.8708 44.1627 31.8771C44.1627 30.6649 44.1694 29.4527 44.1568 28.2413C44.1543 27.9776 44.2146 27.8487 44.5 27.8906C44.6089 27.9065 44.7227 27.8939 44.8341 27.8939C45.2638 27.8939 45.5027 28.1297 45.5507 28.6013L45.5498 28.6005Z" fill="#1E4718"/>
<path d="M6.40614 30.3936C6.40614 31.1027 6.3961 31.8118 6.41117 32.5208C6.41703 32.7737 6.34252 32.8507 6.08551 32.8557C5.05749 32.8741 5.05749 32.8833 5.05749 31.8695C5.05749 30.6599 5.06419 29.4502 5.05247 28.2413C5.04995 27.986 5.09432 27.8813 5.38816 27.883C6.40698 27.888 6.40698 27.8746 6.40614 28.8935C6.40614 29.3941 6.40614 29.8947 6.40614 30.3953V30.3936Z" fill="#1E4718"/>
<path d="M6.51245 26.3225C6.51245 26.8206 6.15331 27.2375 5.73138 27.2308C5.30109 27.2241 4.94446 26.8106 4.94864 26.3217C4.95283 25.8328 5.32453 25.4251 5.75482 25.4385C6.17424 25.451 6.51328 25.847 6.51328 26.3225H6.51245Z" fill="#1E4718"/>
</g>
<defs>
<filter id="filter0_d_507_508" x="0" y="-9.15527e-05" width="51.2556" height="41" filterUnits="userSpaceOnUse" color-interpolation-filters="sRGB">
<feFlood flood-opacity="0" result="BackgroundImageFix"/>
<feColorMatrix in="SourceAlpha" type="matrix" values="0 0 0 0 0 0 0 0 0 0 0 0 0 0 0 0 0 0 127 0" result="hardAlpha"/>
<feOffset dy="4"/>
<feGaussianBlur stdDeviation="2"/>
<feComposite in2="hardAlpha" operator="out"/>
<feColorMatrix type="matrix" values="0 0 0 0 0 0 0 0 0 0 0 0 0 0 0 0 0 0 0.25 0"/>
<feBlend mode="normal" in2="BackgroundImageFix" result="effect1_dropShadow_507_508"/>
<feBlend mode="normal" in="SourceGraphic" in2="effect1_dropShadow_507_508" result="shape"/>
</filter>
</defs>
</svg>
