<svg width="84" height="94" viewBox="0 0 84 94" fill="none" xmlns="http://www.w3.org/2000/svg">
<path d="M84 3.48723C83.0661 5.29616 82.3623 7.21346 81.4338 9.01971C80.7447 10.359 80.6457 11.7291 80.6484 13.1835C80.6738 23.1566 80.6845 33.1285 80.6484 43.1016C80.6364 46.2913 80.1052 49.4088 79.3158 52.5182C78.7779 54.6349 78.2294 56.7502 77.4266 58.7612C76.0659 62.1676 74.6744 65.5768 72.6501 68.6715C71.3897 70.5981 70.0049 72.4311 68.6402 74.2842C66.7858 76.8023 64.6531 79.0353 62.4334 81.2028C61.2158 82.3909 59.7668 83.3114 58.4583 84.3965C56.4313 86.077 54.1888 87.4364 51.9692 88.8305C49.6224 90.3063 47.1578 91.5653 44.6318 92.7053C43.9146 93.0291 43.1894 93.3328 42.4683 93.6459H41.4006C39.3241 92.8096 37.3104 91.8369 35.3249 90.8094C33.231 89.727 31.2495 88.4439 29.2666 87.1715C26.6991 85.5244 24.3523 83.5817 21.9934 81.6551C19.7724 79.8408 17.8498 77.7014 16.0877 75.4924C14.4942 73.4935 12.9394 71.425 11.5694 69.2254C10.4655 67.4512 9.42863 65.6477 8.58571 63.7585C7.51668 61.3622 6.43293 58.9685 5.57262 56.4719C4.70294 53.9498 4.29352 51.3636 3.8627 48.7612C3.59243 47.1289 3.5349 45.4872 3.47469 43.8429C3.16562 35.5301 3.41983 27.2133 3.34357 18.8992C3.32082 16.4066 3.34089 13.914 3.3516 11.4214C3.35294 11.1016 3.28202 10.8193 3.1509 10.5303C2.12602 8.24637 1.10917 5.96113 0.0909815 3.67589C0.0561945 3.59829 0.036125 3.51533 0 3.40696C2.35749 3.10725 4.66146 2.68312 6.98818 2.39412C9.06336 2.13589 11.1345 1.85492 13.2124 1.60873C15.4281 1.34516 17.6437 1.09763 19.8688 0.935739C20.9164 0.859475 21.976 0.804618 23.0103 0.653428C24.4861 0.438016 25.9779 0.491535 27.459 0.237322C28.223 0.106202 29.0927 0.202535 29.9182 0.15972C35.1349 -0.109211 40.357 0.0566969 45.5764 0.017896C47.3345 0.00451633 49.0939 -0.018229 50.8506 0.0259237C52.4348 0.0660626 54.0149 0.241336 55.5977 0.269433C57.2943 0.300206 58.9707 0.515618 60.6552 0.664132C61.3336 0.72434 62.0146 0.73103 62.6956 0.792577C64.5259 0.959822 66.3563 1.10834 68.1813 1.3398C69.5473 1.51374 70.9281 1.57662 72.2928 1.75992C74.1459 2.01012 76.003 2.23891 77.8521 2.52122C79.4429 2.7634 81.0404 2.97212 82.6286 3.22901C83.0862 3.3026 83.5357 3.37886 83.9987 3.35344V3.48723H84ZM18.8198 2.94268C17.2089 2.9855 15.6234 3.25175 14.0352 3.49526C12.8618 3.67455 11.6804 3.80032 10.5084 3.99298C9.54904 4.15086 8.58169 4.20171 7.62104 4.30741C6.0971 4.47733 4.5959 4.83055 3.07732 5.06068C2.72275 5.1142 2.63445 5.23194 2.63445 5.55439C2.63445 5.83268 2.71473 6.07352 2.82578 6.31836C3.12816 6.97798 3.50279 7.59478 3.74496 8.2932C4.13966 9.43716 4.74308 10.4982 5.19799 11.6261C5.48431 12.3338 5.69838 12.9975 5.70775 13.7481C5.84556 24.8384 5.39601 35.9342 5.99006 47.0205C6.02217 47.6266 5.9807 48.2287 6.09844 48.8442C6.60285 51.4893 6.91861 54.1706 7.94215 56.7007C8.46663 57.9958 8.90548 59.3204 9.49419 60.5982C10.1551 62.0311 10.7064 63.5163 11.4101 64.9359C11.9266 65.9755 12.4123 67.0244 13.1013 67.9677C13.4265 68.4132 13.8372 68.8427 14.0433 69.319C14.7925 71.049 16.1987 72.3027 17.1968 73.8534C18.0612 75.1967 19.268 76.3179 20.3223 77.5381C22.1326 79.6334 24.3509 81.267 26.4555 83.0372C28.0156 84.3484 29.7028 85.4682 31.4154 86.5373C33.0905 87.5836 34.7188 88.7115 36.5491 89.5276C37.7868 90.0802 38.9976 90.7318 40.2138 91.3526C40.6513 91.5761 41.1236 91.6322 41.6133 91.6871C43.0824 91.8543 44.2237 90.9833 45.3864 90.4067C47.1926 89.5102 49.0363 88.6446 50.6994 87.4605C51.6654 86.7714 52.7331 86.2269 53.7379 85.5887C55.3943 84.537 56.8741 83.2446 58.4155 82.0444C59.7186 81.0289 61.0178 79.9826 62.1283 78.737C62.8522 77.9261 63.6001 77.1381 64.3239 76.3273C64.9487 75.6275 65.6538 74.9733 66.1516 74.1892C67.2407 72.4739 68.6562 71.0075 69.6503 69.2053C70.4638 67.7322 71.4847 66.3782 72.258 64.8516C73.2281 62.9343 73.8382 60.8698 74.8617 58.9846C75.4531 57.8955 75.4705 56.6151 76.0217 55.5086C76.2478 55.0563 76.5462 54.5774 76.5128 54.0823C76.4713 53.4709 76.6037 52.8875 76.7456 52.3416C77.1536 50.7789 77.6353 49.2536 77.7584 47.6146C77.8895 45.8726 78.0032 44.1279 78.0099 42.3885C78.0474 32.6615 78.03 22.9345 78.0206 13.2075C78.0206 12.8209 78.0635 12.4502 78.2146 12.1091C79.0348 10.2613 79.8737 8.42164 80.7019 6.57793C80.837 6.27689 80.9762 5.97183 81.0632 5.65473C81.1582 5.3082 81.0993 5.02455 80.6256 5.07138C80.4945 5.08476 80.354 5.08744 80.2269 5.05666C78.1477 4.55091 76.0284 4.33818 73.9077 4.11206C72.4668 3.9582 71.0338 3.7187 69.5995 3.5073C67.9672 3.26647 66.3456 2.94803 64.6852 2.92663C63.9132 2.91726 63.1371 2.86508 62.3705 2.77276C61.0325 2.61087 59.6919 2.49045 58.3512 2.36736C57.4147 2.28173 56.4701 2.21216 55.5335 2.08639C54.6692 1.96998 53.7487 2.00611 52.8536 1.99942C48.4035 1.96329 43.9521 1.95393 39.502 1.99273C36.1718 2.02216 32.8363 1.81344 29.5101 2.12519C28.9629 2.17603 28.4384 1.95393 27.8778 2.10646C27.0242 2.33926 26.1264 2.38341 25.2554 2.36201C24.4526 2.3406 23.6779 2.50785 22.8966 2.57474C21.5385 2.69115 20.1792 2.83163 18.8184 2.94135L18.8198 2.94268Z" fill="#1E4718"/>
<path d="M8.20437 47.9614C8.07593 46.3063 7.94615 44.6513 7.82171 42.9962C7.80298 42.7527 7.80031 42.5079 7.80031 42.263C7.79496 32.4036 7.78827 22.5454 7.79094 12.686C7.79094 12.3194 7.75214 11.9515 7.59426 11.6477C6.96943 10.4462 6.69247 9.10561 6.02215 7.91884C5.45218 6.91001 5.55521 6.74544 6.68177 6.59827C8.87603 6.31194 11.0743 6.06576 13.2699 5.79014C14.8688 5.58944 16.465 5.35129 18.0652 5.15862C18.9656 5.05024 19.8768 5.08904 20.7839 5.01412C23.0758 4.82814 25.3785 4.68899 27.6517 4.40133C30.0881 4.0936 32.5125 4.06283 34.9489 4.05748C40.3342 4.04677 45.7182 4.06952 51.1035 4.04677C53.2803 4.03741 55.4224 4.35584 57.5779 4.56724C58.766 4.68364 59.9621 4.72244 61.1476 4.86427C63.497 5.1439 65.8639 5.17601 68.2133 5.47705C70.5815 5.77943 72.9337 6.22899 75.3246 6.36145C76.0511 6.40159 76.7683 6.60362 77.4935 6.69995C77.9658 6.76417 78.0634 6.99832 77.8641 7.38499C77.266 8.54768 76.8847 9.79867 76.3803 10.9988C76.0926 11.6812 75.9321 12.3756 75.9321 13.1275C75.9428 22.8532 75.9708 32.5788 75.9093 42.3045C75.8986 44.0425 75.7782 45.7939 75.623 47.5399C75.4611 49.3663 74.7319 51.0093 74.4389 52.766C74.1659 54.3943 73.5184 55.8982 73.1023 57.477C72.7838 58.6838 72.1028 59.7903 71.684 60.9771C71.1729 62.4261 70.3153 63.6999 69.7239 65.1101C69.3279 66.056 68.596 66.8548 68.0822 67.7592C67.1149 69.4625 65.7582 70.8914 64.7507 72.5639C64.2155 73.4523 63.3525 74.045 62.7157 74.8491C61.9182 75.8566 61.0419 76.8119 60.1267 77.7137C59.0242 78.8014 57.7879 79.7407 56.5704 80.7014C55.3542 81.662 54.2183 82.7203 52.8856 83.5298C51.2828 84.5038 49.7468 85.5796 48.0931 86.4827C46.9665 87.0982 45.8426 87.7243 44.6879 88.2782C43.8504 88.6796 43.0289 89.1078 42.198 89.5199C41.8434 89.6965 41.5156 89.5854 41.1838 89.4142C39.102 88.3411 36.9826 87.335 34.9462 86.183C33.9963 85.6451 33.0129 85.1327 32.1807 84.362C31.5799 83.8054 30.7624 83.479 30.0319 83.0669C28.8612 82.4059 27.9447 81.4225 26.9078 80.593C25.5256 79.4878 24.0713 78.4589 22.8845 77.1236C21.6175 75.6974 20.238 74.3554 19.1048 72.8301C17.3935 70.5248 15.6194 68.2409 14.2653 65.7001C13.7195 64.6779 13.203 63.6236 12.6839 62.5813C12.0697 61.349 11.6724 60.0325 11.0529 58.8096C10.4883 57.6951 10.2715 56.4615 9.8126 55.3108C8.96969 53.2035 8.60978 50.9772 8.21508 48.7588C8.16825 48.4979 8.17494 48.2276 8.15621 47.9614L8.20705 47.9574L8.20437 47.9614ZM73.5197 8.21854C73.1959 8.90759 72.9645 9.53911 72.6179 10.0984C72.2446 10.7005 72.1817 11.3226 72.1831 11.9996C72.1951 18.4994 72.1911 24.9993 72.1911 31.4991C72.1911 32.1226 72.1724 32.7461 72.1978 33.3682C72.2139 33.7562 72.1202 33.9128 71.6867 33.9168C70.3742 33.9288 70.3742 33.9489 70.3688 32.6417C70.3688 32.5521 70.3581 32.4624 70.3688 32.3755C70.4277 31.9353 70.239 31.8055 69.8042 31.8122C68.224 31.8349 66.6439 31.8068 65.0638 31.8296C64.6249 31.8363 64.4697 31.6985 64.5018 31.2609C64.5794 30.1799 64.3694 29.0867 64.6597 28.0124C64.7226 27.7782 64.6798 27.5187 64.4015 27.3875C64.1981 27.2925 64.0095 27.3166 63.8382 27.4504C63.6295 27.6137 63.4703 27.8585 63.6148 28.0873C63.9559 28.6292 63.8235 29.2125 63.8195 29.7771C63.8155 30.4354 64.1219 31.3145 63.6897 31.6958C63.2388 32.0945 62.3705 31.7841 61.6854 31.8175C61.6627 31.8175 61.6413 31.8149 61.6185 31.8175C61.272 31.851 61.1409 31.6944 61.1529 31.3506C61.1703 30.8609 61.1556 30.3712 61.1529 29.8815C61.1529 29.6527 61.1623 29.4012 60.8291 29.4266C60.3729 29.4614 60.3247 29.1911 60.3408 28.8392C60.3528 28.5917 60.3635 28.3482 59.9862 28.3362C59.5795 28.3241 59.5621 28.569 59.5821 28.8553C59.6089 29.2232 59.5219 29.4761 59.0791 29.4212C58.7125 29.3757 58.6228 29.5698 58.6335 29.8976C58.6483 30.3873 58.6268 30.8769 58.6375 31.3666C58.6442 31.6637 58.5533 31.8215 58.2241 31.8202C56.2653 31.8135 54.3066 31.8175 52.3491 31.8175C52.131 31.8175 51.9303 31.7814 51.9464 31.5018C51.9745 31.0094 51.723 30.422 52.4254 30.1504C52.5752 30.0929 52.6716 29.9002 52.7947 29.7718C54.2249 28.2759 55.6592 26.7841 57.0815 25.2816C57.3049 25.0448 57.5511 24.9899 57.8548 24.9926C58.7901 25.0033 59.724 24.9966 60.6592 24.9966C62.1296 24.9966 62.1229 24.9966 61.9851 26.4657C61.9597 26.7373 61.8821 26.8938 61.5931 26.8631C60.7649 26.7761 59.9126 27.0611 59.0991 26.6691C58.8048 26.5272 58.5947 26.7533 58.4476 26.9902C58.2776 27.2631 58.3726 27.5039 58.5827 27.7086C58.778 27.8986 59.0349 28.007 59.2249 27.7729C59.439 27.5093 59.6932 27.5682 59.9474 27.5668C60.682 27.5628 61.4165 27.5601 62.151 27.5775C62.5952 27.5882 62.8107 27.4758 62.7344 26.9581C62.6608 26.4563 62.6942 25.9385 62.6902 25.4274C62.6889 25.2588 62.6501 24.9993 62.899 25.0153C63.4796 25.0541 64.0951 24.7932 64.6396 25.204C64.8858 25.39 65.1548 25.3779 65.3555 25.1384C65.5454 24.9136 65.5227 24.6166 65.405 24.3798C65.2672 24.1055 64.9889 24.0413 64.7173 24.1925C64.443 24.3463 64.158 24.3142 63.8717 24.3142C62.1363 24.3169 60.3943 24.4012 58.667 24.2861C57.4494 24.2059 56.6507 24.6193 55.884 25.5318C54.7695 26.8577 53.4917 28.0458 52.317 29.3222C51.941 29.7316 51.5918 29.361 51.2386 29.3798C50.8841 29.3985 51.0005 29.0145 51.0018 28.7978C51.0045 27.892 51.0058 26.9848 51.0553 26.0817C51.1945 23.5235 50.7355 20.9466 51.3055 18.4004C51.3523 18.189 51.3443 17.9442 51.1062 17.8091C50.8948 17.6886 50.6713 17.6846 50.4813 17.8385C50.2793 18.0031 50.1522 18.2345 50.2833 18.4861C50.4506 18.8058 50.4051 19.1336 50.4051 19.4641C50.4051 22.1347 50.3863 24.8066 50.4225 27.4772C50.4305 28.0364 50.2057 28.5462 50.2351 29.0961C50.2445 29.2767 50.1495 29.4199 49.9635 29.4012C49.3628 29.341 49.415 29.745 49.4203 30.1277C49.4257 30.4836 49.3909 30.8435 49.4283 31.1954C49.4845 31.7172 49.2557 31.8496 48.7754 31.8215C48.176 31.7868 47.5713 31.7761 46.9745 31.8242C46.3765 31.8724 46.1851 31.6944 46.1891 31.0616C46.2186 26.6771 46.2052 22.2912 46.2052 17.9067C46.2052 17.3501 46.2012 16.7935 46.2079 16.237C46.2105 16.0483 46.1597 15.7566 46.4514 15.7861C47.3799 15.8811 48.3526 15.4757 49.241 16.0363C49.4538 16.1714 49.6839 16.1206 49.8498 15.9413C50.0559 15.7192 50.0184 15.4342 49.9301 15.1853C49.8471 14.9512 49.6076 14.8348 49.3829 14.9217C48.5159 15.2602 47.6208 14.9967 46.7457 15.0863C46.3591 15.1264 46.1624 15.0114 46.1998 14.5779C46.2815 13.6547 46.0634 12.7168 46.3564 11.7989C46.434 11.5581 46.4313 11.2464 46.1209 11.1032C45.9055 11.0042 45.6767 11.0135 45.5001 11.1902C45.2914 11.3975 45.2205 11.6518 45.3864 11.9167C45.5402 12.1642 45.5028 12.4304 45.5028 12.694C45.5028 18.3041 45.5095 23.9128 45.4974 29.5229C45.4961 30.2695 45.8306 31.2957 45.3462 31.6877C44.8833 32.0624 43.8999 31.7961 43.1453 31.8108C43.1225 31.8108 43.1011 31.8082 43.0784 31.8108C42.6904 31.8537 42.5766 31.6597 42.59 31.2984C42.6088 30.81 42.5954 30.319 42.59 29.8293C42.5873 29.6554 42.6061 29.4052 42.3586 29.4333C41.8046 29.4948 41.8046 29.1296 41.6989 28.7509C41.5598 28.2572 41.6735 27.7796 41.6722 27.2979C41.6628 20.7312 41.6641 14.1644 41.6695 7.59773C41.6695 7.18028 41.616 6.76016 41.7779 6.34405C41.8863 6.06576 41.7444 5.81422 41.4916 5.66437C41.2775 5.53726 41.0594 5.58275 40.8761 5.74465C40.6419 5.95069 40.5831 6.24371 40.7543 6.46581C41.0152 6.80699 40.9751 7.17225 40.9751 7.54421C40.9751 14.1778 40.9778 20.8114 40.9724 27.4437C40.9724 27.9749 40.9229 28.5061 40.8975 29.0386C40.8895 29.2005 40.8667 29.3998 40.6727 29.3851C39.9315 29.3289 40.0813 29.8481 40.076 30.2695C40.072 30.6254 40.0599 30.9826 40.0787 31.3372C40.0961 31.677 39.9689 31.8229 39.6184 31.8122C39.0404 31.7948 38.4571 31.7654 37.8844 31.8202C37.2783 31.8791 37.1539 31.6556 37.1566 31.079C37.178 24.9351 37.1699 18.7911 37.1699 12.6485C37.1699 12.4064 37.1378 12.1629 37.277 11.9354C37.4549 11.6451 37.388 11.3735 37.1392 11.1607C36.9518 11.0015 36.7244 11.0002 36.5157 11.1219C36.224 11.2918 36.2481 11.5982 36.323 11.8391C36.6187 12.7797 36.3979 13.739 36.4662 14.6849C36.4822 14.9057 36.4367 15.0983 36.1517 15.0756C35.2285 15.0047 34.2906 15.2482 33.3795 14.9351C33.1119 14.8441 32.867 14.9097 32.7533 15.1599C32.6436 15.4007 32.6182 15.6911 32.8095 15.9185C32.9888 16.1326 33.2698 16.1915 33.4651 16.0055C33.7688 15.7178 34.1127 15.766 34.4619 15.7647C34.8847 15.762 35.3115 15.7994 35.7289 15.7553C36.2989 15.6951 36.4916 15.8623 36.4836 16.4764C36.4461 19.1243 36.4675 21.7734 36.4675 24.4226C36.4675 26.6931 36.4581 28.9637 36.4755 31.2342C36.4782 31.6543 36.3792 31.8376 35.9229 31.8175C35.1897 31.7841 34.4539 31.7988 33.7207 31.8122C33.3835 31.8189 33.2336 31.7025 33.247 31.3492C33.2658 30.8609 33.2363 30.3699 33.2524 29.8802C33.2644 29.5457 33.1574 29.3691 32.7988 29.4105C32.4108 29.456 32.2957 29.258 32.3078 28.8968C32.3158 28.6345 32.2382 28.3709 32.2382 28.1074C32.2422 25.125 32.2556 22.1427 32.2623 19.1604C32.2623 18.9584 32.2543 18.7657 32.3546 18.5784C32.5178 18.2747 32.4255 18.0071 32.1673 17.8158C31.9746 17.6739 31.7351 17.6726 31.5425 17.8224C31.2655 18.0365 31.2722 18.3924 31.418 18.6105C31.6696 18.9865 31.6187 19.3718 31.6201 19.7625C31.6254 22.3006 31.6294 24.8374 31.616 27.3755C31.6134 27.8384 31.7793 28.296 31.6575 28.7563C31.5946 28.9971 31.6602 29.365 31.3043 29.3878C30.9618 29.4092 30.6286 29.6407 30.2594 29.2326C28.8879 27.714 27.4389 26.265 26.0528 24.7584C25.7277 24.4052 25.3985 24.2942 24.9476 24.3022C23.6793 24.3236 22.4095 24.3517 21.1425 24.2968C20.0199 24.2487 18.8813 24.5123 17.7708 24.1309C17.546 24.0533 17.3092 24.1831 17.2423 24.4266C17.1741 24.6782 17.1219 24.9645 17.3547 25.1759C17.5621 25.3645 17.8123 25.3779 18.025 25.2C18.5 24.8026 19.066 24.9565 19.5623 25.0127C20.4601 25.1143 19.7778 25.8689 19.9771 26.2837C20.0293 26.3921 19.9905 26.5473 19.9825 26.6811C19.9289 27.5682 19.9303 27.5187 20.8468 27.5708C21.7767 27.623 22.748 27.2872 23.6364 27.8625C23.8358 27.991 24.0512 27.7702 24.189 27.5869C24.3563 27.3648 24.3509 27.128 24.181 26.9099C24.0405 26.7293 23.8358 26.5232 23.6231 26.649C23.0986 26.9581 22.5406 26.859 21.9974 26.8497C20.4815 26.8256 20.7304 27.1775 20.6862 25.5037C20.6755 25.0809 20.8361 24.9739 21.2308 24.9805C22.3212 25.002 23.413 25.0207 24.5021 24.9752C25.0908 24.9498 25.4935 25.1438 25.8869 25.5706C27.2449 27.0423 28.6096 28.5087 30.0332 29.9149C30.4748 30.3511 30.8802 30.6829 30.7477 31.3787C30.6915 31.6744 30.6206 31.8135 30.3062 31.8122C28.326 31.8055 26.3445 31.8042 24.3643 31.8135C24.0151 31.8149 23.8906 31.6797 23.9027 31.3385C23.9201 30.8488 23.904 30.3592 23.9027 29.8695C23.9027 29.6393 23.908 29.3918 23.5762 29.4172C23.132 29.452 23.0584 29.2018 23.0745 28.8379C23.0852 28.5957 23.1079 28.3415 22.728 28.3268C22.3172 28.3107 22.3145 28.5636 22.3252 28.8473C22.3373 29.1577 22.3252 29.4587 21.8891 29.4065C21.4462 29.3543 21.3927 29.5925 21.3793 29.9618C21.3565 30.5532 21.6576 31.3278 21.2442 31.6891C20.8187 32.061 20.0494 31.7694 19.4326 31.8068C19.3215 31.8135 19.2105 31.8068 19.0994 31.7988C18.9442 31.7881 18.8425 31.7051 18.8546 31.5459C18.9429 30.4261 18.6231 29.2834 19.0338 28.185C19.1449 27.8893 19.0941 27.6632 18.8733 27.4665C18.6913 27.3046 18.4826 27.2711 18.2565 27.3875C17.9822 27.5294 17.9568 27.7943 18.021 28.0244C18.3087 29.0546 18.0919 30.1036 18.1775 31.1392C18.2204 31.6516 18.0718 31.8416 17.5246 31.8215C16.3472 31.7801 15.1658 31.8269 13.987 31.8001C13.5362 31.7894 13.3194 31.9018 13.3743 32.3875C13.4037 32.6511 13.3515 32.924 13.3836 33.1876C13.4492 33.7215 13.2886 33.9663 12.7026 33.9048C12.2183 33.8539 11.7192 33.8499 11.2362 33.9048C10.606 33.9757 10.4736 33.7308 10.4749 33.1328C10.495 25.9211 10.4869 18.7082 10.4923 11.4966C10.4923 11.1112 10.4227 10.7767 10.2274 10.4262C9.8407 9.73445 9.53297 8.99991 9.15834 8.20917C10.5632 8.20917 11.8704 8.18375 13.1776 8.21854C13.8921 8.23727 14.636 8.02186 15.321 8.4567C15.5244 8.58648 15.7505 8.42726 15.899 8.23995C16.0502 8.04996 16.0876 7.8399 15.9579 7.61913C15.8227 7.389 15.6046 7.19901 15.3585 7.30471C14.4741 7.68603 13.5576 7.4559 12.6598 7.49069C11.5493 7.5335 10.4348 7.49872 9.32157 7.50139C8.30204 7.50407 8.18297 7.70476 8.63118 8.64535C8.82251 9.04674 8.97103 9.47355 9.20383 9.84952C9.75373 10.7379 9.85809 11.6906 9.85408 12.7181C9.82732 19.6849 9.8407 26.653 9.8407 33.6198C9.8407 34.4761 9.94506 34.5831 10.7907 34.5911C11.5025 34.5978 12.2156 34.6058 12.9274 34.5885C13.2806 34.5791 13.3917 34.7236 13.3876 35.0621C13.3836 35.3859 13.3047 35.5638 12.9394 35.5518C12.4283 35.5344 11.9159 35.5558 11.4034 35.5464C11.1399 35.5424 10.9646 35.6093 10.9873 35.9144C11.0208 36.3559 10.7973 36.5017 10.3812 36.4884C10.123 36.4803 9.75507 36.3613 9.78183 36.8576C9.80458 37.2952 10.123 37.2416 10.4093 37.259C10.6368 37.2737 10.9726 37.1774 10.9579 37.5547C10.9365 38.1113 11.2803 38.0846 11.655 38.0738C12.0336 38.0645 12.4136 38.0926 12.7896 38.0658C13.2057 38.0364 13.397 38.1568 13.3863 38.6157C13.3609 39.6393 13.3662 40.6641 13.3876 41.6877C13.3957 42.0864 13.2712 42.2563 12.8565 42.2322C12.3909 42.2055 11.9226 42.2336 11.4543 42.2242C11.1773 42.2189 10.9485 42.2577 10.99 42.6095C11.0516 43.1354 10.7425 43.1835 10.3357 43.1648C10.0896 43.1528 9.76042 43.0671 9.78451 43.514C9.80591 43.9141 10.1136 43.815 10.3304 43.8057C10.7425 43.7869 11.0409 43.8458 10.982 44.3663C10.9485 44.6593 11.1211 44.7516 11.3901 44.7476C11.8798 44.7409 12.3695 44.7623 12.8591 44.7436C13.2164 44.7289 13.3876 44.8332 13.3836 45.2266C13.3702 46.606 13.3743 47.9868 13.3876 49.3663C13.3903 49.7088 13.2712 49.8506 12.9234 49.8386C12.435 49.8212 11.944 49.8305 11.4543 49.8386C11.263 49.8412 10.986 49.7957 11.0061 50.0888C11.0475 50.7256 10.6355 50.6868 10.2234 50.6614C9.92366 50.644 9.76711 50.739 9.77648 51.0722C9.78584 51.3745 9.9076 51.5431 10.21 51.5364C10.6234 51.5271 10.9713 51.5003 11.0462 52.0944C11.0783 52.3499 11.4837 52.4877 11.8262 52.4743C12.2263 52.4583 12.6277 52.4743 13.0277 52.4743C13.3381 52.4743 13.3796 52.6697 13.3823 52.9185C13.385 53.1634 13.298 53.2972 13.0358 53.2892C12.8137 53.2825 12.5902 53.3039 12.3681 53.2878C11.7928 53.2437 11.572 53.4912 11.5921 54.0719C11.6255 55.0499 11.6229 56.0306 11.5921 57.01C11.5774 57.469 11.7353 57.8101 12.0122 58.1553C14.3001 60.9972 16.5747 63.8484 18.8532 66.6969C21.8556 70.4485 24.858 74.2002 27.859 77.9532C28.041 78.1806 28.1868 78.376 28.5575 78.3439C29.3081 78.2783 30.0667 78.3131 30.82 78.2716C31.2307 78.2489 31.3645 78.392 31.3498 78.8014C31.3217 79.6015 31.3418 80.4043 31.3391 81.2058C31.3391 81.5403 31.4341 81.7664 31.8382 81.7369C33.8143 81.5884 35.7958 81.7102 37.7734 81.6714C38.0838 81.6647 38.3821 81.6567 38.6631 81.8587C38.9146 82.0393 39.1782 81.9577 39.3776 81.7302C39.5783 81.5015 39.5983 81.2472 39.4083 81.0011C39.225 80.7656 38.9815 80.6612 38.7046 80.8111C38.4785 80.9342 38.2497 80.9663 38.0008 80.9649C36.22 80.9609 34.4405 80.9516 32.6597 80.9716C32.2128 80.977 32.0041 80.8699 32.0388 80.3802C32.0763 79.8705 32.071 79.3554 32.0388 78.8456C32.0121 78.4121 32.1552 78.2596 32.5994 78.2703C33.6899 78.297 34.7803 78.2636 35.8708 78.285C36.4207 78.2957 36.608 78.0602 36.6187 77.525C36.6401 76.5068 36.4916 75.482 36.719 74.4664C36.7792 74.2002 36.616 73.9968 36.3845 73.867C36.1905 73.7573 35.9979 73.7814 35.8199 73.9098C35.5778 74.0838 35.555 74.3969 35.6594 74.5748C36.1143 75.3455 35.8467 76.1764 35.935 76.9738C35.9898 77.4715 35.8173 77.6187 35.3115 77.612C33.1975 77.5839 31.0835 77.5906 28.9696 77.608C28.5722 77.6107 28.3273 77.4809 28.0798 77.1691C22.9233 70.6974 17.7534 64.235 12.5849 57.7713C12.4297 57.5773 12.2905 57.3927 12.2932 57.1224C12.3026 56.2099 12.3106 55.2974 12.2905 54.385C12.2825 53.9916 12.4939 53.9541 12.7949 53.9688C13.0772 53.9836 13.4358 53.9073 13.3716 54.3729C13.286 54.9857 13.6044 55.0486 14.1088 55.0432C16.2455 55.0218 18.3823 55.0459 20.5176 55.0245C20.9859 55.0191 21.1559 55.1663 21.1278 55.6306C21.0983 56.119 21.1304 56.61 21.1211 57.0997C21.1157 57.3793 21.1625 57.6068 21.5104 57.5653C21.976 57.5104 22.0884 57.7473 22.0617 58.1553C22.0483 58.3681 22.0095 58.6236 22.356 58.6397C22.7373 58.6584 22.7213 58.3922 22.7106 58.1446C22.6945 57.7914 22.744 57.5144 23.2016 57.5693C23.5655 57.6135 23.6565 57.4154 23.6458 57.089C23.6297 56.5779 23.6552 56.0654 23.6405 55.553C23.6297 55.2024 23.7261 55.0258 24.1248 55.0299C26.0836 55.0446 28.0423 55.0419 29.9998 55.0312C30.3503 55.0299 30.4748 55.1636 30.4654 55.5022C30.452 56.036 30.4614 56.5698 30.4681 57.105C30.4708 57.299 30.4346 57.5693 30.7236 57.5519C31.3097 57.5171 31.3632 57.9065 31.3953 58.3212C31.4127 58.542 31.5063 58.6424 31.7258 58.6424C31.9412 58.6424 32.0576 58.554 32.0589 58.3279C32.0616 58.1005 32.087 57.7968 32.3051 57.7526C32.9393 57.6215 32.867 57.1719 32.8617 56.7264C32.8563 56.3263 32.8711 55.9249 32.8617 55.5249C32.8537 55.2091 32.9353 55.0325 33.3072 55.0339C35.3329 55.0459 37.3572 55.0432 39.3829 55.0352C39.6987 55.0352 39.8218 55.1596 39.8164 55.4687C39.8071 56.0253 39.8218 56.5819 39.8164 57.1385C39.8137 57.3914 39.8619 57.6041 40.171 57.5666C40.6754 57.5064 40.7717 57.77 40.753 58.1981C40.7436 58.4095 40.6246 58.7481 41.0233 58.7547C41.4086 58.7614 41.4099 58.4524 41.3979 58.1808C41.3805 57.8021 41.4313 57.5078 41.9251 57.5693C42.2502 57.6094 42.3465 57.4275 42.3385 57.1264C42.3264 56.5926 42.3465 56.0574 42.3371 55.5236C42.3318 55.2065 42.4147 55.0299 42.784 55.0325C44.7201 55.0446 46.6561 55.0419 48.5921 55.0352C48.9039 55.0352 49.035 55.1516 49.0296 55.466C49.0203 56.0226 49.035 56.5792 49.031 57.1358C49.0296 57.386 49.0738 57.6028 49.3842 57.5666C49.8699 57.5118 50.0211 57.7419 49.9769 58.1848C49.9488 58.4684 50.0291 58.6517 50.3729 58.649C50.7355 58.6464 50.7382 58.4243 50.7516 58.1607C50.7636 57.9399 50.6526 57.5867 51.0259 57.5947C51.5678 57.6068 51.5731 57.2964 51.5557 56.907C51.5397 56.5511 51.5744 56.1925 51.5477 55.8393C51.5129 55.3924 51.7056 55.2693 52.131 55.2734C53.8222 55.2908 55.5134 55.2801 57.2046 55.2801C58.0752 55.2801 58.5104 55.714 58.5104 56.5819C58.5104 57.0729 58.3606 57.6402 59.1192 57.7566C59.2811 57.782 59.3186 57.9841 59.3146 58.146C59.3052 58.4483 59.3574 58.6678 59.7454 58.6477C60.1789 58.625 60.0692 58.3132 60.0919 58.067C60.112 57.853 60.0638 57.5519 60.3943 57.588C61.0392 57.659 61.0659 57.287 61.0325 56.8147C61.0084 56.4829 61.0566 56.1444 61.0218 55.8139C60.9616 55.2252 61.1489 55.0125 61.7871 55.0218C64.368 55.0606 66.9503 55.0191 69.5312 55.0513C70.1949 55.0593 70.5896 54.9442 70.3889 54.1307C70.3889 55.1355 70.3782 56.0909 70.3942 57.0462C70.3996 57.3659 70.2551 57.588 70.0691 57.8182C69.0911 59.0304 68.1224 60.2492 67.151 61.4655C62.9431 66.7303 58.7339 71.9952 54.5287 77.2628C54.3868 77.4407 54.2651 77.6066 54.0002 77.6066C51.7082 77.6013 49.4163 77.6026 47.123 77.6066C46.8795 77.6066 46.7283 77.525 46.7591 77.2628C46.8608 76.3998 46.5089 75.5007 47.0106 74.6605C47.1311 74.4584 47.127 74.1293 46.8769 73.9246C46.7083 73.7868 46.5129 73.76 46.3149 73.8644C46.0808 73.9888 45.9095 74.1895 45.9657 74.4544C46.1891 75.4913 46.0406 76.5376 46.0674 77.5799C46.0808 78.0963 46.2922 78.3024 46.7979 78.2877C47.3987 78.2689 48.0007 78.2622 48.6001 78.2877C49.2584 78.3171 50.1214 77.9933 50.5215 78.4295C50.9121 78.855 50.6044 79.7059 50.6392 80.3682C50.6432 80.4351 50.6352 80.502 50.6392 80.5689C50.6566 80.8499 50.5282 80.9823 50.2445 80.9663C48.1238 80.8459 45.9871 81.2178 43.8758 80.7696C43.5681 80.704 43.3593 80.8459 43.2175 81.1041C43.0797 81.3556 43.1546 81.5831 43.3446 81.7704C43.5373 81.9604 43.7701 82.0286 44.0069 81.8614C44.1314 81.7731 44.2223 81.6687 44.403 81.67C46.4942 81.6848 48.5868 81.658 50.6767 81.7182C51.2105 81.7343 51.3577 81.6005 51.3497 81.1188C51.3376 80.3174 51.355 79.5159 51.3416 78.7145C51.3363 78.4094 51.4286 78.2689 51.7577 78.2783C52.4909 78.2984 53.2335 78.2275 53.9574 78.3171C54.3868 78.3693 54.6022 78.2502 54.8471 77.9425C60.1494 71.3008 65.4585 64.6672 70.7715 58.0336C70.9736 57.7807 71.0993 57.5305 71.094 57.1907C71.0766 56.123 71.0886 55.0539 71.086 53.9849C71.086 53.7882 71.1421 53.4979 70.9308 53.4444C70.1133 53.2383 70.4344 52.6041 70.3768 52.1077C70.3247 51.6488 70.5521 51.5391 70.9682 51.5619C71.5007 51.5913 72.0359 51.5726 72.5698 51.5645C72.7383 51.5619 73.0073 51.6087 73.0046 51.3772C72.9979 50.842 73.4033 50.8487 73.7244 50.7925C74.0362 50.7377 74.1338 50.6039 74.1124 50.3042C74.0883 49.9643 73.8515 49.9871 73.6334 50.0018C73.2347 50.0299 72.9752 49.9309 73.0287 49.4599C73.0728 49.0759 72.8333 49.0304 72.5283 49.0385C72.0172 49.0505 71.5034 49.0197 70.9936 49.0478C70.5534 49.0719 70.3474 48.9568 70.3661 48.4618C70.4009 47.5065 70.3929 46.5472 70.3715 45.5905C70.3621 45.1664 70.4892 44.9844 70.9388 45.0112C71.4927 45.0433 72.0506 45.0192 72.6072 45.0165C72.8146 45.0165 73.0474 45.0098 73.0287 44.7249C72.9966 44.2432 73.2682 44.1763 73.6535 44.1977C73.9412 44.2138 74.1097 44.0867 74.1151 43.7669C74.1205 43.4351 73.9091 43.4391 73.6749 43.419C73.2963 43.3856 72.9738 43.2879 73.0193 42.7848C73.0461 42.4931 72.8093 42.4958 72.6032 42.4958C72.0466 42.4958 71.4887 42.4717 70.9348 42.5025C70.4906 42.5266 70.3608 42.3553 70.3688 41.9245C70.3916 40.6334 70.4036 39.3422 70.3661 38.0524C70.3501 37.4958 70.5682 37.3835 71.0672 37.3968C71.9703 37.4209 72.8802 37.5039 73.7043 36.9259C74.0388 36.6917 74.1379 36.4643 74.1098 36.107C74.0776 35.7083 73.7712 35.8421 73.5532 35.8234C73.3096 35.8033 73.0033 35.8461 73.0447 35.4769C73.117 34.8494 72.733 34.8855 72.3035 34.8748C71.6867 34.8587 71.0538 34.9872 70.4504 34.7303C70.8853 34.5216 71.3442 34.6085 71.7911 34.6005C72.7731 34.5818 72.8494 34.5162 72.8494 33.5315C72.8494 27.1213 72.9029 20.7098 72.8186 14.2996C72.7919 12.2231 73.026 10.2991 74.1164 8.49951C74.5499 7.78504 74.3345 7.50942 73.4769 7.50541C71.763 7.49872 70.049 7.50407 68.3364 7.50407C68.0488 7.50407 67.7705 7.51879 67.4975 7.35957C67.1978 7.18429 66.9383 7.31408 66.7536 7.58568C66.5944 7.81983 66.6265 8.05531 66.8058 8.26136C67.0252 8.51289 67.2955 8.57578 67.5738 8.37107C67.7477 8.24396 67.9257 8.20784 68.1331 8.20784C69.8912 8.21185 71.6479 8.21051 73.5277 8.21051L73.5197 8.21854Z" fill="#1E4718"/>
<path d="M60.884 44.6471C60.884 45.2023 60.8385 45.7643 60.896 46.3129C60.9576 46.8909 60.6886 47.2053 60.2444 47.4903C57.0815 49.5213 53.1412 47.6093 52.7719 43.8443C52.6274 42.3685 52.717 40.9276 53.4168 39.5602C54.1727 38.0817 55.4251 37.3766 56.9918 37.1532C58.2923 36.9672 59.4443 37.3418 60.4331 38.2209C60.7047 38.4617 60.8626 38.6717 60.4879 38.9474C60.3996 39.0129 60.326 39.1012 60.2578 39.1869C59.8337 39.718 59.5072 39.9816 58.7887 39.3969C57.8321 38.6182 56.3255 39.0651 55.591 40.1448C54.6731 41.4948 54.6584 43.9447 55.5615 45.3161C56.0941 46.1242 57.1818 46.555 58.1344 46.3329C58.6777 46.2058 58.9626 45.9583 58.9319 45.3C58.8703 43.954 58.9185 43.9273 57.5979 43.9567C57.1122 43.9674 57.0092 43.8095 57.0172 43.3573C57.0453 41.9819 56.7925 42.0983 58.2361 42.0996C58.9479 42.0996 59.6597 42.1117 60.3702 42.0916C60.7783 42.0795 60.9201 42.2414 60.9054 42.6442C60.8813 43.3105 60.8987 43.9781 60.8987 44.6458C60.8933 44.6458 60.8893 44.6458 60.884 44.6458V44.6471Z" fill="#1E4718"/>
<path d="M45.2619 41.2553C45.2619 42.3899 45.2191 43.5271 45.2726 44.6591C45.3435 46.1536 46.5664 46.8118 47.8335 46.0934C48.2134 45.8779 48.39 45.5314 48.485 45.1327C48.5841 44.7206 48.6215 44.3018 48.6188 43.8764C48.6068 41.8962 48.6229 39.9146 48.5907 37.9345C48.5827 37.4354 48.7286 37.2695 49.2289 37.2815C51.0111 37.3243 50.7127 37.0822 50.69 38.7627C50.6619 40.787 50.781 42.8127 50.6204 44.8343C50.3756 47.917 47.9873 48.6756 45.6512 48.1297C44.0203 47.7484 43.3767 46.5148 43.1599 45.0845C43.077 44.5373 43.0716 43.9767 43.0676 43.4214C43.0543 41.8641 43.0489 40.3053 43.0676 38.7479C43.073 38.293 42.8094 37.6802 43.1854 37.414C43.6697 37.0728 44.3481 37.3056 44.9408 37.307C45.3275 37.307 45.2672 37.6535 45.2659 37.9157C45.2632 38.4723 45.2539 39.0289 45.2512 39.5842C45.2485 40.1408 45.2512 40.6974 45.2512 41.2539C45.2565 41.2539 45.2606 41.2539 45.2659 41.2539L45.2619 41.2553Z" fill="#1E4718"/>
<path d="M37.4643 37.1185C38.2363 37.093 39.2879 37.6189 40.262 38.3507C40.3971 38.4524 40.567 38.5702 40.3877 38.7829C40.1041 39.1214 39.8231 39.4626 39.5475 39.8078C39.3093 40.1061 39.1608 39.8278 39.0003 39.7208C38.1922 39.1789 37.3198 38.9301 36.3484 39.112C35.8614 39.203 35.4547 39.397 35.3624 39.9496C35.2633 40.545 35.6139 40.8621 36.0982 41.0708C36.9331 41.4321 37.7774 41.7665 38.6109 42.1305C40.3409 42.8864 40.9136 43.8404 40.7222 45.6145C40.5965 46.7772 39.3562 47.9239 37.8978 48.1914C35.9578 48.5473 34.2612 48.0015 32.74 46.7826C32.5459 46.6274 32.5754 46.5524 32.7105 46.4374C33.0009 46.1939 33.2002 45.8781 33.4357 45.5891C33.7167 45.2439 34.007 45.1569 34.4325 45.5035C35.2326 46.1564 36.1865 46.4508 37.2302 46.3504C37.8215 46.2929 38.3915 46.1551 38.5574 45.4593C38.6952 44.8853 38.4129 44.4492 37.6757 44.104C36.6134 43.6062 35.4828 43.2517 34.4833 42.6242C32.9259 41.6461 32.8657 39.7703 33.6203 38.6946C34.4405 37.5265 35.6152 37.1385 37.4616 37.1171L37.4643 37.1185Z" fill="#1E4718"/>
<path d="M24.9477 42.746C24.9116 43.51 25.0534 44.2486 25.4079 44.9323C26.208 46.4829 28.1026 46.8629 29.4031 45.7002C29.8112 45.335 30.0105 45.3698 30.3504 45.7591C31.2134 46.7465 31.2321 46.7305 30.1791 47.4824C28.425 48.7347 25.8187 48.5795 24.3041 47.0114C22.4751 45.1169 22.3748 42.8129 23.0959 40.4394C23.6365 38.6585 24.8875 37.5574 26.7325 37.2055C28.1695 36.9312 29.462 37.2644 30.5711 38.2491C30.8254 38.4752 30.9779 38.6639 30.618 38.9194C30.531 38.9823 30.4748 39.088 30.4012 39.171C29.9668 39.6651 29.4722 39.7334 28.9174 39.3757C27.8377 38.6786 26.2214 39.1161 25.5029 40.3123C25.0561 41.0575 24.9075 41.8804 24.9463 42.7474L24.9477 42.746Z" fill="#1E4718"/>
<path d="M37.0695 11.622C37.0361 11.7558 36.9585 11.8601 36.81 11.8615C36.6534 11.8615 36.5731 11.7518 36.5785 11.6073C36.5825 11.4641 36.6668 11.3584 36.8247 11.3691C36.9692 11.3785 37.0628 11.4587 37.0695 11.622V11.622Z" fill="#1E4718"/>
</svg>
