<svg width="84" height="14" viewBox="0 0 84 14" fill="none" xmlns="http://www.w3.org/2000/svg">
<path d="M6.92221 3.83638C6.38016 5.40928 5.8267 6.92131 5.336 8.45617C4.85671 9.95298 4.07692 11.136 2.36329 11.5525C3.9514 11.988 5.58705 10.9648 6.26794 9.177C6.89938 7.52422 7.39959 5.81058 8.15085 4.21487C9.39661 1.56168 12.0023 0.190389 14.8228 0.506109C17.2173 0.77428 19.7926 2.98432 20.3422 5.5253C20.8652 7.94455 20.2528 10.2116 18.5658 12.047C18.0827 12.5738 17.2097 13.0094 16.5041 13.0246C12.4853 13.1121 8.46277 13.0988 4.44399 13.036C2.51544 13.0056 0.870272 11.6115 0.248342 9.71524C-0.383098 7.79239 0.216009 5.65082 1.74516 4.36702C3.23247 3.11745 5.20667 2.90254 6.9203 3.84019L6.92221 3.83638Z" fill="#1E4718"/>
<path d="M74.4805 6.58848C74.4805 5.06884 74.5014 3.5492 74.471 2.02956C74.4596 1.43996 74.6194 1.13755 75.2546 1.15277C77.0557 1.19461 78.8626 1.12424 80.6542 1.26308C82.442 1.40192 83.3131 2.23306 83.7182 3.99044C84.1233 5.74022 84.091 7.50331 83.625 9.24928C83.1609 10.9857 82.0274 11.9728 80.2529 12.0831C78.583 12.1878 76.9036 12.1497 75.228 12.1744C74.6536 12.1839 74.4672 11.8777 74.4729 11.3357C74.49 9.75329 74.4786 8.17088 74.4805 6.58658V6.58848ZM76.1447 6.56375C76.1447 7.70301 76.1067 8.84607 76.1732 9.98152C76.1885 10.2421 76.5593 10.6871 76.78 10.6947C77.8812 10.7328 78.99 10.6947 80.0893 10.6053C81.0536 10.5293 81.7478 9.91305 81.8524 9.00583C82.0236 7.51662 82.1168 5.99127 81.9912 4.50206C81.8866 3.27152 81.1943 2.75039 79.9524 2.63247C78.9786 2.53927 77.9915 2.60774 77.012 2.5621C76.3653 2.53167 76.1029 2.758 76.1333 3.43128C76.1789 4.47353 76.1447 5.5196 76.1447 6.56566V6.56375Z" fill="#1E4718"/>
<path d="M64.25 7.21227C64.4136 6.16811 64.8587 5.78012 65.7031 5.80294C66.6541 5.82957 67.6051 5.81436 68.556 5.80294C69.5659 5.78963 70.0338 5.30844 70.0661 4.2757C70.0985 3.24865 69.6629 2.64955 68.6587 2.62482C67.3654 2.59249 66.0683 2.7028 64.7712 2.74845C64.5296 2.75606 64.29 2.74845 64.0009 2.74845C64.058 1.83552 64.5506 1.32961 65.2904 1.27636C66.7644 1.16985 68.2631 1.07285 69.7276 1.21359C71.0856 1.34482 71.8083 2.23112 71.6295 3.6918C71.4203 5.39783 71.4565 6.96692 71.8996 8.66915C72.4093 10.6243 71.2872 11.95 69.2749 12.1573C67.8409 12.3056 66.3745 12.1782 64.9252 12.0983C64.1416 12.0546 63.7194 11.5163 63.5444 10.6586C63.9914 10.6586 64.3794 10.6529 64.7674 10.6586C66.0626 10.6833 67.3635 10.7841 68.6549 10.7194C69.9216 10.6567 70.3724 10.0043 70.2925 8.66154C70.2259 7.56603 69.8056 7.21798 68.5123 7.21227C67.1258 7.20657 65.7393 7.21227 64.252 7.21227H64.25Z" fill="#1E4718"/>
<path d="M44.5309 12.0774H43.0626C43.0626 11.659 43.0626 11.2919 43.0626 10.923C43.0626 7.69349 43.0626 4.46402 43.0626 1.23455C43.0626 0.303871 43.592 -0.100605 44.6507 0.0211183C44.6507 0.966376 44.6812 1.93636 44.6412 2.90444C44.6127 3.58343 44.8447 3.78313 45.5294 3.70325C46.4994 3.59294 47.4865 3.53968 48.4622 3.57392C49.708 3.61766 50.5467 4.21487 50.5981 5.31608C50.7046 7.54705 50.6304 9.78752 50.6304 12.0166C49.1621 12.2924 49.0955 12.2448 49.086 10.8887C49.0746 9.49652 49.0974 8.10241 49.0594 6.7102C49.0233 5.38075 48.6543 5.02319 47.3629 4.9338C44.7706 4.75502 44.6545 4.86533 44.6507 7.46526C44.6488 8.92214 44.6355 10.3771 44.6241 11.834C44.6241 11.891 44.5842 11.9481 44.5328 12.0812L44.5309 12.0774Z" fill="#1E4718"/>
<path d="M31.5978 10.7708C31.4989 11.4992 31.1471 12.0546 30.3787 12.0831C29.0607 12.1345 27.7255 12.1782 26.4189 12.0318C25.4622 11.9234 24.7699 11.252 24.498 10.2706C24.0472 8.64253 24.0358 7.02019 24.6159 5.41876C24.9411 4.52105 25.5725 3.86109 26.5083 3.73366C27.5924 3.58721 28.7164 3.51303 29.7986 3.63476C31.0691 3.7774 31.6017 4.52486 31.8432 6.01217C32.216 8.3116 32.1741 8.36105 29.888 8.36105C28.7792 8.36105 27.6704 8.37626 26.5615 8.36105C26.0233 8.35534 25.8388 8.57406 25.8864 9.11421C25.9758 10.107 26.4208 10.6757 27.5144 10.748C28.8267 10.8355 30.1486 10.7689 31.594 10.7689L31.5978 10.7708ZM26.0347 7.14381C27.2729 7.14381 28.5319 7.17424 29.7872 7.11148C29.9717 7.10197 30.2779 6.65692 30.2817 6.41157C30.295 5.13728 29.3479 4.54388 27.7693 4.77591C26.358 4.98322 25.8236 5.66982 26.0366 7.14572L26.0347 7.14381Z" fill="#1E4718"/>
<path d="M57.793 3.45978C58.2152 3.52254 58.8144 3.5853 59.3982 3.70703C60.3473 3.90483 60.9788 4.50013 61.2412 5.42447C61.6939 7.01068 61.711 8.60639 61.1975 10.1888C60.857 11.2368 60.1552 11.9024 59.0711 12.1383C58.763 12.2048 58.4511 12.2809 58.1392 12.2942C56.5168 12.3589 54.7176 12.5662 53.8275 10.8602C52.81 8.9126 52.8784 6.78815 53.9835 4.85579C54.7652 3.4864 56.262 3.56438 57.793 3.45978V3.45978ZM57.4564 4.84628C55.6457 4.87101 55.0029 5.46061 54.8621 7.25793C54.8298 7.66684 54.8222 8.08146 54.8488 8.49038C54.9782 10.457 55.583 11.0047 57.5344 10.9477C59.0863 10.902 59.6417 10.4494 59.8794 8.91451C59.9745 8.29448 60.0069 7.64782 59.9441 7.02589C59.7748 5.36551 59.1244 4.82346 57.4583 4.84628H57.4564Z" fill="#1E4718"/>
<path d="M41.0142 10.8088C40.8792 11.6 40.5197 12.1173 39.7285 12.1326C38.5969 12.1535 37.4576 12.1896 36.3355 12.0736C35.2647 11.9633 34.5629 11.2596 34.2643 10.2268C33.8421 8.76425 33.8402 7.28835 34.2643 5.82197C34.6618 4.44307 35.6318 3.70322 37.0145 3.57009C37.9217 3.4826 38.8498 3.50732 39.7609 3.5834C40.1241 3.61383 40.5064 3.87249 40.7993 4.11974C40.9458 4.24337 41.0123 4.62375 40.9305 4.80063C40.8678 4.93567 40.514 4.98512 40.2877 4.98892C39.3405 4.99843 38.3915 4.93757 37.4462 4.97561C36.3963 5.01745 35.8486 5.68883 35.7078 6.66642C35.6147 7.31878 35.5975 7.99397 35.6413 8.65204C35.7516 10.2592 36.2822 10.7537 37.9103 10.8031C38.9145 10.8335 39.9187 10.8088 41.0123 10.8088H41.0142Z" fill="#1E4718"/>
</svg>
