<svg width="178" height="27" viewBox="0 0 178 27" fill="none" xmlns="http://www.w3.org/2000/svg">
<path d="M95.4097 0.032959C96.0911 0.398008 96.8942 0.63867 97.4323 1.15515C98.9196 2.58289 100.299 4.12692 102.073 5.579C102.073 4.54334 102.073 3.50769 102.073 2.47203C102.076 0.900063 102.911 0.206921 104.576 0.3926V11.3765C103.83 10.9925 103.195 10.7979 102.724 10.4031C100.975 8.93745 99.2792 7.40425 97.6838 6.00084V11.0412H95.1204V0.47913C95.2177 0.330406 95.3151 0.181683 95.4124 0.032959H95.4097Z" fill="#1E4718"/>
<path d="M72.1087 0.0243225C72.7901 0.397484 73.5878 0.646258 74.1286 1.16273C75.6402 2.61752 77.0463 4.18318 78.739 5.96245V0.386668H81.2511V11.349C80.5291 10.9974 79.8504 10.8406 79.4286 10.4242C77.8034 8.82336 76.2621 7.14143 74.3801 5.16475V11.0434H71.822V0.46779C71.9194 0.319066 72.014 0.173046 72.1114 0.0243225H72.1087Z" fill="#1E4718"/>
<path d="M37.0829 0.281569C38.946 0.281569 40.7009 0.259936 42.4532 0.286977C44.3217 0.314017 45.4276 1.09008 45.8387 2.59355C46.2713 4.18083 45.7035 5.45175 44.1135 6.44684C43.8863 6.59016 43.6565 6.72806 43.3428 6.92276C44.3568 8.22071 45.3519 9.49162 46.4876 10.9464C44.8571 11.2114 43.643 11.4223 42.7641 10.0054C42.2477 9.17254 41.5365 8.45056 40.8713 7.71775C40.6036 7.42301 40.2223 7.22832 39.6166 6.79026V11.0383H37.0856V0.281569H37.0829ZM39.6355 4.61078C40.6306 4.61078 41.5338 4.70272 42.4018 4.56481C42.7533 4.50803 43.2509 3.96992 43.2725 3.6265C43.2914 3.32094 42.7777 2.74768 42.4423 2.699C41.5392 2.56651 40.6036 2.65304 39.6382 2.65304V4.61078H39.6355Z" fill="#1E4718"/>
<path d="M8.31437 7.2066C7.05968 7.03084 6.06729 7.0011 5.17224 6.69283C4.95592 6.61712 5.05056 5.63013 4.99377 4.9406H10.6047C10.6047 6.26559 10.6209 7.55813 10.5912 8.84797C10.5858 9.08593 10.4506 9.3996 10.2667 9.54292C8.43875 10.9977 6.34581 11.625 4.07169 11.0518C2.06256 10.5434 0.667265 9.20761 0.196758 7.12819C-0.295383 4.95952 0.0912988 2.96933 1.86246 1.4848C3.90944 -0.234989 6.23224 -0.218764 8.59289 0.714139C9.32569 1.00347 9.96385 1.53077 10.721 1.99316C10.2775 2.68 9.92058 3.23703 9.59339 3.7481C8.44416 3.31816 7.43284 2.82602 6.36203 2.56913C4.80719 2.19597 3.41189 2.8828 2.817 4.12667C2.18695 5.44626 2.51144 7.2012 3.55521 8.10165C4.58816 8.99399 6.59999 9.09134 7.73029 8.23685C7.98988 8.03946 8.08723 7.62573 8.31707 7.2066H8.31437Z" fill="#1E4718"/>
<path d="M55.9682 6.9982H53.1073V4.92148H58.51C58.51 6.29244 58.537 7.66881 58.4857 9.04518C58.4776 9.29396 58.1936 9.59411 57.9611 9.76176C56.1953 11.0273 54.2268 11.5573 52.0879 11.0759C49.3297 10.4567 47.4936 7.56876 48.0047 4.79168C48.5536 1.8118 51.1036 -0.181096 53.9915 0.113647C56.0899 0.327269 57.0363 0.730175 58.5911 2.12547C58.2585 2.65277 57.9124 3.2044 57.5636 3.75603C56.4982 3.35042 55.5301 2.88532 54.5107 2.61761C52.918 2.19848 51.5362 2.76634 50.871 3.95883C50.1599 5.23786 50.3762 6.97387 51.3713 7.96626C52.3528 8.94513 54.2241 9.13982 55.5166 8.3286C55.8222 8.13662 55.9817 7.70937 56.2061 7.38759C56.125 7.2605 56.0439 7.1307 55.9628 7.00361L55.9682 6.9982Z" fill="#1E4718"/>
<path d="M24.2088 5.70306C24.2305 9.02366 21.886 11.3762 18.533 11.4005C15.1178 11.4249 12.703 9.06422 12.7003 5.70306C12.6949 2.35813 15.0069 0.0299283 18.3653 0.000183585C21.7427 -0.0295612 24.1872 2.35543 24.2088 5.70306ZM21.6886 5.68954C21.6643 3.6669 20.4123 2.43114 18.4032 2.45007C16.413 2.469 15.2016 3.74532 15.2232 5.7923C15.2449 7.77978 16.5239 8.98039 18.5844 8.94524C20.5286 8.91279 21.7157 7.66892 21.6914 5.68954H21.6886Z" fill="#1E4718"/>
<path d="M69.2883 8.72062V11.0164H61.0814V0.378571H69.0287V2.57157H63.7368V4.60232H68.2039V6.7818H63.7476V8.72332H69.2856L69.2883 8.72062Z" fill="#1E4718"/>
<path d="M169.774 0.365356H177.762V2.57728C176.483 2.57728 175.237 2.57728 173.993 2.57728C172.262 2.57999 172.24 2.60973 172.546 4.57829H176.932C176.97 5.34354 177 5.98711 177.037 6.76318H172.708C172.086 8.52894 172.249 8.77771 173.92 8.78582C175.258 8.79123 176.594 8.78582 178 8.78582V11.0383H169.777V0.365356H169.774Z" fill="#1E4718"/>
<path d="M34.3464 0.362823V2.57745C33.0944 2.57745 31.8559 2.57745 30.6175 2.57745C29.4223 2.57926 28.8896 3.24085 29.0194 4.56224H33.4648V6.7985H29.1951C28.6814 8.63727 28.7841 8.77788 30.5174 8.78599C31.2394 8.7887 31.9587 8.78599 32.6807 8.78599C34.085 8.78599 34.6754 9.52961 34.4518 11.0168H26.3531V0.362823H34.3464Z" fill="#1E4718"/>
<path d="M115.041 3.08565C113.422 2.85851 111.986 2.5854 110.542 2.49886C110.139 2.47453 109.704 2.99641 109.284 3.26682C109.682 3.54534 110.044 3.95906 110.482 4.06993C111.477 4.32681 112.527 4.36467 113.522 4.61885C115.047 5.00824 115.801 5.93033 115.917 7.33915C116.045 8.89939 115.412 10.0757 113.946 10.6787C111.672 11.617 109.444 11.4196 107.392 10.0567C106.172 9.24822 107.524 8.52082 107.484 7.56629C108.349 7.95297 109.046 8.42888 109.801 8.55598C110.734 8.71281 111.721 8.64521 112.67 8.53434C112.938 8.50189 113.341 7.96919 113.327 7.68527C113.311 7.40675 112.884 6.99573 112.567 6.9119C111.529 6.6415 110.447 6.54145 109.401 6.29267C107.557 5.85732 106.705 4.91089 106.716 3.42366C106.726 1.90397 107.719 0.754742 109.379 0.276122C111.007 -0.194386 112.581 -0.0348459 114.122 0.60061C115.912 1.33882 115.942 1.4605 115.047 3.08024L115.041 3.08565Z" fill="#1E4718"/>
<path d="M153.531 0.357239H155.978C155.978 2.75304 156.219 5.10558 155.913 7.38241C155.573 9.92964 153.539 11.306 150.989 11.2492C148.29 11.1897 146.362 9.68086 146.084 7.01195C145.86 4.84599 146.038 2.63677 146.038 0.365351H148.566C148.566 1.67953 148.545 3.00723 148.574 4.33492C148.593 5.184 148.601 6.05201 148.766 6.87945C149.007 8.07735 149.789 8.73714 151.062 8.73444C152.371 8.73444 153.093 7.93404 153.307 6.79833C153.52 5.65992 153.485 4.47283 153.523 3.30467C153.553 2.36907 153.528 1.42805 153.528 0.357239H153.531Z" fill="#1E4718"/>
<path d="M117.183 0.354187H127.109V2.57693C126.328 2.57693 125.571 2.63372 124.827 2.56341C123.789 2.46606 123.505 2.90953 123.537 3.89111C123.6 5.78125 123.559 7.6768 123.551 9.56965C123.551 10.0537 123.502 10.5377 123.475 11.0704H120.844C120.844 9.30195 120.844 7.56594 120.844 5.83263C120.844 3.76852 119.81 2.67788 117.743 2.56071C117.61 2.55259 117.48 2.50933 117.24 2.46066C117.204 2.14158 117.145 1.80086 117.134 1.45745C117.123 1.14377 117.161 0.830103 117.185 0.354187H117.183Z" fill="#1E4718"/>
<path d="M140.487 11.0488H137.782V2.57697C137.028 2.57697 136.42 2.57697 135.811 2.57697C133.862 2.57427 133.813 2.50937 134.248 0.370453H143.991C144.526 2.42825 144.418 2.57427 142.398 2.57697C141.126 2.57877 140.488 3.19981 140.487 4.44007C140.487 6.59522 140.487 8.74765 140.487 11.0488Z" fill="#1E4718"/>
<path d="M164.293 11.0465H161.562V2.57732H157.963V0.381622H167.771C168.384 2.3583 168.233 2.57462 166.24 2.57732C164.942 2.57913 164.293 3.23351 164.293 4.54048C164.293 6.6848 164.293 8.82913 164.293 11.0492V11.0465Z" fill="#1E4718"/>
<path d="M118.059 25.7319C117.429 25.6967 117.085 25.6778 116.663 25.6562V15.3239C117.396 15.8215 117.983 16.0622 118.348 16.4948C120.027 18.4823 121.644 20.5212 123.534 22.8494V15.7999C124.275 15.7025 124.992 15.2807 125 16.3893C125.027 19.4449 125.008 22.4978 125.008 26.005C124.316 25.5588 123.805 25.375 123.502 25.0126C121.747 22.9143 120.044 20.7726 118.053 18.3173V25.7319H118.059Z" fill="#1E4718"/>
<path d="M22.3702 15.6539C23.9169 15.6539 25.3095 15.6323 26.6994 15.6593C28.3813 15.6917 29.5224 16.5489 29.7983 17.928C30.0795 19.3314 29.371 20.5428 27.8567 21.2432C27.6539 21.3378 27.443 21.419 27.1375 21.5488C28.1217 22.8846 29.0898 24.2014 30.0606 25.521L29.7225 25.9429C29.152 25.5967 28.4733 25.348 28.0298 24.8802C27.2267 24.0338 26.6318 22.99 25.8152 22.1626C25.4474 21.7921 24.7471 21.7489 24.1954 21.5569C24.0602 21.9895 23.8385 22.4195 23.8087 22.8602C23.7466 23.7499 23.7898 24.6476 23.7898 25.6103C23.0814 25.6806 22.3404 26.0997 22.3215 25.01C22.2782 22.3519 22.2918 19.6938 22.2891 17.033C22.2891 16.6355 22.3323 16.238 22.3675 15.6566L22.3702 15.6539ZM23.8791 20.2778C24.9363 20.2778 25.9152 20.359 26.8752 20.2562C27.8108 20.1562 28.4246 19.564 28.4462 18.5635C28.4706 17.5494 27.8621 16.9491 26.9211 16.8518C25.9233 16.7463 24.9066 16.8274 23.8791 16.8274V20.2778Z" fill="#1E4718"/>
<path d="M15.0125 15.4213C17.9816 15.4511 20.3774 17.809 20.3693 20.6969C20.3612 23.5822 17.9383 25.9131 14.9557 25.9104C11.9461 25.9077 9.46377 23.4578 9.52326 20.5563C9.58275 17.6711 12.0191 15.3916 15.0125 15.4213V15.4213ZM14.9071 24.6287C17.2217 24.6476 18.9713 22.944 18.9686 20.6726C18.9659 18.4336 17.1487 16.6273 14.9233 16.649C12.7384 16.6706 10.9645 18.4147 10.9159 20.5861C10.8672 22.8359 12.6167 24.6097 14.9071 24.6287Z" fill="#1E4718"/>
<path d="M36.8964 25.7159V15.773C38.6729 15.773 40.4414 15.554 42.1287 15.8271C44.4218 16.1976 45.9144 18.542 45.7603 20.9865C45.6008 23.5337 43.7701 25.4941 41.2202 25.6942C39.8384 25.8024 38.4404 25.7132 36.8964 25.7132V25.7159ZM38.3025 24.545C40.4387 24.6288 42.5262 24.8695 43.7971 22.782C44.7165 21.2731 44.6408 19.6642 43.6106 18.2229C42.2477 16.3219 40.244 16.833 38.3025 16.86V24.5423V24.545Z" fill="#1E4718"/>
<path d="M80.9429 24.6153C81.0754 23.6986 81.4675 23.5742 82.2355 23.9717C83.5145 24.6342 84.9125 24.9587 86.2456 24.2665C86.7837 23.9879 87.357 23.2605 87.3894 22.7062C87.4138 22.3033 86.6458 21.657 86.105 21.4596C85.018 21.0621 83.8309 20.9594 82.7168 20.6187C81.6081 20.2807 80.8294 19.583 80.8456 18.2878C80.8618 17.0385 81.5595 16.2786 82.6546 15.8622C84.7881 15.0483 86.7621 15.3701 88.5765 16.6653C88.5927 16.833 88.6117 17.0033 88.6279 17.171C88.2061 17.2251 87.7761 17.3603 87.3651 17.3197C86.105 17.1926 84.8503 16.8627 83.601 16.8979C83.144 16.9114 82.4897 17.6739 82.3545 18.2066C82.2787 18.5095 82.9899 19.2098 83.4793 19.4154C84.2933 19.7561 85.2126 19.848 86.0888 20.0346C87.9546 20.4348 88.9253 21.3731 88.9253 22.7819C88.9253 24.2178 87.8221 25.3886 86.0482 25.6834C84.2257 25.9835 82.4734 25.7997 80.9402 24.6153H80.9429Z" fill="#1E4718"/>
<path d="M138.583 25.7294V15.6676C140.803 15.6676 142.95 15.6487 145.097 15.6919C145.332 15.6973 145.562 16.0543 145.795 16.249C145.548 16.4356 145.305 16.7736 145.054 16.779C143.437 16.8277 141.817 16.8033 140.078 16.8033V20.0212C141.3 20.0212 142.506 19.9779 143.704 20.0482C144.045 20.0671 144.369 20.4078 144.699 20.6025C144.369 20.7945 144.05 21.1298 143.712 21.1487C142.55 21.2164 141.379 21.1758 139.965 21.1758C139.965 22.1249 139.894 23.0119 140.008 23.8717C140.043 24.1313 140.578 24.4991 140.897 24.5153C142.333 24.5856 143.777 24.5234 145.216 24.5748C145.465 24.5829 145.7 24.9236 145.941 25.1129C145.716 25.3184 145.494 25.6943 145.267 25.6997C143.074 25.7457 140.879 25.7267 138.583 25.7267V25.7294Z" fill="#1E4718"/>
<path d="M46.5904 25.5534C47.9126 22.4167 49.2106 19.2692 50.5707 16.1487C50.9169 15.3537 51.8417 15.3753 52.1878 16.1892C53.5047 19.2854 54.7593 22.4086 56.0465 25.5399C55.0568 25.9725 54.4484 25.6886 54.2672 24.7557C54.013 23.4442 53.1964 23.1441 52.0201 23.309C51.6659 23.3577 51.2927 23.3631 50.9412 23.309C49.5729 23.0981 48.64 23.4469 48.2317 24.9423C48.1181 25.3587 47.3826 25.6075 46.9338 25.932C46.8175 25.8049 46.7039 25.6805 46.5876 25.5534H46.5904ZM49.4567 22.1138H53.1802C52.5582 20.6428 51.9904 19.3016 51.3008 17.6738C50.6194 19.3124 50.0759 20.6212 49.4567 22.1138V22.1138Z" fill="#1E4718"/>
<path d="M74.6531 25.5643C73.6147 25.9429 73.0361 25.6562 72.863 24.7828C72.6115 23.5065 71.8517 23.1117 70.643 23.3091C70.3374 23.3605 70.0102 23.3524 69.702 23.3091C68.2769 23.1225 67.1764 23.3443 66.8032 25.037C66.7221 25.4021 65.9731 25.6211 65.5323 25.9104C65.4214 25.7914 65.3106 25.6725 65.2024 25.5508C66.3165 22.8765 67.3954 20.1832 68.5663 17.5359C68.8772 16.8302 69.4829 16.2542 69.9534 15.6187C70.4185 16.2542 71.0161 16.8302 71.3244 17.5359C72.4736 20.1643 73.5309 22.8332 74.6531 25.5643ZM71.7895 22.1247C71.1513 20.6267 70.5862 19.3071 69.8885 17.6738C69.1801 19.3936 68.6366 20.7078 68.0525 22.1247H71.7868H71.7895Z" fill="#1E4718"/>
<path d="M108.576 16.8115V20.0267C109.868 20.0267 111.112 19.9915 112.348 20.051C112.645 20.0645 112.924 20.3998 113.213 20.5864C112.94 20.7838 112.678 21.138 112.394 21.1515C111.188 21.2137 109.976 21.1786 108.641 21.1786V24.5533C110.29 24.5533 111.899 24.5208 113.503 24.5803C113.835 24.5911 114.152 24.9426 114.479 25.1373C114.157 25.3374 113.841 25.6998 113.516 25.7079C111.453 25.7593 109.387 25.7349 107.197 25.7349V15.6758C109.376 15.6758 111.602 15.6623 113.83 15.7028C113.997 15.7056 114.157 16.1031 114.322 16.3167C114.1 16.4789 113.887 16.7737 113.659 16.7845C112.491 16.8331 111.323 16.8088 110.152 16.8115C109.668 16.8115 109.181 16.8115 108.576 16.8115V16.8115Z" fill="#1E4718"/>
<path d="M136.406 24.1045C134.332 26.3624 130.665 26.4867 128.445 24.3749C126.417 22.4442 126.358 19.1371 128.318 17.0874C130.457 14.8511 133.943 14.8511 136.282 17.109C135.984 18.2502 135.411 17.8418 134.724 17.4416C132.025 15.8598 129.181 16.8846 128.491 19.6617C128.069 21.3571 128.556 22.7849 129.905 23.8719C131.233 24.9427 133.072 24.9076 134.824 23.8611C135.496 23.4591 136.023 23.5411 136.403 24.1072L136.406 24.1045Z" fill="#1E4718"/>
<path d="M100.001 17.5307C99.5713 17.5605 99.1116 17.7011 98.7222 17.5929C98.0435 17.4064 97.4296 16.9494 96.7482 16.8088C94.9419 16.4356 93.4384 17.1251 92.5975 18.5799C91.7457 20.0536 91.8917 21.9762 92.9544 23.2634C94.0036 24.5316 95.6801 24.9805 97.3485 24.391C97.8515 24.2125 98.2922 23.8583 98.7979 23.7041C99.2008 23.5825 99.6605 23.6446 100.415 23.6122C98.4788 26.1757 94.7986 26.511 92.5218 24.7046C90.2747 22.9227 89.934 19.5534 91.7754 17.355C93.8251 14.9051 97.2917 14.7618 99.9282 17.017C99.9525 17.1873 99.9742 17.3604 99.9985 17.5307H100.001Z" fill="#1E4718"/>
<path d="M132.015 11.0924H129.413V0.365356H132.015V11.0924Z" fill="#1E4718"/>
<path d="M89.6257 11.0626V0.349091H92.2649V11.0626H89.6257Z" fill="#1E4718"/>
<path d="M1.06213 25.6075V15.6701C3.27136 15.6701 5.41298 15.6566 7.5546 15.6917C7.76011 15.6944 7.96291 16.0189 8.16572 16.192C7.94128 16.3948 7.72496 16.7679 7.49241 16.7761C5.88349 16.8274 4.27457 16.8031 2.5656 16.8031V20.2859C3.70671 20.2859 4.85864 20.2427 6.00517 20.313C6.34318 20.3346 6.66226 20.6726 6.98945 20.8673C6.66226 21.0593 6.34588 21.3946 6.00787 21.4162C4.8992 21.4865 3.77972 21.4433 2.45743 21.4433C2.45743 22.5844 2.41687 23.6038 2.46825 24.6179C2.51963 25.6211 2.11131 25.9158 1.06213 25.6075V25.6075Z" fill="#1E4718"/>
<path d="M61.4682 16.8058V25.6049C61.0166 25.6562 60.6434 25.6968 60.0837 25.759V16.8085C58.8966 16.8085 57.8745 16.8518 56.8604 16.7788C56.5819 16.7599 56.3277 16.3867 56.0627 16.1758C56.3142 16 56.5657 15.6782 56.8199 15.6755C59.4266 15.6377 62.036 15.6404 64.6427 15.6809C64.8699 15.6836 65.0916 16.0541 65.3161 16.2542C65.0727 16.4381 64.8401 16.7653 64.586 16.7815C63.6098 16.8437 62.6282 16.8058 61.4682 16.8058V16.8058Z" fill="#1E4718"/>
<path d="M102.908 15.4566H104.155V25.6563C103.773 25.6834 103.392 25.7131 102.908 25.7483V15.4566Z" fill="#1E4718"/>
</svg>
