<svg width="76" height="36" viewBox="0 0 76 36" fill="none" xmlns="http://www.w3.org/2000/svg">
<path d="M44.2773 2.4162C45.6349 3.58712 46.5524 5.0455 47.0844 6.74978C47.1525 6.96707 47.2642 7.11829 47.44 7.26133C49.6899 9.08958 50.6047 11.4553 49.9398 14.2685C49.2716 17.0967 47.3739 18.7969 44.5375 19.4345C44.1499 19.5216 43.7515 19.5312 43.3536 19.5325C39.8157 19.5468 36.277 19.572 32.739 19.5761C31.2098 19.5775 29.8168 19.132 28.601 18.1825C28.7099 18.0674 28.8162 17.9509 28.9272 17.8385C29.8264 16.9312 30.7269 16.0245 31.6267 15.1179C32.0415 15.2909 32.4761 15.3454 32.9223 15.3468C36.0768 15.357 39.2312 15.3699 42.3857 15.3795C42.8053 15.3808 43.2235 15.3856 43.6431 15.3366C44.9251 15.186 45.9462 14.0573 45.9775 12.7352C46.0075 11.4505 44.9919 10.219 43.714 10.08C43.3339 10.0384 43.3271 9.89268 43.3244 9.60454C43.3107 7.89618 42.6657 6.48072 41.3279 5.39698C42.3108 4.40316 43.2937 3.40934 44.2766 2.4162H44.2773Z" fill="#1E4718"/>
<path d="M31.6276 15.1178C30.7278 16.0244 29.8273 16.9311 28.9282 17.8384C28.8171 17.9508 28.7102 18.0679 28.6019 18.1824C27.2573 17.2158 26.3826 15.9073 26.0373 14.3099C25.4072 11.4 26.32 9.00705 28.6543 7.15972C28.7674 7.07049 28.8369 6.97853 28.8818 6.84094C30.0964 3.164 32.5949 0.876647 36.3992 0.166871C39.2621 -0.367163 41.8553 0.395062 44.1154 2.24579C44.1754 2.29483 44.2237 2.35886 44.2782 2.4154C43.2953 3.40922 42.3124 4.40304 41.3295 5.39618C41.2641 5.35259 41.1966 5.31104 41.1326 5.26608C39.7539 4.28997 38.2424 4.00592 36.611 4.43097C35.6383 4.68437 34.8094 5.19251 34.1166 5.95542C35.9353 6.38524 37.2105 7.33955 38.0224 8.3286C38.1791 8.51933 38.1512 8.61197 37.9938 8.76659C37.1287 9.61873 36.2684 10.4756 35.4183 11.3428C35.2133 11.5519 35.1213 11.6132 34.9333 11.3026C34.2617 10.1896 32.8544 9.76859 31.6651 10.2863C30.4894 10.7985 29.8539 12.1016 30.1652 13.344C30.3722 14.1703 30.8913 14.7322 31.6276 15.1191V15.1178Z" fill="#1E4718"/>
<path d="M7.74716 27.2241C8.45081 27.2241 9.15445 27.2241 9.8581 27.2241C9.99706 27.2241 10.134 27.2057 10.1483 27.4108C10.2518 28.8692 10.0672 30.2424 9.01141 31.3697C7.13548 33.3723 3.81479 33.4418 1.73587 31.5073C0.16783 30.0489 -0.365523 28.2438 0.248889 26.216C0.864663 24.1834 2.32304 22.9437 4.41626 22.5568C5.99248 22.2652 7.42838 22.6583 8.66946 23.7059C8.8527 23.8605 8.87313 23.9539 8.68581 24.118C8.43037 24.3421 8.23897 24.6991 7.94879 24.8074C7.62455 24.9286 7.41952 24.4927 7.1273 24.3496C5.78336 23.6896 4.46122 23.695 3.22627 24.5424C1.94908 25.419 1.40074 26.6826 1.61531 28.2275C2.03422 31.2505 5.39782 32.3424 7.55508 30.7812C8.1981 30.316 8.53868 29.6777 8.69126 28.9127C8.73622 28.6893 8.68172 28.6423 8.46648 28.6444C7.52442 28.6539 6.58237 28.6369 5.641 28.6559C5.36104 28.6614 5.29088 28.5701 5.31131 28.3113C5.33175 28.0518 5.33652 27.7875 5.30995 27.5293C5.28202 27.2575 5.39374 27.2139 5.63487 27.2194C6.33851 27.235 7.04216 27.2248 7.7458 27.2248L7.74716 27.2241Z" fill="#1E4718"/>
<path d="M30.4462 32.1456C28.9109 33.7661 25.9703 32.6782 25.4832 30.2717C25.0929 28.344 26.3074 26.5566 28.199 26.2392C29.0416 26.0975 29.7848 26.3359 30.4108 26.9462C30.4621 26.5893 30.6769 26.4108 31.0552 26.4108C31.8521 26.4108 31.8583 26.4108 31.8508 27.1955C31.8317 29.1457 31.9141 31.0979 31.8079 33.0468C31.7275 34.5215 30.7793 35.6114 29.4054 35.8702C27.8687 36.1604 26.398 35.4615 25.7775 34.1537C25.706 34.0031 25.6978 33.9193 25.8804 33.8539C26.1787 33.7477 26.473 33.6278 26.7584 33.4916C26.9246 33.4125 26.9818 33.467 27.0649 33.6101C27.3885 34.1659 27.8326 34.5576 28.5151 34.5957C29.671 34.6598 30.4149 33.9759 30.4462 32.8138C30.4517 32.6101 30.4469 32.4065 30.4469 32.1463L30.4462 32.1456ZM26.8892 29.5497C26.8953 29.6627 26.8967 29.7765 26.9076 29.8896C26.9873 30.7219 27.6848 31.4665 28.4872 31.5775C29.3461 31.696 30.1342 31.2137 30.4203 30.3623C30.6342 29.7254 30.6138 29.0865 30.2977 28.4823C29.7119 27.3631 28.306 27.1751 27.4409 28.0947C27.0574 28.5027 26.881 28.9918 26.8892 29.5503V29.5497Z" fill="#1E4718"/>
<path d="M74.8247 27.2691V24.1535C74.8247 23.7829 75.0075 23.5977 75.3731 23.5977C75.7877 23.5977 75.995 23.8047 75.995 24.2189C75.995 26.9299 75.9923 29.641 75.9997 32.352C75.9997 32.5979 75.9657 32.7396 75.6748 32.7001C75.4187 32.6653 75.0897 32.8063 74.9187 32.6408C74.7512 32.4787 74.9092 32.1463 74.8574 31.9297C74.7273 32.0373 74.5822 32.1531 74.4412 32.2743C73.508 33.0829 72.0531 33.1129 71.0429 32.3438C69.278 30.9999 69.2848 28.1472 71.0558 26.8141C72.2131 25.9429 73.7764 26.1091 74.7253 27.2017C74.7512 27.2317 74.7696 27.2848 74.8241 27.2691H74.8247ZM74.8493 29.6103C74.8493 29.4748 74.8595 29.3378 74.8479 29.203C74.7634 28.2466 74.0148 27.4408 73.1416 27.3625C72.1273 27.2705 71.2888 27.8379 71.002 28.8086C70.8978 29.1614 70.8835 29.5224 70.9087 29.8848C71.0007 31.2008 72.098 32.0591 73.3371 31.7873C74.2573 31.5857 74.8595 30.7274 74.8499 29.6103H74.8493Z" fill="#1E4718"/>
<path d="M21.4433 32.8921C19.517 32.8975 18.0654 31.4732 18.0559 29.57C18.047 27.6737 19.5047 26.2126 21.4106 26.2064C23.3261 26.2003 24.7899 27.6417 24.794 29.538C24.7987 31.4528 23.3663 32.8866 21.4426 32.8921H21.4433ZM23.3213 29.5523C23.3213 28.5714 22.7375 27.7663 21.8834 27.5695C20.8364 27.3283 19.8719 27.923 19.5994 28.9754C19.3113 30.0911 19.8944 31.2253 20.9059 31.5175C22.1504 31.8765 23.322 30.9235 23.3213 29.5516V29.5523Z" fill="#1E4718"/>
<path d="M14.0814 32.8923C12.1571 32.8957 10.7069 31.4666 10.7008 29.5627C10.6946 27.6677 12.1557 26.2093 14.063 26.2066C15.9771 26.2032 17.4368 27.6466 17.4389 29.545C17.4416 31.4577 16.0057 32.8888 14.0814 32.8923ZM12.1823 29.5232C12.17 30.9325 13.3648 31.9018 14.6325 31.5095C15.6174 31.205 16.1862 30.0675 15.9021 28.9701C15.6597 28.0315 14.7905 27.4075 13.8784 27.5172C12.8785 27.6377 12.1918 28.4497 12.1823 29.5232V29.5232Z" fill="#1E4718"/>
<path d="M38.4853 32.8928C36.6816 32.8819 35.3438 31.7443 35.0918 30.0925C34.8295 28.3719 35.7464 26.8031 37.294 26.325C38.7755 25.8665 40.2073 26.5198 40.9416 27.9891C41.1755 28.4568 41.0527 28.789 40.5731 28.9856C39.3906 29.4726 38.2102 29.9665 37.0236 30.4447C36.7954 30.5366 36.7634 30.6143 36.9057 30.8234C37.5671 31.7947 39.0153 31.8642 39.8163 30.9249C40.0166 30.6906 40.1413 30.6865 40.3558 30.8615C40.5309 31.0046 40.7196 31.1374 40.9205 31.2389C41.1916 31.3758 41.1392 31.512 40.9757 31.6939C40.2823 32.4657 39.4533 32.9384 38.4847 32.8921L38.4853 32.8928ZM38.2701 27.4932C37.3676 27.4932 36.5304 28.3017 36.5079 29.1872C36.5025 29.3895 36.5324 29.4481 36.7477 29.3555C37.5998 28.989 38.4567 28.6334 39.3184 28.2915C39.5452 28.2016 39.4941 28.1055 39.3838 27.9754C39.0923 27.6308 38.7101 27.4945 38.2701 27.4938V27.4932Z" fill="#1E4718"/>
<path d="M48.9155 23.3995C50.2404 23.3865 51.2962 23.7952 52.166 24.676C52.3043 24.8163 52.3425 24.9089 52.1694 25.0513C51.9596 25.2229 51.7955 25.5254 51.5666 25.5785C51.3405 25.6316 51.2063 25.2699 50.9972 25.1255C49.9127 24.3756 48.7459 24.3088 47.5675 24.7959C46.3802 25.2863 45.6759 26.2134 45.5042 27.4994C45.3537 28.6315 45.5185 29.7016 46.3053 30.5905C47.684 32.149 50.0803 32.2124 51.5414 30.7206C51.7614 30.4958 51.8575 30.519 52.055 30.7247C52.6469 31.3419 52.6701 31.3534 51.9896 31.8704C50.4216 33.0618 48.6853 33.2566 46.9279 32.4406C45.1814 31.63 44.2999 30.1573 44.2768 28.2235C44.2488 25.8878 45.6568 24.0493 47.8304 23.52C48.2187 23.4253 48.6131 23.394 48.9148 23.3995H48.9155Z" fill="#1E4718"/>
<path d="M59.0486 32.8956C57.1801 32.901 55.8457 31.5264 55.8444 29.594C55.8437 27.6581 57.1699 26.2774 59.0343 26.2726C60.885 26.2678 62.2453 27.6683 62.2487 29.5803C62.2521 31.4965 60.9068 32.8901 59.0486 32.8956V32.8956ZM57.0112 29.5763C57.0112 29.6668 57.0064 29.7574 57.0119 29.848C57.0868 31.1518 58.2564 32.0625 59.5002 31.7866C60.3489 31.5986 60.9524 30.8487 61.0723 29.8344C61.2181 28.5974 60.4041 27.4674 59.287 27.355C57.9805 27.2235 57.0092 28.1703 57.0112 29.5763Z" fill="#1E4718"/>
<path d="M67.6299 31.8983C67.0121 32.5468 66.3241 32.9119 65.442 32.8887C64.2867 32.8581 63.4796 32.1714 63.2745 31.025C63.2269 30.7567 63.2016 30.4876 63.203 30.2138C63.2078 29.0687 63.2098 27.923 63.2003 26.778C63.1982 26.5586 63.2282 26.4619 63.4864 26.4633C64.3671 26.4674 64.3671 26.4565 64.3671 27.3358C64.3671 28.2432 64.3644 29.1498 64.3698 30.0571C64.3705 30.2369 64.393 30.4181 64.4175 30.5973C64.5027 31.2035 64.8092 31.6367 65.4263 31.7777C66.0966 31.9303 66.6879 31.7975 67.1211 31.2137C67.414 30.8186 67.5591 30.3745 67.5591 29.8827C67.5591 28.8399 67.5645 27.7963 67.555 26.7534C67.5529 26.5389 67.602 26.4646 67.8322 26.464C68.7218 26.4612 68.7218 26.4524 68.7218 27.327C68.7218 29.0054 68.7157 30.6831 68.7279 32.3615C68.73 32.6271 68.6626 32.7341 68.3928 32.6939C68.1401 32.6558 67.8002 32.8145 67.6524 32.619C67.5339 32.4623 67.6285 32.1449 67.6285 31.899L67.6299 31.8983Z" fill="#1E4718"/>
<path d="M32.8781 27.7385C32.8781 26.2066 32.8842 24.6746 32.872 23.1427C32.8699 22.8838 32.9455 22.798 33.1982 22.8239C33.5674 22.8614 34.064 22.6659 34.2745 22.9015C34.4577 23.1073 34.3337 23.5929 34.3337 23.9546C34.3358 26.746 34.3296 29.5375 34.3426 32.3289C34.344 32.6334 34.2649 32.728 33.9673 32.6967C33.7207 32.6708 33.4659 32.6701 33.2193 32.6967C32.921 32.7287 32.8692 32.6054 32.8713 32.3336C32.8842 30.8017 32.8774 29.2698 32.8774 27.7378L32.8781 27.7385Z" fill="#1E4718"/>
<path d="M53.6652 28.1294C53.6652 26.7344 53.6707 25.3387 53.6605 23.9437C53.6584 23.6964 53.6966 23.5895 53.9854 23.5949C54.8294 23.6113 54.8294 23.5963 54.8294 24.4382C54.8294 27.0702 54.8232 29.7016 54.8375 32.3329C54.8396 32.6449 54.7483 32.7048 54.4602 32.698C53.6659 32.6796 53.6652 32.6926 53.6652 31.9065C53.6652 30.6477 53.6652 29.3882 53.6652 28.1294Z" fill="#1E4718"/>
</svg>
