<svg width="60" height="41" viewBox="0 0 60 41" fill="none" xmlns="http://www.w3.org/2000/svg">
<g filter="url(#filter0_d_507_454)">
<path d="M40.7036 7.81557C40.7036 7.9365 40.7036 8.03844 40.7036 8.14038C40.7032 10.0723 40.7011 12.0047 40.7052 13.9367C40.7052 14.0898 40.6772 14.1637 40.5042 14.153C40.2781 14.1389 40.0502 14.1414 39.8241 14.1517C39.6751 14.1583 39.6272 14.0981 39.6404 13.9594C39.647 13.8913 39.6404 13.822 39.6404 13.753C39.64 11.1335 39.6412 8.51349 39.6359 5.89392C39.6355 5.69622 39.6821 5.63885 39.8951 5.61615C40.3181 5.57075 40.5558 5.74162 40.7998 6.07923C41.6157 7.20969 42.4754 8.30836 43.3166 9.42107C43.8593 10.1388 44.3983 10.8594 44.9398 11.578C45.012 11.6737 45.0909 11.7637 45.1722 11.8632C45.2246 11.7847 45.2031 11.722 45.2031 11.6634C45.2056 9.73144 45.2093 7.79906 45.2035 5.86709C45.2031 5.66527 45.263 5.60253 45.4607 5.62028C45.6584 5.63803 45.8594 5.62936 46.0583 5.62234C46.1891 5.6178 46.2428 5.6599 46.2382 5.79858C46.2292 6.05282 46.2374 6.30747 46.2374 6.56171C46.2374 9.00958 46.2349 11.4575 46.2415 13.9053C46.2419 14.1018 46.1928 14.148 45.9943 14.1612C45.6811 14.1823 45.4871 14.0807 45.2968 13.8236C44.2142 12.3601 43.1102 10.9118 42.0136 9.45863C41.6289 8.9485 41.2447 8.43796 40.8596 7.92824C40.8274 7.88573 40.7969 7.83868 40.7028 7.81515L40.7036 7.81557Z" fill="#1E4718"/>
<path d="M23.3689 17.7324C23.3689 17.8823 23.3689 18.0317 23.3689 18.1815C23.3701 20.059 23.3693 21.9365 23.3763 23.8139C23.3772 23.998 23.3313 24.0727 23.1357 24.0575C22.917 24.0401 22.6958 24.0475 22.4758 24.0562C22.3392 24.0616 22.2971 24.0104 22.2999 23.8775C22.307 23.5201 22.302 23.1623 22.3024 22.8048C22.3024 20.4663 22.3049 18.1282 22.2987 15.7897C22.2983 15.5908 22.3416 15.5413 22.5534 15.5161C22.9814 15.4657 23.2195 15.6535 23.4614 15.9804C24.7577 17.7308 26.0747 19.4663 27.3926 21.201C27.5308 21.383 27.648 21.5877 27.8622 21.7705C27.8622 21.591 27.8622 21.4499 27.8622 21.3087C27.8622 19.4725 27.8622 17.6363 27.861 15.8001C27.861 15.5301 27.8589 15.5301 28.1313 15.5293C28.3307 15.5285 28.5304 15.5338 28.7294 15.5248C28.8631 15.5186 28.9093 15.5636 28.9069 15.701C28.899 16.0861 28.9052 16.4711 28.9052 16.8562C28.9052 19.1741 28.9023 21.4915 28.9089 23.8094C28.9093 24.0063 28.8544 24.0397 28.6621 24.0682C28.2886 24.1235 28.1058 23.9155 27.9163 23.6629C26.6674 21.9971 25.4148 20.3343 24.1622 18.6714C23.9199 18.3495 23.6723 18.0317 23.4271 17.7118C23.4081 17.7188 23.3887 17.7254 23.3697 17.7324H23.3689Z" fill="#1E4718"/>
<path d="M52.8471 20.4595C53.4365 21.2977 54.0134 22.117 54.5896 22.9367C54.7989 23.2346 55.0048 23.5347 55.2153 23.8314C55.2529 23.8847 55.2884 23.9375 55.2636 24.0007C55.2339 24.0766 55.1592 24.0518 55.1018 24.0523C54.8954 24.0551 54.6874 24.0349 54.4835 24.0576C54.245 24.084 54.11 23.98 53.9784 23.7955C53.2247 22.7386 52.4587 21.6906 51.703 20.6349C51.6205 20.5193 51.528 20.4731 51.3943 20.4748C51.0918 20.4781 50.7892 20.4863 50.4871 20.4752C50.3125 20.4686 50.2622 20.535 50.2638 20.7013C50.27 21.4575 50.2671 22.2136 50.2671 22.9701C50.2671 23.2726 50.2614 23.5751 50.2671 23.8777C50.27 24.0106 50.2254 24.0613 50.0892 24.0556C49.8627 24.0465 49.6348 24.0407 49.4091 24.0556C49.2308 24.0675 49.1932 24.0007 49.1941 23.8339C49.2002 22.287 49.2002 20.7401 49.1978 19.1937C49.1961 18.0459 49.1907 16.8977 49.1796 15.7499C49.178 15.5807 49.2267 15.5225 49.4 15.5237C50.4586 15.5315 51.5173 15.532 52.5759 15.5307C53.2404 15.5299 53.8409 15.7103 54.3358 16.1647C55.1976 16.9567 55.3366 18.3822 54.6569 19.3509C54.2243 19.9671 53.7708 20.2473 52.8463 20.4587L52.8471 20.4595ZM50.2675 17.9741C50.2675 18.421 50.2729 18.868 50.2647 19.3146C50.2618 19.4755 50.3146 19.5267 50.4764 19.5247C51.1706 19.5172 51.8652 19.5263 52.5594 19.5201C53.4034 19.5127 54.0815 18.8168 54.0815 17.9687C54.0815 17.1292 53.4282 16.4734 52.5722 16.4655C51.871 16.4589 51.1698 16.4693 50.4685 16.4606C50.2993 16.4585 50.2614 16.52 50.2642 16.6744C50.2725 17.1073 50.2671 17.5407 50.2671 17.9736L50.2675 17.9741Z" fill="#1E4718"/>
<path d="M18.1704 10.5446C18.3743 10.8355 18.5621 11.1034 18.7495 11.3713C19.3409 12.2153 19.9327 13.0593 20.5238 13.9037C20.5659 13.9636 20.6331 14.0247 20.584 14.106C20.5411 14.1774 20.459 14.1485 20.3942 14.1489C20.1535 14.1518 19.9125 14.1419 19.6723 14.1505C19.5473 14.1551 19.4693 14.1085 19.3987 14.0098C18.6455 12.9607 17.8848 11.9165 17.1365 10.864C16.9937 10.6634 16.8509 10.54 16.5839 10.5689C16.3325 10.5962 16.0754 10.5801 15.8212 10.5697C15.6441 10.5627 15.5818 10.6259 15.583 10.8079C15.5896 11.8529 15.5814 12.8983 15.5884 13.9434C15.5896 14.1051 15.5484 14.1613 15.3845 14.1526C15.1513 14.1398 14.9169 14.1431 14.6833 14.1505C14.5549 14.1547 14.512 14.1039 14.5174 13.9822C14.5236 13.8447 14.5203 13.7073 14.5198 13.5694C14.5165 11.0043 14.5145 8.43925 14.5062 5.87417C14.5058 5.69298 14.5467 5.62075 14.7444 5.6224C15.81 5.63148 16.8761 5.62571 17.9422 5.62777C18.7024 5.62942 19.3553 5.88325 19.8609 6.46684C20.5605 7.27413 20.5948 8.66997 19.9393 9.51605C19.4812 10.1071 18.924 10.4373 18.1704 10.5442V10.5446ZM15.5872 8.07853H15.5851C15.5851 8.51808 15.5905 8.95764 15.5822 9.39678C15.5789 9.56558 15.6367 9.62254 15.8071 9.62089C16.5005 9.61305 17.1943 9.62089 17.8881 9.61676C18.7078 9.61139 19.409 8.90357 19.4131 8.08514C19.4172 7.23905 18.754 6.56754 17.9009 6.56177C17.1935 6.55681 16.4861 6.56589 15.7791 6.55764C15.6181 6.55558 15.5826 6.61377 15.5851 6.76029C15.5925 7.19984 15.5876 7.63939 15.5876 8.07894L15.5872 8.07853Z" fill="#1E4718"/>
<path d="M10.1054 9.54558C10.6279 9.54558 11.1505 9.55053 11.673 9.54269C11.8261 9.54021 11.8756 9.59015 11.8752 9.74245C11.8707 10.7809 11.8727 11.8189 11.874 12.8573C11.874 12.951 11.8599 13.0319 11.777 13.0921C10.5177 14.0096 9.14337 14.5263 7.58203 14.1004C6.02317 13.6753 5.03593 12.6303 4.63476 11.0611C4.34998 9.94757 4.41106 8.84105 4.91211 7.80098C5.66946 6.22768 6.95634 5.4695 8.69804 5.4794C9.78392 5.4856 10.7423 5.84095 11.5851 6.52525C11.7415 6.65237 11.7745 6.75596 11.6424 6.91239C11.5632 7.00649 11.4963 7.11173 11.4295 7.21574C11.2268 7.53106 11.2582 7.47039 11.0101 7.29168C10.481 6.91074 9.91641 6.61316 9.26471 6.49471C7.29147 6.13605 5.88903 7.38909 5.58898 9.08786C5.40119 10.1527 5.56174 11.1606 6.24191 12.0347C7.06984 13.0991 8.15448 13.4561 9.46241 13.1445C9.92177 13.0352 10.3432 12.8399 10.7361 12.5791C10.8413 12.5089 10.8933 12.4293 10.8913 12.2931C10.8826 11.757 10.883 11.2204 10.89 10.6843C10.8921 10.5266 10.8488 10.4705 10.6808 10.4726C9.93828 10.4808 9.19579 10.4746 8.45288 10.4738C8.22258 10.4738 8.20483 10.454 8.24074 10.2253C8.25973 10.1032 8.28862 9.98265 8.30348 9.86007C8.34846 9.49316 8.32783 9.54805 8.68236 9.54599C9.15658 9.5431 9.63121 9.54516 10.1054 9.54516V9.54558Z" fill="#1E4718"/>
<path d="M31.3204 9.86459C31.3204 8.51704 31.3245 7.1699 31.3155 5.82235C31.3142 5.6486 31.3844 5.63415 31.521 5.63456C33.2809 5.63787 35.0411 5.64076 36.801 5.63374C36.9781 5.63291 37.033 5.6779 37.0193 5.85042C37.0057 6.02129 37.009 6.19463 37.0206 6.3655C37.0313 6.52729 36.9727 6.57475 36.8105 6.57352C35.7448 6.56691 34.6792 6.57021 33.6135 6.57021C33.2627 6.57021 32.9123 6.57475 32.5615 6.56815C32.4356 6.56567 32.3947 6.60818 32.3956 6.73324C32.3993 7.55126 32.4013 8.3697 32.3931 9.18772C32.3914 9.36932 32.481 9.38335 32.6222 9.38294C33.7155 9.38046 34.8088 9.38748 35.9017 9.37757C36.1043 9.37592 36.1737 9.43618 36.1567 9.63305C36.1439 9.78328 36.1382 9.93723 36.1567 10.0862C36.1827 10.2938 36.0849 10.3211 35.9103 10.3194C35.1472 10.3116 34.3841 10.3145 33.621 10.314C33.2842 10.314 32.947 10.3215 32.6102 10.3107C32.4534 10.3058 32.3923 10.3454 32.3939 10.5134C32.4009 11.3384 32.4022 12.1635 32.3939 12.9885C32.3919 13.185 32.4959 13.192 32.6399 13.192C33.9326 13.1903 35.2252 13.1891 36.5179 13.1928C36.7209 13.1932 36.983 13.1065 37.1114 13.2432C37.2294 13.369 37.137 13.6253 37.1469 13.8239C37.1489 13.8651 37.1423 13.9068 37.1469 13.9477C37.1634 14.0954 37.1101 14.1656 36.9516 14.1516C36.8287 14.1408 36.7044 14.1491 36.5806 14.1491C34.9029 14.1491 33.2251 14.1458 31.5478 14.154C31.351 14.1549 31.3101 14.0905 31.3109 13.9081C31.3175 12.5605 31.3146 11.213 31.3146 9.86541C31.3167 9.86541 31.3188 9.86541 31.3208 9.86541L31.3204 9.86459Z" fill="#1E4718"/>
<path d="M48.9643 9.8829C48.9643 8.54195 48.9671 7.20142 48.961 5.86047C48.9601 5.69415 48.9977 5.63925 49.1756 5.63967C50.9358 5.64586 52.6957 5.64338 54.456 5.63843C54.6025 5.63843 54.6722 5.67062 54.6594 5.83241C54.6467 5.98966 54.6434 6.14979 54.6594 6.30622C54.6801 6.50928 54.619 6.57449 54.4036 6.57284C53.049 6.56252 51.6944 6.5683 50.3399 6.56912C50.285 6.56912 50.2297 6.57284 50.1748 6.56912C50.0654 6.56211 50.0344 6.61535 50.0344 6.71812C50.0365 7.55678 50.0369 8.39585 50.0324 9.2345C50.0316 9.39959 50.1372 9.38061 50.24 9.38061C51.299 9.38061 52.3577 9.38061 53.4167 9.38061C53.4857 9.38061 53.5546 9.38515 53.6231 9.38061C53.7436 9.37318 53.7977 9.41693 53.7923 9.54611C53.7841 9.73844 53.7808 9.9316 53.7936 10.1235C53.8043 10.2857 53.7341 10.3163 53.5893 10.3158C52.4823 10.3113 51.3754 10.3187 50.2685 10.3084C50.0745 10.3068 50.0295 10.3637 50.0316 10.5478C50.0406 11.3522 50.0419 12.1566 50.0316 12.961C50.0295 13.1455 50.0869 13.1946 50.2643 13.1938C51.6874 13.1876 53.1109 13.1946 54.534 13.1847C54.7432 13.183 54.8163 13.2392 54.7944 13.4472C54.7775 13.6106 54.7804 13.7774 54.7923 13.9416C54.8043 14.1071 54.7383 14.1608 54.5798 14.1509C54.4155 14.1406 54.25 14.1488 54.0849 14.1488C52.4691 14.1488 50.8533 14.1488 49.2375 14.1488C49.0545 14.1488 48.9633 14.0606 48.9638 13.8843C48.9638 12.5503 48.9638 11.2164 48.9638 9.88248H48.9651L48.9643 9.8829Z" fill="#1E4718"/>
<path d="M40.8726 19.7965C40.8726 18.4626 40.8763 17.1287 40.8693 15.7952C40.8684 15.6016 40.9196 15.5401 41.1227 15.5413C42.8553 15.5508 44.5879 15.5512 46.3206 15.5442C46.5088 15.5434 46.5818 15.5892 46.5669 15.7811C46.5533 15.959 46.5575 16.1386 46.5636 16.3173C46.5678 16.4341 46.5215 16.4766 46.4072 16.4737C46.2219 16.4687 46.0362 16.4737 45.8505 16.4737C44.6267 16.4737 43.4026 16.477 42.1788 16.47C41.9952 16.4687 41.9341 16.5166 41.9366 16.7077C41.9469 17.4981 41.9448 18.2889 41.9374 19.0796C41.9358 19.2468 41.9989 19.2901 42.1537 19.2897C43.247 19.2848 44.3399 19.2914 45.4332 19.2806C45.6391 19.2786 45.7209 19.3306 45.6986 19.544C45.6817 19.707 45.6911 19.8741 45.6998 20.0384C45.7077 20.1841 45.647 20.2254 45.5067 20.2245C44.4067 20.2188 43.3064 20.2241 42.2065 20.213C42.0055 20.2109 41.9325 20.2526 41.9358 20.4693C41.9481 21.2667 41.9465 22.0645 41.9358 22.8618C41.9333 23.0575 41.9985 23.1 42.1834 23.0992C43.6135 23.0934 45.0436 23.1021 46.4737 23.095C46.6615 23.0942 46.7093 23.1557 46.6957 23.3282C46.6825 23.4991 46.6796 23.6729 46.6953 23.8433C46.7114 24.022 46.6408 24.0579 46.4745 24.0575C44.7761 24.0517 43.0782 24.0542 41.3798 24.0542C41.0422 24.0542 40.8733 23.8865 40.873 23.5511C40.873 22.2997 40.873 21.0483 40.873 19.797L40.8726 19.7965Z" fill="#1E4718"/>
<path d="M23.0039 9.89321C23.0039 8.55226 23.0067 7.21132 23.0001 5.87037C22.9993 5.69703 23.0385 5.63718 23.2255 5.63801C24.9585 5.64626 26.6911 5.64337 28.4242 5.6442C28.6071 5.6442 28.6975 5.73514 28.6953 5.91701C28.6937 6.0821 28.6887 6.24719 28.6953 6.41187C28.6999 6.52826 28.6541 6.57283 28.5393 6.5687C28.3953 6.56375 28.2504 6.5687 28.106 6.5687C26.8405 6.5687 25.5755 6.57201 24.3101 6.56416C24.1194 6.56293 24.0666 6.62153 24.0691 6.80767C24.0778 7.57782 24.0802 8.34796 24.0662 9.11811C24.0625 9.32612 24.1149 9.3901 24.3254 9.38803C25.3981 9.37895 26.4707 9.38432 27.5434 9.38349C27.8232 9.38349 27.8228 9.38143 27.8241 9.6658C27.8249 9.81727 27.8183 9.96874 27.829 10.1194C27.8402 10.2742 27.7799 10.3196 27.6272 10.3175C27.0704 10.3092 26.5133 10.3138 25.9565 10.3134C25.3993 10.3129 24.8425 10.3154 24.2858 10.3084C24.1339 10.3063 24.0674 10.3385 24.0695 10.5115C24.0786 11.3295 24.079 12.1479 24.0695 12.9664C24.0674 13.1504 24.1252 13.1958 24.3043 13.195C25.7415 13.1896 27.1786 13.1971 28.6157 13.1921C28.7791 13.1917 28.8365 13.2371 28.8253 13.3993C28.8134 13.5772 28.8092 13.7576 28.8241 13.935C28.8385 14.1108 28.7729 14.1542 28.6045 14.1529C27.5455 14.1459 26.4864 14.1488 25.4278 14.1488C24.6919 14.1488 23.956 14.1439 23.2205 14.1525C23.0517 14.1546 22.9997 14.1117 23.0005 13.9367C23.008 12.5891 23.0047 11.2412 23.0047 9.89321H23.0039Z" fill="#1E4718"/>
<path d="M13.9806 19.8068C13.9806 18.5344 13.9806 17.2623 13.9806 15.9899C13.9806 15.9144 13.9913 15.838 13.9843 15.7633C13.967 15.5896 14.0442 15.5438 14.2113 15.545C15.1949 15.5516 16.178 15.5483 17.1615 15.5479C17.9316 15.5479 18.7018 15.5495 19.4723 15.5429C19.6288 15.5417 19.7014 15.5813 19.6882 15.7514C19.675 15.9152 19.6738 16.0824 19.6882 16.2462C19.7043 16.4324 19.6284 16.4773 19.4521 16.4765C18.0769 16.4703 16.7013 16.4769 15.3257 16.4683C15.1226 16.467 15.0541 16.5116 15.0578 16.7279C15.0719 17.491 15.0632 18.2545 15.064 19.0177C15.064 19.2901 15.0657 19.2897 15.3327 19.2897C16.4054 19.2892 17.4785 19.2934 18.5511 19.2839C18.7575 19.2822 18.8417 19.3429 18.8215 19.553C18.8079 19.6962 18.8095 19.8423 18.8211 19.9859C18.8355 20.1617 18.7777 20.2237 18.5916 20.222C17.4913 20.2137 16.3909 20.2224 15.2906 20.2146C15.114 20.2133 15.0554 20.2505 15.0582 20.4379C15.0698 21.2493 15.0698 22.0607 15.0615 22.8721C15.0595 23.0587 15.1226 23.1024 15.2989 23.1016C16.7224 23.095 18.1458 23.1008 19.5693 23.0925C19.7629 23.0913 19.8244 23.154 19.8124 23.3381C19.8005 23.516 19.8025 23.6955 19.8091 23.8742C19.8141 24.0096 19.7571 24.0566 19.6267 24.0542C19.3725 24.0488 19.1178 24.0533 18.8636 24.0533C17.3233 24.0533 15.7826 24.0492 14.2423 24.0587C14.0281 24.0599 13.9761 23.9918 13.9773 23.7892C13.9847 22.4619 13.981 21.1345 13.9814 19.8072L13.9806 19.8068Z" fill="#1E4718"/>
<path d="M5.0738 19.8365C5.12746 21.2159 5.67556 22.3092 6.94881 22.9443C7.81306 23.3752 8.69712 23.2815 9.56343 22.9188C10.0426 22.7178 10.4702 22.4293 10.8524 22.078C10.9716 21.9683 11.0418 21.9596 11.1359 22.1069C11.2354 22.2625 11.3571 22.4053 11.4814 22.5424C11.592 22.6641 11.5635 22.7454 11.4541 22.8502C10.7591 23.5147 9.94231 23.9328 8.99552 24.1066C7.52044 24.3777 6.25956 23.9576 5.21165 22.9109C4.4898 22.1899 4.12371 21.2897 4.02589 20.2773C3.92601 19.2405 4.1105 18.2636 4.65943 17.3709C5.69578 15.6862 7.56873 14.9862 9.46231 15.564C10.1648 15.7782 10.774 16.1517 11.3287 16.6263C11.4413 16.7229 11.4533 16.798 11.3687 16.9165C11.2573 17.0729 11.157 17.2376 11.0612 17.4043C10.9791 17.5476 10.9163 17.576 10.7731 17.4497C10.3216 17.0515 9.81725 16.7374 9.24068 16.5422C7.41643 15.9251 5.87119 16.9115 5.29502 18.4782C5.13406 18.9153 5.06679 19.3689 5.0738 19.8369V19.8365Z" fill="#1E4718"/>
<path d="M35.4232 20.2671C35.4232 21.4566 35.4199 22.6456 35.4269 23.8351C35.4278 24.0035 35.3877 24.0687 35.2115 24.0576C34.9853 24.0435 34.7579 24.0481 34.5313 24.0555C34.4013 24.0596 34.346 24.0208 34.3518 23.8817C34.3609 23.6552 34.353 23.4282 34.353 23.2012C34.353 21.0356 34.3497 18.87 34.3572 16.7049C34.358 16.5101 34.2952 16.4675 34.1149 16.4692C33.2556 16.4774 32.3963 16.4758 31.537 16.4733C31.1816 16.4725 31.2386 16.5006 31.2299 16.1605C31.2262 16.016 31.2386 15.8707 31.225 15.7275C31.2093 15.5662 31.2774 15.5286 31.426 15.5307C31.9002 15.5373 32.3748 15.5319 32.8491 15.5315C34.6502 15.5315 36.4513 15.5315 38.2525 15.5315C38.5158 15.5315 38.522 15.5323 38.517 15.8014C38.5133 16.0189 38.614 16.3 38.4724 16.4354C38.3424 16.5596 38.0655 16.4729 37.8534 16.4737C37.1109 16.4766 36.3684 16.4803 35.6259 16.47C35.4562 16.4675 35.4224 16.5237 35.4232 16.6784C35.4286 17.8745 35.4261 19.0706 35.4261 20.2671H35.4241H35.4232Z" fill="#1E4718"/>
<path d="M21.8051 3.62538C21.9627 3.22586 22.1026 2.87793 22.2376 2.52753C22.5112 1.81599 22.7803 1.10321 23.0552 0.392086C23.0895 0.303351 23.0977 0.189026 23.2479 0.191089C23.3945 0.193153 23.406 0.301287 23.4415 0.392912C23.8274 1.39212 24.2112 2.39215 24.5967 3.39136C24.6211 3.4541 24.6512 3.51435 24.6904 3.60103C24.7866 3.47061 24.8266 3.34184 24.8724 3.21843C25.2426 2.22087 25.6108 1.2229 25.9794 0.22452C26.0103 0.140324 26.033 0.0586044 26.1539 0.056128C26.3372 0.0520008 26.3665 0.0800661 26.3013 0.254649C25.825 1.53492 25.3466 2.81437 24.8712 4.09506C24.8373 4.18668 24.8014 4.24777 24.6871 4.24735C24.5641 4.24694 24.5439 4.16027 24.5125 4.07855C24.1328 3.09172 23.7548 2.10448 23.3742 1.11807C23.3379 1.02397 23.3189 0.919962 23.2327 0.826686C23.0672 1.12839 22.9788 1.45031 22.8587 1.75821C22.5591 2.52546 22.2718 3.29767 21.9805 4.06823C21.9466 4.15738 21.9305 4.24818 21.7956 4.24777C21.6623 4.24694 21.6412 4.15862 21.6078 4.06864C21.1397 2.80653 20.6709 1.54442 20.2053 0.281476C20.1806 0.214202 20.0922 0.111433 20.2008 0.0718116C20.3048 0.0338409 20.448 0.00660099 20.5087 0.176644C20.6193 0.487013 20.7369 0.794907 20.8512 1.10363C21.1373 1.87583 21.4225 2.64846 21.7089 3.42067C21.7279 3.47184 21.7551 3.51972 21.8051 3.62496V3.62538Z" fill="#1E4718"/>
<path d="M39.7779 3.52153C39.983 3.06258 40.1642 2.66347 40.3404 2.2623C40.6413 1.57676 40.9451 0.892466 41.2336 0.201564C41.3033 0.0348225 41.421 0.0414261 41.5485 0.0492679C41.6818 0.0575224 41.6467 0.175562 41.6595 0.256869C41.8593 1.50412 42.057 2.75179 42.258 3.99905C42.2951 4.22935 42.2699 4.26402 42.0751 4.24338C41.9558 4.23059 41.9583 4.14928 41.9459 4.06839C41.8093 3.20043 41.6756 2.33164 41.5332 1.4645C41.4932 1.22141 41.48 0.972535 41.3809 0.688579C40.8374 1.91355 40.3095 3.10426 39.7589 4.34533C39.2525 3.10013 38.7659 1.90282 38.2789 0.705501C38.2653 0.707978 38.2516 0.710041 38.238 0.712518C38.1381 1.31799 38.0391 1.92387 37.938 2.52933C37.8509 3.05061 37.756 3.57064 37.6746 4.09274C37.6474 4.26691 37.5327 4.25535 37.4179 4.23884C37.2776 4.21862 37.3482 4.11296 37.3597 4.04362C37.5731 2.79183 37.7881 1.54003 38.0073 0.289061C38.0238 0.194134 37.9937 0.0624751 38.1641 0.0439025C38.3313 0.0257425 38.3895 0.107049 38.4444 0.244487C38.8266 1.20118 39.2154 2.15458 39.6029 3.10921C39.6512 3.22849 39.7036 3.34612 39.7783 3.52194L39.7779 3.52153Z" fill="#1E4718"/>
<path d="M34.1475 3.58959C34.1475 2.47276 34.1475 1.36583 34.1471 0.259313C34.1471 0.152417 34.1356 0.0484105 34.2961 0.0517123C34.4133 0.0541887 34.4761 0.0888576 34.4736 0.217215C34.469 0.437198 34.4732 0.65718 34.4728 0.877163C34.4715 1.92218 34.4711 2.96762 34.4674 4.01264C34.4674 4.09188 34.5256 4.20455 34.3939 4.23633C34.2895 4.26151 34.2028 4.23675 34.124 4.14058C33.715 3.64036 33.2965 3.14839 32.8829 2.65229C32.3291 1.98739 31.7764 1.32126 31.2089 0.637782C31.1569 0.73436 31.1743 0.815667 31.1738 0.891608C31.1701 1.94365 31.1668 2.99568 31.1685 4.04772C31.1685 4.1769 31.1549 4.25821 30.9943 4.24707C30.8915 4.23964 30.8432 4.21281 30.8482 4.10385C30.854 3.98044 30.8486 3.85621 30.8486 3.7324C30.8486 2.5842 30.8474 1.43558 30.8494 0.287378C30.8494 0.206072 30.8049 0.0933976 30.9328 0.0640941C31.0442 0.0385051 31.1449 0.0579032 31.2275 0.158608C31.5573 0.563492 31.8916 0.964661 32.2259 1.36583C32.8243 2.08315 33.424 2.79964 34.0245 3.51613C34.0493 3.54585 34.0691 3.58671 34.1471 3.58959H34.1475Z" fill="#1E4718"/>
<path d="M19.7957 2.94782C19.7957 3.17481 19.7928 3.40181 19.7969 3.6284C19.7985 3.71961 19.7709 3.7807 19.6912 3.83311C18.6982 4.48315 17.5405 4.4555 16.7142 3.60941C16.0985 2.97877 15.9627 1.94242 16.3758 1.1343C16.7811 0.341868 17.6507 -0.101812 18.5401 0.019942C18.9165 0.0715326 19.257 0.197414 19.5592 0.429778C19.6446 0.495402 19.7044 0.547818 19.6149 0.660079C19.5311 0.764499 19.4651 0.740561 19.3734 0.674937C18.7832 0.250655 18.1468 0.167698 17.4873 0.477654C16.6441 0.873871 16.2495 1.85409 16.5512 2.74063C16.8492 3.61561 17.7461 4.1245 18.6656 3.9396C18.699 3.93299 18.7329 3.9268 18.7663 3.91855C19.4316 3.75841 19.4898 3.69072 19.4836 3.01426C19.482 2.81203 19.5757 2.55738 19.4345 2.41994C19.3024 2.29158 19.0536 2.38445 18.8563 2.37784C18.6503 2.37083 18.444 2.37537 18.2376 2.37784C18.132 2.37908 18.0688 2.3473 18.0659 2.2272C18.063 2.10627 18.1204 2.07366 18.2298 2.07449C18.6974 2.07779 19.165 2.07903 19.6326 2.07573C19.756 2.0749 19.8027 2.12154 19.799 2.24618C19.7919 2.47979 19.7969 2.7138 19.7965 2.9474L19.7957 2.94782Z" fill="#1E4718"/>
<path d="M26.9632 2.15342C26.9632 1.52773 26.9677 0.901628 26.9603 0.275937C26.9582 0.112085 26.9958 0.0510015 27.1769 0.0534778C27.9813 0.0633832 28.7862 0.0559542 29.5906 0.0538906C29.6979 0.0538906 29.8011 0.0448106 29.7994 0.204535C29.7973 0.363022 29.69 0.355593 29.586 0.356006C28.8914 0.357244 28.1968 0.363022 27.5026 0.353942C27.3115 0.351466 27.2541 0.4142 27.2607 0.60199C27.2743 1.00027 27.2657 1.39979 27.2661 1.79848C27.2661 2.07583 27.2665 2.07666 27.5534 2.07707C28.0622 2.07707 28.5711 2.0812 29.08 2.07377C29.234 2.07129 29.2736 2.13733 29.2575 2.2727C29.243 2.39652 29.1502 2.37671 29.0705 2.37671C28.5546 2.37712 28.0387 2.3862 27.5232 2.37134C27.307 2.36515 27.2525 2.44481 27.262 2.64581C27.276 2.94751 27.2611 3.25086 27.2653 3.55339C27.271 3.98221 27.2096 3.93103 27.6553 3.93351C28.3293 3.93764 29.0033 3.93475 29.6772 3.93351C29.7825 3.93351 29.8646 3.9397 29.8592 4.08415C29.8551 4.19394 29.8304 4.24553 29.7094 4.24512C28.8361 4.24223 27.9628 4.24223 27.0894 4.24635C26.9322 4.24718 26.9561 4.14359 26.9561 4.05114C26.9549 3.41843 26.9557 2.78613 26.9557 2.15342C26.9586 2.15342 26.9615 2.15342 26.9648 2.15342H26.9632Z" fill="#1E4718"/>
<path d="M31.3706 26.9259C31.3706 26.4723 31.3747 26.0187 31.3681 25.5651C31.3661 25.4194 31.4036 25.3608 31.5642 25.3629C32.1482 25.372 32.7326 25.3641 33.3166 25.3654C33.3921 25.3654 33.4928 25.3386 33.4957 25.4723C33.4986 25.6056 33.4041 25.5821 33.3249 25.5825C32.8164 25.5837 32.3075 25.5924 31.7994 25.5817C31.6294 25.5779 31.5877 25.6357 31.5935 25.7938C31.6038 26.0889 31.6034 26.3848 31.5935 26.6803C31.5885 26.8351 31.6455 26.8859 31.7965 26.8826C32.1606 26.8747 32.525 26.8768 32.889 26.8813C32.9683 26.8821 33.0846 26.8458 33.0888 26.9907C33.0929 27.138 32.9765 27.105 32.8964 27.1058C32.5324 27.1104 32.168 27.1149 31.804 27.1067C31.6554 27.1034 31.5906 27.1455 31.5955 27.3023C31.6038 27.5631 31.6025 27.8248 31.5955 28.0857C31.5918 28.2309 31.6521 28.273 31.7916 28.2714C32.3137 28.2652 32.8362 28.2681 33.3583 28.2714C33.4264 28.2718 33.5217 28.2404 33.544 28.3498C33.5634 28.4456 33.537 28.5083 33.4198 28.5083C32.7805 28.5066 32.1416 28.5066 31.5023 28.5099C31.3652 28.5108 31.3698 28.4191 31.3698 28.3283C31.3689 27.8611 31.3694 27.3935 31.3694 26.9263H31.3702L31.3706 26.9259Z" fill="#1E4718"/>
<path d="M36.238 26.793C36.238 27.2949 36.2388 27.7972 36.2372 28.2991C36.2372 28.37 36.271 28.4658 36.1748 28.4963C36.0927 28.5223 36.0291 28.5046 35.9941 28.3919C35.961 28.2858 35.8773 28.3808 35.8286 28.4047C35.4786 28.576 35.1245 28.583 34.772 28.4282C34.2998 28.2211 34.0902 27.7621 34.1925 27.1901C34.2813 26.6936 34.6956 26.3093 35.1765 26.2788C35.4134 26.2635 35.6457 26.292 35.8587 26.4001C35.9858 26.4645 36.0114 26.4236 36.0106 26.3015C36.0081 25.9506 36.0114 25.5998 36.0118 25.249C36.0118 25.159 35.999 25.0583 36.1365 25.0621C36.271 25.0658 36.2363 25.1714 36.2367 25.2457C36.2396 25.7616 36.2384 26.2775 36.2384 26.793H36.2376H36.238ZM36.0106 27.3873H36.0089C36.0089 27.2573 35.9904 27.1236 36.0131 26.9973C36.0514 26.7831 35.9404 26.6812 35.7695 26.6085C35.7192 26.5871 35.6672 26.5697 35.6156 26.552C35.2326 26.4195 34.8529 26.5148 34.6077 26.8038C34.3729 27.0811 34.3159 27.5656 34.4827 27.8669C34.6639 28.1951 35.0118 28.356 35.4278 28.3044C35.8277 28.2545 36.011 28.0502 36.0106 27.6544C36.0106 27.5652 36.0106 27.4761 36.0106 27.3869V27.3873Z" fill="#1E4718"/>
<path d="M18.1037 31.2376C18.1037 31.7527 18.1053 32.2673 18.102 32.7824C18.1016 32.8489 18.14 32.9442 18.0244 32.964C17.9369 32.9789 17.8973 32.9512 17.8738 32.8518C17.8507 32.7539 17.7731 32.8357 17.7298 32.8563C17.3678 33.0292 17.0042 33.0482 16.6389 32.8736C16.2233 32.6751 16.0079 32.2904 16.0508 31.836C16.102 31.2929 16.3868 30.9107 16.828 30.7795C17.14 30.6866 17.4413 30.7233 17.7318 30.8509C17.8717 30.9124 17.894 30.8661 17.8928 30.7378C17.8891 30.3944 17.8911 30.051 17.8948 29.708C17.8957 29.6333 17.8606 29.5289 17.9927 29.5223C18.1466 29.5149 18.1029 29.6366 18.1033 29.713C18.1074 30.221 18.1053 30.7291 18.1053 31.2372H18.1041L18.1037 31.2376ZM17.8932 31.8488C17.8932 31.7663 17.8936 31.6842 17.8932 31.6016C17.8895 31.174 17.802 31.0675 17.3748 30.9697C16.8841 30.8579 16.4037 31.1707 16.291 31.6763C16.1725 32.2079 16.433 32.6305 16.9518 32.749C17.2626 32.82 17.5366 32.725 17.7855 32.5492C17.9828 32.4097 17.8622 32.1935 17.8924 32.0135C17.901 31.9599 17.8936 31.9037 17.8936 31.8488H17.8932Z" fill="#1E4718"/>
<path d="M22.1105 29.7795C22.4882 29.7985 22.8708 29.9082 23.1964 30.1794C23.248 30.2223 23.3219 30.2471 23.2488 30.3371C23.189 30.4105 23.1428 30.4225 23.0623 30.3631C22.8328 30.193 22.5786 30.0779 22.2938 30.0312C21.678 29.9309 21.1439 30.224 20.8583 30.8237C20.6123 31.3404 20.7564 32.042 21.1844 32.411C21.7275 32.8795 22.4238 32.8807 23.0602 32.4189C23.1093 32.3834 23.1502 32.2909 23.2315 32.3437C23.3194 32.4011 23.3739 32.4667 23.262 32.5695C22.8142 32.9806 21.9942 33.1089 21.4221 32.8489C20.834 32.5815 20.4728 31.9814 20.5013 31.3177C20.5294 30.6553 20.933 30.0969 21.5463 29.869C21.7164 29.8059 21.893 29.7873 22.1105 29.7799V29.7795Z" fill="#1E4718"/>
<path d="M12.0546 32.0426C12.0546 32.2143 12.0542 32.386 12.0546 32.5576C12.055 32.7281 12.1372 32.8057 12.3027 32.7463C12.396 32.7128 12.4686 32.7042 12.4963 32.8106C12.5251 32.9217 12.4199 32.9287 12.3551 32.9456C12.1937 32.9877 12.0257 33.024 11.9073 32.8548C11.845 32.7652 11.7888 32.8012 11.7174 32.842C11.3798 33.0348 11.0191 33.0335 10.6613 32.9262C10.2721 32.8098 10.0925 32.5502 10.1231 32.2027C10.1549 31.8412 10.4223 31.5749 10.8136 31.5275C11.0876 31.4941 11.3629 31.5019 11.6324 31.565C11.8033 31.6051 11.8413 31.532 11.8177 31.3822C11.7798 31.142 11.5788 30.96 11.3167 30.9431C11.0373 30.9249 10.7711 30.9674 10.5251 31.1168C10.4656 31.1531 10.3897 31.2712 10.3084 31.1292C10.2267 30.9868 10.3583 30.967 10.4297 30.9224C10.7418 30.7284 11.086 30.6884 11.4413 30.7433C11.788 30.797 11.9907 31.0116 12.0253 31.3632C12.0476 31.5882 12.0493 31.8152 12.06 32.0413C12.0579 32.0413 12.0559 32.0413 12.0538 32.0413L12.0546 32.0426ZM11.1541 31.7161C11.0447 31.7227 10.9345 31.7219 10.8264 31.7367C10.563 31.7731 10.3641 31.9728 10.3365 32.2184C10.3129 32.4285 10.4607 32.6191 10.7166 32.7174C10.8821 32.7813 11.0538 32.7739 11.2242 32.7648C11.7261 32.7376 11.9836 32.3521 11.8239 31.8767C11.7971 31.7966 11.7344 31.7846 11.6646 31.7726C11.4954 31.7446 11.327 31.7161 11.1541 31.7161Z" fill="#1E4718"/>
<path d="M19.0515 27.5607C19.0515 27.7324 19.0457 27.9045 19.0527 28.0762C19.0614 28.2838 19.1336 28.3412 19.328 28.276C19.4263 28.243 19.4717 28.2673 19.5026 28.3495C19.5365 28.439 19.4584 28.4568 19.4044 28.4737C19.2306 28.5273 19.049 28.5744 18.912 28.4035C18.8344 28.3065 18.777 28.3618 18.7023 28.3969C18.3074 28.5806 17.9058 28.5872 17.5083 28.4105C17.2425 28.2925 17.1092 28.0733 17.1249 27.7853C17.141 27.4914 17.2685 27.2553 17.5595 27.1422C17.8856 27.0155 18.2194 27.0452 18.5554 27.0956C18.645 27.1092 18.7622 27.1777 18.8228 27.0898C18.8761 27.0131 18.8154 26.9033 18.7799 26.8145C18.6904 26.5896 18.5112 26.4951 18.2789 26.4872C17.9986 26.4777 17.7324 26.5248 17.4918 26.6812C17.4406 26.7147 17.382 26.7848 17.3201 26.6891C17.2673 26.6069 17.297 26.55 17.3709 26.4996C17.758 26.2375 18.1823 26.2004 18.6132 26.3354C18.879 26.4187 19.0094 26.6499 19.0305 26.9227C19.047 27.1344 19.0338 27.3482 19.0338 27.5607H19.0503H19.0515ZM18.1476 27.2632C18.0048 27.2504 17.8199 27.2623 17.6458 27.3383C17.4683 27.4155 17.3635 27.5533 17.3457 27.7477C17.3267 27.9545 17.415 28.1163 17.5975 28.2046C17.9173 28.3598 18.25 28.3684 18.5707 28.2095C18.6805 28.1551 18.8117 28.0948 18.8344 27.9446C18.9186 27.3878 18.8497 27.3024 18.2946 27.2714C18.2603 27.2694 18.226 27.2677 18.1472 27.2632H18.1476Z" fill="#1E4718"/>
<path d="M15.2896 25.3258C15.6986 25.3275 16.0547 25.4757 16.3816 25.7084C16.4468 25.7547 16.5054 25.7906 16.4299 25.8851C16.3664 25.9647 16.3181 25.9627 16.2442 25.9074C16.0155 25.7361 15.7658 25.6152 15.4778 25.5747C14.758 25.4748 14.1385 25.8962 13.9701 26.6074C13.8042 27.3082 14.1723 27.9991 14.8384 28.2302C15.3696 28.4147 15.8368 28.2595 16.2714 27.9483C16.3379 27.9004 16.3899 27.8315 16.4753 27.9314C16.5587 28.0292 16.4972 28.0812 16.4295 28.1316C15.7188 28.6611 14.7695 28.6986 14.138 28.0527C13.5697 27.4716 13.5445 26.448 14.1017 25.8422C14.4237 25.4922 14.8174 25.3209 15.2896 25.3258V25.3258Z" fill="#1E4718"/>
<path d="M44.3954 27.5653C44.3954 27.737 44.3975 27.9087 44.395 28.0804C44.3925 28.2583 44.4656 28.3462 44.6476 28.2868C44.7438 28.2554 44.8201 28.2661 44.8432 28.3648C44.8647 28.4572 44.7665 28.4704 44.7079 28.4874C44.5382 28.5356 44.3607 28.5641 44.2415 28.3895C44.1602 28.2707 44.0991 28.3656 44.0376 28.3966C43.6488 28.5893 43.2534 28.5815 42.8642 28.4168C42.5679 28.2917 42.4329 28.0614 42.4573 27.7663C42.4828 27.4588 42.636 27.2356 42.9331 27.1295C43.2683 27.0094 43.6108 27.0482 43.9513 27.1014C44.1858 27.1382 44.2134 27.1117 44.1449 26.8872C44.0628 26.6181 43.9175 26.4997 43.6377 26.4893C43.3595 26.479 43.0896 26.5096 42.8481 26.6705C42.7883 26.7106 42.7127 26.7906 42.6417 26.6734C42.5629 26.5434 42.6834 26.524 42.7503 26.4794C43.052 26.2772 43.3917 26.2413 43.7392 26.2801C44.1238 26.323 44.3521 26.5797 44.3797 26.9896C44.3925 27.1807 44.3818 27.3738 44.3818 27.5657C44.3867 27.5657 44.3917 27.5657 44.3967 27.5657L44.3954 27.5653ZM43.4965 27.2719C43.4965 27.2719 43.4965 27.2744 43.4965 27.2756C43.4003 27.2756 43.3038 27.2677 43.2084 27.2768C42.9063 27.3061 42.7057 27.4956 42.6847 27.7634C42.6649 28.0164 42.8151 28.2075 43.1147 28.2826C43.3302 28.3367 43.558 28.3479 43.7648 28.2682C43.9274 28.2055 44.1379 28.1572 44.1672 27.9331C44.2415 27.3647 44.1721 27.2888 43.5989 27.2719C43.5646 27.2711 43.5303 27.2719 43.4961 27.2719H43.4965Z" fill="#1E4718"/>
<path d="M23.0791 27.4818C22.8108 27.4818 22.5425 27.4868 22.2747 27.4798C22.1414 27.4761 22.11 27.5252 22.1319 27.6511C22.1905 27.992 22.5314 28.29 22.9032 28.3143C23.1418 28.3296 23.3651 28.2631 23.5871 28.1872C23.6635 28.1612 23.751 28.0865 23.8022 28.2289C23.8566 28.3799 23.7204 28.3717 23.6556 28.3944C23.1406 28.5743 22.6337 28.642 22.1934 28.2132C21.8046 27.8347 21.7864 27.02 22.1541 26.5999C22.4996 26.2057 23.2549 26.1487 23.6796 26.4901C23.9598 26.7154 24.0345 27.0332 24.0552 27.3717C24.0622 27.4839 23.9842 27.4835 23.9041 27.4831C23.6292 27.4818 23.3539 27.4827 23.0791 27.4827V27.4818ZM22.9775 27.2755V27.2784C23.2182 27.2784 23.4584 27.2767 23.699 27.2792C23.8075 27.2804 23.841 27.2466 23.8141 27.1306C23.7184 26.715 23.427 26.4847 22.9808 26.4868C22.5673 26.4884 22.2243 26.7588 22.1405 27.1434C22.1174 27.2491 22.1595 27.2775 22.2561 27.2763C22.4967 27.2734 22.7369 27.2755 22.9775 27.2755V27.2755Z" fill="#1E4718"/>
<path d="M25.9628 27.4834C25.695 27.4834 25.4267 27.4904 25.1588 27.4809C24.9979 27.4751 24.981 27.5337 25.0173 27.6741C25.1357 28.1322 25.5658 28.3922 26.0726 28.2973C26.2344 28.2672 26.3958 28.2312 26.5452 28.1582C26.6269 28.1186 26.6562 28.1735 26.6872 28.2296C26.7161 28.282 26.6967 28.3142 26.6488 28.348C26.2105 28.6597 25.4193 28.5808 25.0445 28.1858C24.6879 27.8099 24.676 27.0174 25.0214 26.6208C25.3801 26.2089 26.0957 26.1367 26.5411 26.4755C26.8329 26.6976 26.9232 27.0162 26.9348 27.3666C26.9385 27.4768 26.8704 27.4826 26.7875 27.4817C26.5126 27.4797 26.2377 27.4809 25.9628 27.4809V27.483V27.4834ZM25.8485 27.2787V27.2766C26.0825 27.2766 26.3161 27.2721 26.5501 27.2783C26.6797 27.2816 26.7169 27.2419 26.6905 27.1086C26.6137 26.7236 26.2744 26.4768 25.8159 26.4871C25.4329 26.4957 25.0784 26.7966 25.0255 27.1495C25.009 27.258 25.0544 27.2807 25.1473 27.2795C25.3809 27.277 25.6149 27.2787 25.8489 27.2787H25.8485Z" fill="#1E4718"/>
<path d="M33.9311 31.9408C33.6629 31.9408 33.3946 31.947 33.1271 31.9384C32.9843 31.9338 32.9686 31.9978 32.9885 32.1142C33.0454 32.4468 33.3678 32.7366 33.7223 32.7667C33.9963 32.7898 34.2563 32.7262 34.5044 32.6206C34.5968 32.5814 34.6262 32.6132 34.6637 32.6804C34.7083 32.7597 34.6654 32.7931 34.5989 32.8183C34.1589 32.9842 33.7206 33.0977 33.2699 32.8447C32.8485 32.6086 32.6339 32.0131 32.7912 31.4914C32.9447 30.9812 33.3777 30.6783 33.894 30.7188C34.511 30.7675 34.875 31.148 34.9134 31.7729C34.9213 31.9004 34.8825 31.945 34.7562 31.9425C34.4813 31.9367 34.2064 31.9408 33.9315 31.9408H33.9311ZM33.816 31.7349C34.0487 31.7349 34.2815 31.7283 34.5139 31.7374C34.674 31.7435 34.6988 31.6841 34.6571 31.5413C34.5432 31.1484 34.244 30.9259 33.8337 30.9429C33.3946 30.961 33.0586 31.2314 32.9889 31.6185C32.9719 31.7122 33.0062 31.739 33.097 31.7374C33.3364 31.7328 33.5762 31.7357 33.8156 31.7353L33.816 31.7349Z" fill="#1E4718"/>
<path d="M8.30632 26.2685C8.9576 26.2528 9.44379 26.7357 9.45163 27.4051C9.45906 28.0366 8.97287 28.5331 8.34016 28.5397C7.70539 28.5463 7.22911 28.0878 7.21095 27.4526C7.19114 26.7774 7.64761 26.2842 8.30632 26.2685V26.2685ZM8.31705 28.3136C8.84575 28.3148 9.22092 27.9404 9.22752 27.4047C9.23371 26.8892 8.85071 26.4893 8.34677 26.4856C7.82178 26.4815 7.43341 26.8645 7.43176 27.3882C7.4301 27.9371 7.78876 28.3119 8.31705 28.3136Z" fill="#1E4718"/>
<path d="M23.9009 31.8498C23.8927 31.2035 24.3487 30.7425 25.0099 30.7284C25.6373 30.7152 26.1263 31.1894 26.1342 31.8184C26.1428 32.4974 25.6827 32.9877 25.0297 32.9959C24.3652 33.0042 23.9092 32.5411 23.9005 31.8498H23.9009ZM25.0029 32.7652C25.5324 32.7665 25.9018 32.4061 25.9072 31.8832C25.913 31.338 25.5485 30.9463 25.0334 30.9451C24.4886 30.9434 24.118 31.3145 24.1176 31.8626C24.1172 32.3896 24.4845 32.7644 25.0029 32.7656V32.7652Z" fill="#1E4718"/>
<path d="M50.7795 27.4068C50.7775 28.073 50.3202 28.5328 49.6553 28.5373C49.0197 28.5418 48.5562 28.066 48.5549 27.4077C48.5537 26.7514 49.0164 26.2652 49.647 26.2595C50.3074 26.2529 50.7816 26.7337 50.7795 27.4068V27.4068ZM49.6487 28.3099C50.2058 28.3053 50.567 27.9455 50.5682 27.3928C50.5694 26.8633 50.172 26.4778 49.6321 26.4852C49.1435 26.4918 48.7642 26.8938 48.7683 27.4002C48.7724 27.9376 49.1365 28.3136 49.6487 28.3095V28.3099Z" fill="#1E4718"/>
<path d="M43.6368 31.8558C43.6384 32.5179 43.17 32.9946 42.5166 32.9954C41.8641 32.9962 41.4101 32.5265 41.4093 31.8501C41.4085 31.1992 41.8707 30.7274 42.515 30.7213C43.1605 30.7147 43.6351 31.1951 43.6364 31.8558H43.6368ZM42.5121 32.7688C43.0561 32.7643 43.4259 32.3866 43.4197 31.8422C43.4139 31.3205 43.0198 30.933 42.5001 30.9379C42.0028 30.9425 41.6202 31.3461 41.6235 31.8633C41.6268 32.3878 42.0053 32.7733 42.5121 32.7692V32.7688Z" fill="#1E4718"/>
<path d="M48.2901 32.9996C47.9937 32.9736 47.7395 32.896 47.4993 32.7722C47.4345 32.7388 47.3548 32.7037 47.4151 32.6009C47.4679 32.5105 47.5257 32.5312 47.6029 32.5716C47.8555 32.7041 48.1209 32.7883 48.4122 32.7718C48.5744 32.7627 48.7238 32.7185 48.8576 32.629C49.0689 32.4874 49.0701 32.2332 48.8675 32.0772C48.7333 31.974 48.5749 31.9682 48.418 31.9538C48.1588 31.9302 47.8955 31.9339 47.6549 31.8101C47.2686 31.6116 47.2389 31.1716 47.5963 30.9191C47.9884 30.6417 48.7069 30.659 49.0957 30.9537C49.1415 30.9884 49.1902 31.0136 49.1444 31.0825C49.0937 31.1589 49.0408 31.1758 48.9575 31.1221C48.65 30.9244 48.3165 30.8959 47.9681 30.9863C47.9219 30.9983 47.8753 31.014 47.834 31.0375C47.685 31.1221 47.5447 31.2303 47.5686 31.4185C47.5913 31.5939 47.7577 31.6372 47.9033 31.6822C48.1625 31.7623 48.4366 31.7164 48.6991 31.7746C49.1275 31.8696 49.3359 32.2121 49.1836 32.5774C49.0883 32.8052 48.8881 32.8956 48.6723 32.9517C48.5406 32.986 48.4007 32.9872 48.2897 33L48.2901 32.9996Z" fill="#1E4718"/>
<path d="M44.7609 31.078C44.9516 30.9761 45.1088 30.8754 45.2785 30.804C45.8604 30.5592 46.5823 30.8535 46.5625 31.6414C46.5525 32.0261 46.5616 32.4111 46.5612 32.7962C46.5612 32.8767 46.5794 32.9675 46.4465 32.9654C46.3136 32.9634 46.3346 32.8697 46.3342 32.7913C46.3326 32.3996 46.3185 32.0067 46.3375 31.6158C46.3627 31.1003 45.8724 30.8576 45.489 30.9633C45.2219 31.0372 45.0164 31.2097 44.7997 31.3661C44.725 31.4202 44.744 31.5019 44.7436 31.575C44.7411 31.9807 44.7423 32.386 44.7415 32.7917C44.7415 32.8717 44.7626 32.965 44.6301 32.965C44.4939 32.965 44.5224 32.8639 44.5224 32.7888C44.5199 32.1837 44.5186 31.5791 44.5224 30.974C44.5228 30.889 44.4782 30.7611 44.6334 30.7545C44.7981 30.7478 44.7316 30.8832 44.751 30.9645C44.7584 30.9955 44.7572 31.0289 44.7613 31.0776L44.7609 31.078Z" fill="#1E4718"/>
<path d="M27.2582 31.0821C27.401 30.9996 27.5153 30.9257 27.6358 30.8646C27.9594 30.7008 28.2913 30.6673 28.6247 30.832C28.931 30.9831 29.047 31.2546 29.0531 31.5757C29.061 31.9806 29.0527 32.3863 29.049 32.7916C29.0482 32.8696 29.0705 32.9641 28.938 32.9666C28.8014 32.9691 28.8278 32.8721 28.8278 32.7949C28.8261 32.4033 28.808 32.0108 28.8327 31.6207C28.8645 31.1139 28.3957 30.858 27.9689 30.969C27.7114 31.0359 27.5029 31.1985 27.2982 31.3619C27.2268 31.4189 27.2425 31.4977 27.2421 31.5708C27.2396 31.9761 27.2409 32.3814 27.2376 32.7867C27.2367 32.8614 27.2681 32.9625 27.1327 32.9658C26.9978 32.9691 27.0205 32.8709 27.0205 32.7937C27.0196 32.189 27.0188 31.5848 27.025 30.9802C27.0258 30.898 26.9738 30.7651 27.1298 30.7577C27.2933 30.7499 27.2248 30.889 27.2479 30.9686C27.2553 30.9942 27.2537 31.0223 27.259 31.0821H27.2582Z" fill="#1E4718"/>
<path d="M13.2672 31.8621C13.2672 31.553 13.2647 31.2438 13.2689 30.9347C13.2697 30.8604 13.2396 30.7568 13.3725 30.7519C13.4983 30.7473 13.4934 30.8402 13.495 30.9215C13.5 31.1415 13.6114 31.0292 13.687 30.9789C13.9635 30.7936 14.2545 30.6863 14.5966 30.7403C14.9998 30.8043 15.2817 31.0965 15.2916 31.5076C15.302 31.9401 15.2962 32.3731 15.2958 32.806C15.2958 32.8778 15.3147 32.9645 15.1926 32.9641C15.0708 32.9641 15.0902 32.8787 15.0898 32.806C15.0869 32.4007 15.0766 31.9954 15.0849 31.5901C15.0956 31.0556 14.5743 30.8534 14.1917 30.9735C13.9598 31.0462 13.7621 31.1852 13.5743 31.3375C13.5004 31.3974 13.4988 31.4754 13.4992 31.5604C13.5 31.9657 13.4992 32.371 13.4942 32.7763C13.4934 32.8564 13.5309 32.969 13.3795 32.9649C13.2272 32.9608 13.2751 32.8456 13.2738 32.7685C13.2689 32.4663 13.2718 32.1638 13.2718 31.8617H13.2676L13.2672 31.8621Z" fill="#1E4718"/>
<path d="M51.9035 26.62C52.0653 26.5305 52.1949 26.4533 52.3286 26.3852C52.7991 26.1471 53.3353 26.2725 53.5883 26.6741C53.6601 26.7884 53.6968 26.9131 53.6981 27.0443C53.7018 27.4769 53.7001 27.9098 53.6981 28.3423C53.6981 28.4142 53.7154 28.5033 53.5961 28.505C53.4777 28.507 53.4896 28.4191 53.4896 28.3461C53.488 27.9614 53.4913 27.5767 53.4884 27.1921C53.4847 26.6415 53.0476 26.3435 52.5321 26.5383C52.4871 26.5552 52.4442 26.5771 52.4004 26.5969C52.0401 26.7587 51.8164 26.9853 51.8816 27.4327C51.9258 27.7352 51.8891 28.0497 51.8883 28.3584C51.8883 28.4369 51.8882 28.5107 51.7727 28.5066C51.6637 28.5025 51.6765 28.4261 51.6765 28.3613C51.674 27.7158 51.674 27.0703 51.6732 26.4244C51.6732 26.3497 51.6819 26.2886 51.7822 26.2907C51.8808 26.2923 51.8899 26.3509 51.8887 26.4273C51.8878 26.4805 51.8961 26.5342 51.9027 26.6196L51.9035 26.62Z" fill="#1E4718"/>
<path d="M30.034 31.8542C30.034 31.5385 30.034 31.2223 30.034 30.9066C30.034 30.829 30.032 30.7506 30.1459 30.751C30.2503 30.7514 30.2499 30.8278 30.2478 30.8942C30.2416 31.0824 30.3056 31.0804 30.4447 30.9892C30.7237 30.8063 31.0159 30.6705 31.3713 30.7399C31.7559 30.815 32.0147 31.0667 32.049 31.4584C32.0894 31.9174 32.0634 32.378 32.0646 32.8382C32.0646 32.9191 32.0403 32.9649 31.9466 32.9657C31.8451 32.9669 31.8385 32.9079 31.8385 32.8332C31.8385 32.4209 31.8203 32.0082 31.8422 31.5971C31.8694 31.0886 31.363 30.8538 30.9812 30.9664C30.7464 31.0358 30.5499 31.1749 30.3568 31.3181C30.2643 31.3866 30.2499 31.4852 30.2503 31.593C30.2519 31.9912 30.2511 32.3895 30.2482 32.7882C30.2478 32.8642 30.2759 32.9657 30.1397 32.9624C30.0031 32.9591 30.0386 32.8547 30.0373 32.7816C30.0336 32.4725 30.0357 32.1634 30.0357 31.8542H30.0332H30.034Z" fill="#1E4718"/>
<path d="M38.9317 28.1815C38.8352 28.2422 38.7345 28.3095 38.63 28.3701C38.2829 28.572 37.9218 28.6004 37.5747 28.3924C37.2746 28.2129 37.1905 27.9128 37.1991 27.5752C37.2078 27.2252 37.1999 26.8748 37.2074 26.5248C37.209 26.444 37.1488 26.3073 37.3159 26.3148C37.474 26.3218 37.4154 26.4543 37.4166 26.5352C37.4228 26.8715 37.4245 27.2083 37.4166 27.5447C37.4104 27.8262 37.4451 28.0825 37.7286 28.2286C38.0324 28.385 38.3135 28.3136 38.5846 28.144C38.5962 28.1365 38.6049 28.1242 38.6168 28.1188C38.9251 27.9752 39.011 27.7341 38.9792 27.4035C38.9491 27.0907 38.9718 26.7725 38.9743 26.4563C38.9747 26.3862 38.9516 26.2937 39.075 26.297C39.1909 26.2999 39.1777 26.3862 39.1777 26.4596C39.1785 27.0775 39.1798 27.6957 39.1761 28.3136C39.1757 28.3838 39.2202 28.4952 39.0844 28.5022C38.9305 28.5101 38.9879 28.3883 38.9734 28.3115C38.966 28.2732 38.9854 28.2294 38.9313 28.1811L38.9317 28.1815Z" fill="#1E4718"/>
<path d="M5.84072 27.5118C5.84072 27.2505 5.83123 26.9889 5.84444 26.7284C5.85269 26.5687 5.81348 26.4944 5.64179 26.5192C5.58524 26.5274 5.51425 26.5365 5.47381 26.4721C5.41438 26.3772 5.48454 26.2773 5.61991 26.2938C5.81059 26.317 5.86383 26.2402 5.84774 26.0644C5.82751 25.8436 5.84774 25.6269 5.94638 25.4213C6.09248 25.1172 6.41193 24.9669 6.73468 25.0487C6.81558 25.0693 6.83167 25.1077 6.82383 25.1791C6.81516 25.2608 6.77183 25.2719 6.69671 25.269C6.24808 25.2509 6.07185 25.423 6.06978 25.872C6.06868 26.1519 6.21011 26.2922 6.49406 26.293C6.54194 26.293 6.59023 26.2959 6.63811 26.293C6.70455 26.2897 6.74294 26.3141 6.74335 26.3851C6.74376 26.4519 6.7351 26.5097 6.6476 26.5109C6.51718 26.5122 6.38593 26.5233 6.25633 26.5155C6.11064 26.5064 6.06483 26.5667 6.06648 26.7074C6.07226 27.1952 6.06896 27.6831 6.06854 28.1709C6.06854 28.2328 6.06731 28.2947 6.06607 28.3562C6.06442 28.4338 6.06731 28.5089 5.95216 28.5098C5.83412 28.5106 5.84196 28.4342 5.84237 28.3571C5.84237 28.0752 5.84237 27.7937 5.84237 27.5118C5.84155 27.5118 5.84072 27.5118 5.8399 27.5118H5.84072Z" fill="#1E4718"/>
<path d="M36.7677 32.7751C36.9835 32.7945 37.1594 32.7206 37.3278 32.6232C37.3959 32.5836 37.4565 32.5398 37.5118 32.6442C37.5642 32.7437 37.4982 32.78 37.433 32.8217C37.0232 33.083 36.3896 33.0396 36.0235 32.7251C35.6323 32.3888 35.5056 31.8436 35.7115 31.3801C35.9088 30.9356 36.4441 30.6582 36.9559 30.7263C37.1292 30.7494 37.2898 30.8035 37.4421 30.8836C37.5094 30.9186 37.6109 30.9409 37.5519 31.0606C37.4945 31.1766 37.4214 31.1225 37.348 31.0837C37.09 30.9475 36.8193 30.8873 36.5333 30.9723C36.0553 31.1143 35.785 31.5084 35.8473 31.9616C35.9125 32.4383 36.2782 32.7561 36.7685 32.7743L36.7677 32.7751Z" fill="#1E4718"/>
<path d="M41.0733 28.5276C40.5822 28.5136 40.2128 28.2899 40.0184 27.8392C39.8422 27.4302 39.8958 27.0175 40.1868 26.6778C40.5145 26.2952 40.9524 26.1896 41.4398 26.3022C41.5459 26.3266 41.6499 26.3699 41.7469 26.4194C41.8092 26.4512 41.9219 26.4636 41.8645 26.5899C41.8076 26.7158 41.7304 26.6696 41.6487 26.625C41.3626 26.4681 41.063 26.4281 40.7555 26.5457C40.2669 26.7323 40.0246 27.2796 40.2169 27.7447C40.4175 28.2297 40.9957 28.4571 41.4959 28.2453C41.5591 28.2185 41.6194 28.1847 41.6784 28.1504C41.7423 28.1133 41.7865 28.1112 41.8241 28.19C41.8575 28.2606 41.848 28.3056 41.7824 28.3436C41.5632 28.4699 41.3313 28.545 41.0733 28.5281V28.5276Z" fill="#1E4718"/>
<path d="M38.755 31.6979C38.755 31.856 38.7508 32.014 38.7566 32.1717C38.7595 32.253 38.7698 32.3364 38.7934 32.414C38.8862 32.7231 39.0707 32.8164 39.3695 32.7033C39.4492 32.6732 39.5032 32.6459 39.5486 32.7491C39.5965 32.8576 39.5181 32.8849 39.4541 32.9175C39.1413 33.0772 38.7508 32.9282 38.6151 32.5964C38.5602 32.4627 38.5276 32.3232 38.5288 32.1758C38.5313 31.8461 38.5205 31.5163 38.53 31.1873C38.5346 31.0301 38.4929 30.9517 38.3253 30.9777C38.3051 30.981 38.2841 30.9764 38.2638 30.9764C38.185 30.9777 38.1301 30.9537 38.1293 30.8613C38.1285 30.7697 38.1817 30.7333 38.2605 30.7482C38.5325 30.7998 38.5503 30.6421 38.5284 30.4391C38.5189 30.3508 38.5263 30.2608 38.5276 30.1716C38.5288 30.0944 38.5734 30.0623 38.6464 30.0623C38.7203 30.0623 38.7393 30.113 38.7401 30.172C38.7422 30.3025 38.748 30.4333 38.7372 30.5629C38.7269 30.6941 38.7657 30.7548 38.9064 30.747C39.0431 30.7395 39.1809 30.7515 39.3183 30.7503C39.3997 30.7499 39.4228 30.7878 39.424 30.8638C39.4257 30.943 39.3964 30.9764 39.3171 30.9756C39.1801 30.974 39.0422 30.9835 38.9056 30.9744C38.7768 30.9657 38.7352 31.0198 38.7385 31.1411C38.7438 31.3264 38.7397 31.5117 38.7397 31.6971H38.7546L38.755 31.6979Z" fill="#1E4718"/>
<path d="M45.6633 27.2044C45.6633 27.0463 45.6547 26.8878 45.6658 26.7305C45.6769 26.5758 45.6353 26.4953 45.464 26.5151C45.3777 26.525 45.2749 26.5386 45.2816 26.3938C45.2877 26.2633 45.3835 26.2786 45.4607 26.2906C45.632 26.3174 45.6798 26.2411 45.6675 26.0842C45.6584 25.9682 45.6675 25.8506 45.6658 25.7338C45.6646 25.6529 45.691 25.6022 45.7822 25.6017C45.8796 25.6017 45.8928 25.6657 45.8928 25.7396C45.8928 25.87 45.8945 26.0004 45.8887 26.1309C45.8837 26.2431 45.9238 26.2959 46.043 26.2902C46.1735 26.284 46.3039 26.2918 46.4347 26.2914C46.5115 26.2914 46.5676 26.3042 46.5676 26.4024C46.5676 26.4969 46.5189 26.5188 46.4388 26.518C46.315 26.5168 46.1912 26.5229 46.0678 26.518C45.9502 26.5126 45.8907 26.5473 45.8932 26.6794C45.9002 27.0504 45.8969 27.4215 45.899 27.7925C45.9002 27.9679 45.9782 28.1062 46.1058 28.2246C46.237 28.3468 46.3736 28.3018 46.5082 28.2457C46.6027 28.206 46.6601 28.2184 46.7005 28.3191C46.7455 28.431 46.646 28.4322 46.5965 28.4553C46.2098 28.6365 45.7958 28.4157 45.7005 27.9844C45.6431 27.726 45.6745 27.464 45.6629 27.2039L45.6633 27.2044Z" fill="#1E4718"/>
<path d="M28.0675 26.7293C28.3065 26.5333 28.5405 26.3657 28.8278 26.298C28.8864 26.284 28.9598 26.2633 28.9953 26.3273C29.0139 26.3612 28.9986 26.4218 28.9825 26.4643C28.9665 26.5077 28.9132 26.5007 28.8744 26.5093C28.5413 26.5828 28.3156 26.8176 28.0791 27.0364C28.0201 27.0913 28.0353 27.1627 28.0349 27.2295C28.0333 27.5936 28.0349 27.9576 28.0316 28.3216C28.0308 28.3967 28.0597 28.4991 27.9272 28.5036C27.7815 28.5082 27.8083 28.3996 27.8083 28.3154C27.8067 27.6972 27.8071 27.0793 27.8083 26.461C27.8083 26.3835 27.7799 26.2906 27.9177 26.2902C28.0498 26.2898 28.0329 26.3748 28.0349 26.4573C28.037 26.5378 28.0164 26.6208 28.0679 26.7293H28.0675Z" fill="#1E4718"/>
<path d="M20.205 27.3786C20.205 27.0839 20.2021 26.7888 20.207 26.4941C20.2083 26.4169 20.1579 26.2981 20.3073 26.2939C20.458 26.2898 20.4088 26.405 20.415 26.4859C20.4159 26.4995 20.4134 26.5131 20.413 26.5267C20.4126 26.5866 20.3923 26.6604 20.46 26.6902C20.5178 26.7153 20.5591 26.6547 20.5979 26.6212C20.7716 26.4702 20.964 26.3558 21.191 26.3088C21.2652 26.2935 21.3598 26.2452 21.3874 26.3732C21.4138 26.4953 21.3201 26.4987 21.2397 26.518C20.926 26.5944 20.706 26.8152 20.4757 27.0191C20.4055 27.0814 20.4167 27.1685 20.4163 27.2502C20.4146 27.6138 20.415 27.977 20.4121 28.3406C20.4117 28.4116 20.4336 28.5008 20.3123 28.5024C20.1951 28.5041 20.2041 28.4207 20.2037 28.346C20.2025 28.0237 20.2033 27.7013 20.2033 27.379H20.205V27.3786Z" fill="#1E4718"/>
<path d="M10.2542 27.4101C10.2542 27.0944 10.2542 26.779 10.2542 26.4633C10.2542 26.3795 10.2484 26.292 10.3739 26.2937C10.5068 26.2953 10.4787 26.3927 10.482 26.4703C10.4849 26.5434 10.4494 26.64 10.5221 26.6788C10.6013 26.7213 10.6508 26.6255 10.7074 26.5826C10.884 26.4485 11.0697 26.3329 11.2918 26.2957C11.345 26.2867 11.4243 26.2598 11.4416 26.3527C11.4573 26.4369 11.4329 26.4914 11.3331 26.5104C11.0219 26.5706 10.8031 26.784 10.5761 26.9829C10.4944 27.0547 10.4849 27.1439 10.4857 27.2434C10.4878 27.607 10.4857 27.9706 10.4849 28.3342C10.4849 28.4159 10.4977 28.5067 10.3702 28.508C10.2398 28.5092 10.2579 28.418 10.2579 28.3363C10.2579 28.0275 10.2579 27.7188 10.2579 27.4101C10.2567 27.4101 10.255 27.4101 10.2538 27.4101H10.2542Z" fill="#1E4718"/>
<path d="M40.3595 31.8684C40.3595 31.5531 40.3583 31.2382 40.3603 30.9228C40.3607 30.844 40.3442 30.7466 40.4746 30.7499C40.5894 30.7524 40.5803 30.8399 40.5803 30.9125C40.5811 31.5498 40.5791 32.187 40.5778 32.8247C40.5778 32.8948 40.5815 32.9629 40.4775 32.9658C40.3591 32.9695 40.3673 32.8907 40.3669 32.8144C40.3669 32.499 40.3669 32.1837 40.3669 31.8684C40.3645 31.8684 40.362 31.8684 40.3595 31.8684V31.8684Z" fill="#1E4718"/>
<path d="M47.506 27.3791C47.506 27.0708 47.506 26.7629 47.506 26.4546C47.506 26.37 47.499 26.2862 47.627 26.2899C47.7537 26.2936 47.7211 26.3853 47.7211 26.4517C47.7231 27.0819 47.7235 27.7118 47.7207 28.342C47.7207 28.4076 47.7557 28.5025 47.6294 28.5079C47.506 28.5129 47.5032 28.432 47.5036 28.3449C47.5036 28.0229 47.5036 27.701 47.5036 27.3791H47.506V27.3791Z" fill="#1E4718"/>
<path d="M43.1942 4.02203C43.1897 4.1702 43.1286 4.26059 42.9858 4.26183C42.8455 4.26307 42.7745 4.18217 42.772 4.04143C42.7695 3.89904 42.8546 3.81567 42.9809 3.80866C43.1183 3.80081 43.1823 3.90193 43.1942 4.02162V4.02203Z" fill="#1E4718"/>
<path d="M40.6034 29.9731C40.605 30.0342 40.5629 30.0846 40.4837 30.0899C40.3949 30.0957 40.3421 30.0491 40.3392 29.9554C40.3363 29.8588 40.3978 29.8147 40.4795 29.813C40.56 29.8118 40.5959 29.8745 40.6034 29.9731Z" fill="#1E4718"/>
<path d="M47.6096 25.3501C47.6996 25.3555 47.7446 25.4132 47.747 25.495C47.7491 25.5688 47.7124 25.627 47.6249 25.6233C47.5382 25.6196 47.4829 25.5754 47.4821 25.4855C47.4812 25.4046 47.5345 25.3658 47.61 25.3501H47.6096Z" fill="#1E4718"/>
</g>
<defs>
<filter id="filter0_d_507_454" x="0" y="0" width="59.2719" height="41" filterUnits="userSpaceOnUse" color-interpolation-filters="sRGB">
<feFlood flood-opacity="0" result="BackgroundImageFix"/>
<feColorMatrix in="SourceAlpha" type="matrix" values="0 0 0 0 0 0 0 0 0 0 0 0 0 0 0 0 0 0 127 0" result="hardAlpha"/>
<feOffset dy="4"/>
<feGaussianBlur stdDeviation="2"/>
<feComposite in2="hardAlpha" operator="out"/>
<feColorMatrix type="matrix" values="0 0 0 0 0 0 0 0 0 0 0 0 0 0 0 0 0 0 0.25 0"/>
<feBlend mode="normal" in2="BackgroundImageFix" result="effect1_dropShadow_507_454"/>
<feBlend mode="normal" in="SourceGraphic" in2="effect1_dropShadow_507_454" result="shape"/>
</filter>
</defs>
</svg>
