<svg width="39" height="41" viewBox="0 0 39 41" fill="none" xmlns="http://www.w3.org/2000/svg">
<g filter="url(#filter0_d_507_453)">
<path fill-rule="evenodd" clip-rule="evenodd" d="M18.921 0.140058C18.7519 0.312477 18.409 0.427455 17.51 0.613159C16.6888 0.782836 16.1747 0.956106 15.4608 1.30392C15.173 1.44415 14.9112 1.55889 14.8791 1.55889C14.8469 1.55889 14.6707 1.49506 14.4873 1.41706C14.2216 1.30397 14.0856 1.27518 13.8162 1.27494C13.3817 1.27461 13.1622 1.2115 12.9512 1.02622C12.8128 0.904621 12.7447 0.878524 12.5844 0.885521C12.3213 0.896962 12.0204 1.00769 11.7881 1.17854C11.5675 1.3408 11.3336 1.39361 10.5472 1.45871C10.1097 1.49492 9.80732 1.55591 9.225 1.72525C8.80982 1.846 8.42687 1.96698 8.37402 1.99412C8.25743 2.05402 8.06521 2.22516 8.06521 2.26908C8.06521 2.28662 8.35733 2.3156 8.71437 2.33352C9.84556 2.3903 10.7897 2.54277 11.0105 2.70431C11.0776 2.75339 11.1033 2.86761 11.1327 3.24644C11.1728 3.76403 11.2087 3.85111 11.4917 4.11629C11.9208 4.51847 12.0826 4.9668 11.9879 5.49143C11.9582 5.65572 11.8307 6.11038 11.7045 6.5017C11.4408 7.32001 11.3506 7.77066 11.3945 8.0512C11.414 8.17577 11.5214 8.39192 11.6858 8.63729C11.977 9.07196 12.1709 9.50856 12.3533 10.1397C12.4581 10.5024 12.4776 10.6697 12.4858 11.2743C12.4941 11.8818 12.5141 12.0512 12.6251 12.4562C12.797 13.0831 12.8366 13.7702 12.7235 14.1616C12.679 14.3157 12.5381 14.6127 12.4104 14.8215C12.0846 15.3543 12.0952 15.463 12.5309 16.0515C12.6183 16.1695 12.6964 16.8624 12.6975 17.5289L12.6983 18.0157L12.9148 18.391C13.1509 18.8003 13.188 18.9517 13.3552 20.186C13.4062 20.5631 13.493 21.0155 13.5481 21.1915C13.6672 21.5722 13.8802 21.8443 14.0287 21.8054C14.1216 21.7811 14.1263 21.757 14.1002 21.4436C14.0848 21.259 14.0502 20.9909 14.0233 20.8479C13.9424 20.4178 13.954 18.9411 14.0413 18.5401C14.1339 18.115 14.1355 17.4857 14.0457 16.8294C13.9092 15.8311 13.9596 15.4793 14.405 14.3229C14.6189 13.7673 14.6509 13.6399 14.6541 13.3309C14.6574 13.0089 14.6405 12.9415 14.4699 12.5981C14.2835 12.2225 14.2821 12.216 14.2835 11.6762C14.2847 11.1796 14.2974 11.102 14.4294 10.7811C14.6093 10.3439 14.5999 10.2787 14.2094 9.2527C13.9052 8.45324 13.6714 7.62263 13.6181 7.15204C13.5723 6.7465 13.6574 6.43234 13.8945 6.13246C14.0594 5.92388 14.0867 5.85703 14.0838 5.66943C14.082 5.54887 14.0527 5.39905 14.0187 5.33655C13.9792 5.26375 13.9497 4.97574 13.9367 4.53568L13.9164 3.84856L14.3593 3.67231C14.6029 3.57539 14.8314 3.47753 14.867 3.45484C14.9147 3.42458 14.9384 3.24304 14.9564 2.77225L14.9809 2.13089L15.2293 2.00083L15.4776 1.87077L15.9909 1.93053C16.2732 1.96339 16.6031 2.00201 16.724 2.01643C16.9158 2.03927 16.9639 2.06924 17.1001 2.25102C17.186 2.36567 17.3477 2.51303 17.4593 2.57851C17.6578 2.69481 17.6624 2.70323 17.6624 2.94618C17.6624 3.08291 17.6097 3.37456 17.5452 3.59421C17.4808 3.8139 17.4276 4.08499 17.427 4.19661C17.4261 4.38076 17.4485 4.42023 17.6678 4.6221L17.9096 4.84464L17.8708 5.1283C17.8251 5.46274 17.8277 5.8784 17.8823 6.97621C17.9208 7.75099 17.9278 7.79179 18.0537 7.97333L18.1849 8.16263L18.146 8.74929C18.0927 9.55272 18.1483 10.2363 18.3257 10.9573C18.558 11.9014 18.5454 12.0489 18.1448 13.0732C17.6806 14.2603 17.6111 14.5058 17.5834 15.0565C17.5624 15.4743 17.5744 15.5786 17.6868 15.9547C17.7827 16.2756 17.8122 16.47 17.8067 16.7454C17.801 17.0278 17.8283 17.1994 17.9266 17.5019C18.0432 17.8605 18.0542 17.9601 18.0585 18.6968C18.0611 19.1388 18.0528 19.8409 18.0401 20.2569C18.0127 21.1551 18.0556 21.3456 18.4331 22.0016C18.7558 22.5623 18.7788 22.8172 18.5596 23.4009C18.4053 23.8117 18.3561 24.2552 18.4539 24.3531C18.5243 24.4235 18.7588 24.2899 18.9305 24.0816C19.1354 23.8331 19.1854 23.574 19.2076 22.6444C19.2277 21.809 19.2718 21.501 19.3884 21.3845C19.4805 21.2923 19.651 20.8136 19.6805 20.564C19.7078 20.334 19.641 20.1403 19.441 19.8689C19.2108 19.5564 19.1566 18.4456 19.3183 17.3494C19.4504 16.4537 19.4828 15.6402 19.4155 14.9129C19.3433 14.1328 19.3883 13.8193 19.6462 13.3072C19.7509 13.0992 19.869 12.804 19.9087 12.6513C19.9953 12.3181 20.092 12.1742 20.4066 11.9108C20.5375 11.8012 20.6783 11.6464 20.7194 11.5669C20.8361 11.3413 20.7815 10.8877 20.5732 10.3524C20.3352 9.74074 20.2642 9.41103 20.2634 8.91353C20.2628 8.54127 20.2856 8.42431 20.4559 7.92927L20.6492 7.36748L20.4529 5.98784C20.2028 4.23013 20.1799 3.89607 20.282 3.49843C20.3799 3.1177 20.5254 2.86647 20.8967 2.43762C21.2528 2.02622 21.3973 1.84066 21.3973 1.79461C21.3973 1.77527 21.3327 1.73268 21.2537 1.69996C21.083 1.62928 21.0415 1.55927 20.9998 1.27149C20.9691 1.05978 20.9631 1.05331 20.7219 0.976009C20.4289 0.882117 19.6441 0.287089 19.585 0.114056C19.55 0.0115118 19.5186 -0.00111114 19.3014 7.07835e-05C19.0945 0.00115815 19.0363 0.0226219 18.921 0.140058ZM24.7261 0.94892C24.6767 1.00352 24.4941 1.13122 24.3203 1.23277C24.032 1.40108 23.9191 1.50367 23.7848 1.71901C23.7544 1.7678 23.5669 1.82865 23.2596 1.88954C22.4946 2.04107 21.8334 2.28237 21.6355 2.48221C21.4737 2.64574 21.4713 2.65349 21.5599 2.71963C21.8345 2.92434 22.6143 3.11699 23.1731 3.11822C23.4701 3.11884 23.6467 3.15028 23.9727 3.26043C24.5726 3.46325 24.5817 3.47483 24.5455 3.99365C24.5292 4.22767 24.503 4.81788 24.4874 5.30526L24.459 6.19132L24.2999 6.28961C24.0667 6.43376 23.9502 6.60457 23.9509 6.80119C23.952 7.08273 23.9965 7.18485 24.1181 7.18485C24.2732 7.18485 24.2928 7.29524 24.236 7.84833C24.2089 8.11299 24.1867 8.48704 24.1867 8.67951V9.02955L24.3715 9.15913C24.7852 9.44908 24.8772 9.77931 24.7303 10.447C24.6289 10.9081 24.6425 11.2319 24.7798 11.6324C25.0171 12.3243 25.0375 12.5189 25.0108 13.8371C24.9837 15.1733 24.9472 15.4828 24.7698 15.8793C24.6383 16.1731 24.6398 16.3932 24.7758 16.7936L24.8521 17.0178L24.6635 17.3304C24.5598 17.5024 24.4517 17.7549 24.4234 17.8915C24.3709 18.1443 24.3746 18.1743 24.567 19.0475C24.6019 19.2059 24.6119 19.4493 24.5931 19.6857C24.4994 20.8696 24.497 20.802 24.6437 21.0805C24.7179 21.2214 24.803 21.3449 24.8327 21.3548C24.9147 21.3821 24.9792 21.1099 25.007 20.6199C25.0367 20.0948 25.1433 19.8358 25.6148 19.1428C25.8448 18.8047 25.9317 18.6316 25.9588 18.4572C26.0134 18.1058 25.9946 17.2179 25.9126 16.2825C25.833 15.3732 25.8422 15.2446 26.0174 14.8225C26.1013 14.6203 26.1261 14.4942 26.1057 14.3734C26.0901 14.281 26.0453 14.026 26.0061 13.8067C25.9181 13.3132 25.9676 13.0755 26.2939 12.4258C26.557 11.902 26.6439 11.6321 26.6445 11.3365C26.6453 11.004 26.5771 10.879 26.2048 10.5316L25.865 10.2145L25.8709 9.86975C25.8753 9.61332 25.9094 9.44634 26.0039 9.21776C26.0738 9.04874 26.1427 8.80408 26.157 8.67407C26.1815 8.45173 26.1712 8.42227 25.9845 8.17766L25.7859 7.91764L25.8143 7.52231C25.895 6.39958 26.2653 5.39054 27.0658 4.11274C27.2504 3.81806 27.4015 3.54769 27.4015 3.5119C27.4015 3.47611 27.3508 3.34648 27.2887 3.22384C27.2268 3.1012 27.1073 2.77745 27.0233 2.50443C26.8393 1.90656 26.6997 1.61978 26.4661 1.36051C26.2344 1.10323 25.9969 1.00461 25.4075 0.920837C24.7928 0.833469 24.8321 0.831815 24.7261 0.94892ZM17.1711 24.8866C17.1552 24.9499 17.1634 25.3489 17.1892 25.7732C17.248 26.7401 17.2498 27.3586 17.1938 27.3932C17.1701 27.4079 16.7214 27.0706 16.1967 26.6438C15.6719 26.217 15.1525 25.82 15.0424 25.7616L14.8422 25.6553L14.5858 25.794C14.4422 25.8717 14.3321 25.9634 14.3354 26.0024C14.3387 26.0407 14.376 26.236 14.4181 26.4364C14.5092 26.8688 14.5148 27.2887 14.4392 28.0139C14.3727 28.6515 14.4164 28.87 14.6428 29.0311C14.7618 29.1159 14.7957 29.1228 14.8287 29.0694C14.906 28.9443 14.9302 28.5087 14.9135 27.5415C14.9043 27.0063 14.9036 26.5684 14.912 26.5684C14.9205 26.5684 15.1438 26.7159 15.4085 26.8961C15.989 27.2915 17.1249 28.1954 17.1826 28.3078C17.2054 28.3522 17.2366 28.5453 17.2518 28.7369C17.2671 28.9285 17.2895 29.0951 17.3015 29.1071C17.351 29.1566 17.5134 29.0193 17.5857 28.8669C17.714 28.5966 17.7263 28.3153 17.6626 27.1202C17.6063 26.0657 17.6081 25.945 17.6857 25.557L17.7698 25.1366L17.657 25.0511C17.595 25.0042 17.4668 24.922 17.3721 24.8687L17.2 24.7716L17.1711 24.8866ZM11.2031 24.9492C11.3089 25.3137 11.3306 25.4747 11.3018 25.6834L11.2693 25.9201L10.7901 25.882C9.95539 25.8156 9.90092 25.8257 9.45004 26.131C9.40622 26.1607 9.41922 26.3221 9.50592 26.8262C9.69163 27.9055 10.024 28.4157 10.8836 28.941L11.29 29.1894L11.2614 29.3917C11.1677 30.0544 11.1659 30.0035 11.2835 30.0342C11.3433 30.0499 11.4805 30.0506 11.5884 30.0358L11.7845 30.0089L11.7805 29.4926L11.7764 28.9764L12.4345 28.6334C12.7965 28.4448 13.1307 28.238 13.1773 28.174C13.2291 28.1028 13.2829 27.8926 13.3159 27.6321C13.3455 27.3981 13.4104 27.0065 13.46 26.7618C13.5638 26.2507 13.5579 26.2351 13.1826 26.0151C13.0041 25.9105 12.9343 25.8983 12.568 25.9078C12.3407 25.9136 12.0749 25.9157 11.9774 25.9125L11.8001 25.9065V25.3865V24.8664H11.4896C11.2163 24.8664 11.182 24.8763 11.2031 24.9492ZM31.3859 25.5911C31.3962 25.6216 31.2538 25.728 31.0695 25.8276C30.8853 25.9273 30.718 26.0247 30.6977 26.0441C30.6775 26.0635 30.7042 26.1345 30.7572 26.2019C30.8102 26.2692 30.8664 26.3886 30.8821 26.467C30.9087 26.6001 30.8331 28.0126 30.7767 28.4359C30.753 28.6138 30.7613 28.6302 30.9178 28.7138C31.0092 28.7626 31.1315 28.8531 31.1894 28.9147C31.252 28.9814 31.3488 29.0268 31.4283 29.0268H31.5619L31.5621 28.3295C31.5624 27.507 31.6048 27.3067 31.7998 27.2058C32.1379 27.031 32.5588 27.4379 33.1947 28.554C33.3206 28.7751 33.5186 29.1017 33.6348 29.2799C33.8439 29.6004 33.8479 29.6035 34.0208 29.5759C34.1169 29.5605 34.3156 29.493 34.4624 29.4258C34.6841 29.3243 34.7216 29.2903 34.6846 29.2243C34.6601 29.1807 34.4178 28.9286 34.1462 28.6641C33.7872 28.3146 33.5785 28.0629 33.3817 27.7422C33.2329 27.4997 33.0602 27.2467 32.998 27.18L32.8849 27.0589L33.1446 26.9512C33.5057 26.8016 33.7469 26.4892 33.7919 26.1134C33.8048 26.0052 33.7729 25.9582 33.6082 25.8422C33.3414 25.6542 33.058 25.6365 32.3277 25.7622L31.7461 25.8623L31.624 25.7662C31.5568 25.7134 31.5273 25.6701 31.5583 25.6701C31.6444 25.6701 31.5762 25.5904 31.4653 25.5614C31.4028 25.545 31.3741 25.5558 31.3859 25.5911ZM20.6237 25.6482C20.5232 25.6856 20.1828 25.77 19.8672 25.8359C19.2215 25.9706 18.7971 26.1223 18.7971 26.2184C18.7971 26.3946 19.2652 27.2579 19.4088 27.3467C19.43 27.3598 19.5984 27.3177 19.7831 27.2531C20.1469 27.126 20.529 27.1016 20.7809 27.1894C20.9325 27.2423 20.9345 27.2469 20.9051 27.4688C20.8406 27.9547 20.5348 28.6423 20.2368 28.9714C20.0595 29.1673 20.0331 29.1805 19.8761 29.151C19.7829 29.1335 19.574 29.0335 19.4118 28.9287C19.1805 28.7792 19.0801 28.7412 18.9456 28.7525C18.832 28.762 18.7693 28.7929 18.7596 28.8442C18.7406 28.9446 19.2324 29.4767 19.5037 29.6494C19.8841 29.8916 20.3032 29.8037 20.77 29.3837C21.2031 28.994 21.8066 28.0391 21.9926 27.4492L22.0763 27.1836L21.9614 27.0605C21.6935 26.7735 21.2248 26.6771 20.7118 26.8033C20.4429 26.8694 20.184 26.8628 20.0353 26.7858C19.927 26.7298 19.6953 26.4081 19.6953 26.3138C19.6953 26.2978 20.0943 26.2845 20.5818 26.2842C21.0694 26.2839 21.548 26.2705 21.6455 26.2544C21.9367 26.2063 21.875 26.0939 21.4205 25.8449C20.9364 25.5796 20.8593 25.5606 20.6237 25.6482ZM7.47869 25.9065C7.34121 26.0365 7.07126 26.3588 6.87874 26.6227C6.68623 26.8866 6.44677 27.2078 6.34664 27.3365L6.16458 27.5705L6.00128 27.4123C5.91146 27.3252 5.70618 27.0653 5.54511 26.8347C5.13512 26.2477 4.94488 26.0221 4.72116 25.8576L4.52738 25.7151L4.26338 25.8318C4.11819 25.8961 3.99967 25.9657 4 25.9867C4.00033 26.0076 4.0426 26.2268 4.09394 26.4739C4.20726 27.0193 4.217 27.7667 4.11758 28.2864C4.07858 28.4902 4.04666 28.6853 4.04666 28.72C4.04666 28.8231 4.2735 29.0615 4.42025 29.1127L4.55659 29.1602L4.58694 28.1834C4.60363 27.6462 4.62855 27.1354 4.64231 27.0484C4.66694 26.8924 4.66864 26.8914 4.76385 26.9775C4.81695 27.0255 4.97882 27.235 5.12349 27.443C5.26821 27.6511 5.5009 27.9649 5.64056 28.1404C5.89094 28.455 5.8977 28.4594 6.11706 28.4562C6.4888 28.4506 6.52488 28.4202 6.51112 28.1237C6.495 27.7754 6.54029 27.6773 6.99779 27.0696C7.38811 26.5513 7.61924 26.2958 7.66052 26.3371C7.67219 26.3488 7.68567 27.1502 7.69049 28.1181C7.6989 29.8132 7.70254 29.8778 7.7892 29.8778C7.9507 29.8778 8.17985 29.7506 8.36381 29.559L8.54417 29.371L8.49396 28.9035C8.46635 28.6463 8.44016 28.0316 8.43581 27.5376C8.42891 26.7582 8.44016 26.6018 8.52081 26.3557L8.61381 26.072L8.24599 25.8711C8.04374 25.7606 7.84456 25.6701 7.80343 25.6701C7.76226 25.6701 7.61612 25.7765 7.47869 25.9065ZM27.4701 25.7909C27.3414 25.8573 27.1873 25.9484 27.1278 25.9934L27.0195 26.0752L27.1246 26.31C27.2835 26.6652 27.2962 27.2188 27.1629 27.9889L27.055 28.6128L27.1692 28.7032C27.2319 28.7529 27.3684 28.8396 27.4724 28.8957C27.653 28.9932 27.7111 28.9972 28.768 28.9847C29.3765 28.9775 29.9222 28.9535 29.9806 28.9313C30.1576 28.864 30.2381 28.6994 30.2381 28.4045C30.2381 27.9983 30.2036 28.0015 29.8194 28.443C29.6306 28.66 28.5877 28.7513 28.2386 28.5813C27.9195 28.426 27.8162 28.0099 27.99 27.5795C28.1211 27.2546 28.3695 27.2014 28.8434 27.3967C28.9995 27.461 29.143 27.5136 29.1626 27.5137C29.1821 27.5139 29.198 27.3757 29.198 27.2066C29.198 26.8619 29.1902 26.8563 28.8671 26.9703C28.3581 27.1498 27.9026 27.001 27.9026 26.6551C27.9026 26.3235 28.2499 26.0723 28.6992 26.0788C29.1138 26.0848 29.529 26.2564 29.529 26.4219C29.529 26.5339 29.6186 26.6076 29.7989 26.6437C29.9272 26.6693 29.9444 26.6586 29.9684 26.5376C30.009 26.3332 29.9114 26.0112 29.7767 25.9053C29.6718 25.8229 29.5831 25.8119 29.0143 25.8114C28.5974 25.811 28.2791 25.7863 28.1106 25.7411C27.7662 25.6486 27.7424 25.6504 27.4701 25.7909ZM25.3686 25.7737C25.1476 25.7975 24.4986 25.8055 23.9266 25.7914C22.5265 25.757 22.3949 25.8003 22.3526 26.3091C22.3328 26.5487 22.3388 26.5684 22.4315 26.5684C22.5363 26.5684 22.7211 26.4158 22.7211 26.3294C22.7211 26.2472 23.1184 26.097 23.414 26.0676C23.9388 26.0154 23.9709 26.1263 23.8613 27.6133L23.7812 28.7004L24.03 28.8428C24.1668 28.9211 24.3572 28.9978 24.4531 29.0134L24.6274 29.0417L24.5987 27.8784C24.5829 27.2386 24.5824 26.6387 24.5976 26.5452C24.6128 26.4518 24.684 26.3125 24.7558 26.2355C24.8766 26.1062 24.9115 26.0956 25.219 26.0956C25.6072 26.0956 25.7493 26.1411 25.9716 26.3363C26.061 26.4148 26.1694 26.4723 26.2123 26.4642C26.312 26.4453 26.3422 26.1409 26.2687 25.8947C26.2168 25.721 26.2113 25.7176 25.9931 25.7239C25.8706 25.7274 25.5896 25.7498 25.3686 25.7737ZM33.0156 26.1313C33.0482 26.1736 33.0747 26.2321 33.0747 26.2612C33.0747 26.3479 32.8954 26.5142 32.6879 26.6201C32.5078 26.7119 31.678 26.9466 31.5334 26.9466C31.4518 26.9466 31.4896 26.7153 31.6151 26.4454C31.7263 26.2063 31.9099 26.1032 32.3183 26.0502C32.695 26.0013 32.9375 26.0295 33.0156 26.1313ZM11.2495 27.0057C11.2384 27.4542 11.2176 27.9357 11.2033 28.0756L11.1772 28.3299L10.9187 28.0756C10.5906 27.7528 10.3543 27.2828 10.2834 26.8116C10.2478 26.5748 10.2465 26.4484 10.2794 26.4155C10.3356 26.3593 10.9618 26.1988 11.1448 26.1937L11.2695 26.1902L11.2495 27.0057ZM12.5051 26.3303C12.5786 26.3608 12.6628 26.4384 12.6922 26.5029C12.771 26.6758 12.7572 27.3484 12.6683 27.6651C12.5382 28.1289 12.172 28.458 11.785 28.4592C11.7034 28.4595 11.7005 28.4037 11.7295 27.3839C11.7464 26.7924 11.767 26.2855 11.7755 26.2574C11.794 26.1959 12.3035 26.2468 12.5051 26.3303ZM8.56951 31.4695C8.55216 31.4868 8.53798 31.8378 8.53798 32.2495V32.9981H9.43936H10.3408L10.3258 32.8683C10.3063 32.6988 10.1786 32.6729 9.51897 32.7045C8.96389 32.7311 8.96333 32.7308 9.04053 32.4426C9.06545 32.3496 9.09991 32.3362 9.31455 32.3362C9.44952 32.3362 9.59982 32.3071 9.64846 32.2715C9.7347 32.2085 9.73465 32.2056 9.64568 32.1588C9.59551 32.1323 9.44475 32.0959 9.31077 32.0778C9.07566 32.0461 9.01476 31.9905 9.01141 31.8043C9.01103 31.7848 9.21815 31.7677 9.4717 31.7662C10.1442 31.7623 10.5172 31.6008 10.1129 31.4885C9.91695 31.4341 8.62085 31.4181 8.56951 31.4695ZM16.2846 31.497C16.2754 31.5296 16.2741 31.8805 16.2819 32.2771L16.2961 32.9981H17.1684C18.0852 32.9981 18.0915 32.9965 18.012 32.7892C17.9885 32.7279 17.8983 32.7144 17.514 32.7144C17.0601 32.7144 16.7169 32.6372 16.7169 32.535C16.7169 32.4323 16.9009 32.3362 17.0988 32.3355C17.3677 32.3345 17.4688 32.2752 17.3975 32.1602C17.3641 32.1063 17.2623 32.0662 17.1139 32.0483C16.7305 32.0022 16.6427 31.9366 16.7952 31.8101C16.8502 31.7645 17.0164 31.7452 17.3552 31.7452C17.817 31.7452 17.9934 31.6985 17.9934 31.5762C17.9934 31.4906 17.6068 31.4385 16.9702 31.4382C16.4756 31.438 16.2971 31.4533 16.2846 31.497ZM20.1445 31.4801L19.9554 31.5089L19.9424 32.2535L19.9293 32.9981H20.1433H20.3572V32.7381V32.478L20.5345 32.4782C20.7488 32.4784 20.9626 32.6014 21.1441 32.8289C21.2743 32.9921 21.29 32.998 21.5864 32.9968L21.8937 32.9955L21.721 32.8432C21.626 32.7593 21.5002 32.6574 21.4414 32.6167L21.3346 32.5426L21.5027 32.4386C21.7961 32.2573 21.9201 31.8189 21.7313 31.6301C21.681 31.5798 21.5587 31.5161 21.4595 31.4886C21.2704 31.436 20.4682 31.4309 20.1445 31.4801ZM23.9813 31.4888C23.7755 31.6148 23.6957 32.2154 23.8124 32.7594L23.8636 32.9981H24.757C25.7835 32.9981 25.6707 33.0622 25.7227 32.4491L25.7512 32.1128L25.4063 32.0876C25.0666 32.0628 24.754 32.1319 24.754 32.2319C24.754 32.3121 24.9271 32.4308 25.0442 32.4308C25.1957 32.4308 25.3621 32.5497 25.2977 32.612C25.2717 32.6371 25.0164 32.6652 24.7303 32.6742L24.2103 32.6908L24.1967 32.2226L24.1831 31.7545L24.6188 31.7854C24.8584 31.8024 25.1901 31.8399 25.356 31.8688C25.5218 31.8977 25.6641 31.9136 25.6722 31.9042C25.6803 31.8948 25.7011 31.8089 25.7183 31.7134C25.7441 31.5712 25.7345 31.5353 25.6655 31.515C25.4722 31.4579 24.0673 31.4361 23.9813 31.4888ZM12.2256 32.2354V32.9981H12.4096C12.6355 32.9981 12.6511 32.9642 12.6511 32.4742C12.6511 32.2683 12.6643 32.0998 12.6805 32.0998C12.7373 32.0998 13.3046 32.5246 13.5623 32.7602C13.7865 32.965 13.8496 32.9981 14.0169 32.9981H14.2112V32.3164C14.2112 31.9415 14.1983 31.6011 14.1825 31.56C14.1524 31.4816 13.9916 31.461 13.894 31.523C13.8579 31.546 13.8318 31.7193 13.8231 31.9942L13.8094 32.4291L13.3913 32.1108C13.1613 31.9358 12.8936 31.7325 12.7964 31.6591C12.6982 31.585 12.5318 31.5139 12.4225 31.4992L12.2256 31.4728V32.2354ZM27.496 31.5162C27.496 31.5397 27.6366 31.6965 27.8085 31.8648C28.1724 32.2211 28.2525 32.3783 28.2525 32.7365V32.9981H28.4652H28.678V32.7968C28.678 32.4293 28.7525 32.2874 29.1612 31.8765L29.5505 31.4852H29.2755C29.0073 31.4852 28.9947 31.4911 28.7725 31.7216C28.6472 31.8516 28.5162 31.9579 28.4813 31.9578C28.4465 31.9578 28.3786 31.8993 28.3305 31.8278C28.1861 31.6135 28.017 31.5167 27.7476 31.4943C27.6092 31.4829 27.496 31.4927 27.496 31.5162ZM21.2752 31.7503C21.3198 31.7674 21.35 31.8348 21.35 31.9169C21.35 32.0992 21.2009 32.1551 20.7628 32.1372L20.4281 32.1235L20.4128 31.9629C20.4036 31.8664 20.4224 31.7866 20.4601 31.7627C20.5321 31.7171 21.1635 31.7074 21.2752 31.7503Z" fill="#1E4718"/>
</g>
<defs>
<filter id="filter0_d_507_453" x="0" y="0" width="38.697" height="41" filterUnits="userSpaceOnUse" color-interpolation-filters="sRGB">
<feFlood flood-opacity="0" result="BackgroundImageFix"/>
<feColorMatrix in="SourceAlpha" type="matrix" values="0 0 0 0 0 0 0 0 0 0 0 0 0 0 0 0 0 0 127 0" result="hardAlpha"/>
<feOffset dy="4"/>
<feGaussianBlur stdDeviation="2"/>
<feComposite in2="hardAlpha" operator="out"/>
<feColorMatrix type="matrix" values="0 0 0 0 0 0 0 0 0 0 0 0 0 0 0 0 0 0 0.25 0"/>
<feBlend mode="normal" in2="BackgroundImageFix" result="effect1_dropShadow_507_453"/>
<feBlend mode="normal" in="SourceGraphic" in2="effect1_dropShadow_507_453" result="shape"/>
</filter>
</defs>
</svg>
