<svg width="252" height="46" viewBox="0 0 252 46" fill="none" xmlns="http://www.w3.org/2000/svg">
<path fill-rule="evenodd" clip-rule="evenodd" d="M0 1.43136C0 2.75061 0.199007 2.86272 2.53691 2.86272H5.07383V22.6798V42.4969H2.81879C0.683839 42.4969 0.563758 42.5886 0.563758 44.2131V45.9292L7.4698 45.7701L14.3758 45.611L14.554 44.054C14.7299 42.5201 14.6853 42.4969 11.5943 42.4969H8.45638L8.47554 26.2186L8.49415 9.94025L10.6905 15.3192C11.8987 18.2776 13.7653 22.9912 14.8387 25.7939C15.9121 28.5966 18.0228 34.0044 19.5292 37.811C22.0446 44.1672 22.388 44.734 23.7342 44.747C25.0032 44.76 25.3979 44.2872 26.6742 41.2229C27.4849 39.2769 28.7534 36.028 29.4919 34.0039C30.231 31.9797 32.1089 27.1387 33.6643 23.246C35.2202 19.3534 37.0181 14.7671 37.6596 13.0544L38.826 9.94025L38.8627 26.2186L38.8993 42.4969H36.6443C34.5105 42.4969 34.3893 42.5892 34.3893 44.2091V45.9213L43.8322 45.7662L53.2752 45.611L53.4533 44.054C53.6224 42.5813 53.508 42.4969 51.3392 42.4969H49.047V22.6798V2.86272H51.5839C53.9139 2.86272 54.1208 2.74721 54.1208 1.44721V0.0317072H46.35H38.5791L35.9272 6.96769C34.4688 10.7822 31.8952 17.3434 30.2084 21.5474L27.141 29.1911L25.9171 26.3601C25.244 24.8031 23.3379 20.0894 21.681 15.8854C20.0247 11.6813 17.9326 6.45811 17.0323 4.27823L15.3951 0.314809L7.69756 0.157404L0 0V1.43136ZM86.8188 6.21294C86.8188 10.5518 87.0223 12.4621 87.5021 12.6224C87.8781 12.7486 88.7688 12.7396 89.4814 12.6025C90.3293 12.44 90.8835 11.8393 91.0848 10.8637C91.2539 10.0444 91.8627 8.3311 92.4378 7.05602C93.1425 5.49443 94.1257 4.43223 95.4511 3.80035C96.5335 3.28454 98.3319 2.86272 99.4475 2.86272H101.477V22.6798V42.4969H99.4853C98.3899 42.4969 96.6197 42.13 95.5508 41.6816C94.482 41.2331 92.3346 39.6699 90.7781 38.2079L87.9486 35.5496L89.0248 33.7859C89.6173 32.816 90.5086 30.6208 91.0058 28.908C91.5031 27.1953 92.1176 25.4644 92.3718 25.0624C92.6261 24.6598 93.5738 24.1333 94.4775 23.8926C95.7014 23.5659 96.1665 23.0665 96.299 21.9347L96.4777 20.415H89.111H81.745V22.1136C81.745 23.6027 81.9428 23.8122 83.3489 23.8122C84.2311 23.8122 85.3728 24.2782 85.8858 24.8478C86.3988 25.4174 86.8075 26.7548 86.7934 27.8204C86.7793 28.8854 86.4614 30.4776 86.0865 31.3586L85.4054 32.9592L79.6326 27.4897L73.8591 22.0202L76.5336 20.6336C78.0044 19.8703 80.1597 18.2028 81.3222 16.9272C83.2006 14.8662 83.4362 14.2774 83.4362 11.6496C83.4362 9.50597 83.0811 8.16294 82.1458 6.76839C81.4366 5.71016 79.7239 4.20745 78.3404 3.42892C76.2805 2.26934 75.0611 2.01342 71.5973 2.01342C68.2819 2.01342 66.78 2.30445 64.6405 3.36268C63.0784 4.13498 61.223 5.66712 60.299 6.94787C59.4077 8.18332 58.5153 10.3292 58.3039 11.7419C58.0761 13.2701 58.2007 15.2456 58.6134 16.6498C58.9934 17.9418 59.8971 19.7882 60.6215 20.7525L61.9384 22.506L60.1277 23.3734C59.1315 23.8502 57.4887 24.9407 56.4762 25.7962C55.4637 26.6517 54.1388 28.3288 53.5322 29.5229C52.9132 30.742 52.4295 32.8307 52.4295 34.287C52.4295 35.7223 52.9087 37.8178 53.5024 38.9808C54.0921 40.1358 55.1705 41.6391 55.8983 42.3202C56.6261 43.0014 58.3631 44.0789 59.7584 44.7142C61.8155 45.6507 63.4775 45.8715 68.5474 45.8817C74.402 45.8935 75.0188 45.7843 78.2412 44.1666L81.683 42.4397L84.0671 44.0251L86.4512 45.611L101.575 45.7865L116.698 45.9615V44.2295C116.698 42.5858 116.582 42.4969 114.443 42.4969H112.188V22.6079V2.71891L115.025 2.99238C116.975 3.18036 118.314 3.68994 119.307 4.62135C120.101 5.36704 121.108 6.66477 121.543 7.50558C121.979 8.34696 122.336 9.81172 122.336 10.7612C122.336 11.7113 122.526 12.5187 122.758 12.5555C122.991 12.5923 123.815 12.6563 124.591 12.6971L126 12.7713L126.16 6.40149L126.319 0.0317072H106.569H86.8188V6.21294ZM134.738 23.0161V46L145.309 45.7837C153.836 45.6093 156.315 45.3749 158.134 44.5698C159.374 44.0211 161.244 42.7568 162.289 41.7603C163.333 40.7643 164.539 39.1291 164.966 38.1269C165.395 37.1248 165.745 34.7513 165.745 32.8522C165.745 30.9537 165.461 28.8435 165.115 28.1629C164.768 27.4829 163.586 25.9819 162.488 24.828C161.389 23.6741 159.745 22.5654 158.834 22.3644L157.178 21.9992L159.055 20.8521C160.088 20.2214 161.26 19.2917 161.659 18.786C162.059 18.281 162.786 17.1299 163.276 16.2285C163.8 15.2643 164.166 13.2276 164.166 11.2793C164.166 8.72631 163.827 7.38725 162.685 5.43045C161.796 3.9068 160.234 2.32143 158.775 1.4625C156.404 0.0668122 156.077 0.0317072 145.541 0.0317072H134.738V23.0161ZM226.766 22.8214L226.913 45.611L228.745 45.7882L230.577 45.966V40.9115V35.857L233.819 32.3251L237.06 28.7937L238.986 31.5403C240.044 33.0509 242.655 36.8983 244.787 40.0905C248.244 45.2679 248.842 45.8941 250.331 45.8941C251.353 45.8941 252 45.5991 252 45.1326C252 44.7136 250.995 42.8666 249.768 41.0276C248.54 39.1886 245.755 35.1363 243.58 32.0222C241.404 28.908 239.626 26.2327 239.628 26.077C239.631 25.9213 242.161 23.1198 245.252 19.8516C248.343 16.5835 250.872 13.774 250.872 13.6087C250.872 13.4428 249.861 13.4043 248.625 13.5226C246.535 13.7231 245.835 14.3362 238.619 22.2806L230.859 30.8235L230.709 15.4279L230.559 0.0317072H228.589H226.618L226.766 22.8214ZM156.356 4.16725C157.209 4.72949 158.4 6.00345 159.005 6.99827C159.707 8.15502 160.103 9.82928 160.103 11.6389C160.103 13.4484 159.707 15.1227 159.005 16.2795C158.4 17.2743 157.209 18.5482 156.356 19.1105C155.086 19.9462 153.341 20.167 146.745 20.3267L138.685 20.5214V11.6389V2.75627L146.745 2.95105C153.341 3.11072 155.086 3.33154 156.356 4.16725ZM72.9182 5.75602C73.6736 6.10197 74.5734 7.00562 74.9179 7.76433C75.2617 8.52361 75.5436 9.77719 75.5436 10.5512C75.5436 11.3252 75.1512 12.9021 74.6709 14.0554C74.1912 15.2093 73.2593 16.7296 72.5997 17.4345C71.9401 18.1394 71.1858 18.7164 70.9231 18.7164C70.6598 18.7164 69.6896 17.52 68.7661 16.0575C67.4982 14.0498 67.0872 12.7265 67.0872 10.6531C67.0872 8.49247 67.3821 7.6109 68.4713 6.51756C69.2324 5.75319 70.2347 5.12753 70.6992 5.12753C71.1643 5.12753 72.1622 5.41063 72.9182 5.75602ZM178.711 12.8505C178.246 13.0011 176.685 13.65 175.241 14.2932C173.798 14.9364 172.081 16.1911 171.425 17.0812C170.77 17.9718 169.988 19.3483 169.688 20.1404C169.208 21.4081 169.32 21.6493 170.623 22.1464C171.437 22.4573 172.216 22.5971 172.356 22.4573C172.495 22.3174 173.03 21.36 173.546 20.3295C174.062 19.299 175.345 17.8773 176.399 17.1707C177.8 16.2308 179.132 15.8854 181.36 15.8854C183.035 15.8854 185.104 16.2483 185.959 16.6922C186.813 17.1361 187.833 18.2068 188.226 19.072C188.618 19.9371 189.083 21.8673 189.259 23.361L189.58 26.077L185.978 26.0867C183.997 26.0923 180.634 26.4671 178.506 26.9201C176.378 27.3731 173.56 28.3769 172.244 29.1521C170.928 29.9266 169.398 31.2544 168.845 32.1031C168.291 32.9519 167.731 34.6822 167.601 35.9482C167.431 37.5987 167.733 38.9706 168.668 40.7938C169.386 42.1923 170.835 43.9124 171.889 44.6156C173.497 45.6892 174.565 45.8941 178.55 45.8941C181.16 45.8941 183.85 45.6088 184.527 45.26C185.204 44.9112 186.583 43.8422 187.591 42.8842L189.423 41.1425V43.554C189.423 45.9338 189.447 45.9638 191.255 45.7882L193.087 45.611L193.263 34.8532C193.373 28.1618 193.193 22.9516 192.788 21.0707C192.307 18.8347 191.586 17.4917 190.024 15.9228C188.653 14.5463 186.999 13.5696 185.316 13.1444C183.89 12.7832 182.01 12.5085 181.14 12.5329C180.269 12.5572 179.177 12.7005 178.711 12.8505ZM209.151 13.017C208.374 13.2548 206.938 13.8646 205.96 14.3725C204.982 14.8798 203.462 16.1741 202.581 17.2477L200.98 19.1999L201.175 16.4103L201.371 13.6206H199.343H197.315V29.793V45.966L199.148 45.7882L200.98 45.611L201.262 34.5701C201.537 23.8003 201.581 23.4646 203.086 20.894C204.186 19.0148 205.369 17.8988 207.21 17.0036C209.208 16.0326 210.445 15.8118 212.682 16.0275C214.897 16.241 215.869 16.6537 216.847 17.7952C217.548 18.6145 218.386 20.2395 218.709 21.407C219.031 22.5739 219.297 28.5774 219.299 34.7473L219.302 45.966L221.134 45.7882L222.966 45.611L223.119 34.1086C223.214 26.9207 223.036 21.7246 222.642 20.257C222.278 18.8981 221.139 17.0308 219.94 15.8265C218.8 14.6816 216.858 13.4637 215.625 13.1195C214.392 12.7758 212.748 12.5148 211.973 12.5403C211.198 12.5652 209.928 12.7798 209.151 13.017ZM157.114 24.9146C158.788 25.6773 159.817 26.6591 160.638 28.2767C161.341 29.6617 161.799 31.6524 161.799 33.3312C161.799 35.2642 161.413 36.6826 160.523 38.025C159.821 39.0833 158.236 40.4586 156.999 41.0814C155.139 42.0185 153.367 42.2472 146.718 42.4086L138.685 42.6034V33.2078V23.8122L146.718 23.8247C153.393 23.8349 155.151 24.0194 157.114 24.9146ZM71.9626 32.4332L78.9172 39.3556L77.3713 40.1845C76.4507 40.6788 74.19 41.0276 71.7805 41.0474C68.5389 41.0746 67.4255 40.8493 66.1773 39.9139C65.321 39.2718 64.101 38.0488 63.4668 37.1955C62.6133 36.0473 62.319 34.8073 62.3336 32.4179C62.3455 30.4866 62.7435 28.4522 63.3253 27.351C63.8597 26.3392 64.4573 25.5108 64.6529 25.5108C64.848 25.5108 68.1375 28.6261 71.9626 32.4332ZM189.316 32.4468C189.185 34.3934 188.616 36.9498 188.05 38.1281C187.401 39.4802 186.105 40.8096 184.539 41.7314C182.393 42.9946 181.561 43.1611 178.396 42.9584C175.336 42.763 174.484 42.4714 173.2 41.1822C171.946 39.9235 171.664 39.1308 171.664 36.8677C171.664 34.7586 171.973 33.7655 172.953 32.7175C173.662 31.9599 175.311 31.0132 176.618 30.6134C177.924 30.2143 181.023 29.7036 183.503 29.4788C185.984 29.2546 188.36 29.0343 188.784 28.9896C189.384 28.9262 189.502 29.69 189.316 32.4468Z" fill="#254E1E"/>
</svg>
