<svg width="47" height="41" viewBox="0 0 47 41" fill="none" xmlns="http://www.w3.org/2000/svg">
<g filter="url(#filter0_d_507_564)">
<path fill-rule="evenodd" clip-rule="evenodd" d="M31.2702 0.261075C30.2755 0.764931 29.866 1.74834 30.1612 2.92404C30.4986 4.26714 30.275 5.35774 29.4813 6.24059C28.9644 6.81552 28.3095 7.17435 27.5252 7.31256C26.3925 7.51204 25.7119 8.22028 25.5235 9.3954C25.3387 10.5484 24.7599 11.3794 23.7772 11.9033C23.0652 12.2828 22.1448 12.3942 21.4137 12.1896C20.6909 11.9872 20.1642 12.0398 19.4273 12.3881C18.8609 12.6559 18.662 12.7002 18.029 12.7002C16.506 12.7002 15.3848 11.8868 14.8006 10.3582C14.2948 9.03418 13.001 8.45176 11.7765 8.99662C10.0845 9.74962 9.96069 12.0848 11.565 12.987C12.2651 13.3807 12.9455 13.3854 13.7986 13.0024C14.337 12.7607 14.5376 12.723 15.2854 12.723C16.0149 12.723 16.2322 12.7618 16.678 12.9714C17.3075 13.2674 18.0301 13.9713 18.249 14.5018C18.3359 14.712 18.4798 15.0604 18.569 15.276C18.8749 16.0153 19.7898 16.6129 20.6159 16.6129C21.56 16.6129 22.4976 15.9042 22.7675 14.9866C22.8519 14.6997 22.921 14.3621 22.921 14.2364C22.921 13.5512 23.8521 12.3653 24.7562 11.8989C25.3974 11.5682 26.6013 11.5232 27.1896 11.8079C28.6329 12.5067 29.231 14.7462 28.348 16.1463C27.7769 17.0517 27.7141 17.1905 27.657 17.6722C27.4968 19.0252 28.5338 20.201 29.8843 20.1978C30.655 20.1959 31.0805 19.995 31.6845 19.3476C32.7776 18.176 34.2851 17.8744 35.678 18.5488C35.91 18.661 36.371 19.0227 36.7023 19.3525C37.3649 20.0118 37.7729 20.2014 38.5376 20.2052C39.8986 20.2121 40.983 18.8448 40.6845 17.498C40.5408 16.8498 40.1882 16.3716 39.6088 16.0394C39.2007 15.8054 38.9948 15.7505 38.5284 15.7514C37.7779 15.7531 37.3265 15.9675 36.6172 16.6597C35.7292 17.5262 34.7356 17.8611 33.6412 17.6626C32.849 17.519 32.3818 17.259 31.7282 16.5983C31.4217 16.2883 30.9619 15.9288 30.7065 15.7994C29.7719 15.3258 29.1618 14.3223 29.0892 13.1396C29.0359 12.2685 29.1582 11.84 29.7309 10.8904C30.0797 10.3122 30.1244 10.1698 30.1244 9.63955C30.1244 9.24365 30.0563 8.88406 29.9231 8.577C29.5412 7.69655 29.8389 6.42433 30.6426 5.5021C31.0062 5.08487 32.0148 4.5111 32.3848 4.5111C32.5017 4.5111 32.7836 4.4454 33.0112 4.36511C34.3054 3.90851 34.8935 2.52209 34.3142 1.29357C34.0443 0.721326 33.7788 0.460466 33.1979 0.197109C32.5739 -0.0858419 31.9116 -0.0638474 31.2702 0.261075ZM24.6018 0.226787C23.8831 0.541721 23.3283 1.54713 23.4593 2.29772C23.7261 3.82639 25.5469 4.50293 26.6681 3.49003C27.1412 3.06254 27.3391 2.6287 27.3391 2.01861C27.3391 0.916395 26.503 0.0885771 25.398 0.096741C25.1185 0.098854 24.7603 0.157346 24.6018 0.226787ZM17.2064 1.58506C16.718 1.84641 16.5205 2.35314 16.7205 2.83174C17.0017 3.50473 17.8135 3.67857 18.3182 3.17385C19.0848 2.40722 18.1544 1.07775 17.2064 1.58506ZM35.7596 4.89941C35.2355 5.31173 35.3613 6.27046 35.9727 6.52373C36.6543 6.80601 37.3279 6.36843 37.3279 5.64328C37.3279 4.85475 36.385 4.40756 35.7596 4.89941ZM18.3588 5.63118C17.181 6.25202 16.8863 7.78107 17.7632 8.72116C18.5428 9.55695 20.0682 9.50864 20.7408 8.62675C21.5056 7.62413 21.2009 6.20256 20.1079 5.67344C19.6052 5.43006 18.7782 5.41008 18.3588 5.63118ZM33.2939 9.65838C32.2018 10.1307 31.7817 11.3963 32.3693 12.4439C32.7355 13.0968 33.6171 13.5192 34.3538 13.3947C36.2617 13.0724 36.587 10.3973 34.8084 9.65415C34.3619 9.46753 33.7311 9.46926 33.2939 9.65838ZM5.54134 11.3109C4.91234 11.9399 5.32399 12.9631 6.20607 12.9631C7.42893 12.9631 7.49933 11.206 6.28185 11.0687C5.87798 11.0232 5.80537 11.047 5.54134 11.3109ZM39.2632 11.2849C38.8934 11.5961 38.8041 11.9902 39.0066 12.4171C39.2919 13.0182 40.0034 13.1444 40.5176 12.6848C40.7754 12.4545 40.8292 12.3369 40.8292 12.0027C40.8292 11.6684 40.7754 11.5509 40.5176 11.3205C40.1155 10.9611 39.6632 10.9484 39.2632 11.2849ZM10.4831 14.7292C10.0192 14.9317 9.51494 15.5642 9.38471 16.107C9.04797 17.5106 10.3057 18.7683 11.7093 18.4316C12.2642 18.2985 12.8906 17.7909 13.091 17.3123C13.3756 16.6325 13.1583 15.5891 12.6314 15.1047C12.1123 14.6275 11.1154 14.4532 10.4831 14.7292ZM23.5078 17.51C22.6526 18.0036 22.9928 19.3021 23.9775 19.3021C25.1707 19.3021 25.3043 17.5567 24.1214 17.4215C23.8927 17.3953 23.6446 17.4312 23.5078 17.51ZM21.7204 23.7533C21.0946 23.9598 20.7362 24.181 20.4901 24.5125C19.8415 25.3861 19.8932 26.6698 20.6055 27.3822L20.9582 27.7348L20.4927 28.1527C19.9439 28.6454 19.7617 29.0902 19.7557 29.9521C19.75 30.7921 19.9077 31.2471 20.3911 31.7848C20.9329 32.3874 21.5757 32.6617 22.595 32.7253C24.7351 32.8588 26.1234 31.6259 25.9709 29.7272C25.9451 29.4049 25.8337 28.9642 25.7233 28.7478C25.5327 28.3742 25.0891 27.9201 24.8215 27.8244C24.7397 27.7952 24.7882 27.7077 24.9647 27.566C25.7751 26.9154 25.9095 25.5217 25.2543 24.5617C24.8552 23.9767 24.1336 23.6829 23.0202 23.6518C22.4519 23.6361 21.9589 23.6745 21.7204 23.7533ZM23.979 24.6665C24.4579 24.9209 24.7459 25.3859 24.7459 25.9047C24.7459 26.7404 24.1444 27.2599 23.0789 27.3445C22.2955 27.4068 21.7474 27.2465 21.3356 26.8346C21.0282 26.5273 21.0001 26.4517 21.0001 25.9334C21.0001 25.4589 21.0419 25.318 21.2594 25.0595C21.6251 24.6251 21.9906 24.4967 22.8745 24.4923C23.4448 24.4896 23.7311 24.5347 23.979 24.6665ZM4 28.2273V31.596H4.24011H4.48023V30.0592V28.5225L5.94493 28.5227C7.14953 28.5228 7.46811 28.5527 7.73896 28.6908C8.31341 28.9836 8.45066 29.2735 8.48908 30.2749C8.53547 31.4855 8.56534 31.596 8.84541 31.596C9.06094 31.596 9.07083 31.5744 8.98765 31.2845C8.93857 31.1132 8.89804 30.6917 8.89775 30.3481C8.89747 30.0043 8.84992 29.5527 8.7921 29.3445C8.67512 28.9229 8.20757 28.4265 7.92769 28.4265C7.63792 28.4265 7.72302 28.298 8.15244 28.0869C8.73486 27.8008 9.02079 27.2251 8.97334 26.4346C8.93271 25.7578 8.73995 25.4216 8.21593 25.1129C7.92443 24.9412 7.68354 24.9175 5.94493 24.8897L4 24.8587V28.2273ZM9.95483 28.2344V31.596H12.2599C14.501 31.596 14.565 31.5906 14.565 31.4039C14.565 31.2177 14.501 31.2118 12.5 31.2118H10.4351V29.7231V28.2344H12.356C13.9994 28.2344 14.2769 28.2135 14.2769 28.0903C14.2769 27.9671 13.9994 27.9462 12.356 27.9462H10.4351V26.5536V25.1609H12.5C14.2715 25.1609 14.565 25.1405 14.565 25.0168C14.565 24.8928 14.2449 24.8728 12.2599 24.8728H9.95483V28.2344ZM15.3334 28.2344V31.596H17.4464C19.4953 31.596 19.5594 31.5901 19.5594 31.4039C19.5594 31.2182 19.4953 31.2118 17.6385 31.2118H15.7176V28.0423C15.7176 24.9368 15.7137 24.8728 15.5255 24.8728C15.337 24.8728 15.3334 24.9368 15.3334 28.2344ZM25.8984 25.0168C25.8984 25.1372 26.0959 25.1609 27.099 25.1609H28.2996V28.3784C28.2996 31.5247 28.3038 31.596 28.4904 31.596C28.6763 31.596 28.6818 31.5163 28.7065 28.4025L28.7318 25.2089L29.9083 25.182C30.867 25.16 31.0849 25.1288 31.0849 25.0139C31.0849 24.8932 30.7086 24.8728 28.4917 24.8728C26.2506 24.8728 25.8984 24.8924 25.8984 25.0168ZM31.5651 28.2344V31.596H33.8702C36.1112 31.596 36.1753 31.5906 36.1753 31.4039C36.1753 31.2177 36.1112 31.2118 34.0598 31.2118H31.9443L31.9708 29.7471L31.9973 28.2824L33.9422 28.2564C35.5706 28.2347 35.8872 28.2076 35.8872 28.0903C35.8872 27.973 35.5706 27.946 33.9422 27.9242L31.9973 27.8982V26.5536V25.2089L34.0383 25.183C35.7646 25.1611 36.0793 25.1352 36.0793 25.0149C36.0793 24.8934 35.751 24.8728 33.8222 24.8728H31.5651V28.2344ZM36.8476 28.2424V31.6122L38.4564 31.5794C40.3041 31.5418 40.6675 31.4355 41.3486 30.7337C41.9409 30.1233 42.1614 29.4525 42.1696 28.2344C42.1782 26.9667 41.9918 26.3694 41.3854 25.7211C40.7141 25.0034 40.2515 24.8728 38.3807 24.8728H36.8476V28.2424ZM7.49645 25.2646C8.47141 25.5101 8.8844 26.456 8.41685 27.3725C8.08357 28.0258 7.72427 28.1383 5.97278 28.1383H4.48023V26.6496V25.1609H5.78232C6.49853 25.1609 7.26988 25.2076 7.49645 25.2646ZM40.4472 25.4919C41.3843 25.9503 41.7811 26.7857 41.7751 28.2877C41.7697 29.6225 41.3142 30.4988 40.3852 30.9618C39.9174 31.1948 39.7932 31.2118 38.5576 31.2118H37.2318V28.2504C37.2318 26.6216 37.2642 25.2554 37.3038 25.2145C37.3435 25.1735 37.9433 25.1586 38.6369 25.1815C39.7765 25.219 39.9507 25.2489 40.4472 25.4919ZM23.8427 28.3759C24.1377 28.4634 24.4447 28.647 24.6494 28.8583C24.9494 29.1678 24.9834 29.2606 25.0174 29.8618C25.0629 30.6667 24.8435 31.1394 24.2436 31.5284C23.3584 32.1023 21.7129 31.9471 21.063 31.2284C20.393 30.4875 20.5364 29.1129 21.3353 28.6191C21.9772 28.2225 22.994 28.1238 23.8427 28.3759Z" fill="#1E4718"/>
</g>
<defs>
<filter id="filter0_d_507_564" x="0" y="0" width="46.1699" height="40.7351" filterUnits="userSpaceOnUse" color-interpolation-filters="sRGB">
<feFlood flood-opacity="0" result="BackgroundImageFix"/>
<feColorMatrix in="SourceAlpha" type="matrix" values="0 0 0 0 0 0 0 0 0 0 0 0 0 0 0 0 0 0 127 0" result="hardAlpha"/>
<feOffset dy="4"/>
<feGaussianBlur stdDeviation="2"/>
<feComposite in2="hardAlpha" operator="out"/>
<feColorMatrix type="matrix" values="0 0 0 0 0 0 0 0 0 0 0 0 0 0 0 0 0 0 0.25 0"/>
<feBlend mode="normal" in2="BackgroundImageFix" result="effect1_dropShadow_507_564"/>
<feBlend mode="normal" in="SourceGraphic" in2="effect1_dropShadow_507_564" result="shape"/>
</filter>
</defs>
</svg>
