<svg width="90" height="13" viewBox="0 0 90 13" fill="none" xmlns="http://www.w3.org/2000/svg">
<path d="M18.0029 11.563C16.7376 11.563 15.5778 11.4224 14.5586 10.4032L15.8766 9.08521C16.5443 9.75299 17.4054 9.84085 18.038 9.84085C18.741 9.84085 19.4615 9.6124 19.4615 8.99735C19.4615 8.59317 19.2506 8.312 18.6004 8.25928L17.3351 8.13627C15.8766 7.99569 14.9803 7.36306 14.9803 5.86936C14.9803 4.19993 16.4565 3.28613 18.1083 3.28613C19.3736 3.28613 20.428 3.49701 21.2012 4.23507L19.9535 5.50033C19.479 5.07858 18.7761 4.95557 18.0732 4.95557C17.2648 4.95557 16.9309 5.3246 16.9309 5.72878C16.9309 6.02752 17.054 6.3614 17.7744 6.43169L19.0397 6.55471C20.6388 6.71286 21.4472 7.55637 21.4472 8.92706C21.4472 10.7195 19.9184 11.563 18.0029 11.563V11.563Z" fill="#1E4718"/>
<path d="M24.962 11.4753C23.3101 11.4753 22.6247 10.3155 22.6247 9.15564V5.149H21.7637V3.62015H22.6247V1.23022H24.6456V3.62015H26.0691V5.149H24.6456V9.03263C24.6456 9.48952 24.8565 9.77069 25.3486 9.77069H26.0866V11.4753H24.962V11.4753Z" fill="#1E4718"/>
<path d="M26.9653 2.00342V0.351562H29.0389V2.00342H26.9653ZM27.0005 11.4753V3.39169H29.0214V11.4753H27.0005Z" fill="#1E4718"/>
<path d="M33.5727 11.563C31.956 11.563 29.9526 10.7019 29.9526 7.41578C29.9526 4.12964 31.956 3.28613 33.5727 3.28613C34.6973 3.28613 35.5233 3.62002 36.2438 4.37566L34.8731 5.74635C34.4513 5.28945 34.0999 5.11372 33.5727 5.11372C33.0982 5.11372 32.7116 5.28945 32.4304 5.64091C32.1141 6.02752 31.9735 6.57228 31.9735 7.43335C31.9735 8.29443 32.1141 8.83919 32.4304 9.24337C32.7292 9.59483 33.0982 9.77056 33.5727 9.77056C34.0999 9.77056 34.4513 9.57726 34.8731 9.13793L36.2438 10.4911C35.5233 11.2115 34.6973 11.563 33.5727 11.563Z" fill="#1E4718"/>
<path d="M41.8145 11.4753L39.8287 8.10126L38.9677 9.06778V11.4753H36.9468V0.421875H38.9677V6.69543L41.6563 3.39171H44.099L41.217 6.66028L44.3274 11.4928H41.8145V11.4753V11.4753Z" fill="#1E4718"/>
<path d="M45.997 8.0484C45.997 9.08521 46.6296 9.84085 47.7718 9.84085C48.6505 9.84085 49.0898 9.59483 49.5994 9.08521L50.8295 10.2802C50.0036 11.1061 49.2128 11.5454 47.7543 11.5454C45.8388 11.5454 44.0112 10.6844 44.0112 7.3982C44.0112 4.76226 45.4346 3.26855 47.5434 3.26855C49.7927 3.26855 51.0756 4.92041 51.0756 7.13461V8.03083H45.997V8.0484V8.0484ZM48.8965 5.79906C48.6856 5.32459 48.2287 4.95556 47.5434 4.95556C46.8581 4.95556 46.4012 5.30702 46.1903 5.79906C46.0673 6.0978 46.0146 6.30868 45.997 6.66014H49.0722C49.0547 6.30868 49.0195 6.0978 48.8965 5.79906Z" fill="#1E4718"/>
<path d="M56.4177 5.5882C56.1013 5.27188 55.8378 5.11373 55.3457 5.11373C54.7307 5.11373 54.0453 5.5882 54.0453 6.60743V11.4751H52.0244V3.39158H53.9926V4.16479C54.3792 3.69032 55.1524 3.30371 56.0311 3.30371C56.8218 3.30371 57.3842 3.49701 57.9465 4.05935L56.4177 5.5882V5.5882Z" fill="#1E4718"/>
<path fill-rule="evenodd" clip-rule="evenodd" d="M8.33818 12.3714C8.21517 12.4241 8.05701 12.4065 7.89885 12.4241C7.75827 12.4241 7.56497 12.4241 7.4771 12.3538C7.42438 12.3187 7.42438 12.2308 7.42438 12.1781C7.42438 12.1254 7.44196 12.0375 7.44196 11.9848C7.45953 11.9145 7.4771 11.809 7.44196 11.7563C7.40681 11.7036 7.2838 11.7212 7.21351 11.686C7.14322 11.6509 7.12564 11.5454 7.10807 11.44C7.10807 11.4049 7.07292 11.3697 7.07292 11.3521C7.05535 11.194 7.10807 10.9655 7.14322 10.8074C7.17836 10.6316 7.23108 10.4735 7.26623 10.2978C7.31894 10.0517 7.31894 9.77057 7.30137 9.50698C7.30137 9.3664 7.26623 9.26096 7.30137 9.15552C7.31894 9.05008 7.37166 8.96222 7.38924 8.85678V8.75134C7.38924 8.7162 7.40681 8.69862 7.40681 8.66348C7.40681 8.59318 7.38924 8.50532 7.38924 8.41746C7.37166 8.18901 7.38924 7.85512 7.40681 7.66182C7.40681 7.59152 7.44196 7.52123 7.38924 7.48609C7.14322 7.48609 6.93234 7.52123 6.70389 7.55638C6.10641 7.62667 5.3332 7.64424 4.75329 7.52123C4.70057 7.50366 4.64785 7.50366 4.59513 7.50366C4.17338 7.4158 3.80435 7.22249 3.50561 6.99404C3.45289 6.9589 3.40017 6.92375 3.34745 6.87103C3.29473 6.83589 3.24201 6.78317 3.1893 6.74802C2.96085 6.64258 2.64453 6.7656 2.5391 6.92375C2.50395 6.97647 2.4688 7.06434 2.43366 7.13463C2.39851 7.20492 2.36337 7.27521 2.34579 7.3455C2.18764 7.69696 2.01191 8.04842 1.85375 8.39988C1.76588 8.61076 1.66045 8.83921 1.59015 9.06765C1.44957 9.5597 1.57258 10.2099 1.69559 10.6844C1.71317 10.7195 1.73074 10.7722 1.74831 10.825C1.78346 10.9304 1.85375 11.0885 1.94161 11.1588C1.99433 11.194 2.06463 11.2291 2.11734 11.2643C2.18764 11.317 2.22278 11.4224 2.2755 11.5279C2.29307 11.563 2.32822 11.6157 2.34579 11.6685C2.39851 11.7739 2.43366 11.8618 2.31065 11.9321C2.22278 11.9848 2.0822 11.9848 1.95919 12.0023C1.90647 12.0199 1.92404 12.0902 1.8889 12.1254C1.87132 12.1429 1.78346 12.1781 1.74831 12.1956C1.59015 12.2484 1.30899 12.2484 1.18598 12.1956C1.11568 12.1781 1.04539 12.1254 1.02782 12.0726C0.992673 11.9672 1.08054 11.8442 1.01025 11.7739C0.9751 11.7387 0.904809 11.7387 0.85209 11.7212C0.764225 11.686 0.693933 11.5982 0.641214 11.5103C0.553349 11.2643 0.606068 10.8952 0.588495 10.5965C0.588495 10.5086 0.570922 10.4208 0.570922 10.3153C0.570922 10.1396 0.518203 9.96388 0.50063 9.78815C0.483057 9.70028 0.465484 9.62999 0.447911 9.5597C0.412765 9.43669 0.395192 9.2961 0.360046 9.17309C0.3249 9.03251 0.3249 8.89193 0.360046 8.78649C0.377619 8.75134 0.412765 8.7162 0.430338 8.68105C0.465484 8.61076 0.465484 8.54047 0.465484 8.47017C0.447911 8.43503 0.360046 8.47017 0.342473 8.43503C0.289754 8.04842 0.237035 7.67939 0.201889 7.27521C0.184316 7.13463 0.184316 7.01162 0.184316 6.87103C0.166743 6.60744 0.184316 6.32627 0.149171 6.06268C0.131598 5.93967 0.114025 5.81666 0.0964516 5.69364C0.0437327 5.34218 -0.0441322 4.90286 0.0261597 4.53383C0.0788786 4.30538 0.149171 4.11208 0.289754 3.93635C0.377619 3.81334 0.483057 3.7079 0.588495 3.58489C0.693933 3.47945 0.816944 3.37401 0.939954 3.28615C1.02782 3.23343 1.11568 3.16314 1.20355 3.11042C1.39685 3.02255 1.66045 2.93469 1.94161 2.91711C2.22278 2.89954 2.5391 2.89954 2.80269 2.95226C3.06628 3.00498 3.32988 3.04012 3.59347 3.09284C3.8395 3.14556 4.08552 3.21585 4.33154 3.26857C4.36668 3.26857 4.38426 3.30372 4.4194 3.30372C4.4897 3.32129 4.57756 3.32129 4.66543 3.35644C4.89387 3.40916 5.17504 3.4443 5.45621 3.4443C5.75495 3.4443 6.01855 3.4443 6.26457 3.37401C6.29971 3.35644 6.33486 3.33887 6.37 3.33887C6.40515 3.32129 6.45787 3.32129 6.49302 3.32129C6.51059 3.32129 6.54573 3.28615 6.56331 3.26857C6.70389 3.19828 6.8269 3.12799 6.94991 3.04012C7.05535 2.96983 7.12564 2.91711 7.26623 2.86439C7.31894 2.84682 7.38924 2.81168 7.44196 2.7941C7.56497 2.75896 7.70555 2.72381 7.79342 2.65352C7.95157 2.56565 8.05701 2.42507 8.18002 2.30206C8.30303 2.19662 8.44362 2.07361 8.5842 1.96817C8.86537 1.73972 9.14653 1.54642 9.41013 1.33555C9.55071 1.23011 9.6913 1.12467 9.84945 1.03681C10.1482 0.861076 10.4645 0.667773 10.9038 0.632627C11.0796 0.615054 11.2553 0.615054 11.431 0.632627C11.4837 0.632627 11.5365 0.667773 11.5892 0.6502C11.6419 0.632627 11.677 0.562335 11.6946 0.509616C11.7649 0.386605 11.8001 0.316314 11.8703 0.17573C11.9055 0.0878649 11.8879 0 11.9758 0C12.0636 0 12.0461 0.228449 12.0461 0.316314C12.0461 0.421751 12.0285 0.562335 12.0461 0.632627C12.0636 0.685346 12.1339 0.755638 12.2042 0.755638C12.257 0.755638 12.2921 0.720492 12.3272 0.685346C12.38 0.6502 12.4151 0.6502 12.4503 0.615054C12.5205 0.562335 12.6084 0.47447 12.6787 0.404178C12.7314 0.351459 12.8369 0.193303 12.9247 0.210876C13.1005 0.228449 12.9247 0.492043 12.8896 0.562335C12.8017 0.755638 12.7138 0.913795 12.6084 1.08952C12.5733 1.15982 12.4678 1.26525 12.4678 1.35312C12.4678 1.40584 12.5205 1.44098 12.5381 1.51128C12.5557 1.54642 12.5557 1.56399 12.5733 1.59914C12.626 1.73972 12.6787 1.93303 12.7314 2.09118C12.7666 2.23177 12.8017 2.37235 12.8544 2.49536C12.9072 2.61837 12.9774 2.74138 13.0302 2.88197C13.0477 2.91711 13.0477 2.95226 13.0653 2.98741C13.1707 3.26857 13.2762 3.58489 13.4168 3.86605C13.4695 3.97149 13.5398 4.11208 13.5398 4.27023C13.5398 4.44596 13.4519 4.53383 13.364 4.67441C13.3289 4.7447 13.2586 4.85014 13.1883 4.86771C13.1356 4.88529 13.0829 4.86771 13.0302 4.86771C12.9599 4.88529 12.9072 4.92043 12.8544 4.92043C12.6963 4.93801 12.5381 4.815 12.503 4.69198C12.4854 4.65684 12.503 4.60412 12.4854 4.5514C12.4503 4.3581 12.3448 4.27023 12.2218 4.12965C12.1339 4.04178 12.0636 3.98907 11.9582 3.93635C11.8001 3.84848 11.6419 3.81334 11.4662 3.72547C11.4134 3.69032 11.3256 3.65518 11.2729 3.67275C11.185 3.69032 11.0971 3.83091 11.0268 3.91877C10.6051 4.48111 10.2185 5.06102 9.81431 5.60578C9.53314 5.97481 9.25197 6.34384 9.02352 6.74802C8.9708 6.85346 8.93566 6.97647 8.88294 7.09948C8.84779 7.22249 8.81265 7.3455 8.7775 7.48609C8.61935 7.94298 8.56663 8.50532 8.42604 8.97979C8.40847 9.03251 8.40847 9.08523 8.3909 9.13795C8.3206 9.38397 8.25031 9.66514 8.18002 9.92873C8.1273 10.122 8.10973 10.3856 8.09216 10.6316C8.09216 10.8777 8.07458 11.2116 8.16245 11.3521C8.21517 11.44 8.37332 11.4576 8.42604 11.5454C8.46119 11.5982 8.49633 11.7212 8.54905 11.7915C8.5842 11.8442 8.67206 11.9496 8.65449 12.0375C8.65449 12.0902 8.60177 12.1429 8.54905 12.1605C8.49633 12.1781 8.42604 12.1781 8.37332 12.1956C8.37332 12.2659 8.3909 12.3362 8.33818 12.3714V12.3714Z" fill="#1E4718"/>
<path d="M67.0141 3.28613C66.0124 3.28613 65.2744 3.60245 64.589 4.30537C64.0794 3.60245 63.3413 3.28613 62.4451 3.28613C61.7071 3.28613 60.9514 3.58487 60.4242 4.12964V3.39157H58.4561V11.4751H60.4769V6.58985C60.4769 5.48275 61.1974 5.11372 61.8301 5.11372C62.4627 5.11372 63.1656 5.48275 63.1656 6.58985V11.4751H65.1865V6.53713C65.1865 5.48275 65.9246 5.11372 66.5396 5.11372C67.1547 5.11372 67.8752 5.48275 67.8752 6.58985V11.4751H69.8961V6.30868C69.8961 5.43004 69.6676 4.65682 69.0174 4.00662C68.5429 3.54973 67.8225 3.28613 67.0141 3.28613V3.28613Z" fill="#1E4718"/>
<path d="M75.7828 8.27688C75.7828 9.38398 75.0623 9.75301 74.4297 9.75301C73.797 9.75301 73.0941 9.38398 73.0941 8.27688V3.37402H71.0732V8.55805C71.0732 9.4367 71.249 10.2099 71.8992 10.8601C72.3561 11.317 73.0063 11.5806 73.8146 11.5806C74.5527 11.5806 75.3083 11.2994 75.8355 10.7371V11.4752H77.8037V3.3916H75.7828V8.27688V8.27688Z" fill="#1E4718"/>
<path d="M81.1073 9.03263V0.421875H79.0864V9.15564C79.0864 10.2979 79.7893 11.4753 81.4412 11.4753H82.5835V9.7707H81.8102C81.3006 9.7707 81.1073 9.52468 81.1073 9.03263V9.03263Z" fill="#1E4718"/>
<path d="M89.9994 7.15219C89.9994 4.93799 88.7341 3.28613 86.4672 3.28613C84.376 3.28613 82.9351 4.77984 82.9351 7.41578C82.9351 10.6844 84.7626 11.563 86.6781 11.563C88.1367 11.563 88.9274 11.1061 89.7534 10.2977L88.5233 9.10279C88.0136 9.6124 87.5743 9.85843 86.6957 9.85843C85.5534 9.85843 84.9208 9.10279 84.9208 8.06598H89.9818V7.15219H89.9994ZM84.9384 6.67772C84.9559 6.32626 85.0087 6.09781 85.1317 5.81664C85.3426 5.34217 85.7995 4.97314 86.4848 4.97314C87.1701 4.97314 87.6095 5.3246 87.8379 5.81664C87.9609 6.11538 88.0136 6.32626 88.0312 6.67772H84.9384Z" fill="#1E4718"/>
</svg>
