<svg width="70" height="11" viewBox="0 0 70 11" fill="none" xmlns="http://www.w3.org/2000/svg">
<path fill-rule="evenodd" clip-rule="evenodd" d="M0.983923 0.201774C0.856328 0.813406 0.0486454 6.13826 0.0128397 6.60351C-0.0986863 8.05445 0.520577 9.21205 1.70466 9.76616C2.34997 10.0682 3.0407 10.196 4.03453 10.1975C5.87052 10.2002 7.17963 9.71296 8.14888 8.66608C8.55999 8.22196 8.98738 7.47694 9.18461 6.86032C9.283 6.55274 9.59894 4.79136 9.59894 4.55033C9.59894 4.50389 9.26612 4.47571 8.71847 4.47571C7.89956 4.47571 7.838 4.46588 7.838 4.33506C7.838 4.25765 7.98658 3.26801 8.16818 2.13587C8.34977 1.00366 8.49835 0.0599452 8.49835 0.0386672C8.49835 0.0173892 8.08828 0 7.587 0H6.67571L6.63492 0.201774C6.61246 0.312713 6.39279 1.69123 6.1467 3.26507C5.6989 6.12931 5.59046 6.57813 5.27951 6.85437C5.10899 7.00574 4.46302 7.0965 4.13739 7.01484C3.91317 6.95849 3.72915 6.62912 3.72915 6.28405C3.72915 6.06569 4.53368 0.764026 4.65217 0.201774L4.69466 0H2.86035H1.02604L0.983923 0.201774ZM10.2976 0.165088C10.261 0.324526 9.89243 2.61338 9.89243 2.68132C9.89243 2.69974 10.2886 2.71478 10.7729 2.71478C11.4301 2.71478 11.6526 2.73804 11.6501 2.80649C11.6483 2.85697 10.9935 4.49956 10.1949 6.45677L8.74305 10.0153L10.4291 10.0351C11.3566 10.0459 12.1326 10.0375 12.1537 10.0164C12.1915 9.97857 13.6266 0.378161 13.6318 0.128402C13.6342 0.00983189 13.508 0 11.9849 0H10.3355L10.2976 0.165088ZM33.5284 4.82423C33.1113 7.4776 32.7526 9.7393 32.7314 9.85024L32.6929 10.052H34.4551H36.2172L36.2559 9.88693C36.2771 9.79609 36.3878 9.11923 36.5018 8.38279L36.7091 7.04375L37.8469 7.0425C39.6013 7.04052 40.3954 6.80529 41.219 6.04368C42.0742 5.25273 42.5073 4.12727 42.4565 2.82777C42.4329 2.22626 42.3922 2.01444 42.2345 1.67318C41.9939 1.15283 41.5206 0.671871 40.997 0.415728C40.2426 0.0465915 39.8115 0.00264142 36.9292 0.00124734L34.2869 0L33.5284 4.82423ZM16.2594 1.31901C15.3424 1.63672 14.5629 1.91473 14.5272 1.93674C14.4915 1.95882 14.423 2.22091 14.3748 2.51917L14.2874 3.06146L13.8708 3.05324L13.4542 3.04495L13.2554 4.2556C12.9869 5.89085 12.9677 5.7499 13.451 5.68951C13.7216 5.65569 13.8545 5.66515 13.8545 5.71813C13.8545 5.76164 13.706 6.73602 13.5244 7.88349C13.3428 9.03104 13.1942 9.98891 13.1942 10.0122C13.1942 10.0356 13.9768 10.0459 14.9335 10.035L16.6728 10.0153L17.0121 7.85084L17.3515 5.68636L17.9117 5.7094C18.4455 5.73141 18.4737 5.72451 18.5115 5.56265C18.5543 5.37944 18.9172 3.12229 18.9172 3.03923C18.9172 3.01157 18.6696 3.00489 18.3669 3.02426C17.7153 3.06608 17.7519 3.1738 17.9634 1.83431C18.1353 0.74583 18.136 0.732623 18.0184 0.737539C17.968 0.739667 17.1764 1.00131 16.2594 1.31901ZM38.6022 2.87744C38.8494 2.97121 38.948 3.13799 38.9476 3.462C38.9469 4.06197 38.3907 4.47124 37.5722 4.4741C37.32 4.47498 37.1138 4.4675 37.1141 4.45737C37.1143 4.44725 37.1801 4.05933 37.2603 3.59525C37.3405 3.13117 37.4063 2.74229 37.4065 2.73107C37.4077 2.6833 38.4155 2.80664 38.6022 2.87744ZM23.9896 2.86725C23.5103 2.96138 23.0614 3.20468 22.7002 3.56582C22.5226 3.74338 22.3612 3.88874 22.3414 3.88874C22.3218 3.88874 22.3518 3.71543 22.4082 3.50353C22.4646 3.29163 22.5112 3.07709 22.5116 3.02661C22.5123 2.95588 22.1273 2.93489 20.8292 2.93489C19.8753 2.93489 19.1278 2.96432 19.104 3.00284C19.0728 3.05332 17.9634 9.88538 17.9634 10.027C17.9634 10.0408 18.7367 10.052 19.6818 10.052H21.4002L21.4398 9.85024C21.4616 9.7393 21.5663 9.08717 21.6726 8.40114C21.9291 6.74395 22.101 6.35434 22.6959 6.08117C23.1204 5.88622 23.6629 5.90325 24.079 6.12454C24.2667 6.22425 24.4202 6.29095 24.4202 6.27268C24.4202 6.25441 24.5357 5.50718 24.677 4.61211C24.8182 3.71704 24.9338 2.94047 24.9338 2.88647C24.9338 2.77392 24.5084 2.76526 23.9896 2.86725ZM27.5018 2.86431C26.212 3.13344 24.9671 4.48855 24.5648 6.06122C24.1699 7.60556 24.5772 9.16524 25.5444 9.81157C25.9811 10.1034 26.3079 10.1978 26.8831 10.1983C27.5277 10.1989 28.0011 10.0304 28.6372 9.57414C28.9458 9.3527 29.2112 9.17155 29.227 9.17155C29.2428 9.17155 29.2081 9.32834 29.15 9.52006C29.0918 9.71179 29.0439 9.90989 29.0434 9.9603C29.0428 10.031 29.4286 10.052 30.7302 10.052C32.0306 10.052 32.4181 10.031 32.4192 9.9603C32.42 9.90989 32.6648 8.33378 32.9632 6.45787C33.2616 4.58203 33.4901 3.02191 33.471 2.99102C33.4519 2.96013 32.6954 2.93489 31.7898 2.93489H30.1432V3.25905C30.1432 3.81177 30.0937 3.83811 29.7529 3.46662C29.5842 3.28275 29.3109 3.0721 29.1456 2.99844C28.7832 2.83709 27.9557 2.76959 27.5018 2.86431ZM47.6311 2.86453C47.1795 2.9539 46.7334 3.20094 46.331 3.58446C46.0157 3.88492 45.9783 3.90363 46.0156 3.74199C46.0389 3.6411 46.0804 3.41761 46.1078 3.24533L46.1576 2.93211L44.4441 2.95184L42.7307 2.97158L42.1762 6.49345L41.6217 10.0153L43.3063 10.0351C44.2329 10.0459 45.0137 10.0294 45.0414 9.99838C45.069 9.96734 45.1815 9.34764 45.2911 8.62125C45.4008 7.89487 45.5378 7.14977 45.5957 6.96553C45.7111 6.59845 46.1226 6.14596 46.455 6.02094C46.7805 5.8984 47.3613 5.92775 47.6638 6.08206C47.8135 6.15844 47.9681 6.22565 48.0075 6.23137C48.0805 6.24201 48.6348 2.88772 48.5706 2.82352C48.5186 2.77164 47.9824 2.79505 47.6311 2.86453ZM51.8981 2.89175C50.8078 3.10482 49.9835 3.55673 49.2601 4.33807C47.914 5.79194 47.7298 8.05856 48.8662 9.18593C49.5342 9.8487 50.5568 10.1988 51.8247 10.1988C53.5344 10.1988 55.2112 9.40054 55.9632 8.22871C56.0882 8.03398 56.1904 7.83632 56.1904 7.78936C56.1904 7.72714 55.7531 7.7041 54.5733 7.7041H52.9561L52.677 7.99759C52.4428 8.24375 52.3508 8.29108 52.1067 8.29108C51.9173 8.29108 51.7608 8.23994 51.6585 8.14463C51.4811 7.97932 51.3821 7.57643 51.4512 7.30106L51.4974 7.11712H53.9848H56.4722L56.51 6.91535C56.5308 6.80433 56.569 6.55347 56.5948 6.35772L56.6418 6.00193L56.791 6.30342C57.0326 6.79179 57.4951 7.05094 58.4517 7.23393C58.7548 7.29197 59.0468 7.37598 59.1007 7.42066C59.3638 7.63902 59.0098 8.07096 58.5679 8.07096C58.2563 8.07096 57.6392 7.8405 57.1931 7.55757C57.002 7.43644 56.8207 7.33724 56.7902 7.33724C56.7598 7.33724 56.4657 7.8077 56.1368 8.38279L55.5388 9.42835L55.9196 9.59828C57.1153 10.1318 58.67 10.3333 59.7757 10.098C61.416 9.74899 62.4973 8.63505 62.5268 7.26386C62.5407 6.61885 62.3612 6.27796 61.8426 5.96451C61.6284 5.83501 61.2678 5.69069 61.0413 5.64373C59.8685 5.40087 59.8957 5.41202 59.8957 5.17371C59.8957 4.69745 60.7167 4.6681 61.4666 5.11765C61.6518 5.22866 61.8277 5.3195 61.8574 5.3195C61.9117 5.3195 63.033 3.44028 62.9968 3.40998C62.9861 3.4011 62.8666 3.33749 62.7314 3.26867C62.0219 2.9076 60.691 2.72138 59.7557 2.8522C58.6358 3.00885 57.9176 3.33896 57.3302 3.96695C56.9288 4.39611 56.7353 4.7962 56.6581 5.35618L56.6025 5.75973L56.5452 5.43748C56.3376 4.26829 55.4003 3.31085 54.1264 2.96644C53.5449 2.80928 52.4996 2.77428 51.8981 2.89175ZM66.1323 2.82902C66.0516 2.84765 65.804 2.89872 65.5821 2.94238C64.9938 3.05816 64.1806 3.47081 63.7871 3.8533C62.9379 4.67859 62.7582 6.09724 63.4281 6.68664C63.7452 6.96568 64.2927 7.15938 65.1593 7.2993C65.5131 7.35639 65.6413 7.56608 65.4763 7.8179C65.2295 8.19452 64.6583 8.14264 63.7536 7.6614C63.4138 7.48068 63.1135 7.35859 63.0861 7.39006C63.0588 7.42154 62.7819 7.88995 62.4709 8.431C62.043 9.17529 61.9286 9.42945 62.0011 9.47516C62.2149 9.61024 63.3223 9.97578 63.8445 10.0836C64.9979 10.3219 66.2648 10.182 67.2481 9.70797C67.7762 9.45344 68.4311 8.8129 68.6594 8.32776C68.8655 7.88966 68.9442 7.04543 68.8154 6.65509C68.6296 6.09218 68.0153 5.75115 66.7374 5.50153C66.1116 5.3793 65.9833 5.0128 66.506 4.84037C66.8745 4.71872 67.3962 4.84529 67.9552 5.1919C68.1104 5.28809 68.2461 5.35611 68.2568 5.34312C68.2675 5.33014 68.5273 4.89034 68.8341 4.36588L69.3921 3.41226L69.1331 3.27938C68.6946 3.05442 67.7821 2.85954 67.0128 2.82652C66.6093 2.80921 66.2131 2.81031 66.1323 2.82902ZM52.9514 4.80039C53.1735 4.91529 53.3289 5.19065 53.3289 5.46969C53.3289 5.64923 53.3271 5.64967 52.5628 5.64967C52.1414 5.64967 51.7797 5.62216 51.7588 5.58848C51.6808 5.46206 52.0199 4.92857 52.2507 4.81469C52.5431 4.67059 52.6943 4.66751 52.9514 4.80039ZM29.3294 5.60954C29.739 5.82136 29.8061 6.48406 29.4725 7.02379C29.0789 7.66059 28.0591 7.64555 27.8972 7.0006C27.827 6.72106 27.9135 6.23665 28.0718 6.02292C28.4169 5.55678 28.9125 5.3939 29.3294 5.60954Z" fill="#1E4718"/>
</svg>
