<svg width="841" height="542" viewBox="0 0 841 542" fill="none" xmlns="http://www.w3.org/2000/svg">
<path d="M633.682 282.24H14.0424C8.26633 282.24 4.97578 288.841 8.45262 293.454L125.877 449.232C127.199 450.987 129.269 452.019 131.466 452.019H173.31C175.167 452.019 176.947 452.756 178.26 454.069L259.692 535.501C261.005 536.814 262.785 537.551 264.642 537.551H276.337C282.482 537.551 285.645 530.199 281.418 525.737L222.773 463.833C218.546 459.372 221.709 452.019 227.854 452.019H660.55C662.542 452.019 664.439 452.867 665.767 454.351L738.122 535.219C739.45 536.703 741.347 537.551 743.339 537.551H759.543C765.552 537.551 768.768 530.479 764.818 525.95L710.455 463.62C706.505 459.092 709.722 452.019 715.73 452.019H743.435C749.108 452.019 752.425 445.625 749.157 440.987L639.404 285.209C638.093 283.348 635.958 282.24 633.682 282.24Z" fill="#254E1E" fill-opacity="0.5"/>
<g filter="url(#filter0_d_244_2568)">
<path d="M286.822 531.95L292.926 2.07604L251.06 32.4335L260.24 531.95H286.822Z" fill="#C5AD8A" stroke="#254E1E" stroke-width="2.1003"/>
<path d="M776.822 531.95L782.926 2.07604L741.06 32.4335L750.24 531.95H776.822Z" fill="#C5AD8A" stroke="#254E1E" stroke-width="2.1003"/>
<path d="M229.744 515.204C230.373 515.677 241.482 530.483 246.959 537.827H298.993C298.26 537.827 300.215 531.908 301.284 528.949C301.284 527.739 305.08 520.333 306.979 516.782L317.451 501.656C320.702 497.491 327.23 488.885 327.334 487.78C327.439 486.675 325.458 486.311 324.454 486.267C318.411 489.862 305.316 497.789 301.284 500.736C297.252 503.682 288.914 518.054 285.248 524.871V521.32L286.099 507.115L287.277 494.751C287.517 490.827 288.351 481.808 289.764 477.126C291.178 472.443 289.175 471.624 287.997 471.799C284.122 471.799 278.485 484.908 276.15 491.463L269.801 516.782L268.427 511.192L265.285 501.656L260.573 491.463L255.795 483.702L245.06 470.155C241.308 467.064 233.135 460.5 230.464 458.975C227.794 457.449 227.083 459.61 227.061 460.882C228.566 460.29 243.359 490.739 245.06 495.409C246.422 495.829 249.991 511.587 251.606 519.413L243.359 514.217C238.821 512.135 229.208 507.799 227.061 507.115C224.914 506.431 224.421 508.496 224.443 509.614C225.948 511.28 229.116 514.73 229.744 515.204Z" fill="#498A3E" stroke="#254E1E" stroke-width="1.52381"/>
<path d="M713.555 510.901C714.207 511.392 725.733 526.753 731.415 534.372H785.401C784.64 534.372 786.668 528.232 787.778 525.161C787.778 523.906 791.716 516.223 793.685 512.538L804.551 496.845C807.923 492.524 814.696 483.595 814.805 482.449C814.913 481.302 812.858 480.925 811.817 480.879C805.547 484.609 791.961 492.833 787.778 495.89C783.594 498.947 774.943 513.858 771.14 520.931V517.246L772.023 502.508L773.245 489.681C773.494 485.61 774.359 476.253 775.826 471.395C777.293 466.537 775.215 465.686 773.992 465.868C769.972 465.868 764.123 479.469 761.701 486.269L755.114 512.538L753.688 506.739L750.429 496.845L745.539 486.269L740.582 478.218L729.445 464.163C725.552 460.956 717.073 454.146 714.302 452.563C711.532 450.98 710.794 453.223 710.771 454.542C712.333 453.928 727.68 485.519 729.445 490.363C730.858 490.8 734.561 507.148 736.236 515.268L727.68 509.877C722.972 507.717 712.998 503.218 710.771 502.508C708.544 501.799 708.032 503.941 708.055 505.101C709.617 506.83 712.903 510.41 713.555 510.901Z" fill="#498A3E" stroke="#254E1E" stroke-width="1.58095"/>
<g filter="url(#filter1_d_244_2568)">
<path d="M819.192 118.838L819.245 120.014L818.072 119.9C806.199 118.742 744.172 117.968 680.283 117.582C616.427 117.197 550.832 117.2 531.888 117.587C513.27 117.968 437.819 120.009 363.921 122.309C289.986 124.61 217.709 127.168 205.367 128.576L204.119 128.718L204.283 127.475L207.695 101.526L207.797 100.75L208.574 100.645C210.55 100.377 213.112 100.033 215.905 99.6621C214.397 99.7264 212.968 99.7883 211.68 99.8447L210.961 99.8763L210.717 99.2072L209.913 97.0048L209.495 95.8598L210.713 95.6589C210.943 95.6208 211.194 95.5799 211.461 95.5368C209.207 95.468 207.151 95.4764 205.941 95.6384L205.538 95.6923L205.218 95.4526L175.67 73.3591L173.637 71.8391L176.196 71.5618C215.316 67.3211 505.907 60.2462 532.404 59.8372C567.04 59.3027 787.579 59.1954 830.996 60.7953L832.068 60.8348L831.93 61.9L829.763 78.5938L829.657 79.4088L828.837 79.4823L802.184 81.8735L824.936 86.4722L826.138 86.7152L825.627 87.8452L822.943 93.7822L822.929 93.8134L822.913 93.8436L818.434 102.212L819.192 118.838Z" fill="#E1D2BA" stroke="#254E1E" stroke-width="2"/>
<path d="M237.427 97.9855C232.913 98.3986 216.387 100.59 208.687 101.634L206.981 114.609C290.635 110.809 466.431 103.512 500.387 104.728C534.343 105.944 725.891 103.418 817.421 102.003L822.032 93.3884L824.716 87.4513L795.247 81.4948L828.77 78.4873L829.853 70.1404C715.522 73.863 477.085 82.49 437.991 87.2172C398.897 91.9445 260.171 89.0891 195.695 87.0705L205.829 94.6483C210.071 94.0804 223.559 95.3017 221.692 95.2329C220.199 95.1779 213.845 96.1509 210.854 96.6442L211.658 98.8467C222.128 98.3875 241.94 97.5724 237.427 97.9855Z" fill="#C5AD8A"/>
</g>
<path d="M825.564 413.077L825.593 414.261L824.425 414.057C818.55 413.036 800.137 412.188 775.1 411.52C750.11 410.853 718.628 410.368 686.704 410.058C622.844 409.436 557.257 409.513 538.324 410.227C519.708 410.93 442.326 414.672 366.495 418.876C328.58 420.979 291.057 423.196 261.465 425.206C231.825 427.219 210.247 429.02 204.13 430.277L203.178 430.473L202.934 429.515L196.083 402.633L195.837 401.671L196.785 401.44C204.09 399.656 219.45 395.985 224.854 394.983C224.774 394.924 224.688 394.862 224.595 394.798C223.301 393.904 221.002 392.74 218.18 391.602C212.515 389.317 205.127 387.294 200.133 387.692L199.065 387.778L199.026 386.7L198.223 364.889L198.214 364.64L198.322 364.42C199.681 361.644 201.121 358.771 202.212 356.596C202.415 356.192 202.606 355.812 202.782 355.461C203.024 354.979 203.238 354.551 203.417 354.192C202.804 354.104 202.022 353.996 201.142 353.888C199.046 353.632 196.428 353.38 194.229 353.38L193.263 353.38L193.202 352.411L181.682 169.928L181.628 169.075L182.458 168.912C192.299 166.989 217.856 164.742 250.976 162.439C284.131 160.134 324.947 157.769 365.367 155.619C446.203 151.319 525.482 147.877 538.758 147.496C573.399 146.499 793.963 146.067 837.402 148.89L838.379 148.954L838.366 149.933L836.183 322.769L836.172 323.585L835.373 323.714L803.773 328.831L831.803 355.955L832.234 356.371L832.09 356.939L829.4 367.588L829.394 367.608L829.388 367.628L824.814 382.929L825.564 413.077Z" fill="#E1D2BA" stroke="#254E1E" stroke-width="2"/>
<path d="M225.793 395.839C221.279 396.585 204.75 400.533 197.049 402.413L200.475 415.854C230.115 414.315 304.315 400.972 363.995 399.647C423.675 398.323 695.406 391.151 823.812 382.764L828.431 367.313L831.122 356.665L801.657 328.154L835.184 322.725L835.446 301.982C741.32 314.397 543.292 340.552 504.191 345.849C465.091 351.146 280.684 343.642 193.368 339.227L194.198 352.379C198.719 352.379 204.861 353.41 204.916 353.41C204.972 353.41 201.935 359.341 199.221 364.883L200.023 386.694C210.494 385.859 230.307 395.094 225.793 395.839Z" fill="#D8C5A7"/>
<path d="M184.956 205.972L187.411 244.873C285.073 249.287 597.312 220.208 635.383 220.87C673.455 221.532 742.138 225.836 836.408 225.836L837.025 177.004C735.727 182.246 473.965 207.627 432.807 214.248C391.648 220.87 266.715 207.076 184.956 205.972Z" fill="#D8C5A7"/>
</g>
<defs>
<filter id="filter0_d_244_2568" x="169.493" y="0" width="669.897" height="541.589" filterUnits="userSpaceOnUse" color-interpolation-filters="sRGB">
<feFlood flood-opacity="0" result="BackgroundImageFix"/>
<feColorMatrix in="SourceAlpha" type="matrix" values="0 0 0 0 0 0 0 0 0 0 0 0 0 0 0 0 0 0 127 0" result="hardAlpha"/>
<feOffset dx="-1.5" dy="3"/>
<feComposite in2="hardAlpha" operator="out"/>
<feColorMatrix type="matrix" values="0 0 0 0 0.145098 0 0 0 0 0.305882 0 0 0 0 0.117647 0 0 0 1 0"/>
<feBlend mode="normal" in2="BackgroundImageFix" result="effect1_dropShadow_244_2568"/>
<feBlend mode="normal" in="SourceGraphic" in2="effect1_dropShadow_244_2568" result="shape"/>
</filter>
<filter id="filter1_d_244_2568" x="169.493" y="58.4838" width="663.706" height="74.3693" filterUnits="userSpaceOnUse" color-interpolation-filters="sRGB">
<feFlood flood-opacity="0" result="BackgroundImageFix"/>
<feColorMatrix in="SourceAlpha" type="matrix" values="0 0 0 0 0 0 0 0 0 0 0 0 0 0 0 0 0 0 127 0" result="hardAlpha"/>
<feOffset dx="-1.5" dy="3"/>
<feComposite in2="hardAlpha" operator="out"/>
<feColorMatrix type="matrix" values="0 0 0 0 0.145098 0 0 0 0 0.305882 0 0 0 0 0.117647 0 0 0 1 0"/>
<feBlend mode="normal" in2="BackgroundImageFix" result="effect1_dropShadow_244_2568"/>
<feBlend mode="normal" in="SourceGraphic" in2="effect1_dropShadow_244_2568" result="shape"/>
</filter>
</defs>
</svg>
