<svg width="364" height="60" viewBox="0 0 364 60" fill="none" xmlns="http://www.w3.org/2000/svg">
<g filter="url(#filter0_d_244_2891)">
<path d="M2.11034 22.8952C2.11034 36.4318 11.8936 44.3077 22.3538 44.3077C28.6298 44.3077 35.152 41.4157 39.9514 35.3243L30.9064 26.4024C31.1526 31.2633 27.4608 34.2782 23.5844 34.2782C19.4003 34.2782 14.4164 30.771 14.4164 22.3414C14.4164 13.9118 19.3388 10.7122 23.5228 10.7122C27.5838 10.7122 31.5833 13.6656 31.5833 17.9112L39.9514 9.35854C35.3981 3.39012 29.3682 0.621259 23.3382 0.621259C12.5705 0.621259 2.11034 9.29701 2.11034 22.8952ZM56.0578 44.3077C66.8871 44.3077 71.0712 36.4933 71.1327 28.6175C71.1942 20.7416 67.0102 12.8658 56.1809 12.8658C45.2901 12.8658 41.1675 20.7416 41.1675 28.6175C41.1675 36.4933 45.2901 44.3077 56.0578 44.3077ZM51.9353 28.6175C51.9353 25.1103 53.7197 22.5875 56.1809 22.5875C58.6421 22.5875 60.3649 25.1103 60.3649 28.6175C60.3649 32.1247 58.5806 34.6474 56.1809 34.6474C53.7197 34.6474 51.9353 32.1247 51.9353 28.6175ZM72.9685 13.2349C74.4453 26.2178 74.3837 32.3093 73.0916 44H84.7823C84.2285 38.9545 83.6748 36.8625 83.5517 31.6324C83.3671 25.9101 85.7053 23.0182 88.0434 23.0182C90.4431 23.0182 92.8428 25.9101 92.8428 31.6324C92.8428 35.8165 92.4121 36.924 91.6122 44H103.303C102.565 37.3547 102.134 36.3703 102.134 32.3708C102.072 26.0332 104.472 22.9567 106.872 22.9567C109.21 22.9567 111.486 25.8486 111.486 31.6324C111.486 35.8165 111.056 36.924 110.317 44H121.947C121.147 36.924 120.777 32.74 120.777 28.4944C120.839 17.1113 115.547 12.8658 110.563 12.8658C106.072 12.8658 101.826 16.3114 101.826 21.1108H101.211C99.5495 15.327 95.6116 12.8658 91.8583 12.8658C87.4896 12.8658 83.4287 16.1269 83.4287 21.1108H82.8134C82.9364 19.8187 83.3056 15.327 83.5517 13.2349H72.9685ZM123.803 44H135.494C133.894 29.9711 133.894 27.2638 135.494 13.2349H123.803C125.403 27.2638 125.403 29.9711 123.803 44ZM124.295 0.92891V9.23548H135.063V0.92891H124.295ZM137.984 13.2349C139.46 26.2178 139.399 32.3093 138.107 44H149.613C149.121 39.6314 146.167 22.9567 153.612 22.9567C155.766 22.9567 157.858 25.4794 157.858 31.5709C157.858 35.755 157.427 36.924 156.627 44H168.318C167.58 37.3547 167.149 32.6169 167.149 28.6175C167.149 21.5415 166.226 12.9273 157.181 12.9273C154.166 12.9273 148.444 14.5271 148.444 21.1108H147.829C147.952 19.8187 148.321 15.327 148.567 13.2349H137.984ZM167.464 51.4451C171.033 54.8293 177.862 55.9984 182.108 55.9984C192.876 55.9984 202.228 46.7689 202.167 35.9396C202.105 28.3098 202.536 20.6186 203.336 13.2349H192.814L190.415 18.0958C189.369 15.0193 185.8 12.9273 182.047 12.9273C176.755 12.9273 171.094 16.9883 171.094 28.1868C171.094 39.5698 176.447 44.3077 181.554 44.3077C186.231 44.3077 190.661 40.3697 190.661 34.0936H191.338L190.784 37.847C190.353 43.8154 185.738 46.2766 180.877 46.2766C176.017 46.2766 170.971 43.8154 169.802 40.0005L167.464 51.4451ZM181.862 28.6175C181.862 25.1103 183.646 22.5875 186.108 22.5875C188.569 22.5875 190.292 25.1103 190.292 28.6175C190.292 32.1247 188.569 34.6474 186.108 34.6474C183.646 34.6474 181.923 32.1247 181.862 28.6175ZM219.929 36.924C220.914 41.1696 226.636 44.3077 232.235 44.3077C238.204 44.3077 244.111 40.7389 244.111 34.709C244.111 31.1402 242.019 29.0482 239.742 27.4484C236.727 25.3564 233.589 23.6951 233.589 21.5415C233.589 20.8031 234.02 20.434 234.512 20.434C235.743 20.434 237.589 22.3414 237.281 24.495L244.295 17.7882C241.711 14.5271 238.019 12.8658 233.466 12.8658C227.498 12.8658 221.714 16.0038 221.714 21.3569C221.714 26.2178 225.959 28.1252 228.79 30.4018C230.205 31.5709 231.312 32.863 231.312 34.6474C231.312 35.755 230.636 36.3703 229.836 36.3703C228.482 36.3703 226.759 34.5244 227.498 30.1557L219.929 36.924ZM260.417 44.3077C271.246 44.3077 275.431 36.4933 275.492 28.6175C275.554 20.7416 271.37 12.8658 260.54 12.8658C249.649 12.8658 245.527 20.7416 245.527 28.6175C245.527 36.4933 249.649 44.3077 260.417 44.3077ZM256.295 28.6175C256.295 25.1103 258.079 22.5875 260.54 22.5875C263.001 22.5875 264.724 25.1103 264.724 28.6175C264.724 32.1247 262.94 34.6474 260.54 34.6474C258.079 34.6474 256.295 32.1247 256.295 28.6175ZM291.603 44.3077C302.432 44.3077 306.616 36.4933 306.678 28.6175C306.739 20.7416 302.555 12.8658 291.726 12.8658C280.835 12.8658 276.713 20.7416 276.713 28.6175C276.713 36.4933 280.835 44.3077 291.603 44.3077ZM287.48 28.6175C287.48 25.1103 289.265 22.5875 291.726 22.5875C294.187 22.5875 295.91 25.1103 295.91 28.6175C295.91 32.1247 294.126 34.6474 291.726 34.6474C289.265 34.6474 287.48 32.1247 287.48 28.6175ZM308.514 13.2349C309.99 26.2178 309.929 32.3093 308.637 44H320.143C319.651 39.6314 316.697 22.9567 324.142 22.9567C326.296 22.9567 328.388 25.4794 328.388 31.5709C328.388 35.755 327.957 36.924 327.157 44H338.848C338.11 37.3547 337.679 32.6169 337.679 28.6175C337.679 21.5415 336.756 12.9273 327.711 12.9273C324.696 12.9273 318.974 14.5271 318.974 21.1108H318.358C318.481 19.8187 318.851 15.327 319.097 13.2349H308.514ZM340.721 44H346.751V38.2777H340.721V44ZM349.193 44H355.223V38.2777H349.193V44ZM357.666 44H363.695V38.2777H357.666V44Z" fill="#D2ECE1"/>
<path d="M39.9514 35.3243L42.1758 37.0769C43.0685 35.9439 42.9669 34.321 41.9401 33.3081L39.9514 35.3243ZM30.9064 26.4024L32.8952 24.3862C32.0636 23.566 30.8138 23.3405 29.748 23.8182C28.6822 24.296 28.0191 25.3791 28.0781 26.5456L30.9064 26.4024ZM31.5833 17.9112H28.7514C28.7514 19.0623 29.448 20.0988 30.5138 20.5335C31.5796 20.9681 32.8025 20.7145 33.6075 19.8917L31.5833 17.9112ZM39.9514 9.35854L41.9756 11.339C42.9591 10.3338 43.0559 8.75903 42.2029 7.64087L39.9514 9.35854ZM-0.721581 22.8952C-0.721581 38.0619 10.3965 47.1396 22.3538 47.1396V41.4757C13.3908 41.4757 4.94227 34.8017 4.94227 22.8952H-0.721581ZM22.3538 47.1396C29.5215 47.1396 36.8545 43.8308 42.1758 37.0769L37.7269 33.5717C33.4495 39.0007 27.7381 41.4757 22.3538 41.4757V47.1396ZM41.9401 33.3081L32.8952 24.3862L28.9177 28.4185L37.9627 37.3404L41.9401 33.3081ZM28.0781 26.5456C28.2339 29.6216 26.0124 31.4463 23.5844 31.4463V37.1102C28.9092 37.1102 34.0712 32.9049 33.7347 26.2592L28.0781 26.5456ZM23.5844 31.4463C22.2733 31.4463 20.7431 30.8933 19.5193 29.5577C18.3144 28.2429 17.2483 25.9857 17.2483 22.3414H11.5844C11.5844 27.1267 13.0103 30.838 15.3434 33.3842C17.6576 35.9096 20.7114 37.1102 23.5844 37.1102V31.4463ZM17.2483 22.3414C17.2483 18.6888 18.3027 16.5328 19.4578 15.3119C20.6309 14.0719 22.1402 13.5441 23.5228 13.5441V7.88028C20.7214 7.88028 17.6775 8.95229 15.3434 11.4195C12.9912 13.9057 11.5844 17.5644 11.5844 22.3414H17.2483ZM23.5228 13.5441C26.4962 13.5441 28.7514 15.667 28.7514 17.9112H34.4152C34.4152 11.6643 28.6714 7.88028 23.5228 7.88028V13.5441ZM33.6075 19.8917L41.9756 11.339L37.9272 7.37803L29.5591 15.9307L33.6075 19.8917ZM42.2029 7.64087C37.1413 1.00613 30.2956 -2.21066 23.3382 -2.21066V3.45318C28.4408 3.45318 33.6549 5.7741 37.6998 11.0762L42.2029 7.64087ZM23.3382 -2.21066C11.0697 -2.21066 -0.721581 7.67041 -0.721581 22.8952H4.94227C4.94227 10.9236 14.0712 3.45318 23.3382 3.45318V-2.21066ZM71.1327 28.6175L68.3009 28.5953L71.1327 28.6175ZM56.0578 47.1396C62.2263 47.1396 66.8211 44.8754 69.8237 41.2108C72.7516 37.6375 73.9303 33.0251 73.9646 28.6396L68.3009 28.5953C68.2736 32.0857 67.3295 35.3184 65.4427 37.6212C63.6306 39.8328 60.7187 41.4757 56.0578 41.4757V47.1396ZM73.9646 28.6396C73.9989 24.2392 72.8542 19.6022 69.9416 16.0058C66.9549 12.3181 62.3551 10.0338 56.1809 10.0338V15.6977C60.836 15.6977 63.7428 17.3513 65.5402 19.5705C67.4115 21.881 68.328 25.1199 68.3009 28.5953L73.9646 28.6396ZM56.1809 10.0338C49.9792 10.0338 45.378 12.3158 42.3895 16.0058C39.4774 19.6014 38.3356 24.2335 38.3356 28.6175H43.9995C43.9995 25.1255 44.9189 21.8819 46.7909 19.5705C48.5863 17.3536 51.4917 15.6977 56.1809 15.6977V10.0338ZM38.3356 28.6175C38.3356 33.0018 39.4776 37.6176 42.373 41.197C45.3446 44.8707 49.9146 47.1396 56.0578 47.1396V41.4757C51.4333 41.4757 48.5581 39.8374 46.7766 37.635C44.9187 35.3383 43.9995 32.109 43.9995 28.6175H38.3356ZM54.7672 28.6175C54.7672 27.314 55.1024 26.4116 55.4497 25.9191C55.7688 25.4665 56.0258 25.4194 56.1809 25.4194V19.7556C53.8748 19.7556 52.009 20.9699 50.8206 22.6555C49.6604 24.3011 49.1034 26.4137 49.1034 28.6175H54.7672ZM56.1809 25.4194C56.3258 25.4194 56.5612 25.4558 56.8657 25.8966C57.2036 26.3859 57.533 27.2938 57.533 28.6175H63.1969C63.1969 26.4339 62.6649 24.3268 61.5261 22.6779C60.3538 20.9806 58.4972 19.7556 56.1809 19.7556V25.4194ZM57.533 28.6175C57.533 29.9204 57.198 30.829 56.8504 31.327C56.5258 31.7922 56.2809 31.8155 56.1809 31.8155V37.4793C58.4806 37.4793 60.3277 36.2413 61.4952 34.5683C62.6397 32.9281 63.1969 30.8218 63.1969 28.6175H57.533ZM56.1809 31.8155C56.0258 31.8155 55.7688 31.7685 55.4497 31.3158C55.1024 30.8233 54.7672 29.9209 54.7672 28.6175H49.1034C49.1034 30.8212 49.6604 32.9338 50.8206 34.5795C52.009 36.265 53.8748 37.4793 56.1809 37.4793V31.8155ZM72.9685 13.2349V10.403C72.1617 10.403 71.3932 10.7471 70.8559 11.349C70.3186 11.9509 70.0636 12.7534 70.1548 13.555L72.9685 13.2349ZM73.0916 44L70.2768 43.6889C70.1883 44.4893 70.4448 45.2894 70.982 45.8893C71.5192 46.4891 72.2864 46.8319 73.0916 46.8319V44ZM84.7823 44V46.8319C85.5872 46.8319 86.354 46.4894 86.8912 45.8901C87.4284 45.2907 87.6852 44.4911 87.5973 43.691L84.7823 44ZM83.5517 31.6324L86.3829 31.5658C86.3827 31.5576 86.3824 31.5494 86.3822 31.5411L83.5517 31.6324ZM91.6122 44L88.7982 43.6819C88.7076 44.4833 88.9629 45.2852 89.5002 45.8867C90.0375 46.4881 90.8057 46.8319 91.6122 46.8319V44ZM103.303 44V46.8319C104.108 46.8319 104.876 46.4889 105.413 45.8887C105.95 45.2885 106.206 44.4879 106.117 43.6873L103.303 44ZM102.134 32.3708H104.966C104.966 32.3616 104.966 32.3525 104.966 32.3433L102.134 32.3708ZM110.317 44L107.501 43.7061C107.417 44.504 107.676 45.2997 108.214 45.8957C108.751 46.4917 109.515 46.8319 110.317 46.8319V44ZM121.947 44V46.8319C122.753 46.8319 123.521 46.4881 124.058 45.8867C124.596 45.2852 124.851 44.4833 124.761 43.6819L121.947 44ZM120.777 28.4944L117.946 28.4791C117.946 28.4842 117.946 28.4893 117.946 28.4944H120.777ZM101.826 21.1108V23.9427C103.39 23.9427 104.658 22.6748 104.658 21.1108H101.826ZM101.211 21.1108L98.489 21.8926C98.8377 23.1064 99.9479 23.9427 101.211 23.9427V21.1108ZM83.4287 21.1108V23.9427C84.9927 23.9427 86.2606 22.6748 86.2606 21.1108H83.4287ZM82.8134 21.1108L79.9942 20.8423C79.9185 21.6365 80.1814 22.4257 80.7181 23.016C81.2548 23.6062 82.0156 23.9427 82.8134 23.9427V21.1108ZM83.5517 13.2349L86.3642 13.5658C86.4587 12.7627 86.2053 11.9574 85.6679 11.3531C85.1305 10.7488 84.3604 10.403 83.5517 10.403V13.2349ZM70.1548 13.555C71.6077 26.3285 71.5457 32.2082 70.2768 43.6889L75.9064 44.3111C77.2217 32.4103 77.2829 26.1071 75.7823 12.9149L70.1548 13.555ZM73.0916 46.8319H84.7823V41.1681H73.0916V46.8319ZM87.5973 43.691C87.0139 38.3755 86.5023 36.6418 86.3829 31.5658L80.7206 31.6991C80.8473 37.0832 81.4432 39.5336 81.9673 44.309L87.5973 43.691ZM86.3822 31.5411C86.3017 29.0457 86.7856 27.4693 87.2868 26.625C87.5332 26.2098 87.7596 26.0087 87.8914 25.9216C87.9564 25.8786 88.0001 25.8617 88.0202 25.8554C88.0306 25.8522 88.037 25.851 88.0398 25.8505C88.0413 25.8503 88.0423 25.8502 88.0427 25.8502C88.0432 25.8501 88.0434 25.8501 88.0434 25.8501V20.1863C85.6019 20.1863 83.6236 21.7001 82.4163 23.734C81.2101 25.7661 80.6172 28.4969 80.7213 31.7237L86.3822 31.5411ZM88.0434 25.8501C88.0567 25.8501 88.1318 25.8503 88.2774 25.9436C88.4319 26.0427 88.6765 26.2568 88.9422 26.6815C89.4824 27.5449 90.0108 29.1334 90.0108 31.6324H95.6747C95.6747 28.4092 95.0033 25.6906 93.7437 23.6774C92.4815 21.6601 90.48 20.1863 88.0434 20.1863V25.8501ZM90.0108 31.6324C90.0108 35.6072 89.6309 36.3153 88.7982 43.6819L94.4262 44.3181C95.1932 37.5327 95.6747 36.0258 95.6747 31.6324H90.0108ZM91.6122 46.8319H103.303V41.1681H91.6122V46.8319ZM106.117 43.6873C105.342 36.7097 104.966 36.1693 104.966 32.3708H99.3019C99.3019 36.5712 99.7868 37.9998 100.488 44.3127L106.117 43.6873ZM104.966 32.3433C104.938 29.4961 105.472 27.6837 106.039 26.6922C106.607 25.6971 107.006 25.7886 106.872 25.7886V20.1248C104.337 20.1248 102.337 21.7545 101.121 23.8821C99.9032 26.0133 99.2681 28.9079 99.302 32.3983L104.966 32.3433ZM106.872 25.7886C106.872 25.7886 106.872 25.7886 106.872 25.7886C106.872 25.7886 106.872 25.7887 106.873 25.7888C106.875 25.789 106.879 25.7899 106.888 25.7926C106.904 25.7977 106.945 25.813 107.008 25.8552C107.137 25.9414 107.367 26.1453 107.623 26.575C108.145 27.4518 108.654 29.0733 108.654 31.6324H114.318C114.318 28.4077 113.689 25.6913 112.489 23.6762C111.285 21.6552 109.328 20.1248 106.872 20.1248V25.7886ZM108.654 31.6324C108.654 35.6274 108.271 36.3208 107.501 43.7061L113.134 44.2939C113.84 37.5272 114.318 36.0056 114.318 31.6324H108.654ZM110.317 46.8319H121.947V41.1681H110.317V46.8319ZM124.761 43.6819C123.962 36.6144 123.609 32.5675 123.609 28.4944H117.946C117.946 32.9125 118.332 37.2337 119.133 44.3181L124.761 43.6819ZM123.609 28.5097C123.642 22.4094 122.245 17.8095 119.795 14.6694C117.307 11.4796 113.905 10.0338 110.563 10.0338V15.6977C112.206 15.6977 113.942 16.3747 115.33 18.1534C116.756 19.9819 117.974 23.1964 117.946 28.4791L123.609 28.5097ZM110.563 10.0338C104.794 10.0338 98.9942 14.4755 98.9942 21.1108H104.658C104.658 18.1474 107.349 15.6977 110.563 15.6977V10.0338ZM101.826 18.2789H101.211V23.9427H101.826V18.2789ZM103.933 20.329C101.966 13.4825 97.0252 10.0338 91.8583 10.0338V15.6977C94.1981 15.6977 97.1329 17.1714 98.489 21.8926L103.933 20.329ZM91.8583 10.0338C86.149 10.0338 80.5967 14.3484 80.5967 21.1108H86.2606C86.2606 17.9053 88.8303 15.6977 91.8583 15.6977V10.0338ZM83.4287 18.2789H82.8134V23.9427H83.4287V18.2789ZM85.6325 21.3793C85.7641 19.9977 86.1224 15.6217 86.3642 13.5658L80.7392 12.9041C80.4888 15.0322 80.1087 19.6396 79.9942 20.8423L85.6325 21.3793ZM83.5517 10.403H72.9685V16.0669H83.5517V10.403ZM123.803 44L120.989 43.6791C120.898 44.4809 121.153 45.2836 121.69 45.8856C122.227 46.4877 122.996 46.8319 123.803 46.8319V44ZM135.494 44V46.8319C136.301 46.8319 137.069 46.4877 137.607 45.8856C138.144 45.2836 138.399 44.4809 138.307 43.6791L135.494 44ZM135.494 13.2349L138.307 13.5558C138.399 12.754 138.144 11.9514 137.607 11.3493C137.069 10.7473 136.301 10.403 135.494 10.403V13.2349ZM123.803 13.2349V10.403C122.996 10.403 122.227 10.7473 121.69 11.3493C121.153 11.9514 120.898 12.754 120.989 13.5558L123.803 13.2349ZM124.295 0.92891V-1.90301C122.731 -1.90301 121.463 -0.635118 121.463 0.92891H124.295ZM124.295 9.23548H121.463C121.463 10.7995 122.731 12.0674 124.295 12.0674V9.23548ZM135.063 9.23548V12.0674C136.627 12.0674 137.895 10.7995 137.895 9.23548H135.063ZM135.063 0.92891H137.895C137.895 -0.635118 136.627 -1.90301 135.063 -1.90301V0.92891ZM123.803 46.8319H135.494V41.1681H123.803V46.8319ZM138.307 43.6791C137.507 36.6577 137.126 32.621 137.126 28.6175C137.126 24.614 137.507 20.5773 138.307 13.5558L132.68 12.9141C131.881 19.9215 131.462 24.2529 131.462 28.6175C131.462 32.9821 131.881 37.3135 132.68 44.3209L138.307 43.6791ZM135.494 10.403H123.803V16.0669H135.494V10.403ZM120.989 13.5558C121.79 20.5773 122.171 24.614 122.171 28.6175C122.171 32.621 121.79 36.6577 120.989 43.6791L126.617 44.3209C127.416 37.3135 127.835 32.9821 127.835 28.6175C127.835 24.2529 127.416 19.9215 126.617 12.9141L120.989 13.5558ZM121.463 0.92891V9.23548H127.127V0.92891H121.463ZM124.295 12.0674H135.063V6.40356H124.295V12.0674ZM137.895 9.23548V0.92891H132.231V9.23548H137.895ZM135.063 -1.90301H124.295V3.76083H135.063V-1.90301ZM137.984 13.2349V10.403C137.177 10.403 136.408 10.7471 135.871 11.349C135.334 11.9509 135.079 12.7534 135.17 13.555L137.984 13.2349ZM138.107 44L135.292 43.6889C135.204 44.4893 135.46 45.2894 135.997 45.8893C136.534 46.4891 137.302 46.8319 138.107 46.8319V44ZM149.613 44V46.8319C150.419 46.8319 151.187 46.4882 151.725 45.887C152.262 45.2858 152.517 44.4841 152.427 43.6829L149.613 44ZM156.627 44L153.813 43.6819C153.723 44.4833 153.978 45.2852 154.515 45.8867C155.053 46.4881 155.821 46.8319 156.627 46.8319V44ZM168.318 44V46.8319C169.124 46.8319 169.891 46.4889 170.428 45.8887C170.965 45.2885 171.222 44.4879 171.133 43.6873L168.318 44ZM148.444 21.1108V23.9427C150.008 23.9427 151.276 22.6748 151.276 21.1108H148.444ZM147.829 21.1108L145.009 20.8423C144.934 21.6365 145.197 22.4257 145.733 23.016C146.27 23.6062 147.031 23.9427 147.829 23.9427V21.1108ZM148.567 13.2349L151.379 13.5658C151.474 12.7627 151.221 11.9574 150.683 11.3531C150.146 10.7488 149.376 10.403 148.567 10.403V13.2349ZM135.17 13.555C136.623 26.3285 136.561 32.2082 135.292 43.6889L140.922 44.3111C142.237 32.4103 142.298 26.1071 140.798 12.9149L135.17 13.555ZM138.107 46.8319H149.613V41.1681H138.107V46.8319ZM152.427 43.6829C152.157 41.2874 151.344 36.3702 151.467 31.9186C151.529 29.6765 151.83 27.9263 152.343 26.8293C152.584 26.313 152.813 26.0719 152.962 25.9621C153.077 25.8776 153.248 25.7886 153.612 25.7886V20.1248C152.115 20.1248 150.75 20.5569 149.604 21.4013C148.491 22.2205 147.733 23.3162 147.212 24.4315C146.2 26.5975 145.874 29.289 145.805 31.7616C145.667 36.7395 146.577 42.344 146.799 44.3171L152.427 43.6829ZM153.612 25.7886C153.423 25.7886 153.657 25.6337 154.081 26.3801C154.541 27.1877 155.026 28.7957 155.026 31.5709H160.69C160.69 28.2547 160.129 25.5556 159.004 23.5789C157.844 21.5411 155.955 20.1248 153.612 20.1248V25.7886ZM155.026 31.5709C155.026 35.5449 154.645 36.3243 153.813 43.6819L159.441 44.3181C160.209 37.5238 160.69 35.965 160.69 31.5709H155.026ZM156.627 46.8319H168.318V41.1681H156.627V46.8319ZM171.133 43.6873C170.394 37.036 169.981 32.4413 169.981 28.6175H164.317C164.317 32.7925 164.766 37.6735 165.504 44.3127L171.133 43.6873ZM169.981 28.6175C169.981 25.0728 169.773 20.6026 168.141 16.9609C167.298 15.0796 166.033 13.3165 164.14 12.0375C162.237 10.7514 159.908 10.0954 157.181 10.0954V15.7592C158.977 15.7592 160.155 16.18 160.969 16.7301C161.793 17.2875 162.454 18.1202 162.973 19.2769C164.063 21.7113 164.317 25.0861 164.317 28.6175H169.981ZM157.181 10.0954C155.276 10.0954 152.493 10.582 150.095 12.2046C147.541 13.9324 145.612 16.8406 145.612 21.1108H151.276C151.276 18.7973 152.208 17.6137 153.269 16.8956C154.486 16.0725 156.071 15.7592 157.181 15.7592V10.0954ZM148.444 18.2789H147.829V23.9427H148.444V18.2789ZM150.648 21.3793C150.779 19.9977 151.138 15.6217 151.379 13.5658L145.754 12.9041C145.504 15.0322 145.124 19.6396 145.009 20.8423L150.648 21.3793ZM148.567 10.403H137.984V16.0669H148.567V10.403ZM167.464 51.4451L164.689 50.8783C164.494 51.8362 164.806 52.8273 165.515 53.5001L167.464 51.4451ZM202.167 35.9396L204.999 35.9235L204.999 35.9167L202.167 35.9396ZM203.336 13.2349L206.151 13.5399C206.238 12.7405 205.981 11.9418 205.444 11.3434C204.906 10.7449 204.14 10.403 203.336 10.403V13.2349ZM192.814 13.2349V10.403C191.736 10.403 190.752 11.0149 190.275 11.9813L192.814 13.2349ZM190.415 18.0958L187.733 19.0074C188.102 20.0914 189.087 20.8468 190.23 20.9217C191.372 20.9965 192.447 20.3761 192.954 19.3494L190.415 18.0958ZM190.661 34.0936V31.2617C189.097 31.2617 187.829 32.5296 187.829 34.0936H190.661ZM191.338 34.0936L194.139 34.507C194.259 33.6926 194.019 32.8662 193.481 32.2431C192.943 31.6199 192.161 31.2617 191.338 31.2617V34.0936ZM190.784 37.847L187.982 37.4336C187.972 37.5032 187.964 37.5731 187.959 37.6432L190.784 37.847ZM169.802 40.0005L172.51 39.1708C172.13 37.9328 170.96 37.1098 169.666 37.1719C168.373 37.2339 167.287 38.1651 167.027 39.4337L169.802 40.0005ZM181.862 28.6175H179.03C179.03 28.634 179.03 28.6506 179.03 28.6671L181.862 28.6175ZM165.515 53.5001C167.789 55.6563 170.907 56.9556 173.803 57.7273C176.744 58.5109 179.759 58.8303 182.108 58.8303V53.1665C180.211 53.1665 177.689 52.9013 175.261 52.2544C172.789 51.5955 170.707 50.6182 169.413 49.3902L165.515 53.5001ZM182.108 58.8303C194.42 58.8303 205.069 48.3494 204.999 35.9235L199.335 35.9556C199.387 45.1883 191.332 53.1665 182.108 53.1665V58.8303ZM204.999 35.9167C204.938 28.4063 205.362 20.8249 206.151 13.5399L200.521 12.9299C199.71 20.4122 199.273 28.2133 199.335 35.9624L204.999 35.9167ZM203.336 10.403H192.814V16.0669H203.336V10.403ZM190.275 11.9813L187.875 16.8422L192.954 19.3494L195.354 14.4885L190.275 11.9813ZM193.096 17.1842C191.553 12.6471 186.646 10.0954 182.047 10.0954V15.7592C184.954 15.7592 187.184 17.3916 187.733 19.0074L193.096 17.1842ZM182.047 10.0954C178.657 10.0954 175.104 11.4112 172.439 14.5112C169.795 17.5854 168.262 22.1301 168.262 28.1868H173.926C173.926 23.045 175.223 19.9599 176.733 18.204C178.221 16.4739 180.144 15.7592 182.047 15.7592V10.0954ZM168.262 28.1868C168.262 34.2948 169.697 38.9878 172.152 42.2267C174.638 45.5048 178.071 47.1396 181.554 47.1396V41.4757C179.931 41.4757 178.134 40.7416 176.666 38.805C175.168 36.8293 173.926 33.4618 173.926 28.1868H168.262ZM181.554 47.1396C187.912 47.1396 193.493 41.8138 193.493 34.0936H187.829C187.829 38.9256 184.549 41.4757 181.554 41.4757V47.1396ZM190.661 36.9256H191.338V31.2617H190.661V36.9256ZM188.536 33.6803L187.982 37.4336L193.585 38.2603L194.139 34.507L188.536 33.6803ZM187.959 37.6432C187.8 39.855 186.917 41.1916 185.793 42.0344C184.59 42.9366 182.868 43.4447 180.877 43.4447V49.1085C183.748 49.1085 186.764 48.3861 189.191 46.5655C191.698 44.6856 193.337 41.8074 193.608 38.0508L187.959 37.6432ZM180.877 43.4447C178.894 43.4447 176.885 42.9359 175.305 42.0794C173.698 41.2086 172.807 40.1405 172.51 39.1708L167.094 40.8303C167.966 43.6754 170.182 45.7454 172.606 47.0589C175.056 48.3867 178 49.1085 180.877 49.1085V43.4447ZM167.027 39.4337L164.689 50.8783L170.239 52.012L172.577 40.5674L167.027 39.4337ZM184.694 28.6175C184.694 27.314 185.029 26.4116 185.376 25.9191C185.695 25.4665 185.952 25.4194 186.108 25.4194V19.7556C183.801 19.7556 181.936 20.9699 180.747 22.6555C179.587 24.3011 179.03 26.4137 179.03 28.6175H184.694ZM186.108 25.4194C186.252 25.4194 186.488 25.4558 186.792 25.8966C187.13 26.3859 187.46 27.2938 187.46 28.6175H193.123C193.123 26.4339 192.591 24.3268 191.453 22.6779C190.28 20.9806 188.424 19.7556 186.108 19.7556V25.4194ZM187.46 28.6175C187.46 29.9411 187.13 30.849 186.792 31.3383C186.488 31.7792 186.252 31.8155 186.108 31.8155V37.4793C188.424 37.4793 190.28 36.2543 191.453 34.557C192.591 32.9081 193.123 30.801 193.123 28.6175H187.46ZM186.108 31.8155C185.964 31.8155 185.723 31.7799 185.407 31.327C185.058 30.826 184.717 29.9046 184.693 28.5678L179.03 28.6671C179.069 30.8376 179.62 32.9312 180.762 34.5683C181.939 36.2536 183.79 37.4793 186.108 37.4793V31.8155ZM219.929 36.924L218.042 34.8131C217.271 35.5023 216.937 36.5566 217.171 37.5637L219.929 36.924ZM239.742 27.4484L241.37 25.1313C241.366 25.1281 241.361 25.1249 241.357 25.1217L239.742 27.4484ZM237.281 24.495L234.477 24.0945C234.307 25.2896 234.912 26.4616 235.986 27.0135C237.06 27.5655 238.365 27.3761 239.238 26.5418L237.281 24.495ZM244.295 17.7882L246.252 19.835C247.309 18.8245 247.423 17.1754 246.515 16.0293L244.295 17.7882ZM228.79 30.4018L230.593 28.2185C230.584 28.2107 230.574 28.2029 230.565 28.1952L228.79 30.4018ZM227.498 30.1557L230.29 30.6277C230.49 29.4413 229.919 28.2577 228.866 27.6763C227.812 27.0949 226.507 27.2427 225.61 28.0448L227.498 30.1557ZM217.171 37.5637C217.901 40.7119 220.276 43.1082 222.924 44.6538C225.615 46.2241 228.939 47.1396 232.235 47.1396V41.4757C229.933 41.4757 227.596 40.8221 225.779 39.7621C223.921 38.6773 222.943 37.3818 222.688 36.2843L217.171 37.5637ZM232.235 47.1396C235.744 47.1396 239.324 46.0986 242.096 44.0454C244.921 41.9537 246.943 38.7601 246.943 34.709H241.279C241.279 36.6878 240.347 38.2935 238.726 39.4936C237.053 40.7324 234.695 41.4757 232.235 41.4757V47.1396ZM246.943 34.709C246.943 29.7501 243.914 26.9185 241.37 25.1313L238.114 29.7655C240.124 31.1779 241.279 32.5303 241.279 34.709H246.943ZM241.357 25.1217C239.635 23.9272 238.38 23.1826 237.323 22.3224C236.204 21.4101 236.421 21.2034 236.421 21.5415H230.757C230.757 24.0331 232.544 25.7339 233.746 26.7137C235.013 27.7455 236.834 28.8776 238.128 29.7751L241.357 25.1217ZM236.421 21.5415C236.421 21.7248 236.359 22.1821 235.954 22.6244C235.543 23.0725 234.993 23.2659 234.512 23.2659V17.602C233.539 17.602 232.528 17.98 231.778 18.7972C231.035 19.6087 230.757 20.6198 230.757 21.5415H236.421ZM234.512 23.2659C234.305 23.2659 234.161 23.2269 234.094 23.2044C234.025 23.1811 233.999 23.1625 234.01 23.1698C234.039 23.1877 234.13 23.2564 234.233 23.3891C234.452 23.6721 234.5 23.937 234.477 24.0945L240.084 24.8954C240.37 22.8993 239.648 21.1337 238.714 19.9246C237.885 18.8531 236.383 17.602 234.512 17.602V23.2659ZM239.238 26.5418L246.252 19.835L242.338 15.7413L235.324 22.4481L239.238 26.5418ZM246.515 16.0293C243.331 12.0114 238.778 10.0338 233.466 10.0338V15.6977C237.26 15.6977 240.091 17.0428 242.076 19.547L246.515 16.0293ZM233.466 10.0338C230.031 10.0338 226.524 10.9286 223.787 12.7438C221.002 14.5906 218.882 17.5155 218.882 21.3569H224.546C224.546 19.8452 225.318 18.5245 226.917 17.464C228.564 16.372 230.932 15.6977 233.466 15.6977V10.0338ZM218.882 21.3569C218.882 24.7714 220.433 27.1535 222.221 28.8839C223.081 29.7157 224.013 30.4163 224.832 31.0075C225.707 31.6394 226.384 32.1008 227.015 32.6085L230.565 28.1952C229.781 27.5646 228.865 26.9338 228.148 26.4159C227.375 25.8572 226.715 25.3503 226.159 24.8131C225.118 23.8053 224.546 22.8033 224.546 21.3569H218.882ZM226.986 32.5851C228.266 33.6427 228.481 34.2038 228.481 34.6474H234.144C234.144 31.5223 232.143 29.4991 230.593 28.2185L226.986 32.5851ZM228.481 34.6474C228.481 34.6178 228.499 34.323 228.791 34.0056C229.087 33.6848 229.487 33.5383 229.836 33.5383V39.2022C230.984 39.2022 232.123 38.7481 232.957 37.8427C233.788 36.9408 234.144 35.7846 234.144 34.6474H228.481ZM229.836 33.5383C230.5 33.5383 230.573 33.949 230.411 33.627C230.258 33.322 229.986 32.4268 230.29 30.6277L224.705 29.6838C224.271 32.2533 224.492 34.4654 225.353 36.1754C226.206 37.8686 227.818 39.2022 229.836 39.2022V33.5383ZM225.61 28.0448L218.042 34.8131L221.817 39.035L229.385 32.2666L225.61 28.0448ZM275.492 28.6175L272.66 28.5953L275.492 28.6175ZM260.417 47.1396C266.586 47.1396 271.18 44.8754 274.183 41.2108C277.111 37.6375 278.29 33.0251 278.324 28.6396L272.66 28.5953C272.633 32.0857 271.689 35.3184 269.802 37.6212C267.99 39.8328 265.078 41.4757 260.417 41.4757V47.1396ZM278.324 28.6396C278.358 24.2392 277.214 19.6022 274.301 16.0058C271.314 12.3181 266.714 10.0338 260.54 10.0338V15.6977C265.195 15.6977 268.102 17.3513 269.899 19.5705C271.771 21.881 272.687 25.1199 272.66 28.5953L278.324 28.6396ZM260.54 10.0338C254.339 10.0338 249.737 12.3158 246.749 16.0058C243.837 19.6014 242.695 24.2335 242.695 28.6175H248.359C248.359 25.1255 249.278 21.8819 251.15 19.5705C252.946 17.3536 255.851 15.6977 260.54 15.6977V10.0338ZM242.695 28.6175C242.695 33.0018 243.837 37.6176 246.732 41.197C249.704 44.8707 254.274 47.1396 260.417 47.1396V41.4757C255.793 41.4757 252.917 39.8374 251.136 37.635C249.278 35.3383 248.359 32.109 248.359 28.6175H242.695ZM259.127 28.6175C259.127 27.314 259.462 26.4116 259.809 25.9191C260.128 25.4665 260.385 25.4194 260.54 25.4194V19.7556C258.234 19.7556 256.368 20.9699 255.18 22.6555C254.02 24.3011 253.463 26.4137 253.463 28.6175H259.127ZM260.54 25.4194C260.685 25.4194 260.921 25.4558 261.225 25.8966C261.563 26.3859 261.892 27.2938 261.892 28.6175H267.556C267.556 26.4339 267.024 24.3268 265.885 22.6779C264.713 20.9806 262.857 19.7556 260.54 19.7556V25.4194ZM261.892 28.6175C261.892 29.9204 261.557 30.829 261.21 31.327C260.885 31.7922 260.64 31.8155 260.54 31.8155V37.4793C262.84 37.4793 264.687 36.2413 265.854 34.5683C266.999 32.9281 267.556 30.8218 267.556 28.6175H261.892ZM260.54 31.8155C260.385 31.8155 260.128 31.7685 259.809 31.3158C259.462 30.8233 259.127 29.9209 259.127 28.6175H253.463C253.463 30.8212 254.02 32.9338 255.18 34.5795C256.368 36.265 258.234 37.4793 260.54 37.4793V31.8155ZM306.678 28.6175L303.846 28.5953L306.678 28.6175ZM291.603 47.1396C297.771 47.1396 302.366 44.8754 305.369 41.2108C308.297 37.6375 309.475 33.0251 309.51 28.6396L303.846 28.5953C303.819 32.0857 302.874 35.3184 300.988 37.6212C299.176 39.8328 296.264 41.4757 291.603 41.4757V47.1396ZM309.51 28.6396C309.544 24.2392 308.399 19.6022 305.487 16.0058C302.5 12.3181 297.9 10.0338 291.726 10.0338V15.6977C296.381 15.6977 299.288 17.3513 301.085 19.5705C302.956 21.881 303.873 25.1199 303.846 28.5953L309.51 28.6396ZM291.726 10.0338C285.524 10.0338 280.923 12.3158 277.934 16.0058C275.022 19.6014 273.881 24.2335 273.881 28.6175H279.544C279.544 25.1255 280.464 21.8819 282.336 19.5705C284.131 17.3536 287.037 15.6977 291.726 15.6977V10.0338ZM273.881 28.6175C273.881 33.0018 275.023 37.6176 277.918 41.197C280.89 44.8707 285.46 47.1396 291.603 47.1396V41.4757C286.978 41.4757 284.103 39.8374 282.322 37.635C280.464 35.3383 279.544 32.109 279.544 28.6175H273.881ZM290.312 28.6175C290.312 27.314 290.647 26.4116 290.995 25.9191C291.314 25.4665 291.571 25.4194 291.726 25.4194V19.7556C289.42 19.7556 287.554 20.9699 286.366 22.6555C285.205 24.3011 284.648 26.4137 284.648 28.6175H290.312ZM291.726 25.4194C291.871 25.4194 292.106 25.4558 292.411 25.8966C292.749 26.3859 293.078 27.2938 293.078 28.6175H298.742C298.742 26.4339 298.21 24.3268 297.071 22.6779C295.899 20.9806 294.042 19.7556 291.726 19.7556V25.4194ZM293.078 28.6175C293.078 29.9204 292.743 30.829 292.395 31.327C292.071 31.7922 291.826 31.8155 291.726 31.8155V37.4793C294.026 37.4793 295.873 36.2413 297.04 34.5683C298.185 32.9281 298.742 30.8218 298.742 28.6175H293.078ZM291.726 31.8155C291.571 31.8155 291.314 31.7685 290.995 31.3158C290.647 30.8233 290.312 29.9209 290.312 28.6175H284.648C284.648 30.8212 285.205 32.9338 286.366 34.5795C287.554 36.265 289.42 37.4793 291.726 37.4793V31.8155ZM308.514 13.2349V10.403C307.707 10.403 306.938 10.7471 306.401 11.349C305.864 11.9509 305.609 12.7534 305.7 13.555L308.514 13.2349ZM308.637 44L305.822 43.6889C305.733 44.4893 305.99 45.2894 306.527 45.8893C307.064 46.4891 307.831 46.8319 308.637 46.8319V44ZM320.143 44V46.8319C320.949 46.8319 321.717 46.4882 322.254 45.887C322.792 45.2858 323.047 44.4841 322.957 43.6829L320.143 44ZM327.157 44L324.343 43.6819C324.253 44.4833 324.508 45.2852 325.045 45.8867C325.583 46.4881 326.351 46.8319 327.157 46.8319V44ZM338.848 44V46.8319C339.653 46.8319 340.421 46.4889 340.958 45.8887C341.495 45.2885 341.751 44.4879 341.663 43.6873L338.848 44ZM318.974 21.1108V23.9427C320.538 23.9427 321.806 22.6748 321.806 21.1108H318.974ZM318.358 21.1108L315.539 20.8423C315.464 21.6365 315.726 22.4257 316.263 23.016C316.8 23.6062 317.561 23.9427 318.358 23.9427V21.1108ZM319.097 13.2349L321.909 13.5658C322.004 12.7627 321.75 11.9574 321.213 11.3531C320.676 10.7488 319.905 10.403 319.097 10.403V13.2349ZM305.7 13.555C307.153 26.3285 307.091 32.2082 305.822 43.6889L311.451 44.3111C312.767 32.4103 312.828 26.1071 311.327 12.9149L305.7 13.555ZM308.637 46.8319H320.143V41.1681H308.637V46.8319ZM322.957 43.6829C322.687 41.2874 321.873 36.3702 321.997 31.9186C322.059 29.6765 322.36 27.9263 322.873 26.8293C323.114 26.313 323.343 26.0719 323.492 25.9621C323.607 25.8776 323.778 25.7886 324.142 25.7886V20.1248C322.645 20.1248 321.28 20.5569 320.133 21.4013C319.021 22.2205 318.263 23.3162 317.742 24.4315C316.729 26.5975 316.404 29.289 316.335 31.7616C316.197 36.7395 317.106 42.344 317.329 44.3171L322.957 43.6829ZM324.142 25.7886C323.953 25.7886 324.186 25.6337 324.611 26.3801C325.071 27.1877 325.556 28.7957 325.556 31.5709H331.22C331.22 28.2547 330.659 25.5556 329.534 23.5789C328.374 21.5411 326.485 20.1248 324.142 20.1248V25.7886ZM325.556 31.5709C325.556 35.5449 325.175 36.3243 324.343 43.6819L329.971 44.3181C330.739 37.5238 331.22 35.965 331.22 31.5709H325.556ZM327.157 46.8319H338.848V41.1681H327.157V46.8319ZM341.663 43.6873C340.923 37.036 340.511 32.4413 340.511 28.6175H334.847C334.847 32.7925 335.296 37.6735 336.033 44.3127L341.663 43.6873ZM340.511 28.6175C340.511 25.0728 340.303 20.6026 338.671 16.9609C337.828 15.0796 336.562 13.3165 334.67 12.0375C332.767 10.7514 330.438 10.0954 327.711 10.0954V15.7592C329.507 15.7592 330.684 16.18 331.499 16.7301C332.323 17.2875 332.984 18.1202 333.502 19.2769C334.593 21.7113 334.847 25.0861 334.847 28.6175H340.511ZM327.711 10.0954C325.806 10.0954 323.023 10.582 320.625 12.2046C318.071 13.9324 316.142 16.8406 316.142 21.1108H321.806C321.806 18.7973 322.737 17.6137 323.799 16.8956C325.015 16.0725 326.601 15.7592 327.711 15.7592V10.0954ZM318.974 18.2789H318.358V23.9427H318.974V18.2789ZM321.178 21.3793C321.309 19.9977 321.667 15.6217 321.909 13.5658L316.284 12.9041C316.034 15.0322 315.654 19.6396 315.539 20.8423L321.178 21.3793ZM319.097 10.403H308.514V16.0669H319.097V10.403ZM340.721 44H337.889C337.889 45.564 339.157 46.8319 340.721 46.8319V44ZM346.751 44V46.8319C348.315 46.8319 349.583 45.564 349.583 44H346.751ZM346.751 38.2777H349.583C349.583 36.7137 348.315 35.4458 346.751 35.4458V38.2777ZM340.721 38.2777V35.4458C339.157 35.4458 337.889 36.7137 337.889 38.2777H340.721ZM340.721 46.8319H346.751V41.1681H340.721V46.8319ZM349.583 44V38.2777H343.919V44H349.583ZM346.751 35.4458H340.721V41.1096H346.751V35.4458ZM337.889 38.2777V44H343.553V38.2777H337.889ZM349.193 44H346.361C346.361 45.564 347.629 46.8319 349.193 46.8319V44ZM355.223 44V46.8319C356.787 46.8319 358.055 45.564 358.055 44H355.223ZM355.223 38.2777H358.055C358.055 36.7137 356.787 35.4458 355.223 35.4458V38.2777ZM349.193 38.2777V35.4458C347.629 35.4458 346.361 36.7137 346.361 38.2777H349.193ZM349.193 46.8319H355.223V41.1681H349.193V46.8319ZM358.055 44V38.2777H352.391V44H358.055ZM355.223 35.4458H349.193V41.1096H355.223V35.4458ZM346.361 38.2777V44H352.025V38.2777H346.361ZM357.666 44H354.834C354.834 45.564 356.102 46.8319 357.666 46.8319V44ZM363.695 44V46.8319C365.26 46.8319 366.527 45.564 366.527 44H363.695ZM363.695 38.2777H366.527C366.527 36.7137 365.26 35.4458 363.695 35.4458V38.2777ZM357.666 38.2777V35.4458C356.102 35.4458 354.834 36.7137 354.834 38.2777H357.666ZM357.666 46.8319H363.695V41.1681H357.666V46.8319ZM366.527 44V38.2777H360.864V44H366.527ZM363.695 35.4458H357.666V41.1096H363.695V35.4458ZM354.834 38.2777V44H360.497V38.2777H354.834Z" fill="#254E1E"/>
</g>
<defs>
<filter id="filter0_d_244_2891" x="0.222402" y="0.621246" width="363.473" height="59.153" filterUnits="userSpaceOnUse" color-interpolation-filters="sRGB">
<feFlood flood-opacity="0" result="BackgroundImageFix"/>
<feColorMatrix in="SourceAlpha" type="matrix" values="0 0 0 0 0 0 0 0 0 0 0 0 0 0 0 0 0 0 127 0" result="hardAlpha"/>
<feOffset dx="-1.88795" dy="3.7759"/>
<feComposite in2="hardAlpha" operator="out"/>
<feColorMatrix type="matrix" values="0 0 0 0 0.145098 0 0 0 0 0.305882 0 0 0 0 0.117647 0 0 0 1 0"/>
<feBlend mode="normal" in2="BackgroundImageFix" result="effect1_dropShadow_244_2891"/>
<feBlend mode="normal" in="SourceGraphic" in2="effect1_dropShadow_244_2891" result="shape"/>
</filter>
</defs>
</svg>
