<svg preserveAspectRatio="none" width="667" height="363" viewBox="0 0 667 363" fill="none" xmlns="http://www.w3.org/2000/svg">
<path d="M651.564 306.077L651.593 307.261L650.425 307.057C644.55 306.036 626.137 305.188 601.1 304.52C576.11 303.853 544.628 303.368 512.704 303.058C448.844 302.436 383.257 302.513 364.324 303.227C345.708 303.93 268.326 307.672 192.495 311.876C154.58 313.979 117.057 316.196 87.4652 318.206C57.8252 320.219 36.2465 322.02 30.1301 323.277L29.1778 323.473L28.9338 322.515L22.0825 295.633L21.8374 294.671L22.7849 294.44C30.0904 292.656 45.4505 288.985 50.8538 287.983C50.7745 287.924 50.6882 287.862 50.5948 287.798C49.3014 286.904 47.0024 285.74 44.1802 284.602C38.5149 282.317 31.1269 280.294 26.1331 280.692L25.0652 280.778L25.0256 279.7L24.2234 257.889L24.2142 257.64L24.3223 257.42C25.6815 254.644 27.121 251.771 28.2124 249.596C28.4153 249.192 28.606 248.812 28.7819 248.461C29.0237 247.979 29.2376 247.551 29.4166 247.192C28.8043 247.104 28.022 246.996 27.1416 246.888C25.046 246.632 22.4283 246.38 20.2292 246.38L19.2629 246.38L19.2017 245.411L7.68189 62.9279L7.62805 62.0746L8.45823 61.9123C18.2988 59.9892 43.8556 57.7419 76.9764 55.4393C110.131 53.1344 150.947 50.7693 191.367 48.6191C272.203 44.3191 351.482 40.8774 364.758 40.4956C399.399 39.4995 619.963 39.0671 663.402 41.8901L664.379 41.9536L664.366 42.9334L662.183 215.769L662.172 216.585L661.373 216.714L629.773 221.831L657.803 248.955L658.234 249.371L658.09 249.939L655.4 260.588L655.394 260.608L655.388 260.628L650.814 275.929L651.564 306.077Z" fill="#E1D2BA" stroke="#254E1E" stroke-width="2"/>
<path d="M51.7934 288.839C47.2795 289.585 30.7499 293.533 23.0494 295.413L26.475 308.854C56.1151 307.315 130.315 293.972 189.995 292.647C249.675 291.323 521.406 284.151 649.812 275.764L654.431 260.313L657.122 249.665L627.657 221.154L661.184 215.725L661.446 194.982C567.32 207.397 369.292 233.552 330.191 238.849C291.091 244.146 106.684 236.642 19.368 232.227L20.1982 245.379C24.7194 245.379 30.8611 246.41 30.9164 246.41C30.9717 246.41 27.9349 252.341 25.2212 257.883L26.0234 279.694C36.4942 278.859 56.3073 288.094 51.7934 288.839Z" fill="#D8C5A7"/>
<path d="M10.9557 98.9721L13.4114 137.873C111.073 142.287 423.312 113.208 461.383 113.87C499.455 114.532 568.138 118.836 662.408 118.836L663.025 70.0035C561.727 75.2456 299.965 100.627 258.807 107.248C217.648 113.87 92.7152 100.076 10.9557 98.9721Z" fill="#D8C5A7"/>
</svg>
