<svg width="132" height="125" viewBox="0 0 132 125" fill="none" xmlns="http://www.w3.org/2000/svg">
<path d="M111.691 90.9756C105.054 85.3708 91.3734 75.8943 91.5209 75.6362H91.5578C94.9502 76.0787 102.399 78.5492 117.701 80.0241C123.011 80.5404 130.386 73.4606 129.906 60.1492C129.427 47.1328 123.232 40.4218 114.862 41.528C108.741 42.2286 102.62 43.298 96.6095 44.6623C97.4207 44.3673 103.21 37.7669 110.437 29.0279C119.361 18.2608 109.036 10.9598 100.997 6.4612C91.0047 0.893274 82.8925 -1.50352 75.9602 11.6973C75.8865 11.8816 75.2965 13.0985 74.1903 15.6059C72.4204 19.5513 71.3141 21.985 70.5398 23.7549C68.5855 28.2167 66.8525 31.8303 65.6725 34.1902C65.6356 32.8996 60.6945 26.6311 53.5779 13.0985C49.5218 7.8624 43.5114 -1.06103 29.3519 7.93614C16.1143 16.3433 13.7175 23.3493 19.3223 29.3229C30.495 41.2699 36.0998 48.4234 36.5792 48.5709C25.2221 47.391 20.871 45.9529 12.5375 45.326C4.20407 44.6992 1.69666 57.0519 2.02852 66.639C3.09786 74.7143 5.01532 84.5965 15.5612 83.6378C24.1527 82.8634 36.6529 77.9961 37.2429 79.0654C37.8328 80.1348 27.3976 87.9889 21.461 95.3636C14.455 104.066 22.309 113.911 30.79 118.778C39.2709 123.609 50.1118 126.411 55.4216 115.128C62.3539 100.489 66.1887 90.4594 66.1887 90.4594C69.1017 95.1055 75.5177 104.619 82.0075 113.985C85.6949 119.331 88.866 120.917 92.3321 121.618C98.8956 122.908 104.795 118.188 108.852 114.649C121.278 103.771 117.664 95.9904 111.691 90.9756Z" fill="#FFD465" stroke="#254E1E" stroke-width="3.16343" stroke-linecap="round" stroke-linejoin="round"/>
</svg>
