<svg width="1440" height="1241" viewBox="0 0 1440 1241" fill="none" xmlns="http://www.w3.org/2000/svg">
<path d="M1559.55 370.594C1073.63 9.37939 265.553 -87.4056 -80.4465 78.5942C-426.447 244.594 -121 1241 -121 1241L1559.55 1206C1559.55 1206 2045.48 731.808 1559.55 370.594Z" fill="#77B06D"/>
<path d="M1081.82 200.815C1079.04 193.605 1082.63 185.509 1089.84 182.731L1131.51 166.674C1141.67 162.76 1152.21 171.436 1150.32 182.157L1147.36 198.921C1146.7 202.692 1144.51 206.026 1141.32 208.145L1110.72 228.473C1103.26 233.424 1093.14 230.2 1089.93 221.85L1081.82 200.815Z" fill="#BED4DE"/>
<path d="M1157.8 203.865C1154.62 195.62 1158.73 186.36 1166.98 183.182L1184.21 176.54C1195.83 172.063 1207.88 181.987 1205.72 194.248L1205.59 195.029C1204.82 199.343 1202.33 203.156 1198.68 205.579L1183.27 215.816C1174.74 221.478 1163.17 217.791 1159.49 208.241L1157.8 203.865Z" fill="#BED4DE"/>
<path d="M1112.93 150.38C1114.3 157.196 1109.89 163.831 1103.07 165.202L1092.33 167.362C1083.65 169.108 1076.38 160.702 1079.37 152.361C1080.42 149.427 1082.63 147.052 1085.48 145.79L1095.5 141.353C1102.86 138.092 1111.35 142.487 1112.93 150.38Z" fill="#BED4DE"/>
<path d="M1125.99 247.87C1122.81 239.624 1126.92 230.364 1135.16 227.187L1152.4 220.545C1164.02 216.068 1176.07 225.991 1173.91 238.253L1173.77 239.034C1173.01 243.347 1170.52 247.16 1166.87 249.583L1151.46 259.82C1142.93 265.483 1131.35 261.796 1127.67 252.246L1125.99 247.87Z" fill="#BED4DE"/>
<path d="M1185.26 241.863C1182.08 233.618 1186.19 224.358 1194.44 221.18L1220.77 211.032C1232.2 206.629 1244.14 216.17 1242.36 228.286L1241.09 236.908C1240.44 241.321 1237.98 245.262 1234.3 247.783L1214.01 261.691C1205.49 267.53 1193.75 263.884 1190.03 254.246L1185.26 241.863Z" fill="#BED4DE"/>
<path d="M1155.05 301.412C1151.87 293.167 1155.98 283.906 1164.23 280.729L1190.56 270.58C1201.99 266.177 1213.92 275.718 1212.15 287.834L1210.88 296.457C1210.23 300.869 1207.77 304.811 1204.09 307.332L1183.8 321.24C1175.27 327.078 1163.54 323.433 1159.82 313.794L1155.05 301.412Z" fill="#BED4DE"/>
<path d="M1222.88 285.825C1219.7 277.58 1223.81 268.32 1232.06 265.142L1258.39 254.994C1269.82 250.59 1281.75 260.132 1279.97 272.247L1278.71 280.87C1278.06 285.283 1275.6 289.224 1271.92 291.745L1251.62 305.653C1243.1 311.492 1231.37 307.846 1227.65 298.208L1222.88 285.825Z" fill="#BED4DE"/>
<path d="M1192.05 342.881C1188.87 334.636 1192.98 325.376 1201.23 322.198L1227.56 312.05C1238.99 307.646 1250.93 317.188 1249.15 329.303L1247.88 337.926C1247.23 342.339 1244.77 346.28 1241.1 348.801L1220.8 362.709C1212.28 368.548 1200.54 364.902 1196.82 355.264L1192.05 342.881Z" fill="#BED4DE"/>
<path d="M1260.77 328.754C1257.59 320.509 1261.7 311.248 1269.95 308.071L1299.24 296.784C1309.95 292.657 1321.39 300.814 1320.98 312.284L1320.19 334.607C1320.02 339.283 1317.81 343.651 1314.15 346.562L1295.59 361.311C1287.14 368.031 1274.59 364.616 1270.71 354.538L1260.77 328.754Z" fill="#BED4DE"/>
<path d="M1217.16 386.699C1216.88 377.868 1223.8 370.475 1232.64 370.189L1271.7 368.92C1284.15 368.515 1292.26 381.854 1286.19 392.72L1280.04 403.721C1277.9 407.544 1274.29 410.323 1270.04 411.411L1237.71 419.699C1227.8 422.241 1218.08 414.949 1217.75 404.72L1217.16 386.699Z" fill="#BED4DE"/>
<path d="M1295.8 383.491C1297.56 374.935 1305.92 369.428 1314.48 371.19L1327.96 373.966C1338.86 376.211 1343.14 389.501 1335.59 397.68C1332.93 400.558 1329.21 402.221 1325.3 402.281L1311.53 402.493C1301.42 402.649 1293.76 393.399 1295.8 383.491Z" fill="#BED4DE"/>
<path d="M1237.94 439.811C1239.85 430.527 1248.93 424.55 1258.21 426.462L1272.85 429.475C1284.68 431.911 1289.32 446.334 1281.12 455.211C1278.24 458.334 1274.2 460.138 1269.95 460.204L1255.02 460.434C1244.04 460.603 1235.73 450.565 1237.94 439.811Z" fill="#BED4DE"/>
<path d="M1297.2 423.671C1298.98 415.016 1307.45 409.445 1316.1 411.227L1334.93 415.104C1346.93 417.574 1351.81 432.052 1343.77 441.285L1341.6 443.773C1338.67 447.136 1334.47 449.123 1330.01 449.256L1311.93 449.796C1301.6 450.104 1293.7 440.694 1295.78 430.577L1297.2 423.671Z" fill="#BED4DE"/>
<path d="M1239.2 484.671C1240.98 476.016 1249.45 470.445 1258.1 472.227L1276.93 476.104C1288.93 478.574 1293.81 493.052 1285.77 502.285L1283.6 504.773C1280.67 508.136 1276.47 510.123 1272.01 510.256L1253.93 510.796C1243.6 511.104 1235.7 501.694 1237.78 491.577L1239.2 484.671Z" fill="#BED4DE"/>
<path d="M1336.07 495.902C1330.66 502.891 1320.61 504.173 1313.62 498.766L1298.41 487.002C1288.73 479.509 1290.71 464.357 1301.99 459.602L1305.03 458.321C1309.14 456.59 1313.79 456.652 1317.85 458.493L1334.33 465.962C1343.74 470.226 1346.7 482.155 1340.38 490.325L1336.07 495.902Z" fill="#BED4DE"/>
<path d="M1229.2 528.671C1230.98 520.016 1239.45 514.445 1248.1 516.227L1266.93 520.104C1278.93 522.574 1283.81 537.052 1275.77 546.285L1273.6 548.773C1270.67 552.136 1266.47 554.123 1262.01 554.256L1243.93 554.796C1233.6 555.104 1225.7 545.694 1227.78 535.577L1229.2 528.671Z" fill="#BED4DE"/>
<path d="M1294.2 521.671C1295.98 513.016 1304.45 507.445 1313.1 509.227L1335.03 513.743C1346.27 516.058 1351.5 529.105 1344.95 538.535L1336.08 551.32C1333.42 555.164 1329.2 557.648 1324.54 558.118L1307.57 559.833C1296.82 560.918 1288.11 551.265 1290.29 540.687L1294.2 521.671Z" fill="#BED4DE"/>
<path d="M1300 573.74C1308.81 574.445 1315.38 582.158 1314.67 590.966L1311.55 629.929C1310.56 642.34 1296.4 648.911 1286.28 641.654L1276.04 634.307C1272.48 631.755 1270.12 627.854 1269.52 623.517L1264.91 590.461C1263.49 580.324 1271.83 571.485 1282.03 572.301L1300 573.74Z" fill="#BED4DE"/>
<path d="M1269.94 643.077C1278.64 643.774 1285.14 651.398 1284.44 660.104L1283.34 673.828C1282.45 684.924 1269.79 690.799 1260.74 684.31C1257.56 682.028 1255.45 678.541 1254.91 674.663L1253.01 661.027C1251.61 651.008 1259.85 642.27 1269.94 643.077Z" fill="#BED4DE"/>
<path d="M1242.74 579.553C1251.55 580.258 1258.19 587.976 1257.49 596.784L1255.87 617.027C1254.95 628.412 1241.62 634.076 1232.79 626.827C1229.94 624.485 1228.12 621.121 1227.71 617.453L1225.48 597.254C1224.37 587.266 1232.73 578.751 1242.74 579.553Z" fill="#BED4DE"/>
<path d="M1229.81 656.178C1238.62 656.883 1245.19 664.595 1244.49 673.404L1242.95 692.568C1241.98 704.775 1228.21 711.404 1218.06 704.556L1215.32 702.71C1211.62 700.216 1209.13 696.292 1208.45 691.885L1205.7 674.003C1204.12 663.794 1212.49 654.791 1222.79 655.615L1229.81 656.178Z" fill="#BED4DE"/>
<path d="M1177.57 618.937C1180.74 610.687 1189.99 606.568 1198.24 609.736L1216.19 616.629C1227.62 621.019 1230.09 636.099 1220.64 643.899L1218.1 646.001C1214.66 648.842 1210.2 650.119 1205.78 649.524L1187.84 647.111C1177.61 645.733 1171.34 635.161 1175.04 625.518L1177.57 618.937Z" fill="#BED4DE"/>
<path d="M1180.52 663.335C1189.33 664.04 1195.9 671.752 1195.19 680.561L1193.66 699.725C1192.68 711.932 1178.91 718.56 1168.76 711.712L1166.02 709.867C1162.33 707.373 1159.84 703.449 1159.16 699.041L1156.4 681.16C1154.83 670.951 1163.2 661.948 1173.49 662.772L1180.52 663.335Z" fill="#BED4DE"/>
<path d="M1147.22 617.44C1156.03 618.145 1162.59 625.858 1161.89 634.666L1160.35 653.831C1159.38 666.037 1145.61 672.666 1135.46 665.818L1132.72 663.972C1129.03 661.478 1126.54 657.555 1125.86 653.147L1123.1 635.265C1121.53 625.056 1129.89 616.053 1140.19 616.878L1147.22 617.44Z" fill="#BED4DE"/>
<path d="M1132.34 676.953C1141.15 677.658 1147.72 685.37 1147.01 694.178L1145.23 716.5C1144.31 727.94 1132 734.724 1121.84 729.39L1108.06 722.158C1103.92 719.983 1100.94 716.104 1099.9 711.542L1096.11 694.904C1093.71 684.373 1102.22 674.541 1112.99 675.403L1132.34 676.953Z" fill="#BED4DE"/>
<path d="M901.708 837.902C904.752 829.606 900.494 820.413 892.198 817.37L855.502 803.907C843.813 799.618 831.921 809.736 834.281 821.961L836.67 834.336C837.5 838.637 840.057 842.409 843.744 844.773L871.841 862.787C880.457 868.311 891.973 864.437 895.498 854.828L901.708 837.902Z" fill="#BED4DE"/>
<path d="M896.316 791.759C899.325 783.558 895.116 774.472 886.916 771.464L873.991 766.722C863.54 762.888 852.907 771.934 855.018 782.864C855.76 786.709 858.046 790.081 861.343 792.195L872.933 799.625C881.449 805.085 892.832 801.256 896.316 791.759Z" fill="#BED4DE"/>
<path d="M875.795 886.622C878.678 878.763 874.644 870.055 866.785 867.171L848.368 860.415C838.244 856.7 828.137 865.938 830.928 876.354C831.822 879.694 833.981 882.554 836.947 884.329L853.779 894.406C861.935 899.289 872.521 895.546 875.795 886.622Z" fill="#BED4DE"/>
<path d="M827.253 844.589C830.296 836.293 826.038 827.101 817.742 824.057L799.693 817.435C788.197 813.218 776.417 822.951 778.391 835.036L778.924 838.293C779.643 842.694 782.166 846.596 785.885 849.057L800.974 859.041C809.589 864.74 821.267 860.905 824.824 851.208L827.253 844.589Z" fill="#BED4DE"/>
<path d="M812.447 928.207C821.265 928.78 828.878 922.096 829.45 913.278L830.696 894.093C831.49 881.873 818.822 873.327 807.789 878.64L804.816 880.071C800.798 882.006 797.769 885.53 796.461 889.793L791.153 907.09C788.122 916.965 795.104 927.081 805.412 927.75L812.447 928.207Z" fill="#BED4DE"/>
<path d="M794.253 878.589C797.296 870.293 793.038 861.101 784.742 858.057L766.693 851.435C755.197 847.218 743.417 856.951 745.391 869.036L745.924 872.293C746.643 876.694 749.166 880.596 752.885 883.057L767.974 893.041C776.589 898.74 788.267 894.905 791.824 885.208L794.253 878.589Z" fill="#BED4DE"/>
<path d="M811.253 953.589C814.296 945.293 810.038 936.101 801.742 933.057L783.693 926.435C772.197 922.218 760.417 931.951 762.391 944.036L762.924 947.293C763.643 951.694 766.166 955.596 769.885 958.057L784.974 968.041C793.589 973.74 805.267 969.905 808.824 960.208L811.253 953.589Z" fill="#BED4DE"/>
<path d="M766.253 911.589C769.296 903.293 765.038 894.101 756.742 891.057L735.72 883.345C724.945 879.392 713.635 887.733 714.23 899.195L715.037 914.735C715.279 919.407 717.555 923.739 721.264 926.591L734.794 936.99C743.356 943.572 755.846 939.955 759.566 929.816L766.253 911.589Z" fill="#BED4DE"/>
<path d="M1029.97 657.166C1028.77 648.411 1034.9 640.342 1043.66 639.143L1082.38 633.842C1094.72 632.153 1104.17 644.58 1099.25 656.017L1094.27 667.595C1092.54 671.618 1089.23 674.756 1085.13 676.277L1053.83 687.863C1044.23 691.416 1033.81 685.169 1032.42 675.028L1029.97 657.166Z" fill="#BED4DE"/>
<path d="M1052.06 703.278C1057.93 696.81 1067.93 696.325 1074.4 702.195L1084.59 711.447C1092.83 718.928 1089.75 732.543 1079.09 735.742C1075.34 736.868 1071.29 736.406 1067.89 734.466L1055.93 727.643C1047.14 722.63 1045.26 710.769 1052.06 703.278Z" fill="#BED4DE"/>
<path d="M995.476 675.712C1001.35 669.243 1011.35 668.759 1017.82 674.629L1028.01 683.881C1036.25 691.362 1033.17 704.977 1022.51 708.176C1018.76 709.301 1014.71 708.84 1011.31 706.899L999.351 700.077C990.564 695.063 988.678 683.203 995.476 675.712Z" fill="#BED4DE"/>
<path d="M1000.08 750.196C995.488 742.645 997.889 732.803 1005.44 728.213L1021.87 718.228C1032.33 711.868 1045.77 719.141 1046.17 731.38L1046.28 734.679C1046.42 739.136 1044.7 743.451 1041.53 746.585L1028.65 759.297C1021.3 766.554 1009.1 765.048 1003.74 756.221L1000.08 750.196Z" fill="#BED4DE"/>
<path d="M983.543 695.507C991.397 699.557 994.48 709.207 990.43 717.061L981.619 734.149C976.006 745.032 960.747 745.834 954.024 735.599L952.213 732.841C949.765 729.113 948.983 724.533 950.057 720.204L954.415 702.644C956.902 692.618 968.096 687.542 977.277 692.276L983.543 695.507Z" fill="#BED4DE"/>
<path d="M943.265 734.107C947.406 741.913 944.435 751.598 936.629 755.739L919.646 764.75C908.828 770.489 895.837 762.445 896.152 750.203L896.238 746.905C896.353 742.446 898.323 738.239 901.674 735.296L915.268 723.356C923.029 716.54 935.119 718.754 939.961 727.879L943.265 734.107Z" fill="#BED4DE"/>
<path d="M959.639 753.848C965.578 747.305 975.696 746.814 982.24 752.753L996.477 765.673C1005.55 773.903 1002.38 788.853 990.762 792.708L987.629 793.747C983.397 795.151 978.77 794.724 974.865 792.57L959.022 783.832C949.977 778.843 947.96 766.718 954.901 759.069L959.639 753.848Z" fill="#BED4DE"/>
<path d="M920.639 780.848C926.578 774.305 936.696 773.814 943.24 779.753L959.822 794.802C968.321 802.515 966.175 816.403 955.745 821.191L941.603 827.683C937.351 829.635 932.457 829.628 928.211 827.663L912.723 820.5C902.921 815.966 900.334 803.223 907.592 795.225L920.639 780.848Z" fill="#BED4DE"/>
<path d="M92.869 589.225C93.9075 588.344 95.7429 586.473 95.7749 586.506C95.618 587.025 95.039 588.111 94.4074 590.445C94.1867 591.253 95.0883 592.58 97.1663 592.864C99.1941 593.135 100.393 592.353 100.446 591.022C100.496 590.054 100.5 589.084 100.446 588.117C100.471 588.249 101.338 589.319 102.5 590.67C103.932 592.337 105.334 590.936 106.243 589.801C107.365 588.396 107.952 587.21 106.095 585.782C106.075 585.764 105.894 585.646 105.536 585.402C104.97 585.018 104.624 584.789 104.372 584.62C103.728 584.202 103.219 583.834 102.888 583.593C103.091 583.618 104.188 583.025 106.473 582.28C107.391 581.793 108.934 581.1 107.912 578.663C106.947 576.391 105.93 575.843 104.857 576.55C102.712 577.965 101.458 578.638 101.423 578.716C101.906 576.988 102.245 576.354 102.56 575.085C102.875 573.815 101.03 573.093 99.5398 572.894C98.2624 572.847 96.6834 572.889 96.5529 574.54C96.4437 575.893 96.8692 577.951 96.6924 578.012C96.5156 578.074 95.5734 576.251 94.5857 575.137C93.4251 573.825 91.6911 574.778 90.7118 575.966C89.736 577.147 89.027 578.754 90.6261 579.88C92.7096 581.343 94.1673 582.2 94.1673 582.2C93.3681 582.525 91.7246 583.276 90.1078 584.03C89.1837 584.467 88.8555 584.909 88.6527 585.426C88.2792 586.408 88.8626 587.444 89.2951 588.17C90.628 590.373 91.9338 590.022 92.869 589.225Z" fill="#FFD465"/>
<path d="M107.077 883.073C108.309 882.028 110.485 879.81 110.523 879.849C110.337 880.464 109.651 881.752 108.902 884.52C108.64 885.478 109.709 887.053 112.174 887.389C114.578 887.71 116.001 886.784 116.063 885.205C116.122 884.057 116.127 882.906 116.063 881.759C116.093 881.916 117.121 883.185 118.5 884.787C120.198 886.764 121.86 885.102 122.938 883.756C124.269 882.09 124.964 880.684 122.762 878.991C122.739 878.969 122.524 878.829 122.1 878.54C121.428 878.084 121.017 877.812 120.719 877.612C119.955 877.116 119.352 876.68 118.959 876.394C119.2 876.424 120.501 875.72 123.211 874.837C124.3 874.26 126.13 873.438 124.917 870.547C123.772 867.852 122.567 867.203 121.295 868.042C118.75 869.719 117.263 870.517 117.222 870.61C117.794 868.561 118.196 867.81 118.57 866.304C118.944 864.798 116.756 863.942 114.988 863.706C113.473 863.65 111.601 863.699 111.446 865.658C111.317 867.262 111.821 869.703 111.611 869.776C111.402 869.848 110.284 867.687 109.113 866.366C107.737 864.809 105.68 865.94 104.519 867.349C103.362 868.749 102.521 870.656 104.417 871.991C106.888 873.726 108.617 874.742 108.617 874.742C107.669 875.128 105.72 876.019 103.803 876.912C102.707 877.431 102.317 877.955 102.077 878.568C101.634 879.733 102.326 880.962 102.839 881.822C104.419 884.434 105.968 884.018 107.077 883.073Z" fill="#FFD465"/>
<path d="M409.591 813.108C409.94 811.531 410.334 808.448 410.388 808.457C410.611 809.059 410.843 810.501 411.919 813.158C412.289 814.08 414.093 814.688 416.26 813.466C418.37 812.269 418.943 810.671 418.039 809.375C417.391 808.425 416.7 807.506 415.955 806.63C416.074 806.738 417.66 807.126 419.727 807.57C422.275 808.119 422.594 805.79 422.639 804.066C422.693 801.934 422.397 800.394 419.62 800.376C419.588 800.373 419.332 800.391 418.819 800.417C418.008 800.46 417.517 800.491 417.159 800.513C416.25 800.579 415.506 800.596 415.02 800.606C415.23 800.484 415.841 799.137 417.467 796.795C417.985 795.677 418.946 793.916 416.233 792.346C413.692 790.892 412.339 791.103 411.833 792.54C410.819 795.414 410.117 796.949 410.14 797.047C409.358 795.069 409.224 794.228 408.611 792.802C407.999 791.376 405.738 792.017 404.188 792.897C402.947 793.768 401.485 794.939 402.546 796.593C403.412 797.949 405.29 799.589 405.166 799.774C405.043 799.958 402.847 798.912 401.115 798.567C399.078 798.159 398.123 800.303 398.049 802.127C397.973 803.942 398.456 805.969 400.773 805.887C403.791 805.776 405.782 805.541 405.782 805.541C405.26 806.42 404.246 808.308 403.258 810.179C402.699 811.255 402.705 811.908 402.884 812.541C403.235 813.737 404.529 814.298 405.458 814.673C408.296 815.799 409.278 814.531 409.591 813.108Z" fill="#FFD465"/>
<path d="M644.72 816.992C646.032 817.21 648.584 817.398 648.58 817.443C648.094 817.653 646.919 817.907 644.781 818.908C644.04 819.253 643.619 820.762 644.718 822.49C645.795 824.173 647.134 824.574 648.16 823.774C648.913 823.2 649.638 822.591 650.325 821.941C650.242 822.043 649.992 823.364 649.718 825.082C649.378 827.201 651.307 827.362 652.727 827.324C654.481 827.275 655.735 826.963 655.628 824.679C655.629 824.653 655.603 824.444 655.56 824.023C655.488 823.358 655.441 822.956 655.408 822.662C655.314 821.917 655.267 821.307 655.238 820.907C655.347 821.075 656.481 821.518 658.478 822.752C659.42 823.129 660.91 823.842 662.082 821.543C663.166 819.39 662.933 818.287 661.73 817.933C659.322 817.226 658.03 816.716 657.95 816.739C659.542 816.009 660.228 815.863 661.373 815.296C662.518 814.73 661.893 812.9 661.101 811.664C660.331 810.682 659.303 809.531 657.99 810.475C656.913 811.247 655.647 812.863 655.49 812.77C655.333 812.676 656.097 810.825 656.304 809.386C656.551 807.693 654.746 807.001 653.243 807.021C651.748 807.038 650.102 807.524 650.271 809.426C650.495 811.902 650.775 813.529 650.775 813.529C650.029 813.138 648.433 812.387 646.851 811.657C645.942 811.244 645.406 811.278 644.893 811.453C643.925 811.794 643.521 812.882 643.252 813.662C642.451 816.045 643.536 816.797 644.72 816.992Z" fill="#FFD465"/>
<path d="M1212.08 778.073C1213.31 777.028 1215.49 774.81 1215.52 774.849C1215.34 775.464 1214.65 776.752 1213.9 779.52C1213.64 780.478 1214.71 782.053 1217.17 782.389C1219.58 782.71 1221 781.784 1221.06 780.205C1221.12 779.057 1221.13 777.906 1221.06 776.759C1221.09 776.916 1222.12 778.185 1223.5 779.787C1225.2 781.764 1226.86 780.102 1227.94 778.756C1229.27 777.09 1229.96 775.684 1227.76 773.991C1227.74 773.969 1227.52 773.829 1227.1 773.54C1226.43 773.084 1226.02 772.812 1225.72 772.612C1224.95 772.116 1224.35 771.68 1223.96 771.394C1224.2 771.424 1225.5 770.72 1228.21 769.837C1229.3 769.26 1231.13 768.438 1229.92 765.547C1228.77 762.852 1227.57 762.203 1226.29 763.042C1223.75 764.719 1222.26 765.517 1222.22 765.61C1222.79 763.561 1223.2 762.81 1223.57 761.304C1223.94 759.798 1221.76 758.942 1219.99 758.706C1218.47 758.65 1216.6 758.699 1216.45 760.658C1216.32 762.262 1216.82 764.703 1216.61 764.776C1216.4 764.848 1215.28 762.687 1214.11 761.366C1212.74 759.809 1210.68 760.94 1209.52 762.349C1208.36 763.749 1207.52 765.656 1209.42 766.991C1211.89 768.726 1213.62 769.742 1213.62 769.742C1212.67 770.128 1210.72 771.019 1208.8 771.912C1207.71 772.431 1207.32 772.955 1207.08 773.568C1206.63 774.733 1207.33 775.962 1207.84 776.822C1209.42 779.434 1210.97 779.018 1212.08 778.073Z" fill="#FFD465"/>
<path d="M1340.1 672.973C1341.27 671.978 1343.34 669.865 1343.38 669.902C1343.2 670.488 1342.55 671.715 1341.84 674.351C1341.59 675.263 1342.6 676.762 1344.95 677.083C1347.24 677.389 1348.6 676.506 1348.66 675.003C1348.71 673.909 1348.72 672.814 1348.66 671.721C1348.68 671.871 1349.66 673.079 1350.98 674.605C1352.59 676.488 1354.18 674.905 1355.2 673.623C1356.47 672.037 1357.13 670.697 1355.04 669.085C1355.01 669.064 1354.81 668.931 1354.4 668.655C1353.76 668.222 1353.37 667.963 1353.09 667.772C1352.36 667.3 1351.79 666.885 1351.41 666.612C1351.64 666.641 1352.88 665.97 1355.46 665.129C1356.5 664.58 1358.24 663.797 1357.09 661.044C1356 658.478 1354.85 657.86 1353.64 658.658C1351.21 660.256 1349.8 661.016 1349.76 661.104C1350.3 659.153 1350.69 658.437 1351.04 657.003C1351.4 655.569 1349.32 654.754 1347.63 654.529C1346.19 654.476 1344.41 654.523 1344.26 656.388C1344.14 657.916 1344.62 660.241 1344.42 660.31C1344.22 660.379 1343.15 658.321 1342.04 657.063C1340.73 655.58 1338.77 656.657 1337.66 657.999C1336.56 659.332 1335.76 661.148 1337.57 662.419C1339.92 664.072 1341.56 665.039 1341.56 665.039C1340.66 665.406 1338.81 666.255 1336.98 667.106C1335.94 667.6 1335.57 668.099 1335.34 668.682C1334.91 669.792 1335.57 670.962 1336.06 671.782C1337.57 674.269 1339.04 673.873 1340.1 672.973Z" fill="#FFD465"/>
<path d="M830.077 617.073C831.309 616.028 833.485 613.81 833.523 613.849C833.337 614.464 832.651 615.752 831.902 618.52C831.64 619.478 832.709 621.053 835.174 621.389C837.578 621.71 839.001 620.784 839.063 619.205C839.122 618.057 839.127 616.906 839.063 615.759C839.093 615.916 840.121 617.185 841.5 618.787C843.198 620.764 844.86 619.102 845.938 617.756C847.269 616.09 847.964 614.684 845.762 612.991C845.739 612.969 845.524 612.829 845.1 612.54C844.428 612.084 844.017 611.812 843.719 611.612C842.955 611.116 842.352 610.68 841.959 610.394C842.2 610.424 843.501 609.72 846.211 608.837C847.3 608.26 849.13 607.438 847.917 604.547C846.772 601.852 845.567 601.203 844.295 602.042C841.75 603.719 840.263 604.517 840.222 604.61C840.794 602.561 841.196 601.81 841.57 600.304C841.944 598.798 839.756 597.942 837.988 597.706C836.473 597.65 834.601 597.699 834.446 599.658C834.317 601.262 834.821 603.703 834.611 603.776C834.402 603.848 833.284 601.687 832.113 600.366C830.737 598.809 828.68 599.94 827.519 601.349C826.362 602.749 825.521 604.656 827.417 605.991C829.888 607.726 831.617 608.742 831.617 608.742C830.669 609.128 828.72 610.019 826.803 610.912C825.707 611.431 825.317 611.955 825.077 612.568C824.634 613.733 825.326 614.962 825.839 615.822C827.419 618.434 828.968 618.018 830.077 617.073Z" fill="#FFD465"/>
<path d="M1005.41 713.088C991.424 712.349 978.854 700.389 979.747 689.425C981.128 672.481 1000.85 670.577 1008.82 671.226C1016.79 671.876 1021.7 673.279 1027.47 676.258C1033.25 679.237 1038.77 679.185 1044.51 682.663C1046.42 683.822 1056.97 683.678 1060.96 684.003C1064.94 684.328 1067.41 672.489 1080.11 670.514C1092.82 668.539 1109.9 680.466 1108.85 693.423C1107.79 706.38 1094.16 712.472 1084.61 712.697C1075.06 712.922 1066.14 700.462 1061.65 700.096L1045.7 698.797C1042.22 698.512 1022.89 714.011 1005.41 713.088Z" fill="#254E1E" fill-opacity="0.5"/>
<g filter="url(#filter0_d_195_2021)">
<path d="M1077.3 704.576C1069.35 701.987 1065.89 696.408 1065.16 693.942L1062.74 680.765L1066.31 684.117L1069.67 680.765V686.313C1069.58 690.197 1071.17 690.243 1071.98 689.781C1075.59 689.781 1082.5 686.775 1085.51 685.273C1091.52 684.671 1095.72 685.385 1098.44 686.5C1101.16 687.614 1102.4 689.126 1102.5 690.128C1104.44 693.549 1103.54 698.489 1102.85 700.531L1101.89 702.775C1101.69 703.107 1101.46 703.402 1101.23 703.652C1092.53 708.368 1081.65 706.233 1077.3 704.576Z" fill="#C6AC9A"/>
<path d="M1040.19 688.394C1039.93 696.254 1034.18 710.795 1013.38 706.079C1009.17 705.42 1006.24 703.069 1005.3 701.976C1004.54 700.973 1003.79 699.796 1003.2 698.566C1001.53 695.838 1001.94 693.191 1002.36 692.208C1003.79 688.895 1011.69 680.372 1020.66 683.423L1028.46 686.255L1036.26 689.087V679.782L1038.57 683.423L1041.98 680.765L1040.19 688.394Z" fill="#C6AC9A"/>
<path d="M1102.5 690.128C1104.44 693.549 1103.54 698.489 1102.85 700.531L1101.89 702.775C1101.69 703.107 1101.46 703.402 1101.23 703.652C1092.53 708.368 1081.65 706.233 1077.3 704.576C1069.35 701.987 1065.89 696.408 1065.16 693.942L1062.74 680.765L1066.31 684.117L1069.67 680.765V686.313C1069.58 690.197 1071.17 690.243 1071.98 689.781C1075.59 689.781 1082.5 686.775 1085.51 685.273C1091.52 684.671 1095.72 685.385 1098.44 686.5M1102.5 690.128C1102.36 689.863 1102.15 689.566 1101.89 689.261C1101.67 688.75 1100.66 687.482 1098.44 686.5M1102.5 690.128C1102.4 689.126 1101.16 687.614 1098.44 686.5M1005.3 701.976C1004.54 700.973 1003.79 699.796 1003.2 698.566M1005.3 701.976L1003.2 698.566M1005.3 701.976C1006.24 703.069 1009.17 705.42 1013.38 706.079C1034.18 710.795 1039.93 696.254 1040.19 688.394L1041.98 680.765L1038.57 683.423L1036.26 679.782V689.087L1028.46 686.255L1020.66 683.423C1011.69 680.372 1003.79 688.895 1002.36 692.208C1001.94 693.191 1001.53 695.838 1003.2 698.566" stroke="#254E1E" stroke-width="2.3967" stroke-linecap="round" stroke-linejoin="round"/>
<path d="M1060.75 669.85L1069.65 667.192V680.6L1066.29 683.952L1062.73 680.6L1060.75 669.85Z" fill="#78A4B7"/>
<path d="M1044.36 670.313H1036.25V679.618L1038.55 683.259L1041.96 680.6L1044.36 670.313Z" fill="#78A4B7"/>
<path d="M1060.75 669.85L1069.65 667.192V680.6L1066.29 683.952L1062.73 680.6L1060.75 669.85Z" stroke="#254E1E" stroke-width="2.3967"/>
<path d="M1044.36 670.313H1036.25V679.618L1038.55 683.259L1041.96 680.6L1044.36 670.313Z" stroke="#254E1E" stroke-width="2.3967"/>
<path d="M1072.47 601.767C1069.88 595.294 1065.15 593.368 1063.11 593.213H1030.62C1011.02 605.975 1007.12 612.71 1007.62 614.482C1008.73 622.435 1015.1 625.656 1018.14 626.272C1019.3 624.731 1022.51 622.111 1026.12 623.961C1026.3 616.193 1021.49 613.789 1019.06 613.557C1026.46 613.188 1030.62 608.857 1031.78 606.738C1030.07 613.48 1028.68 619.613 1027.54 625.117C1033.88 619.992 1052.15 612.586 1074.49 623.961C1072.16 616.103 1069.61 609.106 1067.73 604.541C1071.43 612.032 1074.12 619.992 1075.01 623.036C1076.52 627.488 1077.82 631.919 1078.63 634.826C1079.26 633.194 1081.8 632.374 1082.99 632.168L1072.47 601.767Z" fill="#78A4B7" stroke="#254E1E" stroke-width="2.3967"/>
<path d="M1083.04 632.376C1084.23 632.492 1086.37 633.416 1085.35 636.191L1086.39 636.975L1091.94 641.161C1092.75 641.701 1095.04 642.941 1097.72 643.589C1098.57 645.13 1099.43 647.981 1096.1 647.056C1094.58 646.812 1091.99 646.157 1090.55 645.115C1091.78 646.581 1093.92 648.276 1096.91 648.675C1097.45 650.062 1097.21 652.558 1091.94 651.449C1091.34 651.069 1090.57 650.532 1089.79 649.922L1091.94 652.605C1091.71 653.375 1090.5 654.87 1087.55 654.685C1085 652.181 1079.8 645.23 1079.34 637.462C1079.19 636.883 1078.97 636.052 1078.68 635.035C1079.31 633.403 1081.85 632.582 1083.04 632.376Z" fill="#E2D1B7"/>
<path d="M1080.38 661.39C1077.96 663.572 1074.77 665.959 1071.45 667.703C1063.62 671.81 1055.03 672.353 1053.79 658.269L1052.66 641.807C1053.11 649.854 1052.77 664.188 1048.36 670.29C1047.79 670.468 1047.13 670.626 1046.42 670.752C1044.42 671.102 1041.93 671.2 1039.25 670.752C1033.7 669.822 1027.35 666.538 1023.05 658.269C1023 655.239 1023.53 648.08 1025.38 637.075C1024.89 639.166 1024.15 640.74 1023.05 641.161C1019.73 642.24 1013.01 643.195 1012.64 638.387C1012.1 636.73 1011.63 633.509 1014.03 633.879C1013.49 632.106 1013.57 628.77 1018.19 629.602C1017.88 628.947 1017.45 627.406 1018.19 626.481C1019.35 624.94 1022.56 622.32 1026.17 624.169C1026.24 625.648 1026.28 627.576 1026.22 629.602C1026.17 631.141 1026.06 632.737 1025.88 634.237C1026.37 631.479 1026.94 628.507 1027.59 625.325C1033.93 620.201 1052.2 612.795 1074.54 624.169C1078.18 636.475 1081.28 650.893 1080.38 661.39Z" fill="#E2D1B7"/>
<path d="M1071.71 667.631L1062.81 670.059M1090.55 645.115C1091.99 646.157 1094.58 646.812 1096.1 647.056C1099.43 647.981 1098.57 645.13 1097.72 643.589C1095.04 642.941 1092.75 641.701 1091.94 641.161L1086.39 636.975M1090.55 645.115C1089.94 644.675 1089.54 644.165 1089.51 643.589C1089.72 644.001 1090.06 644.54 1090.55 645.115ZM1090.55 645.115C1091.78 646.581 1093.92 648.276 1096.91 648.675C1097.45 650.062 1097.21 652.558 1091.94 651.449C1091.34 651.069 1090.57 650.532 1089.79 649.922M1089.79 649.922C1088.04 648.554 1086.26 646.82 1086.39 645.669L1089.79 649.922ZM1089.79 649.922L1091.94 652.605C1091.71 653.375 1090.5 654.87 1087.55 654.685C1085 652.181 1079.8 645.23 1079.34 637.462M1079.34 637.462C1080.65 636.515 1083.89 635.092 1086.39 636.975M1079.34 637.462C1079.19 636.883 1078.97 636.052 1078.68 635.035M1075.06 623.244C1076.57 627.697 1077.87 632.128 1078.68 635.035M1052.66 641.807L1053.79 658.269C1055.55 678.335 1072.25 668.71 1080.38 661.39C1081.28 650.893 1078.18 636.475 1074.54 624.169C1052.2 612.795 1033.93 620.201 1027.59 625.325C1026.94 628.507 1026.37 631.479 1025.88 634.237M1052.66 641.807L1052.52 639.774C1052.57 640.392 1052.62 641.074 1052.66 641.807ZM1052.66 641.807C1053.11 649.854 1052.77 664.188 1048.36 670.29C1047.79 670.468 1047.13 670.626 1046.42 670.752C1040.28 671.829 1029.42 670.52 1023.05 658.269C1023 655.239 1023.53 648.08 1025.38 637.075M1025.38 637.075C1025.54 636.156 1025.7 635.209 1025.88 634.237M1025.38 637.075C1025.59 636.203 1025.75 635.242 1025.88 634.237M1025.38 637.075C1024.89 639.166 1024.15 640.74 1023.05 641.161C1019.73 642.24 1013.01 643.195 1012.64 638.387C1012.1 636.73 1011.63 633.509 1014.03 633.879C1013.49 632.106 1013.57 628.77 1018.19 629.602M1025.88 634.237C1026.06 632.737 1026.17 631.141 1026.22 629.602M1018.19 629.602C1017.88 628.947 1017.45 627.406 1018.19 626.481C1019.35 624.94 1022.56 622.32 1026.17 624.169C1026.24 625.648 1026.28 627.576 1026.22 629.602M1018.19 629.602C1019.88 628.057 1023.85 625.894 1026.22 629.602M1038.3 670.752H1046.4M1086.39 636.975L1085.35 636.191C1086.37 633.416 1084.23 632.492 1083.04 632.376C1081.85 632.582 1079.31 633.403 1078.68 635.035" stroke="#254E1E" stroke-width="2.3967" stroke-linecap="round" stroke-linejoin="round"/>
<path d="M1075.24 625.407C1054.75 611.866 1034.74 619.765 1027.3 625.407C1023.59 645.659 1002.35 654.031 1002.5 656.578C1006.7 664.966 1035.14 670.245 1038.54 670.945C1042.49 671.544 1048.72 671.926 1050.42 671.427L1061.61 670.196C1066.04 670.196 1070.64 668.398 1072.39 667.499C1074.07 666.421 1086.63 662.177 1088.68 660.579C1079.75 653.5 1077.43 633.895 1075.24 625.407Z" fill="#FFD465" stroke="#254E1E" stroke-width="2.3967"/>
<path d="M1076.95 502.412C1052.18 491.468 1034.8 497.852 1028.28 502.412C1021.02 488.242 1012.87 492.38 1009.27 496.22C1004.77 503.824 1009.55 509.373 1013.88 511.197C1005.81 516.727 1006.39 534.094 1006.53 539.422C1006.67 544.75 997.266 549.935 994.146 550.655C989.423 571.161 1000.43 582.144 1006.53 585.072C1019.55 593.137 1039.8 595.585 1043.54 595.873C1047.28 596.161 1054.34 591.553 1054.34 591.553C1054.34 591.553 1059.24 595.873 1065.86 595.873C1072.49 595.873 1093.17 588.481 1097.4 585.072C1110.3 574.013 1109.21 557.519 1107.05 550.655C1101.4 549.387 1099.7 542.014 1098.84 539.422C1097.98 536.83 1097.06 514.365 1092.5 510.765C1100.34 504.889 1094.86 498.764 1092.5 496.22C1082.25 490.114 1077.86 497.804 1076.95 502.412Z" fill="#78A4B7" stroke="#254E1E" stroke-width="2.3967" stroke-linejoin="round"/>
<path d="M1080.38 508.558C1054.38 497.988 1053.25 529.144 1053.02 524.211C1052.78 519.279 1044.3 497.048 1022.75 508.558C1001.2 520.068 1017.17 550.285 1017.17 550.285C1017.17 550.285 999.135 546.996 998.9 562.734C998.666 578.472 1019.98 575.268 1019.98 575.268C1019.98 575.268 1019.13 586.23 1024.9 587.952H1074.8C1084.36 587.765 1082.49 575.268 1082.49 575.268C1082.49 575.268 1102.91 580.116 1101.98 563.909C1101.04 547.701 1084.41 552.164 1084.41 552.164C1084.41 552.164 1106.38 519.128 1080.38 508.558Z" fill="#E2D1B7" stroke="#254E1E" stroke-width="2.3967"/>
<path d="M1057.27 575.203C1056.97 575.843 1051.71 575.203 1051.71 575.203C1051.71 575.203 1047.49 575.843 1046.59 575.203C1045.69 574.563 1042.83 569.439 1042.83 569.439H1051.71H1059.53C1059.53 569.439 1057.57 574.563 1057.27 575.203Z" fill="white"/>
<path d="M1051.71 575.203C1051.71 575.203 1056.97 575.843 1057.27 575.203C1057.57 574.563 1059.53 569.439 1059.53 569.439H1051.71M1051.71 575.203C1051.71 575.203 1047.49 575.843 1046.59 575.203C1045.69 574.563 1042.83 569.439 1042.83 569.439H1051.71M1051.71 575.203V572.385V569.439" stroke="#254E1E" stroke-width="2.3967"/>
<path d="M1030.87 564.767C1031.58 565.882 1036.63 568.655 1042.39 568.655C1048.15 568.655 1053.04 568.655 1057.94 568.655C1062.84 568.655 1067.82 568.223 1071.62 564.767" stroke="#254E1E" stroke-width="2.3967" stroke-linecap="round"/>
<path d="M1038.89 542.297C1034.94 534.221 1031.13 538.932 1029.72 542.297L1035.59 546.523L1030.66 550.279C1034.42 560.609 1037.71 554.583 1038.89 550.279C1040.01 546.523 1039.36 543.393 1038.89 542.297Z" fill="#254E1E" stroke="#254E1E" stroke-width="2.3967"/>
<path d="M1070.85 542.297C1066.9 534.221 1063.1 538.932 1061.69 542.297L1067.56 546.523L1062.63 550.279C1066.39 560.609 1069.68 554.583 1070.85 550.279C1071.98 546.523 1071.32 543.393 1070.85 542.297Z" fill="#254E1E" stroke="#254E1E" stroke-width="2.3967"/>
<path d="M1055.88 555.983C1055.88 556.778 1055.44 557.602 1054.52 558.272C1053.6 558.942 1052.26 559.393 1050.74 559.393C1049.22 559.393 1047.89 558.942 1046.97 558.272C1046.04 557.602 1045.6 556.778 1045.6 555.983C1045.6 555.188 1046.04 554.364 1046.97 553.694C1047.89 553.024 1049.22 552.573 1050.74 552.573C1052.26 552.573 1053.6 553.024 1054.52 553.694C1055.44 554.364 1055.88 555.188 1055.88 555.983Z" fill="#78A4B7" stroke="#254E1E" stroke-width="2.3967"/>
<path d="M1076.82 495.071L1076.82 495.069L1076.82 495.069C1076.87 495.026 1076.93 494.98 1076.99 494.928C1077.2 494.749 1077.48 494.511 1077.88 494.172L1077.88 494.171C1078.02 494.054 1078.13 493.963 1078.21 493.894C1078.23 493.883 1078.24 493.873 1078.25 493.863C1078.29 493.828 1078.33 493.798 1078.35 493.775C1078.37 493.764 1078.38 493.751 1078.4 493.739L1078.4 493.739C1078.4 493.736 1078.42 493.722 1078.45 493.703C1079.5 492.924 1080.53 492.621 1081.54 493.002C1082.44 493.338 1083.08 494.147 1083.58 494.855L1083.58 494.855C1084 495.436 1084.57 496.318 1084.7 497.249C1084.77 497.747 1084.72 498.297 1084.43 498.818C1084.13 499.333 1083.65 499.724 1083.04 500.009C1082.85 500.095 1082.67 500.178 1082.5 500.259C1082.57 500.284 1082.65 500.31 1082.73 500.336C1083.64 500.635 1084.29 501.311 1084.53 502.241C1084.76 503.126 1084.59 504.144 1084.14 505.181L1084.14 505.184C1083.66 506.289 1082.95 507.057 1082.18 507.477C1081.44 507.877 1080.52 508.009 1079.79 507.569C1079.79 507.568 1079.79 507.568 1079.79 507.568L1080.26 506.778C1079.6 506.379 1079.06 506.022 1078.62 505.711L1076.82 495.071ZM1076.82 495.071C1076.77 494.545 1076.72 493.896 1076.69 493.117C1076.69 493.064 1076.68 493.011 1076.67 492.959C1076.66 492.922 1076.66 492.882 1076.65 492.838C1076.55 492.377 1076.38 491.552 1075.85 490.905C1075.18 490.096 1074.12 489.718 1072.62 489.901L1072.62 489.901L1072.61 489.902C1071.36 490.059 1070.33 490.366 1069.66 490.946C1069.31 491.255 1069.06 491.644 1068.95 492.106C1068.84 492.558 1068.9 493.008 1069.03 493.423C1069.19 493.935 1069.33 494.4 1069.45 494.814C1069.13 494.591 1068.78 494.368 1068.36 494.126C1067.85 493.837 1067.31 493.793 1066.81 493.932C1066.34 494.063 1065.94 494.343 1065.63 494.642C1064.99 495.237 1064.49 496.088 1064.17 496.833C1064.16 496.86 1064.15 496.887 1064.14 496.915C1063.95 497.499 1063.69 498.34 1063.75 499.144C1063.79 499.569 1063.91 500.021 1064.2 500.43C1064.5 500.842 1064.93 501.143 1065.45 501.337C1065.58 501.384 1065.71 501.428 1065.84 501.469C1065.69 501.532 1065.55 501.596 1065.41 501.664C1064.86 501.929 1064.44 502.318 1064.18 502.804C1063.92 503.28 1063.84 503.797 1063.85 504.284C1063.88 505.237 1064.3 506.193 1064.79 506.914C1065.26 507.586 1065.92 508.337 1066.78 508.719C1067.23 508.917 1067.73 509.02 1068.28 508.946C1068.82 508.871 1069.34 508.629 1069.82 508.239L1069.82 508.238C1070.57 507.633 1071.2 507.09 1071.71 506.648M1076.82 495.071L1071.71 506.648M1079.53 507.524C1079.51 507.475 1079.49 507.424 1079.46 507.372L1079.53 507.525C1079.53 507.524 1079.53 507.524 1079.53 507.524ZM1079.53 507.524C1079.83 508.177 1080.07 509.089 1079.66 509.996C1079.25 510.912 1078.32 511.531 1076.98 511.9L1076.97 511.902L1076.97 511.902C1076.57 512.009 1076 512.158 1075.39 512.181C1074.78 512.203 1074.05 512.1 1073.41 511.622L1073.4 511.616L1073.4 511.616C1073.11 511.396 1072.83 511.119 1072.6 510.715C1072.37 510.32 1072.22 509.851 1072.12 509.28L1072.12 509.275C1071.97 508.368 1071.83 507.445 1071.71 506.648M1079.53 507.524L1071.71 506.648" fill="#FFD465" stroke="#254E1E" stroke-width="1.84658" stroke-linecap="round" stroke-linejoin="round"/>
</g>
<defs>
<filter id="filter0_d_195_2021" x="989.339" y="488.933" width="120.231" height="221.727" filterUnits="userSpaceOnUse" color-interpolation-filters="sRGB">
<feFlood flood-opacity="0" result="BackgroundImageFix"/>
<feColorMatrix in="SourceAlpha" type="matrix" values="0 0 0 0 0 0 0 0 0 0 0 0 0 0 0 0 0 0 127 0" result="hardAlpha"/>
<feOffset dx="-2.46211" dy="2.46211"/>
<feComposite in2="hardAlpha" operator="out"/>
<feColorMatrix type="matrix" values="0 0 0 0 0.145098 0 0 0 0 0.305882 0 0 0 0 0.117647 0 0 0 1 0"/>
<feBlend mode="normal" in2="BackgroundImageFix" result="effect1_dropShadow_195_2021"/>
<feBlend mode="normal" in="SourceGraphic" in2="effect1_dropShadow_195_2021" result="shape"/>
</filter>
</defs>
</svg>
