<svg width="1440" height="827" viewBox="0 0 1440 827" fill="none" xmlns="http://www.w3.org/2000/svg">
<path d="M172 305C679.922 11.6795 1460.79 220.405 1679.53 347.365C1898.27 474.324 1679.53 827 1679.53 827H-38.2543C-38.2543 827 -335.922 598.321 172 305Z" fill="#69A25E"/>
<path d="M917.829 295.535C1000.37 212.63 1014.82 209.057 1046.32 190.791C1046.32 190.791 1056.84 181.575 1081.95 183.361C1107.06 185.146 1139.13 173.369 1119.31 185.854C1099.5 198.339 1053.95 244.273 1012.18 290.677C941.285 369.442 834.951 615.378 823.208 633.229C786.798 637.475 715.286 639.821 720.522 615.239C738.729 582.274 855.02 358.62 917.829 295.535Z" fill="#CBB5A5" stroke="#254E1E" stroke-width="3"/>
<g filter="url(#filter0_d_101_1456)">
<path d="M1034.01 2.34352V2.41673L1031.66 6.86561C1031.37 7.14156 1031.06 7.42877 1030.73 7.68219C1029.71 8.51771 1028.6 9.23557 1027.42 9.82215C1027.08 9.98962 1026.8 10.2442 1026.6 10.5593C1026.39 10.8744 1026.28 11.2384 1026.26 11.613L1025.73 26.39C1025.71 26.9123 1025.5 27.4086 1025.13 27.7807C1024.77 28.1529 1024.27 28.374 1023.75 28.4005C1019.81 28.5863 1010.23 29.9379 999.571 37.9346C999.571 37.9346 997.351 39.2017 996.709 49.3102V54.7052C996.71 55.0182 996.641 55.3275 996.506 55.6102C996.372 55.8929 996.175 56.1417 995.931 56.3383C993.362 58.3769 985.631 65.3487 991.085 71.4138C991.428 71.7942 991.619 72.2874 991.621 72.7992V76.133C991.62 76.5824 991.474 77.0197 991.205 77.3798C990.936 77.7399 990.558 78.0038 990.128 78.1322L972.761 83.3413C972.605 83.3867 972.444 83.415 972.282 83.4258L890.657 88.1675C890.496 88.1787 890.337 88.2071 890.183 88.252L823.377 108.216C823.052 108.314 822.755 108.49 822.513 108.729C822.27 108.967 822.089 109.261 821.985 109.584L819.945 115.998C819.834 116.344 819.815 116.713 819.889 117.068L821.951 126.743C821.985 126.899 821.996 127.058 821.985 127.216C820.509 157.334 819.031 187.449 817.551 217.562C817.548 217.594 817.548 217.626 817.551 217.658C817.978 219.561 819.019 221.27 820.512 222.526C822.005 223.781 823.868 224.512 825.817 224.607L969.318 227.789L1118.56 226.201H1248.33H1248.43C1250.71 225.521 1252.74 224.181 1254.26 222.35C1255.78 220.519 1256.72 218.279 1256.97 215.912V215.845C1254.87 186.054 1252.76 156.249 1250.65 126.428C1250.63 126.161 1250.67 125.893 1250.77 125.645C1254.48 116.301 1255.7 111.268 1254.45 110.547C1254.3 110.482 1254.13 110.452 1253.96 110.46C1253.79 110.468 1253.63 110.513 1253.48 110.592C1253.06 110.753 1252.59 110.753 1252.17 110.592L1248.71 109.381C1228.05 102.173 1207.45 95.2407 1186.92 88.5843C1186.75 88.5278 1186.57 88.4938 1186.39 88.4829L1100.61 83.7412L1100.27 83.6905L1082.1 79.6583C1081.62 79.5515 1081.2 79.279 1080.9 78.8886C1080.6 78.4982 1080.45 78.015 1080.47 77.524L1080.68 72.7035C1080.69 72.269 1080.84 71.8499 1081.11 71.5039C1082.37 69.8708 1085.65 63.9915 1074.86 56.5129C1074.53 56.2875 1074.28 55.9708 1074.12 55.6016C1073.97 55.2325 1073.93 54.827 1074.01 54.4349C1074.77 50.4928 1076.1 38.9088 1066.47 34.1615L1066.32 34.077C1064.69 33.0259 1062.97 32.1106 1061.18 31.3401C1057.02 29.5646 1052.56 28.5847 1048.04 28.4511C1047.5 28.4367 1046.99 28.215 1046.61 27.8322C1046.23 27.4493 1046.01 26.9348 1046 26.3956L1045.83 12.1085C1045.83 11.686 1045.69 11.2751 1045.45 10.9295C1045.21 10.5839 1044.87 10.3197 1044.47 10.1713C1043.17 9.68391 1041.96 8.96881 1040.91 8.0595C1039.47 6.83352 1038.37 5.2595 1037.7 3.48671C1037.6 3.19388 1037.52 2.92356 1037.46 2.73772L1034.26 2L1034.11 2.19711C1034.06 2.238 1034.03 2.28807 1034.01 2.34352V2.34352Z" fill="#E2D1B7" stroke="#294E25" stroke-width="2.96248" stroke-miterlimit="10"/>
<path d="M1023.67 28.385C1026.39 27.2124 1035.19 25.5707 1048.67 28.385" stroke="#254E1E" stroke-width="2.96248"/>
<path d="M1122.58 92.1039L1124.92 93.906L1125.08 96.1304L1123.49 97.8818H947.681C944.818 95.6292 946.249 93.906 946.249 93.906L969.966 83.8707C969.966 83.8707 1009.38 70.8507 1035.81 67.8265C1035.81 67.8265 1055.09 71.9601 1101.22 83.8876C1103.92 84.7098 1106.7 85.6483 1109.57 86.7033C1114.27 88.4097 1118.64 90.2455 1122.58 92.1039Z" fill="#E1CEB1" stroke="#294E25" stroke-width="2.96248" stroke-miterlimit="10"/>
<path d="M822.47 108.165C822.47 108.165 822.537 108.204 822.543 108.266C822.599 108.779 817.951 108.739 817.167 110.547C816.677 111.673 817.167 113.515 819.923 116.477C819.923 116.477 852.701 111.026 950.087 105.62V97.8312C940.919 98.2986 925.716 99.1208 906.845 100.371C849.387 104.178 822.425 107.686 822.47 108.165Z" fill="#E1CEB1" stroke="#294E25" stroke-width="2.96248" stroke-miterlimit="10"/>
<path d="M1249.15 108.165C1249.15 108.165 1249.08 108.204 1249.07 108.266C1249.02 108.779 1253.67 108.739 1254.45 110.547C1254.94 111.673 1254.45 113.515 1251.69 116.477C1251.69 116.477 1218.92 111.026 1121.53 105.62V97.8312C1130.7 98.2986 1145.9 99.1208 1164.77 100.371C1222.23 104.178 1249.19 107.686 1249.15 108.165Z" fill="#E1CEB1" stroke="#294E25" stroke-width="2.96248" stroke-miterlimit="10"/>
<path d="M884.053 89.1361C884.053 89.1361 904.095 86.7484 969.966 83.8876L948.408 92.9993L946.261 93.906L946.103 96.1304L947.692 97.8818C947.692 97.8818 896.939 99.9486 822.002 108.216C822.002 108.216 847.776 99.6389 884.053 89.1361Z" fill="#96805E" stroke="#294E25" stroke-width="2.96248" stroke-miterlimit="10"/>
<path d="M1187.14 89.1362C1187.14 89.1362 1167.1 86.7484 1101.22 83.8707L1123.1 92.3743L1124.93 93.8892L1125.09 96.1136L1123.5 97.865C1123.5 97.865 1174.25 99.9318 1249.19 108.199C1249.19 108.216 1223.41 99.6389 1187.14 89.1362Z" fill="#96805E" stroke="#294E25" stroke-width="2.96248" stroke-miterlimit="10"/>
<path d="M952.076 175L952.38 120.47C952.385 119.913 952.169 119.376 951.779 118.977C951.39 118.579 950.858 118.35 950.301 118.341C922.403 117.924 837.667 125.544 823.901 126.788C823.384 126.831 822.869 126.682 822.454 126.371C822.038 126.06 821.751 125.607 821.647 125.099L820.379 118.685C820.324 118.4 820.327 118.108 820.389 117.825C820.451 117.542 820.571 117.275 820.74 117.04C820.91 116.805 821.126 116.607 821.375 116.459C821.624 116.311 821.901 116.216 822.188 116.179C884.323 108.188 937.189 106.042 948.047 105.676C948.594 105.657 949.113 105.426 949.494 105.032C949.874 104.638 950.087 104.112 950.087 103.564V99.9318C950.087 99.3717 950.309 98.8345 950.706 98.4385C951.102 98.0424 951.639 97.8199 952.2 97.8199H1119.58C1120.12 97.82 1120.63 98.0221 1121.02 98.3857C1121.41 98.7493 1121.65 99.2474 1121.69 99.7797L1121.98 103.806C1122.02 104.309 1122.23 104.782 1122.59 105.14C1122.94 105.499 1123.41 105.719 1123.91 105.76L1250.89 116.41C1251.41 116.453 1251.89 116.686 1252.25 117.063V117.063C1252.51 117.334 1252.69 117.67 1252.77 118.035C1252.86 118.4 1252.85 118.782 1252.74 119.141L1251.13 124.361C1250.99 124.832 1250.68 125.238 1250.27 125.508C1249.86 125.778 1249.37 125.897 1248.88 125.842C1239.61 124.896 1193.52 120.47 1123.73 118.454C1123.45 118.445 1123.16 118.495 1122.9 118.599C1122.63 118.703 1122.39 118.86 1122.19 119.059C1121.98 119.259 1121.82 119.498 1121.71 119.762C1121.6 120.026 1121.55 120.308 1121.55 120.594L1122.12 175L1124.96 224.039C1124.98 224.327 1124.94 224.617 1124.84 224.889C1124.75 225.161 1124.6 225.411 1124.4 225.622C1124.2 225.833 1123.96 226.001 1123.7 226.117C1123.43 226.232 1123.14 226.291 1122.86 226.291L951.631 226.691C951.34 226.693 951.053 226.634 950.786 226.52C950.52 226.405 950.279 226.237 950.081 226.026C949.882 225.814 949.729 225.564 949.631 225.291C949.533 225.018 949.493 224.728 949.512 224.439L952.076 175Z" fill="#C5AD8A" stroke="#294E25" stroke-width="2.96248" stroke-miterlimit="10"/>
<path d="M1030.4 110.44H1042.42C1043.19 110.432 1043.95 110.677 1044.56 111.138C1045.18 111.599 1045.63 112.25 1045.84 112.991C1046.01 113.597 1046.31 114.159 1046.72 114.641C1047.26 115.291 1047.56 116.106 1047.57 116.95V171.756C1047.57 172.7 1047.19 173.605 1046.53 174.273C1045.86 174.94 1044.95 175.315 1044.01 175.315H1028.84C1027.9 175.315 1027 174.943 1026.33 174.281C1025.66 173.618 1025.28 172.718 1025.28 171.778L1024.99 117.502C1024.99 116.998 1025.09 116.499 1025.3 116.038C1025.5 115.577 1025.8 115.164 1026.18 114.827C1026.68 114.387 1027.02 113.792 1027.14 113.138C1027.29 112.379 1027.69 111.694 1028.28 111.202C1028.88 110.709 1029.63 110.44 1030.4 110.44V110.44Z" fill="#96805E" stroke="#294E25" stroke-width="2.96248" stroke-miterlimit="10"/>
<path d="M1062.54 110.44H1074.56C1075.33 110.431 1076.09 110.677 1076.7 111.138C1077.32 111.599 1077.77 112.25 1077.97 112.991C1078.15 113.597 1078.45 114.159 1078.86 114.641C1079.4 115.291 1079.7 116.106 1079.71 116.95V171.756C1079.71 172.7 1079.33 173.605 1078.67 174.273C1078 174.94 1077.09 175.315 1076.15 175.315H1060.97C1060.03 175.314 1059.13 174.941 1058.47 174.279C1057.8 173.617 1057.42 172.718 1057.41 171.778L1057.13 117.502C1057.13 116.998 1057.24 116.5 1057.45 116.042C1057.66 115.584 1057.97 115.176 1058.35 114.844C1058.85 114.401 1059.18 113.808 1059.31 113.155C1059.45 112.398 1059.85 111.713 1060.44 111.217C1061.03 110.722 1061.77 110.447 1062.54 110.44V110.44Z" fill="#96805E" stroke="#294E25" stroke-width="2.96248" stroke-miterlimit="10"/>
<path d="M1093.72 110.44H1105.75C1106.52 110.432 1107.27 110.677 1107.89 111.138C1108.5 111.599 1108.95 112.25 1109.16 112.991C1109.33 113.597 1109.63 114.16 1110.04 114.641C1110.58 115.291 1110.88 116.106 1110.89 116.95V171.756C1110.89 172.7 1110.52 173.605 1109.85 174.273C1109.18 174.94 1108.28 175.315 1107.33 175.315H1092.16C1091.22 175.316 1090.31 174.945 1089.64 174.282C1088.98 173.619 1088.6 172.719 1088.6 171.778L1088.3 117.502C1088.3 116.997 1088.41 116.498 1088.61 116.037C1088.82 115.576 1089.12 115.163 1089.5 114.827C1090 114.386 1090.33 113.792 1090.46 113.138C1090.6 112.378 1091.01 111.693 1091.6 111.2C1092.2 110.707 1092.95 110.439 1093.72 110.44V110.44Z" fill="#96805E" stroke="#294E25" stroke-width="2.96248" stroke-miterlimit="10"/>
<path d="M997.858 110.44H1009.89C1010.66 110.432 1011.41 110.677 1012.03 111.138C1012.64 111.599 1013.09 112.25 1013.3 112.991C1013.48 113.598 1013.78 114.16 1014.19 114.641C1014.73 115.292 1015.02 116.107 1015.03 116.95V171.756C1015.03 172.7 1014.66 173.605 1013.99 174.273C1013.32 174.94 1012.42 175.315 1011.47 175.315H996.298C995.357 175.315 994.455 174.943 993.787 174.281C993.12 173.618 992.742 172.718 992.736 171.778L992.449 117.502C992.448 116.998 992.553 116.499 992.758 116.038C992.963 115.577 993.263 115.164 993.638 114.827C994.139 114.387 994.478 113.792 994.602 113.138C994.745 112.379 995.149 111.694 995.743 111.202C996.338 110.709 997.086 110.44 997.858 110.44V110.44Z" fill="#96805E" stroke="#294E25" stroke-width="2.96248" stroke-miterlimit="10"/>
<path d="M965.52 111.713H977.545C978.315 111.705 979.067 111.95 979.684 112.411C980.301 112.872 980.749 113.523 980.96 114.264C981.133 114.87 981.433 115.432 981.839 115.914C982.378 116.564 982.678 117.379 982.69 118.223V173.029C982.69 173.973 982.314 174.878 981.647 175.545C980.979 176.213 980.073 176.588 979.128 176.588H963.96C963.019 176.588 962.117 176.216 961.449 175.553C960.782 174.891 960.404 173.991 960.398 173.051L960.111 118.786C960.108 118.281 960.213 117.782 960.418 117.321C960.623 116.86 960.923 116.447 961.3 116.111C961.799 115.67 962.138 115.076 962.263 114.422C962.404 113.661 962.807 112.974 963.402 112.479C963.997 111.984 964.746 111.713 965.52 111.713Z" fill="#96805E" stroke="#294E25" stroke-width="2.96248" stroke-miterlimit="10"/>
<path d="M1175.48 132.812H1165.16C1162.89 132.812 1161.06 134.601 1161.06 136.806V165.849C1161.06 168.055 1162.89 169.843 1165.16 169.843H1175.48C1177.74 169.843 1179.57 168.055 1179.57 165.849V136.806C1179.57 134.601 1177.74 132.812 1175.48 132.812Z" fill="#90B7C8" stroke="#294E25" stroke-width="2.96248" stroke-miterlimit="10"/>
<path d="M1202.43 132.812H1192.26C1189.96 132.812 1188.09 134.599 1188.09 136.804V165.852C1188.09 168.056 1189.96 169.843 1192.26 169.843H1202.43C1204.74 169.843 1206.61 168.056 1206.61 165.852V136.804C1206.61 134.599 1204.74 132.812 1202.43 132.812Z" fill="#90B7C8" stroke="#294E25" stroke-width="2.96248" stroke-miterlimit="10"/>
<path d="M1229.14 132.812H1219.62C1217.14 132.812 1215.12 134.664 1215.12 136.948V165.708C1215.12 167.992 1217.14 169.843 1219.62 169.843H1229.14C1231.63 169.843 1233.64 167.992 1233.64 165.708V136.948C1233.64 134.664 1231.63 132.812 1229.14 132.812Z" fill="#90B7C8" stroke="#294E25" stroke-width="2.96248" stroke-miterlimit="10"/>
<path d="M1146.91 132.812H1140.4C1137.08 132.812 1134.4 134.512 1134.4 136.608V166.048C1134.4 168.144 1137.08 169.843 1140.4 169.843H1146.91C1150.23 169.843 1152.91 168.144 1152.91 166.048V136.608C1152.91 134.512 1150.23 132.812 1146.91 132.812Z" fill="#90B7C8" stroke="#294E25" stroke-width="2.96248" stroke-miterlimit="10"/>
<path d="M882.561 132.812H872.243C869.979 132.812 868.144 134.601 868.144 136.806V165.849C868.144 168.055 869.979 169.843 872.243 169.843H882.561C884.824 169.843 886.66 168.055 886.66 165.849V136.806C886.66 134.601 884.824 132.812 882.561 132.812Z" fill="#90B7C8" stroke="#294E25" stroke-width="2.96248" stroke-miterlimit="10"/>
<path d="M909.519 132.812H899.35C897.045 132.812 895.177 134.599 895.177 136.804V165.852C895.177 168.056 897.045 169.843 899.35 169.843H909.519C911.824 169.843 913.692 168.056 913.692 165.852V136.804C913.692 134.599 911.824 132.812 909.519 132.812Z" fill="#90B7C8" stroke="#294E25" stroke-width="2.96248" stroke-miterlimit="10"/>
<path d="M936.225 132.812H926.71C924.224 132.812 922.209 134.664 922.209 136.948V165.708C922.209 167.992 924.224 169.843 926.71 169.843H936.225C938.71 169.843 940.725 167.992 940.725 165.708V136.948C940.725 134.664 938.71 132.812 936.225 132.812Z" fill="#90B7C8" stroke="#294E25" stroke-width="2.96248" stroke-miterlimit="10"/>
<path d="M853.997 132.812H847.482C844.168 132.812 841.482 134.512 841.482 136.608V166.048C841.482 168.144 844.168 169.843 847.482 169.843H853.997C857.311 169.843 859.997 168.144 859.997 166.048V136.608C859.997 134.512 857.311 132.812 853.997 132.812Z" fill="#90B7C8" stroke="#294E25" stroke-width="2.96248" stroke-miterlimit="10"/>
<path d="M999.245 216.661H1008.22C1010.4 216.661 1012.17 214.896 1012.17 212.719V191.027C1012.17 188.85 1010.4 187.085 1008.22 187.085H999.245C997.066 187.085 995.3 188.85 995.3 191.027V212.719C995.3 214.896 997.066 216.661 999.245 216.661Z" fill="#96805E" stroke="#294E25" stroke-width="2.96248" stroke-miterlimit="10"/>
<path d="M1032.02 216.661H1041C1043.18 216.661 1044.94 214.896 1044.94 212.719V191.027C1044.94 188.85 1043.18 187.085 1041 187.085H1032.02C1029.84 187.085 1028.08 188.85 1028.08 191.027V212.719C1028.08 214.896 1029.84 216.661 1032.02 216.661Z" fill="#96805E" stroke="#294E25" stroke-width="2.96248" stroke-miterlimit="10"/>
<path d="M1063.92 216.661H1072.9C1075.08 216.661 1076.84 214.896 1076.84 212.719V191.027C1076.84 188.85 1075.08 187.085 1072.9 187.085H1063.92C1061.74 187.085 1059.98 188.85 1059.98 191.027V212.719C1059.98 214.896 1061.74 216.661 1063.92 216.661Z" fill="#96805E" stroke="#294E25" stroke-width="2.96248" stroke-miterlimit="10"/>
<path d="M852.852 211.688H861.588C864.8 211.688 867.403 209.541 867.403 206.891V187.231C867.403 184.582 864.8 182.434 861.588 182.434H852.852C849.64 182.434 847.036 184.582 847.036 187.231V206.891C847.036 209.541 849.64 211.688 852.852 211.688Z" fill="#B99F77" stroke="#294E25" stroke-width="2.96248" stroke-miterlimit="10"/>
<path d="M884.329 211.688H893.064C896.276 211.688 898.88 209.541 898.88 206.891V187.231C898.88 184.582 896.276 182.434 893.064 182.434H884.329C881.117 182.434 878.513 184.582 878.513 187.231V206.891C878.513 209.541 881.117 211.688 884.329 211.688Z" fill="#B99F77" stroke="#294E25" stroke-width="2.96248" stroke-miterlimit="10"/>
<path d="M916.916 211.688H925.651C928.863 211.688 931.467 209.541 931.467 206.891V187.231C931.467 184.582 928.863 182.434 925.651 182.434H916.916C913.704 182.434 911.1 184.582 911.1 187.231V206.891C911.1 209.541 913.704 211.688 916.916 211.688Z" fill="#B99F77" stroke="#294E25" stroke-width="2.96248" stroke-miterlimit="10"/>
<path d="M1151.69 211.688H1160.43C1163.64 211.688 1166.24 209.541 1166.24 206.891V187.231C1166.24 184.582 1163.64 182.434 1160.43 182.434H1151.69C1148.48 182.434 1145.88 184.582 1145.88 187.231V206.891C1145.88 209.541 1148.48 211.688 1151.69 211.688Z" fill="#B99F77" stroke="#294E25" stroke-width="2.96248" stroke-miterlimit="10"/>
<path d="M1183.17 211.688H1191.9C1195.12 211.688 1197.72 209.541 1197.72 206.891V187.231C1197.72 184.582 1195.12 182.434 1191.9 182.434H1183.17C1179.96 182.434 1177.35 184.582 1177.35 187.231V206.891C1177.35 209.541 1179.96 211.688 1183.17 211.688Z" fill="#B99F77" stroke="#294E25" stroke-width="2.96248" stroke-miterlimit="10"/>
<path d="M1215.76 211.688H1224.49C1227.7 211.688 1230.31 209.541 1230.31 206.891V187.231C1230.31 184.582 1227.7 182.434 1224.49 182.434H1215.76C1212.54 182.434 1209.94 184.582 1209.94 187.231V206.891C1209.94 209.541 1212.54 211.688 1215.76 211.688Z" fill="#B99F77" stroke="#294E25" stroke-width="2.96248" stroke-miterlimit="10"/>
<path d="M996.271 55.2325C1008.18 49.8013 1040.34 42.1976 1073.67 55.2325" stroke="#254E1E" stroke-width="2.96248"/>
<path d="M1034.78 51.5294L996.767 55.4021C996.767 54.0502 997.017 46.7024 996.767 45.6384C992.079 37.6773 1001.98 33.9971 1005.63 31.744C1032.65 20.3869 1058.81 29.297 1066.64 32.8705C1076.74 39.7802 1076.56 43.1975 1074.15 46.2017V56.5286L1034.78 51.5294Z" fill="#E2D1B7" stroke="#254E1E" stroke-width="2.96248"/>
<path d="M1034.78 67.4528L987.754 78.0066C987.754 76.6735 988.063 69.4278 987.754 68.3785C981.977 60.528 994.173 56.899 998.678 54.6771C1027.41 40.7535 1060.4 49.9865 1073.85 55.788C1086.29 62.6017 1086.07 65.9715 1083.11 68.934V79.1175L1034.78 67.4528Z" fill="#BDA785" stroke="#254E1E" stroke-width="2.96248"/>
<path d="M1026.64 10.6101C1032.86 8.38829 1035.28 4.00629 1035.71 2.09302C1038.08 8.1661 1043.12 10.3016 1045.34 10.6101L1046.26 26.9038C1036.78 24.3857 1027.93 25.8546 1025.34 26.9038L1026.64 10.6101Z" fill="#AE9C80" stroke="#254E1E" stroke-width="2.96248" stroke-linejoin="round"/>
</g>
<defs>
<filter id="filter0_d_101_1456" x="814.519" y="0.347168" width="443.932" height="231.923" filterUnits="userSpaceOnUse" color-interpolation-filters="sRGB">
<feFlood flood-opacity="0" result="BackgroundImageFix"/>
<feColorMatrix in="SourceAlpha" type="matrix" values="0 0 0 0 0 0 0 0 0 0 0 0 0 0 0 0 0 0 127 0" result="hardAlpha"/>
<feOffset dx="-1" dy="3"/>
<feComposite in2="hardAlpha" operator="out"/>
<feColorMatrix type="matrix" values="0 0 0 0 0.145098 0 0 0 0 0.305882 0 0 0 0 0.117647 0 0 0 1 0"/>
<feBlend mode="normal" in2="BackgroundImageFix" result="effect1_dropShadow_101_1456"/>
<feBlend mode="normal" in="SourceGraphic" in2="effect1_dropShadow_101_1456" result="shape"/>
</filter>
</defs>
</svg>
