<svg width="1440" height="1087" viewBox="0 0 1440 1087" fill="none" xmlns="http://www.w3.org/2000/svg">
<path d="M-32.7477 201.468C480.293 -67.1419 1194.96 -35.1113 1401.48 111.435C1608 257.98 1503.62 1087 1503.62 1087L-29.784 1054.72C-29.784 1054.72 -545.789 470.077 -32.7477 201.468Z" fill="#77B06D"/>
<path d="M363.191 313.976C280.142 234.094 207.413 166.662 140.974 130.183C140.974 130.183 136.974 127.683 90.9736 141.183C44.9736 154.683 14.9256 171.748 16.0294 172.365C125.949 233.857 188.667 312.669 260.582 403.038L262.57 405.536C318.332 475.602 463.389 779.875 490.281 819.912C563.84 821.692 707.16 810.837 691.974 753.183C649.262 678.445 445.055 392.717 363.191 313.976Z" fill="#D3BEAF" stroke="#254E1E" stroke-width="3"/>
<g filter="url(#filter0_d_103_1549)">
<path d="M300.493 233.301L300.631 233.15L300.708 232.959C301.122 231.94 301.619 230.71 302.171 229.345C303.524 225.996 305.205 221.835 306.786 217.989C307.898 215.283 308.958 212.74 309.815 210.751C310.693 208.715 311.316 207.368 311.569 206.96C311.649 206.831 311.731 206.696 311.798 206.568C311.859 206.451 311.948 206.267 311.993 206.051C312.043 205.816 312.061 205.435 311.825 205.061C311.607 204.716 311.291 204.569 311.12 204.507C310.835 204.403 310.473 204.37 310.227 204.347L310.19 204.344C310.141 204.339 310.091 204.334 310.038 204.33C309.756 204.304 309.427 204.274 309.022 204.222C307.14 203.981 303.547 203.25 297.489 200.255C292.74 197.908 289.553 193.599 287.37 189.31C285.708 186.045 284.687 182.928 283.974 180.754C283.755 180.085 283.565 179.505 283.395 179.038L283.379 178.977L283.292 178.627L282.959 177.296C282.672 176.147 282.261 174.505 281.767 172.527C280.777 168.572 279.451 163.276 278.104 157.912C275.417 147.216 272.629 136.171 272.289 135.058C272.258 134.955 272.184 134.749 272.01 134.556C271.8 134.321 271.446 134.119 271.006 134.16C270.647 134.194 270.407 134.377 270.307 134.464C270.191 134.565 270.108 134.671 270.055 134.745C269.865 135.011 269.695 135.4 269.549 135.771C269.232 136.574 268.83 137.809 268.381 139.306C267.476 142.316 266.336 146.52 265.221 150.776C264.104 155.037 263.008 159.363 262.192 162.624C261.784 164.254 261.445 165.618 261.209 166.575C261.116 166.948 261.04 167.259 260.981 167.5L231.799 178.599L231.61 178.548C231.253 178.453 230.731 178.314 230.067 178.138C228.738 177.785 226.841 177.284 224.567 176.689C220.018 175.5 213.959 173.936 207.919 172.44C201.883 170.944 195.851 169.512 191.365 168.587C189.128 168.127 187.244 167.786 185.927 167.629C185.284 167.553 184.705 167.511 184.27 167.542C184.081 167.555 183.761 167.59 183.467 167.746C183.306 167.831 183.065 167.999 182.909 168.305C182.738 168.64 182.749 168.983 182.83 169.247C182.908 169.504 183.067 169.741 183.16 169.875C183.28 170.049 183.434 170.25 183.611 170.47C183.968 170.912 184.459 171.481 185.059 172.154C186.262 173.501 187.938 175.306 189.924 177.413C192.289 179.923 195.108 182.879 198.109 186.025C200.145 188.16 202.265 190.382 204.383 192.613C209.63 198.137 214.872 203.714 218.855 208.172C220.848 210.403 222.513 212.34 223.703 213.843C224.299 214.596 224.763 215.225 225.086 215.717C225.248 215.964 225.365 216.162 225.443 216.316C225.51 216.445 225.532 216.51 225.537 216.525C225.538 216.529 225.538 216.529 225.538 216.525C225.552 216.596 225.564 216.799 225.507 217.189C225.452 217.56 225.345 218.027 225.185 218.587C224.864 219.706 224.353 221.112 223.7 222.721C222.398 225.933 220.573 229.853 218.71 233.704C217.311 236.595 215.898 239.431 214.674 241.888C214.268 242.703 213.882 243.476 213.525 244.196C212.811 245.636 212.207 246.867 211.78 247.78C211.567 248.235 211.392 248.625 211.267 248.928C211.205 249.079 211.15 249.223 211.108 249.351C211.079 249.439 211.01 249.65 211.004 249.877C210.983 250.731 211.657 251.185 211.968 251.361C212.355 251.58 212.863 251.756 213.426 251.916C214.572 252.242 216.289 252.59 218.575 253.03C219.208 253.152 219.888 253.281 220.617 253.42C225.189 254.291 231.673 255.525 240.374 257.503L240.406 257.511L240.438 257.516C241.889 257.761 244.211 258.091 246.481 258.29C247.616 258.39 248.752 258.458 249.766 258.464C250.723 258.469 251.641 258.421 252.363 258.265L292.213 254.863L292.278 254.857L292.343 254.844C292.808 254.75 293.137 254.471 293.35 254.227C293.564 253.98 293.731 253.688 293.864 253.404C294.132 252.835 294.361 252.098 294.572 251.293C294.857 250.202 295.143 248.845 295.45 247.388C295.596 246.696 295.746 245.982 295.903 245.263C296.4 242.992 296.979 240.609 297.733 238.467C298.493 236.309 299.397 234.498 300.493 233.301ZM184.368 169.827C184.368 169.827 184.372 169.826 184.379 169.825C184.372 169.826 184.368 169.827 184.368 169.827Z" fill="#CC994C" stroke="#254E1E" stroke-width="2.28363"/>
<path d="M293.339 208.94C293.339 208.94 298.2 202.024 303.12 215.316C308.04 228.607 293.57 236.655 293.57 236.655C293.57 236.655 294.682 243.515 286.751 246.112L258.676 253.501C253.413 253.538 251.914 245.758 251.914 245.758C251.914 245.758 237.995 251.041 234.173 237.842C230.351 224.644 245.673 227.986 245.673 227.986C245.673 227.986 226.201 220.371 223.547 210.738C221.872 204.658 224.364 197.019 230.189 191.172C233.464 187.885 238.971 184.963 241.936 184.207C251.212 181.84 261.224 189.715 264.42 193.894C263.389 191.181 262.251 186.292 264.247 182.302C265.932 178.932 266.696 176.223 274.884 176.956C282.24 177.615 286.378 184.561 289.504 189.021C296.752 199.359 293.339 208.94 293.339 208.94Z" fill="#F2E4CE" stroke="#254E1E" stroke-width="2.28363"/>
<path d="M271.057 238.367C271.921 238.056 280.487 235.124 280.487 235.124L278.362 230.214L262.11 235.179C262.463 235.822 265.158 238.148 266.003 238.386C266.849 238.623 270.194 238.678 271.057 238.367Z" fill="#254E1E" stroke="#254E1E" stroke-width="1.69908" stroke-linejoin="round"/>
<path d="M271.057 238.367C271.921 238.056 280.487 235.124 280.487 235.124L279.361 232.76L264.134 236.473C264.487 237.115 265.69 238.103 266.535 238.34C267.381 238.577 270.194 238.678 271.057 238.367Z" fill="#E1C5D8" stroke="#254E1E" stroke-width="1.69908" stroke-linejoin="round"/>
<path d="M257.946 212.503C251.924 207.47 250.564 212.581 250.636 215.765L256.826 217.042L254.226 221.794C260.901 228.69 261.381 222.715 260.786 218.866C260.349 215.47 258.711 213.209 257.946 212.503Z" fill="#254E1E" stroke="#254E1E" stroke-width="2.28363"/>
<path d="M282.115 204.027C277.498 200.073 276.397 204.019 276.423 206.486L281.205 207.533L279.147 211.189C284.253 216.593 284.68 211.97 284.256 208.982C283.949 206.348 282.701 204.581 282.115 204.027Z" fill="#254E1E" stroke="#254E1E" stroke-width="2.28363"/>
<path d="M281.441 219.699C281.669 220.314 281.569 221.09 281.03 221.9C280.492 222.709 279.557 223.471 278.326 223.927C277.096 224.383 275.89 224.416 274.955 224.153C274.018 223.89 273.437 223.366 273.209 222.751C272.981 222.137 273.08 221.36 273.619 220.55C274.157 219.741 275.093 218.98 276.323 218.524C277.554 218.068 278.759 218.035 279.695 218.298C280.631 218.561 281.213 219.085 281.441 219.699Z" fill="#CC994C" stroke="#254E1E" stroke-width="2.28363"/>
<path d="M267.911 327.848C268.671 327.783 270.032 328.483 269.397 331.803C271.679 331.14 277.404 331.17 282.051 336.59C284.658 340.237 287.869 348.568 279.856 352.722C276.426 354.733 270.124 357.432 264.325 357.555C249.124 362.373 247.08 348.291 247.958 340.648C242.376 336.227 241.031 328.74 241.056 325.549C240.673 319.867 248.407 316.525 252.322 315.564C253.636 315.034 255.206 314.616 257.064 314.334C259.888 312.41 262.698 315.86 264.061 318.61L267.911 327.848Z" fill="#C6AC9A"/>
<path d="M267.911 327.848C267.438 331.868 263.842 331.979 262.103 331.533C254.367 330.56 253.347 323.096 253.804 319.486C254.835 316.686 255.95 315.093 257.064 314.334M267.911 327.848C268.671 327.783 270.032 328.483 269.397 331.803M267.911 327.848L264.061 318.61C262.698 315.86 259.888 312.41 257.064 314.334M269.397 331.803C263.44 333.74 260.666 339.096 260.023 341.532M269.397 331.803C271.679 331.14 277.404 331.17 282.051 336.59C284.658 340.237 287.869 348.568 279.856 352.722C276.426 354.733 270.124 357.432 264.325 357.555M257.064 314.334C255.206 314.616 253.636 315.034 252.322 315.564M252.322 315.564C241.872 319.773 247.498 331.021 252.214 336.714C248.946 345.054 253.156 352.237 255.67 354.786C258.006 356.89 261.087 357.624 264.325 357.555M252.322 315.564C248.407 316.525 240.673 319.867 241.056 325.549C241.031 328.74 242.376 336.227 247.958 340.648C247.08 348.291 249.124 362.373 264.325 357.555" stroke="#254E1E" stroke-width="2.28363" stroke-linecap="round" stroke-linejoin="round"/>
<path d="M277.115 286.245C281.852 285.458 294.058 280.615 304.983 267.539L303.931 264.185C306.49 262.968 307.673 262.743 308.017 263.071C308.048 263.1 308.071 263.133 308.089 263.17C315.858 273.901 327.784 296.68 313.857 302.752L321.458 314.093C324.69 320.577 306.341 328.266 304.711 321.135L295.869 311.685C294.635 311.762 293.306 311.793 291.922 311.767C291.679 313.404 290.61 316.726 288.28 316.925C285.439 317.508 277.713 316.858 269.542 309.596C269.484 308.91 269.839 307.093 271.727 305.312C267.84 301.405 266.554 295.365 270.84 286.271C271.119 285.307 273.332 283.555 275.883 282.269L277.115 286.245Z" fill="#CC994C"/>
<path d="M277.115 286.245C281.852 285.458 294.058 280.615 304.983 267.539M277.115 286.245C272.158 287.254 270.619 287.031 270.84 286.271M277.115 286.245L275.883 282.269C273.332 283.555 271.119 285.307 270.84 286.271M304.983 267.539C306.635 265.934 308.623 263.647 308.017 263.071M304.983 267.539L303.931 264.185C306.49 262.968 307.673 262.743 308.017 263.071M308.017 263.071C315.785 273.76 327.827 296.661 313.857 302.752L321.458 314.093M321.458 314.093C309.055 306.274 305.126 315.53 304.711 321.135M321.458 314.093C324.69 320.577 306.341 328.266 304.711 321.135M304.711 321.135C301.258 317.445 295.869 311.685 295.869 311.685C294.635 311.762 293.306 311.793 291.922 311.767M270.84 286.271C266.554 295.365 267.84 301.405 271.727 305.312M291.922 311.767C291.679 313.404 290.61 316.726 288.28 316.925C285.439 317.508 277.713 316.858 269.542 309.596C269.484 308.91 269.839 307.093 271.727 305.312M291.922 311.767C284.884 311.636 276.415 310.024 271.727 305.312" stroke="#254E1E" stroke-width="2.28363" stroke-linecap="round" stroke-linejoin="round"/>
<path d="M288.933 248.373C296.017 235.727 314.452 226.551 322.784 223.544L324.606 226.96C309.657 233.542 297.981 247.771 294.011 254.062C302.113 260.514 305.131 265.783 305.627 267.612C305.279 276.485 305.428 296.354 308.805 304.841C312.183 313.328 322.445 324.17 327.154 328.53L321.422 333.101C314.061 325.77 308.239 317.135 306.248 313.733L288.402 298.93L282.441 315.765C279.904 321.901 270.368 326.745 265.918 328.401C256.887 330.192 257.936 323.555 259.589 320.012C268.301 319.268 273.912 311.476 275.628 307.673C281.222 284.746 271.963 269.72 266.634 265.073C245.187 264.863 241.841 280.455 242.849 288.277C237.991 291.141 233.126 288.937 231.301 287.477C233.127 263.444 250.931 255.444 259.604 254.448L288.933 248.373Z" fill="#CC994C" stroke="#254E1E" stroke-width="2.28363" stroke-linejoin="round"/>
<path d="M230.986 288.27C232.994 289.374 238.078 290.955 242.353 288.447C243.654 287.741 245.604 286.18 243.002 285.586C244.057 285.496 246.013 285.89 245.393 288.188C248.172 288.376 253.567 289.811 252.909 294.051C252.848 295.599 252.116 298.149 249.871 298.806C250.662 302.597 250.486 309.896 243.45 308.762L243.577 307.917C243.089 308.935 241.946 309.839 239.578 309.731C238.714 309.867 237.436 309.922 236.383 309.651C234.821 310.774 214.479 307.664 230.109 289.493C229.833 288.712 229.702 287.793 229.773 286.715C229.978 287.182 230.362 287.701 230.986 288.27Z" fill="#F2E4CE"/>
<path d="M231.494 283.762C230.471 284.113 229.069 285.112 229.773 286.715M245.393 288.188C246.013 285.89 244.057 285.496 243.002 285.586C245.604 286.18 243.654 287.741 242.353 288.447C238.078 290.955 232.994 289.374 230.986 288.27C230.362 287.701 229.978 287.182 229.773 286.715M245.393 288.188C245.399 289.76 243.817 293.042 237.435 293.587C235.233 293.671 231.304 292.876 230.109 289.493M245.393 288.188C248.172 288.376 253.567 289.811 252.909 294.051C252.848 295.599 252.116 298.149 249.871 298.806M229.773 286.715C229.702 287.793 229.833 288.712 230.109 289.493M247.857 296.141C248.38 296.287 249.514 297.024 249.871 298.806M249.871 298.806C250.662 302.597 250.486 309.896 243.45 308.762L243.856 306.049C244.052 307.35 243.471 309.908 239.578 309.731C238.714 309.867 237.436 309.922 236.383 309.651M234.539 307.482C234.439 308.738 235.29 309.37 236.383 309.651M236.383 309.651C234.821 310.774 214.479 307.664 230.109 289.493" stroke="#254E1E" stroke-width="2.28363" stroke-linecap="round" stroke-linejoin="round"/>
<path d="M322.575 230.067C323.124 225.735 321.662 223.852 320.863 223.453C318.877 222.69 318.035 222.795 317.773 223.207C318.776 220.672 320.91 221.068 321.851 221.583C321.991 221.67 322.126 221.759 322.257 221.85C323.406 220.974 325.42 221.054 326.283 221.205C326.365 219.769 327.707 218.957 328.368 218.731C327.822 215.92 328.041 213.401 328.218 212.493C327.355 207.159 330.004 206.516 331.436 206.861C336.278 208.591 335.996 215.443 335.249 218.653C338.413 217.465 342.88 218.385 344.717 218.993C346.315 219.775 351.94 222.416 354.553 223.638C359.388 226.491 356.82 227.782 354.931 228.07C352.956 227.901 351.443 227.802 350.294 227.752C362.248 232.099 355.622 234.347 350.797 234.928C358.494 237.833 356.003 239.624 353.795 240.157C351.6 240.753 347.299 239.776 345.423 239.214C329.397 239.153 324.517 234.885 324.081 232.758C323.229 233.043 322.279 232.783 321.629 232.43C322.162 232.303 322.463 231.101 322.575 230.067Z" fill="#F2E4CE"/>
<path d="M318.026 224.588C317.752 224.14 317.548 223.56 317.773 223.207M319.663 230.316C320.565 232.911 321.144 232.545 321.629 232.43M321.629 232.43C322.162 232.303 322.463 231.101 322.575 230.067C323.124 225.735 321.662 223.852 320.863 223.453C318.877 222.69 318.035 222.795 317.773 223.207M321.629 232.43C322.279 232.783 323.229 233.043 324.081 232.758M317.773 223.207C318.776 220.672 320.91 221.068 321.851 221.583C321.991 221.67 322.126 221.759 322.257 221.85M324.081 232.758C325.098 232.417 325.974 231.296 326.024 228.625C326.068 227.234 325.361 224.012 322.257 221.85M324.081 232.758C324.517 234.885 329.397 239.153 345.423 239.214C347.299 239.776 351.6 240.753 353.795 240.157C356.003 239.624 358.494 237.833 350.797 234.928C355.637 234.345 362.289 232.085 350.181 227.711C349.533 227.596 347.994 227.489 347.015 227.981C346.698 227.757 347.838 227.463 354.931 228.07C356.82 227.782 359.388 226.491 354.553 223.638C351.94 222.416 346.315 219.775 344.717 218.993M344.717 218.993C342.88 218.385 338.413 217.465 335.249 218.653C335.996 215.443 336.278 208.591 331.436 206.861C330.004 206.516 327.355 207.159 328.218 212.493C328.041 213.401 327.822 215.92 328.368 218.731C327.707 218.957 326.365 219.769 326.283 221.205C325.42 221.054 323.406 220.974 322.257 221.85M344.717 218.993C346.442 221.269 349.012 226.866 345.491 231.045M329.429 226.676C330.977 224.886 335.87 222.044 343.062 225.002" stroke="#254E1E" stroke-width="2.28363" stroke-linecap="round" stroke-linejoin="round"/>
<path d="M277.115 286.245C281.852 285.458 294.058 280.615 304.983 267.539C306.553 266.014 308.425 263.874 308.089 263.17C308.065 263.137 308.041 263.104 308.017 263.071C308.048 263.1 308.071 263.133 308.089 263.17C315.858 273.901 327.784 296.68 313.857 302.752L321.458 314.093C309.055 306.274 305.126 315.53 304.711 321.135L295.869 311.685C294.635 311.762 293.306 311.793 291.922 311.767C291.679 313.404 290.61 316.726 288.28 316.925C285.439 317.508 277.713 316.858 269.542 309.596C269.483 308.91 269.839 307.093 271.727 305.312C267.84 301.405 266.554 295.365 270.84 286.271C270.619 287.031 272.158 287.254 277.115 286.245Z" fill="#9FC299"/>
<path d="M275.883 282.269C273.332 283.555 271.119 285.307 270.84 286.271M303.931 264.185C306.49 262.968 307.673 262.743 308.017 263.071M308.017 263.071C308.623 263.647 306.635 265.934 304.983 267.539C294.058 280.615 281.852 285.458 277.115 286.245C272.158 287.254 270.619 287.031 270.84 286.271M308.017 263.071C315.785 273.76 327.827 296.661 313.857 302.752L321.458 314.093C309.055 306.274 305.126 315.53 304.711 321.135C301.258 317.445 295.869 311.685 295.869 311.685C294.635 311.762 293.306 311.793 291.922 311.767M270.84 286.271C266.554 295.365 267.84 301.405 271.727 305.312M291.922 311.767C291.679 313.404 290.61 316.726 288.28 316.925C285.439 317.508 277.713 316.858 269.542 309.596C269.483 308.91 269.839 307.093 271.727 305.312M291.922 311.767C284.884 311.636 276.415 310.024 271.727 305.312" stroke="#254E1E" stroke-width="2.28363" stroke-linecap="round" stroke-linejoin="round"/>
<path d="M318.648 339.461C318.817 333.962 322.605 330.22 329.17 328.231C329.03 321.61 332.451 308.69 347.255 309.977C348.86 310.059 348.854 310.351 352.516 313.865C356.177 317.379 354.438 320.709 353.063 327.212C352.372 328.588 350.847 332.63 350.266 337.782C349.771 341.949 346.765 350.862 338.698 353.183C337.047 353.481 334.223 353.587 331.275 352.889C328.616 352.26 325.856 350.977 323.765 348.591C322.236 347.616 318.48 344.96 318.648 339.461Z" fill="#C6AC9A"/>
<path d="M352.516 313.865C348.854 310.351 348.86 310.059 347.255 309.977C332.451 308.69 329.03 321.61 329.17 328.231C322.605 330.22 318.817 333.962 318.648 339.461C318.48 344.96 322.236 347.616 323.765 348.591C325.856 350.977 328.616 352.26 331.275 352.889M352.516 313.865C356.177 317.379 354.438 320.709 353.063 327.211C352.372 328.588 350.847 332.63 350.266 337.782C349.771 341.949 346.765 350.862 338.698 353.183C337.047 353.481 334.223 353.587 331.275 352.889M352.516 313.865C348.351 312.222 339.812 312.449 338.971 326.501C333.621 331.569 324.592 343.942 331.275 352.889" stroke="#254E1E" stroke-width="2.28363" stroke-linecap="round" stroke-linejoin="round"/>
</g>
<defs>
<filter id="filter0_d_103_1549" x="178.77" y="133.013" width="179.7" height="229.169" filterUnits="userSpaceOnUse" color-interpolation-filters="sRGB">
<feFlood flood-opacity="0" result="BackgroundImageFix"/>
<feColorMatrix in="SourceAlpha" type="matrix" values="0 0 0 0 0 0 0 0 0 0 0 0 0 0 0 0 0 0 127 0" result="hardAlpha"/>
<feOffset dx="-2.86157" dy="2.50387"/>
<feComposite in2="hardAlpha" operator="out"/>
<feColorMatrix type="matrix" values="0 0 0 0 0.145098 0 0 0 0 0.305882 0 0 0 0 0.117647 0 0 0 1 0"/>
<feBlend mode="normal" in2="BackgroundImageFix" result="effect1_dropShadow_103_1549"/>
<feBlend mode="normal" in="SourceGraphic" in2="effect1_dropShadow_103_1549" result="shape"/>
</filter>
</defs>
</svg>
