<svg width="1440" height="1117" viewBox="0 0 1440 1117" fill="none" xmlns="http://www.w3.org/2000/svg">
<path d="M-36.7477 201.468C476.293 -67.1419 1190.96 -35.1113 1397.48 111.435C1604 257.98 1499.62 1117 1499.62 1117L-33.7839 1084.72C-33.7839 1084.72 -549.789 470.077 -36.7477 201.468Z" fill="#8BC081"/>
<path d="M370.714 112.815C373.492 105.605 369.9 97.509 362.691 94.7309L321.024 78.6742C310.866 74.7599 300.327 83.4365 302.217 94.1568L305.173 110.921C305.838 114.693 308.02 118.026 311.21 120.145L341.814 140.473C349.268 145.424 359.39 142.2 362.608 133.85L370.714 112.815Z" fill="#BED4DE"/>
<path d="M294.734 115.865C297.911 107.62 293.803 98.3596 285.557 95.1821L268.321 88.54C256.703 84.0631 244.649 93.9868 246.811 106.248L246.948 107.029C247.709 111.343 250.204 115.156 253.853 117.579L269.265 127.816C277.79 133.479 289.367 129.791 293.047 120.241L294.734 115.865Z" fill="#BED4DE"/>
<path d="M326.546 159.87C329.724 151.624 325.615 142.364 317.37 139.187L300.134 132.544C288.516 128.067 276.462 137.991 278.623 150.253L278.761 151.034C279.522 155.347 282.017 159.16 285.666 161.583L301.078 171.82C309.603 177.483 321.18 173.796 324.86 164.246L326.546 159.87Z" fill="#BED4DE"/>
<path d="M267.272 153.864C270.45 145.618 266.341 136.358 258.096 133.18L231.76 123.032C220.334 118.629 208.398 128.17 210.177 140.286L211.442 148.908C212.09 153.321 214.55 157.263 218.229 159.783L238.527 173.691C247.048 179.53 258.786 175.884 262.501 166.246L267.272 153.864Z" fill="#BED4DE"/>
<path d="M297.483 213.412C300.661 205.166 296.552 195.906 288.307 192.729L261.971 182.58C250.545 178.177 238.609 187.718 240.387 199.834L241.653 208.457C242.301 212.869 244.761 216.811 248.44 219.332L268.738 233.24C277.259 239.078 288.997 235.433 292.711 225.794L297.483 213.412Z" fill="#BED4DE"/>
<path d="M229.654 197.825C232.832 189.58 228.723 180.32 220.478 177.142L194.142 166.994C182.716 162.59 170.78 172.132 172.559 184.247L173.824 192.87C174.472 197.283 176.932 201.224 180.611 203.745L200.909 217.653C209.43 223.492 221.168 219.846 224.883 210.208L229.654 197.825Z" fill="#BED4DE"/>
<path d="M260.482 254.881C263.659 246.636 259.551 237.376 251.305 234.198L224.97 224.05C213.543 219.646 201.607 229.188 203.386 241.303L204.652 249.926C205.3 254.338 207.759 258.28 211.438 260.801L231.736 274.709C240.258 280.548 251.996 276.902 255.71 267.263L260.482 254.881Z" fill="#BED4DE"/>
<path d="M191.761 240.754C194.939 232.509 190.83 223.248 182.585 220.071L153.294 208.784C142.585 204.657 131.141 212.814 131.551 224.284L132.347 246.607C132.514 251.282 134.719 255.651 138.382 258.562L156.94 273.311C165.395 280.03 177.942 276.616 181.825 266.538L191.761 240.754Z" fill="#BED4DE"/>
<path d="M235.369 298.699C235.656 289.868 228.729 282.475 219.897 282.188L180.83 280.92C168.386 280.515 160.269 293.854 166.345 304.72L172.497 315.721C174.635 319.544 178.246 322.323 182.489 323.411L214.819 331.699C224.733 334.24 234.452 326.949 234.784 316.719L235.369 298.699Z" fill="#BED4DE"/>
<path d="M156.737 295.49C154.975 286.935 146.612 281.428 138.057 283.19L124.572 285.966C113.669 288.211 109.395 301.501 116.946 309.68C119.602 312.558 123.321 314.221 127.237 314.281L141.003 314.493C151.118 314.649 158.777 305.399 156.737 295.49Z" fill="#BED4DE"/>
<path d="M214.593 351.811C212.682 342.527 203.606 336.55 194.321 338.462L179.687 341.475C167.854 343.911 163.216 358.334 171.41 367.211C174.293 370.334 178.329 372.138 182.579 372.204L197.518 372.434C208.496 372.603 216.808 362.565 214.593 351.811Z" fill="#BED4DE"/>
<path d="M155.331 335.671C153.549 327.016 145.088 321.445 136.433 323.227L117.602 327.104C105.608 329.574 100.721 344.052 108.764 353.285L110.932 355.773C113.861 359.136 118.061 361.123 122.519 361.256L140.604 361.796C150.929 362.104 158.836 352.694 156.752 342.577L155.331 335.671Z" fill="#BED4DE"/>
<path d="M213.331 396.671C211.549 388.016 203.088 382.445 194.433 384.227L175.602 388.104C163.608 390.574 158.721 405.052 166.764 414.285L168.932 416.773C171.861 420.136 176.061 422.123 180.519 422.256L198.604 422.796C208.929 423.104 216.836 413.694 214.752 403.577L213.331 396.671Z" fill="#BED4DE"/>
<path d="M116.468 407.901C121.875 414.891 131.924 416.173 138.913 410.766L154.12 399.002C163.805 391.509 161.827 376.357 150.542 371.602L147.501 370.321C143.391 368.589 138.745 368.652 134.683 370.493L118.204 377.962C108.796 382.226 105.834 394.155 112.154 402.325L116.468 407.901Z" fill="#BED4DE"/>
<path d="M223.331 440.671C221.549 432.016 213.088 426.445 204.433 428.227L185.602 432.104C173.608 434.574 168.721 449.052 176.764 458.285L178.932 460.773C181.861 464.136 186.061 466.123 190.519 466.256L208.604 466.796C218.929 467.104 226.836 457.694 224.752 447.577L223.331 440.671Z" fill="#BED4DE"/>
<path d="M158.331 433.671C156.549 425.016 148.088 419.445 139.433 421.227L117.5 425.743C106.259 428.057 101.038 441.105 107.581 450.535L116.451 463.32C119.118 467.164 123.334 469.648 127.989 470.118L144.967 471.833C155.712 472.918 164.424 463.265 162.246 452.687L158.331 433.671Z" fill="#BED4DE"/>
<path d="M152.532 485.74C143.723 486.445 137.154 494.158 137.86 502.966L140.979 541.929C141.973 554.34 156.137 560.911 166.254 553.654L176.495 546.307C180.054 543.755 182.411 539.854 183.016 535.517L187.627 502.461C189.041 492.324 180.706 483.485 170.504 484.301L152.532 485.74Z" fill="#BED4DE"/>
<path d="M182.596 555.077C173.889 555.774 167.396 563.398 168.093 572.104L169.192 585.828C170.08 596.924 182.744 602.799 191.789 596.31C194.971 594.028 197.079 590.541 197.62 586.663L199.522 573.027C200.919 563.007 192.68 554.27 182.596 555.077Z" fill="#BED4DE"/>
<path d="M209.789 491.553C200.981 492.258 194.342 499.976 195.047 508.784L196.667 529.027C197.579 540.412 210.913 546.076 219.739 538.827C222.591 536.485 224.414 533.121 224.82 529.453L227.054 509.254C228.159 499.266 219.806 490.751 209.789 491.553Z" fill="#BED4DE"/>
<path d="M222.719 568.178C213.911 568.883 207.342 576.595 208.047 585.404L209.581 604.568C210.558 616.775 224.326 623.404 234.478 616.556L237.213 614.71C240.911 612.216 243.399 608.292 244.079 603.885L246.836 586.003C248.411 575.794 240.043 566.791 229.746 567.615L222.719 568.178Z" fill="#BED4DE"/>
<path d="M274.964 530.937C271.796 522.687 262.541 518.568 254.292 521.736L236.344 528.629C224.912 533.019 222.448 548.099 231.888 555.899L234.432 558.001C237.87 560.842 242.338 562.119 246.757 561.524L264.689 559.111C274.926 557.733 281.195 547.161 277.492 537.518L274.964 530.937Z" fill="#BED4DE"/>
<path d="M272.014 575.335C263.206 576.04 256.637 583.752 257.342 592.561L258.876 611.725C259.853 623.932 273.621 630.561 283.773 623.712L286.509 621.867C290.206 619.373 292.694 615.449 293.374 611.041L296.131 593.16C297.706 582.951 289.338 573.948 279.041 574.772L272.014 575.335Z" fill="#BED4DE"/>
<path d="M305.317 529.44C296.508 530.145 289.939 537.858 290.644 546.666L292.179 565.83C293.156 578.037 306.924 584.666 317.076 577.818L319.811 575.972C323.508 573.478 325.997 569.554 326.676 565.147L329.434 547.265C331.008 537.056 322.641 528.053 312.344 528.878L305.317 529.44Z" fill="#BED4DE"/>
<path d="M320.193 588.952C311.385 589.658 304.816 597.37 305.521 606.178L307.308 628.5C308.224 639.94 320.531 646.724 330.694 641.39L344.472 634.158C348.614 631.983 351.598 628.104 352.636 623.542L356.424 606.903C358.821 596.373 350.311 586.541 339.546 587.403L320.193 588.952Z" fill="#BED4DE"/>
<path d="M550.825 749.902C547.782 741.606 552.04 732.414 560.336 729.37L597.032 715.907C608.72 711.619 620.613 721.736 618.253 733.961L615.863 746.337C615.033 750.637 612.476 754.409 608.789 756.773L580.692 774.787C572.076 780.311 560.56 776.437 557.035 766.828L550.825 749.902Z" fill="#BED4DE"/>
<path d="M556.217 703.759C553.209 695.559 557.417 686.473 565.618 683.464L578.543 678.722C588.993 674.888 599.626 683.934 597.516 694.864C596.773 698.709 594.487 702.081 591.191 704.195L579.601 711.626C571.084 717.086 559.702 713.257 556.217 703.759Z" fill="#BED4DE"/>
<path d="M576.739 798.622C573.855 790.763 577.889 782.055 585.748 779.172L604.165 772.415C614.289 768.701 624.397 777.938 621.606 788.355C620.711 791.694 618.552 794.554 615.586 796.33L598.754 806.407C590.598 811.289 580.013 807.546 576.739 798.622Z" fill="#BED4DE"/>
<path d="M625.281 756.59C622.237 748.294 626.495 739.101 634.791 736.058L652.84 729.436C664.337 725.218 676.116 734.951 674.142 747.037L673.61 750.293C672.891 754.695 670.367 758.596 666.648 761.057L651.559 771.041C642.944 776.741 631.267 772.906 627.709 763.208L625.281 756.59Z" fill="#BED4DE"/>
<path d="M640.086 840.208C631.268 840.78 623.656 834.096 623.083 825.278L621.837 806.093C621.043 793.873 633.711 785.328 644.744 790.64L647.717 792.071C651.736 794.006 654.764 797.53 656.072 801.793L661.38 819.09C664.411 828.965 657.429 839.081 647.122 839.751L640.086 840.208Z" fill="#BED4DE"/>
<path d="M658.281 790.59C655.237 782.294 659.495 773.101 667.791 770.058L685.84 763.436C697.337 759.218 709.116 768.951 707.142 781.037L706.61 784.293C705.891 788.695 703.367 792.596 699.648 795.057L684.559 805.041C675.944 810.741 664.267 806.906 660.709 797.208L658.281 790.59Z" fill="#BED4DE"/>
<path d="M641.281 865.59C638.237 857.294 642.495 848.101 650.791 845.058L668.84 838.436C680.337 834.218 692.116 843.951 690.142 856.037L689.61 859.293C688.891 863.695 686.367 867.596 682.648 870.057L667.559 880.041C658.944 885.741 647.267 881.906 643.709 872.208L641.281 865.59Z" fill="#BED4DE"/>
<path d="M686.281 823.59C683.237 815.294 687.495 806.101 695.791 803.058L716.814 795.345C727.589 791.392 738.898 799.734 738.303 811.195L737.497 826.735C737.254 831.408 734.978 835.74 731.269 838.591L717.74 848.991C709.177 855.573 696.688 851.955 692.968 841.816L686.281 823.59Z" fill="#BED4DE"/>
<path d="M422.56 569.166C423.759 560.411 417.633 552.342 408.878 551.143L370.151 545.842C357.816 544.153 348.363 556.58 353.284 568.017L358.265 579.595C359.996 583.618 363.3 586.756 367.408 588.277L398.708 599.863C408.306 603.416 418.726 597.169 420.115 587.028L422.56 569.166Z" fill="#BED4DE"/>
<path d="M400.478 615.278C394.608 608.81 384.606 608.325 378.138 614.195L367.943 623.447C359.7 630.928 362.783 644.543 373.445 647.742C377.196 648.868 381.244 648.406 384.646 646.466L396.604 639.643C405.391 634.63 407.276 622.769 400.478 615.278Z" fill="#BED4DE"/>
<path d="M457.057 587.712C451.187 581.244 441.185 580.759 434.717 586.629L424.522 595.881C416.279 603.362 419.362 616.977 430.025 620.176C433.775 621.301 437.823 620.84 441.225 618.899L453.183 612.077C461.97 607.064 463.856 595.203 457.057 587.712Z" fill="#BED4DE"/>
<path d="M452.456 662.196C457.045 654.645 454.644 644.803 447.093 640.213L430.663 630.228C420.199 623.868 406.76 631.141 406.362 643.38L406.255 646.679C406.109 651.136 407.831 655.451 411.005 658.585L423.88 671.297C431.231 678.554 443.429 677.048 448.794 668.221L452.456 662.196Z" fill="#BED4DE"/>
<path d="M468.991 607.507C461.137 611.557 458.053 621.207 462.103 629.061L470.915 646.149C476.527 657.032 491.787 657.834 498.509 647.599L500.32 644.841C502.769 641.113 503.55 636.533 502.476 632.204L498.119 614.644C495.631 604.618 484.437 599.542 475.256 604.276L468.991 607.507Z" fill="#BED4DE"/>
<path d="M509.269 646.107C505.127 653.913 508.098 663.598 515.904 667.739L532.887 676.75C543.705 682.489 556.697 674.445 556.381 662.203L556.296 658.905C556.181 654.446 554.21 650.239 550.859 647.296L537.265 635.356C529.504 628.54 517.414 630.754 512.573 639.879L509.269 646.107Z" fill="#BED4DE"/>
<path d="M492.894 665.848C486.956 659.305 476.837 658.814 470.293 664.753L456.056 677.673C446.988 685.903 450.149 700.853 461.772 704.708L464.904 705.747C469.137 707.151 473.764 706.724 477.669 704.57L493.512 695.832C502.556 690.843 504.574 678.718 497.632 671.069L492.894 665.848Z" fill="#BED4DE"/>
<path d="M531.894 692.848C525.956 686.305 515.837 685.814 509.293 691.753L492.711 706.802C484.212 714.515 486.358 728.403 496.788 733.191L510.93 739.683C515.183 741.635 520.076 741.628 524.323 739.663L539.81 732.5C549.612 727.966 552.199 715.223 544.941 707.225L531.894 692.848Z" fill="#BED4DE"/>
<path d="M748.077 643.073C749.309 642.028 751.485 639.81 751.523 639.849C751.337 640.464 750.651 641.752 749.902 644.52C749.64 645.478 750.709 647.053 753.174 647.389C755.578 647.71 757.001 646.784 757.063 645.205C757.122 644.057 757.127 642.906 757.063 641.759C757.093 641.916 758.121 643.185 759.5 644.787C761.198 646.764 762.86 645.102 763.938 643.756C765.269 642.09 765.964 640.684 763.762 638.991C763.739 638.969 763.524 638.829 763.1 638.54C762.428 638.084 762.017 637.812 761.719 637.612C760.955 637.116 760.352 636.68 759.959 636.394C760.2 636.424 761.501 635.72 764.211 634.837C765.3 634.26 767.13 633.438 765.917 630.547C764.772 627.852 763.567 627.203 762.295 628.042C759.75 629.719 758.263 630.517 758.222 630.61C758.794 628.561 759.196 627.81 759.57 626.304C759.944 624.798 757.756 623.942 755.988 623.706C754.473 623.65 752.601 623.699 752.446 625.658C752.317 627.262 752.821 629.703 752.611 629.776C752.402 629.848 751.284 627.687 750.113 626.366C748.737 624.809 746.68 625.94 745.519 627.349C744.362 628.749 743.521 630.656 745.417 631.991C747.888 633.726 749.617 634.742 749.617 634.742C748.669 635.128 746.72 636.019 744.803 636.912C743.707 637.431 743.317 637.955 743.077 638.568C742.634 639.733 743.326 640.962 743.839 641.822C745.419 644.434 746.968 644.018 748.077 643.073Z" fill="#FFD465"/>
<path d="M439.5 673.016C425.5 673.416 412 662.516 412 651.516C412 634.516 431.5 631.016 439.5 631.016C447.5 631.016 452.5 632.016 458.5 634.516C464.5 637.016 470 636.516 476 639.516C478 640.516 488.5 639.516 492.5 639.516C496.5 639.516 498 627.516 510.5 624.516C523 621.516 541 632.016 541 645.016C541 658.016 524 666.516 514.5 667.516C505 668.516 499 655.5 494.5 655.5H478.5C475 655.5 457 672.516 439.5 673.016Z" fill="#254E1E" fill-opacity="0.5"/>
<g filter="url(#filter0_d_195_2020)">
<path d="M490.493 542.301L490.631 542.149L490.708 541.959C491.122 540.94 491.619 539.71 492.171 538.345C493.524 534.996 495.205 530.835 496.786 526.989C497.898 524.283 498.958 521.74 499.816 519.751C500.693 517.715 501.316 516.367 501.569 515.96C501.649 515.831 501.731 515.696 501.798 515.568C501.859 515.451 501.948 515.267 501.994 515.051C502.043 514.816 502.061 514.435 501.825 514.061C501.607 513.716 501.291 513.569 501.12 513.507C500.835 513.403 500.473 513.369 500.228 513.347L500.19 513.343C500.141 513.339 500.091 513.334 500.038 513.33C499.756 513.304 499.427 513.274 499.022 513.222C497.14 512.981 493.547 512.25 487.489 509.255C482.74 506.908 479.553 502.599 477.37 498.31C475.708 495.045 474.687 491.928 473.974 489.754C473.755 489.085 473.565 488.505 473.395 488.038L473.379 487.977L473.292 487.627L472.959 486.295C472.672 485.147 472.262 483.505 471.767 481.527C470.777 477.572 469.451 472.275 468.104 466.912C465.417 456.216 462.629 445.171 462.289 444.058C462.258 443.955 462.184 443.749 462.01 443.555C461.8 443.321 461.446 443.119 461.006 443.16C460.647 443.194 460.407 443.377 460.307 443.464C460.191 443.565 460.108 443.671 460.055 443.745C459.865 444.011 459.695 444.4 459.549 444.771C459.232 445.573 458.83 446.809 458.381 448.306C457.476 451.316 456.336 455.52 455.221 459.776C454.104 464.037 453.008 468.363 452.192 471.623C451.784 473.254 451.445 474.618 451.209 475.575C451.116 475.948 451.04 476.259 450.981 476.499L421.799 487.599L421.61 487.548C421.253 487.453 420.731 487.314 420.067 487.137C418.738 486.785 416.841 486.284 414.567 485.689C410.018 484.5 403.959 482.936 397.919 481.44C391.883 479.944 385.852 478.512 381.365 477.587C379.128 477.126 377.244 476.785 375.927 476.629C375.284 476.552 374.705 476.511 374.271 476.542C374.081 476.555 373.761 476.59 373.467 476.746C373.306 476.831 373.065 476.999 372.909 477.305C372.738 477.64 372.749 477.983 372.83 478.247C372.908 478.504 373.067 478.741 373.16 478.875C373.28 479.049 373.434 479.25 373.611 479.47C373.968 479.912 374.459 480.481 375.059 481.154C376.262 482.501 377.938 484.305 379.924 486.413C382.289 488.923 385.108 491.879 388.109 495.025C390.145 497.16 392.265 499.382 394.383 501.612C399.63 507.136 404.872 512.714 408.855 517.172C410.848 519.403 412.513 521.34 413.703 522.843C414.299 523.596 414.763 524.225 415.086 524.717C415.248 524.964 415.365 525.162 415.443 525.315C415.51 525.445 415.532 525.51 415.537 525.525C415.538 525.529 415.538 525.529 415.538 525.525C415.552 525.596 415.564 525.799 415.507 526.189C415.452 526.56 415.345 527.027 415.185 527.587C414.864 528.706 414.353 530.112 413.7 531.72C412.398 534.933 410.573 538.853 408.71 542.704C407.311 545.594 405.898 548.431 404.674 550.887C404.268 551.703 403.882 552.476 403.525 553.196C402.811 554.636 402.207 555.866 401.78 556.78C401.567 557.235 401.392 557.625 401.267 557.928C401.205 558.079 401.15 558.223 401.108 558.351C401.079 558.439 401.01 558.65 401.004 558.877C400.983 559.731 401.657 560.185 401.968 560.361C402.355 560.579 402.863 560.756 403.426 560.916C404.572 561.242 406.29 561.59 408.575 562.03C409.208 562.152 409.888 562.281 410.617 562.42C415.189 563.29 421.673 564.525 430.374 566.503L430.406 566.51L430.438 566.516C431.889 566.761 434.211 567.091 436.481 567.29C437.616 567.39 438.752 567.457 439.766 567.463C440.723 567.469 441.641 567.421 442.363 567.264L482.213 563.863L482.278 563.857L482.343 563.844C482.808 563.749 483.137 563.471 483.35 563.227C483.564 562.98 483.731 562.688 483.864 562.404C484.132 561.835 484.361 561.098 484.572 560.293C484.857 559.202 485.143 557.845 485.45 556.388C485.596 555.696 485.746 554.982 485.903 554.263C486.4 551.992 486.979 549.609 487.733 547.467C488.493 545.308 489.397 543.498 490.493 542.301ZM374.368 478.827C374.368 478.827 374.372 478.826 374.379 478.825C374.372 478.826 374.368 478.827 374.368 478.827Z" fill="#CC994C" stroke="#254E1E" stroke-width="2.28363"/>
<path d="M483.339 517.94C483.339 517.94 488.2 511.024 493.12 524.316C498.04 537.607 483.57 545.654 483.57 545.654C483.57 545.654 484.682 552.515 476.751 555.112L448.676 562.501C443.413 562.538 441.914 554.757 441.914 554.757C441.914 554.757 427.995 560.04 424.173 546.842C420.351 533.644 435.673 536.985 435.673 536.985C435.673 536.985 416.201 529.37 413.547 519.737C411.872 513.658 414.364 506.019 420.189 500.172C423.464 496.885 428.971 493.963 431.936 493.207C441.212 490.84 451.224 498.715 454.42 502.893C453.389 500.181 452.251 495.292 454.247 491.302C455.932 487.932 456.696 485.223 464.884 485.956C472.24 486.615 476.378 493.561 479.504 498.021C486.752 508.359 483.339 517.94 483.339 517.94Z" fill="#F2E4CE" stroke="#254E1E" stroke-width="2.28363"/>
<path d="M461.057 547.367C461.921 547.056 470.487 544.124 470.487 544.124L468.362 539.214L452.11 544.179C452.463 544.822 455.158 547.148 456.003 547.385C456.849 547.623 460.194 547.678 461.057 547.367Z" fill="#254E1E" stroke="#254E1E" stroke-width="1.69908" stroke-linejoin="round"/>
<path d="M461.057 547.367C461.921 547.056 470.487 544.124 470.487 544.124L469.361 541.76L454.134 545.472C454.487 546.115 455.69 547.103 456.535 547.34C457.381 547.577 460.194 547.678 461.057 547.367Z" fill="#E1C5D8" stroke="#254E1E" stroke-width="1.69908" stroke-linejoin="round"/>
<path d="M447.946 521.502C441.924 516.47 440.564 521.581 440.637 524.765L446.826 526.042L444.226 530.794C450.901 537.69 451.381 531.715 450.786 527.866C450.349 524.47 448.711 522.208 447.946 521.502Z" fill="#254E1E" stroke="#254E1E" stroke-width="2.28363"/>
<path d="M472.115 513.027C467.498 509.073 466.397 513.019 466.423 515.486L471.205 516.533L469.148 520.189C474.253 525.593 474.68 520.969 474.256 517.982C473.949 515.348 472.701 513.581 472.115 513.027Z" fill="#254E1E" stroke="#254E1E" stroke-width="2.28363"/>
<path d="M471.441 528.699C471.669 529.314 471.569 530.09 471.03 530.9C470.492 531.709 469.557 532.47 468.326 532.927C467.096 533.383 465.89 533.415 464.955 533.153C464.018 532.89 463.437 532.366 463.209 531.751C462.981 531.137 463.08 530.36 463.619 529.55C464.157 528.741 465.093 527.98 466.323 527.524C467.554 527.068 468.759 527.035 469.695 527.298C470.631 527.561 471.213 528.085 471.441 528.699Z" fill="#CC994C" stroke="#254E1E" stroke-width="2.28363"/>
<path d="M457.911 636.848C458.671 636.783 460.032 637.483 459.397 640.803C461.679 640.14 467.404 640.17 472.051 645.59C474.658 649.236 477.869 657.568 469.856 661.721C466.426 663.733 460.124 666.431 454.325 666.555C439.124 671.373 437.08 657.291 437.958 649.648C432.376 645.227 431.031 637.739 431.056 634.548C430.673 628.867 438.407 625.525 442.322 624.564C443.636 624.034 445.206 623.616 447.064 623.334C449.888 621.41 452.698 624.859 454.061 627.61L457.911 636.848Z" fill="#C6AC9A"/>
<path d="M457.911 636.848C457.438 640.868 453.842 640.979 452.103 640.532C444.367 639.56 443.347 632.096 443.804 628.486C444.835 625.686 445.95 624.093 447.064 623.334M457.911 636.848C458.671 636.783 460.032 637.483 459.397 640.803M457.911 636.848L454.061 627.61C452.698 624.859 449.888 621.41 447.064 623.334M459.397 640.803C453.44 642.74 450.666 648.096 450.023 650.532M459.397 640.803C461.679 640.14 467.404 640.17 472.051 645.59C474.658 649.236 477.869 657.568 469.856 661.721C466.426 663.733 460.124 666.431 454.325 666.555M447.064 623.334C445.206 623.616 443.636 624.034 442.322 624.564M442.322 624.564C431.872 628.773 437.498 640.02 442.214 645.714C438.946 654.054 443.156 661.237 445.67 663.786C448.006 665.89 451.087 666.624 454.325 666.555M442.322 624.564C438.407 625.525 430.673 628.867 431.056 634.548C431.031 637.739 432.376 645.227 437.958 649.648C437.08 657.291 439.124 671.373 454.325 666.555" stroke="#254E1E" stroke-width="2.28363" stroke-linecap="round" stroke-linejoin="round"/>
<path d="M467.115 595.245C471.852 594.458 484.058 589.615 494.983 576.539L493.931 573.185C496.49 571.968 497.673 571.743 498.017 572.071C498.048 572.099 498.071 572.133 498.089 572.17C505.858 582.9 517.784 605.68 503.857 611.752L511.458 623.093C514.69 629.577 496.341 637.266 494.711 630.135L485.869 620.685C484.635 620.762 483.306 620.793 481.922 620.767C481.679 622.404 480.61 625.726 478.28 625.925C475.439 626.508 467.713 625.858 459.542 618.596C459.483 617.91 459.839 616.093 461.727 614.312C457.84 610.404 456.554 604.365 460.84 595.27C461.119 594.307 463.332 592.555 465.883 591.268L467.115 595.245Z" fill="#CC994C"/>
<path d="M467.115 595.245C471.852 594.458 484.058 589.615 494.983 576.539M467.115 595.245C462.158 596.253 460.619 596.031 460.84 595.27M467.115 595.245L465.883 591.268C463.332 592.555 461.119 594.307 460.84 595.27M494.983 576.539C496.635 574.934 498.623 572.647 498.017 572.071M494.983 576.539L493.931 573.185C496.49 571.968 497.673 571.743 498.017 572.071M498.017 572.071C505.785 582.76 517.827 605.661 503.857 611.752L511.458 623.093M511.458 623.093C499.055 615.274 495.126 624.529 494.711 630.135M511.458 623.093C514.69 629.577 496.341 637.266 494.711 630.135M494.711 630.135C491.258 626.444 485.869 620.685 485.869 620.685C484.635 620.762 483.306 620.793 481.922 620.767M460.84 595.27C456.554 604.365 457.84 610.404 461.727 614.312M481.922 620.767C481.679 622.404 480.61 625.726 478.28 625.925C475.439 626.508 467.713 625.858 459.542 618.596C459.483 617.91 459.839 616.093 461.727 614.312M481.922 620.767C474.884 620.636 466.415 619.024 461.727 614.312" stroke="#254E1E" stroke-width="2.28363" stroke-linecap="round" stroke-linejoin="round"/>
<path d="M478.933 557.373C486.017 544.727 504.452 535.551 512.784 532.544L514.606 535.96C499.657 542.542 487.981 556.771 484.011 563.062C492.113 569.514 495.131 574.783 495.627 576.612C495.279 585.485 495.428 605.354 498.805 613.841C502.183 622.328 512.445 633.17 517.154 637.53L511.422 642.101C504.061 634.77 498.239 626.135 496.248 622.733L478.402 607.93L472.441 624.765C469.904 630.9 460.368 635.745 455.918 637.401C446.887 639.192 447.936 632.555 449.589 629.012C458.301 628.268 463.912 620.476 465.628 616.673C471.222 593.746 461.963 578.72 456.634 574.073C435.187 573.863 431.841 589.455 432.849 597.277C427.991 600.141 423.126 597.937 421.301 596.477C423.127 572.444 440.931 564.444 449.604 563.448L478.933 557.373Z" fill="#CC994C" stroke="#254E1E" stroke-width="2.28363" stroke-linejoin="round"/>
<path d="M420.986 597.27C422.994 598.374 428.078 599.955 432.353 597.447C433.654 596.741 435.604 595.18 433.002 594.586C434.057 594.495 436.013 594.89 435.393 597.188C438.172 597.376 443.567 598.811 442.909 603.051C442.848 604.598 442.116 607.149 439.871 607.805C440.662 611.597 440.486 618.896 433.45 617.762L433.576 616.917C433.089 617.934 431.946 618.839 429.578 618.73C428.714 618.867 427.436 618.922 426.383 618.651C424.821 619.774 404.479 616.664 420.109 598.492C419.833 597.711 419.702 596.793 419.772 595.715C419.978 596.182 420.362 596.701 420.986 597.27Z" fill="#F2E4CE"/>
<path d="M421.494 592.762C420.471 593.113 419.069 594.112 419.772 595.715M435.393 597.188C436.013 594.89 434.057 594.495 433.002 594.586C435.604 595.18 433.654 596.741 432.353 597.447C428.078 599.955 422.994 598.374 420.986 597.27C420.362 596.701 419.978 596.182 419.772 595.715M435.393 597.188C435.399 598.76 433.817 602.042 427.435 602.586C425.233 602.671 421.304 601.875 420.109 598.492M435.393 597.188C438.172 597.376 443.567 598.811 442.909 603.051C442.848 604.598 442.116 607.149 439.871 607.805M419.772 595.715C419.702 596.793 419.833 597.711 420.109 598.492M437.857 605.141C438.38 605.286 439.514 606.023 439.871 607.805M439.871 607.805C440.662 611.597 440.486 618.896 433.45 617.762L433.856 615.049C434.052 616.35 433.471 618.908 429.578 618.73C428.714 618.867 427.436 618.922 426.383 618.651M424.539 616.482C424.439 617.737 425.29 618.369 426.383 618.651M426.383 618.651C424.821 619.774 404.479 616.664 420.109 598.492" stroke="#254E1E" stroke-width="2.28363" stroke-linecap="round" stroke-linejoin="round"/>
<path d="M512.575 539.067C513.124 534.734 511.662 532.852 510.863 532.453C508.877 531.69 508.035 531.795 507.773 532.206C508.776 529.672 510.91 530.068 511.851 530.583C511.991 530.67 512.126 530.759 512.257 530.85C513.406 529.973 515.42 530.054 516.283 530.204C516.365 528.769 517.707 527.957 518.368 527.73C517.822 524.92 518.041 522.401 518.218 521.493C517.355 516.159 520.004 515.516 521.436 515.861C526.278 517.591 525.996 524.443 525.249 527.653C528.413 526.465 532.88 527.385 534.717 527.993C536.315 528.775 541.94 531.416 544.553 532.638C549.388 535.491 546.82 536.781 544.931 537.07C542.956 536.901 541.443 536.802 540.294 536.751C552.248 541.099 545.622 543.347 540.797 543.928C548.494 546.832 546.003 548.624 543.795 549.157C541.6 549.753 537.299 548.776 535.423 548.214C519.397 548.153 514.517 543.884 514.081 541.758C513.229 542.043 512.279 541.783 511.629 541.43C512.162 541.303 512.463 540.101 512.575 539.067Z" fill="#F2E4CE"/>
<path d="M508.026 533.588C507.752 533.14 507.548 532.56 507.773 532.206M509.663 539.316C510.565 541.911 511.144 541.545 511.629 541.43M511.629 541.43C512.162 541.303 512.463 540.101 512.575 539.067C513.124 534.734 511.662 532.852 510.863 532.453C508.877 531.69 508.035 531.795 507.773 532.206M511.629 541.43C512.279 541.783 513.229 542.043 514.081 541.758M507.773 532.206C508.776 529.672 510.91 530.068 511.851 530.583C511.991 530.67 512.126 530.759 512.257 530.85M514.081 541.758C515.098 541.417 515.974 540.296 516.024 537.625C516.068 536.234 515.361 533.012 512.257 530.85M514.081 541.758C514.517 543.884 519.397 548.153 535.423 548.214C537.299 548.776 541.6 549.753 543.795 549.157C546.003 548.624 548.494 546.832 540.797 543.928C545.637 543.345 552.289 541.085 540.181 536.71C539.533 536.596 537.994 536.489 537.015 536.981C536.698 536.757 537.838 536.463 544.931 537.07C546.82 536.781 549.388 535.491 544.553 532.638C541.94 531.416 536.315 528.775 534.717 527.993M534.717 527.993C532.88 527.385 528.413 526.465 525.249 527.653C525.996 524.443 526.278 517.591 521.436 515.861C520.004 515.516 517.355 516.159 518.218 521.493C518.041 522.401 517.822 524.92 518.368 527.73C517.707 527.957 516.365 528.769 516.283 530.204C515.42 530.054 513.406 529.973 512.257 530.85M534.717 527.993C536.442 530.269 539.012 535.866 535.491 540.045M519.429 535.676C520.977 533.885 525.87 531.044 533.062 534.002" stroke="#254E1E" stroke-width="2.28363" stroke-linecap="round" stroke-linejoin="round"/>
<path d="M467.115 595.245C471.852 594.458 484.058 589.615 494.983 576.539C496.553 575.014 498.425 572.874 498.089 572.17C498.065 572.136 498.041 572.103 498.017 572.071C498.048 572.099 498.071 572.133 498.089 572.17C505.858 582.9 517.784 605.68 503.857 611.752L511.458 623.093C499.055 615.274 495.126 624.529 494.711 630.135L485.869 620.685C484.635 620.762 483.306 620.793 481.922 620.767C481.679 622.404 480.61 625.726 478.28 625.925C475.439 626.508 467.713 625.858 459.542 618.596C459.483 617.91 459.839 616.093 461.727 614.312C457.84 610.404 456.554 604.365 460.84 595.27C460.619 596.031 462.158 596.253 467.115 595.245Z" fill="#9FC299"/>
<path d="M465.883 591.268C463.332 592.555 461.119 594.307 460.84 595.27M493.931 573.185C496.49 571.968 497.673 571.743 498.017 572.071M498.017 572.071C498.623 572.647 496.635 574.934 494.983 576.539C484.058 589.615 471.852 594.458 467.115 595.245C462.158 596.253 460.619 596.031 460.84 595.27M498.017 572.071C505.785 582.76 517.827 605.661 503.857 611.752L511.458 623.093C499.055 615.274 495.126 624.529 494.711 630.135C491.258 626.444 485.869 620.685 485.869 620.685C484.635 620.762 483.306 620.793 481.922 620.767M460.84 595.27C456.554 604.365 457.84 610.404 461.727 614.312M481.922 620.767C481.679 622.404 480.61 625.726 478.28 625.925C475.439 626.508 467.713 625.858 459.542 618.596C459.483 617.91 459.839 616.093 461.727 614.312M481.922 620.767C474.884 620.636 466.415 619.024 461.727 614.312" stroke="#254E1E" stroke-width="2.28363" stroke-linecap="round" stroke-linejoin="round"/>
<path d="M508.648 648.461C508.817 642.961 512.605 639.22 519.17 637.231C519.03 630.61 522.451 617.69 537.255 618.977C538.86 619.059 538.854 619.351 542.516 622.865C546.177 626.379 544.438 629.708 543.063 636.211C542.372 637.588 540.847 641.63 540.266 646.782C539.771 650.948 536.765 659.862 528.698 662.183C527.047 662.481 524.223 662.587 521.275 661.889C518.616 661.26 515.856 659.977 513.765 657.59C512.236 656.615 508.48 653.96 508.648 648.461Z" fill="#C6AC9A"/>
<path d="M542.516 622.865C538.854 619.351 538.86 619.059 537.255 618.977C522.451 617.69 519.03 630.61 519.17 637.231C512.605 639.22 508.817 642.961 508.648 648.461C508.48 653.96 512.236 656.615 513.765 657.59C515.856 659.977 518.616 661.26 521.275 661.889M542.516 622.865C546.177 626.379 544.438 629.708 543.063 636.211C542.372 637.588 540.847 641.63 540.266 646.782C539.771 650.948 536.765 659.862 528.698 662.183C527.047 662.481 524.223 662.587 521.275 661.889M542.516 622.865C538.351 621.222 529.812 621.449 528.971 635.501C523.621 640.569 514.592 652.942 521.275 661.889" stroke="#254E1E" stroke-width="2.28363" stroke-linecap="round" stroke-linejoin="round"/>
</g>
<path d="M114.077 673.073C115.309 672.028 117.485 669.81 117.523 669.849C117.337 670.464 116.651 671.752 115.902 674.52C115.64 675.478 116.709 677.053 119.174 677.389C121.578 677.71 123.001 676.784 123.063 675.205C123.122 674.057 123.127 672.906 123.063 671.759C123.093 671.916 124.121 673.185 125.5 674.787C127.198 676.764 128.86 675.102 129.938 673.756C131.269 672.09 131.964 670.684 129.762 668.991C129.739 668.969 129.524 668.829 129.1 668.54C128.428 668.084 128.017 667.812 127.719 667.612C126.955 667.116 126.352 666.68 125.959 666.394C126.2 666.424 127.501 665.72 130.211 664.837C131.3 664.26 133.13 663.438 131.917 660.547C130.772 657.852 129.567 657.203 128.295 658.042C125.75 659.719 124.263 660.517 124.222 660.61C124.794 658.561 125.196 657.81 125.57 656.304C125.944 654.798 123.756 653.942 121.988 653.706C120.473 653.65 118.601 653.699 118.446 655.658C118.317 657.262 118.821 659.703 118.611 659.776C118.402 659.848 117.284 657.687 116.113 656.366C114.737 654.809 112.68 655.94 111.519 657.349C110.362 658.749 109.521 660.656 111.417 661.991C113.888 663.726 115.617 664.742 115.617 664.742C114.669 665.128 112.72 666.019 110.803 666.912C109.707 667.431 109.317 667.955 109.077 668.568C108.634 669.733 109.326 670.962 109.839 671.822C111.419 674.434 112.968 674.018 114.077 673.073Z" fill="#FFD465"/>
<path d="M336.359 722.818C336.887 721.292 337.632 718.275 337.685 718.289C337.837 718.913 337.902 720.372 338.666 723.135C338.928 724.093 340.649 724.904 342.942 723.94C345.176 722.993 345.929 721.471 345.179 720.08C344.645 719.062 344.064 718.07 343.425 717.114C343.531 717.234 345.062 717.803 347.063 718.48C349.531 719.319 350.117 717.042 350.359 715.335C350.658 713.223 350.54 711.659 347.783 711.322C347.752 711.315 347.496 711.304 346.983 711.271C346.173 711.221 345.682 711.195 345.323 711.175C344.412 711.137 343.672 711.069 343.188 711.022C343.411 710.925 344.172 709.657 346.056 707.518C346.7 706.467 347.856 704.828 345.342 702.956C342.985 701.22 341.616 701.274 340.948 702.644C339.611 705.382 338.738 706.826 338.749 706.927C338.199 704.872 338.163 704.021 337.718 702.534C337.273 701.047 334.954 701.424 333.313 702.121C331.98 702.843 330.394 703.839 331.257 705.603C331.962 707.05 333.639 708.895 333.495 709.064C333.352 709.233 331.29 707.941 329.609 707.4C327.632 706.761 326.437 708.781 326.155 710.585C325.871 712.378 326.117 714.448 328.429 714.632C331.439 714.868 333.445 714.863 333.445 714.863C332.825 715.677 331.6 717.436 330.405 719.181C329.725 720.185 329.657 720.835 329.761 721.485C329.973 722.713 331.194 723.418 332.073 723.898C334.763 725.342 335.885 724.196 336.359 722.818Z" fill="#FFD465"/>
<path d="M1273.08 558.073C1274.31 557.028 1276.49 554.81 1276.52 554.849C1276.34 555.464 1275.65 556.752 1274.9 559.52C1274.64 560.478 1275.71 562.053 1278.17 562.389C1280.58 562.71 1282 561.784 1282.06 560.205C1282.12 559.057 1282.13 557.906 1282.06 556.759C1282.09 556.916 1283.12 558.185 1284.5 559.787C1286.2 561.764 1287.86 560.102 1288.94 558.756C1290.27 557.09 1290.96 555.684 1288.76 553.991C1288.74 553.969 1288.52 553.829 1288.1 553.54C1287.43 553.084 1287.02 552.812 1286.72 552.612C1285.95 552.116 1285.35 551.68 1284.96 551.394C1285.2 551.424 1286.5 550.72 1289.21 549.837C1290.3 549.26 1292.13 548.438 1290.92 545.547C1289.77 542.852 1288.57 542.203 1287.29 543.042C1284.75 544.719 1283.26 545.517 1283.22 545.61C1283.79 543.561 1284.2 542.81 1284.57 541.304C1284.94 539.798 1282.76 538.942 1280.99 538.706C1279.47 538.65 1277.6 538.699 1277.45 540.658C1277.32 542.262 1277.82 544.703 1277.61 544.776C1277.4 544.848 1276.28 542.687 1275.11 541.366C1273.74 539.809 1271.68 540.94 1270.52 542.349C1269.36 543.749 1268.52 545.656 1270.42 546.991C1272.89 548.726 1274.62 549.742 1274.62 549.742C1273.67 550.128 1271.72 551.019 1269.8 551.912C1268.71 552.431 1268.32 552.955 1268.08 553.568C1267.63 554.733 1268.33 555.962 1268.84 556.822C1270.42 559.434 1271.97 559.018 1273.08 558.073Z" fill="#FFD465"/>
<path d="M1175.73 628.558C1176.5 627.899 1177.88 626.499 1177.9 626.524C1177.78 626.912 1177.35 627.725 1176.88 629.471C1176.71 630.076 1177.39 631.069 1178.94 631.282C1180.46 631.484 1181.36 630.899 1181.4 629.903C1181.43 629.179 1181.44 628.453 1181.4 627.729C1181.42 627.828 1182.06 628.629 1182.93 629.639C1184.01 630.887 1185.05 629.839 1185.73 628.989C1186.57 627.938 1187.01 627.051 1185.62 625.982C1185.61 625.969 1185.47 625.88 1185.21 625.698C1184.78 625.41 1184.52 625.239 1184.33 625.113C1183.85 624.799 1183.47 624.525 1183.22 624.344C1183.38 624.363 1184.2 623.919 1185.91 623.362C1186.59 622.997 1187.75 622.479 1186.98 620.655C1186.26 618.955 1185.5 618.545 1184.7 619.074C1183.09 620.132 1182.15 620.636 1182.13 620.694C1182.49 619.402 1182.74 618.928 1182.98 617.977C1183.21 617.027 1181.83 616.487 1180.72 616.338C1179.76 616.303 1178.58 616.334 1178.48 617.57C1178.4 618.582 1178.72 620.123 1178.59 620.168C1178.46 620.214 1177.75 618.85 1177.01 618.017C1176.14 617.035 1174.85 617.748 1174.11 618.637C1173.38 619.52 1172.85 620.723 1174.05 621.566C1175.61 622.661 1176.7 623.302 1176.7 623.302C1176.1 623.545 1174.87 624.107 1173.66 624.671C1172.97 624.998 1172.72 625.329 1172.57 625.716C1172.29 626.451 1172.73 627.226 1173.05 627.769C1174.05 629.417 1175.03 629.155 1175.73 628.558Z" fill="#FFD465"/>
<path d="M628.068 588.968C629.028 588.154 630.723 586.426 630.752 586.457C630.607 586.935 630.073 587.939 629.489 590.094C629.285 590.84 630.118 592.066 632.037 592.328C633.91 592.578 635.017 591.857 635.066 590.627C635.112 589.733 635.115 588.838 635.066 587.944C635.089 588.066 635.89 589.054 636.963 590.302C638.286 591.842 639.58 590.548 640.419 589.499C641.456 588.202 641.997 587.107 640.283 585.788C640.264 585.771 640.097 585.662 639.767 585.437C639.243 585.082 638.924 584.871 638.692 584.715C638.096 584.328 637.627 583.989 637.321 583.766C637.509 583.79 638.522 583.241 640.632 582.554C641.48 582.104 642.905 581.464 641.961 579.213C641.069 577.115 640.13 576.609 639.14 577.262C637.158 578.568 636.001 579.19 635.968 579.262C636.414 577.666 636.727 577.081 637.018 575.909C637.309 574.736 635.605 574.069 634.229 573.886C633.049 573.842 631.591 573.881 631.471 575.406C631.37 576.655 631.763 578.556 631.599 578.613C631.436 578.669 630.566 576.986 629.654 575.957C628.582 574.745 626.981 575.626 626.076 576.723C625.175 577.813 624.52 579.298 625.997 580.337C627.921 581.689 629.267 582.48 629.267 582.48C628.529 582.78 627.012 583.474 625.518 584.17C624.665 584.574 624.362 584.982 624.175 585.459C623.83 586.366 624.368 587.323 624.768 587.993C625.999 590.027 627.205 589.703 628.068 588.968Z" fill="#FFD465"/>
<path d="M1234.28 393.332C1223.13 396.322 1218.24 411.166 1234.28 417.005C1245.97 419.613 1275.11 421.705 1298.75 409.423C1299.14 409.219 1299.52 408.979 1299.84 408.682C1301.44 407.228 1303.78 404.363 1303.99 401.638C1304.95 389.057 1248.22 389.595 1234.28 393.332Z" fill="#254E1E" fill-opacity="0.5"/>
<path d="M1380.82 286.342C1384.47 256.73 1332.07 139.27 1295.51 118.542C1258.95 97.8141 1163.31 292.264 1185.22 327.798C1207.13 363.332 1244.67 370.183 1283.94 363.332C1325.84 356.021 1377.16 315.953 1380.82 286.342Z" fill="#598C4F"/>
<path d="M1270.02 182.624H1271.02L1272.52 402.182H1268.52L1270.02 182.624Z" fill="#254E1E"/>
<path d="M1266.18 402.815C1266.18 405.217 1268.13 407.165 1270.53 407.165C1272.93 407.165 1274.88 405.217 1274.88 402.815C1274.88 400.412 1272.93 398.465 1270.53 398.465C1268.13 398.465 1266.18 400.412 1266.18 402.815ZM1266.18 181.714C1266.18 184.116 1268.13 186.064 1270.53 186.064C1272.93 186.064 1274.88 184.116 1274.88 181.714C1274.88 179.312 1272.93 177.364 1270.53 177.364C1268.13 177.364 1266.18 179.312 1266.18 181.714ZM1319.8 218.235C1319.8 220.638 1321.75 222.585 1324.15 222.585C1326.55 222.585 1328.5 220.638 1328.5 218.235C1328.5 215.833 1326.55 213.885 1324.15 213.885C1321.75 213.885 1319.8 215.833 1319.8 218.235ZM1297.34 255.25L1296.68 254.771L1297.34 255.25ZM1319.28 261.666L1319.05 262.448C1319.21 262.497 1319.39 262.491 1319.55 262.432L1319.28 261.666ZM1332.6 255.25C1332.6 257.652 1334.54 259.6 1336.95 259.6C1339.35 259.6 1341.3 257.652 1341.3 255.25C1341.3 252.847 1339.35 250.9 1336.95 250.9C1334.54 250.9 1332.6 252.847 1332.6 255.25ZM1206.47 273.51C1206.47 275.913 1208.41 277.86 1210.82 277.86C1213.22 277.86 1215.17 275.913 1215.17 273.51C1215.17 271.108 1213.22 269.16 1210.82 269.16C1208.41 269.16 1206.47 271.108 1206.47 273.51ZM1226.66 318.915V319.73C1226.91 319.73 1227.15 319.613 1227.31 319.411L1226.66 318.915ZM1210.73 318.915C1210.73 321.317 1212.68 323.265 1215.08 323.265C1217.48 323.265 1219.43 321.317 1219.43 318.915C1219.43 316.512 1217.48 314.565 1215.08 314.565C1212.68 314.565 1210.73 316.512 1210.73 318.915ZM1246.16 246.86L1245.36 247.013C1245.38 247.161 1245.45 247.299 1245.55 247.41L1246.16 246.86ZM1236.32 218.235C1236.32 220.638 1238.27 222.585 1240.67 222.585C1243.08 222.585 1245.02 220.638 1245.02 218.235C1245.02 215.833 1243.08 213.885 1240.67 213.885C1238.27 213.885 1236.32 215.833 1236.32 218.235ZM1286.29 198.494C1286.29 200.896 1288.24 202.844 1290.64 202.844C1293.04 202.844 1294.99 200.896 1294.99 198.494C1294.99 196.091 1293.04 194.144 1290.64 194.144C1288.24 194.144 1286.29 196.091 1286.29 198.494ZM1248.51 189.61C1248.51 192.013 1250.46 193.961 1252.86 193.961C1255.26 193.961 1257.21 192.013 1257.21 189.61C1257.21 187.208 1255.26 185.26 1252.86 185.26C1250.46 185.26 1248.51 187.208 1248.51 189.61ZM1271.19 292.743L1298 255.728L1296.68 254.771L1269.87 291.786L1271.19 292.743ZM1298 255.728L1324.81 218.714L1323.49 217.757L1296.68 254.771L1298 255.728ZM1297.11 256.033L1319.05 262.448L1319.51 260.883L1297.57 254.467L1297.11 256.033ZM1319.55 262.432L1337.23 256.016L1336.67 254.483L1319 260.899L1319.55 262.432ZM1271.35 327.798V292.264H1269.71V327.798H1271.35ZM1271.08 327.195L1241.22 300.051L1240.12 301.258L1269.98 328.402L1271.08 327.195ZM1241.22 300.051L1211.36 272.907L1210.27 274.114L1240.12 301.258L1241.22 300.051ZM1240.03 300.158L1226.01 318.418L1227.31 319.411L1241.32 301.151L1240.03 300.158ZM1226.66 318.099H1215.08V319.73H1226.66V318.099ZM1271.35 292.264V273.51H1269.71V292.264H1271.35ZM1271.13 272.96L1246.76 246.309L1245.55 247.41L1269.93 274.061L1271.13 272.96ZM1246.96 246.706L1241.47 218.082L1239.87 218.389L1245.36 247.013L1246.96 246.706ZM1271.35 273.51V227.612H1269.71V273.51H1271.35ZM1271.2 228.076L1291.31 198.957L1289.97 198.03L1269.86 227.149L1271.2 228.076ZM1271.35 227.612V204.663H1269.71V227.612H1271.35ZM1271.35 204.663V181.714H1269.71V204.663H1271.35ZM1271.06 204.042L1253.39 188.99L1252.33 190.231L1270 205.284L1271.06 204.042ZM1271.35 402.815V365.306H1269.71V402.815H1271.35ZM1271.35 365.306V327.798H1269.71V365.306H1271.35Z" fill="#254E1E"/>
<path d="M553.938 264.499C546.409 266.422 543.111 275.964 553.938 279.717C561.801 281.388 581.344 282.728 597.273 274.934C597.661 274.744 598.031 274.518 598.351 274.227C599.418 273.256 600.858 271.507 600.992 269.839C601.642 261.751 563.349 262.096 553.938 264.499Z" fill="#254E1E" fill-opacity="0.5"/>
<path d="M648.525 259.499C642.644 261.385 640.005 270.601 648.042 274.496C648.357 274.648 648.69 274.763 649.03 274.846C655.568 276.445 670.569 277.518 682.899 270.016C683.297 269.774 683.671 269.487 683.973 269.132C684.812 268.145 685.89 266.454 685.993 264.839C686.511 256.751 656.019 257.096 648.525 259.499Z" fill="#254E1E" fill-opacity="0.5"/>
<path d="M741.883 169.325C744.235 144.788 710.529 47.4543 687.013 30.278C663.497 13.1016 601.98 174.233 616.073 203.678C630.166 233.123 654.312 238.8 679.566 233.123C706.517 227.065 739.532 193.863 741.883 169.325Z" fill="#598C4F"/>
<path d="M670.619 83.3794H671.262L672.227 265.316H669.653L670.619 83.3794Z" fill="#254E1E"/>
<path d="M668.146 265.84C668.146 267.386 669.398 268.639 670.944 268.639C672.489 268.639 673.742 267.386 673.742 265.84C673.742 264.295 672.489 263.042 670.944 263.042C669.398 263.042 668.146 264.295 668.146 265.84ZM668.146 82.6252C668.146 84.1706 669.398 85.4233 670.944 85.4233C672.489 85.4233 673.742 84.1706 673.742 82.6252C673.742 81.0799 672.489 79.8272 670.944 79.8272C669.398 79.8272 668.146 81.0799 668.146 82.6252ZM702.636 112.888C702.636 114.434 703.888 115.687 705.434 115.687C706.979 115.687 708.232 114.434 708.232 112.888C708.232 111.343 706.979 110.09 705.434 110.09C703.888 110.09 702.636 111.343 702.636 112.888ZM688.189 143.561L687.731 143.304L688.189 143.561ZM702.298 148.877L702.113 149.368C702.246 149.418 702.393 149.412 702.521 149.352L702.298 148.877ZM710.866 143.561C710.866 145.106 712.119 146.359 713.664 146.359C715.21 146.359 716.462 145.106 716.462 143.561C716.462 142.015 715.21 140.763 713.664 140.763C712.119 140.763 710.866 142.015 710.866 143.561ZM629.737 158.692C629.737 160.238 630.989 161.49 632.535 161.49C634.08 161.49 635.333 160.238 635.333 158.692C635.333 157.147 634.08 155.894 632.535 155.894C630.989 155.894 629.737 157.147 629.737 158.692ZM642.725 196.317V196.841C642.91 196.841 643.081 196.744 643.175 196.585L642.725 196.317ZM632.48 196.317C632.48 197.862 633.733 199.115 635.278 199.115C636.823 199.115 638.076 197.862 638.076 196.317C638.076 194.772 636.823 193.519 635.278 193.519C633.733 193.519 632.48 194.772 632.48 196.317ZM655.267 136.608L654.748 136.685C654.76 136.767 654.791 136.845 654.839 136.912L655.267 136.608ZM648.941 112.888C648.941 114.434 650.194 115.687 651.739 115.687C653.284 115.687 654.537 114.434 654.537 112.888C654.537 111.343 653.284 110.09 651.739 110.09C650.194 110.09 648.941 111.343 648.941 112.888ZM681.08 96.53C681.08 98.0753 682.332 99.328 683.878 99.328C685.423 99.328 686.676 98.0753 686.676 96.53C686.676 94.9847 685.423 93.7319 683.878 93.7319C682.332 93.7319 681.08 94.9847 681.08 96.53ZM656.78 89.1686C656.78 90.714 658.032 91.9667 659.578 91.9667C661.123 91.9667 662.376 90.714 662.376 89.1686C662.376 87.6233 661.123 86.3706 659.578 86.3706C658.032 86.3706 656.78 87.6233 656.78 89.1686ZM671.401 174.49L688.646 143.818L687.731 143.304L670.487 173.976L671.401 174.49ZM688.646 143.818L705.891 113.146L704.976 112.631L687.731 143.304L688.646 143.818ZM688.004 144.052L702.113 149.368L702.483 148.386L688.374 143.07L688.004 144.052ZM702.521 149.352L713.887 144.036L713.442 143.085L702.076 148.402L702.521 149.352ZM671.468 203.678V174.233H670.419V203.678H671.468ZM671.343 203.338L652.138 180.845L651.34 181.526L670.545 204.019L671.343 203.338ZM652.138 180.845L632.934 158.352L632.136 159.033L651.34 181.526L652.138 180.845ZM651.288 180.917L642.274 196.048L643.175 196.585L652.19 181.454L651.288 180.917ZM642.725 195.792H635.278V196.841H642.725V195.792ZM671.468 174.233V158.692H670.419V174.233H671.468ZM671.372 158.389L655.694 136.305L654.839 136.912L670.516 158.996L671.372 158.389ZM655.785 136.531L652.258 112.811L651.22 112.966L654.748 136.685L655.785 136.531ZM671.468 158.692V120.659H670.419V158.692H671.468ZM671.406 120.907L684.34 96.7778L683.415 96.2821L670.481 120.411L671.406 120.907ZM671.468 120.659V101.642H670.419V120.659H671.468ZM671.468 101.642V82.6252H670.419V101.642H671.468ZM671.332 101.289L659.966 88.8153L659.19 89.522L670.556 101.995L671.332 101.289ZM671.468 265.84V234.759H670.419V265.84H671.468ZM671.468 234.759V203.678H670.419V234.759H671.468Z" fill="#254E1E"/>
<path d="M650.883 219.559C653.235 206.521 619.529 154.805 596.013 145.679C572.497 136.553 510.98 222.167 525.073 237.812C539.166 253.457 563.312 256.473 588.566 253.457C615.517 250.238 648.532 232.597 650.883 219.559Z" fill="#5F9854"/>
<path d="M579.619 173.893H580.262L581.227 270.562H578.653L579.619 173.893Z" fill="#254E1E"/>
<path d="M577.146 270.84C577.146 272.386 578.398 273.639 579.944 273.639C581.489 273.639 582.742 272.386 582.742 270.84C582.742 269.295 581.489 268.042 579.944 268.042C578.398 268.042 577.146 269.295 577.146 270.84ZM577.146 173.493C577.146 175.038 578.398 176.291 579.944 176.291C581.489 176.291 582.742 175.038 582.742 173.493C582.742 171.947 581.489 170.695 579.944 170.695C578.398 170.695 577.146 171.947 577.146 173.493ZM611.636 189.572C611.636 191.118 612.888 192.37 614.434 192.37C615.979 192.37 617.232 191.118 617.232 189.572C617.232 188.027 615.979 186.774 614.434 186.774C612.888 186.774 611.636 188.027 611.636 189.572ZM597.189 205.87L596.828 205.488L597.189 205.87ZM611.298 208.694L611.195 209.209C611.271 209.224 611.35 209.222 611.425 209.203L611.298 208.694ZM619.866 205.87C619.866 207.415 621.119 208.668 622.664 208.668C624.21 208.668 625.462 207.415 625.462 205.87C625.462 204.324 624.21 203.071 622.664 203.071C621.119 203.071 619.866 204.324 619.866 205.87ZM538.737 213.909C538.737 215.455 539.989 216.707 541.535 216.707C543.08 216.707 544.333 215.455 544.333 213.909C544.333 212.364 543.08 211.111 541.535 211.111C539.989 211.111 538.737 212.364 538.737 213.909ZM551.725 233.9V234.425C551.854 234.425 551.978 234.378 552.074 234.292L551.725 233.9ZM541.48 233.9C541.48 235.446 542.733 236.698 544.278 236.698C545.823 236.698 547.076 235.446 547.076 233.9C547.076 232.355 545.823 231.102 544.278 231.102C542.733 231.102 541.48 232.355 541.48 233.9ZM564.267 202.176L563.761 202.317C563.793 202.428 563.86 202.526 563.952 202.596L564.267 202.176ZM557.941 189.572C557.941 191.118 559.194 192.37 560.739 192.37C562.284 192.37 563.537 191.118 563.537 189.572C563.537 188.027 562.284 186.774 560.739 186.774C559.194 186.774 557.941 188.027 557.941 189.572ZM590.08 180.881C590.08 182.426 591.332 183.679 592.878 183.679C594.423 183.679 595.676 182.426 595.676 180.881C595.676 179.335 594.423 178.083 592.878 178.083C591.332 178.083 590.08 179.335 590.08 180.881ZM565.78 176.969C565.78 178.515 567.032 179.767 568.578 179.767C570.123 179.767 571.376 178.515 571.376 176.969C571.376 175.424 570.123 174.171 568.578 174.171C567.032 174.171 565.78 175.424 565.78 176.969ZM580.304 222.548L597.549 206.251L596.828 205.488L579.583 221.785L580.304 222.548ZM597.549 206.251L614.794 189.954L614.073 189.191L596.828 205.488L597.549 206.251ZM597.086 206.384L611.195 209.209L611.401 208.18L597.292 205.355L597.086 206.384ZM611.425 209.203L622.791 206.379L622.538 205.36L611.172 208.185L611.425 209.203ZM580.468 237.812V222.167H579.419V237.812H580.468ZM580.221 237.366L561.016 225.415L560.462 226.306L579.667 238.257L580.221 237.366ZM561.016 225.415L541.812 213.464L541.257 214.355L560.462 226.306L561.016 225.415ZM560.39 225.469L551.376 233.509L552.074 234.292L561.088 226.252L560.39 225.469ZM551.725 233.376H544.278V234.425H551.725V233.376ZM580.468 222.167V213.909H579.419V222.167H580.468ZM580.258 213.489L564.581 201.755L563.952 202.596L579.629 214.329L580.258 213.489ZM564.772 202.034L561.244 189.431L560.234 189.714L563.761 202.317L564.772 202.034ZM580.468 213.909V193.701H579.419V213.909H580.468ZM580.313 194.074L593.247 181.253L592.508 180.508L579.574 193.328L580.313 194.074ZM580.468 193.701V183.597H579.419V193.701H580.468ZM580.468 183.597V173.493H579.419V183.597H580.468ZM580.208 183.144L568.842 176.516L568.314 177.423L579.68 184.05L580.208 183.144ZM580.468 270.84V254.326H579.419V270.84H580.468ZM580.468 254.326V237.812H579.419V254.326H580.468Z" fill="#254E1E"/>
<defs>
<filter id="filter0_d_195_2020" x="369.631" y="442.013" width="178.838" height="230.665" filterUnits="userSpaceOnUse" color-interpolation-filters="sRGB">
<feFlood flood-opacity="0" result="BackgroundImageFix"/>
<feColorMatrix in="SourceAlpha" type="matrix" values="0 0 0 0 0 0 0 0 0 0 0 0 0 0 0 0 0 0 127 0" result="hardAlpha"/>
<feOffset dx="-2" dy="4"/>
<feComposite in2="hardAlpha" operator="out"/>
<feColorMatrix type="matrix" values="0 0 0 0 0.145098 0 0 0 0 0.305882 0 0 0 0 0.117647 0 0 0 1 0"/>
<feBlend mode="normal" in2="BackgroundImageFix" result="effect1_dropShadow_195_2020"/>
<feBlend mode="normal" in="SourceGraphic" in2="effect1_dropShadow_195_2020" result="shape"/>
</filter>
</defs>
</svg>
