<svg width="1440" height="1226" viewBox="0 0 1440 1226" fill="none" xmlns="http://www.w3.org/2000/svg">
<path d="M121.469 168.779C631.469 -105.221 1412.73 7.81927 1631.47 134.779C1850.21 261.738 1681 1225.78 1681 1225.78H-36.7849C-36.7849 1225.78 -388.531 442.779 121.469 168.779Z" fill="#8BC081"/>
<path d="M523.279 324.332C512.125 327.322 507.239 342.166 523.279 348.005C534.973 350.613 564.106 352.705 587.753 340.423C588.144 340.219 588.516 339.979 588.842 339.682C590.438 338.228 592.779 335.363 592.988 332.638C593.951 320.057 537.22 320.595 523.279 324.332Z" fill="#254E1E" fill-opacity="0.5"/>
<path d="M669.819 217.342C673.475 187.73 621.072 70.2703 584.512 49.5422C547.953 28.8141 452.313 223.264 474.223 258.798C496.134 294.332 533.673 301.183 572.935 294.332C614.836 287.021 666.163 246.953 669.819 217.342Z" fill="#598C4F"/>
<path d="M559.024 113.624H560.024L561.525 333.181H557.524L559.024 113.624Z" fill="#254E1E"/>
<path d="M555.18 333.815C555.18 336.217 557.127 338.165 559.53 338.165C561.932 338.165 563.88 336.217 563.88 333.815C563.88 331.412 561.932 329.465 559.53 329.465C557.127 329.465 555.18 331.412 555.18 333.815ZM555.18 112.714C555.18 115.117 557.127 117.064 559.53 117.064C561.932 117.064 563.88 115.117 563.88 112.714C563.88 110.312 561.932 108.364 559.53 108.364C557.127 108.364 555.18 110.312 555.18 112.714ZM608.801 149.235C608.801 151.638 610.748 153.585 613.151 153.585C615.553 153.585 617.501 151.638 617.501 149.235C617.501 146.833 615.553 144.885 613.151 144.885C610.748 144.885 608.801 146.833 608.801 149.235ZM586.34 186.25L585.68 185.771L586.34 186.25ZM608.276 192.666L608.047 193.448C608.214 193.497 608.392 193.491 608.555 193.432L608.276 192.666ZM621.597 186.25C621.597 188.652 623.544 190.6 625.947 190.6C628.349 190.6 630.297 188.652 630.297 186.25C630.297 183.847 628.349 181.9 625.947 181.9C623.544 181.9 621.597 183.847 621.597 186.25ZM495.465 204.51C495.465 206.913 497.413 208.86 499.815 208.86C502.218 208.86 504.166 206.913 504.166 204.51C504.166 202.108 502.218 200.16 499.815 200.16C497.413 200.16 495.465 202.108 495.465 204.51ZM515.658 249.915V250.73C515.912 250.73 516.151 250.613 516.305 250.411L515.658 249.915ZM499.731 249.915C499.731 252.317 501.678 254.265 504.081 254.265C506.483 254.265 508.431 252.317 508.431 249.915C508.431 247.512 506.483 245.565 504.081 245.565C501.678 245.565 499.731 247.512 499.731 249.915ZM535.157 177.86L534.356 178.013C534.384 178.161 534.453 178.299 534.555 178.41L535.157 177.86ZM525.323 149.235C525.323 151.638 527.27 153.585 529.673 153.585C532.075 153.585 534.023 151.638 534.023 149.235C534.023 146.833 532.075 144.885 529.673 144.885C527.27 144.885 525.323 146.833 525.323 149.235ZM575.288 129.494C575.288 131.896 577.235 133.844 579.638 133.844C582.04 133.844 583.988 131.896 583.988 129.494C583.988 127.092 582.04 125.144 579.638 125.144C577.235 125.144 575.288 127.092 575.288 129.494ZM537.509 120.61C537.509 123.013 539.457 124.961 541.859 124.961C544.262 124.961 546.209 123.013 546.209 120.61C546.209 118.208 544.262 116.26 541.859 116.26C539.457 116.26 537.509 118.208 537.509 120.61ZM560.19 223.743L587.001 186.728L585.68 185.771L558.869 222.786L560.19 223.743ZM587.001 186.728L613.812 149.714L612.49 148.757L585.68 185.771L587.001 186.728ZM586.111 187.033L608.047 193.448L608.505 191.883L586.569 185.467L586.111 187.033ZM608.555 193.432L626.225 187.016L625.669 185.483L607.998 191.899L608.555 193.432ZM560.345 258.798V223.264H558.714V258.798H560.345ZM560.079 258.195L530.221 231.051L529.124 232.258L558.981 259.402L560.079 258.195ZM530.221 231.051L500.364 203.907L499.267 205.114L529.124 232.258L530.221 231.051ZM529.026 231.158L515.011 249.418L516.305 250.411L530.32 232.151L529.026 231.158ZM515.658 249.099H504.081V250.73H515.658V249.099ZM560.345 223.264V204.51H558.714V223.264H560.345ZM560.132 203.96L535.758 177.309L534.555 178.41L558.928 205.061L560.132 203.96ZM535.958 177.706L530.474 149.082L528.872 149.389L534.356 178.013L535.958 177.706ZM560.345 204.51V158.612H558.714V204.51H560.345ZM560.201 159.076L580.309 129.957L578.967 129.031L558.859 158.149L560.201 159.076ZM560.345 158.612V135.663H558.714V158.612H560.345ZM560.345 135.663V112.714H558.714V135.663H560.345ZM560.059 135.042L542.388 119.99L541.33 121.231L559.001 136.284L560.059 135.042ZM560.345 333.815V296.307H558.714V333.815H560.345ZM560.345 296.307V258.798H558.714V296.307H560.345Z" fill="#254E1E"/>
<path d="M431.279 343.832C420.125 345.832 415.239 355.76 431.279 359.665C442.987 361.412 472.176 362.812 495.839 354.564C496.174 354.447 496.499 354.306 496.803 354.123C498.399 353.158 500.777 351.225 500.988 349.387C501.951 340.972 445.22 341.331 431.279 343.832Z" fill="#254E1E" fill-opacity="0.5"/>
<path d="M577.819 272.268C581.475 252.462 529.072 173.896 492.512 160.032C455.953 146.167 360.313 276.23 382.223 299.997C404.134 323.765 441.673 328.348 480.935 323.765C522.836 318.875 574.163 292.075 577.819 272.268Z" fill="#5F9854"/>
<path d="M467.024 202.894H468.024L469.525 349.751H465.524L467.024 202.894Z" fill="#254E1E"/>
<path d="M463.18 350.174C463.18 352.577 465.127 354.524 467.53 354.524C469.932 354.524 471.88 352.577 471.88 350.174C471.88 347.772 469.932 345.824 467.53 345.824C465.127 345.824 463.18 347.772 463.18 350.174ZM463.18 202.286C463.18 204.688 465.127 206.636 467.53 206.636C469.932 206.636 471.88 204.688 471.88 202.286C471.88 199.883 469.932 197.935 467.53 197.935C465.127 197.935 463.18 199.883 463.18 202.286ZM516.801 226.714C516.801 229.116 518.748 231.064 521.151 231.064C523.553 231.064 525.501 229.116 525.501 226.714C525.501 224.311 523.553 222.363 521.151 222.363C518.748 222.363 516.801 224.311 516.801 226.714ZM494.34 251.472L493.787 250.872L494.34 251.472ZM516.276 255.763L516.12 256.564C516.235 256.586 516.354 256.583 516.469 256.556L516.276 255.763ZM529.597 251.472C529.597 253.874 531.544 255.822 533.947 255.822C536.349 255.822 538.297 253.874 538.297 251.472C538.297 249.069 536.349 247.122 533.947 247.122C531.544 247.122 529.597 249.069 529.597 251.472ZM403.465 263.686C403.465 266.088 405.413 268.036 407.815 268.036C410.218 268.036 412.166 266.088 412.166 263.686C412.166 261.283 410.218 259.336 407.815 259.336C405.413 259.336 403.465 261.283 403.465 263.686ZM423.658 294.056V294.871C423.855 294.871 424.045 294.8 424.194 294.671L423.658 294.056ZM407.731 294.056C407.731 296.458 409.678 298.406 412.081 298.406C414.483 298.406 416.431 296.458 416.431 294.056C416.431 291.653 414.483 289.706 412.081 289.706C409.678 289.706 407.731 291.653 407.731 294.056ZM443.157 245.86L442.373 246.084C442.422 246.259 442.529 246.411 442.675 246.518L443.157 245.86ZM433.323 226.714C433.323 229.116 435.27 231.064 437.673 231.064C440.075 231.064 442.023 229.116 442.023 226.714C442.023 224.311 440.075 222.363 437.673 222.363C435.27 222.363 433.323 224.311 433.323 226.714ZM483.288 213.509C483.288 215.912 485.235 217.859 487.638 217.859C490.04 217.859 491.988 215.912 491.988 213.509C491.988 211.107 490.04 209.159 487.638 209.159C485.235 209.159 483.288 211.107 483.288 213.509ZM445.509 207.567C445.509 209.97 447.457 211.917 449.859 211.917C452.262 211.917 454.209 209.97 454.209 207.567C454.209 205.165 452.262 203.217 449.859 203.217C447.457 203.217 445.509 205.165 445.509 207.567ZM468.083 276.829L494.894 252.071L493.787 250.872L466.976 275.631L468.083 276.829ZM494.894 252.071L521.704 227.313L520.598 226.114L493.787 250.872L494.894 252.071ZM494.184 252.272L516.12 256.564L516.433 254.963L494.497 250.671L494.184 252.272ZM516.469 256.556L534.139 252.264L533.754 250.679L516.084 254.97L516.469 256.556ZM468.345 299.998V276.23H466.714V299.998H468.345ZM467.954 299.301L438.096 281.145L437.249 282.539L467.106 300.694L467.954 299.301ZM438.096 281.145L408.239 262.989L407.392 264.383L437.249 282.539L438.096 281.145ZM437.137 281.227L423.122 293.441L424.194 294.671L438.209 282.457L437.137 281.227ZM423.658 293.24H412.081V294.871H423.658V293.24ZM468.345 276.23V263.686H466.714V276.23H468.345ZM468.011 263.027L443.638 245.201L442.675 246.518L467.048 264.344L468.011 263.027ZM443.941 245.635L438.457 226.489L436.889 226.938L442.373 246.084L443.941 245.635ZM468.345 263.686V232.986H466.714V263.686H468.345ZM468.097 233.571L488.205 214.095L487.07 212.923L466.962 232.4L468.097 233.571ZM468.345 232.986V217.636H466.714V232.986H468.345ZM468.345 217.636V202.286H466.714V217.636H468.345ZM467.934 216.927L450.263 206.859L449.455 208.276L467.126 218.344L467.934 216.927ZM468.345 350.174V325.086H466.714V350.174H468.345ZM468.345 325.086V299.998H466.714V325.086H468.345Z" fill="#254E1E"/>
<path d="M380.714 141.834C383.492 134.625 379.9 126.529 372.691 123.75L331.024 107.694C320.866 103.78 310.327 112.456 312.217 123.176L315.173 139.941C315.838 143.712 318.02 147.046 321.209 149.165L351.814 169.493C359.268 174.444 369.39 171.22 372.608 162.87L380.714 141.834Z" fill="#BED4DE"/>
<path d="M304.734 144.885C307.911 136.639 303.803 127.379 295.557 124.202L278.321 117.56C266.703 113.083 254.649 123.006 256.811 135.268L256.948 136.049C257.709 140.362 260.204 144.175 263.853 146.599L279.265 156.835C287.79 162.498 299.367 158.811 303.047 149.261L304.734 144.885Z" fill="#BED4DE"/>
<path d="M349.6 91.4001C348.229 98.2153 352.643 104.851 359.459 106.222L370.201 108.382C378.887 110.128 386.151 101.722 383.164 93.3808V93.3808C382.113 90.4467 379.905 88.0716 377.056 86.8095L367.037 82.3725C359.675 79.1121 351.187 83.5065 349.6 91.4001V91.4001Z" fill="#BED4DE"/>
<path d="M336.546 188.889C339.724 180.644 335.615 171.384 327.37 168.206L310.134 161.564C298.516 157.087 286.461 167.011 288.623 179.272L288.761 180.053C289.522 184.367 292.017 188.18 295.666 190.603L311.078 200.84C319.603 206.503 331.18 202.816 334.86 193.265L336.546 188.889Z" fill="#BED4DE"/>
<path d="M277.272 182.883C280.45 174.638 276.341 165.378 268.096 162.2L241.76 152.052C230.334 147.648 218.398 157.189 220.177 169.305L221.442 177.928C222.09 182.34 224.55 186.282 228.229 188.803L248.527 202.711C257.048 208.55 268.786 204.904 272.501 195.265L277.272 182.883Z" fill="#BED4DE"/>
<path d="M307.483 242.432C310.66 234.186 306.552 224.926 298.306 221.749L271.971 211.6C260.544 207.197 248.609 216.738 250.387 228.854L251.653 237.476C252.301 241.889 254.761 245.831 258.44 248.351L278.738 262.26C287.259 268.098 298.997 264.453 302.711 254.814L307.483 242.432Z" fill="#BED4DE"/>
<path d="M239.654 226.845C242.832 218.6 238.723 209.339 230.478 206.162L204.142 196.013C192.716 191.61 180.78 201.151 182.559 213.267L183.824 221.89C184.472 226.302 186.932 230.244 190.611 232.765L210.909 246.673C219.43 252.511 231.168 248.866 234.883 239.227L239.654 226.845Z" fill="#BED4DE"/>
<path d="M270.481 283.901C273.659 275.655 269.55 266.395 261.305 263.218L234.969 253.069C223.543 248.666 211.607 258.207 213.386 270.323L214.652 278.946C215.299 283.358 217.759 287.3 221.438 289.821L241.736 303.729C250.257 309.567 261.996 305.922 265.71 296.283L270.481 283.901Z" fill="#BED4DE"/>
<path d="M201.761 269.774C204.939 261.528 200.83 252.268 192.585 249.091L163.294 237.803C152.584 233.676 141.141 241.834 141.551 253.304L142.347 275.626C142.514 280.302 144.719 284.671 148.382 287.582L166.94 302.331C175.395 309.05 187.942 305.636 191.825 295.558L201.761 269.774Z" fill="#BED4DE"/>
<path d="M245.369 327.719C245.656 318.887 238.729 311.495 229.897 311.208L190.83 309.939C178.386 309.535 170.269 322.873 176.345 333.74L182.497 344.741C184.635 348.564 188.246 351.343 192.489 352.431L224.819 360.719C234.733 363.26 244.452 355.969 244.784 345.739L245.369 327.719Z" fill="#BED4DE"/>
<path d="M166.737 324.51C164.975 315.955 156.612 310.448 148.057 312.209L134.572 314.986C123.669 317.231 119.395 330.521 126.946 338.7V338.7C129.602 341.578 133.321 343.241 137.237 343.301L151.003 343.513C161.118 343.669 168.777 334.419 166.737 324.51V324.51Z" fill="#BED4DE"/>
<path d="M224.594 380.831C222.682 371.547 213.606 365.57 204.321 367.481L189.687 370.495C177.854 372.931 173.216 387.354 181.41 396.231V396.231C184.293 399.353 188.329 401.158 192.579 401.224L207.518 401.454C218.496 401.623 226.808 391.584 224.594 380.831V380.831Z" fill="#BED4DE"/>
<path d="M165.331 364.691C163.549 356.036 155.088 350.465 146.433 352.247L127.602 356.124C115.608 358.594 110.721 373.072 118.764 382.305L120.932 384.793C123.861 388.156 128.061 390.143 132.519 390.276L150.604 390.816C160.929 391.124 168.836 381.714 166.753 371.596L165.331 364.691Z" fill="#BED4DE"/>
<path d="M223.331 425.691C221.549 417.036 213.088 411.465 204.433 413.247L185.602 417.124C173.608 419.594 168.721 434.072 176.764 443.305L178.932 445.793C181.861 449.156 186.061 451.143 190.519 451.276L208.604 451.816C218.929 452.124 226.836 442.714 224.753 432.596L223.331 425.691Z" fill="#BED4DE"/>
<path d="M126.468 436.921C131.875 443.911 141.924 445.193 148.913 439.786L164.12 428.022C173.805 420.529 171.827 405.377 160.542 400.622L157.501 399.341C153.391 397.609 148.745 397.672 144.683 399.513L128.204 406.982C118.796 411.246 115.834 423.175 122.154 431.345L126.468 436.921Z" fill="#BED4DE"/>
<path d="M233.331 469.691C231.549 461.036 223.088 455.465 214.433 457.247L195.602 461.124C183.608 463.594 178.721 478.072 186.764 487.305L188.932 489.793C191.861 493.156 196.061 495.143 200.519 495.276L218.604 495.816C228.929 496.124 236.836 486.714 234.753 476.596L233.331 469.691Z" fill="#BED4DE"/>
<path d="M168.331 462.691C166.549 454.036 158.088 448.465 149.433 450.247L127.5 454.763C116.259 457.077 111.038 470.125 117.581 479.555L126.451 492.34C129.118 496.184 133.334 498.668 137.989 499.138L154.967 500.853C165.712 501.938 174.424 492.285 172.246 481.707L168.331 462.691Z" fill="#BED4DE"/>
<path d="M162.532 514.76C153.723 515.465 147.154 523.178 147.86 531.986L150.979 570.949C151.973 583.36 166.137 589.93 176.254 582.674L186.495 575.327C190.054 572.774 192.411 568.874 193.016 564.536L197.627 531.481C199.041 521.344 190.706 512.504 180.504 513.321L162.532 514.76Z" fill="#BED4DE"/>
<path d="M192.596 584.097C183.889 584.794 177.396 592.417 178.093 601.124L179.192 614.848C180.08 625.944 192.744 631.818 201.789 625.33V625.33C204.972 623.048 207.079 619.561 207.62 615.682L209.522 602.047C210.919 592.027 202.68 583.29 192.596 584.097V584.097Z" fill="#BED4DE"/>
<path d="M219.789 520.573C210.981 521.278 204.342 528.996 205.047 537.804L206.667 558.047C207.579 569.432 220.913 575.095 229.739 567.846V567.846C232.591 565.504 234.414 562.14 234.82 558.473L237.054 538.274C238.159 528.286 229.806 519.771 219.789 520.573V520.573Z" fill="#BED4DE"/>
<path d="M232.719 597.198C223.911 597.903 217.342 605.615 218.047 614.424L219.581 633.588C220.558 645.795 234.326 652.424 244.478 645.575L247.214 643.73C250.911 641.236 253.399 637.312 254.079 632.904L256.836 615.023C258.411 604.814 250.043 595.811 239.746 596.635L232.719 597.198Z" fill="#BED4DE"/>
<path d="M284.964 559.956C281.796 551.707 272.541 547.588 264.292 550.756L246.344 557.648C234.912 562.038 232.448 577.119 241.888 584.919L244.432 587.021C247.87 589.862 252.338 591.139 256.758 590.544L274.689 588.131C284.926 586.753 291.195 576.181 287.492 566.538L284.964 559.956Z" fill="#BED4DE"/>
<path d="M282.014 604.354C273.206 605.06 266.637 612.772 267.342 621.58L268.876 640.745C269.853 652.951 283.621 659.58 293.773 652.732L296.509 650.887C300.206 648.393 302.694 644.469 303.374 640.061L306.131 622.179C307.706 611.971 299.338 602.968 289.042 603.792L282.014 604.354Z" fill="#BED4DE"/>
<path d="M315.317 558.46C306.508 559.165 299.939 566.877 300.645 575.686L302.179 594.85C303.156 607.057 316.924 613.686 327.076 606.838L329.811 604.992C333.508 602.498 335.997 598.574 336.676 594.167L339.434 576.285C341.008 566.076 332.641 557.073 322.344 557.897L315.317 558.46Z" fill="#BED4DE"/>
<path d="M330.193 617.972C321.385 618.678 314.816 626.39 315.521 635.198L317.308 657.52C318.224 668.96 330.532 675.744 340.694 670.41L354.472 663.178C358.614 661.003 361.598 657.124 362.636 652.562L366.424 635.923C368.821 625.393 360.311 615.561 349.546 616.423L330.193 617.972Z" fill="#BED4DE"/>
<path d="M560.825 778.922C557.782 770.626 562.04 761.433 570.335 758.39L607.032 744.927C618.72 740.638 630.613 750.756 628.252 762.981L625.863 775.356C625.033 779.657 622.476 783.429 618.789 785.793L590.692 803.806C582.076 809.33 570.56 805.456 567.035 795.848L560.825 778.922Z" fill="#BED4DE"/>
<path d="M566.217 732.778C563.209 724.578 567.417 715.492 575.618 712.484L588.543 707.742C598.993 703.907 609.626 712.953 607.516 723.883V723.883C606.773 727.728 604.487 731.101 601.191 733.214L589.601 740.645C581.084 746.105 569.702 742.276 566.217 732.778V732.778Z" fill="#BED4DE"/>
<path d="M586.739 827.642C583.855 819.783 587.889 811.075 595.748 808.191L614.165 801.434C624.289 797.72 634.397 806.957 631.606 817.374V817.374C630.711 820.713 628.552 823.573 625.586 825.349L608.754 835.426C600.598 840.309 590.013 836.566 586.739 827.642V827.642Z" fill="#BED4DE"/>
<path d="M635.281 785.609C632.237 777.313 636.495 768.121 644.791 765.077L662.84 758.455C674.337 754.237 686.116 763.971 684.142 776.056L683.61 779.313C682.891 783.714 680.367 787.616 676.648 790.076L661.559 800.06C652.944 805.76 641.267 801.925 637.709 792.228L635.281 785.609Z" fill="#BED4DE"/>
<path d="M650.086 869.227C641.268 869.8 633.656 863.116 633.083 854.298L631.837 835.112C631.043 822.893 643.711 814.347 654.744 819.659L657.717 821.091C661.736 823.025 664.764 826.549 666.072 830.813L671.38 848.11C674.411 857.985 667.429 868.101 657.122 868.77L650.086 869.227Z" fill="#BED4DE"/>
<path d="M668.281 819.609C665.237 811.313 669.495 802.121 677.791 799.077L695.84 792.455C707.337 788.237 719.116 797.971 717.142 810.056L716.61 813.313C715.891 817.714 713.367 821.616 709.648 824.076L694.559 834.06C685.944 839.76 674.267 835.925 670.709 826.228L668.281 819.609Z" fill="#BED4DE"/>
<path d="M651.281 894.609C648.237 886.313 652.495 877.121 660.791 874.077L678.84 867.455C690.337 863.237 702.116 872.971 700.142 885.056L699.61 888.313C698.891 892.714 696.367 896.616 692.648 899.076L677.559 909.06C668.944 914.76 657.267 910.925 653.709 901.228L651.281 894.609Z" fill="#BED4DE"/>
<path d="M696.281 852.609C693.237 844.313 697.495 835.121 705.791 832.077L726.814 824.364C737.588 820.411 748.898 828.753 748.303 840.215L747.497 855.755C747.254 860.427 744.978 864.759 741.269 867.611L727.74 878.01C719.177 884.592 706.688 880.975 702.968 870.836L696.281 852.609Z" fill="#BED4DE"/>
<path d="M432.56 598.185C433.758 589.43 427.633 581.361 418.878 580.163L380.151 574.861C367.816 573.173 358.363 585.6 363.284 597.037L368.265 608.615C369.996 612.638 373.3 615.776 377.408 617.296L408.708 628.883C418.306 632.436 428.726 626.188 430.115 616.048L432.56 598.185Z" fill="#BED4DE"/>
<path d="M410.478 644.297C404.608 637.829 394.606 637.344 388.138 643.214L377.943 652.467C369.699 659.948 372.783 673.563 383.445 676.762V676.762C387.196 677.887 391.244 677.426 394.646 675.485L406.604 668.663C415.391 663.649 417.276 651.789 410.478 644.297V644.297Z" fill="#BED4DE"/>
<path d="M467.057 616.731C461.187 610.263 451.185 609.778 444.717 615.648L434.522 624.9C426.279 632.381 429.362 645.997 440.025 649.196V649.196C443.775 650.321 447.823 649.86 451.225 647.919L463.183 641.096C471.97 636.083 473.856 624.223 467.057 616.731V616.731Z" fill="#BED4DE"/>
<path d="M462.456 691.216C467.045 683.664 464.644 673.822 457.093 669.233L440.663 659.248C430.199 652.888 416.76 660.161 416.362 672.4L416.254 675.698C416.109 680.155 417.831 684.471 421.005 687.604L433.88 700.316C441.231 707.573 453.429 706.067 458.794 697.24L462.456 691.216Z" fill="#BED4DE"/>
<path d="M478.99 636.527C471.137 640.577 468.053 650.227 472.103 658.081L480.915 675.168C486.527 686.052 501.787 686.854 508.509 676.619L510.32 673.86C512.768 670.133 513.55 665.552 512.476 661.224L508.119 643.663C505.631 633.638 494.437 628.562 485.256 633.296L478.99 636.527Z" fill="#BED4DE"/>
<path d="M519.269 675.126C515.127 682.932 518.098 692.618 525.904 696.759L542.887 705.77C553.705 711.509 566.697 703.465 566.381 691.223L566.296 687.924C566.181 683.466 564.21 679.258 560.859 676.315L547.265 664.376C539.504 657.559 527.414 659.774 522.573 668.899L519.269 675.126Z" fill="#BED4DE"/>
<path d="M502.894 694.868C496.956 688.324 486.837 687.834 480.293 693.772L466.056 706.693C456.988 714.922 460.149 729.872 471.772 733.727L474.904 734.766C479.137 736.17 483.764 735.744 487.669 733.59L503.512 724.851C512.556 719.862 514.574 707.738 507.632 700.089L502.894 694.868Z" fill="#BED4DE"/>
<path d="M541.894 721.868C535.956 715.324 525.837 714.834 519.293 720.772L502.711 735.821C494.212 743.534 496.358 757.423 506.789 762.211L520.93 768.703C525.183 770.654 530.076 770.647 534.323 768.683L549.81 761.519C559.612 756.985 562.199 744.242 554.942 736.245L541.894 721.868Z" fill="#BED4DE"/>
<path d="M302.41 649.275C288.424 648.537 275.854 636.577 276.747 625.613C278.128 608.669 297.847 606.764 305.821 607.414C313.795 608.064 318.697 609.467 324.474 612.446C330.251 615.425 335.774 615.373 341.51 618.85C343.422 620.009 353.969 619.866 357.956 620.19C361.942 620.515 364.412 608.677 377.114 606.702C389.817 604.727 406.905 616.654 405.849 629.611C404.793 642.568 391.159 648.659 381.609 648.885C372.059 649.11 363.136 636.649 358.651 636.284L342.704 634.984C339.215 634.7 319.893 650.198 302.41 649.275Z" fill="#254E1E" fill-opacity="0.5"/>
<path d="M361.661 537.59C363.539 537.732 367.89 539.503 370.271 545.456L379.944 573.413C381.043 573.519 383.006 574.369 382.07 576.92L383.027 577.642L388.129 581.491C388.873 581.987 390.978 583.128 393.444 583.724C394.224 585.141 395.017 587.763 391.956 586.913C390.561 586.688 388.175 586.086 386.851 585.128C387.988 586.476 389.951 588.034 392.7 588.401C393.196 589.676 392.976 591.972 388.129 590.952C387.583 590.602 386.872 590.109 386.156 589.548L388.129 592.015C387.917 592.724 386.811 594.098 384.09 593.928C381.751 591.625 376.968 585.233 376.543 578.09C376.405 577.557 376.2 576.793 375.939 575.857C375.195 573.184 373.995 569.109 372.61 565.015C371.795 562.216 369.314 554.895 365.913 548.007C367.639 552.205 369.986 558.639 372.127 565.865C375.481 577.182 378.33 590.44 377.499 600.094C370.023 606.826 354.666 615.677 353.051 597.224L352.01 582.086C352.422 589.486 352.107 602.667 348.054 608.279C347.527 608.442 346.927 608.588 346.267 608.704C340.628 609.694 330.637 608.49 324.775 597.224C324.734 594.438 325.224 587.854 326.925 577.734C326.472 579.656 325.787 581.104 324.775 581.491C321.728 582.483 315.548 583.362 315.208 578.94C314.712 577.417 314.273 574.454 316.484 574.794C315.988 573.165 316.058 570.096 320.31 570.861C320.027 570.259 319.63 568.842 320.31 567.991C317.511 567.424 311.658 564.462 310.637 557.149C310.177 555.519 313.762 549.325 331.791 537.59H361.661Z" fill="#254E1E"/>
<path d="M361.342 608.279L365.381 630.283C366.054 632.55 369.229 637.681 376.543 640.062C380.547 641.586 390.553 643.549 398.546 639.212C400.354 637.298 401.629 632.515 392.275 628.688M400.035 636.342C400.672 634.464 401.502 629.921 399.716 626.775M399.716 626.775C398.936 625.322 396.165 622.778 391.318 624.223M399.716 626.775C399.539 624.932 395.145 621.205 384.09 622.31C381.326 623.692 374.969 626.456 371.653 626.456C370.909 626.881 369.442 626.838 369.527 623.267V605.834L361.342 608.066M379.944 573.413L370.271 545.456C367.89 539.503 363.539 537.732 361.661 537.59H331.791C313.762 549.325 310.177 555.519 310.637 557.149C311.658 564.462 317.511 567.424 320.31 567.991M379.944 573.413C381.043 573.519 383.006 574.369 382.07 576.92L383.027 577.642M379.944 573.413C378.849 573.602 376.515 574.356 375.939 575.857M386.851 585.128C388.175 586.086 390.561 586.688 391.956 586.913C395.017 587.763 394.224 585.141 393.444 583.724C390.978 583.128 388.873 581.987 388.129 581.491L383.027 577.642M386.851 585.128C386.292 584.723 385.922 584.254 385.897 583.724C386.087 584.103 386.405 584.599 386.851 585.128ZM386.851 585.128C387.988 586.476 389.951 588.034 392.7 588.401C393.196 589.676 392.976 591.972 388.129 590.952C387.583 590.602 386.872 590.109 386.156 589.548M386.156 589.548C384.548 588.29 382.909 586.696 383.027 585.637L386.156 589.548ZM386.156 589.548L388.129 592.015C387.917 592.724 386.811 594.098 384.09 593.928C381.751 591.625 376.968 585.233 376.543 578.09M376.543 578.09C377.747 577.219 380.731 575.91 383.027 577.642M376.543 578.09C376.405 577.557 376.2 576.793 375.939 575.857M352.01 582.086L353.051 597.224C354.666 615.677 370.023 606.826 377.499 600.094C378.33 590.44 375.481 577.182 372.127 565.865M352.01 582.086L351.881 580.216C351.929 580.784 351.972 581.411 352.01 582.086ZM352.01 582.086C352.422 589.486 352.107 602.667 348.054 608.279C347.527 608.442 346.927 608.588 346.267 608.704M326.925 577.734C325.224 587.854 324.734 594.438 324.775 597.224C330.637 608.49 340.628 609.694 346.267 608.704M326.925 577.734C327.067 576.888 327.218 576.018 327.378 575.123M326.925 577.734C327.114 576.932 327.263 576.048 327.378 575.123M326.925 577.734C326.472 579.656 325.787 581.104 324.775 581.491C321.728 582.483 315.548 583.362 315.208 578.94C314.712 577.417 314.273 574.454 316.484 574.794C315.988 573.165 316.058 570.096 320.31 570.861M327.378 575.123C327.549 573.745 327.646 572.277 327.69 570.861M327.378 575.123C327.83 572.588 328.353 569.855 328.956 566.928M327.645 565.865C327.812 558.722 323.392 556.511 321.161 556.298C327.964 555.958 331.791 551.976 332.854 550.027C331.283 556.227 330 561.867 328.956 566.928M327.645 565.865C324.329 564.165 321.373 566.574 320.31 567.991M327.645 565.865C327.716 567.226 327.748 568.998 327.69 570.861M320.31 570.861C320.027 570.259 319.63 568.842 320.31 567.991M320.31 570.861C321.864 569.441 325.515 567.452 327.69 570.861M346.267 608.704L342.421 625.18C342.173 632.408 336.893 645.781 317.759 641.444C314.11 640.983 307.703 638.957 311.275 634.534C312.515 632.94 316.122 629.942 320.629 630.708M310.212 637.511C306.598 632.727 303.324 623.756 319.141 626.137M310.212 626.243C311.523 623.196 316.207 617.803 324.456 620.609L338.806 625.818V608.704H346.247M375.939 575.857C375.195 573.184 373.995 569.109 372.61 565.015C371.795 562.216 369.314 554.895 365.913 548.007C367.639 552.205 369.986 558.639 372.127 565.865M328.956 566.928C334.788 562.216 351.587 555.406 372.127 565.865" stroke="#254E1E" stroke-width="2.20403"/>
<path d="M338.843 625.663V609.629H346.296L342.457 625.663C342.276 632.889 337.865 637.858 335.682 639.438C319.242 644.497 311.669 639.438 309.937 636.277C304.337 629.954 308.658 625.362 311.518 623.856C316.938 616.268 331.993 621.899 338.843 625.663Z" fill="#254E1E" stroke="#254E1E" stroke-width="2.20403"/>
<path d="M369.104 626.34V605.79L361.652 610.307L365.491 626.34C365.672 633.567 370.083 638.535 372.266 640.116C388.706 645.174 396.279 640.116 398.01 636.954C403.611 630.631 399.29 626.039 396.43 624.534C391.01 616.946 375.955 622.577 369.104 626.34Z" fill="#254E1E" stroke="#254E1E" stroke-width="2.20403"/>
<path d="M378.037 638.309C370.724 635.927 367.549 630.797 366.876 628.529L364.651 616.411L367.93 619.494L371.021 616.411V621.513C370.936 625.085 372.403 625.127 373.147 624.702C376.464 624.702 382.821 621.939 385.584 620.557C391.116 620.004 394.979 620.66 397.482 621.685C399.981 622.709 401.122 624.101 401.21 625.021C402.996 628.168 402.167 632.71 401.529 634.588L400.651 636.652C400.467 636.958 400.258 637.229 400.041 637.458C392.047 641.795 382.041 639.832 378.037 638.309Z" fill="#C6AC9A"/>
<path d="M343.915 623.427C343.667 630.655 338.388 644.027 319.254 639.69C315.388 639.084 312.691 636.922 311.826 635.917C311.13 634.995 310.442 633.912 309.897 632.781C308.354 630.272 308.738 627.838 309.123 626.935C310.434 623.887 317.702 616.05 325.951 618.856L333.126 621.46L340.301 624.065V615.507L342.419 618.856L345.553 616.411L343.915 623.427Z" fill="#C6AC9A"/>
<path d="M401.21 625.021C402.996 628.168 402.167 632.71 401.529 634.588L400.651 636.652C400.467 636.958 400.258 637.229 400.041 637.458C392.047 641.795 382.041 639.832 378.037 638.309C370.724 635.927 367.549 630.797 366.876 628.529L364.651 616.411L367.93 619.494L371.021 616.411V621.513C370.936 625.085 372.403 625.127 373.147 624.702C376.464 624.702 382.821 621.939 385.584 620.557C391.116 620.004 394.979 620.66 397.482 621.685M401.21 625.021C401.08 624.778 400.894 624.504 400.651 624.224C400.445 623.754 399.522 622.589 397.482 621.685M401.21 625.021C401.122 624.101 399.981 622.709 397.482 621.685M311.826 635.917C311.13 634.995 310.442 633.912 309.897 632.781M311.826 635.917L309.897 632.781M311.826 635.917C312.691 636.922 315.388 639.084 319.254 639.69C338.388 644.027 343.667 630.655 343.915 623.427L345.553 616.411L342.419 618.856L340.301 615.507V624.065L333.126 621.46L325.951 618.856C317.702 616.05 310.434 623.887 309.123 626.935C308.738 627.838 308.354 630.272 309.897 632.781" stroke="#254E1E" stroke-width="2.20403" stroke-linecap="round" stroke-linejoin="round"/>
<path d="M362.795 606.259L370.98 603.815V616.145L367.889 619.228L364.61 616.145L362.795 606.259Z" fill="#CC994C"/>
<path d="M347.72 606.685H340.26V615.242L342.377 618.59L345.512 616.145L347.72 606.685Z" fill="#CC994C"/>
<path d="M362.795 606.259L370.98 603.815V616.145L367.889 619.228L364.61 616.145L362.795 606.259Z" stroke="#254E1E" stroke-width="2.20403"/>
<path d="M347.72 606.685H340.26V615.242L342.377 618.59L345.512 616.145L347.72 606.685Z" stroke="#254E1E" stroke-width="2.20403"/>
<path d="M373.569 543.649C371.188 537.697 366.837 535.925 364.959 535.783H335.089C317.06 547.519 313.475 553.712 313.935 555.342C314.956 562.656 320.809 565.618 323.609 566.185C324.671 564.767 327.627 562.358 330.943 564.059C331.11 556.915 326.69 554.704 324.459 554.492C331.262 554.152 335.089 550.169 336.152 548.22C334.581 554.421 333.298 560.061 332.254 565.122C338.086 560.409 354.885 553.599 375.425 564.059C373.284 556.833 370.937 550.398 369.211 546.2C372.612 553.089 375.093 560.409 375.908 563.208C377.293 567.303 378.493 571.378 379.237 574.051C379.813 572.55 382.147 571.795 383.242 571.606L373.569 543.649Z" fill="#CC994C" stroke="#254E1E" stroke-width="2.20403"/>
<path d="M383.289 571.798C384.387 571.904 386.35 572.755 385.415 575.306L386.371 576.027L391.474 579.877C392.218 580.373 394.322 581.514 396.789 582.109C397.568 583.526 398.362 586.148 395.3 585.298C393.906 585.074 391.52 584.471 390.196 583.513C391.333 584.861 393.296 586.419 396.045 586.786C396.541 588.062 396.321 590.358 391.474 589.337C390.927 588.988 390.217 588.494 389.5 587.933L391.474 590.4C391.261 591.109 390.156 592.484 387.434 592.314C385.096 590.01 380.312 583.618 379.887 576.475C379.749 575.942 379.544 575.178 379.284 574.243C379.86 572.742 382.194 571.987 383.289 571.798Z" fill="#E2D1B7"/>
<path d="M380.844 598.479C378.615 600.486 375.686 602.681 372.63 604.285C365.433 608.062 357.529 608.561 356.395 595.609L355.354 580.471C355.766 587.871 355.451 601.053 351.399 606.664C350.872 606.827 350.271 606.973 349.611 607.089C347.778 607.411 345.486 607.501 343.025 607.089C337.914 606.234 332.076 603.214 328.119 595.609C328.079 592.823 328.568 586.239 330.27 576.119C329.817 578.042 329.131 579.49 328.119 579.877C325.072 580.869 318.893 581.747 318.553 577.325C318.057 575.802 317.617 572.84 319.828 573.18C319.332 571.55 319.403 568.481 323.655 569.247C323.371 568.644 322.975 567.227 323.655 566.377C324.718 564.959 327.673 562.55 330.99 564.251C331.061 565.611 331.093 567.384 331.034 569.247C330.99 570.662 330.893 572.13 330.722 573.509C331.174 570.973 331.697 568.24 332.301 565.314C338.133 560.601 354.932 553.791 375.472 564.251C378.825 575.567 381.674 588.826 380.844 598.479Z" fill="#E2D1B7"/>
<path d="M372.871 604.219L364.686 606.451M390.196 583.513C391.52 584.471 393.906 585.074 395.3 585.298C398.362 586.148 397.568 583.526 396.789 582.109C394.322 581.514 392.218 580.373 391.474 579.877L386.371 576.027M390.196 583.513C389.636 583.108 389.267 582.639 389.241 582.109C389.431 582.488 389.75 582.984 390.196 583.513ZM390.196 583.513C391.333 584.861 393.296 586.419 396.045 586.786C396.541 588.062 396.321 590.358 391.474 589.337C390.927 588.988 390.217 588.494 389.5 587.933M389.5 587.933C387.892 586.675 386.254 585.081 386.371 584.022L389.5 587.933ZM389.5 587.933L391.474 590.4C391.261 591.109 390.156 592.484 387.434 592.314C385.096 590.01 380.312 583.618 379.887 576.475M379.887 576.475C381.092 575.604 384.075 574.295 386.371 576.027M379.887 576.475C379.749 575.942 379.544 575.178 379.284 574.243M375.954 563.4C377.34 567.495 378.539 571.57 379.284 574.243M355.354 580.471L356.395 595.609C358.011 614.062 373.367 605.211 380.844 598.479C381.674 588.826 378.825 575.567 375.472 564.251C354.932 553.791 338.133 560.601 332.301 565.314C331.697 568.24 331.174 570.973 330.722 573.509M355.354 580.471L355.226 578.601C355.273 579.169 355.317 579.796 355.354 580.471ZM355.354 580.471C355.766 587.871 355.451 601.053 351.399 606.664C350.872 606.827 350.271 606.973 349.611 607.089C343.972 608.079 333.981 606.876 328.119 595.609C328.079 592.823 328.568 586.239 330.27 576.119M330.27 576.119C330.412 575.274 330.563 574.403 330.722 573.509M330.27 576.119C330.459 575.317 330.607 574.433 330.722 573.509M330.27 576.119C329.817 578.042 329.131 579.49 328.119 579.877C325.072 580.869 318.893 581.747 318.553 577.325C318.057 575.802 317.617 572.84 319.828 573.18C319.332 571.55 319.403 568.481 323.655 569.247M330.722 573.509C330.893 572.13 330.99 570.662 331.034 569.247M323.655 569.247C323.371 568.644 322.975 567.227 323.655 566.377C324.718 564.959 327.673 562.55 330.99 564.251C331.061 565.611 331.093 567.384 331.034 569.247M323.655 569.247C325.208 567.826 328.859 565.837 331.034 569.247M342.151 607.089H349.592M386.371 576.027L385.415 575.306C386.35 572.755 384.387 571.904 383.289 571.798C382.194 571.987 379.86 572.742 379.284 574.243" stroke="#254E1E" stroke-width="2.20403" stroke-linecap="round" stroke-linejoin="round"/>
<path d="M332.035 565.389C338.876 560.2 357.271 552.936 376.115 565.389C378.136 573.195 381.956 590.735 381.074 598.449C379.192 599.919 375.041 603.105 373.498 604.097C371.891 604.924 367.657 606.577 363.58 606.577C360.914 607.094 356.103 603.591 355.44 587.156C355.173 594.535 354.19 603.143 351.595 606.577C350.034 607.036 346.003 607.817 342.366 607.266C339.244 606.623 332.035 603.408 328.177 595.694C328.04 593.353 328.618 584.013 332.035 565.389Z" fill="#9FC299"/>
<path d="M332.035 565.389C338.876 560.2 357.271 552.936 376.115 565.389C378.136 573.195 381.956 590.735 381.074 598.449C379.192 599.919 375.041 603.105 373.498 604.097C371.891 604.924 367.657 606.577 363.58 606.577C360.503 607.174 354.571 602.417 355.452 578.613C355.728 585.868 355.342 601.618 351.595 606.577C350.034 607.036 346.003 607.817 342.366 607.266C339.244 606.623 332.035 603.408 328.177 595.694C328.04 593.353 328.618 584.013 332.035 565.389Z" stroke="#254E1E" stroke-width="2.20403"/>
<path d="M313.078 533.711L313.095 533.721L313.112 533.729C314.401 534.374 316.483 535.349 318.551 536.185C319.585 536.603 320.623 536.99 321.562 537.283C322.49 537.573 323.363 537.785 324.051 537.831L324.074 537.833H324.097H373.821C376.08 538.04 381.932 537.466 388.304 533.707L388.337 533.687L388.367 533.665C391.846 531.063 398.257 525.759 403.796 520.857C406.566 518.406 409.127 516.046 411 514.168C411.935 513.231 412.71 512.402 413.255 511.736C413.526 511.404 413.753 511.098 413.915 510.829C414.057 510.596 414.226 510.271 414.226 509.938C414.226 509.537 413.977 509.212 413.805 509.017C413.602 508.787 413.327 508.547 413.011 508.301C412.378 507.806 411.488 507.217 410.449 506.558C409.766 506.126 409.015 505.661 408.218 505.167C406.56 504.141 404.699 502.989 402.82 501.737C400.041 499.885 397.281 497.852 395.191 495.768C393.086 493.667 391.778 491.629 391.665 489.765V425.095C391.665 424.981 391.644 424.79 391.512 424.61C391.365 424.407 391.155 424.319 390.976 424.298C390.818 424.28 390.682 424.31 390.597 424.336C390.505 424.364 390.42 424.402 390.346 424.44C390.066 424.583 389.713 424.846 389.326 425.165C388.53 425.822 387.41 426.87 386.086 428.171C383.433 430.779 379.9 434.458 376.374 438.2C372.846 441.944 369.318 445.756 366.673 448.632C365.351 450.07 364.249 451.275 363.477 452.119C363.091 452.542 362.788 452.874 362.581 453.101L362.469 453.224H339.893L339.746 453.078C339.519 452.851 339.185 452.518 338.761 452.096C337.912 451.251 336.7 450.047 335.245 448.609C332.335 445.733 328.456 441.92 324.575 438.177C320.696 434.435 316.81 430.756 313.892 428.149C312.436 426.848 311.205 425.801 310.332 425.146C309.905 424.825 309.522 424.567 309.224 424.428C309.103 424.372 308.864 424.269 308.601 424.297C308.439 424.315 308.228 424.388 308.07 424.585C307.924 424.768 307.897 424.969 307.897 425.095C307.897 425.419 307.906 426.946 307.919 429.328C307.952 435.081 308.012 445.824 308.048 456.686C308.073 464.369 308.086 472.114 308.067 478.201C308.048 484.315 307.997 488.703 307.9 489.72C307.888 489.846 307.824 490.052 307.651 490.351C307.483 490.643 307.235 490.984 306.906 491.37C306.249 492.142 305.315 493.043 304.18 494.03C301.914 496.001 298.913 498.26 295.895 500.436C293.801 501.947 291.71 503.409 289.858 504.704C289.041 505.276 288.27 505.815 287.566 506.311C286.421 507.119 285.448 507.816 284.747 508.351C284.398 508.617 284.105 508.852 283.889 509.045C283.782 509.141 283.683 509.236 283.602 509.326C283.54 509.395 283.417 509.537 283.356 509.72C283.292 509.914 283.309 510.095 283.333 510.217C283.358 510.344 283.404 510.465 283.452 510.571C283.549 510.784 283.695 511.018 283.87 511.264C284.223 511.759 284.755 512.385 285.441 513.113C286.818 514.574 288.865 516.499 291.472 518.697C296.688 523.094 304.175 528.61 313.078 533.711Z" fill="#254E1E" stroke="#254E1E" stroke-width="1.37752"/>
<path d="M316.606 531.088L316.633 531.104L316.661 531.118C317.957 531.766 320.049 532.746 322.13 533.587C323.17 534.008 324.219 534.399 325.173 534.696C326.108 534.988 327.019 535.213 327.757 535.262L327.794 535.265H327.83H377.536C379.899 535.475 385.823 534.872 392.248 531.081L392.3 531.051L392.348 531.015C395.84 528.403 402.26 523.091 407.803 518.186C410.576 515.732 413.145 513.365 415.026 511.479C415.965 510.538 416.75 509.698 417.308 509.017C417.585 508.678 417.826 508.355 418.003 508.062C418.146 507.825 418.373 507.414 418.373 506.956C418.373 506.39 418.027 505.964 417.849 505.762C417.621 505.504 417.322 505.245 416.999 504.994C416.348 504.485 415.443 503.887 414.404 503.228C413.714 502.791 412.96 502.325 412.16 501.829C410.506 500.805 408.656 499.66 406.783 498.412C404.011 496.565 401.277 494.549 399.217 492.494C397.131 490.413 395.92 488.472 395.811 486.771V422.113C395.811 421.952 395.782 421.663 395.58 421.386C395.353 421.072 395.028 420.938 394.758 420.907C394.521 420.879 394.324 420.925 394.211 420.959C394.088 420.996 393.979 421.046 393.891 421.09C393.568 421.256 393.184 421.545 392.796 421.865C391.986 422.534 390.855 423.593 389.53 424.895C386.871 427.508 383.333 431.193 379.806 434.935C376.277 438.681 372.748 442.494 370.103 445.371C368.78 446.81 367.677 448.014 366.906 448.859C366.526 449.275 366.227 449.603 366.02 449.83H343.798L343.772 449.804C343.544 449.577 343.21 449.244 342.786 448.821C341.937 447.976 340.724 446.772 339.269 445.333C336.359 442.457 332.478 438.643 328.596 434.898C324.716 431.156 320.826 427.472 317.901 424.859C316.443 423.557 315.202 422.5 314.314 421.834C313.886 421.512 313.473 421.23 313.132 421.072C313.006 421.014 312.676 420.864 312.291 420.905C312.048 420.931 311.724 421.042 311.481 421.345C311.255 421.628 311.217 421.933 311.217 422.113C311.217 422.438 311.226 423.965 311.24 426.349C311.272 432.104 311.333 442.848 311.368 453.706C311.394 461.389 311.406 469.132 311.387 475.219C311.368 481.347 311.317 485.707 311.222 486.699C311.218 486.742 311.185 486.889 311.027 487.164C310.875 487.427 310.644 487.746 310.325 488.121C309.687 488.87 308.771 489.755 307.643 490.736C305.391 492.695 302.403 494.945 299.387 497.12C297.295 498.628 295.209 500.088 293.357 501.382C292.54 501.954 291.768 502.494 291.062 502.992C289.916 503.8 288.938 504.501 288.23 505.041C287.878 505.31 287.575 505.552 287.348 505.755C287.235 505.856 287.123 505.962 287.027 506.069C286.963 506.141 286.788 506.337 286.698 506.608C286.602 506.896 286.63 507.157 286.661 507.316C286.695 507.485 286.753 507.637 286.81 507.761C286.922 508.008 287.085 508.267 287.267 508.522C287.635 509.04 288.182 509.681 288.874 510.415C290.265 511.891 292.325 513.827 294.94 516.031C300.173 520.443 307.68 525.974 316.606 531.088ZM312.172 423.059C312.172 423.058 312.18 423.061 312.199 423.069C312.182 423.063 312.173 423.059 312.172 423.059Z" fill="#CC994C" stroke="#254E1E" stroke-width="2.20403"/>
<path d="M378.114 465.676C355.752 456.586 354.783 483.379 354.582 479.137C354.38 474.895 347.089 455.778 328.555 465.676C310.021 475.574 323.759 501.559 323.759 501.559C323.759 501.559 308.247 498.731 308.045 512.265C307.844 525.799 326.176 523.044 326.176 523.044C326.176 523.044 325.438 532.471 330.407 533.952H373.318C381.537 533.79 379.927 523.044 379.927 523.044C379.927 523.044 397.492 527.213 396.687 513.275C395.881 499.337 381.577 503.175 381.577 503.175C381.577 503.175 400.475 474.766 378.114 465.676Z" fill="#E2D1B7" stroke="#254E1E" stroke-width="2.20403"/>
<path d="M363.772 517.357H349.654C349.654 517.357 339.747 517.481 337.146 515.5C334.545 513.518 333.51 512.372 333.307 511.413" stroke="#254E1E" stroke-width="2.20403" stroke-linecap="round"/>
<path d="M342.431 494.69C339.034 487.745 335.758 491.796 334.545 494.69L339.6 498.324L335.354 501.554C338.589 510.438 341.42 505.256 342.431 501.554C343.401 498.324 342.835 495.632 342.431 494.69Z" fill="#254E1E" stroke="#254E1E" stroke-width="2.20403"/>
<path d="M369.923 494.69C366.527 487.745 363.251 491.796 362.038 494.69L367.093 498.324L362.847 501.554C366.082 510.438 368.912 505.256 369.923 501.554C370.894 498.324 370.328 495.632 369.923 494.69Z" fill="#254E1E" stroke="#254E1E" stroke-width="2.20403"/>
<path d="M356.973 506.459C356.973 507.114 356.61 507.803 355.831 508.37C355.053 508.936 353.923 509.32 352.626 509.32C351.329 509.32 350.2 508.936 349.421 508.37C348.642 507.803 348.279 507.114 348.279 506.459C348.279 505.804 348.642 505.115 349.421 504.548C350.2 503.982 351.329 503.598 352.626 503.598C353.923 503.598 355.053 503.982 355.831 504.548C356.61 505.115 356.973 505.804 356.973 506.459Z" fill="#CC994C" stroke="#254E1E" stroke-width="2.20403"/>
<path d="M103.72 637.992C105.032 638.21 107.584 638.398 107.58 638.443C107.094 638.653 105.919 638.907 103.781 639.908C103.04 640.253 102.619 641.762 103.718 643.49C104.795 645.173 106.134 645.574 107.16 644.774C107.913 644.2 108.638 643.591 109.325 642.941C109.242 643.043 108.992 644.364 108.718 646.082C108.378 648.201 110.307 648.362 111.727 648.324C113.481 648.275 114.735 647.963 114.628 645.679C114.629 645.653 114.603 645.444 114.56 645.023C114.488 644.358 114.441 643.956 114.408 643.662C114.314 642.917 114.267 642.307 114.238 641.907C114.347 642.075 115.481 642.518 117.478 643.752C118.42 644.129 119.91 644.842 121.082 642.543C122.166 640.39 121.933 639.287 120.73 638.933C118.322 638.226 117.03 637.716 116.95 637.739C118.542 637.009 119.228 636.863 120.373 636.296C121.518 635.73 120.893 633.9 120.101 632.664C119.331 631.682 118.303 630.531 116.99 631.475C115.913 632.247 114.647 633.863 114.49 633.77C114.333 633.676 115.097 631.825 115.304 630.386C115.551 628.693 113.746 628.002 112.243 628.021C110.748 628.038 109.102 628.524 109.271 630.426C109.495 632.902 109.775 634.529 109.775 634.529C109.029 634.138 107.433 633.387 105.851 632.657C104.942 632.244 104.406 632.278 103.893 632.453C102.925 632.794 102.521 633.882 102.252 634.662C101.451 637.045 102.536 637.797 103.72 637.992Z" fill="#FFD465"/>
<path d="M1389.06 561.124C1389.27 559.808 1389.44 557.25 1389.49 557.254C1389.7 557.739 1389.96 558.915 1390.98 561.051C1391.33 561.791 1392.84 562.203 1394.57 561.091C1396.25 560.001 1396.64 558.656 1395.83 557.634C1395.25 556.883 1394.64 556.16 1393.98 555.476C1394.08 555.558 1395.41 555.8 1397.13 556.064C1399.26 556.391 1399.41 554.457 1399.36 553.035C1399.3 551.277 1398.98 550.023 1396.69 550.145C1396.66 550.144 1396.45 550.171 1396.03 550.218C1395.37 550.293 1394.96 550.343 1394.67 550.378C1393.93 550.478 1393.31 550.529 1392.91 550.56C1393.08 550.45 1393.52 549.31 1394.74 547.302C1395.11 546.356 1395.82 544.858 1393.51 543.698C1391.34 542.626 1390.24 542.866 1389.89 544.075C1389.2 546.492 1388.7 547.79 1388.72 547.87C1387.98 546.279 1387.83 545.593 1387.25 544.449C1386.68 543.305 1384.85 543.944 1383.61 544.745C1382.63 545.523 1381.49 546.56 1382.44 547.87C1383.22 548.944 1384.85 550.202 1384.76 550.36C1384.67 550.518 1382.81 549.765 1381.36 549.566C1379.66 549.33 1378.98 551.143 1379.01 552.649C1379.04 554.147 1379.54 555.793 1381.44 555.611C1383.92 555.371 1385.55 555.079 1385.55 555.079C1385.16 555.829 1384.42 557.434 1383.7 559.023C1383.29 559.937 1383.33 560.474 1383.51 560.987C1383.85 561.955 1384.95 562.353 1385.73 562.616C1388.12 563.404 1388.87 562.311 1389.06 561.124Z" fill="#FFD465"/>
<path d="M1306.08 760.073C1307.31 759.028 1309.49 756.81 1309.52 756.849C1309.34 757.464 1308.65 758.752 1307.9 761.52C1307.64 762.478 1308.71 764.053 1311.17 764.389C1313.58 764.71 1315 763.784 1315.06 762.205C1315.12 761.057 1315.13 759.906 1315.06 758.759C1315.09 758.916 1316.12 760.185 1317.5 761.787C1319.2 763.764 1320.86 762.102 1321.94 760.756C1323.27 759.09 1323.96 757.684 1321.76 755.991C1321.74 755.969 1321.52 755.829 1321.1 755.54C1320.43 755.084 1320.02 754.812 1319.72 754.612C1318.95 754.116 1318.35 753.68 1317.96 753.394C1318.2 753.424 1319.5 752.72 1322.21 751.837C1323.3 751.26 1325.13 750.438 1323.92 747.547C1322.77 744.852 1321.57 744.203 1320.29 745.042C1317.75 746.719 1316.26 747.517 1316.22 747.61C1316.79 745.561 1317.2 744.81 1317.57 743.304C1317.94 741.798 1315.76 740.942 1313.99 740.706C1312.47 740.65 1310.6 740.699 1310.45 742.658C1310.32 744.262 1310.82 746.703 1310.61 746.776C1310.4 746.848 1309.28 744.687 1308.11 743.366C1306.74 741.809 1304.68 742.94 1303.52 744.349C1302.36 745.749 1301.52 747.656 1303.42 748.991C1305.89 750.726 1307.62 751.742 1307.62 751.742C1306.67 752.128 1304.72 753.019 1302.8 753.912C1301.71 754.431 1301.32 754.955 1301.08 755.568C1300.63 756.733 1301.33 757.962 1301.84 758.822C1303.42 761.434 1304.97 761.018 1306.08 760.073Z" fill="#FFD465"/>
<path d="M928.077 681.073C929.309 680.028 931.485 677.81 931.523 677.849C931.337 678.464 930.651 679.752 929.902 682.52C929.64 683.478 930.709 685.053 933.173 685.389C935.578 685.71 937.001 684.784 937.063 683.205C937.122 682.057 937.127 680.906 937.063 679.759C937.093 679.916 938.121 681.185 939.5 682.787C941.198 684.764 942.86 683.102 943.938 681.756C945.269 680.09 945.964 678.684 943.762 676.991C943.739 676.969 943.524 676.829 943.1 676.54C942.428 676.084 942.017 675.812 941.719 675.612C940.955 675.116 940.352 674.68 939.959 674.394C940.2 674.424 941.501 673.72 944.211 672.837C945.3 672.26 947.13 671.438 945.917 668.547C944.772 665.852 943.567 665.203 942.295 666.042C939.75 667.719 938.263 668.517 938.222 668.61C938.794 666.561 939.196 665.81 939.57 664.304C939.944 662.798 937.756 661.942 935.988 661.706C934.473 661.65 932.601 661.699 932.446 663.658C932.316 665.262 932.821 667.703 932.611 667.776C932.402 667.848 931.284 665.687 930.113 664.366C928.737 662.809 926.68 663.94 925.519 665.349C924.362 666.749 923.521 668.656 925.417 669.991C927.888 671.726 929.617 672.742 929.617 672.742C928.669 673.128 926.72 674.019 924.803 674.912C923.707 675.431 923.317 675.955 923.077 676.568C922.634 677.733 923.326 678.962 923.839 679.822C925.419 682.434 926.968 682.018 928.077 681.073Z" fill="#FFD465"/>
<path d="M1126.25 763.357C1126.71 761.809 1127.32 758.761 1127.37 758.773C1127.55 759.39 1127.68 760.844 1128.57 763.571C1128.87 764.516 1130.63 765.249 1132.87 764.183C1135.06 763.137 1135.75 761.583 1134.94 760.227C1134.36 759.234 1133.73 758.268 1133.05 757.342C1133.16 757.458 1134.72 757.957 1136.75 758.544C1139.25 759.271 1139.73 756.971 1139.9 755.254C1140.1 753.132 1139.91 751.574 1137.15 751.361C1137.11 751.356 1136.86 751.356 1136.34 751.345C1135.53 751.332 1135.04 751.328 1134.68 751.324C1133.77 751.327 1133.03 751.292 1132.54 751.267C1132.76 751.16 1133.46 749.859 1135.25 747.638C1135.85 746.559 1136.93 744.87 1134.33 743.113C1131.9 741.484 1130.53 741.599 1129.93 742.997C1128.72 745.793 1127.91 747.275 1127.92 747.375C1127.28 745.346 1127.21 744.498 1126.7 743.032C1126.19 741.567 1123.89 742.047 1122.28 742.817C1120.98 743.598 1119.44 744.664 1120.38 746.388C1121.15 747.802 1122.91 749.57 1122.77 749.745C1122.63 749.92 1120.52 748.722 1118.81 748.257C1116.81 747.706 1115.71 749.778 1115.51 751.593C1115.3 753.397 1115.64 755.454 1117.96 755.534C1120.98 755.635 1122.98 755.541 1122.98 755.541C1122.4 756.382 1121.25 758.194 1120.14 759.991C1119.5 761.024 1119.46 761.676 1119.6 762.32C1119.86 763.538 1121.11 764.188 1122.01 764.628C1124.77 765.95 1125.84 764.755 1126.25 763.357Z" fill="#FFD465"/>
<path d="M772.077 754.073C773.309 753.028 775.485 750.81 775.523 750.849C775.337 751.464 774.651 752.752 773.902 755.52C773.64 756.478 774.709 758.053 777.173 758.389C779.578 758.71 781.001 757.784 781.063 756.205C781.122 755.057 781.127 753.906 781.063 752.759C781.093 752.916 782.121 754.185 783.5 755.787C785.198 757.764 786.86 756.102 787.938 754.756C789.269 753.09 789.964 751.684 787.762 749.991C787.739 749.969 787.524 749.829 787.1 749.54C786.428 749.084 786.017 748.812 785.719 748.612C784.955 748.116 784.352 747.68 783.959 747.394C784.2 747.424 785.501 746.72 788.211 745.837C789.3 745.26 791.13 744.438 789.917 741.547C788.772 738.852 787.567 738.203 786.295 739.042C783.75 740.719 782.263 741.517 782.222 741.61C782.794 739.561 783.196 738.81 783.57 737.304C783.944 735.798 781.756 734.942 779.988 734.706C778.473 734.65 776.601 734.699 776.446 736.658C776.316 738.262 776.821 740.703 776.611 740.776C776.402 740.848 775.284 738.687 774.113 737.366C772.737 735.809 770.68 736.94 769.519 738.349C768.362 739.749 767.521 741.656 769.417 742.991C771.888 744.726 773.617 745.742 773.617 745.742C772.669 746.128 770.72 747.019 768.803 747.912C767.707 748.431 767.317 748.955 767.077 749.568C766.634 750.733 767.326 751.962 767.839 752.822C769.419 755.434 770.968 755.018 772.077 754.073Z" fill="#FFD465"/>
<path d="M559.077 626.073C560.309 625.028 562.485 622.81 562.523 622.849C562.337 623.464 561.651 624.752 560.902 627.52C560.64 628.478 561.709 630.053 564.173 630.389C566.578 630.71 568.001 629.784 568.063 628.205C568.122 627.057 568.127 625.906 568.063 624.759C568.093 624.916 569.121 626.185 570.5 627.787C572.198 629.764 573.86 628.102 574.938 626.756C576.269 625.09 576.964 623.684 574.762 621.991C574.739 621.969 574.524 621.829 574.1 621.54C573.428 621.084 573.017 620.812 572.719 620.612C571.955 620.116 571.352 619.68 570.959 619.394C571.2 619.424 572.501 618.72 575.211 617.837C576.3 617.26 578.13 616.438 576.917 613.547C575.772 610.852 574.567 610.203 573.295 611.042C570.75 612.719 569.263 613.517 569.222 613.61C569.794 611.561 570.196 610.81 570.57 609.304C570.944 607.798 568.756 606.942 566.988 606.706C565.473 606.65 563.601 606.699 563.446 608.658C563.316 610.262 563.821 612.703 563.611 612.776C563.402 612.848 562.284 610.687 561.113 609.366C559.737 607.809 557.68 608.94 556.519 610.349C555.362 611.749 554.521 613.656 556.417 614.991C558.888 616.726 560.617 617.742 560.617 617.742C559.669 618.128 557.72 619.019 555.803 619.912C554.707 620.431 554.317 620.955 554.077 621.568C553.634 622.733 554.326 623.962 554.839 624.822C556.419 627.434 557.968 627.018 559.077 626.073Z" fill="#FFD465"/>
<path d="M257.077 777.073C258.309 776.028 260.485 773.81 260.523 773.849C260.337 774.464 259.651 775.752 258.902 778.52C258.64 779.478 259.709 781.053 262.173 781.389C264.578 781.71 266.001 780.784 266.063 779.205C266.122 778.057 266.127 776.906 266.063 775.759C266.093 775.916 267.121 777.185 268.5 778.787C270.198 780.764 271.86 779.102 272.938 777.756C274.269 776.09 274.964 774.684 272.762 772.991C272.739 772.969 272.524 772.829 272.1 772.54C271.428 772.084 271.017 771.812 270.719 771.612C269.955 771.116 269.352 770.68 268.959 770.394C269.2 770.424 270.501 769.72 273.211 768.837C274.3 768.26 276.13 767.438 274.917 764.547C273.772 761.852 272.567 761.203 271.295 762.042C268.75 763.719 267.263 764.517 267.222 764.61C267.794 762.561 268.196 761.81 268.57 760.304C268.944 758.798 266.756 757.942 264.988 757.706C263.473 757.65 261.601 757.699 261.446 759.658C261.316 761.262 261.821 763.703 261.611 763.776C261.402 763.848 260.284 761.687 259.113 760.366C257.737 758.809 255.68 759.94 254.519 761.349C253.362 762.749 252.521 764.656 254.417 765.991C256.888 767.726 258.617 768.742 258.617 768.742C257.669 769.128 255.72 770.019 253.803 770.912C252.707 771.431 252.317 771.955 252.077 772.568C251.634 773.733 252.326 774.962 252.839 775.822C254.419 778.434 255.968 778.018 257.077 777.073Z" fill="#FFD465"/>
</svg>
