<svg width="1440" height="1068" viewBox="0 0 1440 1068" fill="none" xmlns="http://www.w3.org/2000/svg">
<path d="M-9.86964 280.288C275.807 36.2807 927.595 -48.478 1332.81 26.2803C1738.03 101.038 1885.38 454.399 1828.13 800.303C1737.76 1346.37 -61 887 -61 887C-61 887 -295.547 524.296 -9.86964 280.288Z" fill="#9BCD92"/>
<path d="M753.785 755.113C712.117 659.442 550.604 459.419 462.278 353.787C398.667 277.714 303.688 199.641 227 141.899C213.4 144.619 141.667 181.674 107.5 199.862C196.678 274.31 269.755 357.21 329.005 450.928C387.014 542.682 474.81 757.293 501.966 809.072C590.38 820.866 764.523 826.586 753.785 755.113Z" fill="#DBC8BB" stroke="#254E1E" stroke-width="3"/>
</svg>
