<svg width="1440" height="1226" viewBox="0 0 1440 1226" fill="none" xmlns="http://www.w3.org/2000/svg">
<path d="M80.0002 169.001C590 -104.999 1371.26 8.0412 1590 135.001C1808.74 261.96 1639.53 1226 1639.53 1226H-78.2541C-78.2541 1226 -430 443.001 80.0002 169.001Z" fill="#8BC081"/>
<path d="M450.714 130.815C453.492 123.605 449.9 115.509 442.691 112.731L401.024 96.6742C390.866 92.7599 380.327 101.436 382.217 112.157L385.173 128.921C385.838 132.693 388.02 136.026 391.21 138.145L421.815 158.473C429.269 163.424 439.39 160.2 442.608 151.85L450.714 130.815Z" fill="#BED4DE"/>
<path d="M374.734 133.865C377.911 125.62 373.803 116.36 365.557 113.182L348.321 106.54C336.703 102.063 324.649 111.987 326.811 124.248L326.948 125.029C327.709 129.343 330.204 133.156 333.853 135.579L349.265 145.816C357.79 151.479 369.367 147.791 373.047 138.241L374.734 133.865Z" fill="#BED4DE"/>
<path d="M406.547 177.87C409.724 169.624 405.615 160.364 397.37 157.187L380.134 150.544C368.516 146.067 356.462 155.991 358.623 168.253L358.761 169.034C359.522 173.347 362.017 177.16 365.666 179.583L381.078 189.82C389.603 195.483 401.18 191.796 404.86 182.246L406.547 177.87Z" fill="#BED4DE"/>
<path d="M347.272 171.864C350.45 163.618 346.341 154.358 338.096 151.18L311.76 141.032C300.334 136.629 288.398 146.17 290.177 158.286L291.442 166.908C292.09 171.321 294.55 175.263 298.229 177.783L318.527 191.691C327.048 197.53 338.786 193.884 342.501 184.246L347.272 171.864Z" fill="#BED4DE"/>
<path d="M377.483 231.412C380.66 223.166 376.552 213.906 368.307 210.729L341.971 200.58C330.545 196.177 318.609 205.718 320.387 217.834L321.653 226.457C322.301 230.869 324.761 234.811 328.44 237.332L348.738 251.24C357.259 257.078 368.997 253.433 372.711 243.794L377.483 231.412Z" fill="#BED4DE"/>
<path d="M309.654 215.825C312.832 207.58 308.723 198.32 300.478 195.142L274.142 184.994C262.716 180.59 250.78 190.132 252.559 202.247L253.825 210.87C254.472 215.283 256.932 219.224 260.611 221.745L280.909 235.653C289.43 241.492 301.168 237.846 304.883 228.208L309.654 215.825Z" fill="#BED4DE"/>
<path d="M340.482 272.881C343.659 264.636 339.551 255.376 331.305 252.198L304.97 242.05C293.543 237.646 281.607 247.188 283.386 259.303L284.652 267.926C285.3 272.338 287.759 276.28 291.438 278.801L311.736 292.709C320.258 298.548 331.996 294.902 335.71 285.263L340.482 272.881Z" fill="#BED4DE"/>
<path d="M271.761 258.754C274.939 250.509 270.83 241.248 262.585 238.071L233.294 226.784C222.585 222.657 211.141 230.814 211.551 242.284L212.347 264.607C212.514 269.282 214.719 273.651 218.382 276.562L236.94 291.311C245.395 298.03 257.942 294.616 261.825 284.538L271.761 258.754Z" fill="#BED4DE"/>
<path d="M315.369 316.699C315.656 307.868 308.729 300.475 299.897 300.188L260.83 298.92C248.386 298.515 240.269 311.854 246.345 322.72L252.497 333.721C254.635 337.544 258.246 340.323 262.489 341.411L294.819 349.699C304.733 352.24 314.452 344.949 314.784 334.719L315.369 316.699Z" fill="#BED4DE"/>
<path d="M236.737 313.49C234.975 304.935 226.612 299.428 218.057 301.19L204.572 303.966C193.669 306.211 189.395 319.501 196.946 327.68V327.68C199.602 330.558 203.321 332.221 207.237 332.281L221.003 332.493C231.118 332.649 238.777 323.399 236.737 313.49V313.49Z" fill="#BED4DE"/>
<path d="M294.594 369.811C292.682 360.527 283.606 354.55 274.321 356.462L259.687 359.475C247.854 361.911 243.216 376.334 251.41 385.211V385.211C254.293 388.334 258.329 390.138 262.579 390.204L277.518 390.434C288.496 390.603 296.808 380.565 294.594 369.811V369.811Z" fill="#BED4DE"/>
<path d="M235.331 353.671C233.549 345.016 225.088 339.445 216.433 341.227L197.602 345.104C185.608 347.574 180.721 362.052 188.764 371.285L190.932 373.773C193.861 377.136 198.061 379.123 202.519 379.256L220.604 379.796C230.929 380.104 238.836 370.694 236.753 360.577L235.331 353.671Z" fill="#BED4DE"/>
<path d="M293.331 414.671C291.549 406.016 283.088 400.445 274.433 402.227L255.602 406.104C243.608 408.574 238.721 423.052 246.764 432.285L248.932 434.773C251.861 438.136 256.061 440.123 260.519 440.256L278.604 440.796C288.929 441.104 296.836 431.694 294.753 421.577L293.331 414.671Z" fill="#BED4DE"/>
<path d="M196.468 425.901C201.875 432.891 211.924 434.173 218.913 428.766L234.12 417.002C243.805 409.509 241.827 394.357 230.542 389.602L227.501 388.321C223.391 386.589 218.745 386.652 214.683 388.493L198.204 395.962C188.796 400.226 185.834 412.155 192.154 420.325L196.468 425.901Z" fill="#BED4DE"/>
<path d="M303.331 458.671C301.549 450.016 293.088 444.445 284.433 446.227L265.602 450.104C253.608 452.574 248.721 467.052 256.764 476.285L258.932 478.773C261.861 482.136 266.061 484.123 270.519 484.256L288.604 484.796C298.929 485.104 306.836 475.694 304.753 465.577L303.331 458.671Z" fill="#BED4DE"/>
<path d="M238.331 451.671C236.549 443.016 228.088 437.445 219.433 439.227L197.5 443.743C186.259 446.057 181.038 459.105 187.581 468.535L196.451 481.32C199.118 485.164 203.334 487.648 207.989 488.118L224.967 489.833C235.712 490.918 244.424 481.265 242.246 470.687L238.331 451.671Z" fill="#BED4DE"/>
<path d="M232.532 503.74C223.723 504.445 217.154 512.158 217.86 520.966L220.979 559.929C221.973 572.34 236.137 578.911 246.254 571.654L256.495 564.307C260.054 561.755 262.411 557.854 263.016 553.517L267.627 520.461C269.041 510.324 260.706 501.485 250.504 502.301L232.532 503.74Z" fill="#BED4DE"/>
<path d="M262.596 573.077C253.889 573.774 247.396 581.398 248.093 590.104L249.192 603.828C250.08 614.924 262.744 620.799 271.789 614.31V614.31C274.971 612.028 277.079 608.541 277.62 604.663L279.522 591.027C280.919 581.007 272.68 572.27 262.596 573.077V573.077Z" fill="#BED4DE"/>
<path d="M289.789 509.553C280.981 510.258 274.342 517.976 275.047 526.784L276.667 547.027C277.579 558.412 290.913 564.076 299.739 556.827V556.827C302.591 554.485 304.414 551.121 304.82 547.453L307.054 527.254C308.159 517.266 299.806 508.751 289.789 509.553V509.553Z" fill="#BED4DE"/>
<path d="M302.719 586.178C293.91 586.883 287.342 594.595 288.047 603.404L289.581 622.568C290.558 634.775 304.326 641.404 314.478 634.556L317.213 632.71C320.911 630.216 323.399 626.292 324.079 621.885L326.836 604.003C328.411 593.794 320.043 584.791 309.746 585.615L302.719 586.178Z" fill="#BED4DE"/>
<path d="M354.964 548.937C351.796 540.687 342.541 536.568 334.292 539.736L316.344 546.629C304.912 551.019 302.448 566.099 311.888 573.899L314.432 576.001C317.87 578.842 322.338 580.119 326.757 579.524L344.689 577.111C354.926 575.733 361.195 565.161 357.492 555.518L354.964 548.937Z" fill="#BED4DE"/>
<path d="M352.014 593.335C343.206 594.04 336.637 601.752 337.342 610.561L338.876 629.725C339.853 641.932 353.621 648.561 363.773 641.712L366.508 639.867C370.206 637.373 372.694 633.449 373.374 629.041L376.131 611.16C377.706 600.951 369.338 591.948 359.041 592.772L352.014 593.335Z" fill="#BED4DE"/>
<path d="M385.317 547.44C376.508 548.145 369.939 555.858 370.644 564.666L372.179 583.83C373.156 596.037 386.924 602.666 397.075 595.818L399.811 593.972C403.508 591.478 405.997 587.554 406.676 583.147L409.434 565.265C411.008 555.056 402.641 546.053 392.344 546.878L385.317 547.44Z" fill="#BED4DE"/>
<path d="M400.193 606.953C391.385 607.658 384.816 615.37 385.521 624.178L387.308 646.5C388.224 657.94 400.531 664.724 410.694 659.39L424.471 652.158C428.614 649.983 431.598 646.104 432.636 641.542L436.424 624.904C438.821 614.373 430.311 604.541 419.546 605.403L400.193 606.953Z" fill="#BED4DE"/>
<path d="M630.825 767.902C627.782 759.606 632.04 750.414 640.335 747.37L677.032 733.907C688.72 729.619 700.613 739.736 698.252 751.961L695.863 764.337C695.033 768.637 692.476 772.409 688.789 774.773L660.692 792.787C652.076 798.311 640.56 794.437 637.035 784.828L630.825 767.902Z" fill="#BED4DE"/>
<path d="M636.217 721.759C633.209 713.559 637.417 704.473 645.618 701.464L658.543 696.722C668.993 692.888 679.626 701.934 677.516 712.864V712.864C676.773 716.709 674.487 720.081 671.191 722.195L659.601 729.626C651.084 735.086 639.702 731.257 636.217 721.759V721.759Z" fill="#BED4DE"/>
<path d="M656.739 816.622C653.855 808.763 657.889 800.055 665.748 797.172L684.165 790.415C694.289 786.701 704.397 795.938 701.606 806.355V806.355C700.711 809.694 698.552 812.554 695.586 814.33L678.754 824.407C670.598 829.289 660.013 825.546 656.739 816.622V816.622Z" fill="#BED4DE"/>
<path d="M705.281 774.59C702.237 766.294 706.495 757.101 714.791 754.058L732.84 747.436C744.337 743.218 756.116 752.951 754.142 765.037L753.61 768.293C752.891 772.695 750.367 776.596 746.648 779.057L731.559 789.041C722.944 794.741 711.267 790.906 707.709 781.208L705.281 774.59Z" fill="#BED4DE"/>
<path d="M720.086 858.208C711.268 858.78 703.656 852.096 703.083 843.278L701.837 824.093C701.043 811.873 713.711 803.328 724.744 808.64L727.717 810.071C731.736 812.006 734.764 815.53 736.072 819.793L741.38 837.09C744.411 846.965 737.429 857.081 727.122 857.751L720.086 858.208Z" fill="#BED4DE"/>
<path d="M738.281 808.59C735.237 800.294 739.495 791.101 747.791 788.058L765.84 781.436C777.337 777.218 789.116 786.951 787.142 799.037L786.61 802.293C785.891 806.695 783.367 810.596 779.648 813.057L764.559 823.041C755.944 828.741 744.267 824.906 740.709 815.208L738.281 808.59Z" fill="#BED4DE"/>
<path d="M721.281 883.59C718.237 875.294 722.495 866.101 730.791 863.058L748.84 856.436C760.337 852.218 772.116 861.951 770.142 874.037L769.61 877.293C768.891 881.695 766.367 885.596 762.648 888.057L747.559 898.041C738.944 903.741 727.267 899.906 723.709 890.208L721.281 883.59Z" fill="#BED4DE"/>
<path d="M766.281 841.59C763.237 833.294 767.495 824.101 775.791 821.058L796.814 813.345C807.588 809.392 818.898 817.734 818.303 829.195L817.497 844.735C817.254 849.408 814.978 853.74 811.269 856.591L797.74 866.991C789.177 873.573 776.688 869.955 772.968 859.816L766.281 841.59Z" fill="#BED4DE"/>
<path d="M502.56 587.166C503.758 578.411 497.633 570.342 488.878 569.143L450.151 563.842C437.816 562.153 428.363 574.58 433.284 586.017L438.265 597.595C439.996 601.618 443.3 604.756 447.408 606.277L478.708 617.863C488.306 621.416 498.726 615.169 500.115 605.028L502.56 587.166Z" fill="#BED4DE"/>
<path d="M480.478 633.278C474.608 626.81 464.606 626.325 458.138 632.195L447.943 641.447C439.699 648.928 442.783 662.543 453.445 665.742V665.742C457.196 666.868 461.244 666.406 464.646 664.466L476.604 657.643C485.391 652.63 487.276 640.769 480.478 633.278V633.278Z" fill="#BED4DE"/>
<path d="M537.057 605.712C531.187 599.244 521.185 598.759 514.717 604.629L504.522 613.881C496.279 621.362 499.362 634.977 510.025 638.176V638.176C513.775 639.301 517.823 638.84 521.225 636.899L533.183 630.077C541.97 625.064 543.856 613.203 537.057 605.712V605.712Z" fill="#BED4DE"/>
<path d="M532.456 680.196C537.045 672.645 534.644 662.803 527.093 658.213L510.663 648.228C500.199 641.868 486.76 649.141 486.362 661.38L486.254 664.679C486.109 669.136 487.831 673.451 491.005 676.585L503.88 689.297C511.231 696.554 523.429 695.048 528.794 686.221L532.456 680.196Z" fill="#BED4DE"/>
<path d="M548.99 625.507C541.137 629.557 538.053 639.207 542.103 647.061L550.915 664.149C556.527 675.032 571.787 675.834 578.509 665.599L580.32 662.841C582.768 659.113 583.55 654.533 582.476 650.204L578.119 632.644C575.631 622.618 564.437 617.542 555.256 622.276L548.99 625.507Z" fill="#BED4DE"/>
<path d="M589.269 664.107C585.127 671.913 588.098 681.598 595.904 685.739L612.887 694.75C623.705 700.489 636.697 692.445 636.381 680.203L636.296 676.905C636.181 672.446 634.21 668.239 630.859 665.296L617.265 653.356C609.504 646.54 597.414 648.754 592.573 657.879L589.269 664.107Z" fill="#BED4DE"/>
<path d="M572.894 683.848C566.956 677.305 556.837 676.814 550.293 682.753L536.056 695.673C526.988 703.903 530.149 718.853 541.772 722.708L544.904 723.747C549.137 725.151 553.764 724.724 557.669 722.57L573.512 713.832C582.556 708.843 584.574 696.718 577.632 689.069L572.894 683.848Z" fill="#BED4DE"/>
<path d="M611.894 710.848C605.956 704.305 595.837 703.814 589.293 709.753L572.711 724.802C564.212 732.515 566.358 746.403 576.789 751.191L590.93 757.683C595.183 759.635 600.076 759.628 604.323 757.663L619.81 750.5C629.612 745.966 632.199 733.223 624.942 725.225L611.894 710.848Z" fill="#BED4DE"/>
<path d="M1181.08 756.073C1182.31 755.028 1184.49 752.81 1184.52 752.849C1184.34 753.464 1183.65 754.753 1182.9 757.52C1182.64 758.478 1183.71 760.053 1186.17 760.389C1188.58 760.71 1190 759.784 1190.06 758.205C1190.12 757.057 1190.13 755.906 1190.06 754.759C1190.09 754.916 1191.12 756.185 1192.5 757.787C1194.2 759.764 1195.86 758.102 1196.94 756.756C1198.27 755.091 1198.96 753.684 1196.76 751.991C1196.74 751.969 1196.52 751.829 1196.1 751.54C1195.43 751.084 1195.02 750.812 1194.72 750.612C1193.95 750.116 1193.35 749.68 1192.96 749.394C1193.2 749.424 1194.5 748.72 1197.21 747.837C1198.3 747.26 1200.13 746.438 1198.92 743.547C1197.77 740.853 1196.57 740.203 1195.29 741.042C1192.75 742.719 1191.26 743.517 1191.22 743.61C1191.79 741.561 1192.2 740.81 1192.57 739.304C1192.94 737.798 1190.76 736.942 1188.99 736.706C1187.47 736.65 1185.6 736.699 1185.45 738.658C1185.32 740.262 1185.82 742.703 1185.61 742.776C1185.4 742.849 1184.28 740.687 1183.11 739.366C1181.74 737.809 1179.68 738.94 1178.52 740.349C1177.36 741.749 1176.52 743.656 1178.42 744.991C1180.89 746.726 1182.62 747.742 1182.62 747.742C1181.67 748.128 1179.72 749.019 1177.8 749.912C1176.71 750.431 1176.32 750.955 1176.08 751.568C1175.63 752.733 1176.33 753.962 1176.84 754.822C1178.42 757.434 1179.97 757.018 1181.08 756.073Z" fill="#FFD465"/>
<path d="M182.077 691.073C183.309 690.028 185.485 687.81 185.523 687.849C185.337 688.464 184.651 689.752 183.902 692.52C183.64 693.478 184.709 695.053 187.173 695.389C189.578 695.71 191.001 694.784 191.063 693.205C191.122 692.057 191.127 690.906 191.063 689.759C191.093 689.916 192.121 691.185 193.5 692.787C195.198 694.764 196.86 693.102 197.938 691.756C199.269 690.09 199.964 688.684 197.762 686.991C197.739 686.969 197.524 686.829 197.1 686.54C196.428 686.084 196.017 685.812 195.719 685.612C194.955 685.116 194.352 684.68 193.959 684.394C194.2 684.424 195.501 683.72 198.211 682.837C199.3 682.26 201.13 681.438 199.917 678.547C198.772 675.852 197.567 675.203 196.295 676.042C193.75 677.719 192.263 678.517 192.222 678.61C192.794 676.561 193.196 675.81 193.57 674.304C193.944 672.798 191.756 671.942 189.988 671.706C188.473 671.65 186.601 671.699 186.446 673.658C186.316 675.262 186.821 677.703 186.611 677.776C186.402 677.848 185.284 675.687 184.113 674.366C182.737 672.809 180.68 673.94 179.519 675.349C178.362 676.749 177.521 678.656 179.417 679.991C181.888 681.726 183.617 682.742 183.617 682.742C182.669 683.128 180.72 684.019 178.803 684.912C177.707 685.431 177.317 685.955 177.077 686.568C176.634 687.733 177.326 688.962 177.839 689.822C179.419 692.434 180.968 692.018 182.077 691.073Z" fill="#FFD465"/>
<path d="M404.359 740.818C404.887 739.292 405.632 736.275 405.685 736.289C405.837 736.913 405.902 738.372 406.666 741.135C406.928 742.093 408.649 742.904 410.942 741.94C413.176 740.993 413.929 739.471 413.179 738.08C412.646 737.062 412.064 736.07 411.425 735.114C411.531 735.234 413.062 735.803 415.063 736.48C417.532 737.319 418.117 735.042 418.36 733.335C418.658 731.223 418.54 729.659 415.783 729.322C415.752 729.315 415.496 729.304 414.983 729.271C414.173 729.221 413.682 729.195 413.323 729.175C412.413 729.137 411.672 729.069 411.188 729.022C411.411 728.925 412.172 727.657 414.056 725.518C414.7 724.467 415.856 722.828 413.342 720.956C410.985 719.22 409.617 719.274 408.948 720.644C407.611 723.382 406.738 724.826 406.749 724.927C406.199 722.872 406.163 722.021 405.718 720.534C405.274 719.047 402.954 719.424 401.313 720.121C399.98 720.843 398.394 721.839 399.257 723.603C399.962 725.05 401.639 726.895 401.495 727.064C401.352 727.233 399.29 725.941 397.609 725.4C395.632 724.761 394.437 726.781 394.155 728.585C393.871 730.378 394.117 732.448 396.429 732.632C399.439 732.868 401.445 732.863 401.445 732.863C400.825 733.677 399.6 735.436 398.405 737.181C397.725 738.185 397.657 738.835 397.762 739.485C397.973 740.713 399.194 741.418 400.074 741.898C402.764 743.342 403.885 742.196 404.359 740.818Z" fill="#FFD465"/>
<path d="M1341.08 615.073C1342.31 614.028 1344.49 611.81 1344.52 611.849C1344.34 612.464 1343.65 613.752 1342.9 616.52C1342.64 617.478 1343.71 619.053 1346.17 619.389C1348.58 619.71 1350 618.784 1350.06 617.205C1350.12 616.057 1350.13 614.906 1350.06 613.759C1350.09 613.916 1351.12 615.185 1352.5 616.787C1354.2 618.764 1355.86 617.102 1356.94 615.756C1358.27 614.09 1358.96 612.684 1356.76 610.991C1356.74 610.969 1356.52 610.829 1356.1 610.54C1355.43 610.084 1355.02 609.812 1354.72 609.612C1353.95 609.116 1353.35 608.68 1352.96 608.394C1353.2 608.424 1354.5 607.72 1357.21 606.837C1358.3 606.26 1360.13 605.438 1358.92 602.547C1357.77 599.852 1356.57 599.203 1355.29 600.042C1352.75 601.719 1351.26 602.517 1351.22 602.61C1351.79 600.561 1352.2 599.81 1352.57 598.304C1352.94 596.798 1350.76 595.942 1348.99 595.706C1347.47 595.65 1345.6 595.699 1345.45 597.658C1345.32 599.262 1345.82 601.703 1345.61 601.776C1345.4 601.848 1344.28 599.687 1343.11 598.366C1341.74 596.809 1339.68 597.94 1338.52 599.349C1337.36 600.749 1336.52 602.656 1338.42 603.991C1340.89 605.726 1342.62 606.742 1342.62 606.742C1341.67 607.128 1339.72 608.019 1337.8 608.912C1336.71 609.431 1336.32 609.955 1336.08 610.568C1335.63 611.733 1336.33 612.962 1336.84 613.822C1338.42 616.434 1339.97 616.018 1341.08 615.073Z" fill="#FFD465"/>
<path d="M860.727 734.558C861.504 733.899 862.878 732.499 862.902 732.524C862.784 732.912 862.351 733.725 861.878 735.471C861.713 736.076 862.388 737.069 863.943 737.281C865.46 737.484 866.358 736.899 866.397 735.903C866.434 735.179 866.437 734.453 866.397 733.729C866.416 733.828 867.065 734.629 867.934 735.639C869.006 736.887 870.054 735.839 870.735 734.989C871.575 733.938 872.013 733.051 870.624 731.982C870.609 731.969 870.474 731.88 870.206 731.698C869.782 731.41 869.523 731.239 869.335 731.113C868.852 730.799 868.472 730.524 868.224 730.344C868.376 730.363 869.197 729.919 870.907 729.361C871.594 728.997 872.749 728.479 871.984 726.655C871.261 724.955 870.501 724.545 869.698 725.074C868.092 726.132 867.154 726.636 867.128 726.694C867.489 725.401 867.743 724.928 867.979 723.977C868.215 723.027 866.834 722.487 865.719 722.338C864.763 722.303 863.582 722.334 863.484 723.57C863.402 724.582 863.721 726.122 863.588 726.168C863.456 726.214 862.751 724.85 862.012 724.017C861.143 723.035 859.846 723.748 859.113 724.637C858.383 725.52 857.852 726.723 859.049 727.566C860.608 728.661 861.699 729.302 861.699 729.302C861.101 729.545 859.871 730.107 858.661 730.671C857.97 730.998 857.724 731.329 857.572 731.716C857.293 732.451 857.729 733.226 858.053 733.769C859.05 735.417 860.028 735.155 860.727 734.558Z" fill="#FFD465"/>
<path d="M656.068 645.968C657.028 645.154 658.723 643.426 658.752 643.457C658.607 643.935 658.073 644.939 657.489 647.094C657.285 647.84 658.118 649.066 660.037 649.328C661.91 649.578 663.017 648.857 663.066 647.627C663.112 646.733 663.115 645.838 663.066 644.944C663.089 645.066 663.89 646.054 664.963 647.302C666.286 648.842 667.58 647.548 668.419 646.499C669.456 645.202 669.997 644.107 668.283 642.788C668.264 642.771 668.097 642.662 667.767 642.437C667.243 642.082 666.924 641.871 666.692 641.715C666.096 641.328 665.627 640.989 665.321 640.766C665.509 640.79 666.522 640.241 668.632 639.554C669.48 639.104 670.905 638.464 669.961 636.213C669.069 634.115 668.13 633.609 667.14 634.262C665.158 635.568 664.001 636.19 663.968 636.262C664.414 634.666 664.727 634.081 665.018 632.909C665.309 631.736 663.605 631.069 662.229 630.886C661.049 630.842 659.591 630.881 659.471 632.406C659.37 633.655 659.763 635.556 659.599 635.613C659.436 635.669 658.566 633.986 657.654 632.957C656.582 631.745 654.981 632.626 654.076 633.723C653.175 634.813 652.52 636.298 653.997 637.337C655.921 638.689 657.267 639.48 657.267 639.48C656.529 639.78 655.012 640.474 653.518 641.17C652.665 641.574 652.362 641.982 652.175 642.459C651.83 643.366 652.368 644.323 652.768 644.993C653.999 647.027 655.205 646.703 656.068 645.968Z" fill="#FFD465"/>
<path d="M1337.28 449.332C1326.13 452.322 1321.24 467.166 1337.28 473.005C1348.97 475.613 1378.11 477.705 1401.75 465.423C1402.14 465.219 1402.52 464.979 1402.84 464.682C1404.44 463.228 1406.78 460.363 1406.99 457.638C1407.95 445.057 1351.22 445.595 1337.28 449.332Z" fill="#254E1E" fill-opacity="0.5"/>
<path d="M1483.82 342.342C1487.47 312.73 1435.07 195.27 1398.51 174.542C1361.95 153.814 1266.31 348.264 1288.22 383.798C1310.13 419.332 1347.67 426.183 1386.94 419.332C1428.84 412.021 1480.16 371.953 1483.82 342.342Z" fill="#598C4F"/>
<path d="M1373.02 238.624H1374.02L1375.52 458.182H1371.52L1373.02 238.624Z" fill="#254E1E"/>
<path d="M1369.18 458.815C1369.18 461.217 1371.13 463.165 1373.53 463.165C1375.93 463.165 1377.88 461.217 1377.88 458.815C1377.88 456.412 1375.93 454.465 1373.53 454.465C1371.13 454.465 1369.18 456.412 1369.18 458.815ZM1369.18 237.714C1369.18 240.116 1371.13 242.064 1373.53 242.064C1375.93 242.064 1377.88 240.116 1377.88 237.714C1377.88 235.312 1375.93 233.364 1373.53 233.364C1371.13 233.364 1369.18 235.312 1369.18 237.714ZM1422.8 274.235C1422.8 276.638 1424.75 278.585 1427.15 278.585C1429.55 278.585 1431.5 276.638 1431.5 274.235C1431.5 271.833 1429.55 269.885 1427.15 269.885C1424.75 269.885 1422.8 271.833 1422.8 274.235ZM1400.34 311.25L1399.68 310.771L1399.68 310.771L1400.34 311.25ZM1422.28 317.666L1422.05 318.448C1422.21 318.497 1422.39 318.491 1422.55 318.432L1422.28 317.666ZM1435.6 311.25C1435.6 313.652 1437.54 315.6 1439.95 315.6C1442.35 315.6 1444.3 313.652 1444.3 311.25C1444.3 308.847 1442.35 306.9 1439.95 306.9C1437.54 306.9 1435.6 308.847 1435.6 311.25ZM1309.47 329.51C1309.47 331.913 1311.41 333.86 1313.82 333.86C1316.22 333.86 1318.17 331.913 1318.17 329.51C1318.17 327.108 1316.22 325.16 1313.82 325.16C1311.41 325.16 1309.47 327.108 1309.47 329.51ZM1329.66 374.915V375.73C1329.91 375.73 1330.15 375.613 1330.31 375.411L1329.66 374.915ZM1313.73 374.915C1313.73 377.317 1315.68 379.265 1318.08 379.265C1320.48 379.265 1322.43 377.317 1322.43 374.915C1322.43 372.512 1320.48 370.565 1318.08 370.565C1315.68 370.565 1313.73 372.512 1313.73 374.915ZM1349.16 302.86L1348.36 303.013C1348.38 303.161 1348.45 303.299 1348.55 303.41L1349.16 302.86ZM1339.32 274.235C1339.32 276.638 1341.27 278.585 1343.67 278.585C1346.08 278.585 1348.02 276.638 1348.02 274.235C1348.02 271.833 1346.08 269.885 1343.67 269.885C1341.27 269.885 1339.32 271.833 1339.32 274.235ZM1389.29 254.494C1389.29 256.896 1391.24 258.844 1393.64 258.844C1396.04 258.844 1397.99 256.896 1397.99 254.494C1397.99 252.091 1396.04 250.144 1393.64 250.144C1391.24 250.144 1389.29 252.091 1389.29 254.494ZM1351.51 245.61C1351.51 248.013 1353.46 249.961 1355.86 249.961C1358.26 249.961 1360.21 248.013 1360.21 245.61C1360.21 243.208 1358.26 241.26 1355.86 241.26C1353.46 241.26 1351.51 243.208 1351.51 245.61ZM1374.19 348.743L1401 311.728L1399.68 310.771L1372.87 347.786L1374.19 348.743ZM1401 311.728L1427.81 274.714L1426.49 273.757L1399.68 310.771L1401 311.728ZM1400.11 312.033L1422.05 318.448L1422.51 316.883L1400.57 310.467L1400.11 312.033ZM1422.55 318.432L1440.23 312.016L1439.67 310.483L1422 316.899L1422.55 318.432ZM1374.35 383.798V348.264H1372.71V383.798H1374.35ZM1374.08 383.195L1344.22 356.051L1343.12 357.258L1372.98 384.402L1374.08 383.195ZM1344.22 356.051L1314.36 328.907L1313.27 330.114L1343.12 357.258L1344.22 356.051ZM1343.03 356.158L1329.01 374.418L1330.31 375.411L1344.32 357.151L1343.03 356.158ZM1329.66 374.099H1318.08V375.73H1329.66V374.099ZM1374.35 348.264V329.51H1372.71V348.264H1374.35ZM1374.13 328.96L1349.76 302.309L1348.55 303.41L1372.93 330.061L1374.13 328.96ZM1349.96 302.706L1344.47 274.082L1342.87 274.389L1348.36 303.013L1349.96 302.706ZM1374.35 329.51V283.612H1372.71V329.51H1374.35ZM1374.2 284.076L1394.31 254.957L1392.97 254.03L1372.86 283.149L1374.2 284.076ZM1374.35 283.612V260.663H1372.71V283.612H1374.35ZM1374.35 260.663V237.714H1372.71V260.663H1374.35ZM1374.06 260.042L1356.39 244.99L1355.33 246.231L1373 261.284L1374.06 260.042ZM1374.35 458.815V421.306H1372.71V458.815H1374.35ZM1374.35 421.306V383.798H1372.71V421.306H1374.35Z" fill="#254E1E"/>
<path d="M551.938 301.499C544.409 303.422 541.111 312.964 551.938 316.717C559.801 318.388 579.344 319.728 595.273 311.934C595.661 311.744 596.031 311.518 596.351 311.227C597.418 310.256 598.858 308.507 598.992 306.839C599.642 298.751 561.349 299.096 551.938 301.499Z" fill="#254E1E" fill-opacity="0.5"/>
<path d="M646.525 296.499C640.644 298.385 638.005 307.601 646.042 311.496C646.357 311.648 646.69 311.763 647.03 311.846C653.568 313.445 668.569 314.518 680.899 307.016C681.297 306.774 681.671 306.487 681.973 306.132C682.812 305.145 683.89 303.454 683.993 301.839C684.511 293.751 654.019 294.096 646.525 296.499Z" fill="#254E1E" fill-opacity="0.5"/>
<path d="M739.883 206.325C742.235 181.788 708.529 84.4543 685.013 67.278C661.497 50.1016 599.98 211.233 614.073 240.678C628.166 270.123 652.312 275.8 677.566 270.123C704.517 264.065 737.532 230.863 739.883 206.325Z" fill="#598C4F"/>
<path d="M668.619 120.379H669.262L670.227 302.316H667.653L668.619 120.379Z" fill="#254E1E"/>
<path d="M666.146 302.84C666.146 304.386 667.399 305.639 668.944 305.639C670.489 305.639 671.742 304.386 671.742 302.84C671.742 301.295 670.489 300.042 668.944 300.042C667.399 300.042 666.146 301.295 666.146 302.84ZM666.146 119.625C666.146 121.171 667.399 122.423 668.944 122.423C670.489 122.423 671.742 121.171 671.742 119.625C671.742 118.08 670.489 116.827 668.944 116.827C667.399 116.827 666.146 118.08 666.146 119.625ZM700.636 149.888C700.636 151.434 701.888 152.687 703.434 152.687C704.979 152.687 706.232 151.434 706.232 149.888C706.232 148.343 704.979 147.09 703.434 147.09C701.888 147.09 700.636 148.343 700.636 149.888ZM686.189 180.561L685.731 180.304L685.731 180.304L686.189 180.561ZM700.298 185.877L700.113 186.368C700.246 186.418 700.393 186.412 700.521 186.352L700.298 185.877ZM708.866 180.561C708.866 182.106 710.119 183.359 711.664 183.359C713.21 183.359 714.462 182.106 714.462 180.561C714.462 179.015 713.21 177.763 711.664 177.763C710.119 177.763 708.866 179.015 708.866 180.561ZM627.737 195.692C627.737 197.238 628.989 198.49 630.535 198.49C632.08 198.49 633.333 197.238 633.333 195.692C633.333 194.147 632.08 192.894 630.535 192.894C628.989 192.894 627.737 194.147 627.737 195.692ZM640.725 233.317V233.841C640.91 233.841 641.081 233.744 641.175 233.585L640.725 233.317ZM630.48 233.317C630.48 234.862 631.733 236.115 633.278 236.115C634.823 236.115 636.076 234.862 636.076 233.317C636.076 231.772 634.823 230.519 633.278 230.519C631.733 230.519 630.48 231.772 630.48 233.317ZM653.267 173.608L652.748 173.685C652.76 173.767 652.791 173.845 652.839 173.912L653.267 173.608ZM646.941 149.888C646.941 151.434 648.194 152.687 649.739 152.687C651.284 152.687 652.537 151.434 652.537 149.888C652.537 148.343 651.284 147.09 649.739 147.09C648.194 147.09 646.941 148.343 646.941 149.888ZM679.08 133.53C679.08 135.075 680.332 136.328 681.878 136.328C683.423 136.328 684.676 135.075 684.676 133.53C684.676 131.985 683.423 130.732 681.878 130.732C680.332 130.732 679.08 131.985 679.08 133.53ZM654.78 126.169C654.78 127.714 656.032 128.967 657.578 128.967C659.123 128.967 660.376 127.714 660.376 126.169C660.376 124.623 659.123 123.371 657.578 123.371C656.032 123.371 654.78 124.623 654.78 126.169ZM669.401 211.49L686.646 180.818L685.731 180.304L668.487 210.976L669.401 211.49ZM686.646 180.818L703.891 150.146L702.976 149.631L685.731 180.304L686.646 180.818ZM686.004 181.052L700.113 186.368L700.483 185.386L686.374 180.07L686.004 181.052ZM700.521 186.352L711.887 181.036L711.442 180.085L700.076 185.402L700.521 186.352ZM669.468 240.678V211.233H668.419V240.678H669.468ZM669.343 240.338L650.138 217.845L649.34 218.526L668.545 241.019L669.343 240.338ZM650.138 217.845L630.934 195.352L630.136 196.033L649.34 218.526L650.138 217.845ZM649.288 217.917L640.274 233.048L641.175 233.585L650.19 218.454L649.288 217.917ZM640.725 232.792H633.278V233.841H640.725V232.792ZM669.468 211.233V195.692H668.419V211.233H669.468ZM669.372 195.389L653.694 173.305L652.839 173.912L668.516 195.996L669.372 195.389ZM653.785 173.531L650.258 149.811L649.22 149.966L652.748 173.685L653.785 173.531ZM669.468 195.692V157.659H668.419V195.692H669.468ZM669.406 157.907L682.34 133.778L681.415 133.282L668.481 157.411L669.406 157.907ZM669.468 157.659V138.642H668.419V157.659H669.468ZM669.468 138.642V119.625H668.419V138.642H669.468ZM669.332 138.289L657.966 125.815L657.19 126.522L668.556 138.995L669.332 138.289ZM669.468 302.84V271.759H668.419V302.84H669.468ZM669.468 271.759V240.678H668.419V271.759H669.468Z" fill="#254E1E"/>
<path d="M648.883 256.559C651.235 243.521 617.529 191.805 594.013 182.679C570.497 173.553 508.98 259.167 523.073 274.812C537.166 290.457 561.312 293.473 586.566 290.457C613.517 287.238 646.532 269.597 648.883 256.559Z" fill="#5F9854"/>
<path d="M577.619 210.893H578.262L579.227 307.562H576.653L577.619 210.893Z" fill="#254E1E"/>
<path d="M575.146 307.84C575.146 309.386 576.399 310.639 577.944 310.639C579.489 310.639 580.742 309.386 580.742 307.84C580.742 306.295 579.489 305.042 577.944 305.042C576.399 305.042 575.146 306.295 575.146 307.84ZM575.146 210.493C575.146 212.038 576.399 213.291 577.944 213.291C579.489 213.291 580.742 212.038 580.742 210.493C580.742 208.947 579.489 207.695 577.944 207.695C576.399 207.695 575.146 208.947 575.146 210.493ZM609.636 226.572C609.636 228.118 610.888 229.37 612.434 229.37C613.979 229.37 615.232 228.118 615.232 226.572C615.232 225.027 613.979 223.774 612.434 223.774C610.888 223.774 609.636 225.027 609.636 226.572ZM595.189 242.87L594.828 242.488L594.828 242.488L595.189 242.87ZM609.298 245.694L609.195 246.209C609.271 246.224 609.35 246.222 609.425 246.203L609.298 245.694ZM617.866 242.87C617.866 244.415 619.119 245.668 620.664 245.668C622.21 245.668 623.462 244.415 623.462 242.87C623.462 241.324 622.21 240.071 620.664 240.071C619.119 240.071 617.866 241.324 617.866 242.87ZM536.737 250.909C536.737 252.455 537.989 253.707 539.535 253.707C541.08 253.707 542.333 252.455 542.333 250.909C542.333 249.364 541.08 248.111 539.535 248.111C537.989 248.111 536.737 249.364 536.737 250.909ZM549.725 270.9V271.425C549.854 271.425 549.978 271.378 550.074 271.292L549.725 270.9ZM539.48 270.9C539.48 272.446 540.733 273.698 542.278 273.698C543.823 273.698 545.076 272.446 545.076 270.9C545.076 269.355 543.823 268.102 542.278 268.102C540.733 268.102 539.48 269.355 539.48 270.9ZM562.267 239.176L561.761 239.317C561.793 239.428 561.86 239.526 561.952 239.596L562.267 239.176ZM555.941 226.572C555.941 228.118 557.194 229.37 558.739 229.37C560.284 229.37 561.537 228.118 561.537 226.572C561.537 225.027 560.284 223.774 558.739 223.774C557.194 223.774 555.941 225.027 555.941 226.572ZM588.08 217.881C588.08 219.426 589.332 220.679 590.878 220.679C592.423 220.679 593.676 219.426 593.676 217.881C593.676 216.335 592.423 215.083 590.878 215.083C589.332 215.083 588.08 216.335 588.08 217.881ZM563.78 213.969C563.78 215.515 565.032 216.767 566.578 216.767C568.123 216.767 569.376 215.515 569.376 213.969C569.376 212.424 568.123 211.171 566.578 211.171C565.032 211.171 563.78 212.424 563.78 213.969ZM578.304 259.548L595.549 243.251L594.828 242.488L577.583 258.785L578.304 259.548ZM595.549 243.251L612.794 226.954L612.073 226.191L594.828 242.488L595.549 243.251ZM595.086 243.384L609.195 246.209L609.401 245.18L595.292 242.355L595.086 243.384ZM609.425 246.203L620.791 243.379L620.538 242.36L609.172 245.185L609.425 246.203ZM578.468 274.812V259.167H577.419V274.812H578.468ZM578.221 274.366L559.016 262.415L558.462 263.306L577.667 275.257L578.221 274.366ZM559.016 262.415L539.812 250.464L539.257 251.355L558.462 263.306L559.016 262.415ZM558.39 262.469L549.376 270.509L550.074 271.292L559.088 263.252L558.39 262.469ZM549.725 270.376H542.278V271.425H549.725V270.376ZM578.468 259.167V250.909H577.419V259.167H578.468ZM578.258 250.489L562.581 238.755L561.952 239.596L577.629 251.329L578.258 250.489ZM562.772 239.034L559.244 226.431L558.234 226.714L561.761 239.317L562.772 239.034ZM578.468 250.909V230.701H577.419V250.909H578.468ZM578.313 231.074L591.247 218.253L590.508 217.508L577.574 230.328L578.313 231.074ZM578.468 230.701V220.597H577.419V230.701H578.468ZM578.468 220.597V210.493H577.419V220.597H578.468ZM578.208 220.144L566.842 213.516L566.314 214.423L577.68 221.05L578.208 220.144ZM578.468 307.84V291.326H577.419V307.84H578.468ZM578.468 291.326V274.812H577.419V291.326H578.468Z" fill="#254E1E"/>
<path d="M295.5 616.016C281.5 616.416 268 605.516 268 594.516C268 577.516 287.5 574.016 295.5 574.016C303.5 574.016 308.5 575.016 314.5 577.516C320.5 580.016 326 579.516 332 582.516C334 583.516 344.5 582.516 348.5 582.516C352.5 582.516 354 570.516 366.5 567.516C379 564.516 397 575.016 397 588.016C397 601.016 380 609.516 370.5 610.516C361 611.516 355 598.5 350.5 598.5H334.5C331 598.5 313 615.516 295.5 616.016Z" fill="#254E1E" fill-opacity="0.5"/>
<g filter="url(#filter0_d_244_2234)">
<path d="M286.374 509.503L286.406 509.51L286.438 509.516C287.889 509.761 290.211 510.091 292.481 510.29C293.616 510.39 294.752 510.457 295.767 510.463C296.724 510.469 297.641 510.421 298.363 510.264L338.213 506.863L338.278 506.857L338.343 506.844C338.808 506.749 339.138 506.471 339.35 506.227C339.564 505.98 339.731 505.688 339.865 505.404C340.132 504.835 340.362 504.098 340.572 503.293C340.858 502.202 341.143 500.845 341.45 499.388C341.596 498.696 341.746 497.982 341.904 497.263C342.401 494.992 342.979 492.609 343.733 490.467C344.493 488.308 345.397 486.498 346.493 485.301L346.631 485.149L346.709 484.959C347.122 483.94 347.619 482.71 348.171 481.345C349.524 477.996 351.206 473.835 352.786 469.989C353.898 467.283 354.958 464.74 355.816 462.751C356.694 460.715 357.316 459.367 357.569 458.96C357.65 458.831 357.731 458.696 357.798 458.568C357.86 458.451 357.948 458.267 357.994 458.051C358.043 457.816 358.061 457.435 357.825 457.061C357.607 456.716 357.291 456.569 357.12 456.507C356.836 456.403 356.474 456.369 356.228 456.347L356.191 456.343C356.141 456.339 356.091 456.334 356.039 456.33C355.756 456.304 355.427 456.274 355.022 456.222C353.14 455.981 349.547 455.25 343.489 452.255C338.74 449.908 335.553 445.599 333.37 441.31C331.708 438.045 330.687 434.928 329.974 432.754C329.755 432.085 329.565 431.505 329.395 431.038L329.379 430.977L329.292 430.627L328.959 429.295C328.672 428.147 328.262 426.505 327.767 424.527C326.777 420.572 325.451 415.275 324.104 409.912C321.418 399.216 318.63 388.171 318.289 387.058C318.258 386.955 318.185 386.749 318.011 386.555C317.8 386.321 317.446 386.119 317.007 386.16C316.647 386.194 316.408 386.377 316.307 386.464C316.191 386.565 316.108 386.671 316.055 386.745C315.865 387.011 315.695 387.4 315.549 387.771C315.232 388.573 314.831 389.809 314.381 391.306C313.477 394.316 312.337 398.52 311.221 402.776C310.104 407.037 309.008 411.363 308.192 414.623C307.784 416.254 307.445 417.618 307.209 418.575C307.117 418.948 307.04 419.259 306.981 419.499L277.8 430.599L277.61 430.548C277.253 430.453 276.731 430.314 276.067 430.137C274.738 429.785 272.841 429.284 270.567 428.689C266.018 427.5 259.959 425.936 253.919 424.44C247.883 422.944 241.852 421.512 237.365 420.587C235.128 420.126 233.244 419.785 231.927 419.629C231.284 419.552 230.705 419.511 230.271 419.542C230.081 419.555 229.761 419.59 229.467 419.746C229.306 419.831 229.065 419.999 228.909 420.305C228.739 420.64 228.749 420.983 228.83 421.247C228.908 421.504 229.067 421.741 229.16 421.875C229.28 422.049 229.434 422.25 229.612 422.47C229.968 422.912 230.459 423.481 231.059 424.154C232.262 425.501 233.938 427.305 235.924 429.413C238.289 431.923 241.109 434.879 244.109 438.025C246.145 440.16 248.265 442.382 250.383 444.612C255.63 450.136 260.872 455.714 264.855 460.172C266.848 462.403 268.514 464.34 269.703 465.843C270.299 466.596 270.763 467.225 271.086 467.717C271.248 467.964 271.365 468.162 271.443 468.315C271.51 468.445 271.532 468.51 271.537 468.525C271.539 468.529 271.539 468.529 271.538 468.525C271.552 468.596 271.565 468.799 271.507 469.189C271.452 469.56 271.345 470.027 271.185 470.587C270.864 471.706 270.353 473.112 269.701 474.72C268.398 477.933 266.573 481.853 264.71 485.704C263.311 488.594 261.898 491.431 260.674 493.887C260.268 494.703 259.883 495.476 259.526 496.196C258.811 497.636 258.207 498.866 257.78 499.78C257.567 500.235 257.392 500.625 257.267 500.928C257.205 501.079 257.15 501.223 257.108 501.351C257.079 501.439 257.01 501.65 257.004 501.877C256.983 502.731 257.657 503.185 257.968 503.361C258.355 503.579 258.863 503.756 259.427 503.916C260.572 504.242 262.29 504.59 264.575 505.03C265.208 505.152 265.888 505.281 266.617 505.42C271.189 506.29 277.673 507.525 286.374 509.503ZM230.368 421.827C230.368 421.827 230.372 421.826 230.379 421.825C230.372 421.826 230.369 421.827 230.368 421.827Z" fill="#CC994C" stroke="#254E1E" stroke-width="2.28363"/>
<path d="M339.339 460.94C339.339 460.94 344.201 454.024 349.12 467.316C354.04 480.607 339.571 488.654 339.571 488.654C339.571 488.654 340.682 495.515 332.751 498.112L304.676 505.501C299.413 505.538 297.914 497.757 297.914 497.757C297.914 497.757 283.995 503.04 280.173 489.842C276.351 476.644 291.673 479.985 291.673 479.985C291.673 479.985 272.201 472.37 269.547 462.737C267.872 456.658 270.364 449.019 276.189 443.172C279.464 439.885 284.971 436.963 287.936 436.207C297.212 433.84 307.224 441.715 310.42 445.893C309.389 443.181 308.252 438.292 310.247 434.302C311.932 430.932 312.696 428.223 320.884 428.956C328.24 429.615 332.378 436.561 335.504 441.021C342.752 451.359 339.339 460.94 339.339 460.94Z" fill="#F2E4CE"/>
<path d="M311.371 447.473C310.233 444.297 298.598 433.487 287.936 436.207C284.971 436.963 279.464 439.885 276.189 443.172C270.364 449.019 267.872 456.658 269.547 462.737C272.201 472.37 291.673 479.985 291.673 479.985C291.673 479.985 276.351 476.644 280.173 489.842C283.995 503.04 297.914 497.757 297.914 497.757C297.914 497.757 299.413 505.538 304.676 505.501L332.751 498.112C340.682 495.515 339.571 488.654 339.571 488.654C339.571 488.654 354.04 480.607 349.12 467.316C344.201 454.024 339.339 460.94 339.339 460.94C339.339 460.94 342.752 451.359 335.504 441.021C332.378 436.561 328.24 429.615 320.884 428.956C312.696 428.223 311.932 430.932 310.247 434.302C306.909 440.976 312.338 450.169 311.371 447.473Z" stroke="#254E1E" stroke-width="2.28363"/>
<path d="M317.057 490.367C317.921 490.056 326.487 487.124 326.487 487.124L324.362 482.214L308.11 487.179C308.463 487.822 311.158 490.148 312.003 490.385C312.849 490.623 316.194 490.678 317.057 490.367Z" fill="#254E1E" stroke="#254E1E" stroke-width="1.69908" stroke-linejoin="round"/>
<path d="M317.058 490.367C317.921 490.056 326.487 487.124 326.487 487.124L325.362 484.76L310.134 488.472C310.487 489.115 311.69 490.103 312.536 490.34C313.381 490.577 316.194 490.678 317.058 490.367Z" fill="#E1C5D8" stroke="#254E1E" stroke-width="1.69908" stroke-linejoin="round"/>
<path d="M303.946 464.502C297.924 459.47 296.564 464.581 296.637 467.765L302.826 469.042L300.227 473.794C306.901 480.69 307.381 474.715 306.786 470.866C306.35 467.47 304.711 465.208 303.946 464.502Z" fill="#254E1E" stroke="#254E1E" stroke-width="2.28363"/>
<path d="M328.116 456.027C323.498 452.073 322.397 456.019 322.423 458.486L327.205 459.533L325.148 463.189C330.253 468.593 330.68 463.969 330.256 460.982C329.949 458.348 328.701 456.581 328.116 456.027Z" fill="#254E1E" stroke="#254E1E" stroke-width="2.28363"/>
<path d="M327.441 471.699C327.669 472.314 327.569 473.09 327.031 473.9C326.492 474.709 325.557 475.47 324.327 475.927C323.096 476.383 321.89 476.415 320.955 476.153C320.019 475.89 319.437 475.366 319.209 474.751C318.981 474.137 319.081 473.36 319.619 472.55C320.157 471.741 321.093 470.98 322.323 470.524C323.554 470.068 324.759 470.035 325.695 470.298C326.631 470.561 327.213 471.085 327.441 471.699Z" fill="#CC994C" stroke="#254E1E" stroke-width="2.28363"/>
<path d="M286.036 444.905L286.034 444.907C285.505 446.117 284.727 446.958 283.88 447.418C283.073 447.856 282.067 448.001 281.266 447.519C281.145 447.446 281.027 447.374 280.912 447.303C280.939 447.36 280.965 447.415 280.989 447.469M286.036 444.905L279.205 446.17C279.526 446.777 279.85 447.406 280.07 447.889C280.621 449.094 280.601 450.551 277.924 451.286C277.044 451.521 275.798 451.822 274.889 451.145C274.413 450.783 274.051 450.312 273.869 449.225C273.665 447.963 273.467 446.689 273.326 445.705C273.207 445.814 273.069 445.938 272.913 446.077C272.765 446.209 272.601 446.354 272.422 446.51M286.036 444.905C286.528 443.77 286.706 442.655 286.455 441.686C286.191 440.668 285.481 439.928 284.483 439.6C284.399 439.571 284.315 439.543 284.231 439.515C284.424 439.427 284.622 439.336 284.826 439.241C285.499 438.93 286.025 438.502 286.346 437.938C286.67 437.368 286.726 436.765 286.649 436.221C286.506 435.201 285.877 434.236 285.423 433.6L285.423 433.6C284.869 432.824 284.167 431.939 283.189 431.571C282.083 431.154 280.951 431.485 279.798 432.339M286.036 444.905L279.798 432.339M280.989 447.469C280.989 447.47 280.989 447.47 280.99 447.47L280.07 447.889L280.989 447.469C280.989 447.469 280.989 447.469 280.989 447.469ZM280.989 447.469C281.316 448.184 281.573 449.183 281.13 450.176C280.683 451.179 279.665 451.856 278.192 452.261L278.185 452.263L278.185 452.263C277.747 452.38 277.116 452.543 276.455 452.568C275.784 452.592 274.989 452.479 274.286 451.956L274.277 451.95L274.277 451.95C273.961 451.709 273.649 451.405 273.393 450.963C273.144 450.531 272.977 450.017 272.872 449.392L272.871 449.386C272.711 448.393 272.552 447.384 272.422 446.51M272.422 446.51C271.868 446.994 271.17 447.589 270.354 448.252L270.353 448.252C269.826 448.68 269.26 448.945 268.664 449.026C268.068 449.108 267.513 448.995 267.026 448.778C266.087 448.36 265.359 447.537 264.851 446.801C264.305 446.012 263.852 444.966 263.82 443.923C263.803 443.389 263.896 442.824 264.179 442.302C264.468 441.77 264.921 441.344 265.524 441.054C265.678 440.98 265.838 440.909 266.001 440.841C265.852 440.796 265.707 440.748 265.568 440.696C264.995 440.483 264.531 440.154 264.206 439.703C263.884 439.256 263.748 438.76 263.712 438.295C263.644 437.415 263.924 436.495 264.132 435.855C264.142 435.825 264.153 435.794 264.166 435.765C264.519 434.949 265.071 434.018 265.763 433.366C266.111 433.039 266.547 432.732 267.063 432.589C267.612 432.436 268.202 432.485 268.755 432.801C269.219 433.067 269.594 433.311 269.951 433.555C269.817 433.101 269.663 432.593 269.485 432.032C269.342 431.577 269.285 431.085 269.4 430.59C269.517 430.084 269.795 429.658 270.184 429.32C270.914 428.685 272.044 428.349 273.412 428.177L273.417 428.176L273.417 428.176C275.065 427.976 276.225 428.389 276.956 429.275C277.54 429.984 277.725 430.887 277.828 431.391C277.838 431.439 277.847 431.484 277.856 431.524C277.868 431.581 277.875 431.639 277.878 431.697C277.911 432.55 277.965 433.26 278.019 433.836L278.022 433.834L278.022 433.834C278.077 433.787 278.137 433.736 278.203 433.68C278.433 433.484 278.739 433.223 279.18 432.852L279.182 432.851C279.335 432.723 279.453 432.623 279.543 432.547C279.557 432.535 279.57 432.524 279.583 432.513C279.628 432.475 279.667 432.442 279.697 432.417C279.712 432.405 279.729 432.391 279.746 432.378L279.746 432.377C279.75 432.375 279.769 432.359 279.798 432.339M272.422 446.51C272.357 446.07 272.298 445.664 272.251 445.313C271.655 445.845 270.789 446.596 269.717 447.467C268.079 448.795 266.62 447.586 265.683 446.227C264.739 444.862 264.259 442.783 265.962 441.965C266.535 441.689 267.22 441.453 267.839 441.257L279.798 432.339M278.677 434.604C278.733 434.556 278.793 434.505 278.86 434.448C279.09 434.252 279.392 433.994 279.83 433.626C279.985 433.497 280.106 433.395 280.195 433.319C280.312 433.22 280.375 433.167 280.389 433.159C282.416 431.653 283.474 432.609 284.6 434.187L278.677 434.604ZM278.677 434.604C278.492 434.765 278.316 434.916 278.15 435.054L278.677 434.604ZM269.564 440.626C269.569 440.711 269.185 440.839 268.63 441.011C268.591 440.918 268.562 440.809 268.555 440.683C268.548 440.562 268.563 440.456 268.589 440.363C269.156 440.463 269.559 440.541 269.564 440.626ZM265.922 439.749C266.465 439.952 267.148 440.1 267.775 440.217L270.386 435.086C270.19 434.952 270.01 434.826 269.837 434.706C269.327 434.35 268.877 434.035 268.253 433.679C267.029 432.978 265.738 434.68 265.093 436.167C264.668 437.478 264.247 439.128 265.922 439.749ZM270.449 431.727C270.805 432.852 271.069 433.769 271.261 434.457L277.084 434.622C277.01 433.948 276.916 432.992 276.867 431.736C276.859 431.694 276.85 431.652 276.841 431.609C276.609 430.507 276.261 428.849 273.539 429.179C270.898 429.513 270.031 430.406 270.449 431.727Z" fill="#FFD465" stroke="#254E1E" stroke-width="2.02163" stroke-linecap="round" stroke-linejoin="round"/>
<path d="M299.222 466.017L294 465.028" stroke="#254E1E" stroke-width="3" stroke-linecap="round" stroke-linejoin="round"/>
<path d="M326.774 457.602L329.434 453" stroke="#254E1E" stroke-width="3" stroke-linecap="round" stroke-linejoin="round"/>
<path d="M313.911 579.848C314.671 579.783 316.032 580.483 315.397 583.803C317.679 583.14 323.404 583.17 328.051 588.59C330.658 592.237 333.869 600.568 325.856 604.721C322.426 606.733 316.124 609.432 310.325 609.555C295.124 614.373 293.08 600.291 293.958 592.648C288.376 588.227 287.031 580.739 287.056 577.548C286.673 571.867 294.407 568.525 298.322 567.564C299.636 567.034 301.206 566.616 303.064 566.334C305.888 564.41 308.698 567.86 310.061 570.61L313.911 579.848Z" fill="#C6AC9A"/>
<path d="M313.911 579.848C313.438 583.868 309.842 583.979 308.103 583.533C300.367 582.56 299.347 575.096 299.804 571.486C300.835 568.686 301.95 567.093 303.064 566.334M313.911 579.848C314.671 579.783 316.032 580.483 315.397 583.803M313.911 579.848L310.061 570.61C308.698 567.86 305.888 564.41 303.064 566.334M315.397 583.803C309.44 585.74 306.666 591.096 306.023 593.532M315.397 583.803C317.679 583.14 323.404 583.17 328.051 588.59C330.658 592.237 333.869 600.568 325.856 604.721C322.426 606.733 316.124 609.432 310.325 609.555M303.064 566.334C301.206 566.616 299.636 567.034 298.322 567.564M298.322 567.564C287.872 571.773 293.498 583.02 298.214 588.714C294.946 597.054 299.156 604.237 301.67 606.786C304.006 608.89 307.087 609.624 310.325 609.555M298.322 567.564C294.407 568.525 286.673 571.867 287.056 577.548C287.031 580.739 288.376 588.227 293.958 592.648C293.08 600.291 295.124 614.373 310.325 609.555" stroke="#254E1E" stroke-width="2.28363" stroke-linecap="round" stroke-linejoin="round"/>
<path d="M334.933 500.373C342.017 487.727 360.452 478.551 368.784 475.544L370.606 478.96C355.658 485.543 343.981 499.771 340.011 506.062C348.113 512.514 351.131 517.783 351.627 519.612C351.279 528.485 351.428 548.354 354.805 556.841C358.183 565.329 368.445 576.17 373.154 580.53L367.422 585.101C360.061 577.77 354.239 569.135 352.248 565.733L334.402 550.93L328.441 567.765C325.904 573.901 316.368 578.745 311.918 580.401C302.887 582.192 303.936 575.555 305.589 572.012C314.301 571.269 319.912 563.477 321.628 559.673C327.222 536.747 317.963 521.72 312.634 517.073C291.187 516.863 287.841 532.455 288.849 540.277C283.991 543.141 279.126 540.937 277.301 539.478C279.127 515.444 296.931 507.444 305.604 506.448L334.933 500.373Z" fill="#CC994C" stroke="#254E1E" stroke-width="2.28363" stroke-linejoin="round"/>
<path d="M276.986 540.27C278.994 541.374 284.078 542.955 288.354 540.447C289.654 539.741 291.604 538.18 289.002 537.586C290.057 537.496 292.013 537.89 291.393 540.188C294.172 540.376 299.567 541.811 298.909 546.051C298.848 547.598 298.116 550.149 295.871 550.806C296.662 554.597 296.486 561.896 289.45 560.762L289.577 559.917C289.089 560.935 287.946 561.839 285.579 561.73C284.714 561.867 283.436 561.922 282.383 561.651C280.821 562.774 260.479 559.664 276.109 541.493C275.833 540.712 275.702 539.793 275.773 538.715C275.978 539.182 276.362 539.701 276.986 540.27Z" fill="#F2E4CE"/>
<path d="M277.494 535.762C276.471 536.113 275.069 537.112 275.773 538.715M291.393 540.188C292.013 537.89 290.057 537.496 289.002 537.586C291.604 538.18 289.654 539.741 288.354 540.447C284.078 542.955 278.994 541.374 276.986 540.27C276.362 539.701 275.978 539.182 275.773 538.715M291.393 540.188C291.399 541.76 289.817 545.042 283.435 545.587C281.233 545.671 277.304 544.876 276.109 541.493M291.393 540.188C294.172 540.376 299.567 541.811 298.909 546.051C298.848 547.598 298.116 550.149 295.871 550.806M275.773 538.715C275.702 539.793 275.833 540.712 276.109 541.493M293.857 548.141C294.38 548.287 295.514 549.024 295.871 550.806M295.871 550.806C296.662 554.597 296.486 561.896 289.45 560.762L289.856 558.049C290.052 559.35 289.471 561.908 285.579 561.73C284.714 561.867 283.436 561.922 282.383 561.651M280.54 559.482C280.439 560.738 281.29 561.37 282.383 561.651M282.383 561.651C280.821 562.774 260.479 559.664 276.109 541.493" stroke="#254E1E" stroke-width="2.28363" stroke-linecap="round" stroke-linejoin="round"/>
<path d="M368.575 482.067C369.124 477.735 367.662 475.852 366.863 475.453C364.877 474.69 364.035 474.795 363.773 475.207C364.776 472.672 366.91 473.068 367.851 473.583C367.991 473.67 368.126 473.759 368.257 473.85C369.406 472.974 371.42 473.054 372.283 473.205C372.365 471.769 373.707 470.957 374.368 470.731C373.822 467.92 374.041 465.401 374.218 464.493C373.355 459.159 376.004 458.516 377.436 458.861C382.278 460.591 381.996 467.443 381.249 470.653C384.413 469.465 388.88 470.385 390.717 470.993C392.315 471.775 397.94 474.416 400.553 475.638C405.388 478.491 402.82 479.782 400.931 480.07C398.956 479.901 397.443 479.802 396.294 479.752C408.248 484.099 401.622 486.347 396.797 486.928C404.494 489.833 402.003 491.624 399.795 492.157C397.6 492.753 393.299 491.776 391.423 491.214C375.397 491.153 370.517 486.885 370.081 484.758C369.23 485.043 368.279 484.783 367.629 484.43C368.162 484.303 368.463 483.101 368.575 482.067Z" fill="#F2E4CE"/>
<path d="M364.026 476.588C363.752 476.14 363.548 475.56 363.773 475.207M365.663 482.316C366.565 484.911 367.144 484.545 367.629 484.43M367.629 484.43C368.162 484.303 368.463 483.101 368.575 482.067C369.124 477.735 367.662 475.852 366.863 475.453C364.877 474.69 364.035 474.795 363.773 475.207M367.629 484.43C368.279 484.783 369.23 485.043 370.081 484.758M363.773 475.207C364.776 472.672 366.91 473.068 367.851 473.583C367.991 473.67 368.126 473.759 368.257 473.85M370.081 484.758C371.098 484.417 371.974 483.296 372.024 480.625C372.068 479.234 371.361 476.012 368.257 473.85M370.081 484.758C370.517 486.885 375.397 491.153 391.423 491.214C393.299 491.776 397.6 492.753 399.795 492.157C402.003 491.624 404.494 489.833 396.797 486.928C401.637 486.345 408.289 484.085 396.181 479.711C395.533 479.596 393.994 479.489 393.015 479.981C392.698 479.757 393.838 479.463 400.931 480.07C402.82 479.782 405.388 478.491 400.553 475.638C397.94 474.416 392.315 471.775 390.717 470.993M390.717 470.993C388.88 470.385 384.413 469.465 381.249 470.653C381.996 467.443 382.278 460.591 377.436 458.861C376.004 458.516 373.355 459.159 374.218 464.493C374.041 465.401 373.822 467.92 374.368 470.731C373.707 470.957 372.365 471.769 372.283 473.205C371.42 473.054 369.406 472.974 368.257 473.85M390.717 470.993C392.442 473.269 395.012 478.866 391.491 483.045M375.429 478.676C376.977 476.886 381.87 474.044 389.062 477.002" stroke="#254E1E" stroke-width="2.28363" stroke-linecap="round" stroke-linejoin="round"/>
<path d="M364.648 591.461C364.817 585.962 368.605 582.22 375.17 580.231C375.03 573.61 378.451 560.69 393.255 561.977C394.86 562.059 394.854 562.351 398.516 565.865C402.177 569.379 400.438 572.709 399.063 579.212C398.372 580.588 396.847 584.63 396.266 589.782C395.771 593.949 392.765 602.862 384.698 605.183C383.047 605.481 380.223 605.587 377.275 604.889C374.616 604.26 371.856 602.977 369.765 600.591C368.236 599.616 364.48 596.96 364.648 591.461Z" fill="#C6AC9A"/>
<path d="M398.516 565.865C394.854 562.351 394.86 562.059 393.255 561.977C378.451 560.69 375.03 573.61 375.17 580.231C368.605 582.22 364.817 585.962 364.648 591.461C364.48 596.96 368.236 599.616 369.765 600.591C371.856 602.977 374.616 604.26 377.275 604.889M398.516 565.865C402.177 569.379 400.438 572.709 399.063 579.211C398.372 580.588 396.847 584.63 396.266 589.782C395.771 593.949 392.765 602.862 384.698 605.183C383.047 605.481 380.223 605.587 377.275 604.889M398.516 565.865C394.351 564.222 385.812 564.449 384.971 578.501C379.621 583.569 370.592 595.942 377.275 604.889" stroke="#254E1E" stroke-width="2.28363" stroke-linecap="round" stroke-linejoin="round"/>
<path d="M354.128 518.211C331.32 520.333 328.484 521.198 319.651 530.41C324.149 551.784 302.038 542.822 303.209 545.262C310.699 551.809 321.243 567.008 333.972 567.008C346.702 567.008 372.692 562.765 386.271 546.286C374.663 542.926 359.698 525.66 354.128 518.211Z" fill="#9FC299" stroke="#254E1E" stroke-width="2.54244"/>
</g>
<defs>
<filter id="filter0_d_244_2234" x="225.632" y="385.013" width="178.838" height="230.666" filterUnits="userSpaceOnUse" color-interpolation-filters="sRGB">
<feFlood flood-opacity="0" result="BackgroundImageFix"/>
<feColorMatrix in="SourceAlpha" type="matrix" values="0 0 0 0 0 0 0 0 0 0 0 0 0 0 0 0 0 0 127 0" result="hardAlpha"/>
<feOffset dx="-2" dy="4"/>
<feComposite in2="hardAlpha" operator="out"/>
<feColorMatrix type="matrix" values="0 0 0 0 0.145098 0 0 0 0 0.305882 0 0 0 0 0.117647 0 0 0 1 0"/>
<feBlend mode="normal" in2="BackgroundImageFix" result="effect1_dropShadow_244_2234"/>
<feBlend mode="normal" in="SourceGraphic" in2="effect1_dropShadow_244_2234" result="shape"/>
</filter>
</defs>
</svg>
