<svg width="1440" height="696" viewBox="0 0 1440 696" fill="none" xmlns="http://www.w3.org/2000/svg">
<path d="M1465.49 169C955.488 -105 174.227 8.04095 -44.5123 135C-263.252 261.96 -94.0403 696 -94.0403 696H1623.74C1623.74 696 1975.49 443 1465.49 169Z" fill="#8BC081"/>
<path d="M349.944 109.239C348.318 100.554 354.041 92.1945 362.727 90.5685L386 86.2117C398.238 83.9206 408.288 95.8699 403.934 107.534L402.613 111.071C401.081 115.174 397.935 118.47 393.907 120.19L373.437 128.93C364.024 132.949 353.31 127.22 351.427 117.16L349.944 109.239Z" fill="#BED4DE"/>
<path d="M410.373 115.186C409.062 108.187 413.674 101.45 420.673 100.14L431.705 98.0749C440.626 96.405 447.951 105.115 444.777 113.617V113.617C443.661 116.608 441.367 119.01 438.431 120.264L428.109 124.671C420.524 127.91 411.89 123.293 410.373 115.186V115.186Z" fill="#BED4DE"/>
<path d="M382.373 141.91C381.062 134.911 385.674 128.174 392.673 126.864L403.705 124.799C412.626 123.129 419.951 131.839 416.777 140.341V140.341C415.661 143.331 413.367 145.734 410.431 146.988L400.109 151.395C392.524 154.634 383.89 150.016 382.373 141.91V141.91Z" fill="#BED4DE"/>
<path d="M425.194 148.021C423.61 139.562 429.184 131.422 437.642 129.838L448.448 127.815C459.202 125.802 468.139 136.123 464.609 146.479V146.479C463.324 150.25 460.522 153.314 456.881 154.932L446.834 159.394C437.64 163.477 427.045 157.908 425.194 148.021V148.021Z" fill="#BED4DE"/>
<path d="M399.867 183.709C398.284 175.251 403.857 167.11 412.315 165.527L423.121 163.504C433.875 161.491 442.812 171.812 439.282 182.168V182.168C437.997 185.939 435.196 189.003 431.554 190.62L421.507 195.082C412.314 199.165 401.718 193.597 399.867 183.709V183.709Z" fill="#BED4DE"/>
<path d="M445.867 183.709C444.284 175.251 449.857 167.11 458.315 165.527L469.121 163.504C479.875 161.491 488.812 171.812 485.282 182.168V182.168C483.997 185.939 481.196 189.003 477.554 190.62L467.507 195.082C458.314 199.165 447.718 193.597 445.867 183.709V183.709Z" fill="#BED4DE"/>
<path d="M416.867 219.709C415.284 211.251 420.857 203.11 429.315 201.527L440.121 199.504C450.875 197.491 459.812 207.812 456.282 218.168V218.168C454.997 221.939 452.196 225.003 448.554 226.62L438.507 231.082C429.314 235.165 418.718 229.597 416.867 219.709V219.709Z" fill="#BED4DE"/>
<path d="M466.944 219.121C465.318 210.435 471.041 202.076 479.727 200.45L490.365 198.458C501.646 196.346 511.416 206.448 508.929 217.652L507.446 224.337C506.432 228.904 503.47 232.799 499.339 234.996L491.812 238.999C482.276 244.07 470.559 238.432 468.572 227.817L466.944 219.121Z" fill="#BED4DE"/>
<path d="M935.73 138.107C936.643 137.332 938.257 135.687 938.285 135.716C938.147 136.172 937.638 137.128 937.083 139.18C936.889 139.89 937.681 141.057 939.509 141.307C941.292 141.545 942.346 140.858 942.393 139.687C942.436 138.836 942.439 137.983 942.392 137.133C942.414 137.249 943.177 138.19 944.199 139.377C945.458 140.843 946.69 139.611 947.489 138.613C948.476 137.378 948.992 136.335 947.359 135.08C947.342 135.064 947.183 134.96 946.868 134.746C946.37 134.408 946.066 134.206 945.844 134.058C945.278 133.69 944.831 133.367 944.539 133.155C944.718 133.177 945.683 132.655 947.692 132C948.499 131.572 949.856 130.963 948.957 128.82C948.108 126.822 947.214 126.341 946.271 126.962C944.385 128.206 943.282 128.798 943.252 128.866C943.676 127.347 943.974 126.79 944.251 125.674C944.528 124.557 942.906 123.923 941.595 123.748C940.472 123.706 939.084 123.743 938.969 125.195C938.873 126.384 939.247 128.194 939.092 128.248C938.936 128.302 938.108 126.7 937.239 125.72C936.219 124.566 934.694 125.404 933.833 126.449C932.975 127.487 932.352 128.9 933.758 129.89C935.59 131.177 936.872 131.93 936.872 131.93C936.169 132.216 934.724 132.876 933.302 133.539C932.49 133.924 932.201 134.312 932.023 134.767C931.694 135.63 932.207 136.541 932.588 137.179C933.76 139.116 934.908 138.808 935.73 138.107Z" fill="#EFC55A"/>
<path d="M1165.73 117.107C1166.64 116.332 1168.26 114.687 1168.29 114.716C1168.15 115.172 1167.64 116.128 1167.08 118.18C1166.89 118.89 1167.68 120.057 1169.51 120.307C1171.29 120.545 1172.35 119.858 1172.39 118.687C1172.44 117.836 1172.44 116.983 1172.39 116.133C1172.41 116.249 1173.18 117.19 1174.2 118.377C1175.46 119.843 1176.69 118.611 1177.49 117.613C1178.48 116.378 1178.99 115.335 1177.36 114.08C1177.34 114.064 1177.18 113.96 1176.87 113.746C1176.37 113.408 1176.07 113.206 1175.84 113.058C1175.28 112.69 1174.83 112.367 1174.54 112.155C1174.72 112.177 1175.68 111.655 1177.69 111C1178.5 110.572 1179.86 109.963 1178.96 107.82C1178.11 105.822 1177.21 105.341 1176.27 105.962C1174.38 107.206 1173.28 107.798 1173.25 107.866C1173.68 106.347 1173.97 105.79 1174.25 104.674C1174.53 103.557 1172.91 102.923 1171.6 102.748C1170.47 102.706 1169.08 102.743 1168.97 104.195C1168.87 105.384 1169.25 107.194 1169.09 107.248C1168.94 107.302 1168.11 105.7 1167.24 104.72C1166.22 103.566 1164.69 104.404 1163.83 105.449C1162.98 106.487 1162.35 107.9 1163.76 108.89C1165.59 110.177 1166.87 110.93 1166.87 110.93C1166.17 111.216 1164.72 111.876 1163.3 112.539C1162.49 112.924 1162.2 113.312 1162.02 113.767C1161.69 114.63 1162.21 115.541 1162.59 116.179C1163.76 118.116 1164.91 117.808 1165.73 117.107Z" fill="#EFC55A"/>
<path d="M290.077 186.073C291.309 185.028 293.485 182.81 293.523 182.849C293.337 183.464 292.651 184.752 291.902 187.52C291.64 188.478 292.709 190.053 295.173 190.389C297.578 190.71 299.001 189.784 299.063 188.205C299.122 187.057 299.127 185.906 299.063 184.759C299.093 184.916 300.121 186.185 301.5 187.787C303.198 189.764 304.86 188.102 305.938 186.756C307.269 185.09 307.964 183.684 305.762 181.991C305.739 181.969 305.524 181.829 305.1 181.54C304.428 181.084 304.017 180.812 303.719 180.612C302.955 180.116 302.352 179.68 301.959 179.394C302.2 179.424 303.501 178.72 306.211 177.837C307.3 177.26 309.13 176.438 307.917 173.547C306.772 170.852 305.567 170.203 304.295 171.042C301.75 172.719 300.263 173.517 300.222 173.61C300.794 171.561 301.196 170.81 301.57 169.304C301.944 167.798 299.756 166.942 297.988 166.706C296.473 166.65 294.601 166.699 294.446 168.658C294.316 170.262 294.821 172.703 294.611 172.776C294.402 172.848 293.284 170.687 292.113 169.366C290.737 167.809 288.68 168.94 287.519 170.349C286.362 171.749 285.521 173.656 287.417 174.991C289.888 176.726 291.617 177.742 291.617 177.742C290.669 178.128 288.72 179.019 286.803 179.912C285.707 180.431 285.317 180.955 285.077 181.568C284.634 182.733 285.326 183.962 285.839 184.822C287.419 187.434 288.968 187.018 290.077 186.073Z" fill="#FFD465"/>
<path d="M141.248 163.994C139.791 163.296 136.878 162.213 136.898 162.163C137.535 162.082 138.992 162.183 141.824 161.738C142.806 161.586 143.807 159.967 143.109 157.58C142.421 155.253 140.995 154.333 139.528 154.92C138.456 155.334 137.404 155.8 136.382 156.326C136.514 156.235 137.252 154.778 138.152 152.866C139.265 150.509 137.07 149.669 135.401 149.234C133.337 148.698 131.769 148.638 131.122 151.339C131.112 151.369 131.071 151.622 130.98 152.128C130.838 152.927 130.758 153.412 130.697 153.766C130.555 154.667 130.403 155.395 130.302 155.871C130.231 155.638 129.058 154.738 127.146 152.623C126.175 151.865 124.678 150.529 122.533 152.815C120.54 154.96 120.439 156.326 121.724 157.145C124.293 158.784 125.629 159.816 125.73 159.816C123.626 160.129 122.776 160.069 121.248 160.342C119.721 160.615 119.832 162.962 120.338 164.671C120.905 166.078 121.714 167.767 123.565 167.109C125.082 166.573 127.106 165.117 127.257 165.278C127.409 165.44 125.892 167.342 125.163 168.951C124.303 170.842 126.175 172.258 127.935 172.744C129.685 173.23 131.769 173.219 132.214 170.943C132.791 167.979 133.013 165.987 133.013 165.987C133.752 166.695 135.36 168.111 136.959 169.497C137.879 170.286 138.516 170.427 139.174 170.397C140.418 170.326 141.258 169.193 141.835 168.374C143.574 165.865 142.563 164.621 141.248 163.994Z" fill="#FFD465"/>
<path d="M705.57 103.43C705.068 102.418 703.931 100.569 703.964 100.55C704.349 100.779 705.108 101.462 706.858 102.436C707.463 102.775 708.711 102.316 709.354 100.701C709.977 99.1248 709.589 98.0043 708.529 97.6958C707.76 97.4625 706.981 97.2657 706.192 97.1154C706.304 97.1219 707.337 96.6381 708.656 95.9735C710.283 95.1554 709.436 93.7485 708.705 92.7906C707.8 91.6073 706.963 90.899 705.444 92.1067C705.426 92.119 705.294 92.2408 705.027 92.48C704.605 92.8588 704.351 93.0912 704.165 93.2599C703.7 93.6944 703.303 94.0299 703.043 94.248C703.104 94.0895 702.846 93.0889 702.703 91.1025C702.496 90.2669 702.246 88.8877 700.082 89.2227C698.062 89.5451 697.419 90.2531 697.773 91.257C698.482 93.2648 698.772 94.4074 698.828 94.451C697.535 93.7179 697.094 93.3187 696.136 92.8115C695.177 92.3043 694.228 93.6438 693.771 94.8023C693.477 95.8199 693.196 97.0979 694.497 97.5329C695.563 97.891 697.304 97.9602 697.317 98.1146C697.331 98.269 695.678 98.6624 694.585 99.2341C693.297 99.905 693.717 101.49 694.477 102.515C695.231 103.535 696.382 104.427 697.607 103.366C699.2 101.983 700.18 100.982 700.18 100.982C700.282 101.689 700.557 103.161 700.84 104.612C701.007 105.442 701.297 105.794 701.672 106.061C702.387 106.557 703.337 106.295 704.007 106.093C706.044 105.461 706.023 104.341 705.57 103.43Z" fill="#FFD465"/>
</svg>
