<svg width="1440" height="1316" viewBox="0 0 1440 1316" fill="none" xmlns="http://www.w3.org/2000/svg">
<path d="M1408.96 258.779C898.957 -15.2211 117.696 97.8195 -101.043 224.779C-319.783 351.738 -150.571 1315.78 -150.571 1315.78H1567.21C1567.21 1315.78 1918.96 532.779 1408.96 258.779Z" fill="#8BC081"/>
<path d="M721.23 160.082C716.464 154.002 717.529 145.209 723.609 140.442L758.752 112.893C767.319 106.177 779.936 111.388 781.267 122.192L783.347 139.088C783.815 142.889 782.705 146.715 780.275 149.675L756.96 178.071C751.282 184.987 740.66 184.867 735.139 177.824L721.23 160.082Z" fill="#BED4DE"/>
<path d="M794.776 140.76C789.324 133.805 790.542 123.748 797.497 118.297L812.034 106.9C821.832 99.2189 836.264 105.18 837.785 117.537L837.882 118.324C838.418 122.671 837.147 127.047 834.368 130.433L822.627 144.732C816.133 152.642 803.984 152.505 797.669 144.451L794.776 140.76Z" fill="#BED4DE"/>
<path d="M736.22 102.75C739.525 108.866 737.247 116.503 731.131 119.808L721.491 125.018C713.697 129.23 704.29 123.318 704.705 114.468V114.468C704.851 111.355 706.267 108.438 708.623 106.397L716.904 99.2215C722.989 93.949 732.392 95.6666 736.22 102.75V102.75Z" fill="#BED4DE"/>
<path d="M777.237 192.149C771.785 185.194 773.003 175.137 779.957 169.685L794.495 158.289C804.293 150.608 818.724 156.569 820.246 168.926L820.343 169.713C820.878 174.06 819.608 178.436 816.829 181.821L805.088 196.121C798.593 204.031 786.444 203.894 780.13 195.839L777.237 192.149Z" fill="#BED4DE"/>
<path d="M832.157 169.056C826.705 162.101 827.923 152.044 834.878 146.593L857.089 129.18C866.726 121.625 880.932 127.255 882.778 139.361L884.091 147.976C884.763 152.385 883.565 156.874 880.785 160.361L865.447 179.602C859.008 187.679 846.717 187.628 840.344 179.499L832.157 169.056Z" fill="#BED4DE"/>
<path d="M820.699 234.839C815.247 227.885 816.465 217.828 823.42 212.376L845.631 194.964C855.269 187.409 869.474 193.038 871.32 205.144L872.633 213.76C873.306 218.168 872.107 222.658 869.327 226.145L853.989 245.385C847.55 253.462 835.259 253.412 828.886 245.283L820.699 234.839Z" fill="#BED4DE"/>
<path d="M880.995 200.082C875.543 193.127 876.762 183.07 883.716 177.618L905.927 160.206C915.565 152.651 929.77 158.281 931.616 170.386L932.929 179.002C933.602 183.411 932.403 187.9 929.623 191.387L914.285 210.627C907.846 218.704 895.555 218.654 889.182 210.525L880.995 200.082Z" fill="#BED4DE"/>
<path d="M868.218 263.662C862.767 256.707 863.985 246.65 870.939 241.199L893.151 223.786C902.788 216.231 916.993 221.861 918.839 233.967L920.153 242.582C920.825 246.991 919.626 251.48 916.846 254.967L901.508 274.207C895.069 282.284 882.778 282.234 876.405 274.105L868.218 263.662Z" fill="#BED4DE"/>
<path d="M929.794 230.039C924.342 223.085 925.56 213.027 932.515 207.576L957.219 188.209C966.251 181.128 979.581 185.579 982.547 196.667L988.319 218.245C989.528 222.765 988.698 227.587 986.048 231.443L972.619 250.978C966.502 259.878 953.505 260.285 946.842 251.786L929.794 230.039Z" fill="#BED4DE"/>
<path d="M926.391 324.052C920.573 317.401 921.248 307.293 927.899 301.475L957.32 275.739C966.691 267.542 981.422 272.718 983.606 284.975L985.817 297.384C986.586 301.696 985.553 306.134 982.959 309.664L963.198 336.561C957.139 344.809 945 345.326 938.262 337.622L926.391 324.052Z" fill="#BED4DE"/>
<path d="M985.192 271.746C981.134 264.012 984.114 254.452 991.849 250.394L1004.04 243.998C1013.9 238.827 1025.63 246.4 1024.97 257.512V257.512C1024.74 261.421 1022.91 265.065 1019.92 267.592L1009.4 276.479C1001.68 283.009 989.891 280.705 985.192 271.746V271.746Z" fill="#BED4DE"/>
<path d="M976.116 351.978C971.713 343.584 974.948 333.209 983.342 328.805L996.573 321.864C1007.27 316.251 1020 324.47 1019.28 336.53V336.53C1019.03 340.772 1017.05 344.726 1013.81 347.469L1002.39 357.113C994.008 364.2 981.217 361.7 976.116 351.978V351.978Z" fill="#BED4DE"/>
<path d="M1011.74 301.941C1007.63 294.116 1010.65 284.445 1018.47 280.34L1035.5 271.408C1046.34 265.719 1059.3 273.823 1058.92 286.063L1058.82 289.361C1058.69 293.819 1056.7 298.018 1053.33 300.945L1039.69 312.822C1031.89 319.602 1019.81 317.332 1015.01 308.184L1011.74 301.941Z" fill="#BED4DE"/>
<path d="M1005.52 385.884C1001.41 378.059 1004.43 368.387 1012.25 364.282L1029.28 355.35C1040.12 349.661 1053.08 357.765 1052.7 370.005L1052.6 373.304C1052.47 377.761 1050.48 381.96 1047.11 384.887L1033.46 396.764C1025.67 403.544 1013.59 401.274 1008.79 392.127L1005.52 385.884Z" fill="#BED4DE"/>
<path d="M1087.57 333.198C1087.82 342.031 1080.85 349.391 1072.02 349.636L1052.8 350.17C1040.56 350.51 1032.49 337.534 1038.21 326.705L1039.75 323.787C1041.83 319.843 1045.47 316.948 1049.78 315.798L1067.26 311.135C1077.24 308.473 1087.09 315.825 1087.38 326.151L1087.57 333.198Z" fill="#BED4DE"/>
<path d="M1025.66 426.26C1021.56 418.435 1024.57 408.764 1032.4 404.659L1049.42 395.727C1060.26 390.038 1073.22 398.142 1072.85 410.382L1072.75 413.68C1072.61 418.138 1070.62 422.337 1067.26 425.264L1053.61 437.141C1045.81 443.921 1033.73 441.65 1028.94 432.503L1025.66 426.26Z" fill="#BED4DE"/>
<path d="M1071.51 379.66C1067.41 371.835 1070.42 362.163 1078.25 358.058L1098.08 347.655C1108.24 342.323 1120.55 349.109 1121.46 360.55L1122.7 376.061C1123.07 380.725 1121.38 385.319 1118.08 388.632L1106.03 400.716C1098.41 408.364 1085.55 406.416 1080.53 396.852L1071.51 379.66Z" fill="#BED4DE"/>
<path d="M1063.71 459.366C1063.94 450.533 1071.29 443.563 1080.13 443.798L1119.2 444.839C1131.65 445.17 1138.96 458.964 1132.26 469.453L1125.46 480.072C1123.11 483.761 1119.34 486.323 1115.04 487.158L1082.27 493.522C1072.23 495.474 1062.96 487.621 1063.23 477.39L1063.71 459.366Z" fill="#BED4DE"/>
<path d="M1134.55 485.696C1134.78 476.965 1142.05 470.075 1150.78 470.308L1164.54 470.674C1175.67 470.971 1182.21 483.304 1176.21 492.682V492.682C1174.1 495.981 1170.73 498.271 1166.89 499.017L1153.37 501.643C1143.44 503.572 1134.28 495.809 1134.55 485.696V485.696Z" fill="#BED4DE"/>
<path d="M1101.35 429.57C1097.33 421.703 1100.38 411.935 1108.24 407.91L1128.37 397.612C1138.63 392.364 1150.51 400.971 1148.72 412.353V412.353C1148.16 415.923 1146.24 419.141 1143.38 421.342L1125.42 435.128C1117.49 441.214 1105.91 438.468 1101.35 429.57V429.57Z" fill="#BED4DE"/>
<path d="M1140.61 450.863C1140.8 443.961 1146.54 438.515 1153.44 438.699L1164.32 438.989C1173.12 439.223 1178.29 448.972 1173.55 456.385V456.385C1171.88 458.993 1169.22 460.803 1166.18 461.393L1155.5 463.468C1147.65 464.993 1140.4 458.857 1140.61 450.863V450.863Z" fill="#BED4DE"/>
<path d="M1078.52 517.431C1078.75 508.598 1086.11 501.557 1094.94 501.792L1115.24 502.333C1126.66 502.637 1133.02 515.651 1126.26 524.85V524.85C1124.07 527.823 1120.81 529.822 1117.17 530.423L1097.11 533.729C1087.2 535.364 1078.25 527.476 1078.52 517.431V517.431Z" fill="#BED4DE"/>
<path d="M1149.77 525.065C1150 516.232 1157.35 509.262 1166.19 509.497L1185.4 510.009C1197.65 510.335 1205 523.73 1198.7 534.232L1197 537.062C1194.71 540.886 1190.92 543.58 1186.56 544.494L1168.85 548.199C1158.74 550.315 1149.3 542.438 1149.58 532.113L1149.77 525.065Z" fill="#BED4DE"/>
<path d="M1116.22 584.869C1107.82 582.145 1103.21 573.122 1105.93 564.716L1111.86 546.427C1115.64 534.778 1130.56 531.514 1138.86 540.526L1141.09 542.954C1144.11 546.236 1145.62 550.629 1145.26 555.074L1143.81 573.109C1142.98 583.405 1132.76 590.227 1122.93 587.043L1116.22 584.869Z" fill="#BED4DE"/>
<path d="M1159.54 573.909C1159.77 565.076 1167.12 558.106 1175.96 558.341L1195.18 558.853C1207.42 559.179 1214.77 572.574 1208.47 583.076L1206.77 585.906C1204.48 589.731 1200.69 592.425 1196.33 593.338L1178.62 597.044C1168.51 599.159 1159.07 591.283 1159.35 580.957L1159.54 573.909Z" fill="#BED4DE"/>
<path d="M1115.48 609.608C1115.71 600.775 1123.07 593.804 1131.9 594.04L1151.12 594.552C1163.36 594.878 1170.71 608.273 1164.41 618.775L1162.72 621.605C1160.42 625.429 1156.64 628.123 1152.27 629.037L1134.56 632.742C1124.45 634.858 1115.02 626.981 1115.29 616.656L1115.48 609.608Z" fill="#BED4DE"/>
<path d="M1175.7 621.295C1175.93 612.462 1183.29 605.491 1192.12 605.727L1214.51 606.323C1225.98 606.628 1233.41 618.557 1228.62 628.989L1222.13 643.132C1220.18 647.385 1216.47 650.571 1211.97 651.85L1195.55 656.518C1185.17 659.473 1174.9 651.499 1175.18 640.703L1175.7 621.295Z" fill="#BED4DE"/>
<path d="M1041.8 959.894C1049.23 955.107 1051.37 945.205 1046.58 937.778L1032.56 916.021C1026.15 906.082 1011.55 906.285 1005.42 916.398L998.844 927.259C996.462 931.193 995.887 935.961 997.266 940.349L1003.59 960.449C1006.76 970.523 1018.64 974.819 1027.52 969.098L1041.8 959.894Z" fill="#BED4DE"/>
<path d="M1026.99 890.102C1034.33 885.37 1036.45 875.582 1031.72 868.241L1024.26 856.668C1018.23 847.312 1004.29 848.125 999.389 858.119V858.119C997.664 861.635 997.457 865.704 998.814 869.377L1003.59 882.291C1007.09 891.78 1018.49 895.582 1026.99 890.102V890.102Z" fill="#BED4DE"/>
<path d="M1052.55 929.93C1057.84 934.012 1065.43 933.034 1069.52 927.746V927.746C1074.5 921.282 1071.79 911.833 1064.13 909.006L1057.88 906.7C1054.84 905.579 1051.46 905.843 1048.64 907.425V907.425C1041.7 911.304 1040.99 921.006 1047.28 925.86L1052.55 929.93Z" fill="#BED4DE"/>
<path d="M990.445 974.5C997.481 969.965 999.509 960.585 994.974 953.549L984.346 937.059C978.504 927.994 964.872 929.277 960.823 939.272V939.272C959.525 942.476 959.525 946.06 960.822 949.264L968.184 967.448C971.751 976.259 982.455 979.65 990.445 974.5V974.5Z" fill="#BED4DE"/>
<path d="M994.184 917.805C1001.61 913.018 1003.75 903.116 998.965 895.688L988.55 879.528C981.916 869.235 966.65 869.905 960.944 880.74L959.406 883.66C957.328 887.606 956.991 892.24 958.477 896.445L964.504 913.505C967.945 923.244 979.576 927.22 988.258 921.624L994.184 917.805Z" fill="#BED4DE"/>
<path d="M916.99 985.748C923.683 991.518 933.786 990.77 939.556 984.078L952.11 969.517C960.106 960.242 955.145 945.79 943.139 943.381L939.903 942.732C935.531 941.855 930.99 942.843 927.377 945.457L912.719 956.064C904.351 962.119 903.827 974.399 911.651 981.144L916.99 985.748Z" fill="#BED4DE"/>
<path d="M953.9 906.153C952.066 897.509 943.571 891.989 934.927 893.823L916.12 897.815C904.141 900.357 899.342 914.865 907.442 924.049L909.624 926.524C912.574 929.869 916.786 931.831 921.245 931.937L939.333 932.366C949.659 932.612 957.509 923.153 955.364 913.049L953.9 906.153Z" fill="#BED4DE"/>
<path d="M882.862 1000.3C890.289 995.516 892.43 985.615 887.643 978.187L877.228 962.027C870.594 951.734 855.328 952.404 849.622 963.239L848.084 966.159C846.006 970.105 845.669 974.739 847.155 978.944L853.182 996.004C856.623 1005.74 868.254 1009.72 876.936 1004.12L882.862 1000.3Z" fill="#BED4DE"/>
<path d="M901.479 955.77C908.02 951.554 909.905 942.835 905.69 936.294L893.008 916.618C887.509 908.085 874.587 909.678 871.324 919.291V919.291C870.361 922.129 870.482 925.222 871.665 927.976L880.9 949.486C884.339 957.495 894.153 960.492 901.479 955.77V955.77Z" fill="#BED4DE"/>
<path d="M1112.44 700.738C1109.01 692.593 1112.83 683.212 1120.98 679.785L1157.01 664.624C1168.48 659.795 1180.83 669.347 1179.05 681.668L1177.24 694.142C1176.61 698.476 1174.23 702.364 1170.66 704.897L1143.43 724.202C1135.08 730.122 1123.4 726.79 1119.43 717.356L1112.44 700.738Z" fill="#BED4DE"/>
<path d="M1161.28 731.65C1169.88 730.115 1178.1 735.84 1179.63 744.439L1182.05 757.992C1184.01 768.95 1173.25 777.847 1162.85 773.866V773.866C1159.2 772.466 1156.27 769.628 1154.77 766.014L1149.47 753.308C1145.57 743.971 1151.32 733.429 1161.28 731.65V731.65Z" fill="#BED4DE"/>
<path d="M1093.56 748.486C1093.31 739.755 1100.18 732.473 1108.91 732.221L1122.67 731.824C1133.8 731.503 1141.02 743.454 1135.55 753.15V753.15C1133.62 756.561 1130.39 759.034 1126.59 759.993L1113.24 763.364C1103.43 765.84 1093.85 758.598 1093.56 748.486V748.486Z" fill="#BED4DE"/>
<path d="M1123.53 814.794C1117.14 808.69 1116.9 798.562 1123.01 792.172L1136.29 778.269C1144.74 769.413 1159.61 772.954 1163.17 784.671L1164.12 787.828C1165.42 792.096 1164.88 796.71 1162.62 800.559L1153.48 816.174C1148.27 825.089 1136.09 826.797 1128.62 819.663L1123.53 814.794Z" fill="#BED4DE"/>
<path d="M1213.69 679.09C1221.65 682.93 1224.99 692.495 1221.15 700.453L1208.6 726.462C1203.34 737.374 1187.79 737.368 1182.54 726.453V726.453C1180.99 723.237 1180.68 719.562 1181.68 716.134L1189.79 688.263C1192.55 678.761 1203.19 674.021 1212.1 678.321L1213.69 679.09Z" fill="#BED4DE"/>
<path d="M1144.13 661.69C1137.58 664.539 1129.96 661.538 1127.11 654.988V654.988C1123.61 646.92 1129 637.779 1137.76 636.953L1143.61 636.401C1147.12 636.07 1150.59 637.295 1153.11 639.751V639.751C1159.22 645.701 1157.34 655.945 1149.53 659.345L1144.13 661.69Z" fill="#BED4DE"/>
<path d="M1101.09 767.298C1109.73 769.173 1115.21 777.693 1113.33 786.329L1109.25 805.117C1106.65 817.083 1092.12 821.814 1082.97 813.671L1080.51 811.477C1077.18 808.512 1075.24 804.29 1075.15 799.832L1074.81 781.742C1074.61 771.414 1084.11 763.609 1094.2 765.801L1101.09 767.298Z" fill="#BED4DE"/>
<path d="M1072.35 813.942C1078.38 820.407 1078.02 830.532 1071.55 836.555L1057.49 849.661C1048.53 858.009 1033.89 853.608 1031.02 841.703L1030.25 838.495C1029.21 834.159 1030.02 829.584 1032.49 825.873L1042.53 810.817C1048.25 802.222 1060.51 801.226 1067.55 808.784L1072.35 813.942Z" fill="#BED4DE"/>
<path d="M1089.47 826.681C1093.51 818.821 1103.16 815.724 1111.02 819.763L1128.12 828.551C1139.01 834.148 1139.83 849.406 1129.61 856.143L1126.85 857.958C1123.13 860.412 1118.55 861.199 1114.22 860.131L1096.65 855.799C1086.62 853.326 1081.53 842.139 1086.25 832.951L1089.47 826.681Z" fill="#BED4DE"/>
<path d="M1053.98 858.987C1058.02 851.127 1067.67 848.03 1075.53 852.069L1095.44 862.304C1105.65 867.55 1107.18 881.52 1098.35 888.849L1086.37 898.785C1082.77 901.773 1078.04 903.034 1073.43 902.238L1056.62 899.335C1045.97 897.497 1040.17 885.86 1045.11 876.255L1053.98 858.987Z" fill="#BED4DE"/>
<path d="M1062.41 848.275C1048.42 847.537 1035.85 835.577 1036.75 824.613C1038.13 807.669 1057.85 805.764 1065.82 806.414C1073.79 807.064 1078.7 808.467 1084.47 811.446C1090.25 814.425 1095.77 814.373 1101.51 817.85C1103.42 819.01 1113.97 818.866 1117.96 819.19C1121.94 819.515 1124.41 807.677 1137.11 805.702C1149.82 803.727 1166.9 815.654 1165.85 828.611C1164.79 841.568 1151.16 847.659 1141.61 847.885C1132.06 848.11 1123.14 835.649 1118.65 835.284L1102.7 833.984C1099.22 833.7 1079.89 849.198 1062.41 848.275Z" fill="#254E1E" fill-opacity="0.5"/>
<path d="M1121.66 736.59C1123.54 736.732 1127.89 738.503 1130.27 744.456L1139.94 772.413C1141.04 772.519 1143.01 773.369 1142.07 775.92L1143.03 776.642L1148.13 780.491C1148.87 780.987 1150.98 782.128 1153.44 782.724C1154.22 784.141 1155.02 786.763 1151.96 785.913C1150.56 785.688 1148.18 785.086 1146.85 784.128C1147.99 785.476 1149.95 787.034 1152.7 787.401C1153.2 788.676 1152.98 790.972 1148.13 789.952C1147.58 789.602 1146.87 789.109 1146.16 788.548L1148.13 791.015C1147.92 791.724 1146.81 793.098 1144.09 792.928C1141.75 790.625 1136.97 784.233 1136.54 777.09C1136.4 776.557 1136.2 775.793 1135.94 774.857C1135.19 772.184 1134 768.109 1132.61 764.015C1131.79 761.216 1129.31 753.895 1125.91 747.007C1127.64 751.205 1129.99 757.639 1132.13 764.865C1135.48 776.182 1138.33 789.44 1137.5 799.094C1130.02 805.826 1114.67 814.677 1113.05 796.224L1112.01 781.086C1112.42 788.486 1112.11 801.667 1108.05 807.279C1107.53 807.442 1106.93 807.588 1106.27 807.704C1100.63 808.694 1090.64 807.49 1084.78 796.224C1084.73 793.438 1085.22 786.854 1086.93 776.734C1086.47 778.656 1085.79 780.104 1084.78 780.491C1081.73 781.483 1075.55 782.362 1075.21 777.94C1074.71 776.417 1074.27 773.454 1076.48 773.794C1075.99 772.165 1076.06 769.096 1080.31 769.861C1080.03 769.259 1079.63 767.842 1080.31 766.991C1077.51 766.424 1071.66 763.462 1070.64 756.149C1070.18 754.519 1073.76 748.325 1091.79 736.59H1121.66Z" fill="#254E1E"/>
<path d="M1121.34 807.279L1125.38 829.283C1126.05 831.55 1129.23 836.681 1136.54 839.062C1140.55 840.586 1150.55 842.549 1158.55 838.212C1160.35 836.298 1161.63 831.515 1152.27 827.688M1160.03 835.342C1160.67 833.464 1161.5 828.921 1159.72 825.775M1159.72 825.775C1158.94 824.322 1156.17 821.778 1151.32 823.223M1159.72 825.775C1159.54 823.932 1155.14 820.205 1144.09 821.31C1141.33 822.692 1134.97 825.456 1131.65 825.456C1130.91 825.881 1129.44 825.838 1129.53 822.267V804.834L1121.34 807.066M1139.94 772.413L1130.27 744.456C1127.89 738.503 1123.54 736.732 1121.66 736.59H1091.79C1073.76 748.325 1070.18 754.519 1070.64 756.149C1071.66 763.462 1077.51 766.424 1080.31 766.991M1139.94 772.413C1141.04 772.519 1143.01 773.369 1142.07 775.92L1143.03 776.642M1139.94 772.413C1138.85 772.602 1136.52 773.356 1135.94 774.857M1146.85 784.128C1148.18 785.086 1150.56 785.688 1151.96 785.913C1155.02 786.763 1154.22 784.141 1153.44 782.724C1150.98 782.128 1148.87 780.987 1148.13 780.491L1143.03 776.642M1146.85 784.128C1146.29 783.723 1145.92 783.254 1145.9 782.724C1146.09 783.103 1146.41 783.599 1146.85 784.128ZM1146.85 784.128C1147.99 785.476 1149.95 787.034 1152.7 787.401C1153.2 788.676 1152.98 790.972 1148.13 789.952C1147.58 789.602 1146.87 789.109 1146.16 788.548M1146.16 788.548C1144.55 787.29 1142.91 785.696 1143.03 784.637L1146.16 788.548ZM1146.16 788.548L1148.13 791.015C1147.92 791.724 1146.81 793.098 1144.09 792.928C1141.75 790.625 1136.97 784.233 1136.54 777.09M1136.54 777.09C1137.75 776.219 1140.73 774.91 1143.03 776.642M1136.54 777.09C1136.4 776.557 1136.2 775.793 1135.94 774.857M1112.01 781.086L1113.05 796.224C1114.67 814.677 1130.02 805.826 1137.5 799.094C1138.33 789.44 1135.48 776.182 1132.13 764.865M1112.01 781.086L1111.88 779.216C1111.93 779.784 1111.97 780.411 1112.01 781.086ZM1112.01 781.086C1112.42 788.486 1112.11 801.667 1108.05 807.279C1107.53 807.442 1106.93 807.588 1106.27 807.704M1086.93 776.734C1085.22 786.854 1084.73 793.438 1084.78 796.224C1090.64 807.49 1100.63 808.694 1106.27 807.704M1086.93 776.734C1087.07 775.888 1087.22 775.018 1087.38 774.123M1086.93 776.734C1087.11 775.932 1087.26 775.048 1087.38 774.123M1086.93 776.734C1086.47 778.656 1085.79 780.104 1084.78 780.491C1081.73 781.483 1075.55 782.362 1075.21 777.94C1074.71 776.417 1074.27 773.454 1076.48 773.794C1075.99 772.165 1076.06 769.096 1080.31 769.861M1087.38 774.123C1087.55 772.745 1087.65 771.277 1087.69 769.861M1087.38 774.123C1087.83 771.588 1088.35 768.855 1088.96 765.928M1087.65 764.865C1087.81 757.722 1083.39 755.511 1081.16 755.298C1087.96 754.958 1091.79 750.976 1092.85 749.027C1091.28 755.227 1090 760.867 1088.96 765.928M1087.65 764.865C1084.33 763.165 1081.37 765.574 1080.31 766.991M1087.65 764.865C1087.72 766.226 1087.75 767.998 1087.69 769.861M1080.31 769.861C1080.03 769.259 1079.63 767.842 1080.31 766.991M1080.31 769.861C1081.86 768.441 1085.51 766.452 1087.69 769.861M1106.27 807.704L1102.42 824.18C1102.17 831.408 1096.89 844.781 1077.76 840.444C1074.11 839.983 1067.7 837.957 1071.28 833.534C1072.52 831.94 1076.12 828.942 1080.63 829.708M1070.21 836.511C1066.6 831.727 1063.32 822.756 1079.14 825.137M1070.21 825.243C1071.52 822.196 1076.21 816.803 1084.46 819.609L1098.81 824.818V807.704H1106.25M1135.94 774.857C1135.19 772.184 1134 768.109 1132.61 764.015C1131.79 761.216 1129.31 753.895 1125.91 747.007C1127.64 751.205 1129.99 757.639 1132.13 764.865M1088.96 765.928C1094.79 761.216 1111.59 754.406 1132.13 764.865" stroke="#254E1E" stroke-width="2.20403"/>
<path d="M1098.84 824.663V808.629H1106.3L1102.46 824.663C1102.28 831.889 1097.86 836.858 1095.68 838.438C1079.24 843.497 1071.67 838.438 1069.94 835.277C1064.34 828.954 1068.66 824.362 1071.52 822.856C1076.94 815.269 1091.99 820.899 1098.84 824.663Z" fill="#254E1E" stroke="#254E1E" stroke-width="2.20403"/>
<path d="M1129.1 825.34V804.79L1121.65 809.307L1125.49 825.34C1125.67 832.567 1130.08 837.535 1132.27 839.116C1148.71 844.174 1156.28 839.116 1158.01 835.954C1163.61 829.631 1159.29 825.039 1156.43 823.534C1151.01 815.946 1135.95 821.577 1129.1 825.34Z" fill="#254E1E" stroke="#254E1E" stroke-width="2.20403"/>
<path d="M1138.04 837.308C1130.72 834.927 1127.55 829.797 1126.88 827.529L1124.65 815.411L1127.93 818.494L1131.02 815.411V820.513C1130.94 824.085 1132.4 824.127 1133.15 823.702C1136.46 823.702 1142.82 820.938 1145.58 819.557C1151.12 819.003 1154.98 819.66 1157.48 820.685C1159.98 821.709 1161.12 823.1 1161.21 824.021C1163 827.168 1162.17 831.71 1161.53 833.588L1160.65 835.652C1160.47 835.957 1160.26 836.228 1160.04 836.458C1152.05 840.795 1142.04 838.832 1138.04 837.308Z" fill="#C6AC9A"/>
<path d="M1103.92 822.427C1103.67 829.655 1098.39 843.027 1079.25 838.69C1075.39 838.084 1072.69 835.922 1071.83 834.917C1071.13 833.995 1070.44 832.912 1069.9 831.781C1068.35 829.272 1068.74 826.838 1069.12 825.934C1070.43 822.887 1077.7 815.049 1085.95 817.856L1093.13 820.46L1100.3 823.064V814.507L1102.42 817.856L1105.55 815.411L1103.92 822.427Z" fill="#C6AC9A"/>
<path d="M1161.21 824.021C1163 827.168 1162.17 831.71 1161.53 833.588L1160.65 835.652C1160.47 835.957 1160.26 836.228 1160.04 836.458C1152.05 840.795 1142.04 838.832 1138.04 837.308C1130.72 834.927 1127.55 829.797 1126.88 827.529L1124.65 815.411L1127.93 818.494L1131.02 815.411V820.513C1130.94 824.085 1132.4 824.127 1133.15 823.702C1136.46 823.702 1142.82 820.938 1145.58 819.557C1151.12 819.003 1154.98 819.66 1157.48 820.685M1161.21 824.021C1161.08 823.778 1160.89 823.504 1160.65 823.224C1160.45 822.754 1159.52 821.588 1157.48 820.685M1161.21 824.021C1161.12 823.1 1159.98 821.709 1157.48 820.685M1071.83 834.917C1071.13 833.995 1070.44 832.912 1069.9 831.781M1071.83 834.917L1069.9 831.781M1071.83 834.917C1072.69 835.922 1075.39 838.084 1079.25 838.69C1098.39 843.027 1103.67 829.655 1103.92 822.427L1105.55 815.411L1102.42 817.856L1100.3 814.507V823.064L1093.13 820.46L1085.95 817.856C1077.7 815.049 1070.43 822.887 1069.12 825.934C1068.74 826.838 1068.35 829.272 1069.9 831.781" stroke="#254E1E" stroke-width="2.20403" stroke-linecap="round" stroke-linejoin="round"/>
<path d="M1122.8 805.259L1130.98 802.814V815.145L1127.89 818.228L1124.61 815.145L1122.8 805.259Z" fill="#CC994C"/>
<path d="M1107.72 805.685H1100.26V814.242L1102.38 817.59L1105.51 815.145L1107.72 805.685Z" fill="#CC994C"/>
<path d="M1122.8 805.259L1130.98 802.814V815.145L1127.89 818.228L1124.61 815.145L1122.8 805.259Z" stroke="#254E1E" stroke-width="2.20403"/>
<path d="M1107.72 805.685H1100.26V814.242L1102.38 817.59L1105.51 815.145L1107.72 805.685Z" stroke="#254E1E" stroke-width="2.20403"/>
<path d="M1133.57 742.649C1131.19 736.697 1126.84 734.925 1124.96 734.783H1095.09C1077.06 746.519 1073.47 752.712 1073.94 754.342C1074.96 761.656 1080.81 764.618 1083.61 765.185C1084.67 763.767 1087.63 761.358 1090.94 763.059C1091.11 755.915 1086.69 753.704 1084.46 753.492C1091.26 753.152 1095.09 749.169 1096.15 747.22C1094.58 753.421 1093.3 759.061 1092.25 764.122C1098.09 759.409 1114.89 752.599 1135.43 763.059C1133.28 755.833 1130.94 749.398 1129.21 745.2C1132.61 752.089 1135.09 759.409 1135.91 762.208C1137.29 766.303 1138.49 770.378 1139.24 773.051C1139.81 771.55 1142.15 770.795 1143.24 770.606L1133.57 742.649Z" fill="#CC994C" stroke="#254E1E" stroke-width="2.20403"/>
<path d="M1143.29 770.798C1144.39 770.904 1146.35 771.755 1145.41 774.306L1146.37 775.028L1151.47 778.877C1152.22 779.373 1154.32 780.514 1156.79 781.109C1157.57 782.526 1158.36 785.148 1155.3 784.298C1153.91 784.074 1151.52 783.471 1150.2 782.513C1151.33 783.861 1153.3 785.42 1156.04 785.786C1156.54 787.062 1156.32 789.358 1151.47 788.337C1150.93 787.988 1150.22 787.494 1149.5 786.933L1151.47 789.4C1151.26 790.109 1150.16 791.484 1147.43 791.314C1145.1 789.011 1140.31 782.618 1139.89 775.475C1139.75 774.942 1139.54 774.178 1139.28 773.243C1139.86 771.742 1142.19 770.988 1143.29 770.798Z" fill="#E2D1B7"/>
<path d="M1140.84 797.479C1138.62 799.486 1135.69 801.681 1132.63 803.285C1125.43 807.062 1117.53 807.562 1116.4 794.609L1115.35 779.471C1115.77 786.871 1115.45 800.053 1111.4 805.664C1110.87 805.827 1110.27 805.973 1109.61 806.089C1107.78 806.411 1105.49 806.501 1103.02 806.089C1097.91 805.234 1092.08 802.214 1088.12 794.609C1088.08 791.823 1088.57 785.239 1090.27 775.119C1089.82 777.042 1089.13 778.49 1088.12 778.877C1085.07 779.869 1078.89 780.748 1078.55 776.326C1078.06 774.802 1077.62 771.84 1079.83 772.18C1079.33 770.55 1079.4 767.481 1083.65 768.247C1083.37 767.644 1082.97 766.227 1083.65 765.377C1084.72 763.959 1087.67 761.55 1090.99 763.251C1091.06 764.611 1091.09 766.384 1091.03 768.247C1090.99 769.662 1090.89 771.13 1090.72 772.509C1091.17 769.973 1091.7 767.24 1092.3 764.314C1098.13 759.601 1114.93 752.791 1135.47 763.251C1138.83 774.567 1141.67 787.826 1140.84 797.479Z" fill="#E2D1B7"/>
<path d="M1132.87 803.219L1124.69 805.451M1150.2 782.513C1151.52 783.471 1153.91 784.074 1155.3 784.298C1158.36 785.148 1157.57 782.526 1156.79 781.109C1154.32 780.514 1152.22 779.373 1151.47 778.877L1146.37 775.028M1150.2 782.513C1149.64 782.108 1149.27 781.639 1149.24 781.109C1149.43 781.488 1149.75 781.984 1150.2 782.513ZM1150.2 782.513C1151.33 783.861 1153.3 785.42 1156.04 785.786C1156.54 787.062 1156.32 789.358 1151.47 788.337C1150.93 787.988 1150.22 787.494 1149.5 786.933M1149.5 786.933C1147.89 785.675 1146.25 784.081 1146.37 783.022L1149.5 786.933ZM1149.5 786.933L1151.47 789.4C1151.26 790.109 1150.16 791.484 1147.43 791.314C1145.1 789.011 1140.31 782.618 1139.89 775.475M1139.89 775.475C1141.09 774.604 1144.08 773.295 1146.37 775.028M1139.89 775.475C1139.75 774.942 1139.54 774.178 1139.28 773.243M1135.95 762.4C1137.34 766.495 1138.54 770.57 1139.28 773.243M1115.35 779.471L1116.4 794.609C1118.01 813.062 1133.37 804.211 1140.84 797.479C1141.67 787.826 1138.83 774.567 1135.47 763.251C1114.93 752.791 1098.13 759.601 1092.3 764.314C1091.7 767.24 1091.17 769.973 1090.72 772.509M1115.35 779.471L1115.23 777.601C1115.27 778.17 1115.32 778.796 1115.35 779.471ZM1115.35 779.471C1115.77 786.871 1115.45 800.053 1111.4 805.664C1110.87 805.827 1110.27 805.973 1109.61 806.089C1103.97 807.079 1093.98 805.876 1088.12 794.609C1088.08 791.823 1088.57 785.239 1090.27 775.119M1090.27 775.119C1090.41 774.274 1090.56 773.404 1090.72 772.509M1090.27 775.119C1090.46 774.317 1090.61 773.433 1090.72 772.509M1090.27 775.119C1089.82 777.042 1089.13 778.49 1088.12 778.877C1085.07 779.869 1078.89 780.748 1078.55 776.326C1078.06 774.802 1077.62 771.84 1079.83 772.18C1079.33 770.55 1079.4 767.481 1083.65 768.247M1090.72 772.509C1090.89 771.13 1090.99 769.662 1091.03 768.247M1083.65 768.247C1083.37 767.644 1082.97 766.227 1083.65 765.377C1084.72 763.959 1087.67 761.55 1090.99 763.251C1091.06 764.611 1091.09 766.384 1091.03 768.247M1083.65 768.247C1085.21 766.826 1088.86 764.837 1091.03 768.247M1102.15 806.089H1109.59M1146.37 775.028L1145.41 774.306C1146.35 771.755 1144.39 770.904 1143.29 770.798C1142.19 770.988 1139.86 771.742 1139.28 773.243" stroke="#254E1E" stroke-width="2.20403" stroke-linecap="round" stroke-linejoin="round"/>
<path d="M1092.03 764.389C1098.88 759.2 1117.27 751.936 1136.12 764.389C1138.14 772.195 1141.96 789.735 1141.07 797.45C1139.19 798.919 1135.04 802.106 1133.5 803.097C1131.89 803.924 1127.66 805.577 1123.58 805.577C1120.91 806.094 1116.1 802.591 1115.44 786.156C1115.17 793.535 1114.19 802.143 1111.6 805.577C1110.03 806.036 1106 806.817 1102.37 806.266C1099.24 805.623 1092.03 802.409 1088.18 794.694C1088.04 792.353 1088.62 783.013 1092.03 764.389Z" fill="#FFD465"/>
<path d="M1092.03 764.389C1098.88 759.2 1117.27 751.936 1136.12 764.389C1138.14 772.195 1141.96 789.735 1141.07 797.45C1139.19 798.919 1135.04 802.106 1133.5 803.097C1131.89 803.924 1127.66 805.577 1123.58 805.577C1120.5 806.174 1114.57 801.417 1115.45 777.613C1115.73 784.868 1115.34 800.618 1111.6 805.577C1110.03 806.036 1106 806.817 1102.37 806.266C1099.24 805.623 1092.03 802.409 1088.18 794.694C1088.04 792.353 1088.62 783.013 1092.03 764.389Z" stroke="#254E1E" stroke-width="2.20403"/>
<path d="M1073.08 732.711L1073.09 732.721L1073.11 732.73C1074.4 733.374 1076.48 734.349 1078.55 735.186C1079.58 735.604 1080.62 735.99 1081.56 736.283C1082.49 736.573 1083.36 736.785 1084.05 736.831L1084.07 736.833H1084.1H1133.82C1136.08 737.04 1141.93 736.466 1148.3 732.707L1148.34 732.688L1148.37 732.665C1151.85 730.063 1158.26 724.759 1163.8 719.857C1166.57 717.406 1169.13 715.046 1171 713.168C1171.94 712.231 1172.71 711.402 1173.25 710.736C1173.53 710.405 1173.75 710.098 1173.92 709.83C1174.06 709.596 1174.23 709.271 1174.23 708.938C1174.23 708.537 1173.98 708.212 1173.81 708.017C1173.6 707.787 1173.33 707.547 1173.01 707.301C1172.38 706.806 1171.49 706.217 1170.45 705.559C1169.77 705.126 1169.02 704.661 1168.22 704.167C1166.56 703.141 1164.7 701.989 1162.82 700.737C1160.04 698.885 1157.28 696.852 1155.19 694.768C1153.09 692.667 1151.78 690.629 1151.66 688.765V624.095C1151.66 623.981 1151.64 623.791 1151.51 623.61C1151.37 623.407 1151.15 623.32 1150.98 623.298C1150.82 623.28 1150.68 623.311 1150.6 623.336C1150.51 623.364 1150.42 623.402 1150.35 623.44C1150.07 623.583 1149.71 623.846 1149.33 624.165C1148.53 624.822 1147.41 625.87 1146.09 627.171C1143.43 629.779 1139.9 633.458 1136.37 637.2C1132.85 640.944 1129.32 644.756 1126.67 647.632C1125.35 649.07 1124.25 650.275 1123.48 651.12C1123.09 651.542 1122.79 651.874 1122.58 652.101L1122.47 652.224H1099.89L1099.75 652.078C1099.52 651.851 1099.19 651.518 1098.76 651.096C1097.91 650.251 1096.7 649.047 1095.24 647.609C1092.34 644.733 1088.46 640.921 1084.58 637.177C1080.7 633.435 1076.81 629.756 1073.89 627.149C1072.44 625.848 1071.21 624.801 1070.33 624.146C1069.91 623.826 1069.52 623.567 1069.22 623.428C1069.1 623.372 1068.86 623.269 1068.6 623.298C1068.44 623.315 1068.23 623.388 1068.07 623.585C1067.92 623.768 1067.9 623.969 1067.9 624.095C1067.9 624.419 1067.91 625.946 1067.92 628.328C1067.95 634.081 1068.01 644.824 1068.05 655.686C1068.07 663.369 1068.09 671.114 1068.07 677.201C1068.05 683.315 1068 687.703 1067.9 688.72C1067.89 688.846 1067.82 689.052 1067.65 689.352C1067.48 689.644 1067.23 689.984 1066.91 690.37C1066.25 691.142 1065.32 692.043 1064.18 693.03C1061.91 695.001 1058.91 697.26 1055.89 699.436C1053.8 700.947 1051.71 702.409 1049.86 703.705C1049.04 704.276 1048.27 704.815 1047.57 705.311C1046.42 706.119 1045.45 706.816 1044.75 707.351C1044.4 707.617 1044.11 707.852 1043.89 708.045C1043.78 708.141 1043.68 708.236 1043.6 708.326C1043.54 708.395 1043.42 708.537 1043.36 708.72C1043.29 708.915 1043.31 709.096 1043.33 709.217C1043.36 709.344 1043.4 709.465 1043.45 709.571C1043.55 709.784 1043.69 710.018 1043.87 710.264C1044.22 710.759 1044.75 711.385 1045.44 712.113C1046.82 713.574 1048.87 715.499 1051.47 717.697C1056.69 722.094 1064.18 727.61 1073.08 732.711Z" fill="#254E1E" stroke="#254E1E" stroke-width="1.37752"/>
<path d="M1076.61 730.088L1076.63 730.104L1076.66 730.118C1077.96 730.766 1080.05 731.746 1082.13 732.587C1083.17 733.008 1084.22 733.399 1085.17 733.696C1086.11 733.988 1087.02 734.213 1087.76 734.262L1087.79 734.265H1087.83H1137.54C1139.9 734.475 1145.82 733.872 1152.25 730.081L1152.3 730.051L1152.35 730.015C1155.84 727.403 1162.26 722.091 1167.8 717.186C1170.58 714.732 1173.14 712.365 1175.03 710.479C1175.96 709.538 1176.75 708.698 1177.31 708.017C1177.59 707.678 1177.83 707.355 1178 707.062C1178.15 706.825 1178.37 706.414 1178.37 705.956C1178.37 705.39 1178.03 704.964 1177.85 704.762C1177.62 704.504 1177.32 704.245 1177 703.994C1176.35 703.485 1175.44 702.887 1174.4 702.228C1173.71 701.791 1172.96 701.325 1172.16 700.829C1170.51 699.805 1168.66 698.66 1166.78 697.412C1164.01 695.565 1161.28 693.549 1159.22 691.494C1157.13 689.413 1155.92 687.472 1155.81 685.771V621.113C1155.81 620.952 1155.78 620.663 1155.58 620.386C1155.35 620.072 1155.03 619.938 1154.76 619.907C1154.52 619.879 1154.32 619.925 1154.21 619.959C1154.09 619.996 1153.98 620.046 1153.89 620.09C1153.57 620.256 1153.18 620.545 1152.8 620.865C1151.99 621.534 1150.86 622.593 1149.53 623.895C1146.87 626.508 1143.33 630.193 1139.81 633.935C1136.28 637.681 1132.75 641.494 1130.1 644.371C1128.78 645.81 1127.68 647.014 1126.91 647.859C1126.53 648.275 1126.23 648.603 1126.02 648.83H1103.8L1103.77 648.804C1103.54 648.577 1103.21 648.244 1102.79 647.821C1101.94 646.976 1100.72 645.772 1099.27 644.333C1096.36 641.457 1092.48 637.643 1088.6 633.898C1084.72 630.156 1080.83 626.472 1077.9 623.859C1076.44 622.557 1075.2 621.5 1074.31 620.834C1073.89 620.512 1073.47 620.23 1073.13 620.072C1073.01 620.014 1072.68 619.864 1072.29 619.905C1072.05 619.931 1071.72 620.042 1071.48 620.345C1071.26 620.628 1071.22 620.933 1071.22 621.113C1071.22 621.438 1071.23 622.965 1071.24 625.349C1071.27 631.104 1071.33 641.848 1071.37 652.706C1071.39 660.389 1071.41 668.132 1071.39 674.219C1071.37 680.347 1071.32 684.707 1071.22 685.699C1071.22 685.742 1071.18 685.889 1071.03 686.164C1070.88 686.427 1070.64 686.746 1070.33 687.121C1069.69 687.87 1068.77 688.755 1067.64 689.736C1065.39 691.695 1062.4 693.945 1059.39 696.12C1057.29 697.628 1055.21 699.088 1053.36 700.382C1052.54 700.954 1051.77 701.494 1051.06 701.992C1049.92 702.8 1048.94 703.501 1048.23 704.041C1047.88 704.31 1047.58 704.552 1047.35 704.755C1047.23 704.856 1047.12 704.962 1047.03 705.069C1046.96 705.141 1046.79 705.337 1046.7 705.608C1046.6 705.896 1046.63 706.157 1046.66 706.316C1046.7 706.485 1046.75 706.637 1046.81 706.761C1046.92 707.008 1047.09 707.267 1047.27 707.522C1047.64 708.04 1048.18 708.681 1048.87 709.415C1050.26 710.891 1052.32 712.827 1054.94 715.031C1060.17 719.443 1067.68 724.974 1076.61 730.088ZM1072.17 622.059C1072.17 622.058 1072.18 622.061 1072.2 622.069C1072.18 622.063 1072.17 622.059 1072.17 622.059Z" fill="#CC994C" stroke="#254E1E" stroke-width="2.20403"/>
<path d="M1138.11 664.676C1115.75 655.586 1114.78 682.379 1114.58 678.137C1114.38 673.895 1107.09 654.778 1088.56 664.676C1070.02 674.574 1083.76 700.559 1083.76 700.559C1083.76 700.559 1068.25 697.731 1068.05 711.265C1067.84 724.799 1086.18 722.044 1086.18 722.044C1086.18 722.044 1085.44 731.471 1090.41 732.952H1133.32C1141.54 732.79 1139.93 722.044 1139.93 722.044C1139.93 722.044 1157.49 726.213 1156.69 712.275C1155.88 698.337 1141.58 702.175 1141.58 702.175C1141.58 702.175 1160.48 673.766 1138.11 664.676Z" fill="#E2D1B7" stroke="#254E1E" stroke-width="2.20403"/>
<path d="M1123.77 716.357H1109.65C1109.65 716.357 1099.75 716.481 1097.15 714.5C1094.55 712.518 1093.51 711.372 1093.31 710.413" stroke="#254E1E" stroke-width="2.20403" stroke-linecap="round"/>
<path d="M1102.43 693.69C1099.03 686.745 1095.76 690.796 1094.55 693.69L1099.6 697.324L1095.35 700.555C1098.59 709.438 1101.42 704.256 1102.43 700.555C1103.4 697.324 1102.83 694.632 1102.43 693.69Z" fill="#254E1E" stroke="#254E1E" stroke-width="2.20403"/>
<path d="M1129.92 693.69C1126.53 686.745 1123.25 690.796 1122.04 693.69L1127.09 697.324L1122.85 700.555C1126.08 709.438 1128.91 704.256 1129.92 700.555C1130.89 697.324 1130.33 694.632 1129.92 693.69Z" fill="#254E1E" stroke="#254E1E" stroke-width="2.20403"/>
<path d="M1116.97 705.459C1116.97 706.114 1116.61 706.803 1115.83 707.37C1115.05 707.936 1113.92 708.32 1112.63 708.32C1111.33 708.32 1110.2 707.936 1109.42 707.37C1108.64 706.803 1108.28 706.114 1108.28 705.459C1108.28 704.804 1108.64 704.115 1109.42 703.548C1110.2 702.982 1111.33 702.598 1112.63 702.598C1113.92 702.598 1115.05 702.982 1115.83 703.548C1116.61 704.115 1116.97 704.804 1116.97 705.459Z" fill="#CC994C" stroke="#254E1E" stroke-width="2.20403"/>
<path d="M1096.88 692.515L1093 689.123" stroke="#254E1E" stroke-width="2.90731" stroke-linecap="round" stroke-linejoin="round"/>
<path d="M1128.37 693L1132.25 689.608" stroke="#254E1E" stroke-width="2.90731" stroke-linecap="round" stroke-linejoin="round"/>
<path d="M1143.23 649.515C1143.31 649.543 1143.4 649.571 1143.48 649.6C1144.48 649.928 1145.19 650.668 1145.45 651.686C1145.71 652.655 1145.53 653.77 1145.04 654.905L1145.03 654.907C1144.51 656.117 1143.73 656.958 1142.88 657.418C1142.07 657.856 1141.07 658.001 1140.27 657.519C1140.27 657.518 1140.27 657.518 1140.27 657.518L1140.79 656.652C1140.06 656.216 1139.47 655.825 1138.99 655.484L1143.23 649.515ZM1143.23 649.515C1143.42 649.427 1143.62 649.336 1143.83 649.242C1144.5 648.93 1145.02 648.502 1145.35 647.938C1145.67 647.368 1145.73 646.765 1145.65 646.221C1145.51 645.201 1144.88 644.236 1144.42 643.6L1144.42 643.6C1143.87 642.824 1143.17 641.939 1142.19 641.571C1141.08 641.154 1139.95 641.485 1138.8 642.339C1138.77 642.359 1138.75 642.375 1138.75 642.377L1138.75 642.378C1138.73 642.391 1138.71 642.405 1138.7 642.417C1138.67 642.442 1138.63 642.475 1138.58 642.513C1138.57 642.524 1138.56 642.535 1138.54 642.547C1138.45 642.623 1138.33 642.723 1138.18 642.851L1138.18 642.852C1137.74 643.223 1137.43 643.484 1137.2 643.68C1137.14 643.736 1137.08 643.787 1137.02 643.834L1137.02 643.834L1137.02 643.836C1136.96 643.26 1136.91 642.55 1136.88 641.697C1136.88 641.639 1136.87 641.581 1136.86 641.524C1136.85 641.484 1136.84 641.439 1136.83 641.391C1136.72 640.887 1136.54 639.984 1135.96 639.275C1135.23 638.389 1134.06 637.976 1132.42 638.176L1132.42 638.176L1132.41 638.177C1131.04 638.349 1129.91 638.685 1129.18 639.32C1128.8 639.658 1128.52 640.084 1128.4 640.59C1128.28 641.085 1128.34 641.577 1128.49 642.032C1128.66 642.593 1128.82 643.101 1128.95 643.555C1128.59 643.311 1128.22 643.067 1127.76 642.801C1127.2 642.485 1126.61 642.436 1126.06 642.589C1125.55 642.732 1125.11 643.039 1124.76 643.366C1124.07 644.018 1123.52 644.949 1123.17 645.765C1123.15 645.794 1123.14 645.825 1123.13 645.855C1122.92 646.495 1122.64 647.415 1122.71 648.295C1122.75 648.76 1122.88 649.256 1123.21 649.703C1123.53 650.154 1124 650.483 1124.57 650.696C1124.71 650.748 1124.85 650.796 1125 650.841C1124.84 650.909 1124.68 650.98 1124.52 651.054C1123.92 651.344 1123.47 651.77 1123.18 652.302C1122.9 652.824 1122.8 653.389 1122.82 653.923C1122.85 654.966 1123.31 656.012 1123.85 656.801C1124.36 657.537 1125.09 658.36 1126.03 658.778C1126.51 658.995 1127.07 659.108 1127.66 659.026C1128.26 658.945 1128.83 658.68 1129.35 658.252L1129.35 658.252C1130.17 657.589 1130.87 656.994 1131.42 656.51C1131.55 657.384 1131.71 658.393 1131.87 659.386L1131.87 659.392C1131.98 660.017 1132.14 660.531 1132.39 660.963C1132.65 661.405 1132.96 661.709 1133.28 661.95L1133.28 661.95L1133.29 661.956C1133.99 662.479 1134.78 662.592 1135.46 662.568C1136.12 662.543 1136.75 662.38 1137.19 662.263L1137.19 662.263L1137.19 662.261C1138.67 661.856 1139.68 661.179 1140.13 660.176C1140.57 659.183 1140.32 658.185 1139.99 657.47C1139.96 657.416 1139.94 657.36 1139.91 657.303L1143.23 649.515Z" fill="#FFD465" stroke="#254E1E" stroke-width="2.02163" stroke-linecap="round" stroke-linejoin="round"/>
<path d="M101.015 761.073C102.246 760.028 104.423 757.809 104.461 757.848C104.275 758.463 103.588 759.752 102.839 762.52C102.578 763.477 103.647 765.052 106.111 765.389C108.516 765.71 109.938 764.783 110.001 763.204C110.06 762.056 110.064 760.906 110.001 759.758C110.03 759.916 111.059 761.184 112.437 762.786C114.135 764.764 115.797 763.102 116.876 761.755C118.207 760.09 118.902 758.683 116.7 756.99C116.676 756.969 116.462 756.829 116.037 756.539C115.366 756.084 114.955 755.812 114.657 755.612C113.892 755.115 113.289 754.68 112.897 754.393C113.138 754.424 114.439 753.72 117.149 752.836C118.238 752.259 120.068 751.437 118.855 748.546C117.71 745.852 116.504 745.203 115.232 746.041C112.688 747.719 111.201 748.517 111.16 748.609C111.732 746.56 112.134 745.809 112.508 744.303C112.881 742.797 110.693 741.941 108.926 741.706C107.411 741.649 105.539 741.699 105.384 743.657C105.254 745.261 105.759 747.703 105.549 747.775C105.34 747.848 104.222 745.687 103.051 744.366C101.674 742.809 99.6179 743.94 98.4565 745.349C97.2993 746.748 96.4584 748.655 98.355 749.99C100.826 751.726 102.555 752.742 102.555 752.742C101.607 753.127 99.6576 754.018 97.7403 754.912C96.6443 755.431 96.255 755.955 96.0145 756.567C95.5716 757.732 96.2635 758.961 96.7764 759.822C98.3571 762.434 99.9058 762.018 101.015 761.073Z" fill="#FFD465"/>
<path d="M588.493 844.073C589.724 843.027 591.901 840.809 591.939 840.848C591.753 841.463 591.066 842.752 590.317 845.519C590.055 846.477 591.124 848.052 593.589 848.388C595.994 848.71 597.416 847.783 597.479 846.204C597.538 845.056 597.542 843.906 597.478 842.758C597.508 842.915 598.537 844.184 599.915 845.786C601.613 847.763 603.275 846.102 604.353 844.755C605.685 843.09 606.38 841.683 604.178 839.99C604.154 839.968 603.94 839.828 603.515 839.539C602.843 839.083 602.433 838.812 602.134 838.612C601.37 838.115 600.767 837.679 600.374 837.393C600.616 837.423 601.916 836.719 604.627 835.836C605.715 835.259 607.545 834.437 606.333 831.546C605.188 828.852 603.982 828.202 602.71 829.041C600.166 830.718 598.679 831.517 598.637 831.609C599.209 829.56 599.612 828.809 599.985 827.303C600.359 825.797 598.171 824.941 596.404 824.705C594.889 824.649 593.016 824.699 592.861 826.657C592.732 828.261 593.237 830.703 593.027 830.775C592.817 830.848 591.7 828.686 590.528 827.365C589.152 825.809 587.096 826.94 585.934 828.349C584.777 829.748 583.936 831.655 585.833 832.99C588.304 834.725 590.032 835.742 590.032 835.742C589.084 836.127 587.135 837.018 585.218 837.912C584.122 838.43 583.733 838.954 583.492 839.567C583.049 840.732 583.741 841.961 584.254 842.822C585.835 845.434 587.383 845.018 588.493 844.073Z" fill="#FFD465"/>
<path d="M945.06 891.973C946.232 890.977 948.305 888.865 948.341 888.902C948.164 889.487 947.51 890.715 946.797 893.35C946.548 894.262 947.566 895.762 949.913 896.083C952.203 896.388 953.558 895.506 953.617 894.002C953.673 892.909 953.677 891.813 953.617 890.721C953.645 890.871 954.625 892.078 955.937 893.604C957.554 895.487 959.137 893.905 960.164 892.622C961.432 891.036 962.094 889.697 959.997 888.085C959.974 888.064 959.77 887.931 959.366 887.655C958.726 887.221 958.335 886.962 958.051 886.772C957.323 886.299 956.749 885.884 956.375 885.612C956.604 885.64 957.843 884.97 960.424 884.129C961.461 883.579 963.204 882.796 962.049 880.043C960.959 877.478 959.81 876.859 958.599 877.658C956.176 879.255 954.76 880.015 954.721 880.103C955.265 878.152 955.648 877.437 956.004 876.003C956.36 874.568 954.276 873.753 952.593 873.529C951.151 873.475 949.368 873.523 949.22 875.388C949.097 876.915 949.577 879.24 949.378 879.309C949.178 879.378 948.114 877.32 946.998 876.062C945.688 874.58 943.729 875.657 942.623 876.998C941.521 878.331 940.72 880.147 942.527 881.418C944.88 883.071 946.526 884.039 946.526 884.039C945.623 884.406 943.767 885.254 941.941 886.105C940.897 886.599 940.527 887.098 940.298 887.682C939.876 888.791 940.535 889.961 941.023 890.781C942.529 893.269 944.003 892.872 945.06 891.973Z" fill="#FFD465"/>
<path d="M1354.01 866.073C1355.25 865.028 1357.42 862.809 1357.46 862.848C1357.28 863.463 1356.59 864.752 1355.84 867.52C1355.58 868.477 1356.65 870.052 1359.11 870.389C1361.52 870.71 1362.94 869.783 1363 868.204C1363.06 867.056 1363.06 865.906 1363 864.758C1363.03 864.916 1364.06 866.184 1365.44 867.786C1367.14 869.764 1368.8 868.102 1369.88 866.755C1371.21 865.09 1371.9 863.683 1369.7 861.99C1369.68 861.969 1369.46 861.829 1369.04 861.539C1368.37 861.084 1367.96 860.812 1367.66 860.612C1366.89 860.115 1366.29 859.68 1365.9 859.393C1366.14 859.424 1367.44 858.72 1370.15 857.836C1371.24 857.259 1373.07 856.437 1371.86 853.546C1370.71 850.852 1369.5 850.203 1368.23 851.041C1365.69 852.719 1364.2 853.517 1364.16 853.609C1364.73 851.56 1365.13 850.809 1365.51 849.303C1365.88 847.797 1363.69 846.941 1361.93 846.706C1360.41 846.649 1358.54 846.699 1358.38 848.657C1358.25 850.261 1358.76 852.703 1358.55 852.775C1358.34 852.848 1357.22 850.687 1356.05 849.366C1354.67 847.809 1352.62 848.94 1351.46 850.349C1350.3 851.748 1349.46 853.655 1351.35 854.99C1353.83 856.726 1355.55 857.742 1355.55 857.742C1354.61 858.127 1352.66 859.018 1350.74 859.912C1349.64 860.431 1349.26 860.955 1349.01 861.567C1348.57 862.732 1349.26 863.961 1349.78 864.822C1351.36 867.434 1352.91 867.018 1354.01 866.073Z" fill="#FFD465"/>
<path d="M70.3643 275.5C62.8357 277.422 59.5373 286.964 70.3643 290.718C78.2275 292.388 97.7707 293.728 113.699 285.935C114.087 285.745 114.458 285.518 114.777 285.227C115.845 284.257 117.284 282.507 117.418 280.839C118.068 272.751 79.7751 273.097 70.3643 275.5Z" fill="#254E1E" fill-opacity="0.5"/>
<path d="M170.951 247.5C165.071 249.385 162.431 258.601 170.468 262.496C170.783 262.648 171.117 262.764 171.457 262.847C177.994 264.446 192.995 265.519 205.325 258.016C205.723 257.774 206.097 257.488 206.399 257.132C207.239 256.145 208.316 254.454 208.42 252.839C208.938 244.751 178.445 245.097 170.951 247.5Z" fill="#254E1E" fill-opacity="0.5"/>
<path d="M264.31 157.326C266.661 132.788 232.955 35.4545 209.439 18.2782C185.923 1.10187 124.407 162.233 138.5 191.678C152.593 221.124 176.738 226.801 201.993 221.124C228.944 215.065 261.958 181.863 264.31 157.326Z" fill="#598C4F"/>
<path d="M193.045 71.3796H193.688L194.653 253.316H192.08L193.045 71.3796Z" fill="#254E1E"/>
<path d="M190.572 253.841C190.572 255.386 191.825 256.639 193.37 256.639C194.916 256.639 196.168 255.386 196.168 253.841C196.168 252.295 194.916 251.043 193.37 251.043C191.825 251.043 190.572 252.295 190.572 253.841ZM190.572 70.6255C190.572 72.1708 191.825 73.4235 193.37 73.4235C194.916 73.4235 196.168 72.1708 196.168 70.6255C196.168 69.0802 194.916 67.8274 193.37 67.8274C191.825 67.8274 190.572 69.0802 190.572 70.6255ZM225.062 100.889C225.062 102.434 226.315 103.687 227.86 103.687C229.405 103.687 230.658 102.434 230.658 100.889C230.658 99.3434 229.405 98.0907 227.86 98.0907C226.315 98.0907 225.062 99.3434 225.062 100.889ZM210.615 131.561L210.158 131.304L210.615 131.561ZM224.725 136.877L224.54 137.368C224.672 137.418 224.819 137.413 224.947 137.353L224.725 136.877ZM233.293 131.561C233.293 133.106 234.545 134.359 236.091 134.359C237.636 134.359 238.889 133.106 238.889 131.561C238.889 130.016 237.636 128.763 236.091 128.763C234.545 128.763 233.293 130.016 233.293 131.561ZM152.163 146.693C152.163 148.238 153.416 149.491 154.961 149.491C156.506 149.491 157.759 148.238 157.759 146.693C157.759 145.147 156.506 143.894 154.961 143.894C153.416 143.894 152.163 145.147 152.163 146.693ZM165.151 184.317V184.842C165.336 184.842 165.507 184.744 165.602 184.586L165.151 184.317ZM154.906 184.317C154.906 185.862 156.159 187.115 157.704 187.115C159.25 187.115 160.502 185.862 160.502 184.317C160.502 182.772 159.25 181.519 157.704 181.519C156.159 181.519 154.906 182.772 154.906 184.317ZM177.693 124.609L177.174 124.686C177.186 124.767 177.217 124.845 177.265 124.912L177.693 124.609ZM171.368 100.889C171.368 102.434 172.62 103.687 174.166 103.687C175.711 103.687 176.964 102.434 176.964 100.889C176.964 99.3434 175.711 98.0907 174.166 98.0907C172.62 98.0907 171.368 99.3434 171.368 100.889ZM203.506 84.5302C203.506 86.0755 204.759 87.3283 206.304 87.3283C207.849 87.3283 209.102 86.0755 209.102 84.5302C209.102 82.9849 207.849 81.7322 206.304 81.7322C204.759 81.7322 203.506 82.9849 203.506 84.5302ZM179.206 77.1689C179.206 78.7142 180.459 79.9669 182.004 79.9669C183.55 79.9669 184.802 78.7142 184.802 77.1689C184.802 75.6236 183.55 74.3708 182.004 74.3708C180.459 74.3708 179.206 75.6236 179.206 77.1689ZM193.828 162.49L211.072 131.818L210.158 131.304L192.913 161.976L193.828 162.49ZM211.072 131.818L228.317 101.146L227.403 100.632L210.158 131.304L211.072 131.818ZM210.43 132.052L224.54 137.368L224.91 136.386L210.8 131.07L210.43 132.052ZM224.947 137.353L236.313 132.036L235.868 131.086L224.502 136.402L224.947 137.353ZM193.895 191.678V162.233H192.846V191.678H193.895ZM193.769 191.338L174.565 168.845L173.767 169.526L192.971 192.019L193.769 191.338ZM174.565 168.845L155.36 146.352L154.562 147.033L173.767 169.526L174.565 168.845ZM173.715 168.917L164.7 184.049L165.602 184.586L174.616 169.454L173.715 168.917ZM165.151 183.792H157.704V184.842H165.151V183.792ZM193.895 162.233V146.693H192.846V162.233H193.895ZM193.798 146.389L178.121 124.305L177.265 124.912L192.942 146.996L193.798 146.389ZM178.212 124.531L174.684 100.812L173.647 100.966L177.174 124.686L178.212 124.531ZM193.895 146.693V108.659H192.846V146.693H193.895ZM193.833 108.907L206.766 84.7781L205.842 84.2824L192.908 108.411L193.833 108.907ZM193.895 108.659V89.6422H192.846V108.659H193.895ZM193.895 89.6422V70.6255H192.846V89.6422H193.895ZM193.758 89.2889L182.392 76.8155L181.616 77.5222L192.982 89.9956L193.758 89.2889ZM193.895 253.841V222.76H192.846V253.841H193.895ZM193.895 222.76V191.678H192.846V222.76H193.895Z" fill="#254E1E"/>
<path d="M167.31 230.559C169.661 217.522 135.955 165.806 112.439 156.679C88.9234 147.553 27.4066 233.167 41.4996 248.812C55.5927 264.457 79.7382 267.474 104.993 264.457C131.944 261.238 164.958 243.597 167.31 230.559Z" fill="#5F9854"/>
<path d="M96.0447 184.894H96.6881L97.6532 281.562H95.0796L96.0447 184.894Z" fill="#254E1E"/>
<path d="M93.5722 281.841C93.5722 283.386 94.8249 284.639 96.3702 284.639C97.9155 284.639 99.1682 283.386 99.1682 281.841C99.1682 280.295 97.9155 279.043 96.3702 279.043C94.8249 279.043 93.5722 280.295 93.5722 281.841ZM93.5722 184.493C93.5722 186.038 94.8249 187.291 96.3702 187.291C97.9155 187.291 99.1682 186.038 99.1682 184.493C99.1682 182.948 97.9155 181.695 96.3702 181.695C94.8249 181.695 93.5722 182.948 93.5722 184.493ZM128.062 200.573C128.062 202.118 129.315 203.371 130.86 203.371C132.405 203.371 133.658 202.118 133.658 200.573C133.658 199.027 132.405 197.775 130.86 197.775C129.315 197.775 128.062 199.027 128.062 200.573ZM113.615 216.87L113.255 216.488L113.615 216.87ZM127.725 219.695L127.622 220.209C127.698 220.224 127.776 220.222 127.851 220.204L127.725 219.695ZM136.293 216.87C136.293 218.415 137.545 219.668 139.091 219.668C140.636 219.668 141.889 218.415 141.889 216.87C141.889 215.324 140.636 214.072 139.091 214.072C137.545 214.072 136.293 215.324 136.293 216.87ZM55.1629 224.91C55.1629 226.455 56.4156 227.708 57.9609 227.708C59.5063 227.708 60.759 226.455 60.759 224.91C60.759 223.364 59.5063 222.112 57.9609 222.112C56.4156 222.112 55.1629 223.364 55.1629 224.91ZM68.1512 244.901V245.425C68.2799 245.425 68.4042 245.378 68.5004 245.292L68.1512 244.901ZM57.9064 244.901C57.9064 246.446 59.1591 247.699 60.7045 247.699C62.2498 247.699 63.5025 246.446 63.5025 244.901C63.5025 243.355 62.2498 242.103 60.7045 242.103C59.1591 242.103 57.9064 243.355 57.9064 244.901ZM80.693 213.176L80.1877 213.317C80.2189 213.429 80.286 213.526 80.3786 213.596L80.693 213.176ZM74.3675 200.573C74.3675 202.118 75.6203 203.371 77.1656 203.371C78.7109 203.371 79.9636 202.118 79.9636 200.573C79.9636 199.027 78.7109 197.775 77.1656 197.775C75.6203 197.775 74.3675 199.027 74.3675 200.573ZM106.506 191.881C106.506 193.426 107.759 194.679 109.304 194.679C110.849 194.679 112.102 193.426 112.102 191.881C112.102 190.336 110.849 189.083 109.304 189.083C107.759 189.083 106.506 190.336 106.506 191.881ZM82.2062 187.97C82.2062 189.515 83.4589 190.768 85.0042 190.768C86.5495 190.768 87.8022 189.515 87.8022 187.97C87.8022 186.424 86.5495 185.172 85.0042 185.172C83.4589 185.172 82.2062 186.424 82.2062 187.97ZM96.7305 233.548L113.976 217.251L113.255 216.488L96.0099 232.786L96.7305 233.548ZM113.976 217.251L131.221 200.954L130.5 200.191L113.255 216.488L113.976 217.251ZM113.512 217.384L127.622 220.209L127.828 219.18L113.718 216.355L113.512 217.384ZM127.851 220.204L139.217 217.379L138.964 216.361L127.598 219.185L127.851 220.204ZM96.8948 248.812V233.167H95.8456V248.812H96.8948ZM96.6474 248.367L77.4428 236.415L76.8884 237.306L96.093 249.257L96.6474 248.367ZM77.4428 236.415L58.2381 224.464L57.6837 225.355L76.8884 237.306L77.4428 236.415ZM76.8164 236.469L67.8019 244.509L68.5004 245.292L77.5148 237.252L76.8164 236.469ZM68.1512 244.376H60.7045V245.425H68.1512V244.376ZM96.8948 233.167V224.91H95.8456V233.167H96.8948ZM96.6846 224.49L81.0073 212.756L80.3786 213.596L96.0558 225.33L96.6846 224.49ZM81.1982 213.034L77.6708 200.431L76.6604 200.714L80.1877 213.317L81.1982 213.034ZM96.8948 224.91V204.701H95.8456V224.91H96.8948ZM96.7395 205.074L109.673 192.254L108.935 191.508L96.0009 204.329L96.7395 205.074ZM96.8948 204.701V194.597H95.8456V204.701H96.8948ZM96.8948 194.597V184.493H95.8456V194.597H96.8948ZM96.6345 194.144L85.2685 187.516L84.7399 188.423L96.1059 195.05L96.6345 194.144ZM96.8948 281.841V265.326H95.8456V281.841H96.8948ZM96.8948 265.326V248.812H95.8456V265.326H96.8948Z" fill="#254E1E"/>
<path d="M1306.7 607.333C1295.55 610.323 1290.66 625.166 1306.7 631.005C1318.4 633.614 1347.53 635.705 1371.18 623.423C1371.57 623.22 1371.94 622.98 1372.27 622.683C1373.86 621.228 1376.21 618.363 1376.41 615.639C1377.38 603.057 1320.65 603.595 1306.7 607.333Z" fill="#254E1E" fill-opacity="0.5"/>
<path d="M1453.24 500.342C1456.9 470.73 1404.5 353.271 1367.94 332.542C1331.38 311.814 1235.74 506.264 1257.65 541.798C1279.56 577.332 1317.1 584.183 1356.36 577.332C1398.26 570.021 1449.59 529.954 1453.24 500.342Z" fill="#598C4F"/>
<path d="M1342.45 396.624H1343.45L1344.95 616.182H1340.95L1342.45 396.624Z" fill="#254E1E"/>
<path d="M1338.61 616.815C1338.61 619.217 1340.55 621.165 1342.96 621.165C1345.36 621.165 1347.31 619.217 1347.31 616.815C1347.31 614.412 1345.36 612.465 1342.96 612.465C1340.55 612.465 1338.61 614.412 1338.61 616.815ZM1338.61 395.714C1338.61 398.117 1340.55 400.064 1342.96 400.064C1345.36 400.064 1347.31 398.117 1347.31 395.714C1347.31 393.312 1345.36 391.364 1342.96 391.364C1340.55 391.364 1338.61 393.312 1338.61 395.714ZM1392.23 432.235C1392.23 434.638 1394.17 436.586 1396.58 436.586C1398.98 436.586 1400.93 434.638 1400.93 432.235C1400.93 429.833 1398.98 427.885 1396.58 427.885C1394.17 427.885 1392.23 429.833 1392.23 432.235ZM1369.77 469.25L1369.11 468.772L1369.77 469.25ZM1391.7 475.666L1391.47 476.449C1391.64 476.497 1391.82 476.492 1391.98 476.433L1391.7 475.666ZM1405.02 469.25C1405.02 471.653 1406.97 473.6 1409.37 473.6C1411.78 473.6 1413.72 471.653 1413.72 469.25C1413.72 466.848 1411.78 464.9 1409.37 464.9C1406.97 464.9 1405.02 466.848 1405.02 469.25ZM1278.89 487.511C1278.89 489.913 1280.84 491.861 1283.24 491.861C1285.64 491.861 1287.59 489.913 1287.59 487.511C1287.59 485.108 1285.64 483.161 1283.24 483.161C1280.84 483.161 1278.89 485.108 1278.89 487.511ZM1299.08 532.915V533.731C1299.34 533.731 1299.58 533.613 1299.73 533.412L1299.08 532.915ZM1283.16 532.915C1283.16 535.318 1285.1 537.265 1287.51 537.265C1289.91 537.265 1291.86 535.318 1291.86 532.915C1291.86 530.513 1289.91 528.565 1287.51 528.565C1285.1 528.565 1283.16 530.513 1283.16 532.915ZM1318.58 460.86L1317.78 461.014C1317.81 461.162 1317.88 461.299 1317.98 461.411L1318.58 460.86ZM1308.75 432.235C1308.75 434.638 1310.7 436.586 1313.1 436.586C1315.5 436.586 1317.45 434.638 1317.45 432.235C1317.45 429.833 1315.5 427.885 1313.1 427.885C1310.7 427.885 1308.75 429.833 1308.75 432.235ZM1358.71 412.494C1358.71 414.897 1360.66 416.844 1363.06 416.844C1365.47 416.844 1367.41 414.897 1367.41 412.494C1367.41 410.092 1365.47 408.144 1363.06 408.144C1360.66 408.144 1358.71 410.092 1358.71 412.494ZM1320.94 403.611C1320.94 406.013 1322.88 407.961 1325.29 407.961C1327.69 407.961 1329.64 406.013 1329.64 403.611C1329.64 401.208 1327.69 399.261 1325.29 399.261C1322.88 399.261 1320.94 401.208 1320.94 403.611ZM1343.62 506.743L1370.43 469.729L1369.11 468.772L1342.3 505.786L1343.62 506.743ZM1370.43 469.729L1397.24 432.714L1395.92 431.757L1369.11 468.772L1370.43 469.729ZM1369.54 470.033L1391.47 476.449L1391.93 474.883L1370 468.467L1369.54 470.033ZM1391.98 476.433L1409.65 470.017L1409.09 468.483L1391.42 474.899L1391.98 476.433ZM1343.77 541.799V506.265H1342.14V541.799H1343.77ZM1343.5 541.195L1313.65 514.051L1312.55 515.258L1342.41 542.402L1343.5 541.195ZM1313.65 514.051L1283.79 486.907L1282.69 488.114L1312.55 515.258L1313.65 514.051ZM1312.45 514.158L1298.44 532.419L1299.73 533.412L1313.75 515.151L1312.45 514.158ZM1299.08 532.1H1287.51V533.731H1299.08V532.1ZM1343.77 506.265V487.511H1342.14V506.265H1343.77ZM1343.56 486.96L1319.18 460.31L1317.98 461.411L1342.35 488.061L1343.56 486.96ZM1319.38 460.707L1313.9 432.082L1312.3 432.389L1317.78 461.014L1319.38 460.707ZM1343.77 487.511V441.612H1342.14V487.511H1343.77ZM1343.63 442.076L1363.74 412.958L1362.39 412.031L1342.28 441.149L1343.63 442.076ZM1343.77 441.612V418.663H1342.14V441.612H1343.77ZM1343.77 418.663V395.714H1342.14V418.663H1343.77ZM1343.49 418.043L1325.81 402.99L1324.76 404.232L1342.43 419.284L1343.49 418.043ZM1343.77 616.815V579.307H1342.14V616.815H1343.77ZM1343.77 579.307V541.799H1342.14V579.307H1343.77Z" fill="#254E1E"/>
</svg>
