<svg width="1440" height="1111" viewBox="0 0 1440 1111" fill="none" xmlns="http://www.w3.org/2000/svg">
<path d="M1579.04 370.594C1093.12 9.37939 285.045 -87.4056 -60.9553 78.5942C-406.955 244.594 -101.509 1111 -101.509 1111L1579.04 1076C1579.04 1076 2064.97 731.808 1579.04 370.594Z" fill="#8BC081"/>
<path d="M1006.55 491.787C1096.15 384.624 1248.01 273.494 1323.29 220.817C1323.29 220.817 1342.29 230.817 1375.79 246.317C1409.29 261.817 1440.54 276.928 1439.29 277.817C1313.75 367.157 1215.5 469.217 1139.82 588.928C1081.81 680.682 994.016 895.294 966.86 947.072C878.446 958.866 704.303 964.586 715.041 893.113C756.709 797.442 918.222 597.419 1006.55 491.787Z" fill="#DBC8BB" stroke="#254E1E" stroke-width="3"/>
<g filter="url(#filter0_d_103_1554)">
<path d="M1262.79 371.576C1254.84 368.987 1251.39 363.408 1250.65 360.942L1248.23 347.765L1251.8 351.117L1255.16 347.765V353.313C1255.07 357.197 1256.66 357.243 1257.47 356.781C1261.08 356.781 1267.99 353.775 1271 352.273C1277.01 351.671 1281.21 352.385 1283.94 353.5C1286.65 354.613 1287.89 356.126 1287.99 357.128C1289.93 360.549 1289.03 365.489 1288.34 367.531L1287.38 369.775C1287.18 370.107 1286.95 370.402 1286.72 370.652C1278.03 375.368 1267.14 373.233 1262.79 371.576Z" fill="#C6AC9A"/>
<path d="M1225.69 355.394C1225.42 363.254 1219.68 377.795 1198.87 373.079C1194.67 372.42 1191.73 370.069 1190.79 368.976C1190.03 367.973 1189.29 366.796 1188.69 365.566C1187.02 362.838 1187.43 360.191 1187.85 359.208C1189.28 355.895 1197.18 347.372 1206.15 350.423L1213.95 353.255L1221.76 356.087V346.782L1224.06 350.423L1227.47 347.765L1225.69 355.394Z" fill="#C6AC9A"/>
<path d="M1287.99 357.128C1289.93 360.549 1289.03 365.489 1288.34 367.531L1287.38 369.775C1287.18 370.107 1286.95 370.402 1286.72 370.652C1278.03 375.368 1267.14 373.233 1262.79 371.576C1254.84 368.987 1251.39 363.408 1250.65 360.942L1248.23 347.765L1251.8 351.117L1255.16 347.765V353.313C1255.07 357.197 1256.66 357.243 1257.47 356.781C1261.08 356.781 1267.99 353.775 1271 352.273C1277.01 351.671 1281.21 352.385 1283.94 353.5M1287.99 357.128C1287.85 356.863 1287.65 356.566 1287.38 356.261C1287.16 355.75 1286.15 354.482 1283.94 353.5M1287.99 357.128C1287.89 356.126 1286.65 354.613 1283.94 353.5M1190.79 368.976C1190.03 367.973 1189.29 366.796 1188.69 365.566M1190.79 368.976L1188.69 365.566M1190.79 368.976C1191.73 370.069 1194.67 372.42 1198.87 373.079C1219.68 377.795 1225.42 363.254 1225.69 355.394L1227.47 347.765L1224.06 350.423L1221.76 346.782V356.087L1213.95 353.255L1206.15 350.423C1197.18 347.372 1189.28 355.895 1187.85 359.208C1187.43 360.191 1187.02 362.838 1188.69 365.566" stroke="#254E1E" stroke-width="2.3967" stroke-linecap="round" stroke-linejoin="round"/>
<path d="M1246.24 336.85L1255.14 334.192V347.6L1251.78 350.952L1248.22 347.6L1246.24 336.85Z" fill="#78A4B7"/>
<path d="M1229.85 337.313H1221.74V346.618L1224.04 350.259L1227.45 347.6L1229.85 337.313Z" fill="#78A4B7"/>
<path d="M1246.24 336.85L1255.14 334.192V347.6L1251.78 350.952L1248.22 347.6L1246.24 336.85Z" stroke="#254E1E" stroke-width="2.3967"/>
<path d="M1229.85 337.313H1221.74V346.618L1224.04 350.259L1227.45 347.6L1229.85 337.313Z" stroke="#254E1E" stroke-width="2.3967"/>
<path d="M1257.96 268.767C1255.37 262.294 1250.64 260.367 1248.6 260.213H1216.12C1196.51 272.975 1192.61 279.71 1193.11 281.482C1194.22 289.435 1200.59 292.656 1203.63 293.272C1204.79 291.731 1208 289.111 1211.61 290.961C1211.79 283.193 1206.98 280.789 1204.56 280.557C1211.95 280.188 1216.12 275.857 1217.27 273.738C1215.56 280.48 1214.17 286.613 1213.03 292.117C1219.37 286.992 1237.64 279.586 1259.98 290.961C1257.65 283.103 1255.1 276.106 1253.22 271.541C1256.92 279.032 1259.62 286.992 1260.5 290.036C1262.01 294.488 1263.31 298.919 1264.12 301.826C1264.75 300.194 1267.29 299.374 1268.48 299.168L1257.96 268.767Z" fill="#78A4B7" stroke="#254E1E" stroke-width="2.3967"/>
<path d="M1268.53 299.376C1269.72 299.492 1271.86 300.416 1270.84 303.191L1271.88 303.975L1277.43 308.161C1278.24 308.701 1280.53 309.941 1283.21 310.589C1284.06 312.13 1284.92 314.981 1281.59 314.056C1280.07 313.812 1277.48 313.157 1276.04 312.115C1277.28 313.581 1279.41 315.276 1282.4 315.675C1282.94 317.062 1282.7 319.558 1277.43 318.449C1276.84 318.069 1276.06 317.532 1275.28 316.922L1277.43 319.605C1277.2 320.375 1276 321.87 1273.04 321.685C1270.49 319.181 1265.29 312.23 1264.83 304.462C1264.68 303.883 1264.46 303.052 1264.17 302.035C1264.8 300.403 1267.34 299.582 1268.53 299.376Z" fill="#E2D1B7"/>
<path d="M1265.87 328.39C1263.45 330.572 1260.26 332.959 1256.94 334.703C1249.11 338.81 1240.52 339.353 1239.28 325.269L1238.15 308.807C1238.6 316.854 1238.26 331.188 1233.85 337.29C1233.28 337.468 1232.63 337.626 1231.91 337.752C1229.91 338.102 1227.42 338.2 1224.75 337.752C1219.19 336.822 1212.84 333.538 1208.54 325.269C1208.49 322.239 1209.02 315.08 1210.88 304.075C1210.38 306.166 1209.64 307.74 1208.54 308.161C1205.22 309.24 1198.5 310.195 1198.13 305.387C1197.59 303.73 1197.12 300.509 1199.52 300.879C1198.98 299.106 1199.06 295.77 1203.68 296.602C1203.37 295.947 1202.94 294.406 1203.68 293.481C1204.84 291.94 1208.05 289.32 1211.66 291.169C1211.74 292.648 1211.77 294.576 1211.71 296.602C1211.66 298.141 1211.55 299.737 1211.37 301.237C1211.86 298.479 1212.43 295.507 1213.08 292.325C1219.43 287.201 1237.69 279.795 1260.03 291.169C1263.68 303.475 1266.77 317.893 1265.87 328.39Z" fill="#E2D1B7"/>
<path d="M1257.2 334.631L1248.3 337.059M1276.04 312.115C1277.48 313.157 1280.07 313.812 1281.59 314.056C1284.92 314.981 1284.06 312.13 1283.21 310.589C1280.53 309.941 1278.24 308.701 1277.43 308.161L1271.88 303.975M1276.04 312.115C1275.43 311.675 1275.03 311.165 1275 310.589C1275.21 311.001 1275.55 311.54 1276.04 312.115ZM1276.04 312.115C1277.28 313.581 1279.41 315.276 1282.4 315.675C1282.94 317.062 1282.7 319.558 1277.43 318.449C1276.84 318.069 1276.06 317.532 1275.28 316.922M1275.28 316.922C1273.53 315.554 1271.75 313.82 1271.88 312.669L1275.28 316.922ZM1275.28 316.922L1277.43 319.605C1277.2 320.375 1276 321.87 1273.04 321.685C1270.49 319.181 1265.29 312.23 1264.83 304.462M1264.83 304.462C1266.14 303.515 1269.38 302.092 1271.88 303.975M1264.83 304.462C1264.68 303.883 1264.46 303.052 1264.17 302.035M1260.55 290.244C1262.06 294.697 1263.36 299.128 1264.17 302.035M1238.15 308.807L1239.28 325.269C1241.04 345.335 1257.74 335.71 1265.87 328.39C1266.77 317.893 1263.68 303.475 1260.03 291.169C1237.69 279.795 1219.43 287.201 1213.08 292.325C1212.43 295.507 1211.86 298.479 1211.37 301.237M1238.15 308.807L1238.01 306.774C1238.06 307.392 1238.11 308.074 1238.15 308.807ZM1238.15 308.807C1238.6 316.854 1238.26 331.188 1233.85 337.29C1233.28 337.468 1232.63 337.626 1231.91 337.752C1225.78 338.829 1214.91 337.52 1208.54 325.269C1208.49 322.239 1209.02 315.08 1210.88 304.075M1210.88 304.075C1211.03 303.156 1211.19 302.209 1211.37 301.237M1210.88 304.075C1211.08 303.203 1211.24 302.242 1211.37 301.237M1210.88 304.075C1210.38 306.166 1209.64 307.74 1208.54 308.161C1205.22 309.24 1198.5 310.195 1198.13 305.387C1197.59 303.73 1197.12 300.509 1199.52 300.879C1198.98 299.106 1199.06 295.77 1203.68 296.602M1211.37 301.237C1211.55 299.737 1211.66 298.141 1211.71 296.602M1203.68 296.602C1203.37 295.947 1202.94 294.406 1203.68 293.481C1204.84 291.94 1208.05 289.32 1211.66 291.169C1211.74 292.648 1211.77 294.576 1211.71 296.602M1203.68 296.602C1205.37 295.057 1209.34 292.894 1211.71 296.602M1223.79 337.752H1231.89M1271.88 303.975L1270.84 303.191C1271.86 300.416 1269.72 299.492 1268.53 299.376C1267.34 299.582 1264.8 300.403 1264.17 302.035" stroke="#254E1E" stroke-width="2.3967" stroke-linecap="round" stroke-linejoin="round"/>
<path d="M1260.73 292.407C1240.24 278.866 1220.23 286.765 1212.79 292.407C1209.08 312.659 1187.84 321.031 1187.99 323.578C1192.19 331.966 1220.63 337.245 1224.03 337.945C1227.98 338.544 1234.21 338.926 1235.91 338.427L1247.1 337.196C1251.53 337.196 1256.13 335.398 1257.88 334.499C1259.56 333.421 1272.12 329.177 1274.17 327.579C1265.24 320.5 1262.93 300.895 1260.73 292.407Z" fill="#FFD465" stroke="#254E1E" stroke-width="2.3967"/>
<path d="M1262.44 169.412C1237.67 158.468 1220.3 164.852 1213.77 169.412C1206.51 155.242 1198.36 159.38 1194.76 163.22C1190.27 170.824 1195.05 176.373 1199.37 178.197C1191.3 183.727 1191.88 201.094 1192.02 206.422C1192.17 211.75 1182.76 216.935 1179.64 217.655C1174.91 238.161 1185.93 249.144 1192.02 252.072C1205.04 260.137 1225.29 262.585 1229.03 262.873C1232.78 263.161 1239.83 258.553 1239.83 258.553C1239.83 258.553 1244.73 262.873 1251.35 262.873C1257.98 262.873 1278.67 255.481 1282.89 252.072C1295.79 241.013 1294.7 224.519 1292.54 217.655C1286.89 216.387 1285.19 209.014 1284.33 206.422C1283.47 203.83 1282.55 181.365 1277.99 177.765C1285.83 171.889 1280.35 165.764 1277.99 163.22C1267.74 157.114 1263.35 164.804 1262.44 169.412Z" fill="#78A4B7" stroke="#254E1E" stroke-width="2.3967" stroke-linejoin="round"/>
<path d="M1265.87 175.558C1239.87 164.988 1238.74 196.144 1238.51 191.211C1238.27 186.279 1229.79 164.048 1208.24 175.558C1186.69 187.068 1202.66 217.285 1202.66 217.285C1202.66 217.285 1184.63 213.996 1184.39 229.734C1184.16 245.472 1205.48 242.268 1205.48 242.268C1205.48 242.268 1204.62 253.23 1210.4 254.952H1260.29C1269.85 254.765 1267.98 242.268 1267.98 242.268C1267.98 242.268 1288.4 247.116 1287.47 230.909C1286.53 214.701 1269.9 219.164 1269.9 219.164C1269.9 219.164 1291.87 186.128 1265.87 175.558Z" fill="#E2D1B7" stroke="#254E1E" stroke-width="2.3967"/>
<path d="M1242.77 242.203C1242.46 242.844 1237.2 242.203 1237.2 242.203C1237.2 242.203 1232.98 242.844 1232.08 242.203C1231.18 241.563 1228.32 236.439 1228.32 236.439H1237.2H1245.02C1245.02 236.439 1243.07 241.563 1242.77 242.203Z" fill="white"/>
<path d="M1237.2 242.203C1237.2 242.203 1242.46 242.844 1242.77 242.203C1243.07 241.563 1245.02 236.439 1245.02 236.439H1237.2M1237.2 242.203C1237.2 242.203 1232.98 242.844 1232.08 242.203C1231.18 241.563 1228.32 236.439 1228.32 236.439H1237.2M1237.2 242.203V239.385V236.439" stroke="#254E1E" stroke-width="2.3967"/>
<path d="M1216.36 231.767C1217.07 232.882 1222.12 235.655 1227.88 235.655C1233.64 235.655 1238.54 235.655 1243.43 235.655C1248.33 235.655 1253.31 235.223 1257.11 231.767" stroke="#254E1E" stroke-width="2.3967" stroke-linecap="round"/>
<path d="M1224.38 209.297C1220.43 201.221 1216.62 205.932 1215.21 209.297L1221.08 213.523L1216.15 217.279C1219.91 227.609 1223.2 221.583 1224.38 217.279C1225.51 213.523 1224.85 210.393 1224.38 209.297Z" fill="#254E1E" stroke="#254E1E" stroke-width="2.3967"/>
<path d="M1256.35 209.297C1252.4 201.221 1248.59 205.932 1247.18 209.297L1253.05 213.523L1248.12 217.279C1251.88 227.609 1255.17 221.583 1256.35 217.279C1257.47 213.523 1256.82 210.393 1256.35 209.297Z" fill="#254E1E" stroke="#254E1E" stroke-width="2.3967"/>
<path d="M1241.37 222.983C1241.37 223.778 1240.93 224.602 1240.01 225.272C1239.09 225.942 1237.76 226.393 1236.23 226.393C1234.71 226.393 1233.38 225.942 1232.46 225.272C1231.53 224.602 1231.09 223.778 1231.09 222.983C1231.09 222.188 1231.53 221.364 1232.46 220.694C1233.38 220.024 1234.71 219.573 1236.23 219.573C1237.76 219.573 1239.09 220.024 1240.01 220.694C1240.93 221.364 1241.37 222.188 1241.37 222.983Z" fill="#78A4B7" stroke="#254E1E" stroke-width="2.3967"/>
<path d="M1262.31 162.071L1262.32 162.069L1262.32 162.069C1262.37 162.026 1262.42 161.98 1262.48 161.928C1262.69 161.749 1262.97 161.511 1263.37 161.172L1263.37 161.171C1263.51 161.054 1263.62 160.963 1263.7 160.894C1263.72 160.883 1263.73 160.873 1263.74 160.863C1263.78 160.828 1263.82 160.798 1263.85 160.775C1263.86 160.764 1263.87 160.751 1263.89 160.739L1263.89 160.739C1263.89 160.736 1263.91 160.722 1263.94 160.703C1264.99 159.924 1266.03 159.621 1267.03 160.002C1267.93 160.338 1268.57 161.147 1269.08 161.855L1269.08 161.855C1269.49 162.436 1270.07 163.318 1270.2 164.249C1270.27 164.747 1270.21 165.297 1269.92 165.818C1269.62 166.333 1269.14 166.724 1268.53 167.009C1268.34 167.095 1268.16 167.178 1267.99 167.259C1268.06 167.284 1268.14 167.31 1268.22 167.336C1269.13 167.635 1269.78 168.311 1270.02 169.241C1270.25 170.126 1270.08 171.144 1269.64 172.181L1269.63 172.184C1269.15 173.289 1268.44 174.057 1267.67 174.477C1266.93 174.877 1266.01 175.009 1265.28 174.569C1265.28 174.568 1265.28 174.568 1265.28 174.568L1265.75 173.778C1265.09 173.379 1264.55 173.022 1264.11 172.711L1262.31 162.071ZM1262.31 162.071C1262.26 161.545 1262.21 160.896 1262.18 160.117C1262.18 160.064 1262.17 160.011 1262.16 159.959C1262.16 159.922 1262.15 159.882 1262.14 159.838C1262.04 159.377 1261.88 158.552 1261.34 157.905C1260.67 157.096 1259.61 156.718 1258.11 156.901L1258.11 156.901L1258.1 156.902C1256.86 157.059 1255.82 157.366 1255.16 157.946C1254.8 158.255 1254.55 158.644 1254.44 159.106C1254.33 159.558 1254.39 160.008 1254.52 160.423C1254.68 160.935 1254.82 161.4 1254.94 161.814C1254.62 161.591 1254.27 161.368 1253.85 161.126C1253.35 160.837 1252.81 160.793 1252.31 160.932C1251.83 161.063 1251.44 161.343 1251.12 161.642C1250.49 162.237 1249.98 163.088 1249.66 163.833C1249.65 163.86 1249.64 163.887 1249.63 163.915C1249.44 164.499 1249.18 165.34 1249.24 166.144C1249.28 166.569 1249.4 167.021 1249.7 167.43C1249.99 167.842 1250.42 168.143 1250.94 168.337C1251.07 168.384 1251.2 168.428 1251.34 168.469C1251.19 168.532 1251.04 168.596 1250.9 168.664C1250.35 168.929 1249.93 169.318 1249.67 169.804C1249.41 170.28 1249.33 170.797 1249.34 171.284C1249.37 172.237 1249.79 173.193 1250.28 173.914C1250.75 174.586 1251.41 175.337 1252.27 175.719C1252.72 175.917 1253.22 176.02 1253.77 175.946C1254.31 175.871 1254.83 175.629 1255.31 175.239L1255.31 175.238C1256.06 174.633 1256.69 174.09 1257.2 173.648M1262.31 162.071L1257.2 173.648M1265.03 174.524C1265 174.475 1264.98 174.424 1264.96 174.372L1265.03 174.525C1265.03 174.524 1265.03 174.524 1265.03 174.524ZM1265.03 174.524C1265.32 175.177 1265.56 176.089 1265.15 176.996C1264.75 177.912 1263.82 178.531 1262.47 178.9L1262.46 178.902L1262.46 178.902C1262.06 179.009 1261.49 179.158 1260.88 179.181C1260.27 179.203 1259.54 179.1 1258.9 178.622L1258.89 178.616L1258.89 178.616C1258.61 178.396 1258.32 178.119 1258.09 177.715C1257.86 177.32 1257.71 176.851 1257.61 176.28L1257.61 176.275C1257.46 175.368 1257.32 174.445 1257.2 173.648M1265.03 174.524L1257.2 173.648" fill="#FFD465" stroke="#254E1E" stroke-width="1.84658" stroke-linecap="round" stroke-linejoin="round"/>
</g>
<defs>
<filter id="filter0_d_103_1554" x="1174.83" y="155.933" width="120.231" height="221.727" filterUnits="userSpaceOnUse" color-interpolation-filters="sRGB">
<feFlood flood-opacity="0" result="BackgroundImageFix"/>
<feColorMatrix in="SourceAlpha" type="matrix" values="0 0 0 0 0 0 0 0 0 0 0 0 0 0 0 0 0 0 127 0" result="hardAlpha"/>
<feOffset dx="-2.46211" dy="2.46211"/>
<feComposite in2="hardAlpha" operator="out"/>
<feColorMatrix type="matrix" values="0 0 0 0 0.145098 0 0 0 0 0.305882 0 0 0 0 0.117647 0 0 0 1 0"/>
<feBlend mode="normal" in2="BackgroundImageFix" result="effect1_dropShadow_103_1554"/>
<feBlend mode="normal" in="SourceGraphic" in2="effect1_dropShadow_103_1554" result="shape"/>
</filter>
</defs>
</svg>
