<svg width="1440" height="1241" viewBox="0 0 1440 1241" fill="none" xmlns="http://www.w3.org/2000/svg">
<path d="M1559.55 370.594C1073.63 9.37939 265.553 -87.4056 -80.4465 78.5942C-426.447 244.594 -121 1241 -121 1241L1559.55 1206C1559.55 1206 2045.48 731.808 1559.55 370.594Z" fill="#77B06D"/>
<path d="M52.6538 711.456C53.6923 710.574 55.5277 708.704 55.5597 708.737C55.4028 709.255 54.8238 710.342 54.1922 712.676C53.9715 713.483 54.8731 714.811 56.9511 715.095C58.9789 715.366 60.1783 714.584 60.2311 713.253C60.2807 712.285 60.2843 711.315 60.2308 710.347C60.2556 710.48 61.1231 711.55 62.2853 712.9C63.7171 714.568 65.1186 713.167 66.0276 712.031C67.1502 710.627 67.7363 709.441 65.8796 708.013C65.8598 707.995 65.679 707.877 65.3209 707.633C64.7544 707.249 64.4084 707.019 64.1567 706.851C63.5123 706.432 63.0038 706.065 62.6725 705.823C62.876 705.849 63.9728 705.255 66.2581 704.511C67.1762 704.024 68.7192 703.331 67.6969 700.893C66.7313 698.621 65.7148 698.074 64.642 698.781C62.4965 700.195 61.2429 700.868 61.2081 700.946C61.6904 699.219 62.0294 698.585 62.3446 697.315C62.6598 696.045 60.8147 695.324 59.3246 695.125C58.0472 695.078 56.4682 695.119 56.3377 696.771C56.2285 698.123 56.654 700.182 56.4772 700.243C56.3004 700.304 55.3582 698.482 54.3705 697.368C53.2099 696.055 51.4759 697.009 50.4966 698.197C49.5208 699.377 48.8117 700.985 50.4109 702.111C52.4944 703.574 53.9521 704.431 53.9521 704.431C53.1529 704.756 51.5093 705.507 49.8926 706.261C48.9685 706.698 48.6403 707.14 48.4374 707.657C48.064 708.639 48.6474 709.675 49.0799 710.401C50.4127 712.603 51.7186 712.252 52.6538 711.456Z" fill="#FFD465"/>
<path d="M259.077 937.073C260.309 936.028 262.485 933.81 262.523 933.849C262.337 934.464 261.651 935.753 260.902 938.52C260.64 939.478 261.709 941.053 264.174 941.389C266.578 941.71 268.001 940.784 268.063 939.205C268.122 938.057 268.127 936.906 268.063 935.759C268.093 935.916 269.121 937.185 270.5 938.787C272.198 940.764 273.86 939.102 274.938 937.756C276.269 936.091 276.964 934.684 274.762 932.991C274.739 932.969 274.524 932.829 274.1 932.54C273.428 932.084 273.017 931.812 272.719 931.612C271.955 931.116 271.352 930.68 270.959 930.394C271.2 930.424 272.501 929.72 275.211 928.837C276.3 928.26 278.13 927.438 276.917 924.547C275.772 921.853 274.567 921.203 273.295 922.042C270.75 923.719 269.263 924.517 269.222 924.61C269.794 922.561 270.196 921.81 270.57 920.304C270.944 918.798 268.756 917.942 266.988 917.706C265.473 917.65 263.601 917.699 263.446 919.658C263.317 921.262 263.821 923.703 263.611 923.776C263.402 923.849 262.284 921.687 261.113 920.366C259.737 918.809 257.68 919.94 256.519 921.349C255.362 922.749 254.521 924.656 256.417 925.991C258.888 927.726 260.617 928.742 260.617 928.742C259.669 929.128 257.72 930.019 255.803 930.912C254.707 931.431 254.317 931.955 254.077 932.568C253.634 933.733 254.326 934.962 254.839 935.822C256.419 938.434 257.968 938.018 259.077 937.073Z" fill="#FFD465"/>
<path d="M949.591 676.108C949.94 674.531 950.334 671.448 950.388 671.457C950.611 672.059 950.843 673.501 951.919 676.158C952.289 677.08 954.093 677.688 956.26 676.466C958.37 675.269 958.943 673.671 958.039 672.375C957.391 671.425 956.7 670.506 955.955 669.63C956.074 669.738 957.66 670.126 959.727 670.57C962.275 671.119 962.594 668.79 962.639 667.066C962.693 664.934 962.397 663.394 959.62 663.376C959.588 663.373 959.332 663.391 958.819 663.417C958.008 663.46 957.517 663.491 957.159 663.513C956.25 663.579 955.506 663.596 955.02 663.606C955.23 663.484 955.841 662.137 957.467 659.795C957.985 658.677 958.946 656.916 956.233 655.346C953.692 653.892 952.339 654.103 951.833 655.54C950.819 658.414 950.117 659.949 950.14 660.047C949.358 658.069 949.224 657.228 948.611 655.802C947.999 654.376 945.738 655.017 944.188 655.897C942.947 656.768 941.485 657.939 942.546 659.593C943.412 660.949 945.29 662.589 945.166 662.774C945.043 662.958 942.847 661.912 941.115 661.567C939.078 661.159 938.123 663.303 938.049 665.127C937.973 666.942 938.456 668.969 940.773 668.887C943.791 668.776 945.782 668.541 945.782 668.541C945.26 669.42 944.246 671.308 943.258 673.179C942.699 674.255 942.705 674.908 942.884 675.541C943.235 676.737 944.529 677.298 945.458 677.673C948.296 678.799 949.278 677.531 949.591 676.108Z" fill="#FFD465"/>
<path d="M1179.08 821.073C1180.31 820.028 1182.49 817.81 1182.52 817.849C1182.34 818.464 1181.65 819.753 1180.9 822.52C1180.64 823.478 1181.71 825.053 1184.17 825.389C1186.58 825.71 1188 824.784 1188.06 823.205C1188.12 822.057 1188.13 820.906 1188.06 819.759C1188.09 819.916 1189.12 821.185 1190.5 822.787C1192.2 824.764 1193.86 823.102 1194.94 821.756C1196.27 820.091 1196.96 818.684 1194.76 816.991C1194.74 816.969 1194.52 816.829 1194.1 816.54C1193.43 816.084 1193.02 815.812 1192.72 815.612C1191.95 815.116 1191.35 814.68 1190.96 814.394C1191.2 814.424 1192.5 813.72 1195.21 812.837C1196.3 812.26 1198.13 811.438 1196.92 808.547C1195.77 805.853 1194.57 805.203 1193.29 806.042C1190.75 807.719 1189.26 808.517 1189.22 808.61C1189.79 806.561 1190.2 805.81 1190.57 804.304C1190.94 802.798 1188.76 801.942 1186.99 801.706C1185.47 801.65 1183.6 801.699 1183.45 803.658C1183.32 805.262 1183.82 807.703 1183.61 807.776C1183.4 807.849 1182.28 805.687 1181.11 804.366C1179.74 802.809 1177.68 803.94 1176.52 805.349C1175.36 806.749 1174.52 808.656 1176.42 809.991C1178.89 811.726 1180.62 812.742 1180.62 812.742C1179.67 813.128 1177.72 814.019 1175.8 814.912C1174.71 815.431 1174.32 815.955 1174.08 816.568C1173.63 817.733 1174.33 818.962 1174.84 819.822C1176.42 822.434 1177.97 822.018 1179.08 821.073Z" fill="#FFD465"/>
<path d="M1373.64 678.973C1374.82 677.978 1376.89 675.865 1376.93 675.902C1376.75 676.488 1376.09 677.715 1375.38 680.351C1375.13 681.263 1376.15 682.762 1378.5 683.083C1380.79 683.389 1382.14 682.506 1382.2 681.003C1382.26 679.909 1382.26 678.814 1382.2 677.721C1382.23 677.871 1383.21 679.079 1384.52 680.605C1386.14 682.488 1387.72 680.905 1388.75 679.623C1390.02 678.037 1390.68 676.697 1388.58 675.085C1388.56 675.064 1388.35 674.931 1387.95 674.655C1387.31 674.222 1386.92 673.963 1386.64 673.772C1385.91 673.3 1385.33 672.885 1384.96 672.612C1385.19 672.641 1386.43 671.97 1389.01 671.129C1390.05 670.58 1391.79 669.797 1390.63 667.044C1389.54 664.478 1388.4 663.86 1387.18 664.658C1384.76 666.256 1383.34 667.016 1383.31 667.104C1383.85 665.153 1384.23 664.437 1384.59 663.003C1384.94 661.569 1382.86 660.754 1381.18 660.529C1379.74 660.476 1377.95 660.523 1377.8 662.388C1377.68 663.916 1378.16 666.241 1377.96 666.31C1377.76 666.379 1376.7 664.321 1375.58 663.063C1374.27 661.58 1372.31 662.657 1371.21 663.999C1370.11 665.332 1369.31 667.148 1371.11 668.419C1373.46 670.072 1375.11 671.039 1375.11 671.039C1374.21 671.406 1372.35 672.255 1370.53 673.106C1369.48 673.6 1369.11 674.099 1368.88 674.682C1368.46 675.792 1369.12 676.962 1369.61 677.782C1371.11 680.269 1372.59 679.873 1373.64 678.973Z" fill="#FFD465"/>
<path d="M711.077 851.073C712.309 850.028 714.485 847.81 714.523 847.849C714.337 848.464 713.651 849.753 712.902 852.52C712.64 853.478 713.709 855.053 716.174 855.389C718.578 855.71 720.001 854.784 720.063 853.205C720.122 852.057 720.127 850.906 720.063 849.759C720.093 849.916 721.121 851.185 722.5 852.787C724.198 854.764 725.86 853.102 726.938 851.756C728.269 850.091 728.964 848.684 726.762 846.991C726.739 846.969 726.524 846.829 726.1 846.54C725.428 846.084 725.017 845.812 724.719 845.612C723.955 845.116 723.352 844.68 722.959 844.394C723.2 844.424 724.501 843.72 727.211 842.837C728.3 842.26 730.13 841.438 728.917 838.547C727.772 835.853 726.567 835.203 725.295 836.042C722.75 837.719 721.263 838.517 721.222 838.61C721.794 836.561 722.196 835.81 722.57 834.304C722.944 832.798 720.756 831.942 718.988 831.706C717.473 831.65 715.601 831.699 715.446 833.658C715.317 835.262 715.821 837.703 715.611 837.776C715.402 837.849 714.284 835.687 713.113 834.366C711.737 832.809 709.68 833.94 708.519 835.349C707.362 836.749 706.521 838.656 708.417 839.991C710.888 841.726 712.617 842.742 712.617 842.742C711.669 843.128 709.72 844.019 707.803 844.912C706.707 845.431 706.317 845.955 706.077 846.568C705.634 847.733 706.326 848.962 706.839 849.822C708.419 852.434 709.968 852.018 711.077 851.073Z" fill="#FFD465"/>
<path d="M1279.54 217.79C1281.52 212.655 1278.96 206.888 1273.82 204.909L1265.73 201.789C1259.18 199.267 1252.39 204.858 1253.61 211.765C1254.04 214.195 1255.44 216.343 1257.5 217.708L1264.73 222.508C1270.04 226.035 1277.25 223.738 1279.54 217.79Z" fill="#BED4DE"/>
<path d="M1323.57 250.941C1326.74 242.696 1322.64 233.436 1314.39 230.258L1297.15 223.616C1285.54 219.139 1273.48 229.063 1275.64 241.324L1275.78 242.105C1276.54 246.419 1279.04 250.232 1282.69 252.655L1298.1 262.892C1306.62 268.555 1318.2 264.867 1321.88 255.317L1323.57 250.941Z" fill="#BED4DE"/>
<path d="M1264.29 244.935C1267.47 236.689 1263.36 227.429 1255.12 224.252L1228.78 214.103C1217.35 209.7 1205.42 219.241 1207.2 231.357L1208.46 239.98C1209.11 244.392 1211.57 248.334 1215.25 250.855L1235.55 264.763C1244.07 270.601 1255.81 266.956 1259.52 257.317L1264.29 244.935Z" fill="#BED4DE"/>
<path d="M1294.5 304.484C1297.68 296.238 1293.57 286.978 1285.33 283.801L1258.99 273.652C1247.56 269.249 1235.63 278.79 1237.41 290.906L1238.67 299.528C1239.32 303.941 1241.78 307.883 1245.46 310.403L1265.76 324.311C1274.28 330.15 1286.02 326.504 1289.73 316.866L1294.5 304.484Z" fill="#BED4DE"/>
<path d="M1226.67 288.897C1229.85 280.651 1225.74 271.391 1217.5 268.214L1191.16 258.065C1179.74 253.662 1167.8 263.203 1169.58 275.319L1170.84 283.942C1171.49 288.354 1173.95 292.296 1177.63 294.817L1197.93 308.725C1206.45 314.563 1218.19 310.918 1221.9 301.279L1226.67 288.897Z" fill="#BED4DE"/>
<path d="M1257.5 345.953C1260.68 337.707 1256.57 328.447 1248.33 325.27L1221.99 315.121C1210.56 310.718 1198.63 320.259 1200.41 332.375L1201.67 340.998C1202.32 345.41 1204.78 349.352 1208.46 351.873L1228.76 365.781C1237.28 371.619 1249.02 367.974 1252.73 358.335L1257.5 345.953Z" fill="#BED4DE"/>
<path d="M1188.78 331.826C1191.96 323.58 1187.85 314.32 1179.61 311.143L1150.31 299.855C1139.6 295.728 1128.16 303.886 1128.57 315.356L1129.37 337.678C1129.53 342.354 1131.74 346.723 1135.4 349.634L1153.96 364.383C1162.42 371.102 1174.96 367.687 1178.85 357.61L1188.78 331.826Z" fill="#BED4DE"/>
<path d="M1129.28 393.771C1128.99 384.939 1135.92 377.547 1144.75 377.26L1183.82 375.991C1196.26 375.587 1204.38 388.925 1198.3 399.792L1192.15 410.793C1190.01 414.616 1186.4 417.395 1182.16 418.483L1149.83 426.771C1139.91 429.312 1130.19 422.021 1129.86 411.791L1129.28 393.771Z" fill="#BED4DE"/>
<path d="M1207.91 390.562C1209.67 382.007 1218.03 376.5 1226.59 378.261L1240.07 381.038C1250.98 383.283 1255.25 396.572 1247.7 404.752C1245.04 407.63 1241.32 409.292 1237.41 409.353L1223.64 409.565C1213.53 409.721 1205.87 400.471 1207.91 390.562Z" fill="#BED4DE"/>
<path d="M1150.05 446.883C1151.96 437.598 1161.04 431.622 1170.32 433.533L1184.96 436.546C1196.79 438.983 1201.43 453.405 1193.24 462.283C1190.35 465.405 1186.32 467.21 1182.07 467.275L1167.13 467.506C1156.15 467.675 1147.84 457.636 1150.05 446.883Z" fill="#BED4DE"/>
<path d="M1209.31 430.743C1211.1 422.088 1219.56 416.516 1228.21 418.299L1247.04 422.176C1259.04 424.645 1263.92 439.123 1255.88 448.357L1253.71 450.845C1250.78 454.208 1246.58 456.195 1242.13 456.328L1224.04 456.868C1213.72 457.176 1205.81 447.765 1207.89 437.648L1209.31 430.743Z" fill="#BED4DE"/>
<path d="M1151.31 491.743C1153.1 483.088 1161.56 477.516 1170.21 479.299L1189.04 483.176C1201.04 485.645 1205.92 500.123 1197.88 509.357L1195.71 511.845C1192.78 515.208 1188.58 517.195 1184.13 517.328L1166.04 517.868C1155.72 518.176 1147.81 508.765 1149.89 498.648L1151.31 491.743Z" fill="#BED4DE"/>
<path d="M1248.18 502.973C1242.77 509.962 1232.72 511.245 1225.73 505.838L1210.53 494.074C1200.84 486.581 1202.82 471.429 1214.1 466.674L1217.14 465.393C1221.25 463.661 1225.9 463.723 1229.96 465.565L1246.44 473.034C1255.85 477.298 1258.81 489.227 1252.49 497.397L1248.18 502.973Z" fill="#BED4DE"/>
<path d="M1141.31 535.743C1143.1 527.088 1151.56 521.516 1160.21 523.299L1179.04 527.176C1191.04 529.645 1195.92 544.123 1187.88 553.357L1185.71 555.845C1182.78 559.208 1178.58 561.195 1174.13 561.328L1156.04 561.868C1145.72 562.176 1137.81 552.765 1139.89 542.648L1141.31 535.743Z" fill="#BED4DE"/>
<path d="M1206.31 528.743C1208.1 520.088 1216.56 514.516 1225.21 516.299L1247.15 520.815C1258.39 523.129 1263.61 536.177 1257.06 545.606L1248.19 558.391C1245.53 562.236 1241.31 564.72 1236.66 565.19L1219.68 566.904C1208.93 567.99 1200.22 558.337 1202.4 547.759L1206.31 528.743Z" fill="#BED4DE"/>
<path d="M1130.82 595.052C1131.05 586.219 1138.41 579.249 1147.24 579.484L1186.31 580.524C1198.76 580.856 1206.07 594.65 1199.37 605.139L1192.58 615.757C1190.22 619.447 1186.45 622.008 1182.15 622.844L1149.38 629.208C1139.34 631.159 1130.07 623.306 1130.34 613.075L1130.82 595.052Z" fill="#BED4DE"/>
<path d="M1201.66 621.382C1201.89 612.651 1209.16 605.761 1217.89 605.994L1231.65 606.36C1242.78 606.656 1249.32 618.99 1243.32 628.368C1241.21 631.667 1237.84 633.957 1234 634.703L1220.48 637.328C1210.55 639.257 1201.39 631.495 1201.66 621.382Z" fill="#BED4DE"/>
<path d="M1207.73 586.549C1207.91 579.647 1213.65 574.201 1220.56 574.385L1231.43 574.675C1240.23 574.909 1245.4 584.658 1240.66 592.071C1238.99 594.679 1236.33 596.489 1233.29 597.079L1222.61 599.154C1214.76 600.679 1207.51 594.543 1207.73 586.549Z" fill="#BED4DE"/>
<path d="M1145.63 653.117C1145.87 644.283 1153.22 637.243 1162.05 637.478L1182.35 638.019C1193.77 638.323 1200.14 651.337 1193.37 660.536C1191.18 663.508 1187.92 665.508 1184.28 666.108L1164.23 669.415C1154.31 671.05 1145.36 663.162 1145.63 653.117Z" fill="#BED4DE"/>
<path d="M1216.88 660.751C1217.11 651.918 1224.46 644.947 1233.3 645.183L1252.52 645.694C1264.76 646.02 1272.11 659.416 1265.81 669.918L1264.11 672.748C1261.82 676.572 1258.03 679.266 1253.67 680.18L1235.96 683.885C1225.85 686.001 1216.41 678.124 1216.69 667.798L1216.88 660.751Z" fill="#BED4DE"/>
<path d="M1183.33 720.555C1174.93 717.831 1170.32 708.808 1173.04 700.402L1178.97 682.113C1182.75 670.463 1197.68 667.2 1205.97 676.212L1208.2 678.64C1211.22 681.922 1212.73 686.315 1212.38 690.76L1210.92 708.795C1210.09 719.091 1199.87 725.913 1190.04 722.729L1183.33 720.555Z" fill="#BED4DE"/>
<path d="M1226.65 709.595C1226.88 700.762 1234.23 693.792 1243.07 694.027L1262.29 694.539C1274.53 694.865 1281.88 708.26 1275.58 718.762L1273.88 721.592C1271.59 725.416 1267.81 728.11 1263.44 729.024L1245.73 732.729C1235.62 734.845 1226.18 726.968 1226.46 716.643L1226.65 709.595Z" fill="#BED4DE"/>
<path d="M1182.59 745.294C1182.83 736.46 1190.18 729.49 1199.01 729.725L1218.23 730.237C1230.47 730.563 1237.82 743.959 1231.53 754.461L1229.83 757.291C1227.53 761.115 1223.75 763.809 1219.38 764.722L1201.67 768.428C1191.56 770.544 1182.13 762.667 1182.4 752.341L1182.59 745.294Z" fill="#BED4DE"/>
<path d="M1242.81 756.981C1243.05 748.148 1250.4 741.177 1259.23 741.413L1281.62 742.009C1293.09 742.314 1300.52 754.243 1295.73 764.675L1289.24 778.818C1287.29 783.071 1283.58 786.256 1279.08 787.536L1262.66 792.204C1252.28 795.159 1242.01 787.185 1242.29 776.389L1242.81 756.981Z" fill="#BED4DE"/>
<path d="M1060.59 1024.44C1068.02 1019.66 1070.16 1009.76 1065.37 1002.33L1051.35 980.571C1044.94 970.632 1030.34 970.836 1024.21 980.949L1017.63 991.81C1015.25 995.743 1014.68 1000.51 1016.06 1004.9L1022.38 1025C1025.55 1035.07 1037.43 1039.37 1046.31 1033.65L1060.59 1024.44Z" fill="#BED4DE"/>
<path d="M1045.78 954.653C1053.12 949.921 1055.24 940.133 1050.51 932.791L1043.05 921.219C1037.02 911.862 1023.08 912.675 1018.18 922.67C1016.45 926.186 1016.25 930.255 1017.6 933.928L1022.38 946.842C1025.88 956.331 1037.28 960.133 1045.78 954.653Z" fill="#BED4DE"/>
<path d="M1009.23 1039.05C1016.27 1034.52 1018.3 1025.14 1013.76 1018.1L1003.14 1001.61C997.294 992.545 983.662 993.828 979.613 1003.82C978.315 1007.03 978.315 1010.61 979.612 1013.81L986.974 1032C990.541 1040.81 1001.24 1044.2 1009.23 1039.05Z" fill="#BED4DE"/>
<path d="M1012.97 982.355C1020.4 977.568 1022.54 967.666 1017.76 960.239L1007.34 944.079C1000.71 933.786 985.44 934.456 979.734 945.291L978.197 948.211C976.119 952.157 975.782 956.791 977.267 960.996L983.294 978.056C986.735 987.795 998.366 991.77 1007.05 986.175L1012.97 982.355Z" fill="#BED4DE"/>
<path d="M935.78 1050.3C942.473 1056.07 952.576 1055.32 958.346 1048.63L970.9 1034.07C978.896 1024.79 973.935 1010.34 961.929 1007.93L958.693 1007.28C954.321 1006.41 949.781 1007.39 946.168 1010.01L931.509 1020.61C923.141 1026.67 922.618 1038.95 930.441 1045.69L935.78 1050.3Z" fill="#BED4DE"/>
<path d="M972.69 970.703C970.856 962.059 962.361 956.539 953.717 958.374L934.91 962.366C922.931 964.908 918.132 979.416 926.232 988.6L928.415 991.075C931.364 994.42 935.576 996.381 940.035 996.487L958.123 996.917C968.449 997.162 976.299 987.704 974.154 977.6L972.69 970.703Z" fill="#BED4DE"/>
<path d="M874.652 1064.3C882.08 1059.52 884.22 1049.61 879.433 1042.19L869.018 1026.03C862.384 1015.73 847.118 1016.4 841.412 1027.24L839.875 1030.16C837.796 1034.1 837.46 1038.74 838.945 1042.94L844.972 1060C848.413 1069.74 860.044 1073.72 868.726 1068.12L874.652 1064.3Z" fill="#BED4DE"/>
<path d="M918.664 1021.36C926.091 1016.57 928.232 1006.67 923.445 999.239L911.314 980.416C905.096 970.769 891.044 970.613 884.613 980.119L875.893 993.007C873.272 996.882 872.477 1001.71 873.72 1006.22L878.252 1022.67C881.12 1033.09 893.267 1037.72 902.345 1031.87L918.664 1021.36Z" fill="#BED4DE"/>
<path d="M1167.28 802.217C1166.08 793.463 1172.21 785.394 1180.96 784.195L1219.69 778.894C1232.03 777.205 1241.48 789.632 1236.56 801.069L1231.58 812.647C1229.85 816.67 1226.54 819.808 1222.43 821.329L1191.13 832.915C1181.54 836.468 1171.12 830.221 1169.73 820.08L1167.28 802.217Z" fill="#BED4DE"/>
<path d="M1206.44 844.736C1215.15 845.482 1221.6 853.142 1220.85 861.845L1219.67 875.562C1218.72 886.653 1206.03 892.456 1197.02 885.917C1193.85 883.616 1191.76 880.117 1191.24 876.236L1189.42 862.59C1188.08 852.563 1196.36 843.872 1206.44 844.736Z" fill="#BED4DE"/>
<path d="M1136.67 843.438C1138.69 834.941 1147.22 829.69 1155.72 831.71L1169.11 834.894C1179.94 837.469 1183.81 850.882 1176.01 858.829C1173.27 861.624 1169.5 863.174 1165.59 863.115L1151.82 862.91C1141.71 862.759 1134.33 853.281 1136.67 843.438Z" fill="#BED4DE"/>
<path d="M1148.42 915.248C1143.83 907.697 1146.23 897.855 1153.79 893.265L1170.21 883.28C1180.68 876.92 1194.12 884.193 1194.52 896.432L1194.62 899.73C1194.77 904.188 1193.05 908.503 1189.87 911.637L1177 924.348C1169.65 931.606 1157.45 930.1 1152.08 921.273L1148.42 915.248Z" fill="#BED4DE"/>
<path d="M1270.69 807.561C1277.38 813.334 1278.13 823.437 1272.35 830.128L1253.49 851.994C1245.58 861.167 1230.57 857.132 1228.32 845.227C1227.66 841.72 1228.31 838.091 1230.17 835.039L1245.22 810.222C1250.35 801.762 1261.86 799.943 1269.35 806.407L1270.69 807.561Z" fill="#BED4DE"/>
<path d="M1139.07 863.559C1146.92 867.609 1150 877.259 1145.95 885.113L1137.14 902.201C1131.53 913.084 1116.27 913.886 1109.55 903.651L1107.74 900.893C1105.29 897.165 1104.51 892.585 1105.58 888.256L1109.94 870.696C1112.43 860.67 1123.62 855.594 1132.8 860.328L1139.07 863.559Z" fill="#BED4DE"/>
<path d="M1099.22 901.159C1103.36 908.964 1100.39 918.65 1092.58 922.791L1075.6 931.802C1064.78 937.541 1051.79 929.497 1052.11 917.255L1052.19 913.957C1052.31 909.498 1054.28 905.29 1057.63 902.348L1071.22 890.408C1078.98 883.591 1091.07 885.806 1095.92 894.931L1099.22 901.159Z" fill="#BED4DE"/>
<path d="M1112.45 917.9C1118.39 911.357 1128.51 910.866 1135.05 916.805L1149.29 929.725C1158.36 937.955 1155.2 952.905 1143.57 956.76L1140.44 957.799C1136.21 959.203 1131.58 958.776 1127.68 956.622L1111.83 947.884C1102.79 942.895 1100.77 930.77 1107.71 923.121L1112.45 917.9Z" fill="#BED4DE"/>
<path d="M1069.8 939.9C1075.74 933.357 1085.86 932.866 1092.4 938.805L1108.98 953.854C1117.48 961.567 1115.33 975.455 1104.9 980.243L1090.76 986.735C1086.51 988.687 1081.62 988.68 1077.37 986.715L1061.88 979.551C1052.08 975.017 1049.49 962.275 1056.75 954.277L1069.8 939.9Z" fill="#BED4DE"/>
</svg>
