<svg width="1440" height="1309" viewBox="0 0 1440 1309" fill="none" xmlns="http://www.w3.org/2000/svg">
<path d="M-13.2431 343.629C272.492 44.4796 924.411 -59.4333 1329.71 32.2192C1735.01 123.872 1882.38 557.086 1825.13 981.16C1734.74 1650.63 -64.3838 1087.45 -64.3838 1087.45C-64.3838 1087.45 -298.978 642.779 -13.2431 343.629Z" fill="#8BC081"/>
<path d="M380.714 184.834C383.492 177.625 379.9 169.529 372.691 166.75L331.024 150.694C320.866 146.78 310.327 155.456 312.217 166.176L315.173 182.941C315.838 186.712 318.02 190.046 321.209 192.165L351.814 212.493C359.268 217.444 369.39 214.22 372.608 205.87L380.714 184.834Z" fill="#BED4DE"/>
<path d="M304.734 187.885C307.911 179.639 303.802 170.379 295.557 167.202L278.321 160.56C266.703 156.083 254.649 166.006 256.81 178.268L256.948 179.049C257.709 183.362 260.204 187.175 263.853 189.599L279.265 199.835C287.79 205.498 299.367 201.811 303.047 192.261L304.734 187.885Z" fill="#BED4DE"/>
<path d="M349.6 134.4C348.229 141.215 352.643 147.851 359.459 149.222L370.201 151.382C378.887 153.128 386.151 144.722 383.164 136.381C382.113 133.447 379.905 131.072 377.056 129.81L367.037 125.372C359.675 122.112 351.187 126.506 349.6 134.4Z" fill="#BED4DE"/>
<path d="M336.546 231.889C339.724 223.644 335.615 214.384 327.37 211.206L310.134 204.564C298.516 200.087 286.461 210.011 288.623 222.272L288.761 223.053C289.522 227.367 292.017 231.18 295.665 233.603L311.078 243.84C319.603 249.503 331.18 245.816 334.86 236.265L336.546 231.889Z" fill="#BED4DE"/>
<path d="M277.272 225.883C280.45 217.638 276.341 208.378 268.096 205.2L241.76 195.052C230.334 190.648 218.398 200.189 220.176 212.305L221.442 220.928C222.09 225.34 224.55 229.282 228.229 231.803L248.527 245.711C257.048 251.55 268.786 247.904 272.5 238.265L277.272 225.883Z" fill="#BED4DE"/>
<path d="M307.483 285.432C310.66 277.186 306.552 267.926 298.306 264.749L271.971 254.6C260.544 250.197 248.609 259.738 250.387 271.854L251.653 280.476C252.301 284.889 254.761 288.831 258.44 291.351L278.738 305.26C287.259 311.098 298.997 307.453 302.711 297.814L307.483 285.432Z" fill="#BED4DE"/>
<path d="M239.654 269.845C242.832 261.6 238.723 252.339 230.478 249.162L204.142 239.013C192.716 234.61 180.78 244.151 182.559 256.267L183.824 264.89C184.472 269.302 186.932 273.244 190.611 275.765L210.909 289.673C219.43 295.511 231.168 291.866 234.883 282.227L239.654 269.845Z" fill="#BED4DE"/>
<path d="M270.481 326.901C273.659 318.655 269.55 309.395 261.305 306.218L234.969 296.069C223.543 291.666 211.607 301.207 213.386 313.323L214.652 321.946C215.299 326.358 217.759 330.3 221.438 332.821L241.736 346.729C250.257 352.567 261.996 348.922 265.71 339.283L270.481 326.901Z" fill="#BED4DE"/>
<path d="M201.761 312.774C204.939 304.528 200.83 295.268 192.585 292.091L163.294 280.803C152.584 276.676 141.141 284.834 141.551 296.304L142.347 318.626C142.514 323.302 144.719 327.671 148.382 330.582L166.94 345.331C175.395 352.05 187.942 348.636 191.825 338.558L201.761 312.774Z" fill="#BED4DE"/>
<path d="M245.369 370.719C245.656 361.887 238.729 354.495 229.897 354.208L190.83 352.939C178.386 352.535 170.269 365.873 176.345 376.74L182.497 387.741C184.635 391.564 188.246 394.343 192.489 395.431L224.819 403.719C234.733 406.26 244.452 398.969 244.784 388.739L245.369 370.719Z" fill="#BED4DE"/>
<path d="M166.737 367.51C164.975 358.955 156.612 353.448 148.057 355.209L134.572 357.986C123.669 360.231 119.395 373.52 126.946 381.7C129.602 384.578 133.321 386.24 137.237 386.301L151.003 386.513C161.118 386.669 168.777 377.419 166.737 367.51Z" fill="#BED4DE"/>
<path d="M224.593 423.831C222.682 414.546 213.606 408.57 204.321 410.481L189.687 413.494C177.854 415.931 173.216 430.353 181.41 439.231C184.293 442.353 188.329 444.158 192.579 444.223L207.518 444.454C218.496 444.623 226.808 434.584 224.593 423.831Z" fill="#BED4DE"/>
<path d="M165.331 407.691C163.549 399.036 155.088 393.464 146.433 395.247L127.602 399.124C115.608 401.593 110.721 416.071 118.764 425.305L120.932 427.793C123.861 431.156 128.061 433.143 132.519 433.276L150.604 433.816C160.929 434.124 168.836 424.713 166.752 414.596L165.331 407.691Z" fill="#BED4DE"/>
<path d="M223.331 468.691C221.549 460.036 213.088 454.464 204.433 456.247L185.602 460.124C173.608 462.593 168.721 477.071 176.764 486.305L178.932 488.793C181.861 492.156 186.061 494.143 190.519 494.276L208.604 494.816C218.929 495.124 226.836 485.713 224.752 475.596L223.331 468.691Z" fill="#BED4DE"/>
<path d="M126.468 479.921C131.875 486.91 141.924 488.193 148.913 482.786L164.12 471.022C173.805 463.529 171.827 448.377 160.542 443.622L157.501 442.341C153.391 440.609 148.745 440.671 144.683 442.513L128.204 449.982C118.796 454.246 115.834 466.175 122.154 474.345L126.468 479.921Z" fill="#BED4DE"/>
<path d="M233.331 512.691C231.549 504.036 223.088 498.464 214.433 500.247L195.602 504.124C183.608 506.593 178.721 521.071 186.764 530.305L188.932 532.793C191.861 536.156 196.061 538.143 200.519 538.276L218.604 538.816C228.929 539.124 236.836 529.713 234.752 519.596L233.331 512.691Z" fill="#BED4DE"/>
<path d="M168.331 505.691C166.549 497.036 158.088 491.464 149.433 493.247L127.5 497.763C116.259 500.077 111.038 513.125 117.581 522.554L126.451 535.339C129.118 539.184 133.334 541.668 137.989 542.138L154.967 543.852C165.712 544.938 174.424 535.285 172.246 524.707L168.331 505.691Z" fill="#BED4DE"/>
<path d="M162.532 557.76C153.723 558.465 147.154 566.177 147.86 574.986L150.979 613.949C151.973 626.36 166.137 632.93 176.254 625.673L186.495 618.327C190.054 615.774 192.411 611.874 193.016 607.536L197.627 574.48C199.041 564.344 190.706 555.504 180.504 556.321L162.532 557.76Z" fill="#BED4DE"/>
<path d="M192.596 627.097C183.889 627.794 177.396 635.417 178.093 644.124L179.192 657.848C180.08 668.944 192.744 674.818 201.789 668.33C204.971 666.048 207.079 662.561 207.62 658.682L209.522 645.047C210.919 635.027 202.68 626.29 192.596 627.097Z" fill="#BED4DE"/>
<path d="M219.789 563.572C210.981 564.278 204.342 571.996 205.047 580.804L206.667 601.046C207.579 612.432 220.913 618.095 229.739 610.846C232.591 608.504 234.414 605.14 234.82 601.473L237.054 581.274C238.159 571.286 229.806 562.771 219.789 563.572Z" fill="#BED4DE"/>
<path d="M232.719 640.198C223.911 640.903 217.342 648.615 218.047 657.423L219.581 676.588C220.558 688.795 234.326 695.423 244.478 688.575L247.213 686.73C250.911 684.236 253.399 680.312 254.079 675.904L256.836 658.023C258.411 647.814 250.043 638.811 239.746 639.635L232.719 640.198Z" fill="#BED4DE"/>
<path d="M284.964 602.956C281.796 594.707 272.541 590.588 264.292 593.756L246.344 600.648C234.912 605.038 232.448 620.119 241.888 627.919L244.432 630.021C247.87 632.862 252.338 634.138 256.757 633.544L274.689 631.131C284.926 629.753 291.195 619.18 287.492 609.538L284.964 602.956Z" fill="#BED4DE"/>
<path d="M282.014 647.354C273.206 648.06 266.637 655.772 267.342 664.58L268.876 683.745C269.853 695.951 283.621 702.58 293.773 695.732L296.509 693.887C300.206 691.393 302.694 687.469 303.374 683.061L306.131 665.179C307.706 654.97 299.338 645.967 289.041 646.792L282.014 647.354Z" fill="#BED4DE"/>
<path d="M315.317 601.46C306.508 602.165 299.939 609.877 300.644 618.686L302.179 637.85C303.156 650.057 316.924 656.686 327.076 649.837L329.811 647.992C333.508 645.498 335.997 641.574 336.676 637.167L339.434 619.285C341.008 609.076 332.641 600.073 322.344 600.897L315.317 601.46Z" fill="#BED4DE"/>
<path d="M330.193 660.972C321.385 661.677 314.816 669.39 315.521 678.198L317.308 700.52C318.224 711.96 330.531 718.744 340.694 713.41L354.472 706.177C358.614 704.003 361.598 700.124 362.636 695.562L366.424 678.923C368.821 668.393 360.311 658.561 349.546 659.423L330.193 660.972Z" fill="#BED4DE"/>
<path d="M560.825 821.921C557.782 813.626 562.04 804.433 570.336 801.39L607.032 787.926C618.72 783.638 630.613 793.756 628.253 805.98L625.863 818.356C625.033 822.656 622.476 826.429 618.789 828.792L590.692 846.806C582.076 852.33 570.56 848.456 567.035 838.848L560.825 821.921Z" fill="#BED4DE"/>
<path d="M566.217 775.778C563.209 767.578 567.417 758.492 575.618 755.483L588.543 750.741C598.993 746.907 609.626 755.953 607.516 766.883C606.773 770.728 604.487 774.101 601.191 776.214L589.601 783.645C581.084 789.105 569.702 785.276 566.217 775.778Z" fill="#BED4DE"/>
<path d="M586.739 870.642C583.855 862.783 587.889 854.074 595.748 851.191L614.165 844.434C624.289 840.72 634.397 849.957 631.606 860.374C630.711 863.713 628.552 866.573 625.586 868.349L608.754 878.426C600.598 883.309 590.013 879.566 586.739 870.642Z" fill="#BED4DE"/>
<path d="M635.281 828.609C632.237 820.313 636.495 811.121 644.791 808.077L662.84 801.455C674.337 797.237 686.116 806.971 684.142 819.056L683.61 822.313C682.891 826.714 680.367 830.615 676.648 833.076L661.559 843.06C652.944 848.76 641.267 844.925 637.709 835.228L635.281 828.609Z" fill="#BED4DE"/>
<path d="M650.086 912.227C641.268 912.8 633.656 906.116 633.083 897.298L631.837 878.112C631.043 865.892 643.711 857.347 654.744 862.659L657.717 864.091C661.736 866.025 664.764 869.549 666.072 873.813L671.38 891.11C674.411 900.985 667.429 911.101 657.122 911.77L650.086 912.227Z" fill="#BED4DE"/>
<path d="M668.281 862.609C665.237 854.313 669.495 845.121 677.791 842.077L695.84 835.455C707.337 831.237 719.116 840.971 717.142 853.056L716.61 856.313C715.891 860.714 713.367 864.615 709.648 867.076L694.559 877.06C685.944 882.76 674.267 878.925 670.709 869.228L668.281 862.609Z" fill="#BED4DE"/>
<path d="M651.281 937.609C648.237 929.313 652.495 920.121 660.791 917.077L678.84 910.455C690.337 906.237 702.116 915.971 700.142 928.056L699.61 931.313C698.891 935.714 696.367 939.615 692.648 942.076L677.559 952.06C668.944 957.76 657.267 953.925 653.709 944.228L651.281 937.609Z" fill="#BED4DE"/>
<path d="M696.281 895.609C693.237 887.313 697.495 878.121 705.791 875.077L726.814 867.364C737.589 863.411 748.898 871.753 748.303 883.215L747.497 898.754C747.254 903.427 744.978 907.759 741.269 910.611L727.74 921.01C719.177 927.592 706.688 923.975 702.968 913.836L696.281 895.609Z" fill="#BED4DE"/>
<path d="M432.56 641.185C433.759 632.43 427.633 624.361 418.878 623.163L380.151 617.861C367.816 616.173 358.363 628.6 363.284 640.037L368.265 651.615C369.996 655.638 373.3 658.776 377.408 660.296L408.708 671.883C418.306 675.436 428.726 669.188 430.115 659.048L432.56 641.185Z" fill="#BED4DE"/>
<path d="M410.478 687.297C404.608 680.829 394.606 680.344 388.138 686.214L377.943 695.467C369.7 702.948 372.783 716.563 383.445 719.762C387.196 720.887 391.244 720.426 394.646 718.485L406.604 711.663C415.391 706.649 417.277 694.789 410.478 687.297Z" fill="#BED4DE"/>
<path d="M467.057 659.731C461.187 653.263 451.185 652.778 444.717 658.648L434.522 667.9C426.279 675.381 429.362 688.997 440.025 692.196C443.775 693.321 447.823 692.86 451.225 690.919L463.183 684.096C471.97 679.083 473.856 667.223 467.057 659.731Z" fill="#BED4DE"/>
<path d="M462.456 734.216C467.045 726.664 464.644 716.822 457.093 712.233L440.663 702.248C430.199 695.888 416.76 703.161 416.362 715.4L416.255 718.698C416.109 723.155 417.831 727.471 421.005 730.604L433.88 743.316C441.231 750.573 453.429 749.067 458.794 740.24L462.456 734.216Z" fill="#BED4DE"/>
<path d="M478.991 679.527C471.137 683.577 468.053 693.227 472.103 701.081L480.915 718.168C486.527 729.052 501.787 729.854 508.509 719.619L510.32 716.86C512.769 713.133 513.55 708.552 512.476 704.224L508.119 686.663C505.631 676.638 494.437 671.562 485.256 676.296L478.991 679.527Z" fill="#BED4DE"/>
<path d="M519.269 718.126C515.127 725.932 518.098 735.618 525.904 739.759L542.887 748.77C553.705 754.509 566.697 746.465 566.381 734.223L566.296 730.924C566.181 726.466 564.21 722.258 560.859 719.315L547.265 707.376C539.504 700.559 527.414 702.774 522.573 711.899L519.269 718.126Z" fill="#BED4DE"/>
<path d="M502.894 737.868C496.956 731.324 486.837 730.834 480.293 736.772L466.056 749.693C456.988 757.922 460.149 772.872 471.772 776.727L474.904 777.766C479.137 779.17 483.764 778.744 487.669 776.59L503.512 767.851C512.556 762.862 514.574 750.738 507.632 743.089L502.894 737.868Z" fill="#BED4DE"/>
<path d="M541.894 764.868C535.956 758.324 525.837 757.834 519.293 763.772L502.711 778.821C494.212 786.534 496.358 800.423 506.788 805.211L520.93 811.703C525.183 813.654 530.076 813.647 534.323 811.683L549.81 804.519C559.612 799.985 562.199 787.242 554.941 779.245L541.894 764.868Z" fill="#BED4DE"/>
<path d="M103.72 680.992C105.032 681.21 107.584 681.398 107.58 681.443C107.094 681.653 105.919 681.907 103.781 682.908C103.04 683.253 102.619 684.762 103.718 686.49C104.795 688.173 106.134 688.574 107.16 687.774C107.913 687.2 108.638 686.591 109.325 685.941C109.242 686.043 108.992 687.364 108.718 689.082C108.378 691.201 110.307 691.362 111.727 691.324C113.481 691.275 114.735 690.963 114.628 688.679C114.629 688.653 114.603 688.444 114.56 688.023C114.488 687.358 114.441 686.956 114.408 686.662C114.314 685.917 114.267 685.307 114.238 684.907C114.347 685.075 115.481 685.518 117.478 686.752C118.42 687.129 119.91 687.842 121.082 685.543C122.166 683.39 121.933 682.287 120.73 681.933C118.322 681.226 117.03 680.716 116.95 680.739C118.542 680.009 119.228 679.863 120.373 679.296C121.518 678.73 120.893 676.9 120.101 675.664C119.331 674.682 118.303 673.531 116.99 674.475C115.913 675.247 114.647 676.863 114.49 676.77C114.333 676.676 115.097 674.825 115.304 673.386C115.551 671.693 113.746 671.001 112.243 671.021C110.748 671.038 109.102 671.524 109.271 673.426C109.495 675.902 109.775 677.529 109.775 677.529C109.029 677.138 107.433 676.387 105.851 675.657C104.942 675.244 104.406 675.278 103.893 675.453C102.925 675.794 102.521 676.882 102.252 677.662C101.451 680.045 102.536 680.797 103.72 680.992Z" fill="#FFD465"/>
<path d="M1389.06 604.124C1389.27 602.808 1389.44 600.25 1389.49 600.254C1389.7 600.739 1389.96 601.915 1390.98 604.051C1391.33 604.791 1392.84 605.203 1394.57 604.091C1396.25 603.001 1396.64 601.656 1395.83 600.634C1395.25 599.883 1394.64 599.16 1393.98 598.476C1394.08 598.558 1395.41 598.8 1397.13 599.064C1399.26 599.391 1399.41 597.457 1399.36 596.035C1399.3 594.277 1398.98 593.023 1396.69 593.145C1396.66 593.144 1396.45 593.171 1396.03 593.218C1395.37 593.293 1394.96 593.343 1394.67 593.378C1393.93 593.478 1393.31 593.529 1392.91 593.56C1393.08 593.45 1393.52 592.31 1394.74 590.302C1395.11 589.356 1395.82 587.858 1393.51 586.698C1391.34 585.626 1390.24 585.866 1389.89 587.075C1389.2 589.492 1388.7 590.79 1388.72 590.87C1387.98 589.279 1387.83 588.593 1387.25 587.449C1386.68 586.305 1384.85 586.944 1383.61 587.745C1382.63 588.523 1381.49 589.56 1382.44 590.87C1383.22 591.944 1384.85 593.202 1384.76 593.36C1384.67 593.518 1382.81 592.765 1381.36 592.566C1379.66 592.33 1378.98 594.143 1379.01 595.649C1379.04 597.147 1379.54 598.793 1381.44 598.611C1383.92 598.371 1385.55 598.079 1385.55 598.079C1385.16 598.829 1384.42 600.434 1383.7 602.023C1383.29 602.937 1383.33 603.474 1383.51 603.987C1383.85 604.955 1384.95 605.353 1385.73 605.616C1388.12 606.404 1388.87 605.311 1389.06 604.124Z" fill="#FFD465"/>
<path d="M1306.08 803.073C1307.31 802.028 1309.49 799.81 1309.52 799.849C1309.34 800.464 1308.65 801.752 1307.9 804.52C1307.64 805.478 1308.71 807.053 1311.17 807.389C1313.58 807.71 1315 806.784 1315.06 805.205C1315.12 804.057 1315.13 802.906 1315.06 801.759C1315.09 801.916 1316.12 803.185 1317.5 804.787C1319.2 806.764 1320.86 805.102 1321.94 803.756C1323.27 802.09 1323.96 800.684 1321.76 798.991C1321.74 798.969 1321.52 798.829 1321.1 798.54C1320.43 798.084 1320.02 797.812 1319.72 797.612C1318.95 797.116 1318.35 796.68 1317.96 796.394C1318.2 796.424 1319.5 795.72 1322.21 794.837C1323.3 794.26 1325.13 793.438 1323.92 790.547C1322.77 787.852 1321.57 787.203 1320.29 788.042C1317.75 789.719 1316.26 790.517 1316.22 790.61C1316.79 788.561 1317.2 787.81 1317.57 786.304C1317.94 784.798 1315.76 783.942 1313.99 783.706C1312.47 783.65 1310.6 783.699 1310.45 785.658C1310.32 787.262 1310.82 789.703 1310.61 789.776C1310.4 789.848 1309.28 787.687 1308.11 786.366C1306.74 784.809 1304.68 785.94 1303.52 787.349C1302.36 788.749 1301.52 790.656 1303.42 791.991C1305.89 793.726 1307.62 794.742 1307.62 794.742C1306.67 795.128 1304.72 796.019 1302.8 796.912C1301.71 797.431 1301.32 797.955 1301.08 798.568C1300.63 799.733 1301.33 800.962 1301.84 801.822C1303.42 804.434 1304.97 804.018 1306.08 803.073Z" fill="#FFD465"/>
<path d="M928.077 724.073C929.309 723.028 931.485 720.81 931.523 720.849C931.337 721.464 930.651 722.752 929.902 725.52C929.64 726.478 930.709 728.053 933.174 728.389C935.578 728.71 937.001 727.784 937.063 726.205C937.122 725.057 937.127 723.906 937.063 722.759C937.093 722.916 938.121 724.185 939.5 725.787C941.198 727.764 942.86 726.102 943.938 724.756C945.269 723.09 945.964 721.684 943.762 719.991C943.739 719.969 943.524 719.829 943.1 719.54C942.428 719.084 942.017 718.812 941.719 718.612C940.955 718.116 940.352 717.68 939.959 717.394C940.2 717.424 941.501 716.72 944.211 715.837C945.3 715.26 947.13 714.438 945.917 711.547C944.772 708.852 943.567 708.203 942.295 709.042C939.75 710.719 938.263 711.517 938.222 711.61C938.794 709.561 939.196 708.81 939.57 707.304C939.944 705.798 937.756 704.942 935.988 704.706C934.473 704.65 932.601 704.699 932.446 706.658C932.317 708.262 932.821 710.703 932.611 710.776C932.402 710.848 931.284 708.687 930.113 707.366C928.737 705.809 926.68 706.94 925.519 708.349C924.362 709.749 923.521 711.656 925.417 712.991C927.888 714.726 929.617 715.742 929.617 715.742C928.669 716.128 926.72 717.019 924.803 717.912C923.707 718.431 923.317 718.955 923.077 719.568C922.634 720.733 923.326 721.962 923.839 722.822C925.419 725.434 926.968 725.018 928.077 724.073Z" fill="#FFD465"/>
<path d="M1126.25 806.357C1126.71 804.809 1127.32 801.761 1127.37 801.773C1127.55 802.39 1127.68 803.844 1128.57 806.571C1128.87 807.516 1130.63 808.249 1132.87 807.183C1135.06 806.137 1135.75 804.583 1134.94 803.227C1134.36 802.234 1133.73 801.268 1133.05 800.342C1133.16 800.458 1134.72 800.957 1136.75 801.544C1139.25 802.271 1139.73 799.971 1139.9 798.254C1140.1 796.132 1139.91 794.574 1137.15 794.361C1137.11 794.356 1136.86 794.356 1136.34 794.345C1135.53 794.332 1135.04 794.328 1134.68 794.324C1133.77 794.327 1133.03 794.292 1132.54 794.267C1132.76 794.16 1133.46 792.859 1135.25 790.638C1135.85 789.559 1136.93 787.87 1134.33 786.113C1131.9 784.484 1130.53 784.599 1129.93 785.997C1128.72 788.793 1127.91 790.275 1127.92 790.375C1127.28 788.346 1127.21 787.498 1126.7 786.032C1126.19 784.567 1123.89 785.047 1122.28 785.817C1120.98 786.598 1119.44 787.664 1120.38 789.388C1121.15 790.802 1122.91 792.57 1122.77 792.745C1122.63 792.92 1120.52 791.722 1118.81 791.257C1116.81 790.706 1115.71 792.778 1115.51 794.593C1115.3 796.397 1115.64 798.454 1117.96 798.534C1120.98 798.635 1122.98 798.541 1122.98 798.541C1122.4 799.382 1121.25 801.194 1120.14 802.991C1119.5 804.024 1119.46 804.676 1119.6 805.32C1119.86 806.538 1121.11 807.188 1122.01 807.628C1124.77 808.95 1125.84 807.755 1126.25 806.357Z" fill="#FFD465"/>
<path d="M772.077 797.073C773.309 796.028 775.485 793.81 775.523 793.849C775.337 794.464 774.651 795.752 773.902 798.52C773.64 799.478 774.709 801.053 777.174 801.389C779.578 801.71 781.001 800.784 781.063 799.205C781.122 798.057 781.127 796.906 781.063 795.759C781.093 795.916 782.121 797.185 783.5 798.787C785.198 800.764 786.86 799.102 787.938 797.756C789.269 796.09 789.964 794.684 787.762 792.991C787.739 792.969 787.524 792.829 787.1 792.54C786.428 792.084 786.017 791.812 785.719 791.612C784.955 791.116 784.352 790.68 783.959 790.394C784.2 790.424 785.501 789.72 788.211 788.837C789.3 788.26 791.13 787.438 789.917 784.547C788.772 781.852 787.567 781.203 786.295 782.042C783.75 783.719 782.263 784.517 782.222 784.61C782.794 782.561 783.196 781.81 783.57 780.304C783.944 778.798 781.756 777.942 779.988 777.706C778.473 777.65 776.601 777.699 776.446 779.658C776.317 781.262 776.821 783.703 776.611 783.776C776.402 783.848 775.284 781.687 774.113 780.366C772.737 778.809 770.68 779.94 769.519 781.349C768.362 782.749 767.521 784.656 769.417 785.991C771.888 787.726 773.617 788.742 773.617 788.742C772.669 789.128 770.72 790.019 768.803 790.912C767.707 791.431 767.317 791.955 767.077 792.568C766.634 793.733 767.326 794.962 767.839 795.822C769.419 798.434 770.968 798.018 772.077 797.073Z" fill="#FFD465"/>
<path d="M559.077 669.073C560.309 668.028 562.485 665.81 562.523 665.849C562.337 666.464 561.651 667.752 560.902 670.52C560.64 671.478 561.709 673.053 564.174 673.389C566.578 673.71 568.001 672.784 568.063 671.205C568.122 670.057 568.127 668.906 568.063 667.759C568.093 667.916 569.121 669.185 570.5 670.787C572.198 672.764 573.86 671.102 574.938 669.756C576.269 668.09 576.964 666.684 574.762 664.991C574.739 664.969 574.524 664.829 574.1 664.54C573.428 664.084 573.017 663.812 572.719 663.612C571.955 663.116 571.352 662.68 570.959 662.394C571.2 662.424 572.501 661.72 575.211 660.837C576.3 660.26 578.13 659.438 576.917 656.547C575.772 653.852 574.567 653.203 573.295 654.042C570.75 655.719 569.263 656.517 569.222 656.61C569.794 654.561 570.196 653.81 570.57 652.304C570.944 650.798 568.756 649.942 566.988 649.706C565.473 649.65 563.601 649.699 563.446 651.658C563.317 653.262 563.821 655.703 563.611 655.776C563.402 655.848 562.284 653.687 561.113 652.366C559.737 650.809 557.68 651.94 556.519 653.349C555.362 654.749 554.521 656.656 556.417 657.991C558.888 659.726 560.617 660.742 560.617 660.742C559.669 661.128 557.72 662.019 555.803 662.912C554.707 663.431 554.317 663.955 554.077 664.568C553.634 665.733 554.326 666.962 554.839 667.822C556.419 670.434 557.968 670.018 559.077 669.073Z" fill="#FFD465"/>
<path d="M257.077 820.073C258.309 819.028 260.485 816.81 260.523 816.849C260.337 817.464 259.651 818.752 258.902 821.52C258.64 822.478 259.709 824.053 262.174 824.389C264.578 824.71 266.001 823.784 266.063 822.205C266.122 821.057 266.127 819.906 266.063 818.759C266.093 818.916 267.121 820.185 268.5 821.787C270.198 823.764 271.86 822.102 272.938 820.756C274.269 819.09 274.964 817.684 272.762 815.991C272.739 815.969 272.524 815.829 272.1 815.54C271.428 815.084 271.017 814.812 270.719 814.612C269.955 814.116 269.352 813.68 268.959 813.394C269.2 813.424 270.501 812.72 273.211 811.837C274.3 811.26 276.13 810.438 274.917 807.547C273.772 804.852 272.567 804.203 271.295 805.042C268.75 806.719 267.263 807.517 267.222 807.61C267.794 805.561 268.196 804.81 268.57 803.304C268.944 801.798 266.756 800.942 264.988 800.706C263.473 800.65 261.601 800.699 261.446 802.658C261.317 804.262 261.821 806.703 261.611 806.776C261.402 806.848 260.284 804.687 259.113 803.366C257.737 801.809 255.68 802.94 254.519 804.349C253.362 805.749 252.521 807.656 254.417 808.991C256.888 810.726 258.617 811.742 258.617 811.742C257.669 812.128 255.72 813.019 253.803 813.912C252.707 814.431 252.317 814.955 252.077 815.568C251.634 816.733 252.326 817.962 252.839 818.822C254.419 821.434 255.968 821.018 257.077 820.073Z" fill="#FFD465"/>
</svg>
