<svg width="1440" height="1249" viewBox="0 0 1440 1249" fill="none" xmlns="http://www.w3.org/2000/svg">
<g filter="url(#filter0_d_244_2892)">
<path d="M-15.0336 370.594C470.891 9.37939 1278.97 -87.4056 1624.97 78.5942C1970.97 244.594 1665.52 1241 1665.52 1241L-15.0338 1206C-15.0338 1206 -500.958 731.808 -15.0336 370.594Z" fill="#8BC081"/>
</g>
<path d="M438.192 216.834C440.97 209.625 437.378 201.529 430.168 198.751L388.501 182.694C378.344 178.78 367.804 187.456 369.694 198.177L372.65 214.941C373.315 218.712 375.497 222.046 378.687 224.165L409.292 244.493C416.746 249.444 426.868 246.22 430.085 237.87L438.192 216.834Z" fill="#BED4DE"/>
<path d="M362.211 219.885C365.389 211.639 361.28 202.379 353.035 199.202L335.798 192.56C324.181 188.083 312.126 198.006 314.288 210.268L314.426 211.049C315.186 215.362 317.682 219.175 321.33 221.599L336.743 231.835C345.268 237.498 356.845 233.811 360.525 224.261L362.211 219.885Z" fill="#BED4DE"/>
<path d="M407.078 166.4C405.707 173.215 410.121 179.851 416.936 181.222L427.679 183.382C436.364 185.128 443.629 176.722 440.642 168.381C439.591 165.447 437.383 163.072 434.533 161.81L424.515 157.373C417.153 154.112 408.665 158.507 407.078 166.4Z" fill="#BED4DE"/>
<path d="M394.024 263.889C397.202 255.644 393.093 246.384 384.848 243.206L367.611 236.564C355.994 232.087 343.939 242.011 346.101 254.272L346.239 255.053C346.999 259.367 349.495 263.18 353.143 265.603L368.555 275.84C377.081 281.503 388.658 277.815 392.338 268.265L394.024 263.889Z" fill="#BED4DE"/>
<path d="M334.75 257.883C337.927 249.638 333.819 240.378 325.573 237.2L299.238 227.052C287.811 222.648 275.876 232.19 277.654 244.305L278.92 252.928C279.568 257.34 282.028 261.282 285.707 263.803L306.005 277.711C314.526 283.55 326.264 279.904 329.978 270.265L334.75 257.883Z" fill="#BED4DE"/>
<path d="M364.961 317.432C368.138 309.186 364.03 299.926 355.784 296.749L329.449 286.6C318.022 282.197 306.086 291.738 307.865 303.854L309.131 312.477C309.779 316.889 312.238 320.831 315.917 323.352L336.215 337.26C344.737 343.098 356.475 339.453 360.189 329.814L364.961 317.432Z" fill="#BED4DE"/>
<path d="M297.132 301.845C300.309 293.6 296.201 284.339 287.955 281.162L261.62 271.013C250.193 266.61 238.258 276.151 240.036 288.267L241.302 296.89C241.95 301.302 244.41 305.244 248.089 307.765L268.387 321.673C276.908 327.511 288.646 323.866 292.36 314.227L297.132 301.845Z" fill="#BED4DE"/>
<path d="M327.959 358.901C331.137 350.655 327.028 341.395 318.783 338.218L292.447 328.069C281.021 323.666 269.085 333.207 270.864 345.323L272.129 353.946C272.777 358.358 275.237 362.3 278.916 364.821L299.214 378.729C307.735 384.567 319.473 380.922 323.188 371.283L327.959 358.901Z" fill="#BED4DE"/>
<path d="M259.239 344.774C262.416 336.528 258.308 327.268 250.062 324.091L220.771 312.803C210.062 308.676 198.619 316.834 199.028 328.304L199.825 350.626C199.992 355.302 202.197 359.671 205.86 362.582L224.418 377.331C232.873 384.05 245.419 380.636 249.303 370.558L259.239 344.774Z" fill="#BED4DE"/>
<path d="M302.847 402.719C303.134 393.887 296.207 386.495 287.375 386.208L248.308 384.939C235.864 384.535 227.747 397.873 233.824 408.74L239.975 419.741C242.113 423.564 245.724 426.343 249.967 427.431L282.297 435.719C292.211 438.26 301.93 430.968 302.262 420.739L302.847 402.719Z" fill="#BED4DE"/>
<path d="M224.215 399.51C222.453 390.955 214.09 385.448 205.535 387.209L192.05 389.986C181.147 392.231 176.873 405.52 184.424 413.7C187.08 416.578 190.799 418.24 194.715 418.301L208.481 418.513C218.596 418.669 226.255 409.419 224.215 399.51Z" fill="#BED4DE"/>
<path d="M282.072 455.831C280.16 446.546 271.084 440.57 261.799 442.481L247.165 445.494C235.333 447.931 230.694 462.353 238.888 471.23C241.771 474.353 245.807 476.158 250.057 476.223L264.996 476.454C275.974 476.623 284.286 466.584 282.072 455.831Z" fill="#BED4DE"/>
<path d="M222.809 439.691C221.027 431.036 212.566 425.464 203.911 427.247L185.08 431.124C173.086 433.593 168.199 448.071 176.242 457.305L178.41 459.793C181.339 463.156 185.539 465.143 189.997 465.276L208.082 465.816C218.407 466.124 226.314 456.713 224.231 446.596L222.809 439.691Z" fill="#BED4DE"/>
<path d="M280.809 500.691C279.027 492.036 270.566 486.464 261.911 488.247L243.08 492.124C231.086 494.593 226.199 509.071 234.242 518.305L236.41 520.793C239.339 524.156 243.539 526.143 247.997 526.276L266.082 526.816C276.407 527.124 284.314 517.713 282.231 507.596L280.809 500.691Z" fill="#BED4DE"/>
<path d="M183.946 511.921C189.353 518.91 199.402 520.193 206.391 514.786L221.598 503.022C231.283 495.529 229.305 480.377 218.02 475.622L214.979 474.341C210.869 472.609 206.223 472.671 202.162 474.512L185.682 481.982C176.274 486.246 173.312 498.175 179.632 506.345L183.946 511.921Z" fill="#BED4DE"/>
<path d="M290.809 544.691C289.027 536.036 280.566 530.464 271.911 532.247L253.08 536.124C241.086 538.593 236.199 553.071 244.242 562.305L246.41 564.793C249.339 568.156 253.539 570.143 257.997 570.276L276.082 570.816C286.407 571.124 294.314 561.713 292.231 551.596L290.809 544.691Z" fill="#BED4DE"/>
<path d="M225.809 537.691C224.027 529.036 215.566 523.464 206.911 525.247L184.978 529.763C173.737 532.077 168.516 545.125 175.059 554.554L183.929 567.339C186.596 571.184 190.812 573.668 195.467 574.138L212.445 575.852C223.19 576.938 231.902 567.285 229.724 556.707L225.809 537.691Z" fill="#BED4DE"/>
<path d="M301.305 604C301.069 595.167 293.718 588.197 284.884 588.432L245.81 589.472C233.364 589.804 226.049 603.598 232.757 614.087L239.548 624.705C241.907 628.395 245.676 630.956 249.976 631.792L282.739 638.156C292.786 640.107 302.057 632.254 301.785 622.023L301.305 604Z" fill="#BED4DE"/>
<path d="M230.465 630.33C230.233 621.599 222.966 614.709 214.234 614.942L200.472 615.308C189.344 615.604 182.804 627.938 188.801 637.316C190.911 640.615 194.281 642.904 198.125 643.651L211.64 646.276C221.571 648.205 230.735 640.443 230.465 630.33Z" fill="#BED4DE"/>
<path d="M224.398 595.497C224.214 588.595 218.47 583.149 211.568 583.333L200.689 583.623C191.893 583.857 186.723 593.606 191.464 601.019C193.131 603.627 195.795 605.437 198.834 606.027L209.517 608.102C217.367 609.627 224.611 603.491 224.398 595.497Z" fill="#BED4DE"/>
<path d="M286.493 662.065C286.258 653.231 278.904 646.191 270.071 646.426L249.771 646.967C238.353 647.271 231.988 660.285 238.756 669.484C240.943 672.456 244.205 674.456 247.846 675.056L267.898 678.363C277.812 679.998 286.76 672.11 286.493 662.065Z" fill="#BED4DE"/>
<path d="M215.247 669.699C215.012 660.865 207.66 653.895 198.827 654.131L179.608 654.642C167.367 654.968 160.014 668.364 166.312 678.866L168.009 681.696C170.303 685.52 174.089 688.214 178.454 689.127L196.163 692.833C206.274 694.949 215.71 687.072 215.435 676.746L215.247 669.699Z" fill="#BED4DE"/>
<path d="M248.79 729.503C257.196 726.779 261.802 717.756 259.078 709.35L253.151 691.061C249.376 679.411 234.448 676.148 226.156 685.16L223.922 687.588C220.902 690.87 219.389 695.263 219.748 699.708L221.203 717.743C222.033 728.039 232.257 734.861 242.083 731.677L248.79 729.503Z" fill="#BED4DE"/>
<path d="M205.476 718.543C205.241 709.71 197.889 702.74 189.056 702.975L169.837 703.487C157.596 703.813 150.243 717.208 156.541 727.71L158.238 730.54C160.532 734.364 164.318 737.058 168.683 737.972L186.393 741.677C196.503 743.793 205.939 735.916 205.664 725.591L205.476 718.543Z" fill="#BED4DE"/>
<path d="M249.533 754.242C249.297 745.408 241.946 738.438 233.112 738.674L213.893 739.185C201.652 739.511 194.3 752.907 200.598 763.409L202.295 766.239C204.588 770.063 208.374 772.757 212.739 773.67L230.449 777.376C240.56 779.492 249.995 771.615 249.72 761.289L249.533 754.242Z" fill="#BED4DE"/>
<path d="M189.313 765.929C189.077 757.096 181.726 750.126 172.892 750.361L150.507 750.957C139.034 751.262 131.605 763.191 136.391 773.623L142.879 787.766C144.83 792.019 148.545 795.205 153.045 796.484L169.458 801.152C179.846 804.107 190.117 796.133 189.83 785.337L189.313 765.929Z" fill="#BED4DE"/>
<path d="M371.534 1033.39C364.107 1028.61 361.966 1018.7 366.753 1011.28L380.776 989.519C387.181 979.58 401.783 979.784 407.91 989.897L414.488 1000.76C416.871 1004.69 417.446 1009.46 416.066 1013.85L409.746 1033.95C406.578 1044.02 394.691 1048.32 385.815 1042.6L371.534 1033.39Z" fill="#BED4DE"/>
<path d="M386.344 963.601C379.002 958.869 376.886 949.081 381.618 941.74L389.076 930.167C395.106 920.811 409.043 921.624 413.944 931.618C415.669 935.134 415.876 939.203 414.519 942.876L409.746 955.79C406.239 965.279 394.847 969.081 386.344 963.601Z" fill="#BED4DE"/>
<path d="M422.888 1048C415.852 1043.46 413.824 1034.08 418.359 1027.05L428.986 1010.56C434.829 1001.49 448.461 1002.78 452.51 1012.77C453.808 1015.97 453.808 1019.56 452.511 1022.76L445.149 1040.95C441.582 1049.76 430.878 1053.15 422.888 1048Z" fill="#BED4DE"/>
<path d="M419.149 991.303C411.721 986.516 409.581 976.615 414.368 969.187L424.783 953.027C431.417 942.734 446.683 943.404 452.389 954.239L453.926 957.159C456.005 961.105 456.341 965.739 454.856 969.944L448.829 987.004C445.388 996.743 433.757 1000.72 425.075 995.123L419.149 991.303Z" fill="#BED4DE"/>
<path d="M496.343 1059.25C489.65 1065.02 479.547 1064.27 473.777 1057.58L461.223 1043.02C453.227 1033.74 458.188 1019.29 470.194 1016.88L473.43 1016.23C477.802 1015.35 482.342 1016.34 485.955 1018.96L500.614 1029.56C508.982 1035.62 509.505 1047.9 501.682 1054.64L496.343 1059.25Z" fill="#BED4DE"/>
<path d="M459.433 979.651C461.267 971.007 469.762 965.487 478.406 967.322L497.213 971.314C509.192 973.856 513.991 988.364 505.891 997.548L503.708 1000.02C500.759 1003.37 496.547 1005.33 492.088 1005.44L474 1005.87C463.674 1006.11 455.824 996.652 457.969 986.548L459.433 979.651Z" fill="#BED4DE"/>
<path d="M519.74 1073.5C512.313 1068.72 510.172 1058.81 514.959 1051.39L525.374 1035.23C532.008 1024.93 547.274 1025.6 552.98 1036.44L554.518 1039.36C556.596 1043.3 556.933 1047.94 555.447 1052.14L549.42 1069.2C545.979 1078.94 534.348 1082.92 525.666 1077.32L519.74 1073.5Z" fill="#BED4DE"/>
<path d="M513.459 1030.3C506.032 1025.52 503.891 1015.61 508.678 1008.19L520.809 989.364C527.027 979.718 541.079 979.561 547.51 989.067L556.23 1001.95C558.851 1005.83 559.646 1010.66 558.403 1015.17L553.871 1031.62C551.003 1042.03 538.856 1046.67 529.778 1040.82L513.459 1030.3Z" fill="#BED4DE"/>
<path d="M264.841 811.165C266.039 802.41 259.913 794.342 251.159 793.143L212.432 787.841C200.096 786.153 190.644 798.58 195.564 810.017L200.545 821.595C202.276 825.618 205.581 828.756 209.688 830.277L240.989 841.863C250.587 845.416 261.007 839.168 262.395 829.028L264.841 811.165Z" fill="#BED4DE"/>
<path d="M225.68 853.684C216.977 854.43 210.527 862.09 211.274 870.793L212.45 884.51C213.401 895.601 226.098 901.404 235.106 894.865C238.276 892.564 240.363 889.065 240.882 885.184L242.707 871.538C244.048 861.511 235.76 852.82 225.68 853.684Z" fill="#BED4DE"/>
<path d="M295.452 852.386C293.432 843.889 284.905 838.638 276.407 840.658L263.013 843.842C252.183 846.417 248.314 859.83 256.109 867.777C258.851 870.572 262.62 872.122 266.535 872.063L280.301 871.858C290.417 871.707 297.792 862.229 295.452 852.386Z" fill="#BED4DE"/>
<path d="M283.701 924.196C288.29 916.645 285.889 906.803 278.338 902.213L261.909 892.228C251.444 885.868 238.005 893.141 237.607 905.38L237.5 908.678C237.355 913.136 239.077 917.451 242.25 920.585L255.125 933.296C262.476 940.554 274.675 939.048 280.039 930.221L283.701 924.196Z" fill="#BED4DE"/>
<path d="M161.432 816.509C154.742 822.282 153.997 832.385 159.769 839.076L178.633 860.942C186.547 870.115 201.557 866.08 203.805 854.175C204.467 850.668 203.809 847.039 201.957 843.987L186.902 819.17C181.769 810.71 170.264 808.891 162.771 815.355L161.432 816.509Z" fill="#BED4DE"/>
<path d="M293.056 872.507C285.202 876.557 282.119 886.207 286.169 894.061L294.98 911.149C300.593 922.032 315.852 922.834 322.575 912.599L324.386 909.841C326.834 906.113 327.615 901.533 326.541 897.204L322.184 879.644C319.697 869.618 308.503 864.542 299.322 869.276L293.056 872.507Z" fill="#BED4DE"/>
<path d="M332.904 910.107C328.762 917.912 331.733 927.598 339.539 931.739L356.523 940.75C367.34 946.489 380.332 938.445 380.016 926.203L379.931 922.905C379.816 918.446 377.845 914.238 374.495 911.296L360.9 899.356C353.139 892.539 341.049 894.754 336.208 903.879L332.904 910.107Z" fill="#BED4DE"/>
<path d="M319.671 926.848C313.733 920.305 303.614 919.814 297.071 925.753L282.834 938.673C273.765 946.903 276.926 961.853 288.549 965.708L291.681 966.747C295.914 968.151 300.541 967.724 304.446 965.57L320.289 956.832C329.334 951.843 331.351 939.718 324.409 932.069L319.671 926.848Z" fill="#BED4DE"/>
<path d="M362.325 948.848C356.387 942.305 346.268 941.814 339.724 947.753L323.142 962.802C314.643 970.515 316.789 984.403 327.22 989.191L341.361 995.683C345.614 997.635 350.507 997.628 354.754 995.663L370.241 988.499C380.043 983.965 382.63 971.222 375.373 963.225L362.325 948.848Z" fill="#BED4DE"/>
<path d="M1129.93 907.073C1128.7 906.028 1126.53 903.81 1126.49 903.849C1126.67 904.464 1127.36 905.752 1128.11 908.52C1128.37 909.478 1127.3 911.052 1124.84 911.389C1122.43 911.71 1121.01 910.783 1120.95 909.205C1120.89 908.057 1120.88 906.906 1120.95 905.759C1120.92 905.916 1119.89 907.184 1118.51 908.786C1116.81 910.764 1115.15 909.102 1114.07 907.756C1112.74 906.09 1112.05 904.683 1114.25 902.99C1114.27 902.969 1114.49 902.829 1114.91 902.539C1115.58 902.084 1115.99 901.812 1116.29 901.612C1117.06 901.116 1117.66 900.68 1118.05 900.394C1117.81 900.424 1116.51 899.72 1113.8 898.837C1112.71 898.259 1110.88 897.437 1112.09 894.547C1113.24 891.852 1114.44 891.203 1115.72 892.041C1118.26 893.719 1119.75 894.517 1119.79 894.609C1119.22 892.56 1118.81 891.809 1118.44 890.303C1118.07 888.797 1120.26 887.941 1122.02 887.706C1123.54 887.649 1125.41 887.699 1125.56 889.658C1125.69 891.262 1125.19 893.703 1125.4 893.776C1125.61 893.848 1126.73 891.687 1127.9 890.366C1129.27 888.809 1131.33 889.94 1132.49 891.349C1133.65 892.749 1134.49 894.655 1132.59 895.99C1130.12 897.726 1128.39 898.742 1128.39 898.742C1129.34 899.127 1131.29 900.018 1133.21 900.912C1134.3 901.431 1134.69 901.955 1134.93 902.568C1135.38 903.733 1134.69 904.961 1134.17 905.822C1132.59 908.434 1131.04 908.018 1129.93 907.073Z" fill="#FFD465"/>
<path d="M1451.93 796.073C1450.7 795.028 1448.53 792.81 1448.49 792.849C1448.67 793.464 1449.36 794.752 1450.11 797.52C1450.37 798.478 1449.3 800.052 1446.84 800.389C1444.43 800.71 1443.01 799.783 1442.95 798.205C1442.89 797.057 1442.88 795.906 1442.95 794.759C1442.92 794.916 1441.89 796.184 1440.51 797.786C1438.81 799.764 1437.15 798.102 1436.07 796.756C1434.74 795.09 1434.05 793.683 1436.25 791.99C1436.27 791.969 1436.49 791.829 1436.91 791.539C1437.58 791.084 1437.99 790.812 1438.29 790.612C1439.06 790.116 1439.66 789.68 1440.05 789.394C1439.81 789.424 1438.51 788.72 1435.8 787.837C1434.71 787.259 1432.88 786.437 1434.09 783.547C1435.24 780.852 1436.44 780.203 1437.72 781.041C1440.26 782.719 1441.75 783.517 1441.79 783.609C1441.22 781.56 1440.81 780.809 1440.44 779.303C1440.07 777.797 1442.26 776.941 1444.02 776.706C1445.54 776.649 1447.41 776.699 1447.56 778.658C1447.69 780.262 1447.19 782.703 1447.4 782.776C1447.61 782.848 1448.73 780.687 1449.9 779.366C1451.27 777.809 1453.33 778.94 1454.49 780.349C1455.65 781.749 1456.49 783.655 1454.59 784.99C1452.12 786.726 1450.39 787.742 1450.39 787.742C1451.34 788.127 1453.29 789.018 1455.21 789.912C1456.3 790.431 1456.69 790.955 1456.93 791.568C1457.38 792.733 1456.69 793.961 1456.17 794.822C1454.59 797.434 1453.04 797.018 1451.93 796.073Z" fill="#FFD465"/>
<path d="M883.934 835.073C882.702 834.028 880.525 831.81 880.487 831.849C880.674 832.464 881.36 833.752 882.109 836.52C882.371 837.478 881.302 839.052 878.837 839.389C876.432 839.71 875.01 838.783 874.947 837.205C874.889 836.057 874.884 834.906 874.948 833.759C874.918 833.916 873.89 835.184 872.511 836.786C870.813 838.764 869.151 837.102 868.073 835.756C866.742 834.09 866.047 832.683 868.249 830.99C868.272 830.969 868.487 830.829 868.911 830.539C869.583 830.084 869.993 829.812 870.292 829.612C871.056 829.116 871.659 828.68 872.052 828.394C871.811 828.424 870.51 827.72 867.8 826.837C866.711 826.259 864.881 825.437 866.093 822.547C867.239 819.852 868.444 819.203 869.716 820.041C872.261 821.719 873.748 822.517 873.789 822.609C873.217 820.56 872.815 819.809 872.441 818.303C872.067 816.797 874.255 815.941 876.023 815.706C877.537 815.649 879.41 815.699 879.565 817.658C879.694 819.262 879.19 821.703 879.399 821.776C879.609 821.848 880.726 819.687 881.898 818.366C883.274 816.809 885.331 817.94 886.492 819.349C887.649 820.749 888.49 822.655 886.594 823.99C884.123 825.726 882.394 826.742 882.394 826.742C883.342 827.127 885.291 828.018 887.208 828.912C888.304 829.431 888.694 829.955 888.934 830.568C889.377 831.733 888.685 832.961 888.172 833.822C886.591 836.434 885.043 836.018 883.934 835.073Z" fill="#FFD465"/>
<path d="M527.367 882.973C526.194 881.978 524.121 879.865 524.085 879.902C524.262 880.488 524.916 881.715 525.629 884.351C525.879 885.263 524.86 886.762 522.513 887.083C520.223 887.389 518.869 886.506 518.809 885.003C518.753 883.909 518.749 882.814 518.809 881.721C518.781 881.871 517.802 883.079 516.489 884.605C514.872 886.488 513.289 884.905 512.262 883.623C510.995 882.037 510.333 880.697 512.43 879.085C512.452 879.064 512.656 878.931 513.061 878.655C513.7 878.222 514.091 877.963 514.375 877.772C515.103 877.3 515.678 876.885 516.052 876.612C515.822 876.641 514.583 875.97 512.002 875.129C510.965 874.58 509.223 873.797 510.377 871.044C511.468 868.478 512.616 867.86 513.827 868.658C516.25 870.256 517.666 871.016 517.706 871.104C517.161 869.153 516.778 868.437 516.422 867.003C516.066 865.569 518.15 864.754 519.833 864.529C521.275 864.476 523.059 864.523 523.206 866.388C523.33 867.916 522.849 870.241 523.049 870.31C523.248 870.379 524.312 868.321 525.428 867.063C526.739 865.58 528.697 866.657 529.803 867.999C530.905 869.332 531.706 871.148 529.9 872.419C527.547 874.072 525.9 875.039 525.9 875.039C526.803 875.406 528.659 876.255 530.485 877.106C531.529 877.6 531.9 878.099 532.129 878.682C532.55 879.792 531.891 880.962 531.403 881.782C529.898 884.269 528.423 883.873 527.367 882.973Z" fill="#FFD465"/>
<path d="M346.934 735.073C345.702 734.028 343.525 731.81 343.487 731.849C343.674 732.464 344.36 733.752 345.109 736.52C345.371 737.478 344.302 739.053 341.837 739.389C339.432 739.71 338.01 738.784 337.947 737.205C337.889 736.057 337.884 734.906 337.948 733.759C337.918 733.916 336.89 735.185 335.511 736.787C333.813 738.764 332.151 737.102 331.073 735.756C329.742 734.09 329.047 732.684 331.249 730.991C331.272 730.969 331.487 730.829 331.911 730.54C332.583 730.084 332.993 729.812 333.292 729.612C334.056 729.116 334.659 728.68 335.052 728.394C334.811 728.424 333.51 727.72 330.8 726.837C329.711 726.26 327.881 725.438 329.093 722.547C330.239 719.852 331.444 719.203 332.716 720.042C335.261 721.719 336.748 722.517 336.789 722.61C336.217 720.561 335.815 719.81 335.441 718.304C335.067 716.798 337.255 715.942 339.023 715.706C340.537 715.65 342.41 715.699 342.565 717.658C342.694 719.262 342.19 721.703 342.399 721.776C342.609 721.848 343.726 719.687 344.898 718.366C346.274 716.809 348.331 717.94 349.492 719.349C350.649 720.749 351.49 722.656 349.594 723.991C347.123 725.726 345.394 726.742 345.394 726.742C346.342 727.128 348.291 728.019 350.208 728.912C351.304 729.431 351.694 729.955 351.934 730.568C352.377 731.733 351.685 732.962 351.172 733.822C349.591 736.434 348.043 736.018 346.934 735.073Z" fill="#FFD465"/>
<defs>
<filter id="filter0_d_244_2892" x="-235" y="0" width="2029.01" height="1249" filterUnits="userSpaceOnUse" color-interpolation-filters="sRGB">
<feFlood flood-opacity="0" result="BackgroundImageFix"/>
<feColorMatrix in="SourceAlpha" type="matrix" values="0 0 0 0 0 0 0 0 0 0 0 0 0 0 0 0 0 0 127 0" result="hardAlpha"/>
<feOffset dy="4"/>
<feGaussianBlur stdDeviation="2"/>
<feComposite in2="hardAlpha" operator="out"/>
<feColorMatrix type="matrix" values="0 0 0 0 0 0 0 0 0 0 0 0 0 0 0 0 0 0 0.25 0"/>
<feBlend mode="normal" in2="BackgroundImageFix" result="effect1_dropShadow_244_2892"/>
<feBlend mode="normal" in="SourceGraphic" in2="effect1_dropShadow_244_2892" result="shape"/>
</filter>
</defs>
</svg>
