<svg width="1440" height="810" viewBox="0 0 1440 810" fill="none" xmlns="http://www.w3.org/2000/svg">
<path d="M1465.49 283C955.488 9.00032 174.227 122.041 -44.5123 249C-263.252 375.96 -94.0403 810 -94.0403 810H1623.74C1623.74 810 1975.49 557 1465.49 283Z" fill="#77B06D"/>
<path d="M349.944 223.239C348.318 214.554 354.041 206.195 362.727 204.569L386 200.212C398.238 197.921 408.288 209.87 403.934 221.534L402.613 225.071C401.081 229.174 397.935 232.47 393.907 234.19L373.437 242.93C364.024 246.949 353.31 241.22 351.427 231.16L349.944 223.239Z" fill="#BED4DE"/>
<path d="M410.373 229.186C409.062 222.187 413.674 215.45 420.673 214.14L431.705 212.075C440.626 210.405 447.951 219.115 444.777 227.617C443.661 230.608 441.367 233.01 438.431 234.264L428.109 238.671C420.524 241.91 411.89 237.293 410.373 229.186Z" fill="#BED4DE"/>
<path d="M382.373 255.91C381.062 248.911 385.674 242.174 392.673 240.864L403.705 238.799C412.626 237.129 419.951 245.839 416.777 254.341C415.661 257.331 413.367 259.734 410.431 260.988L400.109 265.395C392.524 268.634 383.89 264.016 382.373 255.91Z" fill="#BED4DE"/>
<path d="M425.194 262.021C423.61 253.562 429.184 245.422 437.642 243.838L448.448 241.815C459.202 239.802 468.139 250.123 464.609 260.479C463.324 264.25 460.522 267.314 456.881 268.932L446.834 273.394C437.64 277.477 427.045 271.908 425.194 262.021Z" fill="#BED4DE"/>
<path d="M399.867 297.709C398.284 289.251 403.857 281.11 412.315 279.527L423.121 277.504C433.875 275.491 442.812 285.812 439.282 296.168C437.997 299.939 435.196 303.003 431.554 304.62L421.507 309.082C412.314 313.165 401.718 307.597 399.867 297.709Z" fill="#BED4DE"/>
<path d="M445.867 297.709C444.284 289.251 449.857 281.11 458.315 279.527L469.121 277.504C479.875 275.491 488.812 285.812 485.282 296.168C483.997 299.939 481.196 303.003 477.554 304.62L467.507 309.082C458.314 313.165 447.718 307.597 445.867 297.709Z" fill="#BED4DE"/>
<path d="M416.867 333.709C415.284 325.251 420.857 317.11 429.315 315.527L440.121 313.504C450.875 311.491 459.812 321.812 456.282 332.168C454.997 335.939 452.196 339.003 448.554 340.62L438.507 345.082C429.314 349.165 418.718 343.597 416.867 333.709Z" fill="#BED4DE"/>
<path d="M466.944 333.121C465.318 324.435 471.041 316.076 479.727 314.45L490.365 312.458C501.647 310.346 511.416 320.448 508.929 331.652L507.446 338.337C506.432 342.904 503.47 346.799 499.339 348.996L491.812 352.999C482.276 358.07 470.559 352.432 468.572 341.817L466.944 333.121Z" fill="#BED4DE"/>
<path d="M935.73 252.107C936.643 251.332 938.257 249.687 938.285 249.716C938.147 250.172 937.638 251.128 937.083 253.18C936.889 253.89 937.681 255.057 939.509 255.307C941.292 255.545 942.346 254.858 942.393 253.687C942.436 252.836 942.439 251.983 942.392 251.133C942.414 251.249 943.177 252.19 944.199 253.377C945.458 254.843 946.69 253.611 947.489 252.613C948.476 251.378 948.992 250.335 947.359 249.08C947.342 249.064 947.183 248.96 946.868 248.746C946.37 248.408 946.066 248.206 945.844 248.058C945.278 247.69 944.831 247.367 944.539 247.155C944.718 247.177 945.683 246.655 947.692 246C948.499 245.572 949.856 244.963 948.957 242.82C948.108 240.822 947.214 240.341 946.271 240.962C944.385 242.206 943.282 242.798 943.252 242.866C943.676 241.347 943.974 240.79 944.251 239.674C944.528 238.557 942.906 237.923 941.595 237.748C940.472 237.706 939.084 237.743 938.969 239.195C938.873 240.384 939.247 242.194 939.092 242.248C938.936 242.302 938.108 240.7 937.239 239.72C936.219 238.566 934.694 239.404 933.833 240.449C932.975 241.487 932.352 242.9 933.758 243.89C935.59 245.177 936.872 245.93 936.872 245.93C936.169 246.216 934.724 246.876 933.302 247.539C932.49 247.924 932.201 248.312 932.023 248.767C931.694 249.63 932.207 250.541 932.588 251.179C933.76 253.116 934.908 252.808 935.73 252.107Z" fill="#EFC55A"/>
<path d="M1165.73 231.107C1166.64 230.332 1168.26 228.687 1168.29 228.716C1168.15 229.172 1167.64 230.128 1167.08 232.18C1166.89 232.89 1167.68 234.057 1169.51 234.307C1171.29 234.545 1172.35 233.858 1172.39 232.687C1172.44 231.836 1172.44 230.983 1172.39 230.133C1172.41 230.249 1173.18 231.19 1174.2 232.377C1175.46 233.843 1176.69 232.611 1177.49 231.613C1178.48 230.378 1178.99 229.335 1177.36 228.08C1177.34 228.064 1177.18 227.96 1176.87 227.746C1176.37 227.408 1176.07 227.206 1175.84 227.058C1175.28 226.69 1174.83 226.367 1174.54 226.155C1174.72 226.177 1175.68 225.655 1177.69 225C1178.5 224.572 1179.86 223.963 1178.96 221.82C1178.11 219.822 1177.21 219.341 1176.27 219.962C1174.38 221.206 1173.28 221.798 1173.25 221.866C1173.68 220.347 1173.97 219.79 1174.25 218.674C1174.53 217.557 1172.91 216.923 1171.6 216.748C1170.47 216.706 1169.08 216.743 1168.97 218.195C1168.87 219.384 1169.25 221.194 1169.09 221.248C1168.94 221.302 1168.11 219.7 1167.24 218.72C1166.22 217.566 1164.69 218.404 1163.83 219.449C1162.98 220.487 1162.35 221.9 1163.76 222.89C1165.59 224.177 1166.87 224.93 1166.87 224.93C1166.17 225.216 1164.72 225.876 1163.3 226.539C1162.49 226.924 1162.2 227.312 1162.02 227.767C1161.69 228.63 1162.21 229.541 1162.59 230.179C1163.76 232.116 1164.91 231.808 1165.73 231.107Z" fill="#EFC55A"/>
<path d="M290.077 300.073C291.309 299.028 293.485 296.81 293.523 296.849C293.337 297.464 292.651 298.752 291.902 301.52C291.64 302.478 292.709 304.053 295.174 304.389C297.578 304.71 299.001 303.784 299.063 302.205C299.122 301.057 299.127 299.906 299.063 298.759C299.093 298.916 300.121 300.185 301.5 301.787C303.198 303.764 304.86 302.102 305.938 300.756C307.269 299.09 307.964 297.684 305.762 295.991C305.739 295.969 305.524 295.829 305.1 295.54C304.428 295.084 304.017 294.812 303.719 294.612C302.955 294.116 302.352 293.68 301.959 293.394C302.2 293.424 303.501 292.72 306.211 291.837C307.3 291.26 309.13 290.438 307.917 287.547C306.772 284.852 305.567 284.203 304.295 285.042C301.75 286.719 300.263 287.517 300.222 287.61C300.794 285.561 301.196 284.81 301.57 283.304C301.944 281.798 299.756 280.942 297.988 280.706C296.473 280.65 294.601 280.699 294.446 282.658C294.317 284.262 294.821 286.703 294.611 286.776C294.402 286.848 293.284 284.687 292.113 283.366C290.737 281.809 288.68 282.94 287.519 284.349C286.362 285.749 285.521 287.656 287.417 288.991C289.888 290.726 291.617 291.742 291.617 291.742C290.669 292.128 288.72 293.019 286.803 293.912C285.707 294.431 285.317 294.955 285.077 295.568C284.634 296.733 285.326 297.962 285.839 298.822C287.419 301.434 288.968 301.018 290.077 300.073Z" fill="#FFD465"/>
<path d="M141.248 277.994C139.791 277.296 136.878 276.213 136.898 276.163C137.535 276.082 138.992 276.183 141.824 275.738C142.806 275.586 143.807 273.967 143.109 271.58C142.421 269.253 140.995 268.333 139.528 268.92C138.456 269.334 137.404 269.8 136.382 270.326C136.514 270.235 137.252 268.778 138.152 266.866C139.265 264.509 137.07 263.669 135.401 263.234C133.337 262.698 131.769 262.638 131.122 265.339C131.112 265.369 131.071 265.622 130.98 266.128C130.838 266.927 130.758 267.412 130.697 267.766C130.555 268.667 130.403 269.395 130.302 269.871C130.231 269.638 129.058 268.738 127.146 266.623C126.175 265.865 124.678 264.529 122.533 266.815C120.54 268.96 120.439 270.326 121.724 271.145C124.293 272.784 125.629 273.816 125.73 273.816C123.626 274.129 122.776 274.069 121.248 274.342C119.721 274.615 119.832 276.962 120.338 278.671C120.905 280.078 121.714 281.767 123.565 281.109C125.082 280.573 127.106 279.117 127.257 279.278C127.409 279.44 125.892 281.342 125.163 282.951C124.303 284.842 126.175 286.258 127.935 286.744C129.685 287.23 131.769 287.219 132.214 284.943C132.791 281.979 133.013 279.987 133.013 279.987C133.752 280.695 135.36 282.111 136.959 283.497C137.879 284.286 138.516 284.427 139.174 284.397C140.418 284.326 141.258 283.193 141.835 282.374C143.574 279.865 142.563 278.621 141.248 277.994Z" fill="#FFD465"/>
<path d="M705.57 217.43C705.068 216.418 703.931 214.569 703.964 214.55C704.349 214.779 705.108 215.462 706.858 216.436C707.463 216.775 708.711 216.316 709.354 214.701C709.977 213.125 709.589 212.004 708.529 211.696C707.76 211.462 706.981 211.266 706.192 211.115C706.304 211.122 707.337 210.638 708.656 209.974C710.283 209.155 709.436 207.748 708.705 206.791C707.8 205.607 706.963 204.899 705.444 206.107C705.426 206.119 705.294 206.241 705.027 206.48C704.605 206.859 704.351 207.091 704.165 207.26C703.7 207.694 703.303 208.03 703.043 208.248C703.104 208.089 702.846 207.089 702.703 205.102C702.496 204.267 702.246 202.888 700.082 203.223C698.062 203.545 697.419 204.253 697.773 205.257C698.482 207.265 698.772 208.407 698.828 208.451C697.535 207.718 697.094 207.319 696.136 206.812C695.177 206.304 694.228 207.644 693.771 208.802C693.477 209.82 693.196 211.098 694.497 211.533C695.563 211.891 697.304 211.96 697.317 212.115C697.331 212.269 695.678 212.662 694.585 213.234C693.297 213.905 693.717 215.49 694.477 216.515C695.231 217.535 696.382 218.427 697.607 217.366C699.2 215.983 700.18 214.982 700.18 214.982C700.282 215.689 700.557 217.161 700.84 218.612C701.007 219.442 701.297 219.794 701.672 220.061C702.387 220.557 703.337 220.295 704.007 220.093C706.044 219.461 706.023 218.341 705.57 217.43Z" fill="#FFD465"/>
<g filter="url(#filter0_d_195_2019)">
<path d="M393.378 2.30295V2.36751L391.306 6.29089C391.052 6.53424 390.779 6.78753 390.486 7.01101C389.586 7.74785 388.606 8.38091 387.564 8.8982C387.268 9.04589 387.017 9.27044 386.838 9.54831C386.659 9.82618 386.558 10.1471 386.545 10.4775L386.078 23.5091C386.061 23.9697 385.873 24.4073 385.549 24.7355C385.225 25.0638 384.79 25.2588 384.329 25.2821C380.851 25.4459 372.403 26.6379 363.006 33.69C363.006 33.69 361.048 34.8074 360.482 43.722V48.4797C360.483 48.7558 360.422 49.0285 360.303 49.2778C360.184 49.5271 360.011 49.7465 359.796 49.9199C357.53 51.7177 350.712 57.866 355.523 63.2147C355.825 63.5502 355.993 63.9851 355.995 64.4364V67.3765C355.994 67.7728 355.866 68.1584 355.628 68.476C355.391 68.7936 355.058 69.0263 354.678 69.1395L339.363 73.7334C339.225 73.7734 339.083 73.7983 338.94 73.8079L266.956 77.9895C266.815 77.9994 266.675 78.0244 266.539 78.064L207.624 95.6696C207.337 95.7565 207.075 95.9117 206.861 96.1219C206.648 96.3321 206.488 96.591 206.396 96.8764L204.598 102.533C204.499 102.838 204.482 103.163 204.548 103.477L206.367 112.009C206.396 112.146 206.406 112.286 206.396 112.426C205.094 138.986 203.791 165.544 202.486 192.1C202.483 192.128 202.483 192.157 202.486 192.185C202.863 193.863 203.78 195.37 205.097 196.477C206.414 197.584 208.057 198.229 209.775 198.313L336.326 201.119L467.936 199.719H582.377H582.467C584.479 199.119 586.268 197.937 587.608 196.322C588.949 194.708 589.781 192.732 590 190.645V190.586C588.145 164.314 586.288 138.029 584.429 111.731C584.409 111.495 584.445 111.259 584.534 111.04C587.804 102.8 588.885 98.3613 587.779 97.7256C587.642 97.6682 587.495 97.642 587.347 97.6488C587.199 97.6557 587.055 97.6955 586.924 97.7653C586.553 97.9071 586.142 97.9071 585.771 97.7653L582.715 96.6976C564.495 90.3407 546.33 84.2272 528.223 78.357C528.071 78.3072 527.914 78.2772 527.756 78.2676L452.109 74.086L451.811 74.0413L435.79 70.4854C435.367 70.3912 434.99 70.1508 434.727 69.8066C434.463 69.4623 434.33 69.0362 434.349 68.6032L434.533 64.352C434.546 63.9688 434.678 63.5992 434.911 63.2942C436.029 61.854 438.921 56.6691 429.405 50.0739C429.114 49.8751 428.888 49.5958 428.754 49.2703C428.619 48.9447 428.583 48.5871 428.65 48.2413C429.32 44.7649 430.498 34.5492 422.001 30.3626L421.872 30.2881C420.429 29.3612 418.914 28.5539 417.34 27.8745C413.67 26.3087 409.74 25.4445 405.751 25.3268C405.276 25.3141 404.823 25.1185 404.488 24.7809C404.153 24.4433 403.961 23.9895 403.953 23.5141L403.803 10.9145C403.798 10.5419 403.681 10.1796 403.466 9.87477C403.252 9.56999 402.95 9.33696 402.601 9.20612C401.453 8.7763 400.392 8.14566 399.465 7.34375C398.193 6.26259 397.218 4.87449 396.633 3.31111C396.538 3.05286 396.469 2.81447 396.419 2.65059L393.602 2L393.463 2.17382C393.425 2.20989 393.396 2.25405 393.378 2.30295Z" fill="#E2D1B7" stroke="#294E25" stroke-width="2.61255" stroke-miterlimit="10"/>
<path d="M384.262 25.2685C386.657 24.2343 394.418 22.7865 406.305 25.2685" stroke="#254E1E" stroke-width="2.61255"/>
<path d="M471.489 81.4608L473.546 83.05L473.686 85.0117L472.284 86.5562H317.245C314.72 84.5697 315.983 83.05 315.983 83.05L336.898 74.2C336.898 74.2 371.653 62.7179 394.963 60.051C394.963 60.051 411.963 63.6963 452.651 74.2149C455.026 74.94 457.481 75.7677 460.015 76.6981C464.16 78.2029 468.011 79.8219 471.489 81.4608Z" fill="#E1CEB1" stroke="#294E25" stroke-width="2.61255" stroke-miterlimit="10"/>
<path d="M206.824 95.6245C206.824 95.6245 206.883 95.6593 206.888 95.7139C206.938 96.1659 202.838 96.1311 202.148 97.7253C201.715 98.7185 202.148 100.343 204.578 102.955C204.578 102.955 233.484 98.1474 319.367 93.3798V86.5114C311.282 86.9236 297.875 87.6486 281.233 88.7511C230.562 92.1084 206.784 95.2024 206.824 95.6245Z" fill="#E1CEB1" stroke="#294E25" stroke-width="2.61255" stroke-miterlimit="10"/>
<path d="M583.103 95.6245C583.103 95.6245 583.043 95.6593 583.038 95.7139C582.988 96.1659 587.088 96.1311 587.779 97.7253C588.211 98.7185 587.779 100.343 585.349 102.955C585.349 102.955 556.443 98.1474 470.56 93.3798V86.5114C478.645 86.9236 492.052 87.6486 508.694 88.7511C559.365 92.1084 583.142 95.2024 583.103 95.6245Z" fill="#E1CEB1" stroke="#294E25" stroke-width="2.61255" stroke-miterlimit="10"/>
<path d="M261.132 78.8439C261.132 78.8439 278.808 76.7382 336.898 74.2153L317.886 82.2508L315.992 83.0504L315.853 85.0121L317.255 86.5566C317.255 86.5566 272.497 88.3793 206.411 95.6698C206.411 95.6698 229.141 88.1061 261.132 78.8439Z" fill="#96805E" stroke="#294E25" stroke-width="2.61255" stroke-miterlimit="10"/>
<path d="M528.416 78.8437C528.416 78.8437 510.746 76.738 452.651 74.2002L471.941 81.6993L473.556 83.0353L473.695 84.9969L472.294 86.5415C472.294 86.5415 517.052 88.3641 583.137 95.6546C583.137 95.6695 560.408 88.1059 528.416 78.8437Z" fill="#96805E" stroke="#294E25" stroke-width="2.61255" stroke-miterlimit="10"/>
<path d="M321.121 154.565L321.389 106.476C321.393 105.985 321.203 105.512 320.859 105.16C320.516 104.808 320.047 104.607 319.555 104.599C294.953 104.231 220.226 110.951 208.086 112.048C207.63 112.086 207.176 111.955 206.809 111.68C206.443 111.406 206.19 111.007 206.098 110.559L204.98 104.902C204.931 104.651 204.934 104.393 204.989 104.144C205.044 103.894 205.149 103.659 205.299 103.451C205.448 103.244 205.639 103.07 205.858 102.939C206.078 102.809 206.322 102.725 206.575 102.692C261.371 95.6447 307.992 93.7525 317.568 93.4297C318.051 93.413 318.508 93.2094 318.844 92.8619C319.179 92.5145 319.367 92.0503 319.367 91.5673V88.3641C319.367 87.8701 319.563 87.3964 319.912 87.0472C320.262 86.6979 320.736 86.5017 321.23 86.5017H468.841C469.312 86.5017 469.765 86.68 470.11 87.0006C470.455 87.3213 470.665 87.7605 470.699 88.23L470.957 91.7809C470.989 92.2241 471.178 92.6414 471.491 92.9575C471.803 93.2735 472.219 93.4674 472.662 93.5042L584.638 102.895C585.095 102.934 585.521 103.139 585.836 103.472C586.065 103.711 586.225 104.007 586.302 104.329C586.377 104.651 586.366 104.988 586.268 105.304L584.852 109.908C584.725 110.323 584.457 110.681 584.094 110.919C583.731 111.158 583.296 111.262 582.864 111.214C574.695 110.38 534.047 106.476 472.503 104.698C472.251 104.691 472.001 104.734 471.766 104.826C471.532 104.918 471.319 105.056 471.139 105.232C470.959 105.409 470.817 105.619 470.721 105.852C470.625 106.084 470.577 106.334 470.58 106.585L471.077 154.565L473.586 197.812C473.603 198.066 473.568 198.321 473.482 198.561C473.396 198.801 473.262 199.021 473.088 199.208C472.914 199.394 472.703 199.542 472.469 199.644C472.235 199.746 471.983 199.798 471.728 199.798L320.728 200.151C320.472 200.152 320.219 200.1 319.984 200C319.748 199.899 319.537 199.75 319.361 199.564C319.186 199.378 319.051 199.157 318.965 198.916C318.878 198.675 318.843 198.419 318.86 198.164L321.121 154.565Z" fill="#C5AD8A" stroke="#294E25" stroke-width="2.61255" stroke-miterlimit="10"/>
<path d="M390.193 97.631H400.797C401.477 97.6238 402.14 97.8402 402.684 98.2467C403.228 98.6533 403.623 99.2275 403.809 99.8808C403.962 100.415 404.226 100.91 404.584 101.336C405.059 101.909 405.324 102.628 405.334 103.372V151.704C405.334 152.537 405.003 153.335 404.414 153.924C403.825 154.512 403.027 154.843 402.194 154.843H388.817C387.987 154.843 387.191 154.515 386.603 153.931C386.014 153.346 385.681 152.553 385.676 151.724L385.423 103.859C385.422 103.414 385.514 102.974 385.695 102.568C385.876 102.161 386.14 101.797 386.471 101.5C386.913 101.112 387.212 100.587 387.321 100.01C387.447 99.341 387.803 98.7371 388.328 98.3028C388.852 97.8684 389.512 97.6308 390.193 97.631Z" fill="#96805E" stroke="#294E25" stroke-width="2.61255" stroke-miterlimit="10"/>
<path d="M418.537 97.6311H429.142C429.821 97.6233 430.483 97.8395 431.027 98.2462C431.57 98.6529 431.964 99.2275 432.148 99.8808C432.304 100.415 432.57 100.91 432.928 101.336C433.404 101.909 433.668 102.628 433.679 103.372V151.704C433.679 152.537 433.348 153.335 432.759 153.924C432.17 154.512 431.371 154.843 430.538 154.843H417.156C416.327 154.842 415.532 154.513 414.944 153.929C414.356 153.345 414.022 152.553 414.015 151.724L413.762 103.859C413.766 103.414 413.865 102.976 414.05 102.572C414.236 102.168 414.505 101.807 414.84 101.515C415.279 101.124 415.577 100.601 415.69 100.025C415.812 99.3573 416.164 98.7533 416.683 98.3164C417.203 97.8796 417.858 97.6373 418.537 97.6311Z" fill="#96805E" stroke="#294E25" stroke-width="2.61255" stroke-miterlimit="10"/>
<path d="M446.037 97.631H456.641C457.321 97.6238 457.984 97.8402 458.528 98.2467C459.072 98.6533 459.467 99.2275 459.653 99.8808C459.805 100.415 460.069 100.911 460.428 101.336C460.903 101.909 461.168 102.628 461.178 103.372V151.704C461.178 152.537 460.847 153.335 460.258 153.924C459.669 154.512 458.871 154.843 458.038 154.843H444.656C443.826 154.844 443.029 154.517 442.44 153.932C441.852 153.347 441.519 152.553 441.515 151.724L441.257 103.859C441.256 103.414 441.349 102.973 441.531 102.567C441.712 102.16 441.978 101.796 442.31 101.5C442.75 101.11 443.049 100.587 443.16 100.01C443.286 99.3401 443.643 98.7357 444.169 98.3012C444.694 97.8667 445.355 97.6297 446.037 97.631Z" fill="#96805E" stroke="#294E25" stroke-width="2.61255" stroke-miterlimit="10"/>
<path d="M361.496 97.631H372.105C372.784 97.6238 373.447 97.8402 373.992 98.2467C374.536 98.6533 374.931 99.2275 375.116 99.8808C375.27 100.416 375.536 100.912 375.897 101.336C376.37 101.91 376.633 102.628 376.642 103.372V151.704C376.642 152.537 376.311 153.335 375.722 153.924C375.133 154.512 374.334 154.843 373.501 154.843H360.119C359.29 154.843 358.494 154.515 357.906 153.931C357.317 153.346 356.984 152.553 356.979 151.724L356.725 103.859C356.724 103.414 356.817 102.974 356.998 102.568C357.179 102.161 357.443 101.797 357.774 101.5C358.216 101.112 358.515 100.587 358.624 100.01C358.75 99.341 359.106 98.7371 359.63 98.3028C360.155 97.8684 360.815 97.6308 361.496 97.631Z" fill="#96805E" stroke="#294E25" stroke-width="2.61255" stroke-miterlimit="10"/>
<path d="M332.977 98.7538H343.582C344.261 98.7466 344.924 98.963 345.468 99.3695C346.012 99.7761 346.408 100.35 346.593 101.004C346.746 101.538 347.01 102.034 347.368 102.459C347.843 103.032 348.108 103.75 348.118 104.495V152.827C348.118 153.659 347.788 154.458 347.199 155.046C346.61 155.635 345.811 155.966 344.978 155.966H331.601C330.771 155.966 329.975 155.638 329.387 155.053C328.799 154.469 328.466 153.676 328.46 152.847L328.207 104.992C328.204 104.546 328.296 104.106 328.477 103.699C328.658 103.293 328.923 102.929 329.255 102.633C329.695 102.243 329.994 101.719 330.105 101.143C330.229 100.472 330.585 99.8657 331.109 99.4294C331.634 98.9931 332.295 98.754 332.977 98.7538Z" fill="#96805E" stroke="#294E25" stroke-width="2.61255" stroke-miterlimit="10"/>
<path d="M518.133 117.361H509.034C507.038 117.361 505.419 118.938 505.419 120.883V146.496C505.419 148.441 507.038 150.018 509.034 150.018H518.133C520.129 150.018 521.748 148.441 521.748 146.496V120.883C521.748 118.938 520.129 117.361 518.133 117.361Z" fill="#90B7C8" stroke="#294E25" stroke-width="2.61255" stroke-miterlimit="10"/>
<path d="M541.907 117.361H532.939C530.906 117.361 529.259 118.937 529.259 120.881V146.498C529.259 148.442 530.906 150.018 532.939 150.018H541.907C543.94 150.018 545.587 148.442 545.587 146.498V120.881C545.587 118.937 543.94 117.361 541.907 117.361Z" fill="#90B7C8" stroke="#294E25" stroke-width="2.61255" stroke-miterlimit="10"/>
<path d="M565.458 117.361H557.067C554.875 117.361 553.098 118.994 553.098 121.008V146.371C553.098 148.385 554.875 150.018 557.067 150.018H565.458C567.65 150.018 569.427 148.385 569.427 146.371V121.008C569.427 118.994 567.65 117.361 565.458 117.361Z" fill="#90B7C8" stroke="#294E25" stroke-width="2.61255" stroke-miterlimit="10"/>
<path d="M492.943 117.361H487.198C484.275 117.361 481.906 118.86 481.906 120.709V146.671C481.906 148.519 484.275 150.018 487.198 150.018H492.943C495.866 150.018 498.235 148.519 498.235 146.671V120.709C498.235 118.86 495.866 117.361 492.943 117.361Z" fill="#90B7C8" stroke="#294E25" stroke-width="2.61255" stroke-miterlimit="10"/>
<path d="M259.816 117.361H250.718C248.721 117.361 247.103 118.938 247.103 120.883V146.496C247.103 148.441 248.721 150.018 250.718 150.018H259.816C261.813 150.018 263.431 148.441 263.431 146.496V120.883C263.431 118.938 261.813 117.361 259.816 117.361Z" fill="#90B7C8" stroke="#294E25" stroke-width="2.61255" stroke-miterlimit="10"/>
<path d="M283.591 117.361H274.622C272.59 117.361 270.943 118.937 270.943 120.881V146.498C270.943 148.442 272.59 150.018 274.622 150.018H283.591C285.623 150.018 287.271 148.442 287.271 146.498V120.881C287.271 118.937 285.623 117.361 283.591 117.361Z" fill="#90B7C8" stroke="#294E25" stroke-width="2.61255" stroke-miterlimit="10"/>
<path d="M307.142 117.361H298.751C296.559 117.361 294.782 118.994 294.782 121.008V146.371C294.782 148.385 296.559 150.018 298.751 150.018H307.142C309.333 150.018 311.11 148.385 311.11 146.371V121.008C311.11 118.994 309.333 117.361 307.142 117.361Z" fill="#90B7C8" stroke="#294E25" stroke-width="2.61255" stroke-miterlimit="10"/>
<path d="M234.627 117.361H228.882C225.959 117.361 223.59 118.86 223.59 120.709V146.671C223.59 148.519 225.959 150.018 228.882 150.018H234.627C237.549 150.018 239.918 148.519 239.918 146.671V120.709C239.918 118.86 237.549 117.361 234.627 117.361Z" fill="#90B7C8" stroke="#294E25" stroke-width="2.61255" stroke-miterlimit="10"/>
<path d="M362.718 191.306H370.634C372.555 191.306 374.113 189.749 374.113 187.829V168.699C374.113 166.779 372.555 165.223 370.634 165.223H362.718C360.797 165.223 359.24 166.779 359.24 168.699V187.829C359.24 189.749 360.797 191.306 362.718 191.306Z" fill="#96805E" stroke="#294E25" stroke-width="2.61255" stroke-miterlimit="10"/>
<path d="M391.624 191.306H399.54C401.461 191.306 403.018 189.749 403.018 187.829V168.699C403.018 166.779 401.461 165.223 399.54 165.223H391.624C389.703 165.223 388.145 166.779 388.145 168.699V187.829C388.145 189.749 389.703 191.306 391.624 191.306Z" fill="#96805E" stroke="#294E25" stroke-width="2.61255" stroke-miterlimit="10"/>
<path d="M419.755 191.306H427.671C429.592 191.306 431.149 189.749 431.149 187.829V168.699C431.149 166.779 429.592 165.223 427.671 165.223H419.755C417.834 165.223 416.276 166.779 416.276 168.699V187.829C416.276 189.749 417.834 191.306 419.755 191.306Z" fill="#96805E" stroke="#294E25" stroke-width="2.61255" stroke-miterlimit="10"/>
<path d="M233.617 186.92H241.321C244.154 186.92 246.45 185.026 246.45 182.69V165.352C246.45 163.016 244.154 161.121 241.321 161.121H233.617C230.785 161.121 228.489 163.016 228.489 165.352V182.69C228.489 185.026 230.785 186.92 233.617 186.92Z" fill="#B99F77" stroke="#294E25" stroke-width="2.61255" stroke-miterlimit="10"/>
<path d="M261.376 186.92H269.08C271.912 186.92 274.208 185.026 274.208 182.69V165.352C274.208 163.016 271.912 161.121 269.08 161.121H261.376C258.543 161.121 256.247 163.016 256.247 165.352V182.69C256.247 185.026 258.543 186.92 261.376 186.92Z" fill="#B99F77" stroke="#294E25" stroke-width="2.61255" stroke-miterlimit="10"/>
<path d="M290.114 186.92H297.817C300.65 186.92 302.946 185.026 302.946 182.69V165.352C302.946 163.016 300.65 161.121 297.817 161.121H290.114C287.281 161.121 284.985 163.016 284.985 165.352V182.69C284.985 185.026 287.281 186.92 290.114 186.92Z" fill="#B99F77" stroke="#294E25" stroke-width="2.61255" stroke-miterlimit="10"/>
<path d="M497.159 186.92H504.863C507.695 186.92 509.991 185.026 509.991 182.689V165.352C509.991 163.015 507.695 161.121 504.863 161.121H497.159C494.326 161.121 492.03 163.015 492.03 165.352V182.689C492.03 185.026 494.326 186.92 497.159 186.92Z" fill="#B99F77" stroke="#294E25" stroke-width="2.61255" stroke-miterlimit="10"/>
<path d="M524.917 186.92H532.621C535.453 186.92 537.75 185.026 537.75 182.689V165.352C537.75 163.015 535.453 161.121 532.621 161.121H524.917C522.084 161.121 519.788 163.015 519.788 165.352V182.689C519.788 185.026 522.084 186.92 524.917 186.92Z" fill="#B99F77" stroke="#294E25" stroke-width="2.61255" stroke-miterlimit="10"/>
<path d="M553.655 186.92H561.359C564.191 186.92 566.488 185.026 566.488 182.689V165.352C566.488 163.015 564.191 161.121 561.359 161.121H553.655C550.823 161.121 548.526 163.015 548.526 165.352V182.689C548.526 185.026 550.823 186.92 553.655 186.92Z" fill="#B99F77" stroke="#294E25" stroke-width="2.61255" stroke-miterlimit="10"/>
<path d="M360.096 48.9444C370.6 44.1547 398.958 37.4491 428.349 48.9444" stroke="#254E1E" stroke-width="2.61255"/>
<path d="M394.059 45.6789L360.533 49.0941C360.533 47.9019 360.754 41.4221 360.533 40.4838C356.398 33.463 365.127 30.2176 368.351 28.2306C392.176 18.215 415.247 26.0726 422.152 29.224C431.057 35.3175 430.898 38.3312 428.778 40.9805V50.0876L394.059 45.6789Z" fill="#E2D1B7" stroke="#254E1E" stroke-width="2.61255"/>
<path d="M394.059 59.7217L352.585 69.0289C352.585 67.8533 352.857 61.4634 352.585 60.5381C347.49 53.6149 358.245 50.4145 362.218 48.4551C387.56 36.1761 416.647 44.3185 428.512 49.4348C439.485 55.4437 439.289 58.4154 436.676 61.028V70.0086L394.059 59.7217Z" fill="#BDA785" stroke="#254E1E" stroke-width="2.61255"/>
<path d="M386.874 9.59288C392.361 7.63346 394.494 3.76906 394.875 2.08179C396.965 7.43752 401.407 9.32074 403.366 9.59288L404.183 23.9619C395.822 21.7413 388.017 23.0366 385.731 23.9619L386.874 9.59288Z" fill="#AE9C80" stroke="#254E1E" stroke-width="2.61255" stroke-linejoin="round"/>
</g>
<defs>
<filter id="filter0_d_195_2019" x="199.812" y="0.542358" width="391.495" height="204.529" filterUnits="userSpaceOnUse" color-interpolation-filters="sRGB">
<feFlood flood-opacity="0" result="BackgroundImageFix"/>
<feColorMatrix in="SourceAlpha" type="matrix" values="0 0 0 0 0 0 0 0 0 0 0 0 0 0 0 0 0 0 127 0" result="hardAlpha"/>
<feOffset dx="-0.881881" dy="2.64564"/>
<feComposite in2="hardAlpha" operator="out"/>
<feColorMatrix type="matrix" values="0 0 0 0 0.145098 0 0 0 0 0.305882 0 0 0 0 0.117647 0 0 0 1 0"/>
<feBlend mode="normal" in2="BackgroundImageFix" result="effect1_dropShadow_195_2019"/>
<feBlend mode="normal" in="SourceGraphic" in2="effect1_dropShadow_195_2019" result="shape"/>
</filter>
</defs>
</svg>
