<svg width="1440" height="1249" viewBox="0 0 1440 1249" fill="none" xmlns="http://www.w3.org/2000/svg">
<g filter="url(#filter0_d_195_2017)">
<path d="M1514.04 370.594C1028.12 9.37939 220.045 -87.4056 -125.955 78.5942C-471.955 244.594 -166.509 1241 -166.509 1241L1514.04 1206C1514.04 1206 1999.97 731.808 1514.04 370.594Z" fill="#77B06D"/>
</g>
<path d="M1060.82 216.834C1058.04 209.625 1061.63 201.529 1068.84 198.751L1110.51 182.694C1120.67 178.78 1131.21 187.456 1129.32 198.177L1126.36 214.941C1125.7 218.712 1123.51 222.046 1120.32 224.165L1089.72 244.493C1082.26 249.444 1072.14 246.22 1068.93 237.87L1060.82 216.834Z" fill="#BED4DE"/>
<path d="M1136.8 219.885C1133.62 211.639 1137.73 202.379 1145.98 199.202L1163.21 192.56C1174.83 188.083 1186.88 198.006 1184.72 210.268L1184.58 211.049C1183.82 215.362 1181.33 219.175 1177.68 221.599L1162.27 231.835C1153.74 237.498 1142.17 233.811 1138.49 224.261L1136.8 219.885Z" fill="#BED4DE"/>
<path d="M1091.93 166.4C1093.3 173.215 1088.89 179.851 1082.07 181.222L1071.33 183.382C1062.65 185.128 1055.38 176.722 1058.37 168.381C1059.42 165.447 1061.63 163.072 1064.48 161.81L1074.5 157.373C1081.86 154.112 1090.35 158.507 1091.93 166.4Z" fill="#BED4DE"/>
<path d="M1104.99 263.889C1101.81 255.644 1105.92 246.384 1114.16 243.206L1131.4 236.564C1143.02 232.087 1155.07 242.011 1152.91 254.272L1152.77 255.053C1152.01 259.367 1149.52 263.18 1145.87 265.603L1130.46 275.84C1121.93 281.503 1110.35 277.815 1106.67 268.265L1104.99 263.889Z" fill="#BED4DE"/>
<path d="M1164.26 257.883C1161.08 249.638 1165.19 240.378 1173.44 237.2L1199.77 227.052C1211.2 222.648 1223.14 232.19 1221.36 244.305L1220.09 252.928C1219.44 257.34 1216.98 261.282 1213.3 263.803L1193.01 277.711C1184.49 283.55 1172.75 279.904 1169.03 270.265L1164.26 257.883Z" fill="#BED4DE"/>
<path d="M1134.05 317.432C1130.87 309.186 1134.98 299.926 1143.23 296.749L1169.56 286.6C1180.99 282.197 1192.92 291.738 1191.15 303.854L1189.88 312.476C1189.23 316.889 1186.77 320.831 1183.09 323.351L1162.8 337.259C1154.27 343.098 1142.54 339.452 1138.82 329.814L1134.05 317.432Z" fill="#BED4DE"/>
<path d="M1201.88 301.845C1198.7 293.6 1202.81 284.339 1211.06 281.162L1237.39 271.013C1248.82 266.61 1260.75 276.151 1258.97 288.267L1257.71 296.89C1257.06 301.302 1254.6 305.244 1250.92 307.765L1230.62 321.673C1222.1 327.511 1210.36 323.866 1206.65 314.227L1201.88 301.845Z" fill="#BED4DE"/>
<path d="M1171.05 358.901C1167.87 350.655 1171.98 341.395 1180.23 338.218L1206.56 328.069C1217.99 323.666 1229.93 333.207 1228.15 345.323L1226.88 353.946C1226.23 358.358 1223.77 362.3 1220.09 364.821L1199.8 378.729C1191.28 384.567 1179.54 380.922 1175.82 371.283L1171.05 358.901Z" fill="#BED4DE"/>
<path d="M1239.77 344.774C1236.59 336.528 1240.7 327.268 1248.95 324.091L1278.24 312.803C1288.95 308.676 1300.39 316.834 1299.98 328.304L1299.19 350.626C1299.02 355.302 1296.81 359.671 1293.15 362.582L1274.59 377.331C1266.14 384.05 1253.59 380.636 1249.71 370.558L1239.77 344.774Z" fill="#BED4DE"/>
<path d="M1196.16 402.719C1195.88 393.887 1202.8 386.495 1211.64 386.208L1250.7 384.939C1263.15 384.535 1271.26 397.873 1265.19 408.74L1259.04 419.741C1256.9 423.564 1253.29 426.343 1249.04 427.431L1216.71 435.719C1206.8 438.26 1197.08 430.968 1196.75 420.739L1196.16 402.719Z" fill="#BED4DE"/>
<path d="M1274.8 399.51C1276.56 390.955 1284.92 385.448 1293.48 387.209L1306.96 389.986C1317.86 392.231 1322.14 405.52 1314.59 413.7C1311.93 416.578 1308.21 418.24 1304.3 418.301L1290.53 418.513C1280.41 418.669 1272.76 409.419 1274.8 399.51Z" fill="#BED4DE"/>
<path d="M1216.94 455.831C1218.85 446.546 1227.93 440.57 1237.21 442.481L1251.85 445.494C1263.68 447.931 1268.32 462.353 1260.12 471.23C1257.24 474.353 1253.2 476.158 1248.95 476.223L1234.01 476.454C1223.04 476.623 1214.73 466.584 1216.94 455.831Z" fill="#BED4DE"/>
<path d="M1276.2 439.691C1277.98 431.036 1286.45 425.464 1295.1 427.247L1313.93 431.124C1325.92 433.593 1330.81 448.071 1322.77 457.305L1320.6 459.793C1317.67 463.156 1313.47 465.143 1309.01 465.276L1290.93 465.816C1280.6 466.124 1272.7 456.713 1274.78 446.596L1276.2 439.691Z" fill="#BED4DE"/>
<path d="M1218.2 500.691C1219.98 492.036 1228.45 486.464 1237.1 488.247L1255.93 492.124C1267.92 494.593 1272.81 509.071 1264.77 518.305L1262.6 520.793C1259.67 524.156 1255.47 526.143 1251.01 526.276L1232.93 526.816C1222.6 527.124 1214.7 517.713 1216.78 507.596L1218.2 500.691Z" fill="#BED4DE"/>
<path d="M1315.06 511.921C1309.66 518.91 1299.61 520.193 1292.62 514.786L1277.41 503.022C1267.73 495.529 1269.71 480.377 1280.99 475.622L1284.03 474.341C1288.14 472.609 1292.79 472.671 1296.85 474.512L1313.33 481.982C1322.74 486.246 1325.7 498.175 1319.38 506.345L1315.06 511.921Z" fill="#BED4DE"/>
<path d="M1208.2 544.691C1209.98 536.036 1218.45 530.464 1227.1 532.247L1245.93 536.124C1257.92 538.593 1262.81 553.071 1254.77 562.305L1252.6 564.793C1249.67 568.156 1245.47 570.143 1241.01 570.276L1222.93 570.816C1212.6 571.124 1204.7 561.713 1206.78 551.596L1208.2 544.691Z" fill="#BED4DE"/>
<path d="M1273.2 537.691C1274.98 529.036 1283.45 523.464 1292.1 525.247L1314.03 529.763C1325.27 532.077 1330.49 545.125 1323.95 554.554L1315.08 567.339C1312.41 571.184 1308.2 573.668 1303.54 574.138L1286.57 575.852C1275.82 576.938 1267.11 567.285 1269.29 556.707L1273.2 537.691Z" fill="#BED4DE"/>
<path d="M1197.71 604C1197.94 595.167 1205.29 588.197 1214.13 588.432L1253.2 589.472C1265.65 589.804 1272.96 603.598 1266.25 614.087L1259.46 624.705C1257.1 628.395 1253.33 630.956 1249.03 631.792L1216.27 638.156C1206.22 640.107 1196.95 632.254 1197.23 622.023L1197.71 604Z" fill="#BED4DE"/>
<path d="M1268.55 630.33C1268.78 621.599 1276.04 614.709 1284.78 614.942L1298.54 615.308C1309.67 615.604 1316.21 627.938 1310.21 637.316C1308.1 640.615 1304.73 642.904 1300.89 643.651L1287.37 646.276C1277.44 648.205 1268.28 640.443 1268.55 630.33Z" fill="#BED4DE"/>
<path d="M1274.61 595.497C1274.8 588.595 1280.54 583.149 1287.44 583.333L1298.32 583.623C1307.12 583.857 1312.29 593.606 1307.55 601.019C1305.88 603.627 1303.22 605.437 1300.18 606.027L1289.49 608.102C1281.64 609.627 1274.4 603.491 1274.61 595.497Z" fill="#BED4DE"/>
<path d="M1212.52 662.065C1212.75 653.231 1220.11 646.191 1228.94 646.426L1249.24 646.967C1260.66 647.271 1267.02 660.285 1260.25 669.484C1258.07 672.456 1254.81 674.456 1251.16 675.056L1231.11 678.363C1221.2 679.998 1212.25 672.11 1212.52 662.065Z" fill="#BED4DE"/>
<path d="M1283.76 669.699C1284 660.865 1291.35 653.895 1300.18 654.131L1319.4 654.642C1331.64 654.968 1339 668.364 1332.7 678.866L1331 681.696C1328.71 685.52 1324.92 688.214 1320.56 689.127L1302.85 692.833C1292.74 694.949 1283.3 687.072 1283.58 676.746L1283.76 669.699Z" fill="#BED4DE"/>
<path d="M1250.22 729.503C1241.81 726.779 1237.21 717.756 1239.93 709.35L1245.86 691.061C1249.64 679.411 1264.56 676.148 1272.85 685.16L1275.09 687.588C1278.11 690.87 1279.62 695.263 1279.26 699.708L1277.81 717.743C1276.98 728.039 1266.75 734.861 1256.93 731.677L1250.22 729.503Z" fill="#BED4DE"/>
<path d="M1293.53 718.543C1293.77 709.71 1301.12 702.74 1309.95 702.975L1329.17 703.487C1341.42 703.813 1348.77 717.208 1342.47 727.71L1340.77 730.54C1338.48 734.364 1334.69 737.058 1330.33 737.972L1312.62 741.677C1302.51 743.793 1293.07 735.916 1293.35 725.591L1293.53 718.543Z" fill="#BED4DE"/>
<path d="M1249.48 754.242C1249.71 745.408 1257.06 738.438 1265.9 738.673L1285.12 739.185C1297.36 739.511 1304.71 752.907 1298.41 763.409L1296.72 766.238C1294.42 770.063 1290.64 772.757 1286.27 773.67L1268.56 777.376C1258.45 779.492 1249.02 771.615 1249.29 761.289L1249.48 754.242Z" fill="#BED4DE"/>
<path d="M1309.7 765.929C1309.93 757.096 1317.28 750.125 1326.12 750.361L1348.5 750.957C1359.98 751.262 1367.41 763.191 1362.62 773.623L1356.13 787.766C1354.18 792.019 1350.47 795.204 1345.97 796.484L1329.55 801.152C1319.16 804.107 1308.89 796.133 1309.18 785.337L1309.7 765.929Z" fill="#BED4DE"/>
<path d="M1127.48 1033.39C1134.9 1028.61 1137.04 1018.7 1132.26 1011.28L1118.24 989.519C1111.83 979.58 1097.23 979.784 1091.1 989.897L1084.52 1000.76C1082.14 1004.69 1081.56 1009.46 1082.94 1013.85L1089.27 1033.95C1092.43 1044.02 1104.32 1048.32 1113.2 1042.6L1127.48 1033.39Z" fill="#BED4DE"/>
<path d="M1112.67 963.601C1120.01 958.869 1122.12 949.081 1117.39 941.74L1109.93 930.167C1103.9 920.811 1089.97 921.624 1085.07 931.618C1083.34 935.134 1083.13 939.203 1084.49 942.876L1089.26 955.79C1092.77 965.279 1104.16 969.081 1112.67 963.601Z" fill="#BED4DE"/>
<path d="M1076.12 1048C1083.16 1043.46 1085.19 1034.08 1080.65 1027.05L1070.02 1010.56C1064.18 1001.49 1050.55 1002.78 1046.5 1012.77C1045.2 1015.97 1045.2 1019.56 1046.5 1022.76L1053.86 1040.95C1057.43 1049.76 1068.13 1053.15 1076.12 1048Z" fill="#BED4DE"/>
<path d="M1079.86 991.303C1087.29 986.516 1089.43 976.615 1084.64 969.187L1074.23 953.027C1067.59 942.734 1052.33 943.404 1046.62 954.239L1045.08 957.159C1043.01 961.105 1042.67 965.739 1044.15 969.944L1050.18 987.004C1053.62 996.743 1065.25 1000.72 1073.94 995.123L1079.86 991.303Z" fill="#BED4DE"/>
<path d="M1002.67 1059.25C1009.36 1065.02 1019.46 1064.27 1025.23 1057.58L1037.79 1043.02C1045.78 1033.74 1040.82 1019.29 1028.82 1016.88L1025.58 1016.23C1021.21 1015.35 1016.67 1016.34 1013.06 1018.96L998.397 1029.56C990.028 1035.62 989.505 1047.9 997.329 1054.64L1002.67 1059.25Z" fill="#BED4DE"/>
<path d="M1039.58 979.651C1037.74 971.007 1029.25 965.487 1020.6 967.322L1001.8 971.314C989.819 973.856 985.02 988.364 993.12 997.548L995.302 1000.02C998.252 1003.37 1002.46 1005.33 1006.92 1005.44L1025.01 1005.87C1035.34 1006.11 1043.19 996.652 1041.04 986.548L1039.58 979.651Z" fill="#BED4DE"/>
<path d="M979.271 1073.5C986.698 1068.72 988.839 1058.81 984.052 1051.39L973.636 1035.23C967.003 1024.93 951.737 1025.6 946.031 1036.44L944.493 1039.36C942.415 1043.3 942.078 1047.94 943.564 1052.14L949.591 1069.2C953.032 1078.94 964.662 1082.92 973.345 1077.32L979.271 1073.5Z" fill="#BED4DE"/>
<path d="M985.551 1030.3C992.979 1025.52 995.12 1015.61 990.332 1008.19L978.201 989.364C971.984 979.718 957.932 979.561 951.501 989.067L942.781 1001.95C940.159 1005.83 939.365 1010.66 940.608 1015.17L945.139 1031.62C948.007 1042.03 960.155 1046.67 969.233 1040.82L985.551 1030.3Z" fill="#BED4DE"/>
<path d="M1234.17 811.165C1232.97 802.41 1239.1 794.342 1247.85 793.143L1286.58 787.841C1298.91 786.153 1308.37 798.58 1303.45 810.017L1298.47 821.595C1296.73 825.618 1293.43 828.756 1289.32 830.277L1258.02 841.863C1248.42 845.416 1238 839.168 1236.62 829.028L1234.17 811.165Z" fill="#BED4DE"/>
<path d="M1273.33 853.684C1282.03 854.43 1288.48 862.09 1287.74 870.793L1286.56 884.51C1285.61 895.601 1272.91 901.404 1263.9 894.865C1260.74 892.564 1258.65 889.065 1258.13 885.184L1256.3 871.538C1254.96 861.511 1263.25 852.82 1273.33 853.684Z" fill="#BED4DE"/>
<path d="M1203.56 852.386C1205.58 843.889 1214.11 838.638 1222.6 840.658L1236 843.842C1246.83 846.417 1250.7 859.83 1242.9 867.777C1240.16 870.572 1236.39 872.122 1232.48 872.063L1218.71 871.858C1208.59 871.707 1201.22 862.229 1203.56 852.386Z" fill="#BED4DE"/>
<path d="M1215.31 924.196C1210.72 916.645 1213.12 906.803 1220.67 902.213L1237.1 892.228C1247.57 885.868 1261.01 893.141 1261.4 905.38L1261.51 908.678C1261.66 913.136 1259.93 917.451 1256.76 920.585L1243.89 933.296C1236.53 940.554 1224.34 939.048 1218.97 930.221L1215.31 924.196Z" fill="#BED4DE"/>
<path d="M1337.58 816.509C1344.27 822.282 1345.01 832.385 1339.24 839.076L1320.38 860.942C1312.46 870.115 1297.45 866.08 1295.21 854.175C1294.54 850.668 1295.2 847.039 1297.05 843.987L1312.11 819.17C1317.24 810.71 1328.75 808.891 1336.24 815.355L1337.58 816.509Z" fill="#BED4DE"/>
<path d="M1205.95 872.507C1213.81 876.557 1216.89 886.207 1212.84 894.061L1204.03 911.149C1198.42 922.032 1183.16 922.834 1176.44 912.599L1174.62 909.841C1172.18 906.113 1171.4 901.533 1172.47 897.204L1176.83 879.644C1179.31 869.618 1190.51 864.542 1199.69 869.276L1205.95 872.507Z" fill="#BED4DE"/>
<path d="M1166.11 910.107C1170.25 917.912 1167.28 927.598 1159.47 931.739L1142.49 940.75C1131.67 946.489 1118.68 938.445 1118.99 926.203L1119.08 922.905C1119.19 918.446 1121.17 914.238 1124.52 911.296L1138.11 899.356C1145.87 892.539 1157.96 894.754 1162.8 903.879L1166.11 910.107Z" fill="#BED4DE"/>
<path d="M1179.34 926.848C1185.28 920.305 1195.4 919.814 1201.94 925.753L1216.18 938.673C1225.25 946.903 1222.08 961.853 1210.46 965.708L1207.33 966.747C1203.1 968.151 1198.47 967.724 1194.56 965.57L1178.72 956.832C1169.68 951.843 1167.66 939.718 1174.6 932.069L1179.34 926.848Z" fill="#BED4DE"/>
<path d="M1136.69 948.848C1142.62 942.305 1152.74 941.814 1159.29 947.753L1175.87 962.802C1184.37 970.515 1182.22 984.403 1171.79 989.191L1157.65 995.683C1153.4 997.635 1148.5 997.628 1144.26 995.663L1128.77 988.499C1118.97 983.965 1116.38 971.222 1123.64 963.225L1136.69 948.848Z" fill="#BED4DE"/>
<path d="M369.077 907.073C370.309 906.028 372.485 903.81 372.523 903.849C372.337 904.464 371.651 905.752 370.902 908.52C370.64 909.478 371.709 911.052 374.174 911.389C376.578 911.71 378.001 910.783 378.063 909.205C378.122 908.057 378.127 906.906 378.063 905.759C378.093 905.916 379.121 907.184 380.5 908.786C382.198 910.764 383.86 909.102 384.938 907.756C386.269 906.09 386.964 904.683 384.762 902.99C384.739 902.969 384.524 902.829 384.1 902.539C383.428 902.084 383.017 901.812 382.719 901.612C381.955 901.116 381.352 900.68 380.959 900.394C381.2 900.424 382.501 899.72 385.211 898.837C386.3 898.259 388.13 897.437 386.917 894.547C385.772 891.852 384.567 891.203 383.295 892.041C380.75 893.719 379.263 894.517 379.222 894.609C379.794 892.56 380.196 891.809 380.57 890.303C380.944 888.797 378.756 887.941 376.988 887.706C375.473 887.649 373.601 887.699 373.446 889.658C373.317 891.262 373.821 893.703 373.611 893.776C373.402 893.848 372.284 891.687 371.113 890.366C369.737 888.809 367.68 889.94 366.519 891.349C365.362 892.749 364.521 894.655 366.417 895.99C368.888 897.726 370.617 898.742 370.617 898.742C369.669 899.127 367.72 900.018 365.803 900.912C364.707 901.431 364.317 901.955 364.077 902.568C363.634 903.733 364.326 904.961 364.839 905.822C366.419 908.434 367.968 908.018 369.077 907.073Z" fill="#FFD465"/>
<path d="M47.0772 796.073C48.3087 795.028 50.4855 792.81 50.5234 792.849C50.3373 793.464 49.6507 794.752 48.9016 797.52C48.6398 798.478 49.7091 800.052 52.1735 800.389C54.5784 800.71 56.0007 799.783 56.0634 798.205C56.1222 797.057 56.1265 795.906 56.063 794.759C56.0925 794.916 57.1212 796.184 58.4996 797.786C60.1976 799.764 61.8597 798.102 62.9378 796.756C64.2691 795.09 64.9642 793.683 62.7623 791.99C62.7387 791.969 62.5243 791.829 62.0996 791.539C61.4278 791.084 61.0175 790.812 60.719 790.612C59.9547 790.116 59.3516 789.68 58.9588 789.394C59.2001 789.424 60.5008 788.72 63.2111 787.837C64.3 787.259 66.1299 786.437 64.9174 783.547C63.7723 780.852 62.5667 780.203 61.2945 781.041C58.7501 782.719 57.2633 783.517 57.222 783.609C57.7941 781.56 58.1961 780.809 58.5699 779.303C58.9437 777.797 56.7555 776.941 54.9883 776.706C53.4734 776.649 51.6008 776.699 51.446 778.658C51.3165 780.262 51.8211 782.703 51.6115 782.776C51.4018 782.848 50.2844 780.687 49.113 779.366C47.7367 777.809 45.6802 778.94 44.5188 780.349C43.3615 781.749 42.5207 783.655 44.4172 784.99C46.8881 786.726 48.6168 787.742 48.6168 787.742C47.6691 788.127 45.7199 789.018 43.8025 789.912C42.7066 790.431 42.3173 790.955 42.0768 791.568C41.6338 792.733 42.3257 793.961 42.8386 794.822C44.4194 797.434 45.9681 797.018 47.0772 796.073Z" fill="#FFD465"/>
<path d="M615.077 835.073C616.309 834.028 618.485 831.81 618.523 831.849C618.337 832.464 617.651 833.752 616.902 836.52C616.64 837.478 617.709 839.052 620.174 839.389C622.578 839.71 624.001 838.783 624.063 837.205C624.122 836.057 624.127 834.906 624.063 833.759C624.093 833.916 625.121 835.184 626.5 836.786C628.198 838.764 629.86 837.102 630.938 835.756C632.269 834.09 632.964 832.683 630.762 830.99C630.739 830.969 630.524 830.829 630.1 830.539C629.428 830.084 629.017 829.812 628.719 829.612C627.955 829.116 627.352 828.68 626.959 828.394C627.2 828.424 628.501 827.72 631.211 826.837C632.3 826.259 634.13 825.437 632.917 822.547C631.772 819.852 630.567 819.203 629.295 820.041C626.75 821.719 625.263 822.517 625.222 822.609C625.794 820.56 626.196 819.809 626.57 818.303C626.944 816.797 624.756 815.941 622.988 815.706C621.473 815.649 619.601 815.699 619.446 817.658C619.317 819.262 619.821 821.703 619.611 821.776C619.402 821.848 618.284 819.687 617.113 818.366C615.737 816.809 613.68 817.94 612.519 819.349C611.362 820.749 610.521 822.655 612.417 823.99C614.888 825.726 616.617 826.742 616.617 826.742C615.669 827.127 613.72 828.018 611.803 828.912C610.707 829.431 610.317 829.955 610.077 830.568C609.634 831.733 610.326 832.961 610.839 833.822C612.419 836.434 613.968 836.018 615.077 835.073Z" fill="#FFD465"/>
<path d="M971.644 882.973C972.817 881.978 974.89 879.865 974.926 879.902C974.749 880.488 974.095 881.715 973.382 884.351C973.132 885.263 974.151 886.762 976.497 887.083C978.788 887.389 980.142 886.506 980.202 885.003C980.258 883.909 980.262 882.814 980.202 881.721C980.23 881.871 981.209 883.079 982.522 884.605C984.139 886.488 985.722 884.905 986.748 883.623C988.016 882.037 988.678 880.697 986.581 879.085C986.559 879.064 986.355 878.931 985.95 878.655C985.31 878.222 984.92 877.963 984.635 877.772C983.908 877.3 983.333 876.885 982.959 876.612C983.189 876.641 984.428 875.97 987.009 875.129C988.046 874.58 989.788 873.797 988.634 871.044C987.543 868.478 986.395 867.86 985.184 868.658C982.76 870.256 981.345 871.016 981.305 871.104C981.85 869.153 982.233 868.437 982.589 867.003C982.945 865.569 980.861 864.754 979.178 864.529C977.735 864.476 975.952 864.523 975.805 866.388C975.681 867.916 976.162 870.241 975.962 870.31C975.763 870.379 974.699 868.321 973.583 867.063C972.272 865.58 970.314 866.657 969.208 867.999C968.106 869.332 967.305 871.148 969.111 872.419C971.464 874.072 973.11 875.039 973.11 875.039C972.208 875.406 970.352 876.255 968.526 877.106C967.482 877.6 967.111 878.099 966.882 878.682C966.46 879.792 967.119 880.962 967.608 881.782C969.113 884.269 970.588 883.873 971.644 882.973Z" fill="#FFD465"/>
<path d="M1152.08 735.073C1153.31 734.028 1155.49 731.81 1155.52 731.849C1155.34 732.464 1154.65 733.752 1153.9 736.52C1153.64 737.478 1154.71 739.053 1157.17 739.389C1159.58 739.71 1161 738.784 1161.06 737.205C1161.12 736.057 1161.13 734.906 1161.06 733.759C1161.09 733.916 1162.12 735.185 1163.5 736.787C1165.2 738.764 1166.86 737.102 1167.94 735.756C1169.27 734.09 1169.96 732.684 1167.76 730.991C1167.74 730.969 1167.52 730.829 1167.1 730.54C1166.43 730.084 1166.02 729.812 1165.72 729.612C1164.95 729.116 1164.35 728.68 1163.96 728.394C1164.2 728.424 1165.5 727.72 1168.21 726.837C1169.3 726.26 1171.13 725.438 1169.92 722.547C1168.77 719.852 1167.57 719.203 1166.29 720.042C1163.75 721.719 1162.26 722.517 1162.22 722.61C1162.79 720.561 1163.2 719.81 1163.57 718.304C1163.94 716.798 1161.76 715.942 1159.99 715.706C1158.47 715.65 1156.6 715.699 1156.45 717.658C1156.32 719.262 1156.82 721.703 1156.61 721.776C1156.4 721.848 1155.28 719.687 1154.11 718.366C1152.74 716.809 1150.68 717.94 1149.52 719.349C1148.36 720.749 1147.52 722.656 1149.42 723.991C1151.89 725.726 1153.62 726.742 1153.62 726.742C1152.67 727.128 1150.72 728.019 1148.8 728.912C1147.71 729.431 1147.32 729.955 1147.08 730.568C1146.63 731.733 1147.33 732.962 1147.84 733.822C1149.42 736.434 1150.97 736.018 1152.08 735.073Z" fill="#FFD465"/>
<defs>
<filter id="filter0_d_195_2017" x="-295" y="0" width="2029.01" height="1249" filterUnits="userSpaceOnUse" color-interpolation-filters="sRGB">
<feFlood flood-opacity="0" result="BackgroundImageFix"/>
<feColorMatrix in="SourceAlpha" type="matrix" values="0 0 0 0 0 0 0 0 0 0 0 0 0 0 0 0 0 0 127 0" result="hardAlpha"/>
<feOffset dy="4"/>
<feGaussianBlur stdDeviation="2"/>
<feComposite in2="hardAlpha" operator="out"/>
<feColorMatrix type="matrix" values="0 0 0 0 0 0 0 0 0 0 0 0 0 0 0 0 0 0 0.25 0"/>
<feBlend mode="normal" in2="BackgroundImageFix" result="effect1_dropShadow_195_2017"/>
<feBlend mode="normal" in="SourceGraphic" in2="effect1_dropShadow_195_2017" result="shape"/>
</filter>
</defs>
</svg>
