<svg width="262" height="88" viewBox="0 0 262 88" fill="none" xmlns="http://www.w3.org/2000/svg">
<g filter="url(#filter0_d_366_817)">
<path d="M47.8719 68.3785L48.1776 68.576L48.5387 68.5308C67.0108 66.2185 111.51 65.5847 140.989 66.386C165.813 67.0608 203.007 72.7543 225.24 76.1576C228.874 76.7139 232.109 77.209 234.824 77.611L236.097 77.7994L235.965 76.5197L233.292 50.4701L233.215 49.7182L232.471 49.5873C230.926 49.3157 228.918 48.9659 226.729 48.5893C227.87 48.6531 228.951 48.7144 229.928 48.7705L230.73 48.8165L230.948 48.0436L231.571 45.8333L231.861 44.8068L230.818 44.5839C230.617 44.541 230.397 44.4945 230.162 44.4455C230.451 44.4344 230.736 44.4256 231.014 44.4192C232.435 44.3867 233.623 44.4216 234.343 44.5466L234.843 44.6335L235.209 44.2808L258.165 22.1213L259.64 20.6973L257.61 20.4116C227.237 16.1375 161.289 8.85072 140.599 8.42231C113.663 7.86456 72.1821 7.62273 38.4139 9.20294L38.0193 9.2214L37.7438 9.50457L21.4662 26.2379L4.74273 41.1764L3.68715 42.1193L4.92852 42.7992L26.9097 54.839L47.8719 68.3785Z" fill="#BED4DE" stroke="#254E1E" stroke-width="2"/>
<path d="M209.942 46.7269C213.451 47.1444 226.303 49.3543 232.29 50.4071L232.884 56.1959C221.101 55.2931 195.78 53.2789 188.761 52.4441C179.987 51.4006 159.625 44.7469 154.567 44.2286C139.956 42.7311 116.825 45.6313 113.214 46.1637C109.604 46.6962 80.8285 45.498 69.5834 46.0243C60.5874 46.4452 34.9861 49.8944 23.31 51.5663L5.40115 41.7571L22.1508 26.7953L30.3018 18.416C62.3763 16.3092 129.164 12.5537 139.72 14.3863C152.914 16.6772 170.513 19.8526 177.768 19.5131C185.022 19.1736 202.672 23.4371 207.767 23.5622C212.863 23.6873 248.225 25.8113 250.854 27.616L234.506 43.3963C231.208 42.8235 220.722 44.0413 222.173 43.9734C223.334 43.9191 228.276 44.8996 230.601 45.3967L229.978 47.607C221.837 47.1397 206.432 46.3095 209.942 46.7269Z" fill="#97BACA"/>
</g>
<path d="M39.4045 41.2543C40.7199 42.4688 42.5384 43.1964 44.3878 43.2862C48.1505 43.4689 52.0596 41.2935 52.0557 37.4259C52.0319 31.9911 52.4608 26.4505 53.3237 21.1867L46.9462 20.877C47.2951 26.1997 47.0012 30.2766 46.738 35.6974C46.6699 37.1004 45.3937 37.7097 44.182 37.6508C42.9703 37.592 41.7911 36.8635 41.8562 35.5243L39.4045 41.2543ZM61.6926 44.1265C67.3047 44.399 69.6697 40.4546 69.8997 36.3746C70.1298 32.2946 68.1597 28.1078 62.5476 27.8353C56.9035 27.5612 54.5689 31.539 54.3707 35.6206C54.1725 39.7021 56.1123 43.8555 61.6926 44.1265ZM59.951 35.8915C60.0392 34.074 61.0274 32.8115 62.3029 32.8734C63.5784 32.9354 64.4078 34.2861 64.3195 36.1037C64.2312 37.9212 63.243 39.1837 61.9994 39.1233C60.7239 39.0614 59.8627 37.7091 59.951 35.8915ZM71.4206 44.4391L77.4792 44.7332C77.0032 37.4227 77.0713 36.0197 78.2534 28.7897L72.1948 28.4955C72.6709 35.806 72.6027 37.209 71.4206 44.4391ZM72.7596 22.1305L72.5506 26.4352L78.1308 26.7062L78.3399 22.4014L72.7596 22.1305ZM80.5004 28.8988C80.939 35.6641 80.7538 38.8194 79.79 44.8455L85.7529 45.135C85.6077 42.8586 84.4968 34.1429 88.3551 34.3303C89.4712 34.3844 90.4918 35.7445 90.3386 38.9013C90.2333 41.0696 89.9806 41.6646 89.388 45.3115L95.4466 45.6057C95.2312 42.1433 95.1272 39.6772 95.2278 37.6045C95.4059 33.9375 95.1444 29.4501 90.457 29.2225C88.8945 29.1466 85.8887 29.8317 85.723 33.2436L85.4042 33.2281C85.5005 32.5616 85.8048 30.2431 85.985 29.1651L80.5004 28.8988ZM107.386 23.8119C107.862 31.1224 107.484 38.9028 106.302 46.1328L116.123 46.6097C123.266 46.9566 126.973 41.703 127.239 36.2184C127.514 30.5744 124.095 24.6232 116.92 24.2748L107.386 23.8119ZM113.224 27.9947L114.882 28.0752C119.155 28.2827 120.955 32.0139 120.779 35.649C120.602 39.2841 118.449 42.8233 114.814 42.6467L112.518 42.5353C112.401 37.7033 112.639 32.7927 113.224 27.9947ZM128.621 47.2166L134.679 47.5108C134.203 40.2003 134.271 38.7972 135.453 31.5672L129.395 31.273C129.871 38.5835 129.803 39.9866 128.621 47.2166ZM129.96 24.908L129.751 29.2128L135.331 29.4837L135.54 25.179L129.96 24.908ZM136.785 43.9374C137.189 46.1624 140.075 47.9326 142.977 48.0735C146.07 48.2237 149.221 46.5229 149.373 43.398C149.463 41.5485 148.431 40.4117 147.292 39.5254C145.782 38.3653 144.197 37.4254 144.251 36.3093C144.27 35.9267 144.503 35.7462 144.758 35.7586C145.395 35.7896 146.304 36.8245 146.09 37.9328L149.894 34.6337C148.637 32.8786 146.766 31.9247 144.406 31.8102C141.313 31.66 138.237 33.1407 138.102 35.9148C137.98 38.4339 140.132 39.5293 141.541 40.7803C142.245 41.4218 142.787 42.1193 142.742 43.044C142.714 43.618 142.348 43.9198 141.933 43.8997C141.232 43.8656 140.385 42.8657 140.878 40.6203L136.785 43.9374ZM158.347 48.8199C161.504 48.9732 164.697 47.7219 166.057 44.7195L162.016 41.0713C161.933 42.7614 160.478 43.7774 159.107 43.7108C157.831 43.6489 156.666 42.6334 156.774 40.4013C156.859 38.6475 157.878 37.4185 159.185 37.482C160.333 37.5377 161.5 38.5213 161.336 39.9197L166.242 36.9617C164.754 34.0448 162.613 32.7262 159.137 32.5574C154.067 32.3112 151.415 36.2417 151.217 40.3232C151.02 44.3729 153.277 48.5737 158.347 48.8199ZM175.096 49.6332C180.708 49.9057 183.073 45.9613 183.303 41.8813C183.533 37.8013 181.563 33.6145 175.951 33.3419C170.307 33.0679 167.972 37.0457 167.774 41.1272C167.576 45.2088 169.516 49.3622 175.096 49.6332ZM173.355 41.3982C173.443 39.5806 174.431 38.3182 175.706 38.3801C176.982 38.442 177.811 39.7928 177.723 41.6103C177.635 43.4279 176.647 44.6904 175.403 44.63C174.127 44.568 173.266 43.2158 173.355 41.3982ZM190.883 50.2399C190.573 45.4305 190.588 45.1117 190.687 43.0709C190.852 39.6909 192.245 38.6398 193.234 38.6878C193.68 38.7095 193.92 39.0408 193.898 39.4872C193.868 40.093 193.35 40.8989 192.054 41.2515L197.129 43.3837C198.376 42.7091 199.16 41.0531 199.242 39.3631C199.39 36.302 197.442 34.2896 195.402 34.1905C193.488 34.0976 191.525 35.6963 191.106 38.3928L190.756 38.3757L190.955 34.2623L185.598 34.0022C186.074 41.3127 186.006 42.7157 184.824 49.9457L190.883 50.2399ZM200.491 42.5881C200.252 47.4987 202.384 50.9902 205.796 51.1559C207.231 51.2255 208.647 50.3674 209.61 48.3047L210.939 51.2138L215.244 51.4229C214.768 44.1123 215.146 36.3319 216.328 29.1019L210.269 28.8077C210.506 32.4948 210.641 33.6521 210.457 37.4466L210.683 39.3753L210.364 39.3599C210.496 36.6495 208.566 34.9257 206.366 34.8188C203.751 34.6919 200.767 36.9121 200.491 42.5881ZM206.073 42.8271C206.149 41.2647 206.926 39.7363 208.329 39.8044C209.7 39.871 210.326 41.4675 210.25 43.03C210.174 44.5924 209.397 46.1208 208.025 46.0543C206.622 45.9861 205.997 44.3896 206.073 42.8271Z" fill="#152F11"/>
<defs>
<filter id="filter0_d_366_817" x="0.465332" y="6.9978" width="261.345" height="74.9792" filterUnits="userSpaceOnUse" color-interpolation-filters="sRGB">
<feFlood flood-opacity="0" result="BackgroundImageFix"/>
<feColorMatrix in="SourceAlpha" type="matrix" values="0 0 0 0 0 0 0 0 0 0 0 0 0 0 0 0 0 0 127 0" result="hardAlpha"/>
<feOffset dx="-1.5" dy="3"/>
<feComposite in2="hardAlpha" operator="out"/>
<feColorMatrix type="matrix" values="0 0 0 0 0.145098 0 0 0 0 0.305882 0 0 0 0 0.117647 0 0 0 1 0"/>
<feBlend mode="normal" in2="BackgroundImageFix" result="effect1_dropShadow_366_817"/>
<feBlend mode="normal" in="SourceGraphic" in2="effect1_dropShadow_366_817" result="shape"/>
</filter>
</defs>
</svg>
