<svg preserveAspectRatio="none" width="17" height="46" viewBox="0 0 17 46" fill="none" xmlns="http://www.w3.org/2000/svg">
<path fill-rule="evenodd" clip-rule="evenodd" d="M3.70504 11.4529C4.4363 8.63624 5.28193 5.76494 5.96817 3.56417C6.24925 2.66273 7.15362 2.11306 8.08539 2.26605L12.7558 3.03294C13.9099 3.22245 14.6247 4.39499 14.2808 5.5128C13.6509 7.55995 12.9119 10.0959 12.2674 12.5784C11.3478 16.1204 10.7072 19.2395 10.7072 20.7668C10.7072 22.4537 11.5015 24.1651 12.5904 26.1667C12.687 26.3443 12.7878 26.5276 12.8909 26.715C13.3246 27.504 13.7986 28.3661 14.1682 29.177C14.6287 30.1874 15.0608 31.3876 15.0608 32.6416C15.0608 33.9094 14.6205 35.088 14.1452 36.0744C13.768 36.8573 13.283 37.6819 12.8488 38.42C12.7468 38.5935 12.6476 38.7621 12.5532 38.9244C11.8881 40.0681 11.3391 41.1051 11.0173 42.1226C10.6992 43.1286 9.85186 44 8.79673 44H3.91048C2.85535 44 1.98598 43.1376 2.18417 42.1012C2.60086 39.9223 3.64672 38.0358 4.5076 36.5555C4.63528 36.336 4.75671 36.1292 4.87218 35.9325C5.29256 35.2167 5.63376 34.6356 5.90868 34.0651C6.24969 33.3574 6.35361 32.9226 6.35361 32.6416C6.35361 32.3466 6.24147 31.8689 5.88571 31.0884C5.60342 30.469 5.25159 29.8282 4.8294 29.0593C4.7149 28.8508 4.59523 28.6328 4.47037 28.4033C3.38254 26.4037 2 23.7265 2 20.7668C2 18.5768 2.81061 14.8981 3.70504 11.4529Z" fill="#7B613A" stroke="#254E1E" stroke-width="2.9024"/>
</svg>
