<svg width="388" height="77" viewBox="0 0 388 77" fill="none" xmlns="http://www.w3.org/2000/svg">
<mask id="path-1-outside-1_431_1994" maskUnits="userSpaceOnUse" x="-0.672974" y="-0.269958" width="389" height="74" fill="black">
<rect fill="white" x="-0.672974" y="-0.269958" width="389" height="74"/>
<path fill-rule="evenodd" clip-rule="evenodd" d="M210.439 65.7194C232.485 65.38 363.012 65.6473 376.884 66.6307L376.446 59.4462L379.132 55.7833L380.696 53.259L363.567 46.5001L383.057 45.2131L384.327 4.23992C359.102 3.57143 230.9 3.67362 210.766 3.90973C195.345 4.09057 26.4361 7.17275 3.72485 8.98264L10.4218 52.2428C12.7884 52.2429 15.9185 52.441 16.5423 52.4804L16.5432 52.4805C16.6116 52.4848 16.6497 52.4872 16.6529 52.4872C16.6682 52.4872 16.2762 52.8058 15.691 53.2814L15.6888 53.2833C15.0448 53.8066 14.1677 54.5196 13.342 55.2072L13.8083 60.3778C19.8954 60.1799 31.4138 62.3691 28.7896 62.5458C26.1655 62.7226 16.5561 63.6584 12.0794 64.1042L16.0623 70.4771C30.4785 69.2684 188.784 66.0528 210.439 65.7194ZM64.725 13.3174C64.725 15.8717 59.8002 17.9424 53.725 17.9424C47.6499 17.9424 42.725 15.8717 42.725 13.3174C42.725 10.7631 47.6499 8.69239 53.725 8.69239C59.8002 8.69239 64.725 10.7631 64.725 13.3174ZM324.725 13.6731C330.248 13.6731 334.725 11.6024 334.725 9.04812C334.725 6.49381 330.248 4.42312 324.725 4.42312C319.202 4.42312 314.725 6.49381 314.725 9.04812C314.725 11.6024 319.202 13.6731 324.725 13.6731Z"/>
</mask>
<path fill-rule="evenodd" clip-rule="evenodd" d="M210.439 65.7194C232.485 65.38 363.012 65.6473 376.884 66.6307L376.446 59.4462L379.132 55.7833L380.696 53.259L363.567 46.5001L383.057 45.2131L384.327 4.23992C359.102 3.57143 230.9 3.67362 210.766 3.90973C195.345 4.09057 26.4361 7.17275 3.72485 8.98264L10.4218 52.2428C12.7884 52.2429 15.9185 52.441 16.5423 52.4804L16.5432 52.4805C16.6116 52.4848 16.6497 52.4872 16.6529 52.4872C16.6682 52.4872 16.2762 52.8058 15.691 53.2814L15.6888 53.2833C15.0448 53.8066 14.1677 54.5196 13.342 55.2072L13.8083 60.3778C19.8954 60.1799 31.4138 62.3691 28.7896 62.5458C26.1655 62.7226 16.5561 63.6584 12.0794 64.1042L16.0623 70.4771C30.4785 69.2684 188.784 66.0528 210.439 65.7194ZM64.725 13.3174C64.725 15.8717 59.8002 17.9424 53.725 17.9424C47.6499 17.9424 42.725 15.8717 42.725 13.3174C42.725 10.7631 47.6499 8.69239 53.725 8.69239C59.8002 8.69239 64.725 10.7631 64.725 13.3174ZM324.725 13.6731C330.248 13.6731 334.725 11.6024 334.725 9.04812C334.725 6.49381 330.248 4.42312 324.725 4.42312C319.202 4.42312 314.725 6.49381 314.725 9.04812C314.725 11.6024 319.202 13.6731 324.725 13.6731Z" fill="#E1D2BA"/>
<path d="M376.884 66.6307L379.917 66.4458L380.128 69.9066L376.67 69.6615L376.884 66.6307ZM210.439 65.7193L210.485 68.7574L210.439 65.7193ZM376.446 59.4462L373.414 59.631L373.347 58.5352L373.996 57.6497L376.446 59.4462ZM379.132 55.7832L381.714 57.3836L381.652 57.4842L381.582 57.5797L379.132 55.7832ZM380.696 53.2589L381.811 50.4326L385.194 51.7676L383.279 54.8593L380.696 53.2589ZM363.567 46.5L362.452 49.3263L363.367 43.4682L363.567 46.5ZM383.058 45.213L386.094 45.3071L386.009 48.0631L383.258 48.2448L383.058 45.213ZM384.327 4.23985L384.408 1.20251L387.459 1.28337L387.364 4.33395L384.327 4.23985ZM210.766 3.90965L210.73 0.871461L210.766 3.90965ZM3.72498 8.98256L0.722351 9.44738L0.22174 6.2137L3.48361 5.95376L3.72498 8.98256ZM10.4219 52.2428V55.2812L7.81772 55.2812L7.41931 52.7076L10.4219 52.2428ZM16.5424 52.4804L16.3529 55.5129L16.3505 55.5127L16.5424 52.4804ZM16.5433 52.4804L16.7329 49.4479L16.7354 49.4481L16.5433 52.4804ZM15.6912 53.2813L17.6075 55.6392L17.5988 55.6462L15.6912 53.2813ZM15.6889 53.2832L13.7725 50.9254L13.7812 50.9183L15.6889 53.2832ZM13.3421 55.2072L10.316 55.48L10.1729 53.8925L11.3977 52.8724L13.3421 55.2072ZM13.8084 60.3777L13.9071 63.4145L11.0399 63.5077L10.7823 60.6506L13.8084 60.3777ZM28.7898 62.5458L28.994 65.5773H28.994L28.7898 62.5458ZM12.0795 64.1042L9.50293 65.7145L6.90991 61.5656L11.7784 61.0807L12.0795 64.1042ZM16.0625 70.477L16.3163 73.5048L14.4686 73.6597L13.4859 72.0874L16.0625 70.477ZM376.67 69.6615C362.954 68.6891 232.567 68.4174 210.485 68.7574L210.392 62.6813C232.403 62.3424 363.07 62.6053 377.099 63.5999L376.67 69.6615ZM379.479 59.2613L379.917 66.4458L373.852 66.8156L373.414 59.631L379.479 59.2613ZM381.582 57.5797L378.897 61.2426L373.996 57.6497L376.681 53.9868L381.582 57.5797ZM383.279 54.8593L381.714 57.3836L376.549 54.1828L378.113 51.6585L383.279 54.8593ZM364.682 43.6737L381.811 50.4326L379.581 56.0852L362.452 49.3263L364.682 43.6737ZM383.258 48.2448L363.767 49.5318L363.367 43.4682L382.857 42.1812L383.258 48.2448ZM387.364 4.33395L386.094 45.3071L380.021 45.1189L381.29 4.14574L387.364 4.33395ZM210.73 0.871461C230.872 0.635266 359.122 0.532404 384.408 1.20251L384.247 7.27718C359.083 6.6103 230.929 6.71182 210.801 6.94784L210.73 0.871461ZM3.48361 5.95376C26.3259 4.13343 195.372 1.05156 210.73 0.871461L210.801 6.94784C195.318 7.12941 26.5466 10.2119 3.96634 12.0114L3.48361 5.95376ZM7.41931 52.7076L0.722351 9.44738L6.7276 8.51773L13.4246 51.7779L7.41931 52.7076ZM16.3505 55.5127C15.7128 55.4723 12.6771 55.2812 10.4219 55.2812V49.2044C12.8998 49.2044 16.1245 49.4094 16.7343 49.448L16.3505 55.5127ZM16.3538 55.5129L16.3529 55.5129L16.732 49.4479L16.7329 49.4479L16.3538 55.5129ZM16.653 55.5256C16.5867 55.5256 16.533 55.5232 16.5318 55.5232C16.5164 55.5225 16.5041 55.5219 16.4981 55.5216C16.4854 55.521 16.4746 55.5204 16.4693 55.5201C16.4575 55.5194 16.445 55.5186 16.4349 55.518C16.4138 55.5167 16.3846 55.5149 16.3513 55.5127L16.7354 49.4481C16.7705 49.4503 16.7946 49.4518 16.8103 49.4528C16.8187 49.4533 16.8206 49.4534 16.8189 49.4534C16.8187 49.4533 16.812 49.4529 16.8022 49.4525C16.7978 49.4522 16.7866 49.4517 16.7722 49.4511C16.7649 49.4508 16.7526 49.4504 16.7372 49.4499C16.7293 49.4497 16.7186 49.4494 16.7059 49.4492C16.6938 49.449 16.6754 49.4488 16.653 49.4488V55.5256ZM13.7748 50.9235C14.0704 50.6833 14.3068 50.4911 14.4679 50.3587C14.551 50.2903 14.5987 50.2506 14.6199 50.2324C14.6371 50.2178 14.6129 50.2378 14.5742 50.2737C14.5719 50.2758 14.4819 50.3576 14.3786 50.4741C14.3473 50.5094 14.2942 50.5707 14.2331 50.6512C14.186 50.7132 14.0605 50.8815 13.9399 51.1207C13.8792 51.2411 13.7773 51.4621 13.7044 51.756C13.6377 52.025 13.5367 52.5844 13.7154 53.2621C13.9252 54.0575 14.4503 54.739 15.1772 55.143C15.7972 55.4876 16.3716 55.5256 16.653 55.5256V49.4488C16.9346 49.4488 17.5092 49.4868 18.1293 49.8314C18.8564 50.2355 19.3816 50.9171 19.5914 51.7127C19.7701 52.3906 19.6692 52.9502 19.6024 53.2194C19.5294 53.5135 19.4274 53.7347 19.3665 53.8555C19.17 54.2454 18.9249 54.5063 18.9237 54.5076C18.816 54.629 18.7185 54.7181 18.7058 54.7299C18.6464 54.785 18.5895 54.8336 18.5629 54.8563C18.4967 54.9128 18.4127 54.9824 18.3266 55.0531C18.1493 55.1989 17.8971 55.4038 17.6075 55.6392L13.7748 50.9235ZM13.7812 50.9183L13.7835 50.9164L17.5988 55.6462L17.5966 55.6481L13.7812 50.9183ZM11.3977 52.8724C12.2395 52.1713 13.1305 51.4472 13.7725 50.9254L17.6053 55.641C16.9594 56.1659 16.0962 56.8676 15.2866 57.5419L11.3977 52.8724ZM10.7823 60.6506L10.316 55.48L16.3683 54.9343L16.8345 60.1048L10.7823 60.6506ZM28.5855 59.5142C28.7603 59.5025 28.3784 59.4969 27.8954 59.7098C27.7526 59.7727 26.6301 60.254 26.2454 61.6266C25.7984 63.2214 26.7617 64.3011 26.991 64.5325C27.2935 64.8377 27.5806 64.9877 27.6359 65.017C27.7332 65.0685 27.7971 65.093 27.799 65.0937C27.8046 65.0959 27.7445 65.0732 27.5883 65.0292C26.9486 64.849 25.6983 64.5866 24.0728 64.3194C20.8193 63.7844 16.6506 63.3253 13.9071 63.4145L13.7097 57.3409C17.0534 57.2322 21.6875 57.7688 25.0588 58.3231C26.7458 58.6005 28.2635 58.9062 29.2357 59.18C29.4824 59.2495 29.7531 59.3332 30.0075 59.4324C30.1339 59.4817 30.3018 59.5524 30.4815 59.6476C30.619 59.7205 30.9669 59.9115 31.3073 60.255C31.5744 60.5245 32.5527 61.6396 32.0967 63.2666C31.7029 64.6714 30.5474 65.1818 30.3463 65.2704C29.7467 65.5347 29.1473 65.567 28.994 65.5773L28.5855 59.5142ZM11.7784 61.0807C16.2262 60.6378 25.8996 59.6952 28.5856 59.5142L28.994 65.5773C26.4316 65.7499 16.8862 66.6789 12.3806 67.1276L11.7784 61.0807ZM13.4859 72.0874L9.50293 65.7145L14.6561 62.4938L18.639 68.8667L13.4859 72.0874ZM210.485 68.7574C188.748 69.092 30.5977 72.3074 16.3163 73.5048L15.8086 67.4493C30.3595 66.2293 188.82 63.0134 210.392 62.6813L210.485 68.7574ZM53.7252 14.9039C56.4588 14.9039 58.7906 14.4322 60.3257 13.7868C61.0995 13.4614 61.5287 13.1516 61.7187 12.9627C61.8972 12.7852 61.6868 12.9075 61.6868 13.3173H67.7635C67.7635 15.0043 66.9375 16.3432 66.0028 17.2724C65.0795 18.1902 63.8978 18.877 62.681 19.3886C60.2349 20.417 57.0667 20.9807 53.7252 20.9807V14.9039ZM45.7635 13.3173C45.7635 12.9075 45.5531 12.7852 45.7317 12.9627C45.9217 13.1516 46.3508 13.4614 47.1246 13.7868C48.6598 14.4322 50.9915 14.9039 53.7252 14.9039V20.9807C50.3837 20.9807 47.2154 20.417 44.7693 19.3886C43.5525 18.877 42.3708 18.1902 41.4475 17.2724C40.5128 16.3432 39.6868 15.0043 39.6868 13.3173H45.7635ZM53.7252 11.7307C50.9915 11.7307 48.6598 12.2024 47.1246 12.8478C46.3508 13.1732 45.9217 13.483 45.7317 13.6719C45.5531 13.8494 45.7635 13.7271 45.7635 13.3173H39.6868C39.6868 11.6303 40.5128 10.2914 41.4475 9.3622C42.3708 8.44442 43.5525 7.75766 44.7693 7.24605C47.2154 6.21757 50.3837 5.65391 53.7252 5.65391V11.7307ZM61.6868 13.3173C61.6868 13.7271 61.8972 13.8494 61.7187 13.6719C61.5287 13.483 61.0995 13.1732 60.3257 12.8478C58.7906 12.2024 56.4588 11.7307 53.7252 11.7307V5.65391C57.0667 5.65391 60.2349 6.21757 62.681 7.24605C63.8978 7.75766 65.0795 8.44442 66.0028 9.3622C66.9375 10.2914 67.7635 11.6303 67.7635 13.3173H61.6868ZM337.764 9.04805C337.764 12.2214 335.109 14.1341 333.072 15.0761C330.779 16.1366 327.825 16.7114 324.725 16.7114V10.6346C327.148 10.6346 329.194 10.1741 330.521 9.56068C332.103 8.82885 331.687 8.42905 331.687 9.04805H337.764ZM324.725 1.38465C327.825 1.38465 330.779 1.95948 333.072 3.01994C335.109 3.96204 337.764 5.87473 337.764 9.04805H331.687C331.687 9.66704 332.103 9.26724 330.521 8.53541C329.194 7.92195 327.148 7.46144 324.725 7.46144V1.38465ZM311.687 9.04805C311.687 5.87473 314.342 3.96204 316.379 3.01994C318.672 1.95948 321.626 1.38465 324.725 1.38465V7.46144C322.302 7.46144 320.256 7.92195 318.93 8.53541C317.347 9.26724 317.764 9.66704 317.764 9.04805H311.687ZM324.725 16.7114C321.626 16.7114 318.672 16.1366 316.379 15.0761C314.342 14.1341 311.687 12.2214 311.687 9.04805H317.764C317.764 8.42905 317.347 8.82885 318.93 9.56068C320.256 10.1741 322.302 10.6346 324.725 10.6346V16.7114Z" fill="#254E1E" mask="url(#path-1-outside-1_431_1994)"/>
<path d="M28.7893 62.5461C26.1651 62.7228 16.5557 63.6587 12.079 64.1045L14.0705 67.2909C31.3017 66.9259 74.4377 63.7628 109.132 63.4489C143.827 63.1349 301.797 61.4346 376.446 59.4465L379.131 55.7835L380.695 53.2592L363.566 46.5003L383.057 45.2133L383.209 40.2958C328.489 43.239 213.366 49.4393 190.635 50.6951C167.904 51.9508 60.6996 50.1718 9.93883 49.1254L10.4215 52.2431C13.0499 52.2431 16.6204 52.4875 16.6525 52.4875C16.6846 52.4875 14.9192 53.8936 13.3416 55.2075L13.8079 60.378C19.8951 60.1802 31.4134 62.3693 28.7893 62.5461Z" fill="#D8C5A7"/>
<path d="M5.04939 17.535L6.47703 26.7569C63.2523 27.8034 244.772 20.9097 266.904 21.0667C289.037 21.2236 328.966 22.244 383.77 22.244L384.128 10.6675C328.225 15.8078 173.064 17.9273 149.137 19.497C125.21 21.0667 52.5801 17.7966 5.04939 17.535Z" fill="#D8C5A7"/>
</svg>
