<svg preserveAspectRatio="none" width="288" height="51" viewBox="0 0 288 51" fill="none" xmlns="http://www.w3.org/2000/svg">
<path fill-rule="evenodd" clip-rule="evenodd" d="M272.955 12.3853C274.718 8.96881 276.845 5.46339 278.604 3.14578C279.134 2.44801 280.076 2.24067 280.878 2.59383L284.795 4.3193C286.028 4.86259 286.411 6.47033 285.653 7.5844C284.386 9.44466 282.877 11.974 281.511 14.6211C280.515 16.5517 279.636 18.4643 279.013 20.1246C278.363 21.8583 278.087 23.0701 278.087 23.7049C278.087 25.7608 278.756 27.1744 280.04 29.4592C280.154 29.6613 280.271 29.8686 280.392 30.0817C281.473 31.9902 280.663 37.4399 281.261 41.766C281.429 42.9809 280.673 44.2237 279.463 44.4263L274.582 45.2434C273.609 45.4063 272.655 44.8331 272.517 43.8563C271.953 39.8715 273.025 34.4275 271.93 32.4936C271.811 32.2826 271.693 32.0743 271.577 31.868C270.203 29.4235 268.972 27.0537 268.972 23.7049C268.972 22.1776 269.52 20.2817 270.207 18.4516C270.921 16.5481 271.894 14.4408 272.955 12.3853ZM3.51003 15.0628C4.27556 12.1142 5.16081 9.10833 5.8792 6.80444C6.17345 5.86076 7.1202 5.28534 8.09562 5.4455L12.9849 6.24833C14.1931 6.44671 14.9414 7.67419 14.5813 8.84438C13.9219 10.9874 13.1483 13.6422 12.4736 16.241C11.5109 19.949 10.8403 23.2143 10.8403 24.8131C10.8403 26.5791 11.6718 28.3706 12.8118 30.4661C12.9129 30.6519 13.0184 30.8438 13.1263 31.0401C13.5804 31.866 14.0765 32.7685 14.4635 33.6174C14.9456 34.6751 15.3979 35.9316 15.3979 37.2443C15.3979 38.5716 14.937 39.8054 14.4394 40.838C14.0445 41.6576 13.5368 42.5208 13.0822 43.2935C12.9754 43.4751 12.8716 43.6517 12.7728 43.8215C12.0765 45.0188 11.5018 46.1044 11.165 47.1696C10.8319 48.2227 9.94487 49.1349 8.8403 49.1349H3.7251C2.62053 49.1349 1.71042 48.2321 1.9179 47.1472C2.35411 44.8662 3.44898 42.8913 4.3502 41.3416C4.48386 41.1118 4.61098 40.8953 4.73185 40.6895C5.17193 39.9401 5.52912 39.3318 5.81693 38.7345C6.17391 37.9936 6.2827 37.5385 6.2827 37.2443C6.2827 36.9355 6.16531 36.4354 5.79288 35.6183C5.49736 34.97 5.12905 34.2992 4.68707 33.4942C4.56721 33.2759 4.44194 33.0477 4.31122 32.8074C3.17242 30.7141 1.7251 27.9115 1.7251 24.8131C1.7251 22.5205 2.57369 18.6694 3.51003 15.0628Z" fill="#7B613A" stroke="#254E1E" stroke-width="3.0384"/>
</svg>
