<svg width="18" height="48" viewBox="0 0 18 48" fill="none" xmlns="http://www.w3.org/2000/svg">
<path fill-rule="evenodd" clip-rule="evenodd" d="M3.78493 11.8959C4.55046 8.94719 5.43571 5.94135 6.1541 3.63746C6.44836 2.69378 7.3951 2.11835 8.37053 2.27852L13.2598 3.08134C14.468 3.27973 15.2163 4.50721 14.8562 5.6774C14.1968 7.82047 13.4232 10.4752 12.7485 13.074C11.7858 16.782 11.1152 20.0473 11.1152 21.6462C11.1152 23.4121 11.9467 25.2036 13.0867 27.2991C13.1878 27.485 13.2933 27.6769 13.4012 27.8731C13.8553 28.699 14.3514 29.6015 14.7384 30.4504C15.2205 31.5082 15.6728 32.7646 15.6728 34.0773C15.6728 35.4046 15.2119 36.6384 14.7143 37.671C14.3194 38.4906 13.8117 39.3538 13.3571 40.1265C13.2503 40.3081 13.1465 40.4847 13.0477 40.6545C12.3514 41.8518 11.7767 42.9374 11.4399 44.0026C11.1068 45.0557 10.2198 45.968 9.1152 45.968H4C2.89543 45.968 1.98533 45.0651 2.1928 43.9802C2.62902 41.6992 3.72388 39.7244 4.6251 38.1747C4.75876 37.9448 4.88588 37.7283 5.00676 37.5225C5.44683 36.7731 5.80403 36.1648 6.09183 35.5675C6.44882 34.8267 6.5576 34.3715 6.5576 34.0773C6.5576 33.7686 6.44021 33.2684 6.06778 32.4513C5.77226 31.803 5.40395 31.1322 4.96197 30.3272C4.84211 30.1089 4.71684 29.8807 4.58613 29.6404C3.44732 27.5472 2 24.7446 2 21.6462C2 19.3535 2.84859 15.5024 3.78493 11.8959Z" fill="#7B613A" stroke="#254E1E" stroke-width="3.0384"/>
</svg>
