<svg width="388" height="77" viewBox="0 0 388 77" fill="none" xmlns="http://www.w3.org/2000/svg">
<mask id="path-1-outside-1_472_2502" maskUnits="userSpaceOnUse" x="-0.397949" y="-0.928284" width="389" height="74" fill="black">
<rect fill="white" x="-0.397949" y="-0.928284" width="389" height="74"/>
<path d="M210.714 65.0611C232.76 64.7217 363.287 64.989 377.159 65.9724L376.721 58.7879L379.407 55.125L380.971 52.6007L363.842 45.8418L383.332 44.5547L384.602 3.5816C359.377 2.9131 231.176 3.01529 211.041 3.2514C195.62 3.43224 26.7111 6.51443 3.99987 8.32431L10.6968 51.5845C13.3253 51.5845 16.8958 51.8289 16.9279 51.8289C16.96 51.8289 15.1946 53.235 13.617 54.5489L14.0833 59.7195C20.1705 59.5216 31.6888 61.7107 29.0647 61.8875C26.4405 62.0643 16.8311 63.0001 12.3544 63.4459L16.3374 69.8188C30.7535 68.6101 189.059 65.3944 210.714 65.0611Z"/>
</mask>
<path d="M210.714 65.0611C232.76 64.7217 363.287 64.989 377.159 65.9724L376.721 58.7879L379.407 55.125L380.971 52.6007L363.842 45.8418L383.332 44.5547L384.602 3.5816C359.377 2.9131 231.176 3.01529 211.041 3.2514C195.62 3.43224 26.7111 6.51443 3.99987 8.32431L10.6968 51.5845C13.3253 51.5845 16.8958 51.8289 16.9279 51.8289C16.96 51.8289 15.1946 53.235 13.617 54.5489L14.0833 59.7195C20.1705 59.5216 31.6888 61.7107 29.0647 61.8875C26.4405 62.0643 16.8311 63.0001 12.3544 63.4459L16.3374 69.8188C30.7535 68.6101 189.059 65.3944 210.714 65.0611Z" fill="#E1D2BA"/>
<path d="M377.159 65.9724L380.192 65.7875L380.403 69.2484L376.944 69.0032L377.159 65.9724ZM210.714 65.0611L210.667 62.023L210.667 62.023L210.714 65.0611ZM16.3374 69.8188L16.5912 72.8466L14.7435 73.0015L13.7608 71.4291L16.3374 69.8188ZM12.3544 63.4459L9.77784 65.0562L7.18482 60.9073L12.0533 60.4225L12.3544 63.4459ZM29.0647 61.8875L29.2689 64.919L29.2689 64.919L29.0647 61.8875ZM14.0833 59.7195L14.182 62.7563L11.3148 62.8495L11.0572 59.9923L14.0833 59.7195ZM13.617 54.5489L10.5909 54.8218L10.4478 53.2343L11.6726 52.2142L13.617 54.5489ZM16.9279 51.8289L16.9277 48.7905L16.9281 48.7905L16.9279 51.8289ZM10.6968 51.5845L10.6968 54.6229L8.09262 54.6229L7.69421 52.0494L10.6968 51.5845ZM3.99987 8.32431L0.997234 8.78914L0.496638 5.55546L3.7585 5.29551L3.99987 8.32431ZM211.041 3.2514L211.005 0.213214L211.005 0.213214L211.041 3.2514ZM384.602 3.5816L384.683 0.544266L387.734 0.625122L387.639 3.6757L384.602 3.5816ZM379.407 55.125L381.989 56.7254L381.927 56.826L381.857 56.9214L379.407 55.125ZM376.721 58.7879L373.688 58.9728L373.622 57.8769L374.271 56.9915L376.721 58.7879ZM383.332 44.5547L386.369 44.6488L386.284 47.4048L383.533 47.5865L383.332 44.5547ZM363.842 45.8418L362.726 48.6681L363.641 42.81L363.842 45.8418ZM380.971 52.6007L382.086 49.7743L385.469 51.1093L383.554 54.201L380.971 52.6007ZM376.944 69.0032C363.228 68.0309 232.842 67.7592 210.76 68.0991L210.667 62.023C232.678 61.6842 363.345 61.9471 377.374 62.9416L376.944 69.0032ZM210.76 68.0991C189.023 68.4337 30.8726 71.6492 16.5912 72.8466L16.0835 66.791C30.6344 65.571 189.095 62.3551 210.667 62.023L210.76 68.0991ZM13.7608 71.4291L9.77784 65.0562L14.931 61.8356L18.9139 68.2085L13.7608 71.4291ZM12.0533 60.4225C16.5011 59.9795 26.1745 59.0369 28.8605 58.856L29.2689 64.919C26.7065 65.0916 17.1611 66.0207 12.6555 66.4694L12.0533 60.4225ZM28.8604 58.856C29.0352 58.8442 28.6533 58.8387 28.1703 59.0515C28.0275 59.1145 26.905 59.5957 26.5203 60.9683C26.0733 62.5631 27.0366 63.6428 27.2659 63.8742C27.5683 64.1795 27.8555 64.3294 27.9108 64.3587C28.008 64.4103 28.072 64.4347 28.0739 64.4355C28.0795 64.4376 28.0194 64.415 27.8632 64.371C27.2235 64.1908 25.9732 63.9284 24.3478 63.6611C21.0942 63.1262 16.9255 62.6671 14.182 62.7563L13.9846 56.6827C17.3283 56.574 21.9624 57.1105 25.3337 57.6649C27.0208 57.9422 28.5384 58.2479 29.5106 58.5217C29.7573 58.5912 30.028 58.6749 30.2824 58.7742C30.4088 58.8235 30.5768 58.8942 30.7564 58.9894C30.894 59.0623 31.2418 59.2533 31.5822 59.5967C31.8493 59.8663 32.8276 60.9814 32.3716 62.6084C31.9778 64.0132 30.8222 64.5236 30.6212 64.6122C30.0216 64.8765 29.4222 64.9087 29.2689 64.919L28.8604 58.856ZM11.0572 59.9923L10.5909 54.8218L16.6432 54.276L17.1094 59.4466L11.0572 59.9923ZM11.6726 52.2142C12.4771 51.5442 13.3259 50.8536 13.9597 50.3384C14.2805 50.0776 14.5399 49.867 14.7184 49.7205C14.81 49.6453 14.8653 49.5993 14.8924 49.5763C14.912 49.5596 14.8918 49.5762 14.8569 49.6083C14.8552 49.6098 14.7713 49.6855 14.6737 49.7933C14.6734 49.7936 14.4467 50.0308 14.2552 50.3851C14.1961 50.4944 14.0954 50.6958 14.0156 50.9647C13.9449 51.2026 13.817 51.7329 13.9436 52.3977C14.095 53.1925 14.5741 53.9559 15.3552 54.4285C16.0135 54.8269 16.6373 54.8673 16.9277 54.8673L16.9281 48.7905C17.2187 48.7905 17.8427 48.831 18.5012 49.2294C19.2824 49.7022 19.7616 50.4657 19.9131 51.2607C20.0397 51.9256 19.9117 52.4561 19.841 52.6943C19.7611 52.9635 19.6603 53.1651 19.601 53.2748C19.4087 53.6305 19.1804 53.8697 19.1777 53.8727C19.0752 53.9859 18.983 54.0696 18.9698 54.0817C18.9117 54.1351 18.8554 54.1832 18.8268 54.2075C18.7573 54.2665 18.6676 54.3407 18.5735 54.4178C18.3808 54.576 18.1062 54.799 17.7926 55.054C17.1573 55.5703 16.3346 56.2398 15.5615 56.8836L11.6726 52.2142ZM16.9281 54.8673C16.8791 54.8673 16.8407 54.8661 16.8307 54.8658C16.8147 54.8653 16.8018 54.8647 16.7946 54.8644C16.78 54.8638 16.7682 54.8632 16.7628 54.8629C16.7509 54.8622 16.7403 54.8616 16.7344 54.8613C16.7213 54.8605 16.706 54.8595 16.6914 54.8586C16.6621 54.8568 16.6179 54.854 16.5673 54.8508C16.4631 54.8442 16.3139 54.8348 16.1277 54.8236C15.7549 54.8012 15.2343 54.7713 14.6347 54.7413C13.4245 54.681 11.9346 54.6229 10.6968 54.6229L10.6968 48.5461C12.0876 48.5461 13.6971 48.6102 14.9373 48.6721C15.5629 48.7033 16.1052 48.7345 16.4931 48.7578C16.6872 48.7695 16.8427 48.7793 16.9502 48.7861C17.1799 48.8006 17.0516 48.7905 16.9277 48.7905L16.9281 54.8673ZM7.69421 52.0494L0.997234 8.78914L7.0025 7.85948L13.6995 51.1197L7.69421 52.0494ZM3.7585 5.29551C26.6008 3.47519 195.647 0.393317 211.005 0.213214L211.076 6.2896C195.593 6.47117 26.8215 9.55366 4.24124 11.3531L3.7585 5.29551ZM211.005 0.213214C231.147 -0.0229804 359.397 -0.125842 384.683 0.544266L384.522 6.61893C359.358 5.95205 231.204 6.05357 211.076 6.2896L211.005 0.213214ZM381.857 56.9214L379.172 60.5844L374.271 56.9915L376.956 53.3285L381.857 56.9214ZM379.754 58.603L380.192 65.7875L374.126 66.1573L373.688 58.9728L379.754 58.603ZM387.639 3.6757L386.369 44.6488L380.295 44.4606L381.565 3.48749L387.639 3.6757ZM383.533 47.5865L364.042 48.8736L363.641 42.81L383.132 41.5229L383.533 47.5865ZM364.957 43.0154L382.086 49.7743L379.856 55.427L362.726 48.6681L364.957 43.0154ZM383.554 54.201L381.989 56.7254L376.824 53.5246L378.388 51.0003L383.554 54.201Z" fill="#254E1E" mask="url(#path-1-outside-1_472_2502)"/>
<path d="M29.0643 61.8878C26.4401 62.0645 16.8307 63.0004 12.3541 63.4462L14.3455 66.6326C31.5767 66.2676 74.7128 63.1045 109.407 62.7905C144.102 62.4766 302.072 60.7763 376.721 58.7882L379.406 55.1252L380.97 52.6009L363.841 45.842L383.332 44.555L383.484 39.6375C328.764 42.5807 213.641 48.781 190.91 50.0368C168.179 51.2925 60.9747 49.5135 10.2139 48.4671L10.6965 51.5848C13.3249 51.5848 16.8954 51.8292 16.9275 51.8292C16.9596 51.8292 15.1942 53.2353 13.6166 54.5492L14.0829 59.7197C20.1701 59.5218 31.6884 61.711 29.0643 61.8878Z" fill="#D8C5A7"/>
<path d="M5.32441 16.8766L6.75205 26.0986C63.5273 27.1451 245.047 20.2514 267.179 20.4084C289.312 20.5653 329.241 21.5857 384.045 21.5857L384.403 10.0092C328.5 15.1495 173.339 17.269 149.412 18.8387C125.485 20.4084 52.8551 17.1383 5.32441 16.8766Z" fill="#D8C5A7"/>
</svg>
