<svg width="130" height="185" viewBox="0 0 130 185" fill="none" xmlns="http://www.w3.org/2000/svg">
<g filter="url(#filter0_d_156_2357)">
<path d="M29.2352 140.785C34.0168 151.463 39.4756 163.337 43.5001 175.331C44.4564 178.2 47.0065 180.232 49.9949 180.511C61.0323 181.507 77.4886 180.511 93.2277 176.088C108.13 171.944 118.171 164.413 125.423 158.118C127.336 156.444 128.292 153.934 127.973 151.423C125.742 134.17 122.554 124.089 118.888 110.103C118.012 106.796 115.063 104.485 111.637 104.445C101.914 104.286 89.2033 105.202 74.9783 109.267C55.2546 114.925 40.671 124.328 31.3869 131.7C28.7172 133.851 27.8008 137.597 29.2352 140.785Z" fill="#D3BEAF" stroke="#254E1E" stroke-width="2.30349" stroke-miterlimit="10"/>
<path d="M44.9345 70.0581C50.7918 74.5209 55.3741 80.4181 58.3227 87.152C61.9885 95.7986 62.8253 105.362 60.6736 114.526L70.5554 113.012C71.6312 107.912 73.6235 94.8024 67.1685 80.6572C64.4191 74.6404 60.4744 69.1815 55.6132 64.679L44.9345 70.0581Z" fill="#8BC081" stroke="#254E1E" stroke-width="2.30349" stroke-miterlimit="10"/>
<mask id="path-3-inside-1_156_2357" fill="white">
<path d="M27.6414 128.831C28.4384 125.643 31.108 116.2 38.7983 109.784C50.9114 99.6237 64.6583 106.119 65.9732 106.756"/>
</mask>
<path d="M27.6414 128.831C28.4384 125.643 31.108 116.2 38.7983 109.784C50.9114 99.6237 64.6583 106.119 65.9732 106.756" fill="#254E1E"/>
<path d="M38.7983 109.784L39.0535 110.09L39.0544 110.09L38.7983 109.784ZM28.028 128.927C28.8215 125.753 31.4668 116.419 39.0535 110.09L38.543 109.478C30.7492 115.98 28.0552 125.533 27.2549 128.734L28.028 128.927ZM39.0544 110.09C50.9633 100.1 64.4893 106.479 65.7993 107.115L66.147 106.398C64.8272 105.758 50.8596 99.1471 38.5422 109.479L39.0544 110.09Z" fill="#254E1E" mask="url(#path-3-inside-1_156_2357)"/>
<path d="M27.6414 128.831C28.4384 125.643 31.108 116.2 38.7983 109.784C50.9114 99.6237 64.6583 106.119 65.9732 106.756" stroke="#254E1E" stroke-width="2.30349" stroke-miterlimit="10"/>
<mask id="path-6-inside-2_156_2357" fill="white">
<path d="M60.1555 110.741C62.0282 108.31 67.7262 101.178 74.5 97.9503C85.2584 92.8501 89.1633 102.054 89.5219 102.931"/>
</mask>
<path d="M60.1555 110.741C62.0282 108.31 67.7262 101.178 74.5 97.9503C85.2584 92.8501 89.1633 102.054 89.5219 102.931" fill="#254E1E"/>
<path d="M74.5 97.9503L74.3293 97.5903L74.3286 97.5906L74.5 97.9503ZM60.4711 110.984C62.3473 108.549 67.9939 101.492 74.6714 98.3101L74.3286 97.5906C67.4585 100.864 61.7092 108.071 59.8399 110.498L60.4711 110.984ZM74.6707 98.3104C77.3093 97.0595 79.5002 96.6983 81.3019 96.8507C83.1022 97.0029 84.5403 97.6701 85.6719 98.5182C87.9483 100.224 88.9806 102.66 89.1531 103.082L89.8907 102.78C89.7046 102.325 88.6051 99.7207 86.1498 97.8805C84.9156 96.9555 83.3379 96.2231 81.369 96.0566C79.4015 95.8902 77.0699 96.2911 74.3293 97.5903L74.6707 98.3104Z" fill="#254E1E" mask="url(#path-6-inside-2_156_2357)"/>
<path d="M60.1555 110.741C62.0282 108.31 67.7262 101.178 74.5 97.9503C85.2584 92.8501 89.1633 102.054 89.5219 102.931" stroke="#254E1E" stroke-width="2.30349" stroke-miterlimit="10"/>
<mask id="path-9-inside-3_156_2357" fill="white">
<path d="M121.08 100.102C118.57 98.2293 110.959 92.89 102.193 92.372C88.3267 91.5751 84.0233 103.648 83.6249 104.804"/>
</mask>
<path d="M121.08 100.102C118.57 98.2293 110.959 92.89 102.193 92.372C88.3267 91.5751 84.0233 103.648 83.6249 104.804" fill="#254E1E"/>
<path d="M102.193 92.372L102.217 91.9742L102.216 91.9742L102.193 92.372ZM121.318 99.7827C118.802 97.9057 111.109 92.4997 102.217 91.9742L102.17 92.7697C110.809 93.2803 118.337 98.5529 120.842 100.421L121.318 99.7827ZM102.216 91.9742C95.1458 91.5678 90.4932 94.4489 87.5672 97.5839C84.6521 100.707 83.4544 104.076 83.2482 104.674L84.0016 104.934C84.1938 104.376 85.347 101.131 88.1498 98.1276C90.9417 95.1363 95.374 92.3792 102.17 92.7698L102.216 91.9742Z" fill="#254E1E" mask="url(#path-9-inside-3_156_2357)"/>
<path d="M121.08 100.102C118.57 98.2293 110.959 92.89 102.193 92.372C88.3267 91.5751 84.0233 103.648 83.6249 104.804" stroke="#254E1E" stroke-width="2.30349" stroke-miterlimit="10"/>
<path d="M21.5449 133.732C21.3457 133.293 21.3457 132.775 21.4652 132.297C21.5848 131.819 21.8637 131.421 22.2223 131.102C49.7558 108.868 84.342 97.2728 119.725 98.4283C120.124 98.4283 120.522 98.5479 120.841 98.7471C121.199 98.9463 121.478 99.2253 121.638 99.5839C122.235 100.7 122.793 105.003 123.152 106.238C123.271 106.557 123.271 106.916 123.232 107.234C123.192 107.593 123.072 107.912 122.873 108.191C122.674 108.47 122.435 108.709 122.116 108.908C121.837 109.067 121.478 109.187 121.16 109.227C113.31 109.904 91.6737 112.095 71.0734 118.949C60.0361 122.615 44.018 127.356 26.3663 140.824C26.0874 141.024 25.7686 141.183 25.41 141.263C25.0514 141.342 24.6928 141.303 24.374 141.223C24.0154 141.143 23.7365 140.944 23.4575 140.705C23.1786 140.466 22.9794 140.187 22.8599 139.868C22.4215 138.792 21.9832 134.847 21.5449 133.732Z" fill="#D3BEAF" stroke="#254E1E" stroke-width="2.30349" stroke-miterlimit="10"/>
<path d="M78.4844 143.932C72.8662 143.932 65.4947 136.919 63.3032 129.548C61.789 124.408 62.3469 117.833 64.6181 113.928C65.7338 112.015 67.2479 110.78 68.9613 110.382C69.3996 110.302 69.798 110.222 70.2762 110.222C74.0217 110.222 78.3649 113.769 81.712 119.507L82.3495 120.622L76.8906 125.483L84.7402 126.958L84.8598 128.113C84.9793 129.189 85.2582 131.978 85.0192 134.927C84.6605 139.35 83.3058 142.179 80.9947 143.334C80.2775 143.773 79.4009 143.932 78.4844 143.932Z" fill="#254E1E"/>
<path d="M70.2762 111.856C73.5037 111.856 77.4485 115.363 80.3174 120.344C78.0063 122.376 75.7351 124.448 73.424 126.48C76.7312 127.117 79.9986 127.715 83.3058 128.353C83.4652 129.628 84.5809 139.868 80.3174 141.94C79.7595 142.219 79.1618 142.338 78.4844 142.338C73.8623 142.338 66.9291 136.202 64.8572 129.07C62.8649 122.376 64.6978 113.012 69.3199 111.936C69.6387 111.896 69.9574 111.856 70.2762 111.856ZM70.2762 108.669C69.7184 108.669 69.1605 108.748 68.6027 108.868C66.451 109.386 64.6181 110.86 63.2633 113.171C60.753 117.475 60.1553 124.408 61.789 130.026C64.1798 138.155 72.1489 145.566 78.4844 145.566C79.64 145.566 80.7557 145.327 81.712 144.849C87.4498 142.02 86.9318 132.138 86.4536 128.034L86.1747 125.723L83.9035 125.284L80.3572 124.607L82.4292 122.774L84.3816 121.061L83.0667 118.829C79.4009 112.454 74.6194 108.669 70.2762 108.669Z" fill="#D3BEAF"/>
<path d="M108.17 152.459C102.352 156.643 95.4588 159.074 88.2866 159.512C74.6991 160.269 65.1759 153.296 62.6656 151.344" stroke="#254E1E" stroke-width="2.46399" stroke-miterlimit="10" stroke-linecap="round"/>
<path d="M55.1349 153.974C56.4897 154.571 58.0437 154.611 59.4781 154.093C60.8728 153.575 62.0283 152.499 62.6658 151.145C63.3034 149.79 63.383 148.236 62.9049 146.841C62.4267 145.447 61.3908 144.251 60.036 143.614" stroke="#254E1E" stroke-width="2.46399" stroke-miterlimit="10" stroke-linecap="round"/>
<path d="M54.3382 145.447C54.7367 145.447 55.0156 145.128 55.0156 144.769C55.0156 144.371 54.6968 144.092 54.3382 144.092C53.9398 144.092 53.6608 144.411 53.6608 144.769C53.6608 145.128 53.9398 145.447 54.3382 145.447Z" fill="#254E1E" stroke="#254E1E" stroke-width="1.23199" stroke-miterlimit="10" stroke-linecap="round"/>
<path d="M51.1904 151.025C51.5889 151.025 51.8678 150.706 51.8678 150.348C51.8678 149.949 51.549 149.67 51.1904 149.67C50.792 149.67 50.513 149.989 50.513 150.348C50.4732 150.746 50.792 151.025 51.1904 151.025Z" fill="#254E1E" stroke="#254E1E" stroke-width="1.23199" stroke-miterlimit="10" stroke-linecap="round"/>
<path d="M47.4048 146.801C47.8032 146.801 48.0821 146.482 48.0821 146.124C48.0821 145.725 47.7634 145.446 47.4048 145.446C47.0063 145.446 46.7274 145.765 46.7274 146.124C46.7274 146.482 47.0063 146.801 47.4048 146.801Z" fill="#254E1E" stroke="#254E1E" stroke-width="1.23199" stroke-miterlimit="10" stroke-linecap="round"/>
<path d="M108.887 133.931C104.424 133.931 98.846 128.672 97.1326 122.854C95.9771 118.909 96.4154 113.849 98.1686 110.86C99.0452 109.346 100.28 108.35 101.675 108.031C102.034 107.952 102.392 107.912 102.751 107.912C105.699 107.912 109.086 110.661 111.676 115.044L112.314 116.16L108.608 119.467L113.987 120.463L114.107 121.619C114.466 124.528 114.864 131.54 110.999 133.413C110.361 133.772 109.644 133.931 108.887 133.931Z" fill="#254E1E"/>
<path d="M102.711 109.506C105.141 109.506 108.09 112.136 110.242 115.881C108.528 117.435 106.815 118.949 105.062 120.503C107.532 120.981 110.003 121.42 112.473 121.898C112.593 122.854 113.429 130.505 110.242 132.098C109.843 132.298 109.365 132.377 108.887 132.377C105.42 132.377 100.24 127.795 98.6466 122.456C97.1723 117.435 98.5271 110.422 101.994 109.625C102.233 109.506 102.472 109.506 102.711 109.506ZM102.711 106.318C102.233 106.318 101.755 106.358 101.276 106.477C100.001 106.756 98.1685 107.633 96.7738 110.064C94.7816 113.451 94.3034 118.909 95.6183 123.292C96.4949 126.321 98.3677 129.309 100.878 131.66C102.392 133.095 105.46 135.485 108.887 135.485C109.883 135.485 110.8 135.286 111.676 134.848C116.258 132.577 116.139 125.484 115.661 121.42L115.382 119.109L113.111 118.67L112.075 118.471L112.433 118.152L114.386 116.439L113.071 114.208C110.122 109.267 106.297 106.318 102.711 106.318Z" fill="#D3BEAF"/>
<path d="M91.2353 135.525C91.5541 138.394 96.8934 141.303 101.197 139.868C104.663 138.713 107.572 134.768 106.576 131.939C105.739 129.628 102.552 128.99 101.954 128.871C96.9333 127.994 90.8369 132.218 91.2353 135.525Z" fill="#CE9C78" stroke="#254E1E" stroke-width="2.30349" stroke-miterlimit="10"/>
<path d="M86.6929 61.2921C80.9551 58.5428 69.4794 54.2792 69.5591 54.08C72.0694 53.7612 77.8072 54.1597 88.9641 52.4065C92.8291 51.8088 96.7739 45.4335 94.0245 36.0298C91.315 26.8653 85.6967 23.2393 79.9191 25.5504C75.6954 27.184 71.5514 29.017 67.527 31.0889C68.045 30.7303 70.9537 24.9925 74.5 17.4617C78.8831 8.17756 70.2365 4.87035 63.6619 3.15698C55.5334 1.04515 49.3573 0.806071 46.8071 11.4449C46.7673 11.5645 46.6079 12.5606 46.2493 14.5529C45.6915 17.7007 45.3727 19.6133 45.1336 21.0079C44.5758 24.5542 43.9781 27.4231 43.5796 29.2959C43.3007 28.3794 38.6786 24.8331 31.1477 16.5054C27.3225 13.5169 21.4253 8.25725 12.978 17.2624C5.12835 25.7097 4.72989 31.0889 9.79032 34.3165C19.9112 40.7715 25.1708 44.8358 25.5693 44.8358C17.2813 46.071 13.9343 45.8319 7.91756 46.9078C1.90084 47.9836 2.33914 57.2278 4.33143 63.9618C6.5628 69.5004 9.75047 76.1546 17.0423 73.5647C23.0192 71.4528 30.9883 65.715 31.586 66.3525C32.1837 66.9901 26.2068 74.4811 23.3379 80.8166C19.951 88.2678 27.3225 93.8462 34.2557 95.7588C41.149 97.6714 49.3573 97.6316 51.1105 88.6662C53.3817 76.9914 54.2583 69.1418 54.2583 69.1418C57.1671 71.931 63.5026 77.5094 69.7982 82.9683C73.4242 86.0763 75.9345 86.6341 78.5245 86.5146C83.4255 86.2356 86.7327 81.7729 89.0039 78.5454C95.8574 68.6636 91.8728 63.7626 86.6929 61.2921Z" fill="#FFD465" stroke="#254E1E" stroke-width="2.32126" stroke-linecap="round" stroke-linejoin="round"/>
</g>
<defs>
<filter id="filter0_d_156_2357" x="0.449605" y="0.840088" width="128.736" height="183.956" filterUnits="userSpaceOnUse" color-interpolation-filters="sRGB">
<feFlood flood-opacity="0" result="BackgroundImageFix"/>
<feColorMatrix in="SourceAlpha" type="matrix" values="0 0 0 0 0 0 0 0 0 0 0 0 0 0 0 0 0 0 127 0" result="hardAlpha"/>
<feOffset dx="-1.38981" dy="2.77962"/>
<feComposite in2="hardAlpha" operator="out"/>
<feColorMatrix type="matrix" values="0 0 0 0 0.145098 0 0 0 0 0.305882 0 0 0 0 0.117647 0 0 0 1 0"/>
<feBlend mode="normal" in2="BackgroundImageFix" result="effect1_dropShadow_156_2357"/>
<feBlend mode="normal" in="SourceGraphic" in2="effect1_dropShadow_156_2357" result="shape"/>
</filter>
</defs>
</svg>
