<svg preserveAspectRatio="none" width="20" height="44" viewBox="0 0 20 44" fill="none" xmlns="http://www.w3.org/2000/svg">
<path d="M5.49628 11.1313C7.18065 7.8677 9.21221 4.51919 10.8931 2.30531C11.3991 1.63878 12.2988 1.44072 13.0646 1.77806L16.8066 3.42631C17.9848 3.94528 18.3505 5.48106 17.6259 6.54526C16.416 8.32226 14.9749 10.7384 13.6698 13.267C12.718 15.1112 11.8788 16.9382 11.2837 18.5242C10.6623 20.1803 10.3994 21.3379 10.3994 21.9442C10.3994 23.9081 11.0378 25.2584 12.2648 27.441C12.3733 27.634 12.4855 27.832 12.6008 28.0356C13.6335 29.8587 12.8599 35.0644 13.4308 39.1969C13.5911 40.3575 12.8689 41.5447 11.7134 41.7381L7.05106 42.5187C6.12164 42.6743 5.21019 42.1267 5.07813 41.1937C4.53936 37.3872 5.56346 32.1869 4.51784 30.3396L4.51281 30.3307C4.40042 30.1321 4.28951 29.9362 4.18032 29.7419C2.86766 27.4069 1.69214 25.1432 1.69214 21.9442C1.69214 20.4853 2.21522 18.6742 2.87118 16.926C3.55344 15.1077 4.48291 13.0948 5.49628 11.1313Z" fill="#7B613A" stroke="#254E1E" stroke-width="2.9024"/>
</svg>
