<svg width="582" height="323" viewBox="0 0 582 323" fill="none" xmlns="http://www.w3.org/2000/svg">
<rect x="4" y="4" width="574" height="315" fill="#F0FFF9" stroke="#D2ECE1" stroke-width="8"/>
<rect x="19.512" y="17.6238" width="543.936" height="244.445" fill="#F0FFF9"/>
<g filter="url(#filter0_d_244_2603)">
<mask id="path-3-outside-1_244_2603" maskUnits="userSpaceOnUse" x="107.11" y="129.621" width="368" height="62" fill="black">
<rect fill="white" x="107.11" y="129.621" width="368" height="62"/>
<path d="M110.11 154.895C110.11 168.432 119.894 176.308 130.354 176.308C136.63 176.308 143.152 173.416 147.951 167.324L138.906 158.402C139.152 163.263 135.461 166.278 131.584 166.278C127.4 166.278 122.416 162.771 122.416 154.341C122.416 145.912 127.339 142.712 131.523 142.712C135.584 142.712 139.583 145.666 139.583 149.911L147.951 141.359C143.398 135.39 137.368 132.621 131.338 132.621C120.57 132.621 110.11 141.297 110.11 154.895Z"/>
<path d="M164.058 176.308C174.887 176.308 179.071 168.493 179.133 160.617C179.194 152.742 175.01 144.866 164.181 144.866C153.29 144.866 149.167 152.742 149.167 160.617C149.167 168.493 153.29 176.308 164.058 176.308ZM159.935 160.617C159.935 157.11 161.72 154.588 164.181 154.588C166.642 154.588 168.365 157.11 168.365 160.617C168.365 164.125 166.58 166.647 164.181 166.647C161.72 166.647 159.935 164.125 159.935 160.617Z"/>
<path d="M180.968 145.235C182.445 158.218 182.384 164.309 181.091 176H192.782C192.228 170.955 191.675 168.863 191.552 163.632C191.367 157.91 193.705 155.018 196.043 155.018C198.443 155.018 200.843 157.91 200.843 163.632C200.843 167.817 200.412 168.924 199.612 176H211.303C210.564 169.355 210.134 168.37 210.134 164.371C210.072 158.033 212.472 154.957 214.872 154.957C217.21 154.957 219.486 157.849 219.486 163.632C219.486 167.817 219.056 168.924 218.317 176H229.946C229.147 168.924 228.777 164.74 228.777 160.494C228.839 149.111 223.547 144.866 218.563 144.866C214.072 144.866 209.826 148.311 209.826 153.111H209.211C207.549 147.327 203.612 144.866 199.858 144.866C195.49 144.866 191.429 148.127 191.429 153.111H190.813C190.936 151.819 191.305 147.327 191.552 145.235H180.968Z"/>
<path d="M231.803 176H243.494C241.894 161.971 241.894 159.264 243.494 145.235H231.803C233.403 159.264 233.403 161.971 231.803 176ZM232.295 132.929V141.235H243.063V132.929H232.295Z"/>
<path d="M245.984 145.235C247.46 158.218 247.399 164.309 246.107 176H257.613C257.121 171.631 254.167 154.957 261.612 154.957C263.766 154.957 265.858 157.479 265.858 163.571C265.858 167.755 265.427 168.924 264.627 176H276.318C275.58 169.355 275.149 164.617 275.149 160.617C275.149 153.542 274.226 144.927 265.181 144.927C262.166 144.927 256.444 146.527 256.444 153.111H255.828C255.952 151.819 256.321 147.327 256.567 145.235H245.984Z"/>
<path d="M275.464 183.445C279.033 186.829 285.862 187.998 290.108 187.998C300.876 187.998 310.228 178.769 310.167 167.94C310.105 160.31 310.536 152.619 311.336 145.235H300.814L298.415 150.096C297.369 147.019 293.8 144.927 290.046 144.927C284.755 144.927 279.094 148.988 279.094 160.187C279.094 171.57 284.447 176.308 289.554 176.308C294.23 176.308 298.661 172.37 298.661 166.094H299.337L298.784 169.847C298.353 175.815 293.738 178.277 288.877 178.277C284.016 178.277 278.971 175.815 277.802 172.001L275.464 183.445ZM289.862 160.617C289.862 157.11 291.646 154.588 294.107 154.588C296.569 154.588 298.291 157.11 298.291 160.617C298.291 164.125 296.569 166.647 294.107 166.647C291.646 166.647 289.923 164.125 289.862 160.617Z"/>
<path d="M327.929 168.924C328.914 173.17 334.636 176.308 340.235 176.308C346.204 176.308 352.111 172.739 352.111 166.709C352.111 163.14 350.019 161.048 347.742 159.448C344.727 157.356 341.589 155.695 341.589 153.542C341.589 152.803 342.02 152.434 342.512 152.434C343.743 152.434 345.588 154.341 345.281 156.495L352.295 149.788C349.711 146.527 346.019 144.866 341.466 144.866C335.497 144.866 329.714 148.004 329.714 153.357C329.714 158.218 333.959 160.125 336.79 162.402C338.205 163.571 339.312 164.863 339.312 166.647C339.312 167.755 338.636 168.37 337.836 168.37C336.482 168.37 334.759 166.524 335.497 162.156L327.929 168.924Z"/>
<path d="M368.417 176.308C379.246 176.308 383.43 168.493 383.492 160.617C383.553 152.742 379.369 144.866 368.54 144.866C357.649 144.866 353.527 152.742 353.527 160.617C353.527 168.493 357.649 176.308 368.417 176.308ZM364.295 160.617C364.295 157.11 366.079 154.588 368.54 154.588C371.001 154.588 372.724 157.11 372.724 160.617C372.724 164.125 370.94 166.647 368.54 166.647C366.079 166.647 364.295 164.125 364.295 160.617Z"/>
<path d="M399.603 176.308C410.432 176.308 414.616 168.493 414.678 160.617C414.739 152.742 410.555 144.866 399.726 144.866C388.835 144.866 384.712 152.742 384.712 160.617C384.712 168.493 388.835 176.308 399.603 176.308ZM395.48 160.617C395.48 157.11 397.265 154.588 399.726 154.588C402.187 154.588 403.91 157.11 403.91 160.617C403.91 164.125 402.125 166.647 399.726 166.647C397.265 166.647 395.48 164.125 395.48 160.617Z"/>
<path d="M416.513 145.235C417.99 158.218 417.929 164.309 416.637 176H428.143C427.65 171.631 424.697 154.957 432.142 154.957C434.296 154.957 436.388 157.479 436.388 163.571C436.388 167.755 435.957 168.924 435.157 176H446.848C446.109 169.355 445.679 164.617 445.679 160.617C445.679 153.542 444.756 144.927 435.711 144.927C432.696 144.927 426.974 146.527 426.974 153.111H426.358C426.481 151.819 426.85 147.327 427.097 145.235H416.513Z"/>
<path d="M448.721 176H454.751V170.278H448.721V176Z"/>
<path d="M457.193 176H463.223V170.278H457.193V176Z"/>
<path d="M465.665 176H471.695V170.278H465.665V176Z"/>
</mask>
<path d="M110.11 154.895C110.11 168.432 119.894 176.308 130.354 176.308C136.63 176.308 143.152 173.416 147.951 167.324L138.906 158.402C139.152 163.263 135.461 166.278 131.584 166.278C127.4 166.278 122.416 162.771 122.416 154.341C122.416 145.912 127.339 142.712 131.523 142.712C135.584 142.712 139.583 145.666 139.583 149.911L147.951 141.359C143.398 135.39 137.368 132.621 131.338 132.621C120.57 132.621 110.11 141.297 110.11 154.895Z" fill="#D2ECE1"/>
<path d="M164.058 176.308C174.887 176.308 179.071 168.493 179.133 160.617C179.194 152.742 175.01 144.866 164.181 144.866C153.29 144.866 149.167 152.742 149.167 160.617C149.167 168.493 153.29 176.308 164.058 176.308ZM159.935 160.617C159.935 157.11 161.72 154.588 164.181 154.588C166.642 154.588 168.365 157.11 168.365 160.617C168.365 164.125 166.58 166.647 164.181 166.647C161.72 166.647 159.935 164.125 159.935 160.617Z" fill="#D2ECE1"/>
<path d="M180.968 145.235C182.445 158.218 182.384 164.309 181.091 176H192.782C192.228 170.955 191.675 168.863 191.552 163.632C191.367 157.91 193.705 155.018 196.043 155.018C198.443 155.018 200.843 157.91 200.843 163.632C200.843 167.817 200.412 168.924 199.612 176H211.303C210.564 169.355 210.134 168.37 210.134 164.371C210.072 158.033 212.472 154.957 214.872 154.957C217.21 154.957 219.486 157.849 219.486 163.632C219.486 167.817 219.056 168.924 218.317 176H229.946C229.147 168.924 228.777 164.74 228.777 160.494C228.839 149.111 223.547 144.866 218.563 144.866C214.072 144.866 209.826 148.311 209.826 153.111H209.211C207.549 147.327 203.612 144.866 199.858 144.866C195.49 144.866 191.429 148.127 191.429 153.111H190.813C190.936 151.819 191.305 147.327 191.552 145.235H180.968Z" fill="#D2ECE1"/>
<path d="M231.803 176H243.494C241.894 161.971 241.894 159.264 243.494 145.235H231.803C233.403 159.264 233.403 161.971 231.803 176ZM232.295 132.929V141.235H243.063V132.929H232.295Z" fill="#D2ECE1"/>
<path d="M245.984 145.235C247.46 158.218 247.399 164.309 246.107 176H257.613C257.121 171.631 254.167 154.957 261.612 154.957C263.766 154.957 265.858 157.479 265.858 163.571C265.858 167.755 265.427 168.924 264.627 176H276.318C275.58 169.355 275.149 164.617 275.149 160.617C275.149 153.542 274.226 144.927 265.181 144.927C262.166 144.927 256.444 146.527 256.444 153.111H255.828C255.952 151.819 256.321 147.327 256.567 145.235H245.984Z" fill="#D2ECE1"/>
<path d="M275.464 183.445C279.033 186.829 285.862 187.998 290.108 187.998C300.876 187.998 310.228 178.769 310.167 167.94C310.105 160.31 310.536 152.619 311.336 145.235H300.814L298.415 150.096C297.369 147.019 293.8 144.927 290.046 144.927C284.755 144.927 279.094 148.988 279.094 160.187C279.094 171.57 284.447 176.308 289.554 176.308C294.23 176.308 298.661 172.37 298.661 166.094H299.337L298.784 169.847C298.353 175.815 293.738 178.277 288.877 178.277C284.016 178.277 278.971 175.815 277.802 172.001L275.464 183.445ZM289.862 160.617C289.862 157.11 291.646 154.588 294.107 154.588C296.569 154.588 298.291 157.11 298.291 160.617C298.291 164.125 296.569 166.647 294.107 166.647C291.646 166.647 289.923 164.125 289.862 160.617Z" fill="#D2ECE1"/>
<path d="M327.929 168.924C328.914 173.17 334.636 176.308 340.235 176.308C346.204 176.308 352.111 172.739 352.111 166.709C352.111 163.14 350.019 161.048 347.742 159.448C344.727 157.356 341.589 155.695 341.589 153.542C341.589 152.803 342.02 152.434 342.512 152.434C343.743 152.434 345.588 154.341 345.281 156.495L352.295 149.788C349.711 146.527 346.019 144.866 341.466 144.866C335.497 144.866 329.714 148.004 329.714 153.357C329.714 158.218 333.959 160.125 336.79 162.402C338.205 163.571 339.312 164.863 339.312 166.647C339.312 167.755 338.636 168.37 337.836 168.37C336.482 168.37 334.759 166.524 335.497 162.156L327.929 168.924Z" fill="#D2ECE1"/>
<path d="M368.417 176.308C379.246 176.308 383.43 168.493 383.492 160.617C383.553 152.742 379.369 144.866 368.54 144.866C357.649 144.866 353.527 152.742 353.527 160.617C353.527 168.493 357.649 176.308 368.417 176.308ZM364.295 160.617C364.295 157.11 366.079 154.588 368.54 154.588C371.001 154.588 372.724 157.11 372.724 160.617C372.724 164.125 370.94 166.647 368.54 166.647C366.079 166.647 364.295 164.125 364.295 160.617Z" fill="#D2ECE1"/>
<path d="M399.603 176.308C410.432 176.308 414.616 168.493 414.678 160.617C414.739 152.742 410.555 144.866 399.726 144.866C388.835 144.866 384.712 152.742 384.712 160.617C384.712 168.493 388.835 176.308 399.603 176.308ZM395.48 160.617C395.48 157.11 397.265 154.588 399.726 154.588C402.187 154.588 403.91 157.11 403.91 160.617C403.91 164.125 402.125 166.647 399.726 166.647C397.265 166.647 395.48 164.125 395.48 160.617Z" fill="#D2ECE1"/>
<path d="M416.513 145.235C417.99 158.218 417.929 164.309 416.637 176H428.143C427.65 171.631 424.697 154.957 432.142 154.957C434.296 154.957 436.388 157.479 436.388 163.571C436.388 167.755 435.957 168.924 435.157 176H446.848C446.109 169.355 445.679 164.617 445.679 160.617C445.679 153.542 444.756 144.927 435.711 144.927C432.696 144.927 426.974 146.527 426.974 153.111H426.358C426.481 151.819 426.85 147.327 427.097 145.235H416.513Z" fill="#D2ECE1"/>
<path d="M448.721 176H454.751V170.278H448.721V176Z" fill="#D2ECE1"/>
<path d="M457.193 176H463.223V170.278H457.193V176Z" fill="#D2ECE1"/>
<path d="M465.665 176H471.695V170.278H465.665V176Z" fill="#D2ECE1"/>
<path d="M110.11 154.895C110.11 168.432 119.894 176.308 130.354 176.308C136.63 176.308 143.152 173.416 147.951 167.324L138.906 158.402C139.152 163.263 135.461 166.278 131.584 166.278C127.4 166.278 122.416 162.771 122.416 154.341C122.416 145.912 127.339 142.712 131.523 142.712C135.584 142.712 139.583 145.666 139.583 149.911L147.951 141.359C143.398 135.39 137.368 132.621 131.338 132.621C120.57 132.621 110.11 141.297 110.11 154.895Z" stroke="#254E1E" stroke-width="5.66385" stroke-linejoin="round" mask="url(#path-3-outside-1_244_2603)"/>
<path d="M164.058 176.308C174.887 176.308 179.071 168.493 179.133 160.617C179.194 152.742 175.01 144.866 164.181 144.866C153.29 144.866 149.167 152.742 149.167 160.617C149.167 168.493 153.29 176.308 164.058 176.308ZM159.935 160.617C159.935 157.11 161.72 154.588 164.181 154.588C166.642 154.588 168.365 157.11 168.365 160.617C168.365 164.125 166.58 166.647 164.181 166.647C161.72 166.647 159.935 164.125 159.935 160.617Z" stroke="#254E1E" stroke-width="5.66385" stroke-linejoin="round" mask="url(#path-3-outside-1_244_2603)"/>
<path d="M180.968 145.235C182.445 158.218 182.384 164.309 181.091 176H192.782C192.228 170.955 191.675 168.863 191.552 163.632C191.367 157.91 193.705 155.018 196.043 155.018C198.443 155.018 200.843 157.91 200.843 163.632C200.843 167.817 200.412 168.924 199.612 176H211.303C210.564 169.355 210.134 168.37 210.134 164.371C210.072 158.033 212.472 154.957 214.872 154.957C217.21 154.957 219.486 157.849 219.486 163.632C219.486 167.817 219.056 168.924 218.317 176H229.946C229.147 168.924 228.777 164.74 228.777 160.494C228.839 149.111 223.547 144.866 218.563 144.866C214.072 144.866 209.826 148.311 209.826 153.111H209.211C207.549 147.327 203.612 144.866 199.858 144.866C195.49 144.866 191.429 148.127 191.429 153.111H190.813C190.936 151.819 191.305 147.327 191.552 145.235H180.968Z" stroke="#254E1E" stroke-width="5.66385" stroke-linejoin="round" mask="url(#path-3-outside-1_244_2603)"/>
<path d="M231.803 176H243.494C241.894 161.971 241.894 159.264 243.494 145.235H231.803C233.403 159.264 233.403 161.971 231.803 176ZM232.295 132.929V141.235H243.063V132.929H232.295Z" stroke="#254E1E" stroke-width="5.66385" stroke-linejoin="round" mask="url(#path-3-outside-1_244_2603)"/>
<path d="M245.984 145.235C247.46 158.218 247.399 164.309 246.107 176H257.613C257.121 171.631 254.167 154.957 261.612 154.957C263.766 154.957 265.858 157.479 265.858 163.571C265.858 167.755 265.427 168.924 264.627 176H276.318C275.58 169.355 275.149 164.617 275.149 160.617C275.149 153.542 274.226 144.927 265.181 144.927C262.166 144.927 256.444 146.527 256.444 153.111H255.828C255.952 151.819 256.321 147.327 256.567 145.235H245.984Z" stroke="#254E1E" stroke-width="5.66385" stroke-linejoin="round" mask="url(#path-3-outside-1_244_2603)"/>
<path d="M275.464 183.445C279.033 186.829 285.862 187.998 290.108 187.998C300.876 187.998 310.228 178.769 310.167 167.94C310.105 160.31 310.536 152.619 311.336 145.235H300.814L298.415 150.096C297.369 147.019 293.8 144.927 290.046 144.927C284.755 144.927 279.094 148.988 279.094 160.187C279.094 171.57 284.447 176.308 289.554 176.308C294.23 176.308 298.661 172.37 298.661 166.094H299.337L298.784 169.847C298.353 175.815 293.738 178.277 288.877 178.277C284.016 178.277 278.971 175.815 277.802 172.001L275.464 183.445ZM289.862 160.617C289.862 157.11 291.646 154.588 294.107 154.588C296.569 154.588 298.291 157.11 298.291 160.617C298.291 164.125 296.569 166.647 294.107 166.647C291.646 166.647 289.923 164.125 289.862 160.617Z" stroke="#254E1E" stroke-width="5.66385" stroke-linejoin="round" mask="url(#path-3-outside-1_244_2603)"/>
<path d="M327.929 168.924C328.914 173.17 334.636 176.308 340.235 176.308C346.204 176.308 352.111 172.739 352.111 166.709C352.111 163.14 350.019 161.048 347.742 159.448C344.727 157.356 341.589 155.695 341.589 153.542C341.589 152.803 342.02 152.434 342.512 152.434C343.743 152.434 345.588 154.341 345.281 156.495L352.295 149.788C349.711 146.527 346.019 144.866 341.466 144.866C335.497 144.866 329.714 148.004 329.714 153.357C329.714 158.218 333.959 160.125 336.79 162.402C338.205 163.571 339.312 164.863 339.312 166.647C339.312 167.755 338.636 168.37 337.836 168.37C336.482 168.37 334.759 166.524 335.497 162.156L327.929 168.924Z" stroke="#254E1E" stroke-width="5.66385" stroke-linejoin="round" mask="url(#path-3-outside-1_244_2603)"/>
<path d="M368.417 176.308C379.246 176.308 383.43 168.493 383.492 160.617C383.553 152.742 379.369 144.866 368.54 144.866C357.649 144.866 353.527 152.742 353.527 160.617C353.527 168.493 357.649 176.308 368.417 176.308ZM364.295 160.617C364.295 157.11 366.079 154.588 368.54 154.588C371.001 154.588 372.724 157.11 372.724 160.617C372.724 164.125 370.94 166.647 368.54 166.647C366.079 166.647 364.295 164.125 364.295 160.617Z" stroke="#254E1E" stroke-width="5.66385" stroke-linejoin="round" mask="url(#path-3-outside-1_244_2603)"/>
<path d="M399.603 176.308C410.432 176.308 414.616 168.493 414.678 160.617C414.739 152.742 410.555 144.866 399.726 144.866C388.835 144.866 384.712 152.742 384.712 160.617C384.712 168.493 388.835 176.308 399.603 176.308ZM395.48 160.617C395.48 157.11 397.265 154.588 399.726 154.588C402.187 154.588 403.91 157.11 403.91 160.617C403.91 164.125 402.125 166.647 399.726 166.647C397.265 166.647 395.48 164.125 395.48 160.617Z" stroke="#254E1E" stroke-width="5.66385" stroke-linejoin="round" mask="url(#path-3-outside-1_244_2603)"/>
<path d="M416.513 145.235C417.99 158.218 417.929 164.309 416.637 176H428.143C427.65 171.631 424.697 154.957 432.142 154.957C434.296 154.957 436.388 157.479 436.388 163.571C436.388 167.755 435.957 168.924 435.157 176H446.848C446.109 169.355 445.679 164.617 445.679 160.617C445.679 153.542 444.756 144.927 435.711 144.927C432.696 144.927 426.974 146.527 426.974 153.111H426.358C426.481 151.819 426.85 147.327 427.097 145.235H416.513Z" stroke="#254E1E" stroke-width="5.66385" stroke-linejoin="round" mask="url(#path-3-outside-1_244_2603)"/>
<path d="M448.721 176H454.751V170.278H448.721V176Z" stroke="#254E1E" stroke-width="5.66385" stroke-linejoin="round" mask="url(#path-3-outside-1_244_2603)"/>
<path d="M457.193 176H463.223V170.278H457.193V176Z" stroke="#254E1E" stroke-width="5.66385" stroke-linejoin="round" mask="url(#path-3-outside-1_244_2603)"/>
<path d="M465.665 176H471.695V170.278H465.665V176Z" stroke="#254E1E" stroke-width="5.66385" stroke-linejoin="round" mask="url(#path-3-outside-1_244_2603)"/>
</g>
<defs>
<filter id="filter0_d_244_2603" x="105.39" y="129.789" width="369.137" height="64.8169" filterUnits="userSpaceOnUse" color-interpolation-filters="sRGB">
<feFlood flood-opacity="0" result="BackgroundImageFix"/>
<feColorMatrix in="SourceAlpha" type="matrix" values="0 0 0 0 0 0 0 0 0 0 0 0 0 0 0 0 0 0 127 0" result="hardAlpha"/>
<feOffset dx="-1.88795" dy="3.7759"/>
<feComposite in2="hardAlpha" operator="out"/>
<feColorMatrix type="matrix" values="0 0 0 0 0.145098 0 0 0 0 0.305882 0 0 0 0 0.117647 0 0 0 1 0"/>
<feBlend mode="normal" in2="BackgroundImageFix" result="effect1_dropShadow_244_2603"/>
<feBlend mode="normal" in="SourceGraphic" in2="effect1_dropShadow_244_2603" result="shape"/>
</filter>
</defs>
</svg>
