<svg width="868" height="663" viewBox="0 0 868 663" fill="none" xmlns="http://www.w3.org/2000/svg">
<path d="M701.533 395H12.7546C7.23033 395 3.88295 401.099 6.84964 405.759L107.437 563.759C108.722 565.778 110.949 567 113.342 567H143.552C145.726 567 147.777 568.01 149.102 569.734L211.398 650.766C212.723 652.49 214.774 653.5 216.948 653.5H223.742C229.465 653.5 232.77 647.005 229.4 642.379L182.6 578.121C179.23 573.495 182.535 567 188.258 567H732.422C734.669 567 736.78 568.079 738.096 569.9L783.404 632.6C784.72 634.421 786.831 635.5 789.078 635.5H799.047C804.712 635.5 808.031 629.122 804.78 624.483L772.22 578.017C768.969 573.378 772.288 567 777.953 567H796.149C801.587 567 804.949 561.069 802.155 556.404L707.538 398.404C706.274 396.292 703.994 395 701.533 395Z" fill="#254E1E" fill-opacity="0.5"/>
<g filter="url(#filter0_d_244_2586)">
<path d="M233.213 658.95L237.934 21.2035L206.056 46.8069L213.154 658.95H233.213Z" fill="#C5AD8A" stroke="#254E1E" stroke-width="2.1003"/>
<path d="M800.213 627.95L804.933 2.20277L773.056 27.7875L780.154 627.95H800.213Z" fill="#C5AD8A" stroke="#254E1E" stroke-width="2.1003"/>
<path d="M195.133 641.125C195.622 641.493 204.259 653.005 208.517 658.714H248.973C248.403 658.714 249.923 654.112 250.754 651.812C250.754 650.871 253.706 645.113 255.181 642.352L263.324 630.592C265.851 627.354 270.926 620.662 271.008 619.803C271.089 618.944 269.549 618.662 268.769 618.627C264.07 621.423 253.889 627.586 250.754 629.876C247.619 632.167 241.136 643.341 238.286 648.641V645.88L238.948 634.836L239.864 625.223C240.051 622.173 240.699 615.161 241.798 611.52C242.897 607.88 241.34 607.242 240.424 607.379C237.411 607.379 233.028 617.571 231.213 622.667L226.277 642.352L225.208 638.006L222.766 630.592L219.102 622.667L215.387 616.633L207.041 606.1C204.123 603.697 197.769 598.594 195.693 597.408C193.617 596.222 193.064 597.902 193.047 598.891C194.217 598.431 205.718 622.104 207.041 625.735C208.1 626.062 210.875 638.313 212.13 644.398L205.718 640.358C202.19 638.739 194.716 635.368 193.047 634.836C191.378 634.304 190.994 635.91 191.011 636.779C192.182 638.074 194.645 640.757 195.133 641.125Z" fill="#498A3E" stroke="#254E1E" stroke-width="1.52381"/>
<path d="M762.288 620.78C762.795 621.162 771.756 633.105 776.173 639.029H818.147C817.555 639.029 819.132 634.254 819.994 631.867C819.994 630.891 823.057 624.918 824.588 622.053L833.035 609.852C835.657 606.492 840.923 599.55 841.008 598.659C841.092 597.767 839.494 597.474 838.684 597.438C833.81 600.338 823.247 606.733 819.994 609.109C816.742 611.486 810.016 623.079 807.059 628.578V625.713L807.746 614.255L808.696 604.282C808.89 601.117 809.562 593.842 810.702 590.065C811.843 586.288 810.227 585.626 809.277 585.768C806.151 585.768 801.604 596.342 799.721 601.629L794.599 622.053L793.491 617.544L790.956 609.852L787.155 601.629L783.301 595.37L774.642 584.442C771.615 581.948 765.023 576.654 762.869 575.423C760.714 574.193 760.141 575.936 760.123 576.962C761.337 576.484 773.27 601.046 774.642 604.812C775.74 605.152 778.62 617.862 779.922 624.175L773.27 619.984C769.609 618.304 761.855 614.807 760.123 614.255C758.391 613.703 757.994 615.369 758.011 616.271C759.226 617.615 761.781 620.398 762.288 620.78Z" fill="#498A3E" stroke="#254E1E" stroke-width="1.58095"/>
<g filter="url(#filter1_d_244_2586)">
<path d="M851.626 142.964L851.684 144.145L850.504 144.042C837.155 142.886 767.469 142.15 695.715 141.805C623.99 141.461 550.307 141.506 529.024 141.908C487.154 142.697 190.025 150.304 162.227 153.154L160.985 153.281L161.168 152.049L165.032 126L165.148 125.217L165.936 125.121C168.183 124.847 171.103 124.495 174.285 124.116C172.528 124.184 170.864 124.249 169.369 124.309L168.687 124.336L168.434 123.714L167.533 121.504L167.045 120.307L168.35 120.114C168.618 120.074 168.909 120.031 169.22 119.986C166.652 119.916 164.295 119.925 162.907 120.092L162.542 120.136L162.244 119.936L129.081 97.778L126.758 96.2259L129.596 95.9494C173.529 91.6682 499.929 84.3756 529.698 83.9477C568.603 83.3884 816.317 83.1359 865.078 84.7133L866.158 84.7482L866.001 85.821L863.547 102.58L863.427 103.398L862.602 103.464L832.639 105.884L858.203 110.488L859.48 110.718L858.883 111.895L855.86 117.856L855.844 117.889L855.824 117.921L850.796 126.304L851.626 142.964Z" fill="#E1D2BA" stroke="#254E1E" stroke-width="2"/>
<path d="M198.316 122.401C193.246 122.819 174.68 125.029 166.031 126.081L164.1 139.106C258.067 135.241 455.537 127.809 493.676 129.009C531.815 130.209 746.973 127.557 849.784 126.081L854.972 117.431L857.994 111.47L824.9 105.509L862.557 102.47L863.784 94.0904C735.358 97.8966 467.527 106.701 423.61 111.47C379.692 116.239 223.873 113.457 151.454 111.47L162.828 119.071C167.594 118.498 182.742 119.716 180.646 119.648C178.969 119.593 171.83 120.574 168.47 121.071L169.371 123.281C181.132 122.814 203.386 121.984 198.316 122.401Z" fill="#C5AD8A"/>
</g>
<path d="M431.683 120.209C432.577 124.008 435.45 125.668 439.824 125.668C444.23 125.668 448.061 122.444 448.061 118.709C448.061 111.973 439.122 112.196 439.122 108.812C439.122 107.95 439.792 107.599 440.622 107.599C442.027 107.599 443.24 108.716 443.208 110.345L447.709 106.769C446.241 104.247 443.048 103.002 439.952 103.002C436.153 103.002 432.545 104.917 432.545 109.036C432.545 115.293 441.516 114.782 441.516 118.773C441.516 119.699 440.718 120.465 439.409 120.465C437.462 120.465 436.185 118.805 436.6 116.857L431.683 120.209ZM457.198 125.668C460.358 125.668 463.487 124.264 464.7 121.199L460.486 117.751C460.486 119.443 459.081 120.529 457.708 120.529C456.431 120.529 455.218 119.571 455.218 117.336C455.218 115.58 456.176 114.303 457.485 114.303C458.634 114.303 459.847 115.229 459.752 116.634L464.508 113.441C462.88 110.6 460.677 109.387 457.198 109.387C452.122 109.387 449.663 113.441 449.663 117.528C449.663 121.582 452.122 125.668 457.198 125.668ZM472.625 125.509C472.306 122.891 472.115 121.486 472.051 118.773C471.987 115.836 473.36 114.303 474.669 114.303C475.786 114.303 476.871 115.836 476.871 118.773C476.871 120.976 476.648 121.837 476.233 125.509H482.299C481.884 121.837 481.692 119.667 481.692 117.464C481.692 113.984 480.607 109.387 476.52 109.387C474.637 109.387 472.019 110.217 472.019 113.633H471.668L472.019 111.685C472.019 107.886 472.21 106.833 472.625 103.162H466.56C467.39 110.44 467.39 118.23 466.56 125.509H472.625ZM483.909 117.176C483.909 121.391 486.495 125.796 491.411 125.796C493.518 125.796 496.551 124.743 498.019 122.412L494.795 118.294C494.859 119.603 493.454 120.497 492.145 120.497C491.124 120.497 490.07 119.73 489.847 118.422L497.86 117.847C497.924 112.962 495.37 109.387 490.836 109.387C486.175 109.387 483.909 113.218 483.909 117.176ZM491.028 114.048C491.73 114.048 492.433 114.559 492.433 115.612L489.559 115.995C489.4 114.718 490.23 114.048 491.028 114.048ZM499.551 117.4C499.551 122.316 501.849 125.7 505.265 125.7C506.702 125.7 508.075 124.775 508.936 122.668L510.405 125.509H514.715C513.885 118.23 513.885 110.44 514.715 103.162H508.649C509.064 106.833 509.256 107.982 509.256 111.781L509.575 113.697H509.256C509.256 110.983 507.244 109.355 505.042 109.355C502.424 109.355 499.551 111.717 499.551 117.4ZM505.137 117.368C505.137 115.804 505.84 114.239 507.244 114.239C508.617 114.239 509.32 115.804 509.32 117.368C509.32 118.932 508.617 120.497 507.244 120.497C505.84 120.497 505.137 118.932 505.137 117.368ZM516.627 109.546C517.01 112.994 517.233 115.453 517.233 117.528C517.233 121.199 517.68 125.668 522.405 125.668C523.969 125.668 526.938 124.838 526.938 121.422H527.258C527.194 122.093 526.97 124.423 526.874 125.509H532.365C531.599 118.773 531.695 115.612 532.334 109.546H526.268C526.396 110.664 526.906 113.377 526.906 115.868C526.906 118.453 526.396 120.784 524.512 120.784C522.597 120.784 522.086 118.422 522.086 115.804C522.086 113.282 522.565 110.536 522.692 109.546H516.627ZM534.391 103.162C534.774 107.567 534.774 112.42 534.774 117.4C534.518 124.136 538.062 126.115 543.681 125.7V119.539C543.234 120.465 542.5 120.816 541.765 120.816C540.68 120.816 539.626 119.89 539.626 118.07C539.658 113.792 539.977 107.503 540.456 103.162H534.391ZM545.291 117.176C545.291 121.391 547.877 125.796 552.794 125.796C554.901 125.796 557.934 124.743 559.402 122.412L556.178 118.294C556.242 119.603 554.837 120.497 553.528 120.497C552.506 120.497 551.453 119.73 551.229 118.422L559.243 117.847C559.306 112.962 556.752 109.387 552.219 109.387C547.558 109.387 545.291 113.218 545.291 117.176ZM552.411 114.048C553.113 114.048 553.815 114.559 553.815 115.612L550.942 115.995C550.783 114.718 551.613 114.048 552.411 114.048Z" fill="#152F11"/>
<path d="M843.502 550.914L843.524 552.126L842.337 551.846C839.258 551.121 832.83 550.444 823.768 549.83C814.738 549.218 803.173 548.672 789.873 548.191C763.274 547.23 729.765 546.53 695.783 546.082C627.803 545.185 557.995 545.295 537.849 546.326C518.036 547.34 435.667 552.738 354.946 558.804C314.587 561.836 274.646 565.035 243.148 567.935C227.398 569.385 213.765 570.76 203.247 572.001C192.697 573.247 185.36 574.35 182.145 575.246L181.061 575.548L180.846 574.404L173.553 535.621L173.398 534.794L174.168 534.539C182.254 531.863 199.629 526.237 204.701 525.066C204.665 525.01 204.62 524.947 204.564 524.875C204.384 524.64 204.125 524.361 203.784 524.041C202.404 522.749 199.96 521.072 196.963 519.434C193.98 517.804 190.512 516.248 187.118 515.175C183.708 514.097 180.455 513.535 177.865 513.815L176.733 513.937L176.701 512.782L175.848 481.316L175.843 481.129L175.905 480.957C177.35 476.955 178.882 472.814 180.044 469.675L180.199 469.256C180.712 467.87 181.144 466.704 181.452 465.862C181.494 465.747 181.534 465.638 181.572 465.536C180.889 465.4 179.954 465.222 178.883 465.045C176.655 464.676 173.883 464.315 171.559 464.315L170.549 464.315L170.501 463.296L158.239 200.032L158.203 199.267L158.925 199.076C169.416 196.298 196.637 193.054 231.888 189.733C267.182 186.408 310.631 182.995 353.658 179.893C439.706 173.69 524.099 168.724 538.235 168.173C575.11 166.736 809.905 166.112 856.159 170.186L857.139 170.272L857.13 171.258L854.806 420.603L854.799 421.354L854.079 421.512L819.844 429.025L850.261 468.916L850.548 469.292L850.465 469.739L847.601 485.101L847.598 485.117L847.594 485.132L842.702 507.31L843.502 550.914Z" fill="#E1D2BA" stroke="#254E1E" stroke-width="2"/>
<path d="M205.129 526.01C200.324 527.086 182.729 532.781 174.532 535.494L178.178 554.885C209.73 552.664 288.714 533.414 352.241 531.504C415.769 529.593 705.019 519.246 841.704 507.147L846.621 484.856L849.485 469.494L818.121 428.362L853.809 420.53L854.088 390.604C753.893 408.515 543.097 446.248 501.476 453.89C459.854 461.532 263.558 450.706 170.613 444.337L171.497 463.31C176.31 463.31 182.847 464.798 182.906 464.798C182.965 464.798 179.732 473.355 176.844 481.35L177.698 512.816C188.843 511.612 209.934 524.934 205.129 526.01Z" fill="#D8C5A7"/>
<path d="M161.659 252.093L164.273 308.214C268.231 314.583 600.601 272.631 641.127 273.586C681.653 274.541 754.764 280.751 855.112 280.751L855.769 210.301C747.94 217.864 469.301 254.481 425.489 264.033C381.677 273.586 248.689 253.686 161.659 252.093Z" fill="#D8C5A7"/>
</g>
<rect x="235" y="203" width="574" height="315" fill="#F0FFF9" stroke="#D2ECE1" stroke-width="8"/>
<rect x="250.512" y="216.624" width="543.936" height="244.445" fill="#F0FFF9"/>
<g filter="url(#filter2_d_244_2586)">
<path d="M341.11 353.895C341.11 367.432 350.894 375.308 361.354 375.308C367.63 375.308 374.152 372.416 378.951 366.324L369.906 357.402C370.153 362.263 366.461 365.278 362.584 365.278C358.4 365.278 353.416 361.771 353.416 353.341C353.416 344.912 358.339 341.712 362.523 341.712C366.584 341.712 370.583 344.666 370.583 348.911L378.951 340.359C374.398 334.39 368.368 331.621 362.338 331.621C351.57 331.621 341.11 340.297 341.11 353.895ZM395.058 375.308C405.887 375.308 410.071 367.493 410.133 359.617C410.194 351.742 406.01 343.866 395.181 343.866C384.29 343.866 380.168 351.742 380.168 359.617C380.168 367.493 384.29 375.308 395.058 375.308ZM390.935 359.617C390.935 356.11 392.72 353.588 395.181 353.588C397.642 353.588 399.365 356.11 399.365 359.617C399.365 363.125 397.581 365.647 395.181 365.647C392.72 365.647 390.935 363.125 390.935 359.617ZM411.969 344.235C413.445 357.218 413.384 363.309 412.092 375H423.782C423.229 369.955 422.675 367.863 422.552 362.632C422.367 356.91 424.705 354.018 427.043 354.018C429.443 354.018 431.843 356.91 431.843 362.632C431.843 366.816 431.412 367.924 430.612 375H442.303C441.565 368.355 441.134 367.37 441.134 363.371C441.072 357.033 443.472 353.957 445.872 353.957C448.21 353.957 450.486 356.849 450.486 362.632C450.486 366.816 450.056 367.924 449.317 375H460.947C460.147 367.924 459.777 363.74 459.777 359.494C459.839 348.111 454.547 343.866 449.563 343.866C445.072 343.866 440.826 347.311 440.826 352.111H440.211C438.55 346.327 434.612 343.866 430.858 343.866C426.49 343.866 422.429 347.127 422.429 352.111H421.813C421.936 350.819 422.306 346.327 422.552 344.235H411.969ZM462.803 375H474.494C472.894 360.971 472.894 358.264 474.494 344.235H462.803C464.403 358.264 464.403 360.971 462.803 375ZM463.295 331.929V340.235H474.063V331.929H463.295ZM476.984 344.235C478.46 357.218 478.399 363.309 477.107 375H488.613C488.121 370.631 485.167 353.957 492.612 353.957C494.766 353.957 496.858 356.479 496.858 362.571C496.858 366.755 496.427 367.924 495.627 375H507.318C506.58 368.355 506.149 363.617 506.149 359.617C506.149 352.542 505.226 343.927 496.181 343.927C493.166 343.927 487.444 345.527 487.444 352.111H486.829C486.952 350.819 487.321 346.327 487.567 344.235H476.984ZM506.464 382.445C510.033 385.829 516.862 386.998 521.108 386.998C531.876 386.998 541.228 377.769 541.167 366.94C541.105 359.31 541.536 351.619 542.336 344.235H531.814L529.415 349.096C528.369 346.019 524.8 343.927 521.047 343.927C515.755 343.927 510.094 347.988 510.094 359.187C510.094 370.57 515.447 375.308 520.554 375.308C525.231 375.308 529.661 371.37 529.661 365.094H530.338L529.784 368.847C529.353 374.815 524.738 377.277 519.877 377.277C515.017 377.277 509.971 374.815 508.802 371.001L506.464 382.445ZM520.862 359.617C520.862 356.11 522.646 353.588 525.108 353.588C527.569 353.588 529.292 356.11 529.292 359.617C529.292 363.125 527.569 365.647 525.108 365.647C522.646 365.647 520.923 363.125 520.862 359.617ZM558.929 367.924C559.914 372.17 565.636 375.308 571.235 375.308C577.204 375.308 583.111 371.739 583.111 365.709C583.111 362.14 581.019 360.048 578.742 358.448C575.727 356.356 572.589 354.695 572.589 352.542C572.589 351.803 573.02 351.434 573.512 351.434C574.743 351.434 576.589 353.341 576.281 355.495L583.295 348.788C580.711 345.527 577.019 343.866 572.466 343.866C566.498 343.866 560.714 347.004 560.714 352.357C560.714 357.218 564.959 359.125 567.79 361.402C569.205 362.571 570.312 363.863 570.312 365.647C570.312 366.755 569.636 367.37 568.836 367.37C567.482 367.37 565.759 365.524 566.498 361.156L558.929 367.924ZM599.417 375.308C610.246 375.308 614.431 367.493 614.492 359.617C614.554 351.742 610.37 343.866 599.54 343.866C588.649 343.866 584.527 351.742 584.527 359.617C584.527 367.493 588.649 375.308 599.417 375.308ZM595.295 359.617C595.295 356.11 597.079 353.588 599.54 353.588C602.001 353.588 603.724 356.11 603.724 359.617C603.724 363.125 601.94 365.647 599.54 365.647C597.079 365.647 595.295 363.125 595.295 359.617ZM630.603 375.308C641.432 375.308 645.616 367.493 645.678 359.617C645.739 351.742 641.555 343.866 630.726 343.866C619.835 343.866 615.713 351.742 615.713 359.617C615.713 367.493 619.835 375.308 630.603 375.308ZM626.48 359.617C626.48 356.11 628.265 353.588 630.726 353.588C633.187 353.588 634.91 356.11 634.91 359.617C634.91 363.125 633.126 365.647 630.726 365.647C628.265 365.647 626.48 363.125 626.48 359.617ZM647.514 344.235C648.99 357.218 648.929 363.309 647.637 375H659.143C658.651 370.631 655.697 353.957 663.142 353.957C665.296 353.957 667.388 356.479 667.388 362.571C667.388 366.755 666.957 367.924 666.157 375H677.848C677.11 368.355 676.679 363.617 676.679 359.617C676.679 352.542 675.756 343.927 666.711 343.927C663.696 343.927 657.974 345.527 657.974 352.111H657.358C657.481 350.819 657.851 346.327 658.097 344.235H647.514ZM679.721 375H685.751V369.278H679.721V375ZM688.193 375H694.223V369.278H688.193V375ZM696.666 375H702.695V369.278H696.666V375Z" fill="#D2ECE1"/>
<path d="M378.951 366.324L381.176 368.077C382.068 366.944 381.967 365.321 380.94 364.308L378.951 366.324ZM369.906 357.402L371.895 355.386C371.064 354.566 369.814 354.34 368.748 354.818C367.682 355.296 367.019 356.379 367.078 357.546L369.906 357.402ZM370.583 348.911H367.751C367.751 350.062 368.448 351.099 369.514 351.533C370.58 351.968 371.802 351.714 372.607 350.892L370.583 348.911ZM378.951 340.359L380.976 342.339C381.959 341.334 382.056 339.759 381.203 338.641L378.951 340.359ZM338.278 353.895C338.278 369.062 349.396 378.14 361.354 378.14V372.476C352.391 372.476 343.942 365.802 343.942 353.895H338.278ZM361.354 378.14C368.522 378.14 375.855 374.831 381.176 368.077L376.727 364.572C372.449 370.001 366.738 372.476 361.354 372.476V378.14ZM380.94 364.308L371.895 355.386L367.918 359.419L376.963 368.34L380.94 364.308ZM367.078 357.546C367.234 360.622 365.012 362.446 362.584 362.446V368.11C367.909 368.11 373.071 363.905 372.735 357.259L367.078 357.546ZM362.584 362.446C361.273 362.446 359.743 361.893 358.519 360.558C357.314 359.243 356.248 356.986 356.248 353.341H350.584C350.584 358.127 352.01 361.838 354.343 364.384C356.658 366.91 359.711 368.11 362.584 368.11V362.446ZM356.248 353.341C356.248 349.689 357.303 347.533 358.458 346.312C359.631 345.072 361.14 344.544 362.523 344.544V338.88C359.721 338.88 356.677 339.952 354.343 342.419C351.991 344.906 350.584 348.564 350.584 353.341H356.248ZM362.523 344.544C365.496 344.544 367.751 346.667 367.751 348.911H373.415C373.415 342.664 367.671 338.88 362.523 338.88V344.544ZM372.607 350.892L380.976 342.339L376.927 338.378L368.559 346.931L372.607 350.892ZM381.203 338.641C376.141 332.006 369.296 328.789 362.338 328.789V334.453C367.441 334.453 372.655 336.774 376.7 342.076L381.203 338.641ZM362.338 328.789C350.07 328.789 338.278 338.67 338.278 353.895H343.942C343.942 341.924 353.071 334.453 362.338 334.453V328.789ZM410.133 359.617L407.301 359.595L410.133 359.617ZM395.058 378.14C401.226 378.14 405.821 375.875 408.824 372.211C411.752 368.637 412.93 364.025 412.965 359.64L407.301 359.595C407.274 363.086 406.329 366.318 404.443 368.621C402.631 370.833 399.719 372.476 395.058 372.476V378.14ZM412.965 359.64C412.999 355.239 411.854 350.602 408.942 347.006C405.955 343.318 401.355 341.034 395.181 341.034V346.698C399.836 346.698 402.743 348.351 404.54 350.571C406.411 352.881 407.328 356.12 407.301 359.595L412.965 359.64ZM395.181 341.034C388.979 341.034 384.378 343.316 381.389 347.006C378.477 350.601 377.336 355.234 377.336 359.617H382.999C382.999 356.126 383.919 352.882 385.791 350.571C387.586 348.354 390.492 346.698 395.181 346.698V341.034ZM377.336 359.617C377.336 364.002 378.478 368.618 381.373 372.197C384.345 375.871 388.915 378.14 395.058 378.14V372.476C390.433 372.476 387.558 370.837 385.777 368.635C383.919 366.338 382.999 363.109 382.999 359.617H377.336ZM393.767 359.617C393.767 358.314 394.102 357.412 394.45 356.919C394.769 356.466 395.026 356.419 395.181 356.419V350.756C392.875 350.756 391.009 351.97 389.821 353.655C388.66 355.301 388.103 357.414 388.103 359.617H393.767ZM395.181 356.419C395.326 356.419 395.561 356.456 395.866 356.897C396.204 357.386 396.533 358.294 396.533 359.617H402.197C402.197 357.434 401.665 355.327 400.526 353.678C399.354 351.981 397.497 350.756 395.181 350.756V356.419ZM396.533 359.617C396.533 360.92 396.198 361.829 395.85 362.327C395.526 362.792 395.281 362.815 395.181 362.815V368.479C397.481 368.479 399.328 367.241 400.495 365.568C401.64 363.928 402.197 361.822 402.197 359.617H396.533ZM395.181 362.815C395.026 362.815 394.769 362.768 394.45 362.316C394.102 361.823 393.767 360.921 393.767 359.617H388.103C388.103 361.821 388.66 363.934 389.821 365.579C391.009 367.265 392.875 368.479 395.181 368.479V362.815ZM411.969 344.235V341.403C411.162 341.403 410.393 341.747 409.856 342.349C409.319 342.951 409.064 343.753 409.155 344.555L411.969 344.235ZM412.092 375L409.277 374.689C409.188 375.489 409.445 376.289 409.982 376.889C410.519 377.489 411.286 377.832 412.092 377.832V375ZM423.782 375V377.832C424.587 377.832 425.354 377.489 425.891 376.89C426.428 376.291 426.685 375.491 426.597 374.691L423.782 375ZM422.552 362.632L425.383 362.566C425.383 362.558 425.382 362.549 425.382 362.541L422.552 362.632ZM430.612 375L427.798 374.682C427.708 375.483 427.963 376.285 428.5 376.887C429.037 377.488 429.806 377.832 430.612 377.832V375ZM442.303 375V377.832C443.108 377.832 443.876 377.489 444.413 376.889C444.95 376.288 445.206 375.488 445.117 374.687L442.303 375ZM441.134 363.371H443.966C443.966 363.362 443.966 363.352 443.966 363.343L441.134 363.371ZM449.317 375L446.501 374.706C446.417 375.504 446.676 376.3 447.214 376.896C447.751 377.492 448.515 377.832 449.317 377.832V375ZM460.947 375V377.832C461.753 377.832 462.521 377.488 463.058 376.887C463.596 376.285 463.851 375.483 463.761 374.682L460.947 375ZM459.777 359.494L456.946 359.479C456.946 359.484 456.946 359.489 456.946 359.494H459.777ZM440.826 352.111V354.943C442.39 354.943 443.658 353.675 443.658 352.111H440.826ZM440.211 352.111L437.489 352.893C437.838 354.106 438.948 354.943 440.211 354.943V352.111ZM422.429 352.111V354.943C423.993 354.943 425.261 353.675 425.261 352.111H422.429ZM421.813 352.111L418.994 351.842C418.919 352.636 419.181 353.426 419.718 354.016C420.255 354.606 421.016 354.943 421.813 354.943V352.111ZM422.552 344.235L425.364 344.566C425.459 343.763 425.205 342.957 424.668 342.353C424.131 341.749 423.36 341.403 422.552 341.403V344.235ZM409.155 344.555C410.608 357.328 410.546 363.208 409.277 374.689L414.906 375.311C416.222 363.41 416.283 357.107 414.782 343.915L409.155 344.555ZM412.092 377.832H423.782V372.168H412.092V377.832ZM426.597 374.691C426.014 369.375 425.502 367.642 425.383 362.566L419.721 362.699C419.847 368.083 420.443 370.534 420.967 375.309L426.597 374.691ZM425.382 362.541C425.302 360.046 425.786 358.469 426.287 357.625C426.533 357.21 426.76 357.009 426.891 356.922C426.956 356.879 427 356.862 427.02 356.855C427.031 356.852 427.037 356.851 427.04 356.851C427.041 356.85 427.042 356.85 427.043 356.85C427.043 356.85 427.043 356.85 427.043 356.85V351.186C424.602 351.186 422.624 352.7 421.416 354.734C420.21 356.766 419.617 359.497 419.721 362.724L425.382 362.541ZM427.043 356.85C427.057 356.85 427.132 356.85 427.277 356.944C427.432 357.043 427.676 357.257 427.942 357.682C428.482 358.545 429.011 360.133 429.011 362.632H434.675C434.675 359.409 434.003 356.691 432.744 354.677C431.482 352.66 429.48 351.186 427.043 351.186V356.85ZM429.011 362.632C429.011 366.607 428.631 367.315 427.798 374.682L433.426 375.318C434.193 368.533 434.675 367.026 434.675 362.632H429.011ZM430.612 377.832H442.303V372.168H430.612V377.832ZM445.117 374.687C444.342 367.71 443.966 367.169 443.966 363.371H438.302C438.302 367.571 438.787 369 439.488 375.313L445.117 374.687ZM443.966 363.343C443.938 360.496 444.472 358.684 445.039 357.692C445.607 356.697 446.006 356.789 445.872 356.789V351.125C443.337 351.125 441.337 352.755 440.121 354.882C438.903 357.013 438.268 359.908 438.302 363.398L443.966 363.343ZM445.872 356.789C445.872 356.789 445.872 356.789 445.872 356.789C445.872 356.789 445.872 356.789 445.873 356.789C445.875 356.789 445.879 356.79 445.888 356.793C445.904 356.798 445.945 356.813 446.008 356.855C446.137 356.941 446.367 357.145 446.623 357.575C447.145 358.452 447.654 360.073 447.654 362.632H453.318C453.318 359.408 452.689 356.691 451.489 354.676C450.285 352.655 448.328 351.125 445.872 351.125V356.789ZM447.654 362.632C447.654 366.627 447.271 367.321 446.501 374.706L452.134 375.294C452.84 368.527 453.318 367.006 453.318 362.632H447.654ZM449.317 377.832H460.947V372.168H449.317V377.832ZM463.761 374.682C462.962 367.614 462.609 363.567 462.609 359.494H456.946C456.946 363.912 457.332 368.234 458.133 375.318L463.761 374.682ZM462.609 359.51C462.642 353.409 461.245 348.81 458.795 345.669C456.307 342.48 452.905 341.034 449.563 341.034V346.698C451.206 346.698 452.942 347.375 454.33 349.153C455.756 350.982 456.974 354.196 456.946 359.479L462.609 359.51ZM449.563 341.034C443.794 341.034 437.994 345.475 437.994 352.111H443.658C443.658 349.147 446.349 346.698 449.563 346.698V341.034ZM440.826 349.279H440.211V354.943H440.826V349.279ZM442.933 351.329C440.966 344.482 436.025 341.034 430.858 341.034V346.698C433.198 346.698 436.133 348.171 437.489 352.893L442.933 351.329ZM430.858 341.034C425.149 341.034 419.597 345.348 419.597 352.111H425.261C425.261 348.905 427.83 346.698 430.858 346.698V341.034ZM422.429 349.279H421.813V354.943H422.429V349.279ZM424.633 352.379C424.764 350.998 425.122 346.622 425.364 344.566L419.739 343.904C419.489 346.032 419.109 350.64 418.994 351.842L424.633 352.379ZM422.552 341.403H411.969V347.067H422.552V341.403ZM462.803 375L459.989 374.679C459.898 375.481 460.153 376.284 460.69 376.886C461.227 377.488 461.996 377.832 462.803 377.832V375ZM474.494 375V377.832C475.301 377.832 476.069 377.488 476.607 376.886C477.144 376.284 477.399 375.481 477.307 374.679L474.494 375ZM474.494 344.235L477.307 344.556C477.399 343.754 477.144 342.951 476.607 342.349C476.069 341.747 475.301 341.403 474.494 341.403V344.235ZM462.803 344.235V341.403C461.996 341.403 461.227 341.747 460.69 342.349C460.153 342.951 459.898 343.754 459.989 344.556L462.803 344.235ZM463.295 331.929V329.097C461.731 329.097 460.463 330.365 460.463 331.929H463.295ZM463.295 340.235H460.463C460.463 341.8 461.731 343.067 463.295 343.067V340.235ZM474.063 340.235V343.067C475.627 343.067 476.895 341.8 476.895 340.235H474.063ZM474.063 331.929H476.895C476.895 330.365 475.627 329.097 474.063 329.097V331.929ZM462.803 377.832H474.494V372.168H462.803V377.832ZM477.307 374.679C476.507 367.658 476.126 363.621 476.126 359.617C476.126 355.614 476.507 351.577 477.307 344.556L471.68 343.914C470.881 350.921 470.462 355.253 470.462 359.617C470.462 363.982 470.881 368.313 471.68 375.321L477.307 374.679ZM474.494 341.403H462.803V347.067H474.494V341.403ZM459.989 344.556C460.79 351.577 461.171 355.614 461.171 359.617C461.171 363.621 460.79 367.658 459.989 374.679L465.617 375.321C466.416 368.313 466.835 363.982 466.835 359.617C466.835 355.253 466.416 350.921 465.617 343.914L459.989 344.556ZM460.463 331.929V340.235H466.127V331.929H460.463ZM463.295 343.067H474.063V337.404H463.295V343.067ZM476.895 340.235V331.929H471.231V340.235H476.895ZM474.063 329.097H463.295V334.761H474.063V329.097ZM476.984 344.235V341.403C476.177 341.403 475.408 341.747 474.871 342.349C474.334 342.951 474.079 343.753 474.17 344.555L476.984 344.235ZM477.107 375L474.292 374.689C474.204 375.489 474.46 376.289 474.997 376.889C475.534 377.489 476.302 377.832 477.107 377.832V375ZM488.613 375V377.832C489.419 377.832 490.187 377.488 490.725 376.887C491.262 376.286 491.517 375.484 491.427 374.683L488.613 375ZM495.627 375L492.813 374.682C492.723 375.483 492.978 376.285 493.515 376.887C494.053 377.488 494.821 377.832 495.627 377.832V375ZM507.318 375V377.832C508.124 377.832 508.891 377.489 509.428 376.889C509.965 376.288 510.222 375.488 510.133 374.687L507.318 375ZM487.444 352.111V354.943C489.008 354.943 490.276 353.675 490.276 352.111H487.444ZM486.829 352.111L484.009 351.842C483.934 352.636 484.197 353.426 484.733 354.016C485.27 354.606 486.031 354.943 486.829 354.943V352.111ZM487.567 344.235L490.379 344.566C490.474 343.763 490.221 342.957 489.683 342.353C489.146 341.749 488.376 341.403 487.567 341.403V344.235ZM474.17 344.555C475.623 357.328 475.561 363.208 474.292 374.689L479.922 375.311C481.237 363.41 481.298 357.107 479.798 343.915L474.17 344.555ZM477.107 377.832H488.613V372.168H477.107V377.832ZM491.427 374.683C491.157 372.287 490.344 367.37 490.467 362.919C490.529 360.677 490.83 358.926 491.343 357.829C491.584 357.313 491.813 357.072 491.962 356.962C492.077 356.878 492.248 356.789 492.612 356.789V351.125C491.115 351.125 489.75 351.557 488.604 352.401C487.491 353.221 486.733 354.316 486.212 355.431C485.2 357.597 484.874 360.289 484.805 362.762C484.667 367.74 485.577 373.344 485.799 375.317L491.427 374.683ZM492.612 356.789C492.423 356.789 492.657 356.634 493.081 357.38C493.541 358.188 494.026 359.796 494.026 362.571H499.69C499.69 359.255 499.129 356.556 498.004 354.579C496.844 352.541 494.955 351.125 492.612 351.125V356.789ZM494.026 362.571C494.026 366.545 493.645 367.324 492.813 374.682L498.441 375.318C499.209 368.524 499.69 366.965 499.69 362.571H494.026ZM495.627 377.832H507.318V372.168H495.627V377.832ZM510.133 374.687C509.394 368.036 508.981 363.441 508.981 359.617H503.317C503.317 363.793 503.766 368.673 504.504 375.313L510.133 374.687ZM508.981 359.617C508.981 356.073 508.773 351.603 507.141 347.961C506.298 346.08 505.033 344.316 503.14 343.038C501.237 341.751 498.908 341.095 496.181 341.095V346.759C497.977 346.759 499.155 347.18 499.969 347.73C500.793 348.287 501.454 349.12 501.973 350.277C503.063 352.711 503.317 356.086 503.317 359.617H508.981ZM496.181 341.095C494.276 341.095 491.493 341.582 489.095 343.205C486.541 344.932 484.612 347.841 484.612 352.111H490.276C490.276 349.797 491.208 348.614 492.269 347.896C493.486 347.072 495.071 346.759 496.181 346.759V341.095ZM487.444 349.279H486.829V354.943H487.444V349.279ZM489.648 352.379C489.779 350.998 490.138 346.622 490.379 344.566L484.754 343.904C484.504 346.032 484.124 350.64 484.009 351.842L489.648 352.379ZM487.567 341.403H476.984V347.067H487.567V341.403ZM506.464 382.445L503.689 381.878C503.494 382.836 503.806 383.827 504.515 384.5L506.464 382.445ZM541.167 366.94L543.999 366.923L543.999 366.917L541.167 366.94ZM542.336 344.235L545.151 344.54C545.238 343.74 544.981 342.942 544.444 342.343C543.906 341.745 543.14 341.403 542.336 341.403V344.235ZM531.814 344.235V341.403C530.736 341.403 529.752 342.015 529.275 342.981L531.814 344.235ZM529.415 349.096L526.733 350.007C527.102 351.091 528.087 351.847 529.23 351.922C530.372 351.997 531.447 351.376 531.954 350.349L529.415 349.096ZM529.661 365.094V362.262C528.097 362.262 526.829 363.53 526.829 365.094H529.661ZM530.338 365.094L533.139 365.507C533.259 364.693 533.019 363.866 532.481 363.243C531.943 362.62 531.161 362.262 530.338 362.262V365.094ZM529.784 368.847L526.982 368.434C526.972 368.503 526.964 368.573 526.959 368.643L529.784 368.847ZM508.802 371.001L511.51 370.171C511.13 368.933 509.96 368.11 508.666 368.172C507.373 368.234 506.287 369.165 506.027 370.434L508.802 371.001ZM520.862 359.617H518.03C518.03 359.634 518.03 359.651 518.03 359.667L520.862 359.617ZM504.515 384.5C506.789 386.656 509.907 387.956 512.803 388.727C515.744 389.511 518.759 389.83 521.108 389.83V384.166C519.211 384.166 516.689 383.901 514.261 383.254C511.789 382.596 509.707 381.618 508.413 380.39L504.515 384.5ZM521.108 389.83C533.42 389.83 544.069 379.349 543.999 366.923L538.335 366.956C538.387 376.188 530.332 384.166 521.108 384.166V389.83ZM543.999 366.917C543.938 359.406 544.362 351.825 545.151 344.54L539.521 343.93C538.71 351.412 538.273 359.213 538.335 366.962L543.999 366.917ZM542.336 341.403H531.814V347.067H542.336V341.403ZM529.275 342.981L526.875 347.842L531.954 350.349L534.354 345.489L529.275 342.981ZM532.096 348.184C530.553 343.647 525.646 341.095 521.047 341.095V346.759C523.954 346.759 526.184 348.392 526.733 350.007L532.096 348.184ZM521.047 341.095C517.657 341.095 514.104 342.411 511.439 345.511C508.795 348.585 507.262 353.13 507.262 359.187H512.926C512.926 354.045 514.223 350.96 515.733 349.204C517.221 347.474 519.144 346.759 521.047 346.759V341.095ZM507.262 359.187C507.262 365.295 508.697 369.988 511.152 373.227C513.638 376.505 517.071 378.14 520.554 378.14V372.476C518.931 372.476 517.134 371.742 515.666 369.805C514.168 367.829 512.926 364.462 512.926 359.187H507.262ZM520.554 378.14C526.912 378.14 532.493 372.814 532.493 365.094H526.829C526.829 369.926 523.549 372.476 520.554 372.476V378.14ZM529.661 367.926H530.338V362.262H529.661V367.926ZM527.536 364.68L526.982 368.434L532.585 369.26L533.139 365.507L527.536 364.68ZM526.959 368.643C526.8 370.855 525.917 372.192 524.793 373.034C523.59 373.937 521.868 374.445 519.877 374.445V380.109C522.748 380.109 525.764 379.386 528.191 377.565C530.698 375.686 532.337 372.807 532.608 369.051L526.959 368.643ZM519.877 374.445C517.894 374.445 515.885 373.936 514.305 373.079C512.698 372.209 511.807 371.141 511.51 370.171L506.094 371.83C506.966 374.675 509.182 376.745 511.606 378.059C514.056 379.387 517 380.109 519.877 380.109V374.445ZM506.027 370.434L503.689 381.878L509.239 383.012L511.577 371.567L506.027 370.434ZM523.694 359.617C523.694 358.314 524.029 357.412 524.376 356.919C524.695 356.466 524.952 356.419 525.108 356.419V350.756C522.801 350.756 520.936 351.97 519.747 353.655C518.587 355.301 518.03 357.414 518.03 359.617H523.694ZM525.108 356.419C525.252 356.419 525.488 356.456 525.792 356.897C526.13 357.386 526.46 358.294 526.46 359.617H532.123C532.123 357.434 531.591 355.327 530.453 353.678C529.28 351.981 527.424 350.756 525.108 350.756V356.419ZM526.46 359.617C526.46 360.941 526.13 361.849 525.792 362.338C525.488 362.779 525.252 362.815 525.108 362.815V368.479C527.424 368.479 529.28 367.254 530.453 365.557C531.591 363.908 532.123 361.801 532.123 359.617H526.46ZM525.108 362.815C524.964 362.815 524.723 362.78 524.407 362.327C524.058 361.826 523.717 360.905 523.693 359.568L518.03 359.667C518.069 361.838 518.62 363.931 519.762 365.568C520.939 367.254 522.79 368.479 525.108 368.479V362.815ZM558.929 367.924L557.042 365.813C556.271 366.502 555.937 367.557 556.171 368.564L558.929 367.924ZM578.742 358.448L580.37 356.131C580.366 356.128 580.361 356.125 580.357 356.122L578.742 358.448ZM576.281 355.495L573.477 355.094C573.307 356.29 573.912 357.462 574.986 358.014C576.06 358.566 577.365 358.376 578.238 357.542L576.281 355.495ZM583.295 348.788L585.252 350.835C586.309 349.824 586.423 348.175 585.515 347.029L583.295 348.788ZM567.79 361.402L569.593 359.219C569.584 359.211 569.574 359.203 569.565 359.195L567.79 361.402ZM566.498 361.156L569.29 361.628C569.49 360.441 568.919 359.258 567.866 358.676C566.812 358.095 565.507 358.243 564.61 359.045L566.498 361.156ZM556.171 368.564C556.901 371.712 559.276 374.108 561.924 375.654C564.615 377.224 567.939 378.14 571.235 378.14V372.476C568.933 372.476 566.596 371.822 564.779 370.762C562.921 369.677 561.943 368.382 561.688 367.284L556.171 368.564ZM571.235 378.14C574.744 378.14 578.324 377.099 581.096 375.045C583.921 372.954 585.943 369.76 585.943 365.709H580.279C580.279 367.688 579.347 369.294 577.726 370.494C576.053 371.732 573.695 372.476 571.235 372.476V378.14ZM585.943 365.709C585.943 360.75 582.914 357.918 580.37 356.131L577.114 360.765C579.124 362.178 580.279 363.53 580.279 365.709H585.943ZM580.357 356.122C578.635 354.927 577.38 354.183 576.323 353.322C575.204 352.41 575.421 352.203 575.421 352.542H569.757C569.757 355.033 571.544 356.734 572.746 357.714C574.013 358.745 575.834 359.878 577.128 360.775L580.357 356.122ZM575.421 352.542C575.421 352.725 575.359 353.182 574.954 353.624C574.543 354.072 573.993 354.266 573.512 354.266V348.602C572.539 348.602 571.528 348.98 570.778 349.797C570.035 350.609 569.757 351.62 569.757 352.542H575.421ZM573.512 354.266C573.305 354.266 573.161 354.227 573.094 354.204C573.025 354.181 572.999 354.163 573.01 354.17C573.039 354.188 573.13 354.256 573.233 354.389C573.452 354.672 573.5 354.937 573.477 355.094L579.084 355.895C579.37 353.899 578.648 352.134 577.714 350.925C576.885 349.853 575.383 348.602 573.512 348.602V354.266ZM578.238 357.542L585.252 350.835L581.338 346.741L574.324 353.448L578.238 357.542ZM585.515 347.029C582.331 343.011 577.778 341.034 572.466 341.034V346.698C576.26 346.698 579.091 348.043 581.076 350.547L585.515 347.029ZM572.466 341.034C569.031 341.034 565.524 341.929 562.787 343.744C560.002 345.591 557.882 348.516 557.882 352.357H563.546C563.546 350.845 564.318 349.524 565.917 348.464C567.564 347.372 569.932 346.698 572.466 346.698V341.034ZM557.882 352.357C557.882 355.771 559.433 358.154 561.221 359.884C562.081 360.716 563.013 361.416 563.832 362.007C564.707 362.639 565.384 363.101 566.015 363.609L569.565 359.195C568.781 358.565 567.865 357.934 567.148 357.416C566.375 356.857 565.715 356.35 565.159 355.813C564.118 354.805 563.546 353.803 563.546 352.357H557.882ZM565.986 363.585C567.266 364.643 567.481 365.204 567.481 365.647H573.144C573.144 362.522 571.143 360.499 569.593 359.219L565.986 363.585ZM567.481 365.647C567.481 365.618 567.499 365.323 567.791 365.006C568.087 364.685 568.487 364.538 568.836 364.538V370.202C569.984 370.202 571.123 369.748 571.957 368.843C572.788 367.941 573.144 366.785 573.144 365.647H567.481ZM568.836 364.538C569.5 364.538 569.573 364.949 569.411 364.627C569.258 364.322 568.986 363.427 569.29 361.628L563.705 360.684C563.271 363.253 563.492 365.465 564.353 367.175C565.206 368.869 566.818 370.202 568.836 370.202V364.538ZM564.61 359.045L557.042 365.813L560.817 370.035L568.385 363.267L564.61 359.045ZM614.492 359.617L611.66 359.595L614.492 359.617ZM599.417 378.14C605.586 378.14 610.18 375.875 613.183 372.211C616.111 368.637 617.29 364.025 617.324 359.64L611.66 359.595C611.633 363.086 610.689 366.318 608.802 368.621C606.99 370.833 604.078 372.476 599.417 372.476V378.14ZM617.324 359.64C617.358 355.239 616.214 350.602 613.301 347.006C610.314 343.318 605.714 341.034 599.54 341.034V346.698C604.195 346.698 607.102 348.351 608.899 350.571C610.771 352.881 611.687 356.12 611.66 359.595L617.324 359.64ZM599.54 341.034C593.339 341.034 588.737 343.316 585.749 347.006C582.837 350.601 581.695 355.234 581.695 359.617H587.359C587.359 356.126 588.278 352.882 590.15 350.571C591.946 348.354 594.851 346.698 599.54 346.698V341.034ZM581.695 359.617C581.695 364.002 582.837 368.618 585.732 372.197C588.704 375.871 593.274 378.14 599.417 378.14V372.476C594.793 372.476 591.917 370.837 590.136 368.635C588.278 366.338 587.359 363.109 587.359 359.617H581.695ZM598.127 359.617C598.127 358.314 598.462 357.412 598.809 356.919C599.128 356.466 599.385 356.419 599.54 356.419V350.756C597.234 350.756 595.368 351.97 594.18 353.655C593.02 355.301 592.463 357.414 592.463 359.617H598.127ZM599.54 356.419C599.685 356.419 599.921 356.456 600.225 356.897C600.563 357.386 600.892 358.294 600.892 359.617H606.556C606.556 357.434 606.024 355.327 604.885 353.678C603.713 351.981 601.857 350.756 599.54 350.756V356.419ZM600.892 359.617C600.892 360.92 600.557 361.829 600.21 362.327C599.885 362.792 599.64 362.815 599.54 362.815V368.479C601.84 368.479 603.687 367.241 604.854 365.568C605.999 363.928 606.556 361.822 606.556 359.617H600.892ZM599.54 362.815C599.385 362.815 599.128 362.768 598.809 362.316C598.462 361.823 598.127 360.921 598.127 359.617H592.463C592.463 361.821 593.02 363.934 594.18 365.579C595.368 367.265 597.234 368.479 599.54 368.479V362.815ZM645.678 359.617L642.846 359.595L645.678 359.617ZM630.603 378.14C636.771 378.14 641.366 375.875 644.369 372.211C647.297 368.637 648.475 364.025 648.51 359.64L642.846 359.595C642.819 363.086 641.874 366.318 639.988 368.621C638.176 370.833 635.264 372.476 630.603 372.476V378.14ZM648.51 359.64C648.544 355.239 647.399 350.602 644.487 347.006C641.5 343.318 636.9 341.034 630.726 341.034V346.698C635.381 346.698 638.288 348.351 640.085 350.571C641.956 352.881 642.873 356.12 642.846 359.595L648.51 359.64ZM630.726 341.034C624.524 341.034 619.923 343.316 616.934 347.006C614.022 350.601 612.881 355.234 612.881 359.617H618.544C618.544 356.126 619.464 352.882 621.336 350.571C623.131 348.354 626.037 346.698 630.726 346.698V341.034ZM612.881 359.617C612.881 364.002 614.023 368.618 616.918 372.197C619.89 375.871 624.46 378.14 630.603 378.14V372.476C625.978 372.476 623.103 370.837 621.322 368.635C619.464 366.338 618.544 363.109 618.544 359.617H612.881ZM629.312 359.617C629.312 358.314 629.647 357.412 629.995 356.919C630.314 356.466 630.571 356.419 630.726 356.419V350.756C628.42 350.756 626.554 351.97 625.366 353.655C624.205 355.301 623.648 357.414 623.648 359.617H629.312ZM630.726 356.419C630.871 356.419 631.106 356.456 631.411 356.897C631.749 357.386 632.078 358.294 632.078 359.617H637.742C637.742 357.434 637.21 355.327 636.071 353.678C634.899 351.981 633.042 350.756 630.726 350.756V356.419ZM632.078 359.617C632.078 360.92 631.743 361.829 631.395 362.327C631.071 362.792 630.826 362.815 630.726 362.815V368.479C633.026 368.479 634.873 367.241 636.04 365.568C637.185 363.928 637.742 361.822 637.742 359.617H632.078ZM630.726 362.815C630.571 362.815 630.314 362.768 629.995 362.316C629.647 361.823 629.312 360.921 629.312 359.617H623.648C623.648 361.821 624.205 363.934 625.366 365.579C626.554 367.265 628.42 368.479 630.726 368.479V362.815ZM647.514 344.235V341.403C646.707 341.403 645.938 341.747 645.401 342.349C644.864 342.951 644.609 343.753 644.7 344.555L647.514 344.235ZM647.637 375L644.822 374.689C644.733 375.489 644.99 376.289 645.527 376.889C646.064 377.489 646.831 377.832 647.637 377.832V375ZM659.143 375V377.832C659.949 377.832 660.717 377.488 661.254 376.887C661.792 376.286 662.047 375.484 661.957 374.683L659.143 375ZM666.157 375L663.343 374.682C663.253 375.483 663.508 376.285 664.045 376.887C664.583 377.488 665.351 377.832 666.157 377.832V375ZM677.848 375V377.832C678.653 377.832 679.421 377.489 679.958 376.889C680.495 376.288 680.751 375.488 680.663 374.687L677.848 375ZM657.974 352.111V354.943C659.538 354.943 660.806 353.675 660.806 352.111H657.974ZM657.358 352.111L654.539 351.842C654.464 352.636 654.726 353.426 655.263 354.016C655.8 354.606 656.561 354.943 657.358 354.943V352.111ZM658.097 344.235L660.909 344.566C661.004 343.763 660.75 342.957 660.213 342.353C659.676 341.749 658.905 341.403 658.097 341.403V344.235ZM644.7 344.555C646.153 357.328 646.091 363.208 644.822 374.689L650.451 375.311C651.767 363.41 651.828 357.107 650.327 343.915L644.7 344.555ZM647.637 377.832H659.143V372.168H647.637V377.832ZM661.957 374.683C661.687 372.287 660.873 367.37 660.997 362.919C661.059 360.677 661.36 358.926 661.873 357.829C662.114 357.313 662.343 357.072 662.492 356.962C662.607 356.878 662.778 356.789 663.142 356.789V351.125C661.645 351.125 660.28 351.557 659.133 352.401C658.021 353.221 657.263 354.316 656.742 355.431C655.729 357.597 655.404 360.289 655.335 362.762C655.197 367.74 656.106 373.344 656.329 375.317L661.957 374.683ZM663.142 356.789C662.953 356.789 663.186 356.634 663.611 357.38C664.071 358.188 664.556 359.796 664.556 362.571H670.22C670.22 359.255 669.659 356.556 668.534 354.579C667.374 352.541 665.485 351.125 663.142 351.125V356.789ZM664.556 362.571C664.556 366.545 664.175 367.324 663.343 374.682L668.971 375.318C669.739 368.524 670.22 366.965 670.22 362.571H664.556ZM666.157 377.832H677.848V372.168H666.157V377.832ZM680.663 374.687C679.923 368.036 679.511 363.441 679.511 359.617H673.847C673.847 363.793 674.296 368.673 675.033 375.313L680.663 374.687ZM679.511 359.617C679.511 356.073 679.303 351.603 677.671 347.961C676.828 346.08 675.562 344.316 673.67 343.038C671.767 341.751 669.438 341.095 666.711 341.095V346.759C668.507 346.759 669.684 347.18 670.499 347.73C671.323 348.287 671.984 349.12 672.502 350.277C673.593 352.711 673.847 356.086 673.847 359.617H679.511ZM666.711 341.095C664.806 341.095 662.023 341.582 659.625 343.205C657.071 344.932 655.142 347.841 655.142 352.111H660.806C660.806 349.797 661.737 348.614 662.799 347.896C664.015 347.072 665.601 346.759 666.711 346.759V341.095ZM657.974 349.279H657.358V354.943H657.974V349.279ZM660.178 352.379C660.309 350.998 660.667 346.622 660.909 344.566L655.284 343.904C655.034 346.032 654.654 350.64 654.539 351.842L660.178 352.379ZM658.097 341.403H647.514V347.067H658.097V341.403ZM679.721 375H676.889C676.889 376.564 678.157 377.832 679.721 377.832V375ZM685.751 375V377.832C687.315 377.832 688.583 376.564 688.583 375H685.751ZM685.751 369.278H688.583C688.583 367.714 687.315 366.446 685.751 366.446V369.278ZM679.721 369.278V366.446C678.157 366.446 676.889 367.714 676.889 369.278H679.721ZM679.721 377.832H685.751V372.168H679.721V377.832ZM688.583 375V369.278H682.919V375H688.583ZM685.751 366.446H679.721V372.11H685.751V366.446ZM676.889 369.278V375H682.553V369.278H676.889ZM688.193 375H685.361C685.361 376.564 686.629 377.832 688.193 377.832V375ZM694.223 375V377.832C695.787 377.832 697.055 376.564 697.055 375H694.223ZM694.223 369.278H697.055C697.055 367.714 695.787 366.446 694.223 366.446V369.278ZM688.193 369.278V366.446C686.629 366.446 685.361 367.714 685.361 369.278H688.193ZM688.193 377.832H694.223V372.168H688.193V377.832ZM697.055 375V369.278H691.391V375H697.055ZM694.223 366.446H688.193V372.11H694.223V366.446ZM685.361 369.278V375H691.025V369.278H685.361ZM696.666 375H693.834C693.834 376.564 695.102 377.832 696.666 377.832V375ZM702.695 375V377.832C704.26 377.832 705.527 376.564 705.527 375H702.695ZM702.695 369.278H705.527C705.527 367.714 704.26 366.446 702.695 366.446V369.278ZM696.666 369.278V366.446C695.102 366.446 693.834 367.714 693.834 369.278H696.666ZM696.666 377.832H702.695V372.168H696.666V377.832ZM705.527 375V369.278H699.864V375H705.527ZM702.695 366.446H696.666V372.11H702.695V366.446ZM693.834 369.278V375H699.497V369.278H693.834Z" fill="#254E1E"/>
</g>
<defs>
<filter id="filter0_d_244_2586" x="122.357" y="0" width="744.949" height="663" filterUnits="userSpaceOnUse" color-interpolation-filters="sRGB">
<feFlood flood-opacity="0" result="BackgroundImageFix"/>
<feColorMatrix in="SourceAlpha" type="matrix" values="0 0 0 0 0 0 0 0 0 0 0 0 0 0 0 0 0 0 127 0" result="hardAlpha"/>
<feOffset dx="-1.5" dy="3"/>
<feComposite in2="hardAlpha" operator="out"/>
<feColorMatrix type="matrix" values="0 0 0 0 0.145098 0 0 0 0 0.305882 0 0 0 0 0.117647 0 0 0 1 0"/>
<feBlend mode="normal" in2="BackgroundImageFix" result="effect1_dropShadow_244_2586"/>
<feBlend mode="normal" in="SourceGraphic" in2="effect1_dropShadow_244_2586" result="shape"/>
</filter>
<filter id="filter1_d_244_2586" x="122.357" y="82.5191" width="744.949" height="74.8825" filterUnits="userSpaceOnUse" color-interpolation-filters="sRGB">
<feFlood flood-opacity="0" result="BackgroundImageFix"/>
<feColorMatrix in="SourceAlpha" type="matrix" values="0 0 0 0 0 0 0 0 0 0 0 0 0 0 0 0 0 0 127 0" result="hardAlpha"/>
<feOffset dx="-1.5" dy="3"/>
<feComposite in2="hardAlpha" operator="out"/>
<feColorMatrix type="matrix" values="0 0 0 0 0.145098 0 0 0 0 0.305882 0 0 0 0 0.117647 0 0 0 1 0"/>
<feBlend mode="normal" in2="BackgroundImageFix" result="effect1_dropShadow_244_2586"/>
<feBlend mode="normal" in="SourceGraphic" in2="effect1_dropShadow_244_2586" result="shape"/>
</filter>
<filter id="filter2_d_244_2586" x="339.222" y="331.621" width="363.473" height="59.153" filterUnits="userSpaceOnUse" color-interpolation-filters="sRGB">
<feFlood flood-opacity="0" result="BackgroundImageFix"/>
<feColorMatrix in="SourceAlpha" type="matrix" values="0 0 0 0 0 0 0 0 0 0 0 0 0 0 0 0 0 0 127 0" result="hardAlpha"/>
<feOffset dx="-1.88795" dy="3.7759"/>
<feComposite in2="hardAlpha" operator="out"/>
<feColorMatrix type="matrix" values="0 0 0 0 0.145098 0 0 0 0 0.305882 0 0 0 0 0.117647 0 0 0 1 0"/>
<feBlend mode="normal" in2="BackgroundImageFix" result="effect1_dropShadow_244_2586"/>
<feBlend mode="normal" in="SourceGraphic" in2="effect1_dropShadow_244_2586" result="shape"/>
</filter>
</defs>
</svg>
