<svg width="109" height="360" viewBox="0 0 109 360" fill="none" xmlns="http://www.w3.org/2000/svg">
<g filter="url(#filter0_d_244_2229)">
<path d="M59.548 338L63.9758 1.83362L34.0116 20.8349L40.6769 338H59.548Z" fill="#97BACA" stroke="#254E1E" stroke-width="2"/>
<path d="M8.41076 332.914C9.05195 333.397 20.3886 348.506 25.9767 356H79.0755C78.3274 356 80.3223 349.96 81.4132 346.94C81.4132 345.705 85.287 338.149 87.224 334.525L97.9105 319.09C101.228 314.839 107.889 306.057 107.996 304.93C108.103 303.802 106.081 303.431 105.057 303.386C98.8901 307.055 85.5275 315.144 81.4132 318.15C77.2989 321.157 68.7897 335.822 65.0494 342.779V339.155L65.9177 324.66L67.1199 312.043C67.3648 308.039 68.2153 298.836 69.658 294.058C71.1007 289.28 69.0569 288.443 67.8546 288.622C63.9006 288.622 58.1477 301.999 55.7655 308.688L49.2868 334.525L47.8842 328.821L44.6782 319.09L39.8693 308.688L34.9935 300.769L24.0398 286.944C20.2105 283.79 11.8705 277.092 9.14547 275.536C6.42041 273.979 5.6946 276.184 5.67233 277.482C7.2085 276.878 22.3033 307.949 24.0398 312.714C25.4291 313.144 29.0714 329.223 30.7189 337.209L22.3033 331.908C17.6724 329.782 7.86307 325.358 5.67233 324.66C3.48159 323.962 2.97843 326.069 3.0007 327.21C4.53689 328.91 7.76956 332.431 8.41076 332.914Z" fill="#498A3E" stroke="#254E1E" stroke-width="2"/>
</g>
<defs>
<filter id="filter0_d_244_2229" x="0.5" y="0" width="108.5" height="360" filterUnits="userSpaceOnUse" color-interpolation-filters="sRGB">
<feFlood flood-opacity="0" result="BackgroundImageFix"/>
<feColorMatrix in="SourceAlpha" type="matrix" values="0 0 0 0 0 0 0 0 0 0 0 0 0 0 0 0 0 0 127 0" result="hardAlpha"/>
<feOffset dx="-1.5" dy="3"/>
<feComposite in2="hardAlpha" operator="out"/>
<feColorMatrix type="matrix" values="0 0 0 0 0.145098 0 0 0 0 0.305882 0 0 0 0 0.117647 0 0 0 1 0"/>
<feBlend mode="normal" in2="BackgroundImageFix" result="effect1_dropShadow_244_2229"/>
<feBlend mode="normal" in="SourceGraphic" in2="effect1_dropShadow_244_2229" result="shape"/>
</filter>
</defs>
</svg>
