<svg width="1440" height="482" viewBox="0 0 1440 482" fill="none" xmlns="http://www.w3.org/2000/svg">
<path d="M-60.1882 479.806C45.4535 480.299 151.194 480.89 256.835 481.382C286.71 478.131 309.902 453.894 311.867 424.633C313.931 393.795 291.623 368.77 266.269 361.578C240.817 354.385 219.296 366.898 215.168 369.46C214.284 330.937 184.704 299.015 147.557 295.37C108.642 291.429 72.1833 319.41 65.6974 359.213C48.7947 336.356 17.1513 330.444 -5.84417 345.026C-30.3137 360.494 -37.9789 394.485 -21.5676 419.904C-83.7734 417.638 -105 438.82 -105 455.372C-105 470.249 -90.0627 481.382 -60.1882 479.806V479.806Z" fill="white"/>
<path d="M1177.89 165.074C1272.21 165.514 1366.62 166.041 1460.95 166.481C1487.62 163.578 1508.33 141.938 1510.08 115.812C1511.92 88.2781 1492.01 65.9343 1469.37 59.5126C1446.64 53.091 1427.43 64.2629 1423.74 66.5501C1422.95 32.1547 1396.54 3.65319 1363.38 0.398392C1328.63 -3.12031 1296.08 21.8625 1290.29 57.4014C1275.19 36.9929 1246.94 31.7149 1226.41 44.7341C1204.56 58.545 1197.72 88.8938 1212.37 111.589C1156.83 109.566 1137.88 128.479 1137.88 143.258C1137.88 156.541 1151.21 166.481 1177.89 165.074V165.074Z" fill="white"/>
<path d="M12.9073 159.215C81.0551 159.533 149.266 159.914 217.414 160.232C236.686 158.135 251.647 142.5 252.914 123.624C254.246 103.731 239.855 87.5877 223.5 82.9482C207.081 78.3086 193.198 86.3802 190.535 88.0326C189.965 63.1822 170.883 42.5901 146.921 40.2385C121.817 37.6963 98.2981 55.7462 94.1142 81.4228C83.2105 66.6778 62.7979 62.8645 47.9638 72.2707C32.1789 82.249 27.2342 104.176 37.8209 120.573C-2.30705 119.112 -16 132.776 -16 143.453C-16 153.05 -6.36422 160.232 12.9073 159.215V159.215Z" fill="white"/>
</svg>
