<svg width="261" height="227" viewBox="0 0 261 227" fill="none" xmlns="http://www.w3.org/2000/svg">
<g filter="url(#filter0_d_244_2561)">
<path d="M132.2 205.264L136.505 1.48314L107.33 13.0176L113.81 205.264H132.2Z" fill="#C5AD8A" stroke="#254E1E" stroke-width="2"/>
<g filter="url(#filter1_d_244_2561)">
<path d="M214.564 106.903L214.212 107.218L213.744 107.146C195.328 104.297 150.827 104.203 121.313 105.82C96.4807 107.18 59.184 115.647 36.8694 120.714C33.2204 121.542 29.9721 122.279 27.2443 122.88L25.9146 123.173L26.0331 121.816L29.1644 85.977L29.2259 85.2725L29.9107 85.0957C32.5257 84.4208 36.4679 83.4161 40.3764 82.4449C37.6051 82.6975 34.8423 82.9577 32.6195 83.1716L31.7146 83.2586L31.5419 82.3661L30.9565 79.34L30.7862 78.46L31.6424 78.1948C32.3958 77.9615 33.42 77.6549 34.5041 77.3473C33.5175 77.2767 32.5129 77.2261 31.579 77.2131C30.1604 77.1933 29.0008 77.263 28.3119 77.4387L27.666 77.6035L27.2655 77.0707L4.67801 47.0249L3.73358 45.7686L5.27166 45.4454C35.7438 39.0414 101.892 27.8707 122.629 26.9188C149.601 25.6809 191.129 24.6221 224.91 26.2029L225.398 26.2258L225.68 26.6259L241.682 49.3386L258.162 69.5762L258.814 70.3769L257.993 71.0029L235.782 87.9313L214.564 106.903Z" fill="#E2D1B7" stroke="#254E1E" stroke-width="2"/>
<path d="M52.6019 80.3893C49.0822 81.0242 36.1816 84.2857 30.1712 85.837L29.4753 93.8014C41.284 92.3547 66.661 89.1439 73.7004 87.874C82.4996 86.2867 102.995 76.788 108.066 75.9873C122.715 73.6741 145.814 77.254 149.418 77.9225C153.022 78.5909 181.842 76.441 193.088 76.9672C202.084 77.3882 227.645 81.6793 239.302 83.7722L257.397 69.9806L240.896 49.716L232.885 38.3455C200.821 36.012 134.044 32.0208 123.447 34.7237C110.202 38.1023 92.5336 42.7733 85.2787 42.4338C78.0239 42.0943 60.2855 48.2614 55.1838 48.5225C50.082 48.7835 14.6533 52.3209 11.9904 54.8466L28.0754 76.2428C31.3868 75.3982 41.8596 76.8879 40.4087 76.82C39.2479 76.7656 34.2852 78.1994 31.9489 78.9231L32.5343 81.9492C40.6901 81.1646 56.1216 79.7543 52.6019 80.3893Z" fill="#C5AD8A"/>
</g>
<path d="M47.8665 59.7184C48.8111 63.0084 51.3987 64.3405 55.2302 64.1545C59.0897 63.9671 62.3086 60.9795 62.1497 57.7074C61.8633 51.8063 54.042 52.3823 53.8981 49.4178C53.8614 48.6627 54.4338 48.3265 55.1609 48.2912C56.3915 48.2315 57.5017 49.1587 57.543 50.5864L61.3343 47.2626C59.9406 45.1157 57.0909 44.1608 54.3781 44.2925C51.05 44.454 47.9712 46.2855 48.1464 49.8932C48.4125 55.3748 56.2495 54.5458 56.4192 58.0417C56.4586 58.8527 55.792 59.5579 54.6453 59.6135C52.9394 59.6963 51.7501 58.2964 52.0308 56.5727L47.8665 59.7184ZM70.6178 63.4075C75.54 63.1685 77.2693 59.5244 77.1235 55.9432C76.9777 52.3621 74.9021 48.8746 69.9799 49.1136C65.0297 49.3539 63.3297 53.0247 63.5035 56.6044C63.6773 60.1842 65.7236 63.6451 70.6178 63.4075ZM68.3978 56.3668C68.3204 54.7727 69.0758 53.5867 70.1944 53.5324C71.3131 53.4781 72.1519 54.5867 72.2293 56.1808C72.3067 57.7749 71.5513 58.961 70.4606 59.0139C69.3419 59.0682 68.4752 57.961 68.3978 56.3668ZM85.4637 62.6867C88.2325 62.5523 90.9135 61.1887 91.8459 58.4523L88.0076 55.6111C88.0796 57.0933 86.8952 58.1039 85.6926 58.1623C84.5739 58.2166 83.4704 57.4292 83.3754 55.4715C83.3007 53.9333 84.0854 52.7739 85.2321 52.7182C86.2389 52.6694 87.341 53.4288 87.3168 54.6634L91.3482 51.6644C89.801 49.2446 87.8197 48.2755 84.7713 48.4235C80.3245 48.6394 78.3435 52.2958 78.5173 55.8756C78.6897 59.4274 81.017 62.9026 85.4637 62.6867ZM93.6585 62.1487L98.9722 61.8908C97.9355 55.5496 97.8758 54.319 98.2934 47.9072L92.9796 48.1652C94.0163 54.5064 94.0761 55.7369 93.6585 62.1487ZM92.9318 42.5609L93.1151 46.3365L98.0093 46.0989L97.826 42.3233L92.9318 42.5609ZM105.061 61.7353C106.767 61.6525 108.462 60.7573 109.365 57.9942L109.65 58.0925C109.091 58.7083 109.161 60.7233 109.109 61.3986L114.423 61.1406C113.873 57.8875 113.465 55.2722 113.275 51.9175C113.147 49.2886 111.163 47.1142 107.192 47.307C103.528 47.4849 101.078 49.5661 101.203 52.1391C101.226 52.6145 101.362 53.1125 101.584 53.6344L106.459 53.0052C106.059 52.2678 106.698 51.564 107.453 51.5273C108.236 51.4893 109.099 51.952 109.17 53.4063L109.189 53.7978L106.896 53.9092C103.036 54.0965 100.597 55.8128 100.715 58.246C100.806 60.1198 102.516 61.8589 105.061 61.7353ZM106.162 57.2807C106.124 56.4976 106.957 55.1677 108.914 55.0726L109.222 55.0577L109.237 55.3653C109.23 56.9635 107.764 57.9318 106.897 57.9739C106.449 57.9956 106.183 57.7002 106.162 57.2807ZM115.056 41.4868C115.579 45.33 115.786 49.581 115.998 53.9438C116.06 59.8557 119.249 61.439 124.153 60.8365L123.891 55.4388C123.539 56.2689 122.911 56.6077 122.268 56.639C121.317 56.6851 120.354 55.9189 120.277 54.3248C120.123 50.5758 120.135 45.0527 120.37 41.2288L115.056 41.4868ZM139.4 59.9281C138.783 56.4539 138.713 51.5515 139.21 47.9392L139.49 47.9256C139.16 52.6792 141.192 53.5336 141.721 59.8154L145.441 59.6348C145.359 53.3313 147.299 52.2841 146.51 47.5848L146.817 47.5699C147.662 51.117 148.04 56.0045 147.762 59.5221L153.775 59.2302C151.435 54.9146 150.562 42.7066 150.419 39.77L145.05 40.0307C145.588 41.2941 144.506 46.7289 143.366 52.6992L143.114 52.7115C141.402 46.8797 139.798 41.5752 140.211 40.2656L134.87 40.5249C134.984 43.4628 135.298 55.698 133.387 60.22L139.4 59.9281ZM154.82 51.8629C154.999 55.5545 157.452 59.304 161.758 59.0949C163.604 59.0053 166.216 57.9534 167.404 55.8493L164.404 52.3787C164.516 53.5227 163.323 54.3655 162.176 54.4211C161.281 54.4646 160.326 53.8382 160.074 52.701L167.07 51.8568C166.918 47.5752 164.529 44.5515 160.557 44.7443C156.474 44.9425 154.651 48.395 154.82 51.8629ZM160.923 48.8193C161.539 48.7894 162.176 49.207 162.22 50.13L159.72 50.5878C159.525 49.4759 160.224 48.8533 160.923 48.8193ZM168.532 51.3934C168.741 55.7003 170.899 58.5671 173.891 58.4218C175.15 58.3607 176.313 57.4913 176.978 55.6088L178.386 58.0354L182.161 57.8521C181.124 51.5109 180.793 44.6869 181.211 38.2752L175.897 38.5331C176.417 41.7317 176.633 42.7304 176.795 46.0584L177.156 47.7229L176.876 47.7365C176.761 45.3593 174.93 44.0185 173 44.1122C170.707 44.2235 168.29 46.4153 168.532 51.3934ZM173.425 51.1278C173.358 49.7574 173.907 48.3572 175.138 48.2974C176.34 48.2391 177.022 49.5796 177.088 50.95C177.155 52.3203 176.606 53.7206 175.404 53.779C174.173 53.8387 173.491 52.4982 173.425 51.1278ZM184.116 57.7572L189.429 57.4992C188.393 51.1581 188.333 49.9275 188.75 43.5157L183.437 43.7737C184.473 50.1149 184.533 51.3454 184.116 57.7572ZM183.389 38.1694L183.572 41.945L188.466 41.7074L188.283 37.9318L183.389 38.1694ZM195.518 57.3438C197.224 57.261 198.919 56.3658 199.822 53.6027L200.107 53.701C199.548 54.3168 199.618 56.3318 199.566 57.0071L204.88 56.7491C204.33 53.496 203.923 50.8807 203.732 47.526C203.604 44.8971 201.62 42.7227 197.649 42.9155C193.985 43.0934 191.535 45.1746 191.66 47.7476C191.683 48.223 191.82 48.721 192.041 49.2429L196.916 48.6137C196.516 47.8763 197.155 47.1725 197.91 47.1358C198.693 47.0978 199.556 47.5605 199.627 49.0148L199.646 49.4063L197.353 49.5176C193.493 49.705 191.054 51.4213 191.172 53.8545C191.263 55.7283 192.973 57.4674 195.518 57.3438ZM196.619 52.8892C196.581 52.1061 197.414 50.7762 199.372 50.6811L199.679 50.6662L199.694 50.9738C199.688 52.572 198.221 53.5403 197.354 53.5824C196.906 53.6041 196.64 53.3087 196.619 52.8892ZM68.7649 95.3949C68.2922 92.5866 68.0361 90.7769 67.867 87.8696C69.2319 87.6912 70.1535 87.6185 71.0764 87.5737C71.9993 87.5289 72.9236 87.512 74.2714 87.5587C74.3847 90.4686 74.2771 92.296 74.1066 95.1356L79.7001 94.8641C78.6593 88.439 78.3361 81.7828 78.7496 75.2871L73.1562 75.5587C73.6249 78.2832 73.8701 79.8691 74.0365 82.7204C72.7541 82.8668 71.8605 82.9382 70.9656 82.9816C69.9867 83.0292 69.0345 83.0473 67.6307 83.0034C67.5495 80.176 67.6399 78.5737 67.8145 75.818L62.2211 76.0896C63.2578 82.4307 63.5891 89.2547 63.1715 95.6665L68.7649 95.3949ZM81.6538 94.7692L86.9676 94.5112C85.9309 88.1701 85.8711 86.9395 86.2887 80.5277L80.9749 80.7857C82.0117 87.1269 82.0714 88.3574 81.6538 94.7692ZM80.9271 75.1814L81.1104 78.957L86.0047 78.7194L85.8214 74.9438L80.9271 75.1814ZM88.6552 97.8213C90.3519 99.2807 93.4821 99.6614 95.4118 99.5677C100.306 99.3301 104.353 94.9287 104.086 90.0078C103.89 86.5413 103.916 83.0359 104.117 79.6622L99.3344 79.8944L98.351 82.1567C97.8077 80.7814 96.1394 79.9093 94.4334 79.9921C92.0283 80.1089 89.5449 82.0796 89.792 87.1696C90.0432 92.3436 92.5809 94.3789 94.9021 94.2662C97.0276 94.163 98.9544 92.2754 98.8159 89.4227L99.1235 89.4078L98.9546 91.126C98.8906 93.8483 96.8473 95.0688 94.6379 95.1761C92.4285 95.2833 90.0809 94.276 89.4654 92.5678L88.6552 97.8213ZM94.6957 87.1278C94.6184 85.5337 95.3737 84.3477 96.4924 84.2934C97.6111 84.239 98.4498 85.3477 98.5272 86.9418C98.6046 88.5359 97.8772 89.7206 96.7585 89.7749C95.6399 89.8292 94.8011 88.7206 94.6957 87.1278ZM111.778 93.3067C111.387 91.027 111.16 89.8046 110.989 87.4301C110.808 84.8599 111.945 83.4591 113.092 83.4034C114.071 83.3559 115.087 84.6521 115.212 87.2251C115.305 89.1548 115.146 89.9194 114.939 93.1533L120.253 92.8953C119.733 89.6968 119.473 87.8032 119.379 85.8734C119.231 82.825 118.085 78.8439 114.505 79.0177C112.855 79.0978 110.597 79.9363 110.742 82.9288L110.434 82.9437L110.659 81.2228C110.498 77.8947 110.621 76.9636 110.828 73.7298L105.514 73.9878C106.551 80.3289 106.882 87.1529 106.465 93.5647L111.778 93.3067ZM120.797 73.2458C121.32 77.089 121.526 81.34 121.738 85.7028C121.8 91.6148 124.989 93.198 129.894 92.5955L129.632 87.1978C129.279 88.0279 128.651 88.3667 128.008 88.398C127.057 88.4441 126.095 87.6779 126.017 86.0838C125.863 82.3348 125.875 76.8117 126.11 72.9879L120.797 73.2458ZM131.576 92.3456L136.89 92.0876C135.853 85.7464 135.793 84.5159 136.211 78.1041L130.897 78.3621C131.934 84.7032 131.994 85.9338 131.576 92.3456ZM130.849 72.7578L131.033 76.5333L135.927 76.2957L135.744 72.5202L130.849 72.7578ZM138.577 95.3977C140.274 96.8571 143.404 97.2378 145.334 97.1441C150.228 96.9065 154.276 92.5051 154.009 87.5842C153.812 84.1177 153.838 80.6123 154.039 77.2386L149.257 77.4707L148.273 79.7331C147.73 78.3578 146.062 77.4857 144.356 77.5685C141.951 77.6853 139.467 79.656 139.714 84.746C139.965 89.9199 142.503 91.9553 144.824 91.8426C146.95 91.7394 148.877 89.8517 148.738 86.9991L149.046 86.9842L148.877 88.7024C148.813 91.4247 146.77 92.6452 144.56 92.7525C142.351 92.8597 140.003 91.8524 139.388 90.1442L138.577 95.3977ZM144.618 84.7042C144.541 83.1101 145.296 81.924 146.415 81.8697C147.533 81.8154 148.372 82.9241 148.45 84.5182C148.527 86.1123 147.8 87.297 146.681 87.3513C145.562 87.4056 144.723 86.2969 144.618 84.7042ZM161.701 90.8831C161.31 88.6034 161.082 87.381 160.911 85.0065C160.73 82.4362 161.867 81.0354 163.014 80.9798C163.993 80.9322 165.009 82.2285 165.134 84.8015C165.228 86.7312 165.068 87.4958 164.861 90.7297L170.175 90.4717C169.655 87.2731 169.395 85.3795 169.301 83.4498C169.153 80.4014 168.007 76.4203 164.427 76.5941C162.777 76.6742 160.519 77.5127 160.664 80.5051L160.357 80.5201L160.582 78.7992C160.42 75.4711 160.543 74.54 160.75 71.3062L155.437 71.5641C156.473 77.9053 156.805 84.7293 156.387 91.1411L161.701 90.8831ZM172.836 76.326C173.009 78.7285 173.131 81.2455 173.253 83.7625C173.518 89.2161 176.644 90.6622 181.382 90.0958L181.12 84.6982C180.402 85.4899 179.776 85.8847 179.245 85.9105C178.21 85.9608 177.564 84.7867 177.511 83.696C177.412 81.6544 177.287 77.9321 177.339 76.1074L180.136 75.9716L180.05 74.2097C179.761 74.6162 178.711 74.9195 177.431 75.1218C177.454 73.8592 177.471 71.8961 177.571 70.4896L172.257 70.7475C172.433 72.0565 172.584 74.0115 172.759 75.3205C171.494 75.2418 170.503 75.0376 170.262 74.6849L170.347 76.4468L172.836 76.326ZM182.892 86.6305C183.434 88.5385 186.104 89.8385 188.649 89.715C191.362 89.5833 193.968 87.8309 193.835 85.0901C193.756 83.468 192.759 82.5633 191.689 81.8864C190.272 81.002 188.809 80.3162 188.762 79.3373C188.745 79.0017 188.933 78.8244 189.157 78.8135C189.716 78.7864 190.597 79.6126 190.505 80.5983L193.545 77.3951C192.299 75.9698 190.584 75.2962 188.514 75.3967C185.802 75.5284 183.242 77.0823 183.36 79.5154C183.467 81.7248 185.439 82.4981 186.776 83.4705C187.445 83.9706 187.977 84.5335 188.016 85.3445C188.041 85.8479 187.747 86.1425 187.383 86.1602C186.768 86.1901 185.944 85.3891 186.183 83.3871L182.892 86.6305Z" fill="#152F11"/>
<path d="M81.4108 199.914C82.0519 200.397 93.3886 215.506 98.9767 223H152.075C151.327 223 153.322 216.96 154.413 213.94C154.413 212.705 158.287 205.149 160.224 201.525L170.91 186.09C174.228 181.839 180.889 173.057 180.996 171.93C181.103 170.802 179.081 170.431 178.057 170.386C171.89 174.055 158.527 182.144 154.413 185.15C150.299 188.157 141.79 202.822 138.049 209.779V206.155L138.918 191.66L140.12 179.043C140.365 175.039 141.215 165.836 142.658 161.058C144.101 156.28 142.057 155.443 140.855 155.622C136.901 155.622 131.148 168.999 128.765 175.688L122.287 201.525L120.884 195.821L117.678 186.09L112.869 175.688L107.994 167.769L97.0398 153.944C93.2105 150.79 84.8705 144.092 82.1455 142.536C79.4204 140.979 78.6946 143.184 78.6723 144.482C80.2085 143.878 95.3033 174.949 97.0398 179.714C98.4291 180.144 102.071 196.223 103.719 204.209L95.3033 198.908C90.6724 196.782 80.8631 192.358 78.6723 191.66C76.4816 190.962 75.9784 193.069 76.0007 194.21C77.5369 195.91 80.7696 199.431 81.4108 199.914Z" fill="#498A3E" stroke="#254E1E" stroke-width="2"/>
</g>
<defs>
<filter id="filter0_d_244_2561" x="0.489868" y="0" width="259.752" height="227" filterUnits="userSpaceOnUse" color-interpolation-filters="sRGB">
<feFlood flood-opacity="0" result="BackgroundImageFix"/>
<feColorMatrix in="SourceAlpha" type="matrix" values="0 0 0 0 0 0 0 0 0 0 0 0 0 0 0 0 0 0 127 0" result="hardAlpha"/>
<feOffset dx="-1.5" dy="3"/>
<feComposite in2="hardAlpha" operator="out"/>
<feColorMatrix type="matrix" values="0 0 0 0 0.145098 0 0 0 0 0.305882 0 0 0 0 0.117647 0 0 0 1 0"/>
<feBlend mode="normal" in2="BackgroundImageFix" result="effect1_dropShadow_244_2561"/>
<feBlend mode="normal" in="SourceGraphic" in2="effect1_dropShadow_244_2561" result="shape"/>
</filter>
<filter id="filter1_d_244_2561" x="0.489868" y="24.4072" width="259.752" height="103.035" filterUnits="userSpaceOnUse" color-interpolation-filters="sRGB">
<feFlood flood-opacity="0" result="BackgroundImageFix"/>
<feColorMatrix in="SourceAlpha" type="matrix" values="0 0 0 0 0 0 0 0 0 0 0 0 0 0 0 0 0 0 127 0" result="hardAlpha"/>
<feOffset dx="-1.5" dy="3"/>
<feComposite in2="hardAlpha" operator="out"/>
<feColorMatrix type="matrix" values="0 0 0 0 0.145098 0 0 0 0 0.305882 0 0 0 0 0.117647 0 0 0 1 0"/>
<feBlend mode="normal" in2="BackgroundImageFix" result="effect1_dropShadow_244_2561"/>
<feBlend mode="normal" in="SourceGraphic" in2="effect1_dropShadow_244_2561" result="shape"/>
</filter>
</defs>
</svg>
