<svg width="665" height="114" viewBox="0 0 665 114" fill="none" xmlns="http://www.w3.org/2000/svg">
<g filter="url(#filter0_d_244_2576)">
<path d="M650.192 81.8379L650.245 83.0142L649.072 82.8998C637.199 81.7416 575.172 80.9675 511.283 80.582C447.427 80.1967 381.832 80.1996 362.888 80.587C344.27 80.9677 268.819 83.0092 194.921 85.3092C120.986 87.6104 48.7095 90.1678 36.3667 91.5759L35.1191 91.7182L35.2825 90.4754L38.6949 64.5264L38.7969 63.7502L39.5744 63.6447C41.5502 63.3768 44.112 63.0326 46.9051 62.6621C45.3973 62.7264 43.9681 62.7883 42.6801 62.8447L41.9613 62.8763L41.717 62.2072L40.9128 60.0048L40.4947 58.8598L41.7127 58.6589C41.9434 58.6208 42.1942 58.5799 42.461 58.5368C40.2074 58.468 38.1506 58.4764 36.9407 58.6384L36.5383 58.6923L36.2177 58.4526L6.67019 36.3591L4.63749 34.8391L7.19589 34.5618C46.3161 30.3211 336.907 23.2462 363.404 22.8372C398.04 22.3027 618.579 22.1954 661.996 23.7953L663.068 23.8348L662.93 24.9L660.763 41.5938L660.657 42.4088L659.837 42.4823L633.184 44.8735L655.936 49.4722L657.138 49.7152L656.627 50.8452L653.943 56.7822L653.929 56.8134L653.913 56.8436L649.434 65.2116L650.192 81.8379Z" fill="#E1D2BA" stroke="#254E1E" stroke-width="2"/>
<path d="M68.4267 60.9855C63.9134 61.3986 47.3866 63.5902 39.6873 64.6344L37.9811 77.6089C121.635 73.8085 297.431 66.5117 331.387 67.7278C365.343 68.9438 556.891 66.4179 648.421 65.0029L653.032 56.3884L655.716 50.4513L626.247 44.4948L659.77 41.4873L660.853 33.1404C546.522 36.863 308.085 45.49 268.991 50.2172C229.897 54.9445 91.171 52.0891 26.695 50.0705L36.8294 57.6483C41.0714 57.0804 54.5587 58.3017 52.6924 58.2329C51.1994 58.1779 44.8449 59.1509 41.8542 59.6442L42.6585 61.8467C53.1285 61.3875 72.94 60.5724 68.4267 60.9855Z" fill="#C5AD8A"/>
</g>
<defs>
<filter id="filter0_d_244_2576" x="0.493042" y="21.4838" width="663.706" height="74.3693" filterUnits="userSpaceOnUse" color-interpolation-filters="sRGB">
<feFlood flood-opacity="0" result="BackgroundImageFix"/>
<feColorMatrix in="SourceAlpha" type="matrix" values="0 0 0 0 0 0 0 0 0 0 0 0 0 0 0 0 0 0 127 0" result="hardAlpha"/>
<feOffset dx="-1.5" dy="3"/>
<feComposite in2="hardAlpha" operator="out"/>
<feColorMatrix type="matrix" values="0 0 0 0 0.145098 0 0 0 0 0.305882 0 0 0 0 0.117647 0 0 0 1 0"/>
<feBlend mode="normal" in2="BackgroundImageFix" result="effect1_dropShadow_244_2576"/>
<feBlend mode="normal" in="SourceGraphic" in2="effect1_dropShadow_244_2576" result="shape"/>
</filter>
</defs>
</svg>
