<svg preserveAspectRatio="none" width="664" height="114" viewBox="0 0 664 114" fill="none" xmlns="http://www.w3.org/2000/svg">
<path d="M649.192 81.8379L649.245 83.0142L648.072 82.8998C636.199 81.7416 574.172 80.9675 510.283 80.582C446.427 80.1967 380.832 80.1996 361.888 80.587C343.27 80.9677 267.819 83.0092 193.921 85.3092C119.986 87.6104 47.7095 90.1678 35.3667 91.5759L34.1191 91.7182L34.2825 90.4754L37.6949 64.5264L37.7969 63.7502L38.5744 63.6447C40.5502 63.3768 43.112 63.0326 45.9051 62.6621C44.3973 62.7264 42.9681 62.7883 41.6801 62.8447L40.9613 62.8763L40.717 62.2072L39.9128 60.0048L39.4947 58.8598L40.7127 58.6589C40.9434 58.6208 41.1942 58.5799 41.461 58.5368C39.2074 58.468 37.1506 58.4764 35.9407 58.6384L35.5383 58.6923L35.2177 58.4526L5.67019 36.3591L3.63749 34.8391L6.19589 34.5618C45.3161 30.3211 335.907 23.2462 362.404 22.8372C397.04 22.3027 617.579 22.1954 660.996 23.7953L662.068 23.8348L661.93 24.9L659.763 41.5938L659.657 42.4088L658.837 42.4823L632.184 44.8735L654.936 49.4722L656.138 49.7152L655.627 50.8452L652.943 56.7822L652.929 56.8134L652.913 56.8436L648.434 65.2116L649.192 81.8379Z" fill="#E1D2BA" stroke="#254E1E" stroke-width="2"/>
<path d="M67.4267 60.9855C62.9134 61.3986 46.3866 63.5902 38.6873 64.6344L36.9811 77.6089C120.635 73.8085 296.431 66.5117 330.387 67.7278C364.343 68.9438 555.891 66.4179 647.421 65.0029L652.032 56.3884L654.716 50.4513L625.247 44.4948L658.77 41.4873L659.853 33.1404C545.522 36.863 307.085 45.49 267.991 50.2172C228.897 54.9445 90.171 52.0891 25.695 50.0705L35.8294 57.6483C40.0714 57.0804 53.5587 58.3017 51.6924 58.2329C50.1994 58.1779 43.8449 59.1509 40.8542 59.6442L41.6585 61.8467C52.1285 61.3875 71.94 60.5724 67.4267 60.9855Z" fill="#C5AD8A"/>
</svg>
